<svg width="100" height="99" viewBox="0 0 100 99" fill="none" xmlns="http://www.w3.org/2000/svg">
<path d="M75.403 63.2381C72.0674 63.2259 68.7219 62.8856 65.4573 62.2264C64.438 62.0189 63.2966 61.732 62.6458 60.9431C62.4032 60.6494 62.23 60.2931 62.1156 59.8559L61.9798 59.3333L69.7114 59.8277H69.7496C69.9579 59.8277 70.1318 59.6644 70.1448 59.4562C70.1585 59.2387 69.9922 59.0495 69.774 59.0358C69.774 59.0358 62.5237 58.5727 62.5222 58.5727C62.4825 58.5727 62.4528 58.5765 62.423 58.5834L61.9454 58.6932V58.2026C61.9454 58.076 61.947 57.9486 61.9492 57.8235C61.9866 55.8123 62.1514 53.7966 62.4398 51.8321C62.626 50.5557 62.9014 49.1122 63.8177 48.1432C64.0779 47.8663 64.3991 47.6252 64.7706 47.4261L65.4512 47.0637L64.6989 52.3013C64.6684 52.5172 64.8202 52.7201 65.0369 52.7522C65.0567 52.7552 65.075 52.7552 65.0933 52.7552C65.2894 52.7552 65.458 52.6087 65.4863 52.4142L66.2225 47.2765L66.2217 47.2681C66.2217 47.2498 66.2217 47.2307 66.2233 47.2117L66.2408 46.9019L66.546 46.8493C67.3845 46.7028 68.3 46.6685 69.0843 46.654L71.1458 46.612L70.9589 51.0447L70.643 51.0943C69.7252 51.24 68.9332 51.8443 68.4717 52.7529C67.859 53.9622 68.0276 55.3134 68.9004 56.1953C69.4337 56.734 70.199 57.0422 70.9978 57.0422C71.5372 57.0422 72.0537 56.9026 72.4916 56.6378C73.5269 56.0099 74.048 54.7145 73.7871 53.4144C73.5757 52.3615 72.9295 51.565 72.014 51.2301L71.7577 51.1363V50.8296L71.763 50.7937L71.9415 46.5967L75.564 46.5273L75.3458 53.0734C75.3389 53.2916 75.5121 53.4762 75.7311 53.4846L75.7425 53.4838C75.9584 53.4838 76.1324 53.3152 76.1392 53.1001L76.3437 46.9706L76.3391 46.9233L76.3086 46.5121L80.282 46.4335L80.9389 62.9626L80.5712 62.9985C79.3581 63.116 78.1526 63.1915 76.9892 63.2228L76.6046 63.2327L76.4208 58.8527C76.4116 58.6421 76.2361 58.472 76.0279 58.472L76.008 58.4727C75.902 58.4765 75.8035 58.5223 75.7326 58.6001C75.6609 58.678 75.6235 58.7794 75.6288 58.8847L75.8119 63.2396L75.403 63.2381Z" fill="#F7B36F"/>
<path d="M71.0023 56.2458C70.4088 56.2458 69.8488 56.0237 69.4665 55.6377C69.0988 55.2677 68.9042 54.784 68.9042 54.24C68.9042 53.8646 69.0019 53.4641 69.1781 53.1131C69.581 52.3219 70.2836 51.8512 71.058 51.8512C71.1534 51.8512 71.2526 51.8581 71.3525 51.8726C72.6076 52.0602 72.9379 53.2192 73.0096 53.5701C73.1714 54.3811 72.9463 55.4325 72.0796 55.9589C71.7683 56.1466 71.396 56.2458 71.0023 56.2458V56.2458Z" fill="#F7B36F"/>
<path d="M49.2325 10.7972C50.518 9.02714 52.6505 7.92773 54.7974 7.92773C54.963 7.92773 55.13 7.9346 55.2933 7.94757C56.292 8.02768 57.1808 8.33362 57.8614 8.83259C58.4778 9.28425 58.9226 9.90986 59.1141 10.5927L59.2774 11.1763L58.6785 11.0848C57.4868 10.9017 56.263 10.8086 55.04 10.8086C53.2288 10.8086 51.4099 11.01 49.6338 11.4075L48.6252 11.6334L49.2325 10.7972Z" fill="#F7B36F"/>
<path d="M54.4274 42.8431C53.859 42.8431 53.3013 42.6829 52.8565 42.393C51.8723 41.7513 51.3405 40.4429 51.593 39.2817C51.7273 38.6713 52.0203 38.151 52.4407 37.7749C52.8649 37.3965 53.4104 37.1729 54.0184 37.1256C54.0871 37.1195 54.1634 37.1165 54.2404 37.1165C55.2094 37.1165 56.5369 37.6299 57.0893 39.0772C57.5059 40.1698 57.119 41.5392 56.189 42.2633C55.7114 42.6364 55.0858 42.8431 54.4274 42.8431Z" fill="#F7B36F"/>
<path d="M48.0423 52.4593C46.9894 51.0967 45.6528 49.9126 44.1749 49.0344L43.7675 48.7918L44.0834 48.4386C45.1942 47.1957 46.2196 45.8713 47.1298 44.5018L47.4594 44.0059L47.7829 44.5056C48.3597 45.3982 49.0723 46.1452 49.8985 46.7265C50.4372 47.1088 51.0368 47.4223 51.6838 47.6604L52.1454 47.8305L51.8746 48.2417C50.9041 49.7173 49.8177 51.1424 48.645 52.4784L48.3322 52.8346L48.0423 52.4593Z" fill="#F7B36F"/>
<path d="M42.4568 57.5832C41.7778 55.9803 40.6745 54.5887 39.2654 53.561L38.8458 53.2551L39.2562 52.9369C40.57 51.9176 41.8274 50.7969 42.9924 49.6074L43.2007 49.3938L43.4616 49.5395C45.0676 50.4367 46.4928 51.6918 47.5838 53.1704L47.7783 53.4336L47.5525 53.6716C46.1647 55.1296 44.6525 56.4983 43.0565 57.7396L42.6544 58.0517L42.4568 57.5832Z" fill="#F7B36F"/>
<path d="M35.1974 62.009C34.8022 60.3328 33.9736 58.7779 32.801 57.513L32.4447 57.1285L32.9154 56.8965C34.6458 56.0466 36.3334 55.0441 37.9303 53.9165L38.1454 53.7646L38.3667 53.9073C39.9437 54.919 41.1796 56.4395 41.8457 58.189L41.8655 58.224L42.0135 58.5231L41.7419 58.7161C40.9279 59.296 40.1581 59.8079 39.3883 60.2817C38.2286 60.9951 37.0041 61.6649 35.7475 62.2715L35.3096 62.4828L35.1974 62.009Z" fill="#F7B36F"/>
<path d="M28.4484 64.4993C28.2889 62.8025 27.7739 61.1904 26.9156 59.7065L26.6661 59.2754L27.1445 59.1365C28.5834 58.7169 30.0193 58.1974 31.4101 57.5908L31.6482 57.4871L31.8358 57.6664C33.1916 58.9611 34.1369 60.6846 34.4962 62.5187L34.5573 62.8269L34.2689 62.952C32.5393 63.7035 30.7471 64.3383 28.942 64.8388L28.4926 64.9639L28.4484 64.4993Z" fill="#F7B36F"/>
<path d="M25.8765 26.1514C24.6527 24.6225 24.404 22.3611 25.2707 20.6529C26.0985 19.021 27.9212 17.9132 29.8064 17.8956L30.5182 17.8895L30.1421 18.493C28.6643 20.8612 27.4565 23.398 26.5509 26.0347L26.3198 26.7061L25.8765 26.1514Z" fill="#F7B36F"/>
<path d="M23.0078 65.4994C23.0818 65.0157 23.1314 64.5565 23.1604 64.0964C23.2527 62.7109 23.1985 61.5299 22.9971 60.4839L22.9208 60.0925L23.3138 60.0246C24.0714 59.8933 24.8328 59.7354 25.5774 59.5554L25.8498 59.4897L25.9993 59.7263C26.9713 61.2598 27.5511 63.0252 27.6785 64.8311L27.7014 65.1638L27.3772 65.2393C26.0695 65.5437 24.7458 65.7817 23.4435 65.9458L22.93 66.0106L23.0078 65.4994Z" fill="#F7B36F"/>
<path d="M50.6264 95.6572C44.5755 95.6572 39.1349 95.5397 33.9935 95.2986C31.5902 95.1857 29.4356 95.0338 27.4085 94.3174C25.1288 93.5125 23.3618 92.0103 22.5607 90.1968C21.5781 87.9758 21.9443 85.0721 23.5167 82.6192C25.0441 80.2358 27.378 78.5634 29.4585 77.242C32.6583 75.2095 36.0938 73.5104 39.669 72.1913C42.839 71.0224 46.1265 70.1473 49.4408 69.5912C49.6666 69.5538 49.894 69.5141 50.1244 69.4744L50.3441 69.437C51.9219 69.1616 53.7056 68.8503 55.3681 68.8503C56.5247 68.8503 57.5036 68.9968 58.3611 69.2967L60.5332 70.0566C66.5261 72.1478 72.7243 74.31 78.7416 76.8048C81.6958 78.0308 85.0306 79.4148 87.3515 81.9234C89.4778 84.2199 90.7641 88.0865 89.1078 91.0329C88.2403 92.5779 86.6114 93.7742 84.5225 94.4013C82.6113 94.9728 80.5712 95.0338 78.5974 95.0933C69.452 95.371 60.0152 95.6572 50.6264 95.6572V95.6572ZM73.3713 91.6006C74.8003 92.8922 76.7542 93.6323 78.7325 93.6323C79.2147 93.6323 79.6839 93.5903 80.1332 93.5064C82.3023 93.1066 84.2341 91.7936 85.3007 89.9938C86.2147 88.455 86.4634 86.794 86.0201 85.1896C85.4449 83.1113 83.7496 81.181 81.3692 79.894C80.5918 79.4728 79.6419 79.2508 78.6219 79.2508C77.7414 79.2508 76.8091 79.4164 75.9256 79.7292L75.7372 79.7955L75.5731 79.6826C75.5457 79.6636 75.5098 79.6399 75.4823 79.6307C71.5753 78.2056 67.518 77.1451 63.4156 76.4752L63.1677 76.434L63.1013 76.1914C62.835 75.2095 62.4055 74.3092 61.8256 73.515C60.2532 71.3635 57.7691 70.1298 55.0087 70.1298C54.6212 70.1298 54.2252 70.155 53.833 70.2038C50.6325 70.6013 48.0377 72.5354 46.891 75.3758C46.6255 76.0373 46.4477 76.7415 46.3646 77.4701L46.3303 77.7661L46.0358 77.8111C46.0121 77.8149 45.9831 77.8226 45.9518 77.8332L40.1733 79.9847L39.9963 79.7894C38.7207 78.3879 37.0277 77.6326 35.0997 77.6051H34.9921C31.919 77.6051 28.6239 79.4392 26.7928 82.1698C25.1815 84.5708 24.9953 87.6569 26.3297 89.8489C27.3696 91.5579 29.3677 92.787 31.6756 93.1364C32.1311 93.205 32.6003 93.2394 33.068 93.2394C34.7755 93.2394 36.4456 92.7809 37.899 91.9119L38.0966 91.7944L38.2957 91.9096C38.3499 91.9416 38.404 91.9592 38.459 91.9637C43.7492 92.4123 49.1264 92.6397 54.4434 92.6397C60.4882 92.6397 66.5803 92.3483 72.5503 91.7722C72.6526 91.7631 72.7449 91.715 72.812 91.6364L73.073 91.3313L73.3713 91.6006Z" fill="#696B77"/>
<path d="M62.9174 39.6769L62.893 39.3145C62.8342 38.441 62.6382 37.6055 62.3101 36.8334C62.1789 36.5237 62.0156 36.2101 61.8256 35.9011L61.4625 35.3121L79.2597 35.1504L79.3131 35.4815C79.5114 36.7007 79.6793 37.9962 79.812 39.3313L79.8555 39.7631L62.9174 39.6769Z" fill="#ED6D66"/>
<path d="M54.6837 47.4079C53.1044 47.4079 51.5671 46.9364 50.3563 46.0803C47.7516 44.2394 46.5401 40.5566 47.5388 37.514C48.0141 36.0682 48.9983 34.714 50.3098 33.7016C51.5381 32.7525 52.9183 32.2085 54.0955 32.2085C54.1695 32.2085 54.2435 32.2108 54.3175 32.2154C56.3996 32.3443 58.6518 33.4422 60.1968 35.0795L60.2212 35.1054L60.2402 35.1351C60.2639 35.1718 60.2944 35.2046 60.3303 35.2336L60.3562 35.2549L60.3783 35.2801C60.9032 35.8722 61.3068 36.4985 61.5784 37.1425C62.8327 40.0996 61.8752 43.8396 59.3522 45.8408C58.0796 46.8517 56.4217 47.4079 54.6837 47.4079ZM54.2595 36.3231C54.1603 36.3231 54.0612 36.3261 53.9612 36.3337C52.3697 36.4535 51.1658 37.5178 50.8187 39.1116C50.7637 39.3596 50.7363 39.619 50.7363 39.8822C50.7363 41.1616 51.3825 42.3793 52.4239 43.0591C53.0014 43.4352 53.6934 43.6343 54.4258 43.6343C55.262 43.6343 56.0616 43.3696 56.6773 42.8889C57.8911 41.9429 58.3756 40.2202 57.8301 38.7927C57.2564 37.2928 55.8548 36.3231 54.2595 36.3231Z" fill="#ED6D66"/>
<path d="M28.4438 38.814C28.6673 37.591 28.9298 36.3871 29.2228 35.235L29.2983 34.9382L47.8752 35.1129L47.5189 35.6996C47.1992 36.2276 46.952 36.754 46.785 37.2652C46.6232 37.7588 46.5103 38.2731 46.4477 38.7934L46.3974 39.2191L45.9785 39.1298C45.9503 39.1237 45.9228 39.1207 45.8923 39.1207L28.3583 39.2794L28.4438 38.814Z" fill="#ED6D66"/>
<path d="M26.7043 28.1976L26.8103 27.8367C27.8479 24.3043 29.4181 20.9565 31.4757 17.8872L31.6474 17.6316L36.37 19.3757L36.0061 19.8022C33.7623 22.4297 31.8847 25.5448 30.4252 29.0612L30.2855 29.3977L26.7043 28.1976Z" fill="#ED6D66"/>
<path d="M14.7619 71.8869C14.3705 71.8869 13.9494 71.8732 13.4741 71.845C12.5188 71.7877 11.424 71.6855 10.5299 71.1911C9.77759 70.7761 9.06118 69.9315 9.15579 68.9809C9.26718 67.8601 10.4475 67.1109 11.4973 66.8889C12.0939 66.7615 12.7157 66.7439 13.2986 66.7439L13.7907 66.7454C13.9631 66.7477 14.1332 66.7493 14.3041 66.7493C14.6932 66.7493 15.0083 66.7401 15.296 66.7195C16.995 66.5982 18.3126 65.9108 18.91 64.8335C19.6104 63.5731 19.2907 61.4842 17.5543 60.3077C16.6693 59.708 15.5584 59.4036 14.2523 59.4036C13.8067 59.4036 13.3329 59.4395 12.8423 59.5097C12.0809 59.618 11.3287 59.795 10.6 59.9659C9.8638 60.1414 9.10925 60.3214 8.33715 60.426C8.21279 60.4435 7.95873 60.4725 7.66729 60.4725C6.83034 60.4725 6.27339 60.2421 6.01246 59.7881C5.75611 59.3411 5.8675 58.6514 6.27644 58.1478C6.69377 57.6359 7.33998 57.304 7.97628 57.0217C9.49377 56.3518 12.4723 55.228 15.3784 55.228C16.5144 55.228 17.5413 55.4035 18.4286 55.7491C19.9461 56.3412 21.0211 57.4017 21.7154 58.9901C22.3005 60.3352 22.5088 61.9404 22.37 64.0431C22.2258 66.2289 21.6086 69.1533 19.4876 70.6769C18.3531 71.491 16.8074 71.8869 14.7619 71.8869Z" fill="#ED6D66"/>
<path d="M49.9664 98.8165C43.1434 98.8165 37.0093 98.6662 31.2117 98.3587C28.4987 98.2138 26.0679 98.02 23.7883 97.1106C21.2049 96.0775 19.1999 94.1473 18.2882 91.8134C17.1644 88.9402 17.5802 85.1911 19.3746 82.0272C21.1073 78.9739 23.7425 76.8384 26.0924 75.153C29.695 72.5667 33.5684 70.4007 37.6052 68.7169C41.1742 67.2283 44.8799 66.1145 48.6183 65.4064C48.9502 65.3446 49.2881 65.2783 49.633 65.2096C51.4076 64.8609 53.418 64.465 55.294 64.465C56.5987 64.465 57.7019 64.6504 58.6685 65.0326L61.1588 66.0145C67.8994 68.6741 74.8704 71.4238 81.6347 74.5953C84.9573 76.151 88.7232 77.9141 91.3546 81.1269C93.78 84.0871 95.2433 89.0783 93.3474 92.8907C92.3601 94.8782 90.5131 96.414 88.1464 97.2151C85.9964 97.9422 83.6992 98.0215 81.4767 98.0986C71.1778 98.4518 60.5446 98.8165 49.9664 98.8165V98.8165ZM55.3665 68.0561C53.6484 68.0561 51.905 68.359 50.2189 68.652L50.0358 68.684C49.7909 68.7268 49.5483 68.7687 49.3103 68.8084C45.9487 69.3722 42.6131 70.2595 39.3943 71.4459C35.7589 72.7872 32.273 74.5114 29.0335 76.5714C26.8782 77.9401 24.4581 79.6781 22.8476 82.1912C21.134 84.8661 20.7449 88.0567 21.8336 90.5172C22.724 92.5291 24.6588 94.187 27.1437 95.0651C29.2708 95.8174 31.4871 95.9745 33.9553 96.0897C39.0998 96.3331 44.5556 96.4506 50.6347 96.4506C60.0373 96.4506 69.4848 96.1638 78.621 95.8868C80.649 95.825 82.7425 95.7609 84.749 95.1605C87.0371 94.4754 88.8308 93.1471 89.7997 91.4213C91.6407 88.1452 90.2544 83.8918 87.9335 81.384C85.4906 78.7442 82.0665 77.3251 79.0452 76.0732C72.9966 73.5646 66.7939 71.4001 60.7949 69.3058L58.6228 68.5482C57.6767 68.2171 56.6116 68.0561 55.3665 68.0561V68.0561Z" fill="#BFC7D8"/>
<path d="M78.7241 92.8427C76.5795 92.8427 74.4646 91.8585 73.2042 90.2739C71.6287 88.291 71.393 85.3224 72.6442 83.2159C73.9466 81.0255 76.5696 80.0443 78.5914 80.0443C79.5023 80.0443 80.3332 80.2335 80.9931 80.5921C83.153 81.7602 84.746 83.5584 85.2534 85.4017C85.644 86.8124 85.4312 88.2216 84.6186 89.5895C83.6657 91.1925 81.9361 92.3651 79.9914 92.7275C79.5779 92.8038 79.1521 92.8427 78.7241 92.8427V92.8427ZM78.142 83.5485C77.6118 83.5485 77.1082 83.7118 76.6863 84.0215C75.5159 84.8821 74.9826 86.4958 75.4168 87.8576C75.8448 89.2004 77.1715 90.1755 78.5723 90.1755C78.6204 90.1755 78.67 90.1739 78.7203 90.1709C80.1997 90.0938 81.5058 88.9006 81.7004 87.4533C81.8667 86.2089 81.0732 84.8005 79.7716 84.0292C79.2414 83.7148 78.6783 83.5485 78.142 83.5485Z" fill="#BFC7D8"/>
<path d="M54.7798 86.3301C53.2692 86.3301 51.8471 85.9319 50.6683 85.1781C47.6555 83.2532 46.2913 78.9891 47.6272 75.6741C48.6618 73.1052 51.0185 71.3543 53.9315 70.9911C54.2893 70.9461 54.6494 70.9232 55.0019 70.9232C57.5104 70.9232 59.7634 72.0386 61.184 73.9842C63.2943 76.8711 63.0189 81.3389 60.5698 83.9444C59.1668 85.4382 57.0023 86.3301 54.7798 86.3301V86.3301ZM55.0759 74.2176C55.0133 74.2176 54.9492 74.2191 54.8859 74.2237C53.4004 74.3183 51.9341 75.3857 51.2367 76.8795C50.6447 78.1506 50.737 79.4667 51.4916 80.4905C52.1416 81.3756 53.2616 81.9043 54.4876 81.9043C54.7043 81.9043 54.9218 81.8875 55.1323 81.8539C56.3172 81.6701 57.3899 80.9956 58.0041 80.0503C58.725 78.9387 58.6915 77.3068 57.9201 75.9899C57.2617 74.8631 56.2249 74.2176 55.0759 74.2176V74.2176Z" fill="#BFC7D8"/>
<path d="M33.0352 92.4436C32.6179 92.4436 32.2005 92.4124 31.7946 92.3506C29.7164 92.037 27.9265 90.9475 27.0079 89.4369C25.8322 87.5028 26.0108 84.7608 27.4504 82.6123C29.1159 80.1312 32.2181 78.3978 34.9937 78.3978C35.0272 78.3978 35.0631 78.3986 35.0974 78.4001C36.5829 78.4207 38.6581 78.9388 40.1351 81.2818C41.6397 83.6667 41.4116 87.0801 39.5919 89.3972C38.1164 91.2763 35.604 92.4436 33.0352 92.4436V92.4436ZM33.4235 81.8952C32.8544 81.8952 32.2539 82.0951 31.6871 82.4727C30.2733 83.4149 29.2609 85.3612 30.0147 86.9878C30.1841 87.3548 30.4297 87.6806 30.7456 87.9583C31.0637 88.2375 31.433 88.4496 31.8435 88.5885C32.2349 88.7212 32.627 88.7884 33.0093 88.7884C34.0842 88.7884 35.0158 88.2673 35.6338 87.3212C36.573 85.8838 36.4257 84.0039 35.2767 82.7497C34.764 82.1912 34.1232 81.8952 33.4235 81.8952V81.8952Z" fill="#BFC7D8"/>
<path d="M26.4518 66.2533L26.7524 66.1899C31.3544 65.2157 35.7444 63.4555 39.8025 60.9577C45.0195 57.7487 49.4782 53.4198 52.697 48.44C52.7115 48.4156 52.7268 48.3805 52.7413 48.3325L52.842 48.0036L53.1807 48.0616C53.6759 48.1463 54.181 48.189 54.6814 48.189C56.6086 48.189 58.4428 47.5764 59.845 46.4633C61.5174 45.135 62.6176 43.0781 62.8633 40.8205L62.9014 40.4703L79.928 40.5558L79.957 40.9128C80.0615 42.1923 80.147 43.5671 80.2256 45.2387L80.2446 45.64L69.0675 45.8605C66.9099 45.9017 64.6821 46.0703 63.2409 47.5978C62.217 48.6811 61.873 50.2177 61.6532 51.7161C61.3595 53.7356 61.1924 55.7849 61.1558 57.8075C61.1298 59.1159 61.2183 60.4625 62.0347 61.4498C62.8518 62.4393 64.1496 62.7704 65.3016 63.0031C68.6921 63.6875 72.1597 64.0346 75.6067 64.0346C77.2371 64.0346 78.9026 63.9538 80.5582 63.7943L80.9694 63.7546L81.3585 73.5935L80.7795 73.3273C74.2365 70.3182 67.4218 67.6319 61.4091 65.2614L58.9616 64.2948C57.895 63.8729 56.6949 63.6684 55.2933 63.6684C53.3471 63.6684 51.294 64.0735 49.4812 64.4314L49.0791 64.5099C48.8739 64.5496 48.671 64.5893 48.4711 64.6274C44.6854 65.3438 40.9263 66.473 37.2985 67.9851C33.6631 69.5019 30.1497 71.4085 26.8561 73.6523L26.2236 74.0834L26.4518 66.2533Z" fill="#F9D889"/>
<path d="M60.6507 34.4073C58.9569 32.6769 56.6086 31.5615 54.3686 31.4242C54.2686 31.4181 54.1687 31.415 54.0695 31.415C52.2583 31.415 50.2311 32.4541 48.648 34.1952L48.5305 34.3249L29.5111 34.1463L29.6561 33.652C32.1623 25.0521 36.9895 18.3298 43.2456 14.7233C46.7872 12.6802 50.8651 11.6006 55.0384 11.6006C56.6193 11.6006 58.1902 11.76 59.7077 12.0736C65.0422 13.1784 70.0379 16.2774 73.4124 20.5766L73.8938 21.1893L60.8391 21.5013C60.6217 21.5066 60.4477 21.6898 60.4523 21.9087C60.4576 22.1223 60.6354 22.2963 60.849 22.2963L73.887 21.9835C73.9343 21.9827 73.9785 21.9728 74.0274 21.9514L74.3264 21.8256L74.505 22.0964C74.9681 22.7953 75.4037 23.5307 75.8004 24.2815L76.1041 24.8567L56.7215 24.7957C56.5033 24.7957 56.3248 24.9735 56.324 25.1924C56.3232 25.4114 56.501 25.5899 56.72 25.5907L75.6204 25.6479C75.7417 25.6479 75.8279 25.5937 75.8798 25.5487L76.2742 25.2046L76.4917 25.6807C76.8235 26.4055 77.131 27.1631 77.4339 27.997L77.63 28.5379C77.63 28.5379 52.4215 27.778 52.4208 27.778C52.1911 27.778 52.0195 27.9467 52.0134 28.1618C52.0096 28.2701 52.0485 28.3709 52.1209 28.4479C52.1934 28.525 52.2911 28.5685 52.3971 28.5715L77.4591 29.3253C77.4804 29.3253 77.501 29.3215 77.5216 29.3177L77.8634 29.2559L77.9649 29.5878C78.3822 30.9473 78.7416 32.3977 79.0315 33.8976L79.1208 34.3577L60.7666 34.5255L60.6507 34.4073Z" fill="#F9D889"/>
<path d="M27.0331 57.8083C27.1338 52.4074 27.2482 46.2856 28.1783 40.3781L28.2423 39.9699L28.6459 40.0569C28.6803 40.0645 28.7085 40.0676 28.7337 40.0676L45.8969 39.9135L45.9709 39.9043L46.3783 39.8616L46.4012 40.2705C46.4531 41.1822 46.6522 42.0878 46.9925 42.9614L47.0611 43.1377L46.965 43.3009C46.9528 43.3215 46.9391 43.3414 46.9238 43.3604C42.5544 50.3047 35.4911 55.7087 27.5397 58.189L27.0224 58.35L27.0331 57.8083Z" fill="#F9D889"/>
<path d="M78.5631 89.3811C77.5209 89.3811 76.4925 88.6235 76.1728 87.618C75.8447 86.5849 76.2674 85.3139 77.1578 84.6616C77.4484 84.4479 77.7796 84.3396 78.1427 84.3396C78.6356 84.3396 79.0804 84.5425 79.3672 84.7127C80.3881 85.3169 81.0381 86.4263 80.9122 87.3494C80.7718 88.4114 79.7708 89.3216 78.6821 89.3781C78.644 89.3804 78.6035 89.3811 78.5631 89.3811V89.3811Z" fill="#939BAA"/>
<path d="M70.7383 84.7127C70.717 84.7027 70.6941 84.6951 70.6704 84.689L62.4039 82.7473L62.6038 82.3132C63.247 80.914 63.5155 79.3431 63.3805 77.7714L63.337 77.2671L63.836 77.3525C67.2868 77.9476 70.704 78.8204 73.9938 79.9488L74.7445 80.206L74.0831 80.6439C73.1866 81.2375 72.4534 81.9867 71.9628 82.8106C71.6691 83.305 71.4387 83.8597 71.2777 84.4586L71.1579 84.9034L70.7383 84.7127Z" fill="#939BAA"/>
<path d="M54.4549 91.8439C49.5827 91.8439 44.6579 91.6524 39.8185 91.2756L38.9732 91.2099L39.5729 90.6103C39.8102 90.373 40.0261 90.1304 40.2153 89.8885C40.6006 89.3972 40.9294 88.8494 41.1934 88.2581L41.259 88.1124L49.16 85.0209L49.3386 85.1743C49.6224 85.4192 49.9253 85.645 50.2396 85.8464C51.5625 86.6918 53.138 87.1381 54.7967 87.1381C57.2503 87.1381 59.5658 86.1722 61.1489 84.4876C61.3809 84.242 61.6044 83.9673 61.8142 83.6736L61.966 83.46L70.495 85.4635C70.527 85.4703 70.5583 85.4741 70.585 85.4741L70.6308 85.4696L71.0764 85.4345L71.0519 85.8808C70.9627 87.4959 71.4136 89.105 72.3222 90.4111L72.7045 90.9612L72.0377 91.0238C66.2332 91.5678 60.3173 91.8439 54.4549 91.8439V91.8439Z" fill="#939BAA"/>
<path d="M54.493 81.1093C53.5286 81.1093 52.623 80.692 52.1301 80.0198C51.3397 78.9464 51.6823 77.802 51.9562 77.2152C52.5261 75.9953 53.7521 75.0912 54.9378 75.0157C54.9874 75.0126 55.0362 75.0111 55.0843 75.0111C56.2943 75.0111 56.9931 75.9762 57.2365 76.3913C57.8499 77.4388 57.8919 78.7671 57.3372 79.6208C56.8467 80.3784 55.9777 80.9201 55.0125 81.0696C54.8416 81.0956 54.6669 81.1093 54.493 81.1093V81.1093Z" fill="#939BAA"/>
<path d="M41.7663 86.4194C42.1219 84.5281 41.8121 82.5688 40.9164 81.043L40.6807 80.6416L46.2952 78.5535L46.3326 79.073C46.46 80.8576 47.1306 82.6062 48.2193 83.9971L48.5428 84.4106L41.6359 87.1129L41.7663 86.4194Z" fill="#939BAA"/>
<path d="M33.0085 87.9956C32.7171 87.9956 32.4104 87.9422 32.0991 87.8362C31.4925 87.6309 30.9821 87.1884 30.7349 86.6536C30.1681 85.4291 31.0165 83.8727 32.1273 83.1334C32.4264 82.9335 32.8933 82.6947 33.4159 82.6947C33.895 82.6947 34.3368 82.8992 34.6916 83.286C35.7467 84.4357 35.5758 85.9586 34.97 86.8871C34.7518 87.2205 34.1254 87.9956 33.0085 87.9956Z" fill="#939BAA"/>
<path d="M79.1948 75.7116C73.1485 73.2038 66.9335 71.0347 60.9231 68.9374L58.7517 68.179C56.0616 67.2383 52.916 67.7861 50.1404 68.2698C49.8367 68.3225 49.5384 68.3743 49.2462 68.4239C45.8557 68.9916 42.4957 69.8857 39.26 71.0797C35.6017 72.4301 32.0906 74.1666 28.8237 76.2418C26.6333 77.6327 24.172 79.4027 22.5195 81.9799C20.7357 84.7639 20.336 88.0957 21.4766 90.676C22.4096 92.7855 24.4276 94.5197 27.0125 95.4337C29.1892 96.2035 31.4368 96.3637 33.9377 96.4812C39.4828 96.7414 45.0607 96.8413 50.634 96.8413C60.0419 96.8413 69.436 96.5567 78.6333 96.2775C80.6833 96.2157 82.8043 96.1508 84.8612 95.5351C87.2469 94.8203 89.1215 93.4279 90.1408 91.6136C92.0725 88.1735 90.6367 83.7301 88.2197 81.1186C85.7203 78.4177 82.2534 76.9803 79.1948 75.7116V75.7116ZM88.7675 90.8423C87.9496 92.2987 86.4016 93.4294 84.4095 94.026C82.5495 94.583 80.5345 94.644 78.5852 94.7035C63.9702 95.1468 48.8571 95.6053 34.0117 94.908C31.6374 94.7966 29.5119 94.6471 27.5382 93.949C25.3592 93.1792 23.6754 91.754 22.917 90.0389C21.9877 87.9362 22.3433 85.1744 23.8455 82.8306C25.3325 80.5105 27.6228 78.8702 29.6683 77.5709C32.8406 75.5559 36.2517 73.8691 39.8048 72.5576C42.9489 71.3971 46.2135 70.5289 49.5064 69.9773C49.8024 69.9277 50.1037 69.875 50.4104 69.8216C52.9968 69.3707 55.9288 68.8603 58.2314 69.666L60.4043 70.4244C66.3934 72.5148 72.5862 74.6763 78.5913 77.1665C81.5012 78.3727 84.7986 79.7407 87.0638 82.1882C89.094 84.3817 90.3315 88.0583 88.7675 90.8423V90.8423Z" fill="#231F20"/>
<path d="M92.2709 80.3761C89.5808 77.0917 85.8751 75.2774 82.5373 73.7095C82.5411 73.6729 82.5456 73.6371 82.5441 73.5997L81.534 48.1166C81.1861 39.3549 80.7543 28.4509 74.7178 20.334C71.2518 15.6732 66.0462 12.2933 60.3806 11.0093C60.3821 10.9711 60.3844 10.933 60.3798 10.8941C60.2524 9.73135 59.5894 8.63271 58.5617 7.87816C57.7057 7.24949 56.6078 6.86497 55.3871 6.76655C55.3337 6.76197 55.2811 6.76045 55.2277 6.75739L55.1796 0.780492C55.1758 0.347902 54.8241 0 54.3923 0C54.39 0 54.3877 0 54.3862 0C53.9505 0.00381471 53.6011 0.359347 53.6049 0.793462L53.6537 6.82835C51.0651 7.21363 48.7022 8.89059 47.5677 11.2817C47.5219 11.3778 47.4975 11.4785 47.493 11.5792C45.8076 12.1094 44.1802 12.8167 42.6536 13.6971C40.5502 14.9102 38.6047 16.4559 36.8468 18.2893L31.7694 16.4155C31.433 16.2911 31.0553 16.4102 30.8501 16.7047C30.8325 16.7306 30.8142 16.7573 30.7967 16.784C28.2073 16.3667 25.4034 17.7751 24.214 20.1165C22.9971 22.5129 23.5655 25.6982 25.537 27.5255C25.5705 27.5568 25.6064 27.5827 25.6438 27.6071C25.582 27.82 25.5209 28.0328 25.4629 28.2465C25.3531 28.6493 25.5766 29.0674 25.9718 29.2002L29.4875 30.3781C29.0953 31.4379 28.739 32.5296 28.4209 33.6519C26.1511 41.6667 25.9932 50.0583 25.8414 58.1737C25.8406 58.205 25.8459 58.2347 25.8482 58.2653C24.8923 58.514 23.9249 58.7223 22.949 58.8848C22.9017 58.7612 22.8522 58.6383 22.8003 58.517C21.9862 56.6509 20.661 55.3485 18.8589 54.6459C14.8138 53.0681 9.56625 55.0235 7.4979 55.9375C6.72733 56.2778 5.93463 56.6905 5.35785 57.3993C4.62695 58.2981 4.47741 59.4959 4.98629 60.3786C5.57071 61.3949 6.81812 61.8275 8.49736 61.5986C9.30761 61.4879 10.0988 61.301 10.864 61.121C11.601 60.947 12.2976 60.7822 13.0086 60.6807C14.1332 60.5198 15.7194 60.4938 16.8897 61.2873C17.7954 61.9015 18.4233 63.2717 17.8755 64.2574C17.3071 65.2813 15.8224 65.4942 15.2105 65.5376C14.7543 65.5705 14.2934 65.5666 13.8052 65.5621C12.9751 65.5544 12.1175 65.546 11.2531 65.7284C9.74477 66.0465 8.14717 67.1398 7.97703 68.8633C7.83055 70.3511 8.86586 71.6252 9.95611 72.2271C11.0677 72.8413 12.3182 72.9619 13.4023 73.0267C13.8342 73.0526 14.2904 73.071 14.7604 73.071C16.5563 73.071 18.5568 72.8009 20.178 71.6366C21.5231 70.6715 22.4913 69.1571 23.0467 67.1856C23.7814 67.1032 24.5161 67.0002 25.2486 66.8759L25.0273 74.445C25.0273 74.4504 25.0281 74.4557 25.0281 74.4603C22.6706 76.1815 20.0941 78.3566 18.3439 81.4435C16.3778 84.9096 15.9338 89.0478 17.185 92.2445C18.2165 94.882 20.4634 97.0556 23.3481 98.2084C25.7986 99.1881 28.3301 99.391 31.1476 99.5413C37.3962 99.8724 43.6805 99.9998 49.9603 99.9998C60.5614 99.9998 71.1473 99.6367 81.5111 99.2819C83.8213 99.2025 86.2101 99.1209 88.5264 98.3366C91.1913 97.434 93.2803 95.6869 94.4087 93.4171C96.5274 89.1553 94.9366 83.6309 92.2709 80.3761V80.3761ZM76.9792 62.8315L76.8114 58.8352C76.7931 58.4003 76.4223 58.0616 75.9912 58.0814C75.5571 58.0997 75.2199 58.4667 75.2382 58.9008L75.4037 62.8483C72.0948 62.8345 68.7928 62.5004 65.5358 61.8427C64.5837 61.6504 63.5194 61.3872 62.9479 60.6952C62.7282 60.4297 62.5855 60.1085 62.494 59.7583L69.6984 60.2176C69.716 60.2184 69.7328 60.2192 69.7496 60.2192C70.1615 60.2192 70.5079 59.8987 70.5346 59.4814C70.5629 59.0473 70.2333 58.6734 69.7991 58.646L62.5504 58.1836C62.4764 58.1783 62.4047 58.1874 62.3353 58.2019C62.3353 58.0768 62.3368 57.9525 62.3391 57.8296C62.3757 55.8483 62.5397 53.8486 62.8258 51.8871C63.0028 50.6709 63.2622 49.2991 64.1015 48.4103C64.3479 48.1494 64.6371 47.9411 64.9544 47.771L64.3128 52.2456C64.251 52.6767 64.5501 53.0757 64.9804 53.1375C65.0185 53.1429 65.0559 53.1451 65.0933 53.1451C65.4786 53.1451 65.8158 52.8621 65.8715 52.4692L66.6085 47.3315C66.6131 47.2987 66.6116 47.2667 66.6123 47.2339C67.3982 47.0965 68.2496 47.0599 69.0919 47.0439L70.7391 47.0111L70.5819 50.7075C69.5588 50.87 68.6479 51.5414 68.1237 52.5752C67.4333 53.9363 67.6293 55.4653 68.6234 56.4701C69.2475 57.101 70.1234 57.4321 70.9985 57.4321C71.589 57.4321 72.1795 57.2818 72.693 56.9705C73.8694 56.2587 74.463 54.7984 74.17 53.3374C73.9297 52.1411 73.1775 51.2401 72.1475 50.8617C72.149 50.8495 72.1521 50.8388 72.1528 50.8266L72.3161 46.9806L75.1588 46.9249L74.9551 53.0605C74.9406 53.4953 75.2809 53.8593 75.7158 53.8738H75.7425C76.1651 53.8738 76.5146 53.5381 76.5291 53.1123L76.7335 46.9684C76.7343 46.9432 76.7297 46.9188 76.7282 46.8936L79.9059 46.831C79.9249 47.285 79.9425 47.7351 79.96 48.1784L80.5322 62.6095C79.3489 62.7247 78.1641 62.7994 76.9792 62.8315V62.8315ZM69.5283 53.2878C69.7946 52.7629 70.3271 52.2418 71.0588 52.2418C71.1358 52.2418 71.2144 52.2479 71.296 52.2594C72.3016 52.4097 72.5686 53.3603 72.6259 53.6479C72.7617 54.3239 72.5831 55.1967 71.8774 55.624C71.2304 56.0153 70.2729 55.8986 69.7434 55.363C69.1247 54.7374 69.2407 53.8547 69.5283 53.2878V53.2878ZM63.2836 39.2886C63.2218 38.3936 63.0211 37.5101 62.6694 36.6801C62.5268 36.3444 62.3543 36.0163 62.159 35.6974L78.9278 35.544C79.1345 36.8197 79.2955 38.0991 79.4237 39.3694L63.2836 39.2886ZM28.8382 64.4627C28.6727 62.7148 28.1302 61.0271 27.2528 59.5112C28.7222 59.0824 30.1634 58.5598 31.5665 57.9479C32.8658 59.1892 33.7668 60.8295 34.1124 62.5934C32.392 63.3419 30.6273 63.9667 28.8382 64.4627V64.4627ZM35.5773 61.9198C35.1684 60.1795 34.3009 58.5567 33.087 57.2467C34.8525 56.38 36.5485 55.3707 38.156 54.2362C39.6651 55.2051 40.8416 56.6494 41.481 58.3271C41.4901 58.3515 41.5031 58.3744 41.5145 58.3973C40.7562 58.9397 39.9802 59.4593 39.183 59.9491C38.0134 60.6693 36.8079 61.3247 35.5773 61.9198ZM42.8169 57.4314C42.1104 55.7651 40.9545 54.3102 39.4965 53.2451C40.8294 52.2113 42.0913 51.086 43.2701 49.8805C44.8341 50.7526 46.2066 51.9618 47.2694 53.4023C45.8953 54.845 44.4068 56.1954 42.8169 57.4314ZM48.352 52.2212C47.2625 50.8113 45.9068 49.6089 44.3756 48.6979C45.494 47.446 46.5255 46.1169 47.4556 44.7177C48.0385 45.6202 48.7839 46.4183 49.6727 47.0469C50.2525 47.4566 50.8842 47.7824 51.548 48.0273C50.5875 49.4884 49.5193 50.8906 48.352 52.2212ZM45.8923 38.7286C45.89 38.7286 45.8877 38.7286 45.8854 38.7286L28.8283 38.8834C29.0473 37.691 29.3028 36.5061 29.6012 35.3312L47.1847 35.4975C46.8567 36.0392 46.5934 36.5946 46.4134 37.1447C46.241 37.6688 46.1258 38.2059 46.0601 38.7476C46.006 38.7362 45.9503 38.7286 45.8923 38.7286ZM50.5821 45.7614C48.1117 44.0142 46.9627 40.5215 47.9095 37.636C48.8777 34.685 51.9134 32.5998 54.0947 32.5998C54.1618 32.5998 54.229 32.6014 54.2954 32.6059C56.3362 32.7311 58.4801 33.8289 59.9122 35.3464C59.9595 35.4204 60.0182 35.4838 60.0861 35.5379C60.5675 36.0827 60.9574 36.6762 61.2198 37.295C62.407 40.095 61.4998 43.6373 59.1095 45.5355C56.7337 47.4215 53.0678 47.5184 50.5821 45.7614V45.7614ZM55.2605 8.33669C56.1897 8.41146 57.0099 8.69222 57.6302 9.1477C58.1795 9.55053 58.5732 10.1113 58.7387 10.698C55.6969 10.2318 52.5597 10.3531 49.5483 11.0268C50.8339 9.25756 53.0823 8.15892 55.2605 8.33669ZM43.4402 15.0613C48.2696 12.2758 54.1702 11.3267 59.6299 12.4566C64.901 13.5476 69.7801 16.5826 73.105 20.8177L60.8307 21.1114C60.3959 21.1221 60.0525 21.483 60.0625 21.9179C60.0731 22.3459 60.4233 22.6861 60.8498 22.6861H60.8689L73.8969 22.3741C73.9976 22.3718 74.0915 22.3489 74.1792 22.3123C74.6423 23.0104 75.0673 23.7276 75.4556 24.4638L56.723 24.4066C56.7223 24.4066 56.7215 24.4066 56.7208 24.4066C56.2866 24.4066 55.9342 24.7575 55.9326 25.1909C55.9319 25.6258 56.2828 25.9798 56.7177 25.9813L75.6196 26.0385H75.6219C75.8195 26.0385 75.9973 25.9637 76.1354 25.844C76.478 26.5916 76.7854 27.3546 77.0662 28.129L52.433 27.3889C51.9951 27.3714 51.6357 27.7178 51.622 28.1519C51.609 28.5867 51.9508 28.9499 52.3857 28.9629L77.4347 29.7159H77.4583C77.5041 29.7159 77.5484 29.7106 77.5919 29.7029C78.0222 31.1022 78.3685 32.5304 78.6478 33.9716L60.9292 34.1333C59.2301 32.3969 56.7833 31.1808 54.3915 31.0335C52.1858 30.8985 49.9473 32.1871 48.3581 33.9335L30.0299 33.7603C32.5087 25.258 37.2619 18.625 43.4402 15.0613V15.0613ZM25.6186 20.8299C26.3968 19.2971 28.0997 18.3015 29.811 18.2855C28.3148 20.6849 27.0995 23.2362 26.1824 25.9073C25.0616 24.5096 24.8038 22.4344 25.6186 20.8299ZM27.1841 27.9459C28.2149 24.4432 29.7652 21.1389 31.8 18.1054L35.7085 19.5481C33.4479 22.194 31.5421 25.348 30.0643 28.9102L27.1841 27.9459ZM28.5635 40.4391C28.6185 40.4513 28.6757 40.4589 28.7344 40.4589H28.7421L45.8992 40.3033C45.9381 40.3033 45.9747 40.2972 46.0121 40.2911C46.067 41.2539 46.2776 42.2061 46.6293 43.1025C46.6224 43.1124 46.614 43.1201 46.6072 43.13C42.2294 50.0995 35.2683 55.3684 27.4222 57.8167C27.5313 52.0671 27.6602 46.184 28.5635 40.4391ZM19.2602 70.3579C17.6168 71.5374 15.3166 71.5641 13.4969 71.455C12.5845 71.4001 11.5415 71.304 10.7183 70.8493C10.0995 70.5075 9.46859 69.7888 9.54488 69.0182C9.63186 68.1339 10.6336 67.4694 11.5781 67.2703C12.1267 67.1543 12.6989 67.1345 13.297 67.1345C13.4595 67.1345 13.6243 67.136 13.7907 67.1368C14.2896 67.1414 14.8039 67.1467 15.3234 67.1093C17.1568 66.9781 18.5888 66.2174 19.2526 65.0227C20.0361 63.6127 19.6936 61.285 17.774 59.9842C16.4999 59.1205 14.8222 58.8306 12.7859 59.1221C12.0054 59.2334 11.2409 59.4143 10.5024 59.5882C9.7402 59.7683 9.01998 59.9384 8.2845 60.0391C7.91981 60.0887 6.70215 60.2039 6.3512 59.5936C6.17496 59.2868 6.27338 58.7711 6.58008 58.3934C6.9463 57.9433 7.54368 57.6397 8.1342 57.3787C10.0225 56.5441 14.7916 54.7504 18.2867 56.1138C19.7035 56.6661 20.7075 57.658 21.356 59.1465C21.9168 60.4328 22.1144 61.98 21.9801 64.0171C21.8413 66.1182 21.2561 68.9244 19.2602 70.3579V70.3579ZM23.3793 60.4084C24.1484 60.2764 24.9121 60.1192 25.6697 59.9361C26.6081 61.4162 27.1651 63.1069 27.2894 64.8579C25.9978 65.16 24.6969 65.3935 23.3938 65.5575C23.464 65.0967 23.5182 64.6191 23.551 64.1209C23.6449 62.7079 23.5899 61.4918 23.3793 60.4084ZM40.0085 61.2911C45.2713 58.0532 49.7719 53.6823 53.0243 48.6514C53.0663 48.5866 53.0937 48.5164 53.1151 48.4462C53.6308 48.5347 54.1557 48.5805 54.6806 48.5805C56.6262 48.5805 58.5724 47.9724 60.0884 46.7685C61.8912 45.3372 63.0028 43.1407 63.2516 40.8633L79.5671 40.9457C79.6869 42.4082 79.7701 43.8517 79.8364 45.2578L69.0606 45.4699C66.8191 45.5134 64.5013 45.6935 62.9563 47.33C61.8569 48.4942 61.4945 50.0995 61.2671 51.6605C60.9719 53.6876 60.8025 55.7529 60.7644 57.8006C60.7384 59.1846 60.8384 60.6144 61.7333 61.6985C62.6328 62.7872 64.0069 63.1412 65.2238 63.3869C68.6501 64.0781 72.1254 64.4253 75.6067 64.4253C77.2691 64.4253 78.9339 64.3429 80.5948 64.1842L80.9435 72.9733C74.5096 70.0131 67.9299 67.413 61.5532 64.8983C60.7384 64.5763 59.9221 64.2544 59.105 63.9316C56.0768 62.7338 52.5322 63.4319 49.4049 64.0484C49.0631 64.1155 48.7266 64.1819 48.397 64.2445C44.5785 64.9677 40.7943 66.1053 37.1482 67.6251C33.4868 69.1525 29.9574 71.0682 26.6356 73.3296L26.8332 66.573C31.4276 65.5987 35.9199 63.8058 40.0085 61.2911V61.2911ZM92.9987 92.7168C92.0573 94.6112 90.2895 96.0775 88.0221 96.8451C85.9247 97.5554 83.6534 97.6332 81.4569 97.7079C64.988 98.2725 47.9583 98.8569 31.2316 97.9689C28.5559 97.8262 26.1603 97.6362 23.9332 96.7466C21.4506 95.7548 19.525 93.9047 18.6514 91.6715C17.5695 88.9059 17.9762 85.2842 19.7134 82.2209C21.4071 79.2355 24.0034 77.1329 26.3205 75.4697C29.8995 72.9001 33.747 70.7493 37.7555 69.0785C41.3001 67.5999 44.9791 66.4936 48.6908 65.7909C49.0234 65.7276 49.3637 65.6605 49.7093 65.5926C52.6245 65.0188 55.9273 64.3681 58.5259 65.3957C59.3438 65.7185 60.1601 66.0412 60.9765 66.3624C67.7247 69.0243 74.7033 71.7762 81.4699 74.9478C84.7567 76.4882 88.4814 78.2346 91.0532 81.3741C93.3985 84.2374 94.8199 89.0531 92.9987 92.7168V92.7168Z" fill="#231F20"/>
<path d="M81.5554 79.5499C79.9082 78.658 77.7453 78.6702 75.7936 79.3607C75.738 79.321 75.6777 79.2859 75.6105 79.2608C71.6844 77.8295 67.6034 76.7636 63.479 76.0892C63.2058 75.0882 62.761 74.1345 62.1408 73.2854C60.2494 70.6967 57.1252 69.4005 53.785 69.8155C50.4403 70.2328 47.728 72.2569 46.5294 75.2309C46.2441 75.9381 46.0633 76.6767 45.9778 77.4251C45.9267 77.4328 45.8756 77.4457 45.8252 77.4648L40.2847 79.5263C38.945 78.0546 37.1483 77.2435 35.1059 77.2153C35.0677 77.2145 35.0296 77.2145 34.9922 77.2145C31.7901 77.2145 28.3767 79.1074 26.4678 81.9524C24.7741 84.477 24.5849 87.7317 25.9963 90.0518C27.0965 91.8585 29.1976 93.1555 31.6177 93.5225C32.1006 93.5957 32.5851 93.6316 33.0673 93.6316C34.8556 93.6316 36.6096 93.1395 38.0989 92.2476C38.1965 92.3048 38.3072 92.3437 38.4277 92.3544C43.7439 92.8053 49.0929 93.0311 54.4442 93.0311C60.5065 93.0311 66.5712 92.7412 72.5878 92.1622C72.7991 92.1423 72.9814 92.0393 73.1096 91.8905C74.6103 93.2448 76.6695 94.0245 78.7417 94.0245C79.2315 94.0245 79.722 93.981 80.2058 93.8917C82.4831 93.4698 84.5141 92.0881 85.6379 90.1938C86.6068 88.5618 86.8685 86.7956 86.3963 85.0858C85.7936 82.9061 84.0289 80.8881 81.5554 79.5499V79.5499ZM73.8672 80.3182C72.9524 80.9225 72.1689 81.6976 71.6272 82.6101C71.3022 83.1571 71.0642 83.7469 70.9009 84.3572C70.8582 84.3382 70.8131 84.3214 70.7651 84.3099L62.9579 82.4758C63.6338 81.0049 63.9085 79.3523 63.7696 77.7379C67.1922 78.3277 70.5804 79.1921 73.8672 80.3182ZM47.9897 75.8191C48.9716 73.3838 51.2108 71.7236 53.9796 71.3788C54.3236 71.3353 54.6647 71.3147 55.0019 71.3147C57.3693 71.3147 59.5132 72.3584 60.8689 74.2147C62.8732 76.9574 62.6107 81.2017 60.2853 83.6767C57.9598 86.1524 53.7392 86.6781 50.8782 84.8493C48.0156 83.0206 46.7201 78.9693 47.9897 75.8191ZM45.9427 79.1013C46.0755 80.9568 46.7659 82.7741 47.9126 84.2382L42.1493 86.492C42.5156 84.551 42.2279 82.5063 41.2544 80.8454L45.9427 79.1013ZM31.8534 91.9653C29.8888 91.6678 28.202 90.6462 27.3421 89.2332C26.2427 87.4281 26.4174 84.8547 27.7755 82.8306C29.3792 80.4403 32.3356 78.7893 34.9937 78.7893C35.0235 78.7893 35.0532 78.7893 35.083 78.79C36.4723 78.8091 38.4186 79.2936 39.8048 81.4901C41.2247 83.7392 41.0057 86.9642 39.2845 89.1569C37.6335 91.2596 34.6481 92.3887 31.8534 91.9653V91.9653ZM39.8498 90.8873C40.0886 90.6477 40.3145 90.3952 40.5228 90.1289C40.937 89.6017 41.2788 89.0249 41.5497 88.4176L49.0837 85.4711C49.3805 85.7267 49.6964 85.9632 50.0298 86.1761C51.4565 87.0878 53.1251 87.5288 54.7967 87.5288C57.2587 87.5288 59.726 86.5721 61.4328 84.7555C61.6868 84.4854 61.9195 84.1985 62.1331 83.9002L70.405 85.8434C70.466 85.8579 70.5263 85.8648 70.5858 85.8648C70.6117 85.8648 70.6361 85.861 70.6613 85.8579C70.5705 87.5227 71.026 89.2294 72.0018 90.634C61.3374 91.635 50.5303 91.7189 39.8498 90.8873V90.8873ZM84.2837 89.3904C83.3872 90.8987 81.7561 92.0027 79.9189 92.3422C77.5347 92.784 74.9605 91.8547 73.5109 90.0305C72.0316 88.1704 71.8088 85.388 72.9807 83.415C74.1419 81.4611 76.5322 80.4357 78.5914 80.4357C79.4161 80.4357 80.1874 80.6005 80.8062 80.9347C82.8738 82.0539 84.3958 83.7621 84.878 85.5047C85.2381 86.8101 85.0382 88.117 84.2837 89.3904V89.3904Z" fill="#231F20"/>
<path d="M31.4704 82.1477C29.9201 83.1807 28.8192 85.3345 29.6599 87.1511C30.0475 87.9865 30.7975 88.6457 31.7176 88.9585C32.1555 89.1065 32.5904 89.179 33.01 89.179C34.1948 89.179 35.2637 88.6022 35.9611 87.5341C36.9971 85.9456 36.8339 83.8697 35.5643 82.4849C34.4878 81.3115 32.9192 81.1818 31.4704 82.1477V82.1477ZM34.6419 86.6735C34.3825 87.071 33.628 87.9438 32.2242 87.4669C31.7176 87.2953 31.2926 86.9291 31.0889 86.4896C30.6243 85.4856 31.3628 84.1115 32.3432 83.4577C32.8017 83.1525 33.6783 82.7588 34.4031 83.5492C35.3171 84.5464 35.1676 85.8678 34.6419 86.6735Z" fill="#231F20"/>
<path d="M79.9708 83.6926C78.76 82.9747 77.4454 82.98 76.4559 83.7071C75.1551 84.6631 74.5615 86.459 75.0444 87.9773C75.5236 89.4795 77.0189 90.5652 78.5715 90.5652C78.6295 90.5652 78.6875 90.5637 78.7455 90.5606C80.4018 90.4737 81.8697 89.1316 82.0872 87.5058C82.2741 86.1104 81.4043 84.5425 79.9708 83.6926V83.6926ZM80.5262 87.2975C80.4079 88.1818 79.5717 88.9401 78.6623 88.9882C77.7567 89.0378 76.8267 88.3824 76.5451 87.4989C76.2651 86.62 76.6275 85.5359 77.3882 84.9767C78.0329 84.5029 78.7798 84.818 79.1674 85.0476C80.0448 85.5672 80.6284 86.5346 80.5262 87.2975V87.2975Z" fill="#231F20"/>
<path d="M54.4876 82.2942C54.7211 82.2942 54.9568 82.2759 55.1926 82.2392C56.485 82.0393 57.6584 81.3008 58.3313 80.264C59.1309 79.0311 59.1019 77.2343 58.2581 75.7931C57.4891 74.4793 56.221 73.7477 54.8615 73.8339C53.2372 73.9369 51.638 75.095 50.8827 76.7148C50.2281 78.1186 50.3349 79.5796 51.1765 80.7225C51.9066 81.7151 53.1571 82.2942 54.4876 82.2942ZM52.3102 77.3808C52.8214 76.2845 53.9116 75.4719 54.9622 75.4055C56.0402 75.3361 56.6773 76.2097 56.8993 76.5889C57.441 77.5136 57.486 78.6732 57.0099 79.4072C56.5773 80.074 55.8083 80.5508 54.9515 80.6836C53.9581 80.8369 52.9518 80.4776 52.4445 79.7894C51.7746 78.8785 52.0729 77.8889 52.3102 77.3808V77.3808Z" fill="#231F20"/>
<path d="M58.1948 38.653C57.5211 36.8914 55.8083 35.8026 53.9314 35.9438C52.1614 36.0773 50.8224 37.2591 50.4364 39.0291C50.0763 40.6778 50.8064 42.4692 52.2102 43.3855C52.8671 43.8135 53.6469 44.0249 54.4266 44.0249C55.3208 44.0249 56.2142 43.7464 56.9184 43.1963C58.2627 42.148 58.7998 40.2369 58.1948 38.653ZM55.9494 41.955C55.1583 42.573 53.9208 42.6203 53.0708 42.0664C52.2163 41.5087 51.7555 40.3727 51.9753 39.3648C52.2102 38.286 52.9862 37.594 54.0497 37.5139C54.1123 37.5093 54.1756 37.507 54.2397 37.507C55.1796 37.507 56.2668 38.0197 56.7238 39.2153C57.0824 40.1537 56.749 41.3309 55.9494 41.955V41.955Z" fill="#231F20"/>
</svg>
