<svg width="118" height="40" viewBox="0 0 118 40" fill="none" xmlns="http://www.w3.org/2000/svg">
<rect width="118" height="40" rx="20" fill="#E6E6E6"/>
<circle cx="20" cy="20" r="17" fill="white"/>
<path d="M49.9863 19.9199L53.6973 12.7812H55.8262L50.9238 21.6973V27H49.0488V21.6973L44.1465 12.7812H46.2949L49.9863 19.9199ZM63.1797 27C63.0755 26.7917 62.9909 26.4206 62.9258 25.8867C62.0859 26.7591 61.0833 27.1953 59.918 27.1953C58.8763 27.1953 58.0202 26.9023 57.3496 26.3164C56.6855 25.724 56.3535 24.9753 56.3535 24.0703C56.3535 22.9701 56.7702 22.1172 57.6035 21.5117C58.4434 20.8997 59.6217 20.5938 61.1387 20.5938H62.8965V19.7637C62.8965 19.1322 62.7077 18.6309 62.3301 18.2598C61.9525 17.8822 61.3958 17.6934 60.6602 17.6934C60.0156 17.6934 59.4753 17.8561 59.0391 18.1816C58.6029 18.5072 58.3848 18.901 58.3848 19.3633H56.5684C56.5684 18.8359 56.7539 18.3281 57.125 17.8398C57.5026 17.3451 58.0104 16.9544 58.6484 16.668C59.293 16.3815 59.9993 16.2383 60.7676 16.2383C61.985 16.2383 62.9388 16.5443 63.6289 17.1562C64.319 17.7617 64.6771 18.5983 64.7031 19.666V24.5293C64.7031 25.4993 64.8268 26.2708 65.0742 26.8438V27H63.1797ZM60.1816 25.623C60.748 25.623 61.2852 25.4766 61.793 25.1836C62.3008 24.8906 62.6686 24.5098 62.8965 24.041V21.873H61.4805C59.2669 21.873 58.1602 22.5208 58.1602 23.8164C58.1602 24.3828 58.349 24.8255 58.7266 25.1445C59.1042 25.4635 59.5892 25.623 60.1816 25.623ZM72.6426 18.0547C72.3691 18.0091 72.0729 17.9863 71.7539 17.9863C70.569 17.9863 69.765 18.4909 69.3418 19.5V27H67.5352V16.4336H69.293L69.3223 17.6543C69.9147 16.7103 70.7546 16.2383 71.8418 16.2383C72.1934 16.2383 72.4603 16.2839 72.6426 16.375V18.0547ZM73.6777 21.6289C73.6777 20.0078 74.0618 18.7057 74.8301 17.7227C75.5983 16.7331 76.6042 16.2383 77.8477 16.2383C79.0846 16.2383 80.0645 16.6615 80.7871 17.5078V12H82.5938V27H80.9336L80.8457 25.8672C80.123 26.7526 79.1172 27.1953 77.8281 27.1953C76.6042 27.1953 75.6048 26.694 74.8301 25.6914C74.0618 24.6888 73.6777 23.3802 73.6777 21.7656V21.6289ZM75.4844 21.834C75.4844 23.0319 75.7318 23.9694 76.2266 24.6465C76.7214 25.3236 77.4049 25.6621 78.2773 25.6621C79.4232 25.6621 80.2598 25.1478 80.7871 24.1191V19.2656C80.2467 18.2695 79.4167 17.7715 78.2969 17.7715C77.4115 17.7715 76.7214 18.1133 76.2266 18.7969C75.7318 19.4805 75.4844 20.4928 75.4844 21.834ZM87.3691 27H85.5527V16.4336H87.3691V27ZM92.0469 16.4336L92.0957 17.6055C92.8704 16.694 93.9154 16.2383 95.2305 16.2383C96.7083 16.2383 97.7142 16.8047 98.248 17.9375C98.5996 17.4297 99.0553 17.0195 99.6152 16.707C100.182 16.3945 100.849 16.2383 101.617 16.2383C103.935 16.2383 105.113 17.4655 105.152 19.9199V27H103.346V20.0273C103.346 19.2721 103.173 18.709 102.828 18.3379C102.483 17.9603 101.904 17.7715 101.09 17.7715C100.419 17.7715 99.8626 17.9733 99.4199 18.377C98.9772 18.7741 98.7201 19.3112 98.6484 19.9883V27H96.832V20.0762C96.832 18.5397 96.0801 17.7715 94.5762 17.7715C93.3913 17.7715 92.5807 18.276 92.1445 19.2852V27H90.3379V16.4336H92.0469Z" fill="#353435"/>
</svg>
