<svg width="457" height="65" viewBox="0 0 457 65" fill="none" xmlns="http://www.w3.org/2000/svg">
<path d="M18.0186 20.3047C17.2275 21.252 16.1094 21.9893 14.6641 22.5166C13.2188 23.0342 11.6172 23.293 9.85938 23.293C8.01367 23.293 6.39258 22.8926 4.99609 22.0918C3.60938 21.2812 2.53516 20.1094 1.77344 18.5762C1.02148 17.043 0.635742 15.2412 0.616211 13.1709V11.7207C0.616211 9.5918 0.972656 7.75098 1.68555 6.19824C2.4082 4.63574 3.44336 3.44434 4.79102 2.62402C6.14844 1.79395 7.73535 1.37891 9.55176 1.37891C12.0811 1.37891 14.0586 1.98438 15.4844 3.19531C16.9102 4.39648 17.7549 6.14941 18.0186 8.4541H13.7412C13.5459 7.2334 13.1113 6.33984 12.4375 5.77344C11.7734 5.20703 10.8555 4.92383 9.68359 4.92383C8.18945 4.92383 7.05176 5.48535 6.27051 6.6084C5.48926 7.73145 5.09375 9.40137 5.08398 11.6182V12.9805C5.08398 15.2168 5.50879 16.9062 6.3584 18.0488C7.20801 19.1914 8.45312 19.7627 10.0938 19.7627C11.7441 19.7627 12.9209 19.4111 13.624 18.708V15.0312H9.625V11.7939H18.0186V20.3047Z" fill="#141414" fill-opacity="0.5"/>
<path d="M20.6553 14.9287C20.6553 13.3564 20.958 11.9551 21.5635 10.7246C22.1689 9.49414 23.0381 8.54199 24.1709 7.86816C25.3135 7.19434 26.6367 6.85742 28.1406 6.85742C30.2793 6.85742 32.0225 7.51172 33.3701 8.82031C34.7275 10.1289 35.4844 11.9062 35.6406 14.1523L35.6699 15.2363C35.6699 17.668 34.9912 19.6211 33.6338 21.0957C32.2764 22.5605 30.4551 23.293 28.1699 23.293C25.8848 23.293 24.0586 22.5605 22.6914 21.0957C21.334 19.6309 20.6553 17.6387 20.6553 15.1191V14.9287ZM24.8887 15.2363C24.8887 16.7402 25.1719 17.8926 25.7383 18.6934C26.3047 19.4844 27.1152 19.8799 28.1699 19.8799C29.1953 19.8799 29.9961 19.4893 30.5723 18.708C31.1484 17.917 31.4365 16.6572 31.4365 14.9287C31.4365 13.4541 31.1484 12.3115 30.5723 11.501C29.9961 10.6904 29.1855 10.2852 28.1406 10.2852C27.1055 10.2852 26.3047 10.6904 25.7383 11.501C25.1719 12.3018 24.8887 13.5469 24.8887 15.2363ZM26.5879 3.00488C26.5879 3.52246 26.3975 3.96191 26.0166 4.32324C25.6357 4.6748 25.1475 4.85059 24.5518 4.85059C23.9463 4.85059 23.458 4.66992 23.0869 4.30859C22.7158 3.94727 22.5303 3.5127 22.5303 3.00488C22.5303 2.49707 22.7158 2.0625 23.0869 1.70117C23.458 1.33008 23.9463 1.14453 24.5518 1.14453C25.1572 1.14453 25.6455 1.33008 26.0166 1.70117C26.3975 2.0625 26.5879 2.49707 26.5879 3.00488ZM29.6641 3.00488C29.6641 2.47754 29.8594 2.03809 30.25 1.68652C30.6504 1.3252 31.1338 1.14453 31.7002 1.14453C32.2764 1.14453 32.7549 1.3252 33.1357 1.68652C33.5264 2.04785 33.7217 2.4873 33.7217 3.00488C33.7217 3.5127 33.5361 3.95215 33.165 4.32324C32.7939 4.68457 32.3057 4.86523 31.7002 4.86523C31.0947 4.86523 30.6016 4.68457 30.2207 4.32324C29.8496 3.95215 29.6641 3.5127 29.6641 3.00488Z" fill="#141414" fill-opacity="0.5"/>
<path d="M46.8613 18.6201C46.8613 18.1025 46.6025 17.6973 46.085 17.4043C45.5771 17.1016 44.7568 16.833 43.624 16.5986C39.8545 15.8076 37.9697 14.2061 37.9697 11.7939C37.9697 10.3877 38.5508 9.21582 39.7129 8.27832C40.8848 7.33105 42.4131 6.85742 44.2979 6.85742C46.3096 6.85742 47.916 7.33105 49.1172 8.27832C50.3281 9.22559 50.9336 10.4561 50.9336 11.9697H46.7002C46.7002 11.3643 46.5049 10.8662 46.1143 10.4756C45.7236 10.0752 45.1133 9.875 44.2832 9.875C43.5703 9.875 43.0186 10.0361 42.6279 10.3584C42.2373 10.6807 42.042 11.0908 42.042 11.5889C42.042 12.0576 42.2617 12.4385 42.7012 12.7314C43.1504 13.0146 43.9023 13.2637 44.957 13.4785C46.0117 13.6836 46.9004 13.918 47.623 14.1816C49.8594 15.002 50.9775 16.4229 50.9775 18.4443C50.9775 19.8896 50.3574 21.0615 49.1172 21.96C47.877 22.8486 46.2754 23.293 44.3125 23.293C42.9844 23.293 41.8027 23.0586 40.7676 22.5898C39.7422 22.1113 38.9365 21.4619 38.3506 20.6416C37.7646 19.8115 37.4717 18.918 37.4717 17.9609H41.4854C41.5244 18.7129 41.8027 19.2891 42.3203 19.6895C42.8379 20.0898 43.5312 20.29 44.4004 20.29C45.2109 20.29 45.8213 20.1387 46.2314 19.8359C46.6514 19.5234 46.8613 19.1182 46.8613 18.6201Z" fill="#141414" fill-opacity="0.5"/>
<path d="M58.7852 3.25391V7.15039H61.4951V10.2559H58.7852V18.166C58.7852 18.752 58.8975 19.1719 59.1221 19.4258C59.3467 19.6797 59.7764 19.8066 60.4111 19.8066C60.8799 19.8066 61.2949 19.7725 61.6562 19.7041V22.9121C60.8262 23.166 59.9717 23.293 59.0928 23.293C56.124 23.293 54.6104 21.7939 54.5518 18.7959V10.2559H52.2373V7.15039H54.5518V3.25391H58.7852Z" fill="#141414" fill-opacity="0.5"/>
<path d="M71.1484 23.293C68.8242 23.293 66.9297 22.5801 65.4648 21.1543C64.0098 19.7285 63.2822 17.8291 63.2822 15.4561V15.0459C63.2822 13.4541 63.5898 12.0332 64.2051 10.7832C64.8203 9.52344 65.6895 8.55664 66.8125 7.88281C67.9453 7.19922 69.2344 6.85742 70.6797 6.85742C72.8477 6.85742 74.5518 7.54102 75.792 8.9082C77.042 10.2754 77.667 12.2139 77.667 14.7236V16.4521H67.5742C67.7109 17.4873 68.1211 18.3174 68.8047 18.9424C69.498 19.5674 70.3721 19.8799 71.4268 19.8799C73.0576 19.8799 74.332 19.2891 75.25 18.1074L77.3301 20.4365C76.6953 21.335 75.8359 22.0381 74.752 22.5459C73.668 23.0439 72.4668 23.293 71.1484 23.293ZM70.665 10.2852C69.8252 10.2852 69.1416 10.5684 68.6143 11.1348C68.0967 11.7012 67.7646 12.5117 67.6182 13.5664H73.5068V13.2295C73.4873 12.292 73.2334 11.5693 72.7451 11.0615C72.2568 10.5439 71.5635 10.2852 70.665 10.2852Z" fill="#141414" fill-opacity="0.5"/>
<path d="M88.9902 11.1201C88.4141 11.042 87.9062 11.0029 87.4668 11.0029C85.8652 11.0029 84.8154 11.5449 84.3174 12.6289V23H80.084V7.15039H84.083L84.2002 9.04004C85.0498 7.58496 86.2266 6.85742 87.7305 6.85742C88.1992 6.85742 88.6387 6.9209 89.0488 7.04785L88.9902 11.1201Z" fill="#141414" fill-opacity="0.5"/>
<path d="M95.5088 23H91.2607V7.15039H95.5088V23ZM91.0117 3.04883C91.0117 2.41406 91.2217 1.8916 91.6416 1.48145C92.0713 1.07129 92.6523 0.866211 93.3848 0.866211C94.1074 0.866211 94.6836 1.07129 95.1133 1.48145C95.543 1.8916 95.7578 2.41406 95.7578 3.04883C95.7578 3.69336 95.5381 4.2207 95.0986 4.63086C94.6689 5.04102 94.0977 5.24609 93.3848 5.24609C92.6719 5.24609 92.0957 5.04102 91.6562 4.63086C91.2266 4.2207 91.0117 3.69336 91.0117 3.04883Z" fill="#141414" fill-opacity="0.5"/>
<path d="M103.478 23H99.2295V0.5H103.478V23Z" fill="#141414" fill-opacity="0.5"/>
<path d="M114.273 23.293C111.949 23.293 110.055 22.5801 108.59 21.1543C107.135 19.7285 106.407 17.8291 106.407 15.4561V15.0459C106.407 13.4541 106.715 12.0332 107.33 10.7832C107.945 9.52344 108.814 8.55664 109.938 7.88281C111.07 7.19922 112.359 6.85742 113.805 6.85742C115.973 6.85742 117.677 7.54102 118.917 8.9082C120.167 10.2754 120.792 12.2139 120.792 14.7236V16.4521H110.699C110.836 17.4873 111.246 18.3174 111.93 18.9424C112.623 19.5674 113.497 19.8799 114.552 19.8799C116.183 19.8799 117.457 19.2891 118.375 18.1074L120.455 20.4365C119.82 21.335 118.961 22.0381 117.877 22.5459C116.793 23.0439 115.592 23.293 114.273 23.293ZM113.79 10.2852C112.95 10.2852 112.267 10.5684 111.739 11.1348C111.222 11.7012 110.89 12.5117 110.743 13.5664H116.632V13.2295C116.612 12.292 116.358 11.5693 115.87 11.0615C115.382 10.5439 114.688 10.2852 113.79 10.2852Z" fill="#141414" fill-opacity="0.5"/>
<path d="M127.105 7.15039L127.237 8.98145C128.37 7.56543 129.889 6.85742 131.793 6.85742C133.473 6.85742 134.723 7.35059 135.543 8.33691C136.363 9.32324 136.783 10.7979 136.803 12.7607V23H132.569V12.8633C132.569 11.9648 132.374 11.3154 131.983 10.915C131.593 10.5049 130.943 10.2998 130.035 10.2998C128.844 10.2998 127.95 10.8076 127.354 11.8232V23H123.121V7.15039H127.105Z" fill="#141414" fill-opacity="0.5"/>
<path d="M153.253 16.6426L151.729 18.166V23H147.496V0.5H151.729V12.9658L152.55 11.9111L156.607 7.15039H161.69L155.963 13.7568L162.188 23H157.325L153.253 16.6426Z" fill="#141414" fill-opacity="0.5"/>
<path d="M172.706 23C172.511 22.6191 172.369 22.1455 172.281 21.5791C171.256 22.7217 169.923 23.293 168.282 23.293C166.729 23.293 165.44 22.8438 164.415 21.9453C163.399 21.0469 162.892 19.9141 162.892 18.5469C162.892 16.8672 163.512 15.5781 164.752 14.6797C166.002 13.7812 167.804 13.3271 170.157 13.3174H172.105V12.4092C172.105 11.6768 171.915 11.0908 171.534 10.6514C171.163 10.2119 170.572 9.99219 169.762 9.99219C169.049 9.99219 168.487 10.1631 168.077 10.5049C167.677 10.8467 167.477 11.3154 167.477 11.9111H163.243C163.243 10.9932 163.526 10.1436 164.093 9.3623C164.659 8.58105 165.46 7.9707 166.495 7.53125C167.53 7.08203 168.692 6.85742 169.981 6.85742C171.935 6.85742 173.482 7.35059 174.625 8.33691C175.777 9.31348 176.354 10.6904 176.354 12.4678V19.3379C176.363 20.8418 176.573 21.9795 176.983 22.751V23H172.706ZM169.205 20.0557C169.83 20.0557 170.406 19.9189 170.934 19.6455C171.461 19.3623 171.852 18.9863 172.105 18.5176V15.793H170.523C168.404 15.793 167.276 16.5254 167.14 17.9902L167.125 18.2393C167.125 18.7666 167.311 19.2012 167.682 19.543C168.053 19.8848 168.561 20.0557 169.205 20.0557Z" fill="#141414" fill-opacity="0.5"/>
<path d="M188.512 11.1201C187.936 11.042 187.428 11.0029 186.988 11.0029C185.387 11.0029 184.337 11.5449 183.839 12.6289V23H179.605V7.15039H183.604L183.722 9.04004C184.571 7.58496 185.748 6.85742 187.252 6.85742C187.721 6.85742 188.16 6.9209 188.57 7.04785L188.512 11.1201Z" fill="#141414" fill-opacity="0.5"/>
<path d="M196.363 3.25391V7.15039H199.073V10.2559H196.363V18.166C196.363 18.752 196.476 19.1719 196.7 19.4258C196.925 19.6797 197.354 19.8066 197.989 19.8066C198.458 19.8066 198.873 19.7725 199.234 19.7041V22.9121C198.404 23.166 197.55 23.293 196.671 23.293C193.702 23.293 192.188 21.7939 192.13 18.7959V10.2559H189.815V7.15039H192.13V3.25391H196.363Z" fill="#141414" fill-opacity="0.5"/>
<path d="M205.899 23H201.651V0.5H205.899V23Z" fill="#141414" fill-opacity="0.5"/>
<path d="M218.585 23C218.39 22.6191 218.248 22.1455 218.16 21.5791C217.135 22.7217 215.802 23.293 214.161 23.293C212.608 23.293 211.319 22.8438 210.294 21.9453C209.278 21.0469 208.771 19.9141 208.771 18.5469C208.771 16.8672 209.391 15.5781 210.631 14.6797C211.881 13.7812 213.683 13.3271 216.036 13.3174H217.984V12.4092C217.984 11.6768 217.794 11.0908 217.413 10.6514C217.042 10.2119 216.451 9.99219 215.641 9.99219C214.928 9.99219 214.366 10.1631 213.956 10.5049C213.556 10.8467 213.355 11.3154 213.355 11.9111H209.122C209.122 10.9932 209.405 10.1436 209.972 9.3623C210.538 8.58105 211.339 7.9707 212.374 7.53125C213.409 7.08203 214.571 6.85742 215.86 6.85742C217.813 6.85742 219.361 7.35059 220.504 8.33691C221.656 9.31348 222.232 10.6904 222.232 12.4678V19.3379C222.242 20.8418 222.452 21.9795 222.862 22.751V23H218.585ZM215.084 20.0557C215.709 20.0557 216.285 19.9189 216.812 19.6455C217.34 19.3623 217.73 18.9863 217.984 18.5176V15.793H216.402C214.283 15.793 213.155 16.5254 213.019 17.9902L213.004 18.2393C213.004 18.7666 213.189 19.2012 213.561 19.543C213.932 19.8848 214.439 20.0557 215.084 20.0557Z" fill="#141414" fill-opacity="0.5"/>
<path d="M234.391 11.1201C233.814 11.042 233.307 11.0029 232.867 11.0029C231.266 11.0029 230.216 11.5449 229.718 12.6289V23H225.484V7.15039H229.483L229.601 9.04004C230.45 7.58496 231.627 6.85742 233.131 6.85742C233.6 6.85742 234.039 6.9209 234.449 7.04785L234.391 11.1201Z" fill="#141414" fill-opacity="0.5"/>
<path d="M241.012 23H236.778V7.15039H241.012V23Z" fill="#141414" fill-opacity="0.5"/>
<path d="M261.329 23C261.134 22.6191 260.992 22.1455 260.904 21.5791C259.879 22.7217 258.546 23.293 256.905 23.293C255.353 23.293 254.063 22.8438 253.038 21.9453C252.022 21.0469 251.515 19.9141 251.515 18.5469C251.515 16.8672 252.135 15.5781 253.375 14.6797C254.625 13.7812 256.427 13.3271 258.78 13.3174H260.729V12.4092C260.729 11.6768 260.538 11.0908 260.157 10.6514C259.786 10.2119 259.195 9.99219 258.385 9.99219C257.672 9.99219 257.11 10.1631 256.7 10.5049C256.3 10.8467 256.1 11.3154 256.1 11.9111H251.866C251.866 10.9932 252.149 10.1436 252.716 9.3623C253.282 8.58105 254.083 7.9707 255.118 7.53125C256.153 7.08203 257.315 6.85742 258.604 6.85742C260.558 6.85742 262.105 7.35059 263.248 8.33691C264.4 9.31348 264.977 10.6904 264.977 12.4678V19.3379C264.986 20.8418 265.196 21.9795 265.606 22.751V23H261.329ZM257.828 20.0557C258.453 20.0557 259.029 19.9189 259.557 19.6455C260.084 19.3623 260.475 18.9863 260.729 18.5176V15.793H259.146C257.027 15.793 255.899 16.5254 255.763 17.9902L255.748 18.2393C255.748 18.7666 255.934 19.2012 256.305 19.543C256.676 19.8848 257.184 20.0557 257.828 20.0557Z" fill="#141414" fill-opacity="0.5"/>
<path d="M273.985 16.6426L272.462 18.166V23H268.229V0.5H272.462V12.9658L273.282 11.9111L277.34 7.15039H282.423L276.695 13.7568L282.921 23H278.058L273.985 16.6426Z" fill="#141414" fill-opacity="0.5"/>
<path d="M288.722 23H284.474V0.5H288.722V23Z" fill="#141414" fill-opacity="0.5"/>
<path d="M296.793 23H292.56V7.15039H296.793V23Z" fill="#141414" fill-opacity="0.5"/>
<path d="M304.352 7.15039L304.483 8.98145C305.616 7.56543 307.135 6.85742 309.039 6.85742C310.719 6.85742 311.969 7.35059 312.789 8.33691C313.609 9.32324 314.029 10.7979 314.049 12.7607V23H309.815V12.8633C309.815 11.9648 309.62 11.3154 309.229 10.915C308.839 10.5049 308.189 10.2998 307.281 10.2998C306.09 10.2998 305.196 10.8076 304.601 11.8232V23H300.367V7.15039H304.352Z" fill="#141414" fill-opacity="0.5"/>
<path d="M321.842 23H317.608V7.15039H321.842V23Z" fill="#141414" fill-opacity="0.5"/>
<path d="M330.367 19.5869H338.116V23H324.962V20.4219L332.418 10.5781H325.182V7.15039H337.882V9.65527L330.367 19.5869Z" fill="#141414" fill-opacity="0.5"/>
<path d="M339.874 14.958C339.874 12.4873 340.426 10.5195 341.529 9.05469C342.643 7.58984 344.161 6.85742 346.085 6.85742C347.628 6.85742 348.902 7.43359 349.908 8.58594V0.5H354.156V23H350.333L350.128 21.3154C349.073 22.6338 347.716 23.293 346.056 23.293C344.19 23.293 342.691 22.5605 341.559 21.0957C340.436 19.6211 339.874 17.5752 339.874 14.958ZM344.107 15.2656C344.107 16.75 344.366 17.8877 344.884 18.6787C345.401 19.4697 346.153 19.8652 347.14 19.8652C348.448 19.8652 349.371 19.3135 349.908 18.21V11.9551C349.381 10.8516 348.468 10.2998 347.169 10.2998C345.128 10.2998 344.107 11.9551 344.107 15.2656Z" fill="#141414" fill-opacity="0.5"/>
<path d="M366.622 23C366.427 22.6191 366.285 22.1455 366.197 21.5791C365.172 22.7217 363.839 23.293 362.198 23.293C360.646 23.293 359.356 22.8438 358.331 21.9453C357.315 21.0469 356.808 19.9141 356.808 18.5469C356.808 16.8672 357.428 15.5781 358.668 14.6797C359.918 13.7812 361.72 13.3271 364.073 13.3174H366.021V12.4092C366.021 11.6768 365.831 11.0908 365.45 10.6514C365.079 10.2119 364.488 9.99219 363.678 9.99219C362.965 9.99219 362.403 10.1631 361.993 10.5049C361.593 10.8467 361.393 11.3154 361.393 11.9111H357.159C357.159 10.9932 357.442 10.1436 358.009 9.3623C358.575 8.58105 359.376 7.9707 360.411 7.53125C361.446 7.08203 362.608 6.85742 363.897 6.85742C365.851 6.85742 367.398 7.35059 368.541 8.33691C369.693 9.31348 370.27 10.6904 370.27 12.4678V19.3379C370.279 20.8418 370.489 21.9795 370.899 22.751V23H366.622ZM363.121 20.0557C363.746 20.0557 364.322 19.9189 364.85 19.6455C365.377 19.3623 365.768 18.9863 366.021 18.5176V15.793H364.439C362.32 15.793 361.192 16.5254 361.056 17.9902L361.041 18.2393C361.041 18.7666 361.227 19.2012 361.598 19.543C361.969 19.8848 362.477 20.0557 363.121 20.0557Z" fill="#141414" fill-opacity="0.5"/>
<path d="M386.061 3.25391V7.15039H388.771V10.2559H386.061V18.166C386.061 18.752 386.173 19.1719 386.397 19.4258C386.622 19.6797 387.052 19.8066 387.687 19.8066C388.155 19.8066 388.57 19.7725 388.932 19.7041V22.9121C388.102 23.166 387.247 23.293 386.368 23.293C383.399 23.293 381.886 21.7939 381.827 18.7959V10.2559H379.513V7.15039H381.827V3.25391H386.061Z" fill="#141414" fill-opacity="0.5"/>
<path d="M400.621 21.3887C399.576 22.6582 398.131 23.293 396.285 23.293C394.586 23.293 393.287 22.8047 392.389 21.8281C391.5 20.8516 391.046 19.4209 391.026 17.5361V7.15039H395.26V17.3896C395.26 19.04 396.012 19.8652 397.516 19.8652C398.951 19.8652 399.938 19.3672 400.475 18.3711V7.15039H404.723V23H400.738L400.621 21.3887Z" fill="#141414" fill-opacity="0.5"/>
<path d="M412.984 3.25391V7.15039H415.694V10.2559H412.984V18.166C412.984 18.752 413.097 19.1719 413.321 19.4258C413.546 19.6797 413.976 19.8066 414.61 19.8066C415.079 19.8066 415.494 19.7725 415.855 19.7041V22.9121C415.025 23.166 414.171 23.293 413.292 23.293C410.323 23.293 408.81 21.7939 408.751 18.7959V10.2559H406.437V7.15039H408.751V3.25391H412.984Z" fill="#141414" fill-opacity="0.5"/>
<path d="M427.545 21.3887C426.5 22.6582 425.055 23.293 423.209 23.293C421.51 23.293 420.211 22.8047 419.312 21.8281C418.424 20.8516 417.97 19.4209 417.95 17.5361V7.15039H422.184V17.3896C422.184 19.04 422.936 19.8652 424.439 19.8652C425.875 19.8652 426.861 19.3672 427.398 18.3711V7.15039H431.646V23H427.662L427.545 21.3887Z" fill="#141414" fill-opacity="0.5"/>
<path d="M438.736 7.15039L438.868 8.98145C440.001 7.56543 441.52 6.85742 443.424 6.85742C445.104 6.85742 446.354 7.35059 447.174 8.33691C447.994 9.32324 448.414 10.7979 448.434 12.7607V23H444.2V12.8633C444.2 11.9648 444.005 11.3154 443.614 10.915C443.224 10.5049 442.574 10.2998 441.666 10.2998C440.475 10.2998 439.581 10.8076 438.985 11.8232V23H434.752V7.15039H438.736Z" fill="#141414" fill-opacity="0.5"/>
<path d="M451.876 20.9199C451.876 20.2461 452.101 19.6992 452.55 19.2793C453.009 18.8594 453.58 18.6494 454.264 18.6494C454.957 18.6494 455.528 18.8594 455.978 19.2793C456.437 19.6992 456.666 20.2461 456.666 20.9199C456.666 21.584 456.441 22.126 455.992 22.5459C455.543 22.9561 454.967 23.1611 454.264 23.1611C453.57 23.1611 452.999 22.9561 452.55 22.5459C452.101 22.126 451.876 21.584 451.876 20.9199Z" fill="#141414" fill-opacity="0.5"/>
<path d="M29.0635 52.7119L33.8975 36.6719H38.79L31.3633 58H26.7783L19.3809 36.6719H24.2588L29.0635 52.7119Z" fill="#141414" fill-opacity="0.5"/>
<path d="M47.1836 58.293C44.8594 58.293 42.9648 57.5801 41.5 56.1543C40.0449 54.7285 39.3174 52.8291 39.3174 50.4561V50.0459C39.3174 48.4541 39.625 47.0332 40.2402 45.7832C40.8555 44.5234 41.7246 43.5566 42.8477 42.8828C43.9805 42.1992 45.2695 41.8574 46.7148 41.8574C48.8828 41.8574 50.5869 42.541 51.8271 43.9082C53.0771 45.2754 53.7021 47.2139 53.7021 49.7236V51.4521H43.6094C43.7461 52.4873 44.1562 53.3174 44.8398 53.9424C45.5332 54.5674 46.4072 54.8799 47.4619 54.8799C49.0928 54.8799 50.3672 54.2891 51.2852 53.1074L53.3652 55.4365C52.7305 56.335 51.8711 57.0381 50.7871 57.5459C49.7031 58.0439 48.502 58.293 47.1836 58.293ZM46.7002 45.2852C45.8604 45.2852 45.1768 45.5684 44.6494 46.1348C44.1318 46.7012 43.7998 47.5117 43.6533 48.5664H49.542V48.2295C49.5225 47.292 49.2686 46.5693 48.7803 46.0615C48.292 45.5439 47.5986 45.2852 46.7002 45.2852Z" fill="#141414" fill-opacity="0.5"/>
<path d="M72.7744 58C72.5791 57.6191 72.4375 57.1455 72.3496 56.5791C71.3242 57.7217 69.9912 58.293 68.3506 58.293C66.7979 58.293 65.5088 57.8438 64.4834 56.9453C63.4678 56.0469 62.96 54.9141 62.96 53.5469C62.96 51.8672 63.5801 50.5781 64.8203 49.6797C66.0703 48.7812 67.8721 48.3271 70.2256 48.3174H72.1738V47.4092C72.1738 46.6768 71.9834 46.0908 71.6025 45.6514C71.2314 45.2119 70.6406 44.9922 69.8301 44.9922C69.1172 44.9922 68.5557 45.1631 68.1455 45.5049C67.7451 45.8467 67.5449 46.3154 67.5449 46.9111H63.3115C63.3115 45.9932 63.5947 45.1436 64.1611 44.3623C64.7275 43.5811 65.5283 42.9707 66.5635 42.5312C67.5986 42.082 68.7607 41.8574 70.0498 41.8574C72.0029 41.8574 73.5508 42.3506 74.6934 43.3369C75.8457 44.3135 76.4219 45.6904 76.4219 47.4678V54.3379C76.4316 55.8418 76.6416 56.9795 77.0518 57.751V58H72.7744ZM69.2734 55.0557C69.8984 55.0557 70.4746 54.9189 71.002 54.6455C71.5293 54.3623 71.9199 53.9863 72.1738 53.5176V50.793H70.5918C68.4727 50.793 67.3447 51.5254 67.208 52.9902L67.1934 53.2393C67.1934 53.7666 67.3789 54.2012 67.75 54.543C68.1211 54.8848 68.6289 55.0557 69.2734 55.0557Z" fill="#141414" fill-opacity="0.5"/>
<path d="M85.3574 52.0088L88.2871 42.1504H92.8281L86.4561 60.4609L86.1045 61.2959C85.1572 63.3662 83.5947 64.4014 81.417 64.4014C80.8018 64.4014 80.1768 64.3086 79.542 64.123V60.915L80.1865 60.9297C80.9873 60.9297 81.583 60.8076 81.9736 60.5635C82.374 60.3193 82.6865 59.9141 82.9111 59.3477L83.4092 58.0439L77.8574 42.1504H82.4131L85.3574 52.0088Z" fill="#141414" fill-opacity="0.5"/>
<path d="M98.3945 42.1504L98.5264 43.9814C99.6592 42.5654 101.178 41.8574 103.082 41.8574C104.762 41.8574 106.012 42.3506 106.832 43.3369C107.652 44.3232 108.072 45.7979 108.092 47.7607V58H103.858V47.8633C103.858 46.9648 103.663 46.3154 103.272 45.915C102.882 45.5049 102.232 45.2998 101.324 45.2998C100.133 45.2998 99.2393 45.8076 98.6436 46.8232V58H94.4102V42.1504H98.3945Z" fill="#141414" fill-opacity="0.5"/>
<path d="M115.885 58H111.651V42.1504H115.885V58Z" fill="#141414" fill-opacity="0.5"/>
<path d="M135.602 53.6201C135.602 53.1025 135.343 52.6973 134.825 52.4043C134.317 52.1016 133.497 51.833 132.364 51.5986C128.595 50.8076 126.71 49.2061 126.71 46.7939C126.71 45.3877 127.291 44.2158 128.453 43.2783C129.625 42.3311 131.153 41.8574 133.038 41.8574C135.05 41.8574 136.656 42.3311 137.857 43.2783C139.068 44.2256 139.674 45.4561 139.674 46.9697H135.44C135.44 46.3643 135.245 45.8662 134.854 45.4756C134.464 45.0752 133.854 44.875 133.023 44.875C132.311 44.875 131.759 45.0361 131.368 45.3584C130.978 45.6807 130.782 46.0908 130.782 46.5889C130.782 47.0576 131.002 47.4385 131.441 47.7314C131.891 48.0146 132.643 48.2637 133.697 48.4785C134.752 48.6836 135.641 48.918 136.363 49.1816C138.6 50.002 139.718 51.4229 139.718 53.4443C139.718 54.8896 139.098 56.0615 137.857 56.96C136.617 57.8486 135.016 58.293 133.053 58.293C131.725 58.293 130.543 58.0586 129.508 57.5898C128.482 57.1113 127.677 56.4619 127.091 55.6416C126.505 54.8115 126.212 53.918 126.212 52.9609H130.226C130.265 53.7129 130.543 54.2891 131.061 54.6895C131.578 55.0898 132.271 55.29 133.141 55.29C133.951 55.29 134.562 55.1387 134.972 54.8359C135.392 54.5234 135.602 54.1182 135.602 53.6201ZM134.781 58.0293L134.62 58.8789C136.085 59.1426 136.817 59.9873 136.817 61.4131C136.817 62.4873 136.368 63.3369 135.47 63.9619C134.581 64.5869 133.326 64.8994 131.705 64.8994L131.603 62.4531C132.696 62.4531 133.243 62.0576 133.243 61.2666C133.243 60.8564 133.077 60.5732 132.745 60.417C132.423 60.2705 131.896 60.1729 131.163 60.124L131.617 58.0293H134.781Z" fill="#141414" fill-opacity="0.5"/>
<path d="M149.752 58.293C147.428 58.293 145.533 57.5801 144.068 56.1543C142.613 54.7285 141.886 52.8291 141.886 50.4561V50.0459C141.886 48.4541 142.193 47.0332 142.809 45.7832C143.424 44.5234 144.293 43.5566 145.416 42.8828C146.549 42.1992 147.838 41.8574 149.283 41.8574C151.451 41.8574 153.155 42.541 154.396 43.9082C155.646 45.2754 156.271 47.2139 156.271 49.7236V51.4521H146.178C146.314 52.4873 146.725 53.3174 147.408 53.9424C148.102 54.5674 148.976 54.8799 150.03 54.8799C151.661 54.8799 152.936 54.2891 153.854 53.1074L155.934 55.4365C155.299 56.335 154.439 57.0381 153.355 57.5459C152.271 58.0439 151.07 58.293 149.752 58.293ZM149.269 45.2852C148.429 45.2852 147.745 45.5684 147.218 46.1348C146.7 46.7012 146.368 47.5117 146.222 48.5664H152.11V48.2295C152.091 47.292 151.837 46.5693 151.349 46.0615C150.86 45.5439 150.167 45.2852 149.269 45.2852Z" fill="#141414" fill-opacity="0.5"/>
<path d="M164.444 51.6426L162.921 53.166V58H158.688V35.5H162.921V47.9658L163.741 46.9111L167.799 42.1504H172.882L167.154 48.7568L173.38 58H168.517L164.444 51.6426Z" fill="#141414" fill-opacity="0.5"/>
<path d="M179.181 58H174.933V42.1504H179.181V58ZM174.684 38.0488C174.684 37.4141 174.894 36.8916 175.313 36.4814C175.743 36.0713 176.324 35.8662 177.057 35.8662C177.779 35.8662 178.355 36.0713 178.785 36.4814C179.215 36.8916 179.43 37.4141 179.43 38.0488C179.43 38.6934 179.21 39.2207 178.771 39.6309C178.341 40.041 177.77 40.2461 177.057 40.2461C176.344 40.2461 175.768 40.041 175.328 39.6309C174.898 39.2207 174.684 38.6934 174.684 38.0488Z" fill="#141414" fill-opacity="0.5"/>
<path d="M187.149 58H182.901V35.5H187.149V58Z" fill="#141414" fill-opacity="0.5"/>
<path d="M189.991 49.958C189.991 47.4873 190.543 45.5195 191.646 44.0547C192.76 42.5898 194.278 41.8574 196.202 41.8574C197.745 41.8574 199.02 42.4336 200.025 43.5859V35.5H204.273V58H200.45L200.245 56.3154C199.19 57.6338 197.833 58.293 196.173 58.293C194.308 58.293 192.809 57.5605 191.676 56.0957C190.553 54.6211 189.991 52.5752 189.991 49.958ZM194.225 50.2656C194.225 51.75 194.483 52.8877 195.001 53.6787C195.519 54.4697 196.271 54.8652 197.257 54.8652C198.565 54.8652 199.488 54.3135 200.025 53.21V46.9551C199.498 45.8516 198.585 45.2998 197.286 45.2998C195.245 45.2998 194.225 46.9551 194.225 50.2656Z" fill="#141414" fill-opacity="0.5"/>
<path d="M214.85 58.293C212.525 58.293 210.631 57.5801 209.166 56.1543C207.711 54.7285 206.983 52.8291 206.983 50.4561V50.0459C206.983 48.4541 207.291 47.0332 207.906 45.7832C208.521 44.5234 209.391 43.5566 210.514 42.8828C211.646 42.1992 212.936 41.8574 214.381 41.8574C216.549 41.8574 218.253 42.541 219.493 43.9082C220.743 45.2754 221.368 47.2139 221.368 49.7236V51.4521H211.275C211.412 52.4873 211.822 53.3174 212.506 53.9424C213.199 54.5674 214.073 54.8799 215.128 54.8799C216.759 54.8799 218.033 54.2891 218.951 53.1074L221.031 55.4365C220.396 56.335 219.537 57.0381 218.453 57.5459C217.369 58.0439 216.168 58.293 214.85 58.293ZM214.366 45.2852C213.526 45.2852 212.843 45.5684 212.315 46.1348C211.798 46.7012 211.466 47.5117 211.319 48.5664H217.208V48.2295C217.188 47.292 216.935 46.5693 216.446 46.0615C215.958 45.5439 215.265 45.2852 214.366 45.2852Z" fill="#141414" fill-opacity="0.5"/>
<path d="M240.44 58C240.245 57.6191 240.104 57.1455 240.016 56.5791C238.99 57.7217 237.657 58.293 236.017 58.293C234.464 58.293 233.175 57.8438 232.149 56.9453C231.134 56.0469 230.626 54.9141 230.626 53.5469C230.626 51.8672 231.246 50.5781 232.486 49.6797C233.736 48.7812 235.538 48.3271 237.892 48.3174H239.84V47.4092C239.84 46.6768 239.649 46.0908 239.269 45.6514C238.897 45.2119 238.307 44.9922 237.496 44.9922C236.783 44.9922 236.222 45.1631 235.812 45.5049C235.411 45.8467 235.211 46.3154 235.211 46.9111H230.978C230.978 45.9932 231.261 45.1436 231.827 44.3623C232.394 43.5811 233.194 42.9707 234.229 42.5312C235.265 42.082 236.427 41.8574 237.716 41.8574C239.669 41.8574 241.217 42.3506 242.359 43.3369C243.512 44.3135 244.088 45.6904 244.088 47.4678V54.3379C244.098 55.8418 244.308 56.9795 244.718 57.751V58H240.44ZM236.939 55.0557C237.564 55.0557 238.141 54.9189 238.668 54.6455C239.195 54.3623 239.586 53.9863 239.84 53.5176V50.793H238.258C236.139 50.793 235.011 51.5254 234.874 52.9902L234.859 53.2393C234.859 53.7666 235.045 54.2012 235.416 54.543C235.787 54.8848 236.295 55.0557 236.939 55.0557Z" fill="#141414" fill-opacity="0.5"/>
<path d="M253.932 54.8799C254.713 54.8799 255.348 54.665 255.836 54.2354C256.324 53.8057 256.578 53.2344 256.598 52.5215H260.567C260.558 53.5957 260.265 54.582 259.688 55.4805C259.112 56.3691 258.321 57.0625 257.315 57.5605C256.319 58.0488 255.216 58.293 254.005 58.293C251.739 58.293 249.952 57.5752 248.644 56.1396C247.335 54.6943 246.681 52.7021 246.681 50.1631V49.8848C246.681 47.4434 247.33 45.4951 248.629 44.04C249.928 42.585 251.71 41.8574 253.976 41.8574C255.958 41.8574 257.545 42.4238 258.736 43.5566C259.938 44.6797 260.548 46.1787 260.567 48.0537H256.598C256.578 47.2334 256.324 46.5693 255.836 46.0615C255.348 45.5439 254.703 45.2852 253.902 45.2852C252.916 45.2852 252.169 45.6465 251.661 46.3691C251.163 47.082 250.914 48.2441 250.914 49.8555V50.2949C250.914 51.9258 251.163 53.0977 251.661 53.8105C252.159 54.5234 252.916 54.8799 253.932 54.8799ZM255.47 57.9121L255.309 58.7617C256.773 59.0254 257.506 59.8701 257.506 61.2959C257.506 62.3701 257.057 63.2197 256.158 63.8447C255.27 64.4697 254.015 64.7822 252.394 64.7822L252.291 62.3359C253.385 62.3359 253.932 61.9404 253.932 61.1494C253.932 60.7393 253.766 60.4561 253.434 60.2998C253.111 60.1533 252.584 60.0557 251.852 60.0068L252.306 57.9121H255.47Z" fill="#141414" fill-opacity="0.5"/>
<path d="M266.954 42.1504L267.086 43.9229C268.209 42.5459 269.728 41.8574 271.642 41.8574C273.683 41.8574 275.084 42.6631 275.846 44.2744C276.959 42.6631 278.546 41.8574 280.606 41.8574C282.325 41.8574 283.604 42.3604 284.444 43.3662C285.284 44.3623 285.704 45.8662 285.704 47.8779V58H281.456V47.8926C281.456 46.9941 281.28 46.3398 280.929 45.9297C280.577 45.5098 279.957 45.2998 279.068 45.2998C277.799 45.2998 276.92 45.9053 276.432 47.1162L276.446 58H272.213V47.9072C272.213 46.9893 272.032 46.3252 271.671 45.915C271.31 45.5049 270.694 45.2998 269.825 45.2998C268.624 45.2998 267.755 45.7979 267.218 46.7939V58H262.984V42.1504H266.954Z" fill="#141414" fill-opacity="0.5"/>
<path d="M298.155 58C297.96 57.6191 297.818 57.1455 297.73 56.5791C296.705 57.7217 295.372 58.293 293.731 58.293C292.179 58.293 290.89 57.8438 289.864 56.9453C288.849 56.0469 288.341 54.9141 288.341 53.5469C288.341 51.8672 288.961 50.5781 290.201 49.6797C291.451 48.7812 293.253 48.3271 295.606 48.3174H297.555V47.4092C297.555 46.6768 297.364 46.0908 296.983 45.6514C296.612 45.2119 296.021 44.9922 295.211 44.9922C294.498 44.9922 293.937 45.1631 293.526 45.5049C293.126 45.8467 292.926 46.3154 292.926 46.9111H288.692C288.692 45.9932 288.976 45.1436 289.542 44.3623C290.108 43.5811 290.909 42.9707 291.944 42.5312C292.979 42.082 294.142 41.8574 295.431 41.8574C297.384 41.8574 298.932 42.3506 300.074 43.3369C301.227 44.3135 301.803 45.6904 301.803 47.4678V54.3379C301.812 55.8418 302.022 56.9795 302.433 57.751V58H298.155ZM294.654 55.0557C295.279 55.0557 295.855 54.9189 296.383 54.6455C296.91 54.3623 297.301 53.9863 297.555 53.5176V50.793H295.973C293.854 50.793 292.726 51.5254 292.589 52.9902L292.574 53.2393C292.574 53.7666 292.76 54.2012 293.131 54.543C293.502 54.8848 294.01 55.0557 294.654 55.0557Z" fill="#141414" fill-opacity="0.5"/>
<path d="M310.738 52.0088L313.668 42.1504H318.209L311.837 60.4609L311.485 61.2959C310.538 63.3662 308.976 64.4014 306.798 64.4014C306.183 64.4014 305.558 64.3086 304.923 64.123V60.915L305.567 60.9297C306.368 60.9297 306.964 60.8076 307.354 60.5635C307.755 60.3193 308.067 59.9141 308.292 59.3477L308.79 58.0439L303.238 42.1504H307.794L310.738 52.0088Z" fill="#141414" fill-opacity="0.5"/>
<path d="M328.829 58C328.634 57.6191 328.492 57.1455 328.404 56.5791C327.379 57.7217 326.046 58.293 324.405 58.293C322.853 58.293 321.563 57.8438 320.538 56.9453C319.522 56.0469 319.015 54.9141 319.015 53.5469C319.015 51.8672 319.635 50.5781 320.875 49.6797C322.125 48.7812 323.927 48.3271 326.28 48.3174H328.229V47.4092C328.229 46.6768 328.038 46.0908 327.657 45.6514C327.286 45.2119 326.695 44.9922 325.885 44.9922C325.172 44.9922 324.61 45.1631 324.2 45.5049C323.8 45.8467 323.6 46.3154 323.6 46.9111H319.366C319.366 45.9932 319.649 45.1436 320.216 44.3623C320.782 43.5811 321.583 42.9707 322.618 42.5312C323.653 42.082 324.815 41.8574 326.104 41.8574C328.058 41.8574 329.605 42.3506 330.748 43.3369C331.9 44.3135 332.477 45.6904 332.477 47.4678V54.3379C332.486 55.8418 332.696 56.9795 333.106 57.751V58H328.829ZM325.328 55.0557C325.953 55.0557 326.529 54.9189 327.057 54.6455C327.584 54.3623 327.975 53.9863 328.229 53.5176V50.793H326.646C324.527 50.793 323.399 51.5254 323.263 52.9902L323.248 53.2393C323.248 53.7666 323.434 54.2012 323.805 54.543C324.176 54.8848 324.684 55.0557 325.328 55.0557Z" fill="#141414" fill-opacity="0.5"/>
<path d="M349.791 54.8799C350.572 54.8799 351.207 54.665 351.695 54.2354C352.184 53.8057 352.438 53.2344 352.457 52.5215H356.427C356.417 53.5957 356.124 54.582 355.548 55.4805C354.972 56.3691 354.181 57.0625 353.175 57.5605C352.179 58.0488 351.075 58.293 349.864 58.293C347.599 58.293 345.812 57.5752 344.503 56.1396C343.194 54.6943 342.54 52.7021 342.54 50.1631V49.8848C342.54 47.4434 343.189 45.4951 344.488 44.04C345.787 42.585 347.569 41.8574 349.835 41.8574C351.817 41.8574 353.404 42.4238 354.596 43.5566C355.797 44.6797 356.407 46.1787 356.427 48.0537H352.457C352.438 47.2334 352.184 46.5693 351.695 46.0615C351.207 45.5439 350.562 45.2852 349.762 45.2852C348.775 45.2852 348.028 45.6465 347.521 46.3691C347.022 47.082 346.773 48.2441 346.773 49.8555V50.2949C346.773 51.9258 347.022 53.0977 347.521 53.8105C348.019 54.5234 348.775 54.8799 349.791 54.8799ZM351.329 57.9121L351.168 58.7617C352.633 59.0254 353.365 59.8701 353.365 61.2959C353.365 62.3701 352.916 63.2197 352.018 63.8447C351.129 64.4697 349.874 64.7822 348.253 64.7822L348.15 62.3359C349.244 62.3359 349.791 61.9404 349.791 61.1494C349.791 60.7393 349.625 60.4561 349.293 60.2998C348.971 60.1533 348.443 60.0557 347.711 60.0068L348.165 57.9121H351.329Z" fill="#141414" fill-opacity="0.5"/>
<path d="M368.028 58C367.833 57.6191 367.691 57.1455 367.604 56.5791C366.578 57.7217 365.245 58.293 363.604 58.293C362.052 58.293 360.763 57.8438 359.737 56.9453C358.722 56.0469 358.214 54.9141 358.214 53.5469C358.214 51.8672 358.834 50.5781 360.074 49.6797C361.324 48.7812 363.126 48.3271 365.479 48.3174H367.428V47.4092C367.428 46.6768 367.237 46.0908 366.856 45.6514C366.485 45.2119 365.895 44.9922 365.084 44.9922C364.371 44.9922 363.81 45.1631 363.399 45.5049C362.999 45.8467 362.799 46.3154 362.799 46.9111H358.565C358.565 45.9932 358.849 45.1436 359.415 44.3623C359.981 43.5811 360.782 42.9707 361.817 42.5312C362.853 42.082 364.015 41.8574 365.304 41.8574C367.257 41.8574 368.805 42.3506 369.947 43.3369C371.1 44.3135 371.676 45.6904 371.676 47.4678V54.3379C371.686 55.8418 371.896 56.9795 372.306 57.751V58H368.028ZM364.527 55.0557C365.152 55.0557 365.729 54.9189 366.256 54.6455C366.783 54.3623 367.174 53.9863 367.428 53.5176V50.793H365.846C363.727 50.793 362.599 51.5254 362.462 52.9902L362.447 53.2393C362.447 53.7666 362.633 54.2012 363.004 54.543C363.375 54.8848 363.883 55.0557 364.527 55.0557Z" fill="#141414" fill-opacity="0.5"/>
<path d="M379.396 58H375.147V35.5H379.396V58Z" fill="#141414" fill-opacity="0.5"/>
<path d="M387.467 58H383.233V42.1504H387.467V58Z" fill="#141414" fill-opacity="0.5"/>
<path d="M399.713 53.6201C399.713 53.1025 399.454 52.6973 398.937 52.4043C398.429 52.1016 397.608 51.833 396.476 51.5986C392.706 50.8076 390.821 49.2061 390.821 46.7939C390.821 45.3877 391.402 44.2158 392.564 43.2783C393.736 42.3311 395.265 41.8574 397.149 41.8574C399.161 41.8574 400.768 42.3311 401.969 43.2783C403.18 44.2256 403.785 45.4561 403.785 46.9697H399.552C399.552 46.3643 399.356 45.8662 398.966 45.4756C398.575 45.0752 397.965 44.875 397.135 44.875C396.422 44.875 395.87 45.0361 395.479 45.3584C395.089 45.6807 394.894 46.0908 394.894 46.5889C394.894 47.0576 395.113 47.4385 395.553 47.7314C396.002 48.0146 396.754 48.2637 397.809 48.4785C398.863 48.6836 399.752 48.918 400.475 49.1816C402.711 50.002 403.829 51.4229 403.829 53.4443C403.829 54.8896 403.209 56.0615 401.969 56.96C400.729 57.8486 399.127 58.293 397.164 58.293C395.836 58.293 394.654 58.0586 393.619 57.5898C392.594 57.1113 391.788 56.4619 391.202 55.6416C390.616 54.8115 390.323 53.918 390.323 52.9609H394.337C394.376 53.7129 394.654 54.2891 395.172 54.6895C395.689 55.0898 396.383 55.29 397.252 55.29C398.062 55.29 398.673 55.1387 399.083 54.8359C399.503 54.5234 399.713 54.1182 399.713 53.6201ZM398.893 58.0293L398.731 58.8789C400.196 59.1426 400.929 59.9873 400.929 61.4131C400.929 62.4873 400.479 63.3369 399.581 63.9619C398.692 64.5869 397.438 64.8994 395.816 64.8994L395.714 62.4531C396.808 62.4531 397.354 62.0576 397.354 61.2666C397.354 60.8564 397.188 60.5732 396.856 60.417C396.534 60.2705 396.007 60.1729 395.274 60.124L395.729 58.0293H398.893Z" fill="#141414" fill-opacity="0.5"/>
<path d="M411.139 58H406.905V42.1504H411.139V58Z" fill="#141414" fill-opacity="0.5"/>
<path d="M418.697 42.1504L418.829 43.9814C419.962 42.5654 421.48 41.8574 423.385 41.8574C425.064 41.8574 426.314 42.3506 427.135 43.3369C427.955 44.3232 428.375 45.7979 428.395 47.7607V58H424.161V47.8633C424.161 46.9648 423.966 46.3154 423.575 45.915C423.185 45.5049 422.535 45.2998 421.627 45.2998C420.436 45.2998 419.542 45.8076 418.946 46.8232V58H414.713V42.1504H418.697Z" fill="#141414" fill-opacity="0.5"/>
<path d="M431.837 55.9199C431.837 55.2461 432.062 54.6992 432.511 54.2793C432.97 53.8594 433.541 53.6494 434.225 53.6494C434.918 53.6494 435.489 53.8594 435.938 54.2793C436.397 54.6992 436.627 55.2461 436.627 55.9199C436.627 56.584 436.402 57.126 435.953 57.5459C435.504 57.9561 434.928 58.1611 434.225 58.1611C433.531 58.1611 432.96 57.9561 432.511 57.5459C432.062 57.126 431.837 56.584 431.837 55.9199Z" fill="#141414" fill-opacity="0.5"/>
</svg>
