<svg width="190" height="97" viewBox="0 0 190 97" fill="none" xmlns="http://www.w3.org/2000/svg">
<g filter="url(#filter0_d)">
<rect x="2" width="182" height="89" rx="30" fill="#F6B41D"/>
<rect x="2" width="182" height="89" rx="30" fill="url(#paint0_linear)"/>
<rect x="3.5" y="1.5" width="179" height="86" rx="28.5" stroke="#141414" stroke-opacity="0.1" stroke-width="3"/>
</g>
<g opacity="0.7">
<path d="M52.9678 57V35.6719H60.4385C63.0264 35.6719 64.9893 36.1699 66.3271 37.166C67.665 38.1523 68.334 39.6025 68.334 41.5166C68.334 42.5615 68.0654 43.4844 67.5283 44.2852C66.9912 45.0762 66.2441 45.6572 65.2871 46.0283C66.3809 46.3018 67.2402 46.8535 67.8652 47.6836C68.5 48.5137 68.8174 49.5293 68.8174 50.7305C68.8174 52.7812 68.1631 54.334 66.8545 55.3887C65.5459 56.4434 63.6807 56.9805 61.2588 57H52.9678ZM57.3623 47.7129V53.4697H61.127C62.1621 53.4697 62.9678 53.2256 63.5439 52.7373C64.1299 52.2393 64.4229 51.5557 64.4229 50.6865C64.4229 48.7334 63.4121 47.7422 61.3906 47.7129H57.3623ZM57.3623 44.6074H60.6143C62.8311 44.5684 63.9395 43.6846 63.9395 41.9561C63.9395 40.9893 63.6562 40.2959 63.0898 39.876C62.5332 39.4463 61.6494 39.2314 60.4385 39.2314H57.3623V44.6074Z" fill="#141414"/>
<path d="M81.0342 57C80.8389 56.6191 80.6973 56.1455 80.6094 55.5791C79.584 56.7217 78.251 57.293 76.6104 57.293C75.0576 57.293 73.7686 56.8438 72.7432 55.9453C71.7275 55.0469 71.2197 53.9141 71.2197 52.5469C71.2197 50.8672 71.8398 49.5781 73.0801 48.6797C74.3301 47.7812 76.1318 47.3271 78.4854 47.3174H80.4336V46.4092C80.4336 45.6768 80.2432 45.0908 79.8623 44.6514C79.4912 44.2119 78.9004 43.9922 78.0898 43.9922C77.377 43.9922 76.8154 44.1631 76.4053 44.5049C76.0049 44.8467 75.8047 45.3154 75.8047 45.9111H71.5713C71.5713 44.9932 71.8545 44.1436 72.4209 43.3623C72.9873 42.5811 73.7881 41.9707 74.8232 41.5312C75.8584 41.082 77.0205 40.8574 78.3096 40.8574C80.2627 40.8574 81.8105 41.3506 82.9531 42.3369C84.1055 43.3135 84.6816 44.6904 84.6816 46.4678V53.3379C84.6914 54.8418 84.9014 55.9795 85.3115 56.751V57H81.0342ZM77.5332 54.0557C78.1582 54.0557 78.7344 53.9189 79.2617 53.6455C79.7891 53.3623 80.1797 52.9863 80.4336 52.5176V49.793H78.8516C76.7324 49.793 75.6045 50.5254 75.4678 51.9902L75.4531 52.2393C75.4531 52.7666 75.6387 53.2012 76.0098 53.543C76.3809 53.8848 76.8887 54.0557 77.5332 54.0557Z" fill="#141414"/>
<path d="M96.5176 52.6201C96.5176 52.1025 96.2588 51.6973 95.7412 51.4043C95.2334 51.1016 94.4131 50.833 93.2803 50.5986C89.5107 49.8076 87.626 48.2061 87.626 45.7939C87.626 44.3877 88.207 43.2158 89.3691 42.2783C90.541 41.3311 92.0693 40.8574 93.9541 40.8574C95.9658 40.8574 97.5723 41.3311 98.7734 42.2783C99.9844 43.2256 100.59 44.4561 100.59 45.9697H96.3564C96.3564 45.3643 96.1611 44.8662 95.7705 44.4756C95.3799 44.0752 94.7695 43.875 93.9395 43.875C93.2266 43.875 92.6748 44.0361 92.2842 44.3584C91.8936 44.6807 91.6982 45.0908 91.6982 45.5889C91.6982 46.0576 91.918 46.4385 92.3574 46.7314C92.8066 47.0146 93.5586 47.2637 94.6133 47.4785C95.668 47.6836 96.5566 47.918 97.2793 48.1816C99.5156 49.002 100.634 50.4229 100.634 52.4443C100.634 53.8896 100.014 55.0615 98.7734 55.96C97.5332 56.8486 95.9316 57.293 93.9688 57.293C92.6406 57.293 91.459 57.0586 90.4238 56.5898C89.3984 56.1113 88.5928 55.4619 88.0068 54.6416C87.4209 53.8115 87.1279 52.918 87.1279 51.9609H91.1416C91.1807 52.7129 91.459 53.2891 91.9766 53.6895C92.4941 54.0898 93.1875 54.29 94.0566 54.29C94.8672 54.29 95.4775 54.1387 95.8877 53.8359C96.3076 53.5234 96.5176 53.1182 96.5176 52.6201ZM95.6973 57.0293L95.5361 57.8789C97.001 58.1426 97.7334 58.9873 97.7334 60.4131C97.7334 61.4873 97.2842 62.3369 96.3857 62.9619C95.4971 63.5869 94.2422 63.8994 92.6211 63.8994L92.5186 61.4531C93.6123 61.4531 94.1592 61.0576 94.1592 60.2666C94.1592 59.8564 93.9932 59.5732 93.6611 59.417C93.3389 59.2705 92.8115 59.1729 92.0791 59.124L92.5332 57.0293H95.6973Z" fill="#141414"/>
<path d="M107.841 57H103.593V34.5H107.841V57Z" fill="#141414"/>
<path d="M120.526 57C120.331 56.6191 120.189 56.1455 120.102 55.5791C119.076 56.7217 117.743 57.293 116.103 57.293C114.55 57.293 113.261 56.8438 112.235 55.9453C111.22 55.0469 110.712 53.9141 110.712 52.5469C110.712 50.8672 111.332 49.5781 112.572 48.6797C113.822 47.7812 115.624 47.3271 117.978 47.3174H119.926V46.4092C119.926 45.6768 119.735 45.0908 119.354 44.6514C118.983 44.2119 118.393 43.9922 117.582 43.9922C116.869 43.9922 116.308 44.1631 115.897 44.5049C115.497 44.8467 115.297 45.3154 115.297 45.9111H111.063C111.063 44.9932 111.347 44.1436 111.913 43.3623C112.479 42.5811 113.28 41.9707 114.315 41.5312C115.351 41.082 116.513 40.8574 117.802 40.8574C119.755 40.8574 121.303 41.3506 122.445 42.3369C123.598 43.3135 124.174 44.6904 124.174 46.4678V53.3379C124.184 54.8418 124.394 55.9795 124.804 56.751V57H120.526ZM117.025 54.0557C117.65 54.0557 118.227 53.9189 118.754 53.6455C119.281 53.3623 119.672 52.9863 119.926 52.5176V49.793H118.344C116.225 49.793 115.097 50.5254 114.96 51.9902L114.945 52.2393C114.945 52.7666 115.131 53.2012 115.502 53.543C115.873 53.8848 116.381 54.0557 117.025 54.0557Z" fill="#141414"/>
<path d="M132.494 37.2539V41.1504H135.204V44.2559H132.494V52.166C132.494 52.752 132.606 53.1719 132.831 53.4258C133.056 53.6797 133.485 53.8066 134.12 53.8066C134.589 53.8066 135.004 53.7725 135.365 53.7041V56.9121C134.535 57.166 133.681 57.293 132.802 57.293C129.833 57.293 128.319 55.7939 128.261 52.7959V44.2559H125.946V41.1504H128.261V37.2539H132.494Z" fill="#141414"/>
</g>
<defs>
<filter id="filter0_d" x="0" y="0" width="190" height="97" filterUnits="userSpaceOnUse" color-interpolation-filters="sRGB">
<feFlood flood-opacity="0" result="BackgroundImageFix"/>
<feColorMatrix in="SourceAlpha" type="matrix" values="0 0 0 0 0 0 0 0 0 0 0 0 0 0 0 0 0 0 127 0"/>
<feOffset dx="2" dy="4"/>
<feGaussianBlur stdDeviation="2"/>
<feColorMatrix type="matrix" values="0 0 0 0 0 0 0 0 0 0 0 0 0 0 0 0 0 0 0.08 0"/>
<feBlend mode="normal" in2="BackgroundImageFix" result="effect1_dropShadow"/>
<feBlend mode="normal" in="SourceGraphic" in2="effect1_dropShadow" result="shape"/>
</filter>
<linearGradient id="paint0_linear" x1="93" y1="0" x2="93" y2="89" gradientUnits="userSpaceOnUse">
<stop stop-color="white" stop-opacity="0.25"/>
<stop offset="1" stop-color="white" stop-opacity="0"/>
</linearGradient>
</defs>
</svg>
