<svg width="73" height="97" viewBox="0 0 73 97" fill="none" xmlns="http://www.w3.org/2000/svg">
<rect x="0.5" y="0.5" width="24" height="24" fill="white" stroke="#141414"/>
<rect x="24.5" y="0.5" width="24" height="24" fill="#141414" stroke="#141414"/>
<rect x="48.5" y="0.5" width="24" height="24" fill="#141414" stroke="#141414"/>
<rect x="0.5" y="24.5" width="24" height="24" fill="#141414" stroke="#141414"/>
<rect x="24.5" y="24.5" width="24" height="24" fill="white" stroke="#141414"/>
<rect x="48.5" y="24.5" width="24" height="24" fill="#588ABE" stroke="#141414"/>
<rect x="0.5" y="48.5" width="24" height="24" fill="#141414" stroke="#141414"/>
<rect x="24.5" y="48.5" width="24" height="24" fill="#588ABE" stroke="#141414"/>
<rect x="48.5" y="48.5" width="24" height="24" fill="#588ABE" stroke="#141414"/>
<rect x="0.5" y="72.5" width="24" height="24" fill="#141414" stroke="#141414"/>
<rect x="24.5" y="72.5" width="24" height="24" fill="#588ABE" stroke="#141414"/>
<rect x="48.5" y="72.5" width="24" height="24" fill="white" stroke="#141414"/>
<path d="M37.748 16H36.0547V9.47266L34.0332 10.0996V8.72266L37.5664 7.45703H37.748V16Z" fill="white"/>
<path d="M13.748 40H12.0547V33.4727L10.0332 34.0996V32.7227L13.5664 31.457H13.748V40Z" fill="white"/>
<path d="M63.4824 16H57.6348V14.8398L60.3945 11.8984C60.7734 11.4844 61.0527 11.123 61.2324 10.8145C61.416 10.5059 61.5078 10.2129 61.5078 9.93555C61.5078 9.55664 61.4121 9.25977 61.2207 9.04492C61.0293 8.82617 60.7559 8.7168 60.4004 8.7168C60.0176 8.7168 59.7148 8.84961 59.4922 9.11523C59.2734 9.37695 59.1641 9.72266 59.1641 10.1523H57.4648C57.4648 9.63281 57.5879 9.1582 57.834 8.72852C58.084 8.29883 58.4355 7.96289 58.8887 7.7207C59.3418 7.47461 59.8555 7.35156 60.4297 7.35156C61.3086 7.35156 61.9902 7.5625 62.4746 7.98438C62.9629 8.40625 63.207 9.00195 63.207 9.77148C63.207 10.1934 63.0977 10.623 62.8789 11.0605C62.6602 11.498 62.2852 12.0078 61.7539 12.5898L59.8145 14.6348H63.4824V16Z" fill="white"/>
<path d="M15.4824 64H9.63477V62.8398L12.3945 59.8984C12.7734 59.4844 13.0527 59.123 13.2324 58.8145C13.416 58.5059 13.5078 58.2129 13.5078 57.9355C13.5078 57.5566 13.4121 57.2598 13.2207 57.0449C13.0293 56.8262 12.7559 56.7168 12.4004 56.7168C12.0176 56.7168 11.7148 56.8496 11.4922 57.1152C11.2734 57.377 11.1641 57.7227 11.1641 58.1523H9.46484C9.46484 57.6328 9.58789 57.1582 9.83398 56.7285C10.084 56.2988 10.4355 55.9629 10.8887 55.7207C11.3418 55.4746 11.8555 55.3516 12.4297 55.3516C13.3086 55.3516 13.9902 55.5625 14.4746 55.9844C14.9629 56.4062 15.207 57.002 15.207 57.7715C15.207 58.1934 15.0977 58.623 14.8789 59.0605C14.6602 59.498 14.2852 60.0078 13.7539 60.5898L11.8145 62.6348H15.4824V64Z" fill="white"/>
<path d="M11.3574 82.9844H12.2598C12.6895 82.9844 13.0078 82.877 13.2148 82.6621C13.4219 82.4473 13.5254 82.1621 13.5254 81.8066C13.5254 81.4629 13.4219 81.1953 13.2148 81.0039C13.0117 80.8125 12.7305 80.7168 12.3711 80.7168C12.0469 80.7168 11.7754 80.8066 11.5566 80.9863C11.3379 81.1621 11.2285 81.3926 11.2285 81.6777H9.53516C9.53516 81.2324 9.6543 80.834 9.89258 80.4824C10.1348 80.127 10.4707 79.8496 10.9004 79.6504C11.334 79.4512 11.8105 79.3516 12.3301 79.3516C13.2324 79.3516 13.9395 79.5684 14.4512 80.002C14.9629 80.4316 15.2188 81.0254 15.2188 81.7832C15.2188 82.1738 15.0996 82.5332 14.8613 82.8613C14.623 83.1895 14.3105 83.4414 13.9238 83.6172C14.4043 83.7891 14.7617 84.0469 14.9961 84.3906C15.2344 84.7344 15.3535 85.1406 15.3535 85.6094C15.3535 86.3672 15.0762 86.9746 14.5215 87.4316C13.9707 87.8887 13.2402 88.1172 12.3301 88.1172C11.4785 88.1172 10.7812 87.8926 10.2383 87.4434C9.69922 86.9941 9.42969 86.4004 9.42969 85.6621H11.123C11.123 85.9824 11.2422 86.2441 11.4805 86.4473C11.7227 86.6504 12.0195 86.752 12.3711 86.752C12.7734 86.752 13.0879 86.6465 13.3145 86.4355C13.5449 86.2207 13.6602 85.9375 13.6602 85.5859C13.6602 84.7344 13.1914 84.3086 12.2539 84.3086H11.3574V82.9844Z" fill="white"/>
</svg>
