<svg width="511" height="48" viewBox="0 0 511 48" fill="none" xmlns="http://www.w3.org/2000/svg">
<g filter="url(#filter0_d)">
<path d="M67.4961 16H64.4785V9.83789H58.8242V16H55.7969V1.72266H58.8242V7.31836H64.4785V1.72266H67.4961V16Z" fill="black" fill-opacity="0.75"/>
<path d="M75.3965 6.99609C74.765 6.99609 74.2702 7.19792 73.9121 7.60156C73.554 7.9987 73.349 8.5651 73.2969 9.30078H77.4766C77.4635 8.5651 77.2715 7.9987 76.9004 7.60156C76.5293 7.19792 76.028 6.99609 75.3965 6.99609ZM75.8164 16.1953C74.0586 16.1953 72.6849 15.7103 71.6953 14.7402C70.7057 13.7702 70.2109 12.3965 70.2109 10.6191C70.2109 8.78971 70.6667 7.37695 71.5781 6.38086C72.4961 5.37826 73.7624 4.87695 75.377 4.87695C76.9199 4.87695 78.1211 5.31641 78.9805 6.19531C79.8398 7.07422 80.2695 8.28841 80.2695 9.83789V11.2832H73.2285C73.2611 12.1296 73.5117 12.7904 73.9805 13.2656C74.4492 13.7409 75.1068 13.9785 75.9531 13.9785C76.6107 13.9785 77.2324 13.9102 77.8184 13.7734C78.4043 13.6367 79.0163 13.4186 79.6543 13.1191V15.4238C79.1335 15.6842 78.5768 15.8763 77.9844 16C77.3919 16.1302 76.6693 16.1953 75.8164 16.1953Z" fill="black" fill-opacity="0.75"/>
<path d="M86.1484 16.1953C84.8659 16.1953 83.8568 15.6973 83.1211 14.7012C82.3919 13.7051 82.0273 12.3249 82.0273 10.5605C82.0273 8.77018 82.3984 7.37695 83.1406 6.38086C83.8893 5.37826 84.918 4.87695 86.2266 4.87695C87.6003 4.87695 88.6484 5.41081 89.3711 6.47852H89.4688C89.319 5.66471 89.2441 4.9388 89.2441 4.30078V0.804688H92.2324V16H89.9473L89.3711 14.584H89.2441C88.5671 15.6582 87.5352 16.1953 86.1484 16.1953ZM87.1934 13.8223C87.9551 13.8223 88.5117 13.6009 88.8633 13.1582C89.2214 12.7155 89.4167 11.9635 89.4492 10.9023V10.5801C89.4492 9.4082 89.2669 8.56836 88.9023 8.06055C88.5443 7.55273 87.9583 7.29883 87.1445 7.29883C86.4805 7.29883 85.9629 7.58203 85.5918 8.14844C85.2272 8.70833 85.0449 9.52539 85.0449 10.5996C85.0449 11.6738 85.2305 12.4811 85.6016 13.0215C85.9727 13.5553 86.5033 13.8223 87.1934 13.8223Z" fill="black" fill-opacity="0.75"/>
<path d="M99.8691 6.99609C99.2376 6.99609 98.7428 7.19792 98.3848 7.60156C98.0267 7.9987 97.8216 8.5651 97.7695 9.30078H101.949C101.936 8.5651 101.744 7.9987 101.373 7.60156C101.002 7.19792 100.501 6.99609 99.8691 6.99609ZM100.289 16.1953C98.5312 16.1953 97.1576 15.7103 96.168 14.7402C95.1784 13.7702 94.6836 12.3965 94.6836 10.6191C94.6836 8.78971 95.1393 7.37695 96.0508 6.38086C96.9688 5.37826 98.235 4.87695 99.8496 4.87695C101.393 4.87695 102.594 5.31641 103.453 6.19531C104.312 7.07422 104.742 8.28841 104.742 9.83789V11.2832H97.7012C97.7337 12.1296 97.9844 12.7904 98.4531 13.2656C98.9219 13.7409 99.5794 13.9785 100.426 13.9785C101.083 13.9785 101.705 13.9102 102.291 13.7734C102.877 13.6367 103.489 13.4186 104.127 13.1191V15.4238C103.606 15.6842 103.049 15.8763 102.457 16C101.865 16.1302 101.142 16.1953 100.289 16.1953Z" fill="black" fill-opacity="0.75"/>
<path d="M113.199 7.31836H110.621V16H107.643V7.31836H106.002V5.88281L107.643 5.08203V4.28125C107.643 3.03776 107.949 2.12956 108.561 1.55664C109.173 0.983724 110.152 0.697266 111.5 0.697266C112.529 0.697266 113.443 0.85026 114.244 1.15625L113.482 3.34375C112.883 3.15495 112.33 3.06055 111.822 3.06055C111.399 3.06055 111.093 3.1875 110.904 3.44141C110.715 3.6888 110.621 4.00781 110.621 4.39844V5.08203H113.199V7.31836Z" fill="black" fill-opacity="0.75"/>
<path d="M119.439 6.99609C118.808 6.99609 118.313 7.19792 117.955 7.60156C117.597 7.9987 117.392 8.5651 117.34 9.30078H121.52C121.507 8.5651 121.314 7.9987 120.943 7.60156C120.572 7.19792 120.071 6.99609 119.439 6.99609ZM119.859 16.1953C118.102 16.1953 116.728 15.7103 115.738 14.7402C114.749 13.7702 114.254 12.3965 114.254 10.6191C114.254 8.78971 114.71 7.37695 115.621 6.38086C116.539 5.37826 117.805 4.87695 119.42 4.87695C120.963 4.87695 122.164 5.31641 123.023 6.19531C123.883 7.07422 124.312 8.28841 124.312 9.83789V11.2832H117.271C117.304 12.1296 117.555 12.7904 118.023 13.2656C118.492 13.7409 119.15 13.9785 119.996 13.9785C120.654 13.9785 121.275 13.9102 121.861 13.7734C122.447 13.6367 123.059 13.4186 123.697 13.1191V15.4238C123.176 15.6842 122.62 15.8763 122.027 16C121.435 16.1302 120.712 16.1953 119.859 16.1953Z" fill="black" fill-opacity="0.75"/>
<path d="M129.654 13.9004C129.316 15.2155 128.743 16.7747 127.936 18.5781H125.787C126.21 16.8464 126.539 15.2122 126.773 13.6758H129.508L129.654 13.9004Z" fill="black" fill-opacity="0.75"/>
<path d="M143.824 4.87695C144.228 4.87695 144.563 4.90625 144.83 4.96484L144.605 7.75781C144.365 7.69271 144.072 7.66016 143.727 7.66016C142.776 7.66016 142.034 7.9043 141.5 8.39258C140.973 8.88086 140.709 9.56445 140.709 10.4434V16H137.73V5.08203H139.986L140.426 6.91797H140.572C140.911 6.30599 141.367 5.81445 141.939 5.44336C142.519 5.06576 143.147 4.87695 143.824 4.87695Z" fill="black" fill-opacity="0.75"/>
<path d="M153.746 16L153.17 14.5156H153.092C152.59 15.1471 152.073 15.5866 151.539 15.834C151.012 16.0749 150.322 16.1953 149.469 16.1953C148.421 16.1953 147.594 15.8958 146.988 15.2969C146.389 14.6979 146.09 13.8451 146.09 12.7383C146.09 11.5794 146.493 10.7266 147.301 10.1797C148.115 9.6263 149.339 9.32031 150.973 9.26172L152.867 9.20312V8.72461C152.867 7.61784 152.301 7.06445 151.168 7.06445C150.296 7.06445 149.27 7.32812 148.092 7.85547L147.105 5.84375C148.362 5.1862 149.755 4.85742 151.285 4.85742C152.75 4.85742 153.873 5.17643 154.654 5.81445C155.436 6.45247 155.826 7.42253 155.826 8.72461V16H153.746ZM152.867 10.9414L151.715 10.9805C150.849 11.0065 150.204 11.1628 149.781 11.4492C149.358 11.7357 149.146 12.1719 149.146 12.7578C149.146 13.5977 149.628 14.0176 150.592 14.0176C151.282 14.0176 151.832 13.819 152.242 13.4219C152.659 13.0247 152.867 12.4974 152.867 11.8398V10.9414Z" fill="black" fill-opacity="0.75"/>
<path d="M161.764 10.0625L163.062 8.40234L166.119 5.08203H169.479L165.143 9.81836L169.742 16H166.305L163.16 11.5762L161.881 12.6016V16H158.902V0.804688H161.881V7.58203L161.725 10.0625H161.764Z" fill="black" fill-opacity="0.75"/>
<path d="M171.178 2.25977C171.178 1.28971 171.718 0.804688 172.799 0.804688C173.88 0.804688 174.42 1.28971 174.42 2.25977C174.42 2.72201 174.283 3.08333 174.01 3.34375C173.743 3.59766 173.339 3.72461 172.799 3.72461C171.718 3.72461 171.178 3.23633 171.178 2.25977ZM174.283 16H171.305V5.08203H174.283V16Z" fill="black" fill-opacity="0.75"/>
<path d="M183.492 4.87695C184.781 4.87695 185.79 5.38151 186.52 6.39062C187.249 7.39323 187.613 8.77018 187.613 10.5215C187.613 12.3249 187.236 13.7214 186.48 14.7109C185.732 15.7005 184.71 16.1953 183.414 16.1953C182.132 16.1953 181.126 15.7298 180.396 14.7988H180.191L179.693 16H177.418V0.804688H180.396V4.33984C180.396 4.78906 180.357 5.50846 180.279 6.49805H180.396C181.093 5.41732 182.125 4.87695 183.492 4.87695ZM182.535 7.25977C181.799 7.25977 181.262 7.48763 180.924 7.94336C180.585 8.39258 180.41 9.13802 180.396 10.1797V10.502C180.396 11.6738 180.569 12.5137 180.914 13.0215C181.266 13.5293 181.819 13.7832 182.574 13.7832C183.186 13.7832 183.671 13.5033 184.029 12.9434C184.394 12.377 184.576 11.5566 184.576 10.4824C184.576 9.4082 184.394 8.60417 184.029 8.07031C183.665 7.52995 183.167 7.25977 182.535 7.25977Z" fill="black" fill-opacity="0.75"/>
<path d="M189.947 2.25977C189.947 1.28971 190.488 0.804688 191.568 0.804688C192.649 0.804688 193.189 1.28971 193.189 2.25977C193.189 2.72201 193.053 3.08333 192.779 3.34375C192.512 3.59766 192.109 3.72461 191.568 3.72461C190.488 3.72461 189.947 3.23633 189.947 2.25977ZM193.053 16H190.074V5.08203H193.053V16Z" fill="black" fill-opacity="0.75"/>
<path d="M206.266 16H203.287V9.62305C203.287 8.83529 203.147 8.24609 202.867 7.85547C202.587 7.45833 202.141 7.25977 201.529 7.25977C200.696 7.25977 200.094 7.53971 199.723 8.09961C199.352 8.65299 199.166 9.57422 199.166 10.8633V16H196.188V5.08203H198.463L198.863 6.47852H199.029C199.361 5.95117 199.817 5.55404 200.396 5.28711C200.982 5.01367 201.646 4.87695 202.389 4.87695C203.658 4.87695 204.622 5.22201 205.279 5.91211C205.937 6.5957 206.266 7.58529 206.266 8.88086V16Z" fill="black" fill-opacity="0.75"/>
<path d="M212.789 16.1953C211.507 16.1953 210.497 15.6973 209.762 14.7012C209.033 13.7051 208.668 12.3249 208.668 10.5605C208.668 8.77018 209.039 7.37695 209.781 6.38086C210.53 5.37826 211.559 4.87695 212.867 4.87695C214.241 4.87695 215.289 5.41081 216.012 6.47852H216.109C215.96 5.66471 215.885 4.9388 215.885 4.30078V0.804688H218.873V16H216.588L216.012 14.584H215.885C215.208 15.6582 214.176 16.1953 212.789 16.1953ZM213.834 13.8223C214.596 13.8223 215.152 13.6009 215.504 13.1582C215.862 12.7155 216.057 11.9635 216.09 10.9023V10.5801C216.09 9.4082 215.908 8.56836 215.543 8.06055C215.185 7.55273 214.599 7.29883 213.785 7.29883C213.121 7.29883 212.604 7.58203 212.232 8.14844C211.868 8.70833 211.686 9.52539 211.686 10.5996C211.686 11.6738 211.871 12.4811 212.242 13.0215C212.613 13.5553 213.144 13.8223 213.834 13.8223Z" fill="black" fill-opacity="0.75"/>
<path d="M226.51 6.99609C225.878 6.99609 225.383 7.19792 225.025 7.60156C224.667 7.9987 224.462 8.5651 224.41 9.30078H228.59C228.577 8.5651 228.385 7.9987 228.014 7.60156C227.643 7.19792 227.141 6.99609 226.51 6.99609ZM226.93 16.1953C225.172 16.1953 223.798 15.7103 222.809 14.7402C221.819 13.7702 221.324 12.3965 221.324 10.6191C221.324 8.78971 221.78 7.37695 222.691 6.38086C223.609 5.37826 224.876 4.87695 226.49 4.87695C228.033 4.87695 229.234 5.31641 230.094 6.19531C230.953 7.07422 231.383 8.28841 231.383 9.83789V11.2832H224.342C224.374 12.1296 224.625 12.7904 225.094 13.2656C225.562 13.7409 226.22 13.9785 227.066 13.9785C227.724 13.9785 228.346 13.9102 228.932 13.7734C229.518 13.6367 230.13 13.4186 230.768 13.1191V15.4238C230.247 15.6842 229.69 15.8763 229.098 16C228.505 16.1302 227.783 16.1953 226.93 16.1953Z" fill="black" fill-opacity="0.75"/>
<path d="M243.883 16H240.904V9.62305C240.904 8.83529 240.764 8.24609 240.484 7.85547C240.204 7.45833 239.758 7.25977 239.146 7.25977C238.313 7.25977 237.711 7.53971 237.34 8.09961C236.969 8.65299 236.783 9.57422 236.783 10.8633V16H233.805V5.08203H236.08L236.48 6.47852H236.646C236.979 5.95117 237.434 5.55404 238.014 5.28711C238.6 5.01367 239.264 4.87695 240.006 4.87695C241.275 4.87695 242.239 5.22201 242.896 5.91211C243.554 6.5957 243.883 7.58529 243.883 8.88086V16Z" fill="black" fill-opacity="0.75"/>
<path d="M254.518 10.5215C254.518 11.6022 254.693 12.4193 255.045 12.9727C255.403 13.526 255.982 13.8027 256.783 13.8027C257.577 13.8027 258.147 13.5293 258.492 12.9824C258.844 12.429 259.02 11.6087 259.02 10.5215C259.02 9.44076 258.844 8.63021 258.492 8.08984C258.141 7.54948 257.564 7.2793 256.764 7.2793C255.969 7.2793 255.396 7.54948 255.045 8.08984C254.693 8.6237 254.518 9.43424 254.518 10.5215ZM262.066 10.5215C262.066 12.2988 261.598 13.6888 260.66 14.6914C259.723 15.694 258.417 16.1953 256.744 16.1953C255.696 16.1953 254.771 15.9674 253.971 15.5117C253.17 15.0495 252.555 14.3887 252.125 13.5293C251.695 12.6699 251.48 11.6673 251.48 10.5215C251.48 8.73763 251.946 7.35091 252.877 6.36133C253.808 5.37174 255.117 4.87695 256.803 4.87695C257.851 4.87695 258.775 5.10482 259.576 5.56055C260.377 6.01628 260.992 6.67057 261.422 7.52344C261.852 8.3763 262.066 9.37565 262.066 10.5215ZM253.424 2.2793C253.424 1.85612 253.544 1.5306 253.785 1.30273C254.033 1.07487 254.365 0.960938 254.781 0.960938C255.211 0.960938 255.546 1.08138 255.787 1.32227C256.035 1.56315 256.158 1.88216 256.158 2.2793C256.158 2.66992 256.035 2.98568 255.787 3.22656C255.54 3.46094 255.204 3.57812 254.781 3.57812C254.365 3.57812 254.033 3.46419 253.785 3.23633C253.544 3.00846 253.424 2.68945 253.424 2.2793ZM257.359 2.2793C257.359 1.82357 257.49 1.49154 257.75 1.2832C258.017 1.06836 258.346 0.960938 258.736 0.960938C259.16 0.960938 259.495 1.07812 259.742 1.3125C259.996 1.54688 260.123 1.86914 260.123 2.2793C260.123 2.67643 259.996 2.99219 259.742 3.22656C259.488 3.46094 259.153 3.57812 258.736 3.57812C258.346 3.57812 258.017 3.47396 257.75 3.26562C257.49 3.05078 257.359 2.72201 257.359 2.2793Z" fill="black" fill-opacity="0.75"/>
<path d="M274.605 16H271.627V9.62305C271.627 8.83529 271.487 8.24609 271.207 7.85547C270.927 7.45833 270.481 7.25977 269.869 7.25977C269.036 7.25977 268.434 7.53971 268.062 8.09961C267.691 8.65299 267.506 9.57422 267.506 10.8633V16H264.527V5.08203H266.803L267.203 6.47852H267.369C267.701 5.95117 268.157 5.55404 268.736 5.28711C269.322 5.01367 269.986 4.87695 270.729 4.87695C271.998 4.87695 272.962 5.22201 273.619 5.91211C274.277 6.5957 274.605 7.58529 274.605 8.88086V16Z" fill="black" fill-opacity="0.75"/>
<path d="M282.105 16.1953C278.707 16.1953 277.008 14.3301 277.008 10.5996C277.008 8.74414 277.47 7.32812 278.395 6.35156C279.319 5.36849 280.644 4.87695 282.369 4.87695C283.632 4.87695 284.765 5.12435 285.768 5.61914L284.889 7.92383C284.42 7.73503 283.984 7.58203 283.58 7.46484C283.176 7.34115 282.773 7.2793 282.369 7.2793C280.82 7.2793 280.045 8.37956 280.045 10.5801C280.045 12.7155 280.82 13.7832 282.369 13.7832C282.942 13.7832 283.473 13.7083 283.961 13.5586C284.449 13.4023 284.938 13.1615 285.426 12.8359V15.3848C284.944 15.6908 284.456 15.9023 283.961 16.0195C283.473 16.1367 282.854 16.1953 282.105 16.1953Z" fill="black" fill-opacity="0.75"/>
<path d="M292.486 6.99609C291.855 6.99609 291.36 7.19792 291.002 7.60156C290.644 7.9987 290.439 8.5651 290.387 9.30078H294.566C294.553 8.5651 294.361 7.9987 293.99 7.60156C293.619 7.19792 293.118 6.99609 292.486 6.99609ZM292.906 16.1953C291.148 16.1953 289.775 15.7103 288.785 14.7402C287.796 13.7702 287.301 12.3965 287.301 10.6191C287.301 8.78971 287.757 7.37695 288.668 6.38086C289.586 5.37826 290.852 4.87695 292.467 4.87695C294.01 4.87695 295.211 5.31641 296.07 6.19531C296.93 7.07422 297.359 8.28841 297.359 9.83789V11.2832H290.318C290.351 12.1296 290.602 12.7904 291.07 13.2656C291.539 13.7409 292.197 13.9785 293.043 13.9785C293.701 13.9785 294.322 13.9102 294.908 13.7734C295.494 13.6367 296.106 13.4186 296.744 13.1191V15.4238C296.223 15.6842 295.667 15.8763 295.074 16C294.482 16.1302 293.759 16.1953 292.906 16.1953Z" fill="black" fill-opacity="0.75"/>
<path d="M312.711 16L312.311 14.6035H312.154C311.835 15.1113 311.383 15.5052 310.797 15.7852C310.211 16.0586 309.544 16.1953 308.795 16.1953C307.512 16.1953 306.546 15.8535 305.895 15.1699C305.243 14.4798 304.918 13.4902 304.918 12.2012V5.08203H307.896V11.459C307.896 12.2467 308.036 12.8392 308.316 13.2363C308.596 13.627 309.042 13.8223 309.654 13.8223C310.488 13.8223 311.09 13.5456 311.461 12.9922C311.832 12.4323 312.018 11.5078 312.018 10.2188V5.08203H314.996V16H312.711Z" fill="black" fill-opacity="0.75"/>
<path d="M321.1 16H318.121V0.804688H321.1V16Z" fill="black" fill-opacity="0.75"/>
<path d="M331.168 16L330.592 14.5156H330.514C330.012 15.1471 329.495 15.5866 328.961 15.834C328.434 16.0749 327.743 16.1953 326.891 16.1953C325.842 16.1953 325.016 15.8958 324.41 15.2969C323.811 14.6979 323.512 13.8451 323.512 12.7383C323.512 11.5794 323.915 10.7266 324.723 10.1797C325.536 9.6263 326.76 9.32031 328.395 9.26172L330.289 9.20312V8.72461C330.289 7.61784 329.723 7.06445 328.59 7.06445C327.717 7.06445 326.692 7.32812 325.514 7.85547L324.527 5.84375C325.784 5.1862 327.177 4.85742 328.707 4.85742C330.172 4.85742 331.295 5.17643 332.076 5.81445C332.857 6.45247 333.248 7.42253 333.248 8.72461V16H331.168ZM330.289 10.9414L329.137 10.9805C328.271 11.0065 327.626 11.1628 327.203 11.4492C326.78 11.7357 326.568 12.1719 326.568 12.7578C326.568 13.5977 327.05 14.0176 328.014 14.0176C328.704 14.0176 329.254 13.819 329.664 13.4219C330.081 13.0247 330.289 12.4974 330.289 11.8398V10.9414Z" fill="black" fill-opacity="0.75"/>
<path d="M343.941 12.7578C343.941 13.8776 343.551 14.7305 342.77 15.3164C341.995 15.9023 340.833 16.1953 339.283 16.1953C338.489 16.1953 337.812 16.14 337.252 16.0293C336.692 15.9251 336.168 15.7689 335.68 15.5605V13.0996C336.233 13.36 336.855 13.5781 337.545 13.7539C338.242 13.9297 338.854 14.0176 339.381 14.0176C340.462 14.0176 341.002 13.7051 341.002 13.0801C341.002 12.8457 340.93 12.6569 340.787 12.5137C340.644 12.3639 340.396 12.1979 340.045 12.0156C339.693 11.8268 339.225 11.6087 338.639 11.3613C337.799 11.0098 337.18 10.6842 336.783 10.3848C336.393 10.0853 336.106 9.74349 335.924 9.35938C335.748 8.96875 335.66 8.49023 335.66 7.92383C335.66 6.95378 336.035 6.20508 336.783 5.67773C337.538 5.14388 338.606 4.87695 339.986 4.87695C341.301 4.87695 342.581 5.16341 343.824 5.73633L342.926 7.88477C342.379 7.65039 341.868 7.45833 341.393 7.30859C340.917 7.15885 340.432 7.08398 339.938 7.08398C339.059 7.08398 338.619 7.32161 338.619 7.79688C338.619 8.0638 338.759 8.29492 339.039 8.49023C339.326 8.68555 339.947 8.97526 340.904 9.35938C341.757 9.70443 342.382 10.0267 342.779 10.3262C343.176 10.6257 343.469 10.9707 343.658 11.3613C343.847 11.752 343.941 12.2174 343.941 12.7578ZM341.783 18.4414C341.783 19.2747 341.536 19.877 341.041 20.248C340.553 20.6191 339.794 20.8047 338.766 20.8047C338.258 20.8047 337.783 20.7363 337.34 20.5996V18.959C337.516 19.0046 337.75 19.0501 338.043 19.0957C338.342 19.1413 338.574 19.1641 338.736 19.1641C339.205 19.1641 339.439 18.9622 339.439 18.5586C339.439 18.0182 338.899 17.6667 337.818 17.5039L338.58 16H340.465L340.201 16.5957C340.683 16.752 341.067 16.9928 341.354 17.3184C341.64 17.6504 341.783 18.0247 341.783 18.4414Z" fill="black" fill-opacity="0.75"/>
<path d="M356.041 16H353.062V9.62305C353.062 8.83529 352.929 8.24609 352.662 7.85547C352.402 7.45833 351.988 7.25977 351.422 7.25977C350.66 7.25977 350.107 7.53971 349.762 8.09961C349.417 8.65951 349.244 9.58073 349.244 10.8633V16H346.266V5.08203H348.541L348.941 6.47852H349.107C349.4 5.97721 349.824 5.58659 350.377 5.30664C350.93 5.02018 351.565 4.87695 352.281 4.87695C353.915 4.87695 355.022 5.41081 355.602 6.47852H355.865C356.158 5.9707 356.588 5.57682 357.154 5.29688C357.727 5.01693 358.372 4.87695 359.088 4.87695C360.325 4.87695 361.259 5.19596 361.891 5.83398C362.529 6.46549 362.848 7.48112 362.848 8.88086V16H359.859V9.62305C359.859 8.83529 359.726 8.24609 359.459 7.85547C359.199 7.45833 358.785 7.25977 358.219 7.25977C357.49 7.25977 356.943 7.52018 356.578 8.04102C356.22 8.56185 356.041 9.38867 356.041 10.5215V16Z" fill="black" fill-opacity="0.75"/>
<path d="M372.848 16L372.271 14.5156H372.193C371.692 15.1471 371.174 15.5866 370.641 15.834C370.113 16.0749 369.423 16.1953 368.57 16.1953C367.522 16.1953 366.695 15.8958 366.09 15.2969C365.491 14.6979 365.191 13.8451 365.191 12.7383C365.191 11.5794 365.595 10.7266 366.402 10.1797C367.216 9.6263 368.44 9.32031 370.074 9.26172L371.969 9.20312V8.72461C371.969 7.61784 371.402 7.06445 370.27 7.06445C369.397 7.06445 368.372 7.32812 367.193 7.85547L366.207 5.84375C367.464 5.1862 368.857 4.85742 370.387 4.85742C371.852 4.85742 372.975 5.17643 373.756 5.81445C374.537 6.45247 374.928 7.42253 374.928 8.72461V16H372.848ZM371.969 10.9414L370.816 10.9805C369.951 11.0065 369.306 11.1628 368.883 11.4492C368.46 11.7357 368.248 12.1719 368.248 12.7578C368.248 13.5977 368.73 14.0176 369.693 14.0176C370.383 14.0176 370.934 13.819 371.344 13.4219C371.76 13.0247 371.969 12.4974 371.969 11.8398V10.9414Z" fill="black" fill-opacity="0.75"/>
<path d="M376.441 5.08203H379.703L381.764 11.2246C381.939 11.7585 382.06 12.39 382.125 13.1191H382.184C382.255 12.4486 382.395 11.8171 382.604 11.2246L384.625 5.08203H387.818L383.199 17.3965C382.776 18.5358 382.171 19.3887 381.383 19.9551C380.602 20.5215 379.687 20.8047 378.639 20.8047C378.124 20.8047 377.62 20.7493 377.125 20.6387V18.2754C377.483 18.36 377.874 18.4023 378.297 18.4023C378.824 18.4023 379.283 18.2396 379.674 17.9141C380.071 17.5951 380.38 17.11 380.602 16.459L380.777 15.9219L376.441 5.08203Z" fill="black" fill-opacity="0.75"/>
<path d="M396.324 16L395.748 14.5156H395.67C395.169 15.1471 394.651 15.5866 394.117 15.834C393.59 16.0749 392.9 16.1953 392.047 16.1953C390.999 16.1953 390.172 15.8958 389.566 15.2969C388.967 14.6979 388.668 13.8451 388.668 12.7383C388.668 11.5794 389.072 10.7266 389.879 10.1797C390.693 9.6263 391.917 9.32031 393.551 9.26172L395.445 9.20312V8.72461C395.445 7.61784 394.879 7.06445 393.746 7.06445C392.874 7.06445 391.848 7.32812 390.67 7.85547L389.684 5.84375C390.94 5.1862 392.333 4.85742 393.863 4.85742C395.328 4.85742 396.451 5.17643 397.232 5.81445C398.014 6.45247 398.404 7.42253 398.404 8.72461V16H396.324ZM395.445 10.9414L394.293 10.9805C393.427 11.0065 392.783 11.1628 392.359 11.4492C391.936 11.7357 391.725 12.1719 391.725 12.7578C391.725 13.5977 392.206 14.0176 393.17 14.0176C393.86 14.0176 394.41 13.819 394.82 13.4219C395.237 13.0247 395.445 12.4974 395.445 11.8398V10.9414Z" fill="black" fill-opacity="0.75"/>
<path d="M411.109 16.1953C407.711 16.1953 406.012 14.3301 406.012 10.5996C406.012 8.74414 406.474 7.32812 407.398 6.35156C408.323 5.36849 409.648 4.87695 411.373 4.87695C412.636 4.87695 413.769 5.12435 414.771 5.61914L413.893 7.92383C413.424 7.73503 412.988 7.58203 412.584 7.46484C412.18 7.34115 411.777 7.2793 411.373 7.2793C409.824 7.2793 409.049 8.37956 409.049 10.5801C409.049 12.7155 409.824 13.7832 411.373 13.7832C411.946 13.7832 412.477 13.7083 412.965 13.5586C413.453 13.4023 413.941 13.1615 414.43 12.8359V15.3848C413.948 15.6908 413.46 15.9023 412.965 16.0195C412.477 16.1367 411.858 16.1953 411.109 16.1953ZM412.975 18.4414C412.975 19.2747 412.727 19.877 412.232 20.248C411.744 20.6191 410.986 20.8047 409.957 20.8047C409.449 20.8047 408.974 20.7363 408.531 20.5996V18.959C408.707 19.0046 408.941 19.0501 409.234 19.0957C409.534 19.1413 409.765 19.1641 409.928 19.1641C410.396 19.1641 410.631 18.9622 410.631 18.5586C410.631 18.0182 410.09 17.6667 409.01 17.5039L409.771 16H411.656L411.393 16.5957C411.874 16.752 412.258 16.9928 412.545 17.3184C412.831 17.6504 412.975 18.0247 412.975 18.4414Z" fill="black" fill-opacity="0.75"/>
<path d="M423.902 16L423.326 14.5156H423.248C422.747 15.1471 422.229 15.5866 421.695 15.834C421.168 16.0749 420.478 16.1953 419.625 16.1953C418.577 16.1953 417.75 15.8958 417.145 15.2969C416.546 14.6979 416.246 13.8451 416.246 12.7383C416.246 11.5794 416.65 10.7266 417.457 10.1797C418.271 9.6263 419.495 9.32031 421.129 9.26172L423.023 9.20312V8.72461C423.023 7.61784 422.457 7.06445 421.324 7.06445C420.452 7.06445 419.426 7.32812 418.248 7.85547L417.262 5.84375C418.518 5.1862 419.911 4.85742 421.441 4.85742C422.906 4.85742 424.029 5.17643 424.811 5.81445C425.592 6.45247 425.982 7.42253 425.982 8.72461V16H423.902ZM423.023 10.9414L421.871 10.9805C421.005 11.0065 420.361 11.1628 419.938 11.4492C419.514 11.7357 419.303 12.1719 419.303 12.7578C419.303 13.5977 419.785 14.0176 420.748 14.0176C421.438 14.0176 421.988 13.819 422.398 13.4219C422.815 13.0247 423.023 12.4974 423.023 11.8398V10.9414Z" fill="black" fill-opacity="0.75"/>
<path d="M432.037 16H429.059V0.804688H432.037V16Z" fill="black" fill-opacity="0.75"/>
<path d="M438.15 16H435.172V5.08203H438.15V16Z" fill="black" fill-opacity="0.75"/>
<path d="M448.902 12.7578C448.902 13.8776 448.512 14.7305 447.73 15.3164C446.956 15.9023 445.794 16.1953 444.244 16.1953C443.45 16.1953 442.773 16.14 442.213 16.0293C441.653 15.9251 441.129 15.7689 440.641 15.5605V13.0996C441.194 13.36 441.816 13.5781 442.506 13.7539C443.202 13.9297 443.814 14.0176 444.342 14.0176C445.423 14.0176 445.963 13.7051 445.963 13.0801C445.963 12.8457 445.891 12.6569 445.748 12.5137C445.605 12.3639 445.357 12.1979 445.006 12.0156C444.654 11.8268 444.186 11.6087 443.6 11.3613C442.76 11.0098 442.141 10.6842 441.744 10.3848C441.354 10.0853 441.067 9.74349 440.885 9.35938C440.709 8.96875 440.621 8.49023 440.621 7.92383C440.621 6.95378 440.995 6.20508 441.744 5.67773C442.499 5.14388 443.567 4.87695 444.947 4.87695C446.262 4.87695 447.542 5.16341 448.785 5.73633L447.887 7.88477C447.34 7.65039 446.829 7.45833 446.354 7.30859C445.878 7.15885 445.393 7.08398 444.898 7.08398C444.02 7.08398 443.58 7.32161 443.58 7.79688C443.58 8.0638 443.72 8.29492 444 8.49023C444.286 8.68555 444.908 8.97526 445.865 9.35938C446.718 9.70443 447.343 10.0267 447.74 10.3262C448.137 10.6257 448.43 10.9707 448.619 11.3613C448.808 11.752 448.902 12.2174 448.902 12.7578ZM446.744 18.4414C446.744 19.2747 446.497 19.877 446.002 20.248C445.514 20.6191 444.755 20.8047 443.727 20.8047C443.219 20.8047 442.743 20.7363 442.301 20.5996V18.959C442.477 19.0046 442.711 19.0501 443.004 19.0957C443.303 19.1413 443.535 19.1641 443.697 19.1641C444.166 19.1641 444.4 18.9622 444.4 18.5586C444.4 18.0182 443.86 17.6667 442.779 17.5039L443.541 16H445.426L445.162 16.5957C445.644 16.752 446.028 16.9928 446.314 17.3184C446.601 17.6504 446.744 18.0247 446.744 18.4414Z" fill="black" fill-opacity="0.75"/>
<path d="M450.807 14.6035C450.807 14.0566 450.953 13.6432 451.246 13.3633C451.539 13.0833 451.965 12.9434 452.525 12.9434C453.066 12.9434 453.482 13.0866 453.775 13.373C454.075 13.6595 454.225 14.0697 454.225 14.6035C454.225 15.1178 454.075 15.5247 453.775 15.8242C453.476 16.1172 453.059 16.2637 452.525 16.2637C451.979 16.2637 451.555 16.1204 451.256 15.834C450.956 15.541 450.807 15.1309 450.807 14.6035Z" fill="black" fill-opacity="0.75"/>
</g>
<g opacity="0.9">
<path d="M9.01953 39.2012C9.01953 40.4577 8.5638 41.4375 7.65234 42.1406C6.74089 42.8438 5.50391 43.1953 3.94141 43.1953C2.2487 43.1953 0.946615 42.9772 0.0351562 42.541V40.9395C0.621094 41.1868 1.25911 41.3822 1.94922 41.5254C2.63932 41.6686 3.32292 41.7402 4 41.7402C5.10677 41.7402 5.9401 41.5319 6.5 41.1152C7.0599 40.6921 7.33984 40.1061 7.33984 39.3574C7.33984 38.8626 7.23893 38.459 7.03711 38.1465C6.8418 37.8275 6.50977 37.5345 6.04102 37.2676C5.57878 37.0007 4.8724 36.6979 3.92188 36.3594C2.59375 35.8841 1.64323 35.321 1.07031 34.6699C0.503906 34.0189 0.220703 33.1693 0.220703 32.1211C0.220703 31.0208 0.634115 30.1452 1.46094 29.4941C2.28776 28.8431 3.38151 28.5176 4.74219 28.5176C6.16146 28.5176 7.4668 28.778 8.6582 29.2988L8.14062 30.7441C6.96224 30.2493 5.81641 30.002 4.70312 30.002C3.82422 30.002 3.13737 30.1908 2.64258 30.5684C2.14779 30.946 1.90039 31.4701 1.90039 32.1406C1.90039 32.6354 1.99154 33.0423 2.17383 33.3613C2.35612 33.6738 2.66211 33.9635 3.0918 34.2305C3.52799 34.4909 4.19206 34.7806 5.08398 35.0996C6.58138 35.6335 7.61003 36.2064 8.16992 36.8184C8.73633 37.4303 9.01953 38.2246 9.01953 39.2012Z" fill="black" fill-opacity="0.75"/>
<path d="M20.9336 37.6387C20.9336 39.3835 20.4941 40.7474 19.6152 41.7305C18.7363 42.707 17.5221 43.1953 15.9727 43.1953C15.0156 43.1953 14.166 42.9707 13.4238 42.5215C12.6816 42.0723 12.1087 41.4277 11.7051 40.5879C11.3014 39.748 11.0996 38.765 11.0996 37.6387C11.0996 35.8939 11.5358 34.5365 12.4082 33.5664C13.2806 32.5898 14.4915 32.1016 16.041 32.1016C17.5384 32.1016 18.7266 32.5996 19.6055 33.5957C20.4909 34.5918 20.9336 35.9395 20.9336 37.6387ZM12.7793 37.6387C12.7793 39.0059 13.0527 40.0475 13.5996 40.7637C14.1465 41.4798 14.9505 41.8379 16.0117 41.8379C17.0729 41.8379 17.877 41.4831 18.4238 40.7734C18.9772 40.0573 19.2539 39.0124 19.2539 37.6387C19.2539 36.278 18.9772 35.2461 18.4238 34.543C17.877 33.8333 17.0664 33.4785 15.9922 33.4785C14.931 33.4785 14.1302 33.8268 13.5898 34.5234C13.0495 35.2201 12.7793 36.2585 12.7793 37.6387Z" fill="black" fill-opacity="0.75"/>
<path d="M28.668 32.1016C29.1432 32.1016 29.5697 32.1406 29.9473 32.2188L29.7227 33.7227C29.2799 33.625 28.8893 33.5762 28.5508 33.5762C27.6849 33.5762 26.9427 33.9277 26.3242 34.6309C25.7122 35.334 25.4062 36.2096 25.4062 37.2578V43H23.7852V32.2969H25.123L25.3086 34.2793H25.3867C25.7839 33.5827 26.2624 33.0456 26.8223 32.668C27.3822 32.2904 27.9974 32.1016 28.668 32.1016Z" fill="black" fill-opacity="0.75"/>
<path d="M33.4727 32.2969V39.2402C33.4727 40.1126 33.6712 40.7637 34.0684 41.1934C34.4655 41.623 35.0872 41.8379 35.9336 41.8379C37.0534 41.8379 37.8704 41.5319 38.3848 40.9199C38.9056 40.3079 39.166 39.3086 39.166 37.9219V32.2969H40.7871V43H39.4492L39.2148 41.5645H39.127C38.7949 42.0918 38.3327 42.4954 37.7402 42.7754C37.1543 43.0553 36.4837 43.1953 35.7285 43.1953C34.4264 43.1953 33.4499 42.8861 32.7988 42.2676C32.1543 41.6491 31.832 40.6595 31.832 39.2988V32.2969H33.4727Z" fill="black" fill-opacity="0.75"/>
<path d="M45.8555 43H44.2344V27.8047H45.8555V43Z" fill="black" fill-opacity="0.75"/>
<path d="M55.875 43L55.5527 41.4766H55.4746C54.9408 42.1471 54.4069 42.6029 53.873 42.8438C53.3457 43.0781 52.6849 43.1953 51.8906 43.1953C50.8294 43.1953 49.9961 42.9219 49.3906 42.375C48.7917 41.8281 48.4922 41.0501 48.4922 40.041C48.4922 37.8796 50.2207 36.7467 53.6777 36.6426L55.4941 36.584V35.9199C55.4941 35.0801 55.3118 34.4616 54.9473 34.0645C54.5892 33.6608 54.013 33.459 53.2188 33.459C52.3268 33.459 51.3177 33.7324 50.1914 34.2793L49.6934 33.0391C50.2207 32.7526 50.7969 32.528 51.4219 32.3652C52.0534 32.2025 52.6849 32.1211 53.3164 32.1211C54.5924 32.1211 55.5365 32.4043 56.1484 32.9707C56.7669 33.5371 57.0762 34.4453 57.0762 35.6953V43H55.875ZM52.2129 41.8574C53.222 41.8574 54.013 41.5807 54.5859 41.0273C55.1654 40.474 55.4551 39.6992 55.4551 38.7031V37.7363L53.834 37.8047C52.5449 37.8503 51.6139 38.0521 51.041 38.4102C50.4746 38.7617 50.1914 39.3118 50.1914 40.0605C50.1914 40.6465 50.3672 41.0924 50.7188 41.3984C51.0768 41.7044 51.5749 41.8574 52.2129 41.8574Z" fill="black" fill-opacity="0.75"/>
<path d="M65.3086 32.1016C65.7839 32.1016 66.2103 32.1406 66.5879 32.2188L66.3633 33.7227C65.9206 33.625 65.5299 33.5762 65.1914 33.5762C64.3255 33.5762 63.5833 33.9277 62.9648 34.6309C62.3529 35.334 62.0469 36.2096 62.0469 37.2578V43H60.4258V32.2969H61.7637L61.9492 34.2793H62.0273C62.4245 33.5827 62.903 33.0456 63.4629 32.668C64.0228 32.2904 64.638 32.1016 65.3086 32.1016Z" fill="black" fill-opacity="0.75"/>
<path d="M70.2109 43H68.5898V32.2969H70.2109V43Z" fill="black" fill-opacity="0.75"/>
<path d="M86.168 43V36.0762C86.168 35.2038 85.9694 34.5527 85.5723 34.123C85.1751 33.6934 84.5534 33.4785 83.707 33.4785C82.5872 33.4785 81.7669 33.7812 81.2461 34.3867C80.7253 34.9922 80.4648 35.9915 80.4648 37.3848V43H78.8438V32.2969H80.1621L80.4258 33.7617H80.5039C80.8359 33.2344 81.3014 32.8275 81.9004 32.541C82.4993 32.248 83.1667 32.1016 83.9023 32.1016C85.1914 32.1016 86.1615 32.4141 86.8125 33.0391C87.4635 33.6576 87.7891 34.6504 87.7891 36.0176V43H86.168Z" fill="black" fill-opacity="0.75"/>
<path d="M95.6504 43.1953C94.0684 43.1953 92.8184 42.7135 91.9004 41.75C90.9889 40.7865 90.5332 39.4486 90.5332 37.7363C90.5332 36.0111 90.9564 34.6406 91.8027 33.625C92.6556 32.6094 93.7982 32.1016 95.2305 32.1016C96.5716 32.1016 97.6328 32.5443 98.4141 33.4297C99.1953 34.3086 99.5859 35.4707 99.5859 36.916V37.9414H92.2129C92.2454 39.1979 92.5612 40.1517 93.1602 40.8027C93.7656 41.4538 94.6152 41.7793 95.709 41.7793C96.8613 41.7793 98.0007 41.5384 99.127 41.0566V42.502C98.554 42.7493 98.0104 42.9251 97.4961 43.0293C96.9883 43.14 96.373 43.1953 95.6504 43.1953ZM95.2109 33.459C94.3516 33.459 93.6647 33.7389 93.1504 34.2988C92.6426 34.8587 92.3431 35.6335 92.252 36.623H97.8477C97.8477 35.6009 97.6198 34.8197 97.1641 34.2793C96.7083 33.7324 96.0573 33.459 95.2109 33.459Z" fill="black" fill-opacity="0.75"/>
<path d="M109.156 37.5215C109.436 37.1243 109.863 36.6035 110.436 35.959L113.893 32.2969H115.816L111.48 36.8574L116.119 43H114.156L110.377 37.9414L109.156 38.9961V43H107.555V27.8047H109.156V35.8613C109.156 36.2194 109.13 36.7728 109.078 37.5215H109.156Z" fill="black" fill-opacity="0.75"/>
<path d="M124.645 43L124.322 41.4766H124.244C123.71 42.1471 123.176 42.6029 122.643 42.8438C122.115 43.0781 121.454 43.1953 120.66 43.1953C119.599 43.1953 118.766 42.9219 118.16 42.375C117.561 41.8281 117.262 41.0501 117.262 40.041C117.262 37.8796 118.99 36.7467 122.447 36.6426L124.264 36.584V35.9199C124.264 35.0801 124.081 34.4616 123.717 34.0645C123.359 33.6608 122.783 33.459 121.988 33.459C121.096 33.459 120.087 33.7324 118.961 34.2793L118.463 33.0391C118.99 32.7526 119.566 32.528 120.191 32.3652C120.823 32.2025 121.454 32.1211 122.086 32.1211C123.362 32.1211 124.306 32.4043 124.918 32.9707C125.536 33.5371 125.846 34.4453 125.846 35.6953V43H124.645ZM120.982 41.8574C121.992 41.8574 122.783 41.5807 123.355 41.0273C123.935 40.474 124.225 39.6992 124.225 38.7031V37.7363L122.604 37.8047C121.314 37.8503 120.383 38.0521 119.811 38.4102C119.244 38.7617 118.961 39.3118 118.961 40.0605C118.961 40.6465 119.137 41.0924 119.488 41.3984C119.846 41.7044 120.344 41.8574 120.982 41.8574Z" fill="black" fill-opacity="0.75"/>
<path d="M136.48 41.5645H136.393C135.644 42.6517 134.524 43.1953 133.033 43.1953C131.633 43.1953 130.543 42.7168 129.762 41.7598C128.987 40.8027 128.6 39.4421 128.6 37.6777C128.6 35.9134 128.99 34.543 129.771 33.5664C130.553 32.5898 131.64 32.1016 133.033 32.1016C134.485 32.1016 135.598 32.6289 136.373 33.6836H136.5L136.432 32.9121L136.393 32.1602V27.8047H138.014V43H136.695L136.48 41.5645ZM133.238 41.8379C134.345 41.8379 135.146 41.5384 135.641 40.9395C136.142 40.334 136.393 39.3607 136.393 38.0195V37.6777C136.393 36.1608 136.139 35.0801 135.631 34.4355C135.13 33.7845 134.326 33.459 133.219 33.459C132.268 33.459 131.539 33.8301 131.031 34.5723C130.53 35.3079 130.279 36.3496 130.279 37.6973C130.279 39.0645 130.53 40.0964 131.031 40.793C131.533 41.4896 132.268 41.8379 133.238 41.8379Z" fill="black" fill-opacity="0.75"/>
<path d="M148.043 43L147.721 41.4766H147.643C147.109 42.1471 146.575 42.6029 146.041 42.8438C145.514 43.0781 144.853 43.1953 144.059 43.1953C142.997 43.1953 142.164 42.9219 141.559 42.375C140.96 41.8281 140.66 41.0501 140.66 40.041C140.66 37.8796 142.389 36.7467 145.846 36.6426L147.662 36.584V35.9199C147.662 35.0801 147.48 34.4616 147.115 34.0645C146.757 33.6608 146.181 33.459 145.387 33.459C144.495 33.459 143.486 33.7324 142.359 34.2793L141.861 33.0391C142.389 32.7526 142.965 32.528 143.59 32.3652C144.221 32.2025 144.853 32.1211 145.484 32.1211C146.76 32.1211 147.704 32.4043 148.316 32.9707C148.935 33.5371 149.244 34.4453 149.244 35.6953V43H148.043ZM144.381 41.8574C145.39 41.8574 146.181 41.5807 146.754 41.0273C147.333 40.474 147.623 39.6992 147.623 38.7031V37.7363L146.002 37.8047C144.713 37.8503 143.782 38.0521 143.209 38.4102C142.643 38.7617 142.359 39.3118 142.359 40.0605C142.359 40.6465 142.535 41.0924 142.887 41.3984C143.245 41.7044 143.743 41.8574 144.381 41.8574Z" fill="black" fill-opacity="0.75"/>
<path d="M157.477 32.1016C157.952 32.1016 158.378 32.1406 158.756 32.2188L158.531 33.7227C158.089 33.625 157.698 33.5762 157.359 33.5762C156.493 33.5762 155.751 33.9277 155.133 34.6309C154.521 35.334 154.215 36.2096 154.215 37.2578V43H152.594V32.2969H153.932L154.117 34.2793H154.195C154.592 33.5827 155.071 33.0456 155.631 32.668C156.191 32.2904 156.806 32.1016 157.477 32.1016Z" fill="black" fill-opacity="0.75"/>
<path d="M173.277 43V36.0762C173.277 35.2038 173.079 34.5527 172.682 34.123C172.285 33.6934 171.663 33.4785 170.816 33.4785C169.69 33.4785 168.867 33.7845 168.346 34.3965C167.831 35.0085 167.574 36.0111 167.574 37.4043V43H165.953V27.8047H167.574V32.4043C167.574 32.9577 167.548 33.4167 167.496 33.7812H167.594C167.913 33.2669 168.365 32.8633 168.951 32.5703C169.544 32.2708 170.217 32.1211 170.973 32.1211C172.281 32.1211 173.261 32.4336 173.912 33.0586C174.57 33.6771 174.898 34.6634 174.898 36.0176V43H173.277Z" fill="black" fill-opacity="0.75"/>
<path d="M179.859 43H178.238V32.2969H179.859V43Z" fill="black" fill-opacity="0.75"/>
<path d="M190.143 43H182.379V41.8965L188.219 33.5566H182.74V32.2969H189.996V33.5566L184.234 41.7402H190.143V43Z" fill="black" fill-opacity="0.75"/>
<path d="M194.273 43H192.652V27.8047H194.273V43Z" fill="black" fill-opacity="0.75"/>
<path d="M199.332 43H197.711V32.2969H199.332V43Z" fill="black" fill-opacity="0.75"/>
<path d="M212.242 43.1953C210.693 43.1953 209.492 42.7201 208.639 41.7695C207.792 40.8125 207.369 39.4616 207.369 37.7168C207.369 35.9264 207.799 34.543 208.658 33.5664C209.524 32.5898 210.755 32.1016 212.35 32.1016C212.864 32.1016 213.378 32.1569 213.893 32.2676C214.407 32.3783 214.811 32.5085 215.104 32.6582L214.605 34.0352C214.247 33.8919 213.857 33.7747 213.434 33.6836C213.01 33.5859 212.636 33.5371 212.311 33.5371C210.136 33.5371 209.049 34.9238 209.049 37.6973C209.049 39.0124 209.312 40.0215 209.84 40.7246C210.374 41.4277 211.161 41.7793 212.203 41.7793C213.095 41.7793 214.01 41.5872 214.947 41.2031V42.6387C214.231 43.0098 213.329 43.1953 212.242 43.1953ZM213.688 45.8223C213.688 46.4538 213.437 46.9421 212.936 47.2871C212.441 47.6322 211.705 47.8047 210.729 47.8047C210.396 47.8047 210.084 47.7754 209.791 47.7168V46.6816C210.084 46.7337 210.423 46.7598 210.807 46.7598C211.321 46.7598 211.708 46.6947 211.969 46.5645C212.236 46.4342 212.369 46.1934 212.369 45.8418C212.369 45.5618 212.239 45.334 211.979 45.1582C211.725 44.9889 211.243 44.849 210.533 44.7383L211.393 43H212.467L211.93 44.123C213.102 44.377 213.688 44.9434 213.688 45.8223Z" fill="black" fill-opacity="0.75"/>
<path d="M226.734 37.6387C226.734 39.3835 226.295 40.7474 225.416 41.7305C224.537 42.707 223.323 43.1953 221.773 43.1953C220.816 43.1953 219.967 42.9707 219.225 42.5215C218.482 42.0723 217.91 41.4277 217.506 40.5879C217.102 39.748 216.9 38.765 216.9 37.6387C216.9 35.8939 217.337 34.5365 218.209 33.5664C219.081 32.5898 220.292 32.1016 221.842 32.1016C223.339 32.1016 224.527 32.5996 225.406 33.5957C226.292 34.5918 226.734 35.9395 226.734 37.6387ZM218.58 37.6387C218.58 39.0059 218.854 40.0475 219.4 40.7637C219.947 41.4798 220.751 41.8379 221.812 41.8379C222.874 41.8379 223.678 41.4831 224.225 40.7734C224.778 40.0573 225.055 39.0124 225.055 37.6387C225.055 36.278 224.778 35.2461 224.225 34.543C223.678 33.8333 222.867 33.4785 221.793 33.4785C220.732 33.4785 219.931 33.8268 219.391 34.5234C218.85 35.2201 218.58 36.2585 218.58 37.6387ZM219.059 29.3965C219.059 29.0579 219.143 28.8138 219.312 28.6641C219.488 28.5143 219.697 28.4395 219.938 28.4395C220.185 28.4395 220.396 28.5143 220.572 28.6641C220.755 28.8138 220.846 29.0579 220.846 29.3965C220.846 29.722 220.755 29.9661 220.572 30.1289C220.396 30.2852 220.185 30.3633 219.938 30.3633C219.697 30.3633 219.488 30.2852 219.312 30.1289C219.143 29.9661 219.059 29.722 219.059 29.3965ZM222.779 29.3965C222.779 29.0579 222.864 28.8138 223.033 28.6641C223.209 28.5143 223.417 28.4395 223.658 28.4395C223.899 28.4395 224.107 28.5143 224.283 28.6641C224.465 28.8138 224.557 29.0579 224.557 29.3965C224.557 29.722 224.465 29.9661 224.283 30.1289C224.107 30.2852 223.899 30.3633 223.658 30.3633C223.417 30.3633 223.209 30.2852 223.033 30.1289C222.864 29.9661 222.779 29.722 222.779 29.3965Z" fill="black" fill-opacity="0.75"/>
<path d="M236.432 43H228.668V41.8965L234.508 33.5566H229.029V32.2969H236.285V33.5566L230.523 41.7402H236.432V43Z" fill="black" fill-opacity="0.75"/>
<path d="M243.463 43.1953C241.881 43.1953 240.631 42.7135 239.713 41.75C238.801 40.7865 238.346 39.4486 238.346 37.7363C238.346 36.0111 238.769 34.6406 239.615 33.625C240.468 32.6094 241.611 32.1016 243.043 32.1016C244.384 32.1016 245.445 32.5443 246.227 33.4297C247.008 34.3086 247.398 35.4707 247.398 36.916V37.9414H240.025C240.058 39.1979 240.374 40.1517 240.973 40.8027C241.578 41.4538 242.428 41.7793 243.521 41.7793C244.674 41.7793 245.813 41.5384 246.939 41.0566V42.502C246.367 42.7493 245.823 42.9251 245.309 43.0293C244.801 43.14 244.186 43.1953 243.463 43.1953ZM243.023 33.459C242.164 33.459 241.477 33.7389 240.963 34.2988C240.455 34.8587 240.156 35.6335 240.064 36.623H245.66C245.66 35.6009 245.432 34.8197 244.977 34.2793C244.521 33.7324 243.87 33.459 243.023 33.459Z" fill="black" fill-opacity="0.75"/>
<path d="M255.055 32.1016C255.53 32.1016 255.956 32.1406 256.334 32.2188L256.109 33.7227C255.667 33.625 255.276 33.5762 254.938 33.5762C254.072 33.5762 253.329 33.9277 252.711 34.6309C252.099 35.334 251.793 36.2096 251.793 37.2578V43H250.172V32.2969H251.51L251.695 34.2793H251.773C252.171 33.5827 252.649 33.0456 253.209 32.668C253.769 32.2904 254.384 32.1016 255.055 32.1016Z" fill="black" fill-opacity="0.75"/>
<path d="M265.24 40.0801C265.24 41.0762 264.869 41.8444 264.127 42.3848C263.385 42.9251 262.343 43.1953 261.002 43.1953C259.583 43.1953 258.476 42.9707 257.682 42.5215V41.0176C258.196 41.278 258.746 41.4831 259.332 41.6328C259.924 41.7826 260.494 41.8574 261.041 41.8574C261.887 41.8574 262.538 41.724 262.994 41.457C263.45 41.1836 263.678 40.7702 263.678 40.2168C263.678 39.8001 263.495 39.4453 263.131 39.1523C262.773 38.8529 262.07 38.5013 261.021 38.0977C260.025 37.7266 259.316 37.4043 258.893 37.1309C258.476 36.8509 258.163 36.5352 257.955 36.1836C257.753 35.832 257.652 35.4121 257.652 34.9238C257.652 34.0514 258.007 33.3646 258.717 32.8633C259.426 32.3555 260.4 32.1016 261.637 32.1016C262.789 32.1016 263.915 32.3359 265.016 32.8047L264.439 34.123C263.365 33.6803 262.392 33.459 261.52 33.459C260.751 33.459 260.172 33.5794 259.781 33.8203C259.391 34.0612 259.195 34.3932 259.195 34.8164C259.195 35.1029 259.267 35.347 259.41 35.5488C259.56 35.7507 259.798 35.9427 260.123 36.125C260.449 36.3073 261.074 36.571 261.998 36.916C263.268 37.3783 264.124 37.8438 264.566 38.3125C265.016 38.7812 265.24 39.3704 265.24 40.0801Z" fill="black" fill-opacity="0.75"/>
<path d="M272.408 43.1953C270.826 43.1953 269.576 42.7135 268.658 41.75C267.747 40.7865 267.291 39.4486 267.291 37.7363C267.291 36.0111 267.714 34.6406 268.561 33.625C269.413 32.6094 270.556 32.1016 271.988 32.1016C273.329 32.1016 274.391 32.5443 275.172 33.4297C275.953 34.3086 276.344 35.4707 276.344 36.916V37.9414H268.971C269.003 39.1979 269.319 40.1517 269.918 40.8027C270.523 41.4538 271.373 41.7793 272.467 41.7793C273.619 41.7793 274.758 41.5384 275.885 41.0566V42.502C275.312 42.7493 274.768 42.9251 274.254 43.0293C273.746 43.14 273.131 43.1953 272.408 43.1953ZM271.969 33.459C271.109 33.459 270.423 33.7389 269.908 34.2988C269.4 34.8587 269.101 35.6335 269.01 36.623H274.605C274.605 35.6009 274.378 34.8197 273.922 34.2793C273.466 33.7324 272.815 33.459 271.969 33.459Z" fill="black" fill-opacity="0.75"/>
<path d="M286.441 43V36.0762C286.441 35.2038 286.243 34.5527 285.846 34.123C285.449 33.6934 284.827 33.4785 283.98 33.4785C282.861 33.4785 282.04 33.7812 281.52 34.3867C280.999 34.9922 280.738 35.9915 280.738 37.3848V43H279.117V32.2969H280.436L280.699 33.7617H280.777C281.109 33.2344 281.575 32.8275 282.174 32.541C282.773 32.248 283.44 32.1016 284.176 32.1016C285.465 32.1016 286.435 32.4141 287.086 33.0391C287.737 33.6576 288.062 34.6504 288.062 36.0176V43H286.441Z" fill="black" fill-opacity="0.75"/>
<path d="M293.102 40.6758L293.248 40.9004C293.079 41.5514 292.835 42.3066 292.516 43.166C292.197 44.0319 291.865 44.8359 291.52 45.5781H290.299C290.475 44.901 290.667 44.0645 290.875 43.0684C291.09 42.0723 291.24 41.2747 291.324 40.6758H293.102Z" fill="black" fill-opacity="0.75"/>
<path d="M310.738 37.6387C310.738 39.3835 310.299 40.7474 309.42 41.7305C308.541 42.707 307.327 43.1953 305.777 43.1953C304.82 43.1953 303.971 42.9707 303.229 42.5215C302.486 42.0723 301.913 41.4277 301.51 40.5879C301.106 39.748 300.904 38.765 300.904 37.6387C300.904 35.8939 301.34 34.5365 302.213 33.5664C303.085 32.5898 304.296 32.1016 305.846 32.1016C307.343 32.1016 308.531 32.5996 309.41 33.5957C310.296 34.5918 310.738 35.9395 310.738 37.6387ZM302.584 37.6387C302.584 39.0059 302.857 40.0475 303.404 40.7637C303.951 41.4798 304.755 41.8379 305.816 41.8379C306.878 41.8379 307.682 41.4831 308.229 40.7734C308.782 40.0573 309.059 39.0124 309.059 37.6387C309.059 36.278 308.782 35.2461 308.229 34.543C307.682 33.8333 306.871 33.4785 305.797 33.4785C304.736 33.4785 303.935 33.8268 303.395 34.5234C302.854 35.2201 302.584 36.2585 302.584 37.6387Z" fill="black" fill-opacity="0.75"/>
<path d="M320.387 37.5215C320.667 37.1243 321.093 36.6035 321.666 35.959L325.123 32.2969H327.047L322.711 36.8574L327.35 43H325.387L321.607 37.9414L320.387 38.9961V43H318.785V27.8047H320.387V35.8613C320.387 36.2194 320.361 36.7728 320.309 37.5215H320.387Z" fill="black" fill-opacity="0.75"/>
<path d="M335.875 43L335.553 41.4766H335.475C334.941 42.1471 334.407 42.6029 333.873 42.8438C333.346 43.0781 332.685 43.1953 331.891 43.1953C330.829 43.1953 329.996 42.9219 329.391 42.375C328.792 41.8281 328.492 41.0501 328.492 40.041C328.492 37.8796 330.221 36.7467 333.678 36.6426L335.494 36.584V35.9199C335.494 35.0801 335.312 34.4616 334.947 34.0645C334.589 33.6608 334.013 33.459 333.219 33.459C332.327 33.459 331.318 33.7324 330.191 34.2793L329.693 33.0391C330.221 32.7526 330.797 32.528 331.422 32.3652C332.053 32.2025 332.685 32.1211 333.316 32.1211C334.592 32.1211 335.536 32.4043 336.148 32.9707C336.767 33.5371 337.076 34.4453 337.076 35.6953V43H335.875ZM332.213 41.8574C333.222 41.8574 334.013 41.5807 334.586 41.0273C335.165 40.474 335.455 39.6992 335.455 38.7031V37.7363L333.834 37.8047C332.545 37.8503 331.614 38.0521 331.041 38.4102C330.475 38.7617 330.191 39.3118 330.191 40.0605C330.191 40.6465 330.367 41.0924 330.719 41.3984C331.077 41.7044 331.575 41.8574 332.213 41.8574Z" fill="black" fill-opacity="0.75"/>
<path d="M347.711 41.5645H347.623C346.874 42.6517 345.755 43.1953 344.264 43.1953C342.864 43.1953 341.773 42.7168 340.992 41.7598C340.217 40.8027 339.83 39.4421 339.83 37.6777C339.83 35.9134 340.221 34.543 341.002 33.5664C341.783 32.5898 342.87 32.1016 344.264 32.1016C345.715 32.1016 346.829 32.6289 347.604 33.6836H347.73L347.662 32.9121L347.623 32.1602V27.8047H349.244V43H347.926L347.711 41.5645ZM344.469 41.8379C345.576 41.8379 346.376 41.5384 346.871 40.9395C347.372 40.334 347.623 39.3607 347.623 38.0195V37.6777C347.623 36.1608 347.369 35.0801 346.861 34.4355C346.36 33.7845 345.556 33.459 344.449 33.459C343.499 33.459 342.77 33.8301 342.262 34.5723C341.76 35.3079 341.51 36.3496 341.51 37.6973C341.51 39.0645 341.76 40.0964 342.262 40.793C342.763 41.4896 343.499 41.8379 344.469 41.8379Z" fill="black" fill-opacity="0.75"/>
<path d="M359.273 43L358.951 41.4766H358.873C358.339 42.1471 357.805 42.6029 357.271 42.8438C356.744 43.0781 356.083 43.1953 355.289 43.1953C354.228 43.1953 353.395 42.9219 352.789 42.375C352.19 41.8281 351.891 41.0501 351.891 40.041C351.891 37.8796 353.619 36.7467 357.076 36.6426L358.893 36.584V35.9199C358.893 35.0801 358.71 34.4616 358.346 34.0645C357.988 33.6608 357.411 33.459 356.617 33.459C355.725 33.459 354.716 33.7324 353.59 34.2793L353.092 33.0391C353.619 32.7526 354.195 32.528 354.82 32.3652C355.452 32.2025 356.083 32.1211 356.715 32.1211C357.991 32.1211 358.935 32.4043 359.547 32.9707C360.165 33.5371 360.475 34.4453 360.475 35.6953V43H359.273ZM355.611 41.8574C356.62 41.8574 357.411 41.5807 357.984 41.0273C358.564 40.474 358.854 39.6992 358.854 38.7031V37.7363L357.232 37.8047C355.943 37.8503 355.012 38.0521 354.439 38.4102C353.873 38.7617 353.59 39.3118 353.59 40.0605C353.59 40.6465 353.766 41.0924 354.117 41.3984C354.475 41.7044 354.973 41.8574 355.611 41.8574Z" fill="black" fill-opacity="0.75"/>
<path d="M368.707 32.1016C369.182 32.1016 369.609 32.1406 369.986 32.2188L369.762 33.7227C369.319 33.625 368.928 33.5762 368.59 33.5762C367.724 33.5762 366.982 33.9277 366.363 34.6309C365.751 35.334 365.445 36.2096 365.445 37.2578V43H363.824V32.2969H365.162L365.348 34.2793H365.426C365.823 33.5827 366.301 33.0456 366.861 32.668C367.421 32.2904 368.036 32.1016 368.707 32.1016Z" fill="black" fill-opacity="0.75"/>
<path d="M384.508 43V36.0762C384.508 35.2038 384.309 34.5527 383.912 34.123C383.515 33.6934 382.893 33.4785 382.047 33.4785C380.921 33.4785 380.097 33.7845 379.576 34.3965C379.062 35.0085 378.805 36.0111 378.805 37.4043V43H377.184V27.8047H378.805V32.4043C378.805 32.9577 378.779 33.4167 378.727 33.7812H378.824C379.143 33.2669 379.596 32.8633 380.182 32.5703C380.774 32.2708 381.448 32.1211 382.203 32.1211C383.512 32.1211 384.492 32.4336 385.143 33.0586C385.8 33.6771 386.129 34.6634 386.129 36.0176V43H384.508Z" fill="black" fill-opacity="0.75"/>
<path d="M391.09 43H389.469V32.2969H391.09V43Z" fill="black" fill-opacity="0.75"/>
<path d="M401.373 43H393.609V41.8965L399.449 33.5566H393.971V32.2969H401.227V33.5566L395.465 41.7402H401.373V43Z" fill="black" fill-opacity="0.75"/>
<path d="M405.504 43H403.883V27.8047H405.504V43Z" fill="black" fill-opacity="0.75"/>
<path d="M410.562 43H408.941V32.2969H410.562V43Z" fill="black" fill-opacity="0.75"/>
<path d="M417.496 32.2969H419.234L421.578 38.4004C422.092 39.7936 422.411 40.7995 422.535 41.418H422.613C422.698 41.0859 422.874 40.5195 423.141 39.7188C423.414 38.9115 424.299 36.4375 425.797 32.2969H427.535L422.936 44.4844C422.48 45.6888 421.946 46.5417 421.334 47.043C420.729 47.5508 419.983 47.8047 419.098 47.8047C418.603 47.8047 418.115 47.7493 417.633 47.6387V46.3398C417.991 46.418 418.391 46.457 418.834 46.457C419.947 46.457 420.742 45.832 421.217 44.582L421.812 43.0586L417.496 32.2969Z" fill="black" fill-opacity="0.75"/>
<path d="M438.512 37.6387C438.512 39.3835 438.072 40.7474 437.193 41.7305C436.314 42.707 435.1 43.1953 433.551 43.1953C432.594 43.1953 431.744 42.9707 431.002 42.5215C430.26 42.0723 429.687 41.4277 429.283 40.5879C428.88 39.748 428.678 38.765 428.678 37.6387C428.678 35.8939 429.114 34.5365 429.986 33.5664C430.859 32.5898 432.07 32.1016 433.619 32.1016C435.117 32.1016 436.305 32.5996 437.184 33.5957C438.069 34.5918 438.512 35.9395 438.512 37.6387ZM430.357 37.6387C430.357 39.0059 430.631 40.0475 431.178 40.7637C431.725 41.4798 432.529 41.8379 433.59 41.8379C434.651 41.8379 435.455 41.4831 436.002 40.7734C436.555 40.0573 436.832 39.0124 436.832 37.6387C436.832 36.278 436.555 35.2461 436.002 34.543C435.455 33.8333 434.645 33.4785 433.57 33.4785C432.509 33.4785 431.708 33.8268 431.168 34.5234C430.628 35.2201 430.357 36.2585 430.357 37.6387Z" fill="black" fill-opacity="0.75"/>
<path d="M442.984 43H441.363V27.8047H442.984V43Z" fill="black" fill-opacity="0.75"/>
<path d="M458.199 43L457.877 41.4766H457.799C457.265 42.1471 456.731 42.6029 456.197 42.8438C455.67 43.0781 455.009 43.1953 454.215 43.1953C453.154 43.1953 452.32 42.9219 451.715 42.375C451.116 41.8281 450.816 41.0501 450.816 40.041C450.816 37.8796 452.545 36.7467 456.002 36.6426L457.818 36.584V35.9199C457.818 35.0801 457.636 34.4616 457.271 34.0645C456.913 33.6608 456.337 33.459 455.543 33.459C454.651 33.459 453.642 33.7324 452.516 34.2793L452.018 33.0391C452.545 32.7526 453.121 32.528 453.746 32.3652C454.378 32.2025 455.009 32.1211 455.641 32.1211C456.917 32.1211 457.861 32.4043 458.473 32.9707C459.091 33.5371 459.4 34.4453 459.4 35.6953V43H458.199ZM454.537 41.8574C455.546 41.8574 456.337 41.5807 456.91 41.0273C457.49 40.474 457.779 39.6992 457.779 38.7031V37.7363L456.158 37.8047C454.869 37.8503 453.938 38.0521 453.365 38.4102C452.799 38.7617 452.516 39.3118 452.516 40.0605C452.516 40.6465 452.691 41.0924 453.043 41.3984C453.401 41.7044 453.899 41.8574 454.537 41.8574Z" fill="black" fill-opacity="0.75"/>
<path d="M464.371 43H462.75V27.8047H464.371V43Z" fill="black" fill-opacity="0.75"/>
<path d="M469.43 43H467.809V32.2969H469.43V43Z" fill="black" fill-opacity="0.75"/>
<path d="M477.75 32.1016C478.225 32.1016 478.652 32.1406 479.029 32.2188L478.805 33.7227C478.362 33.625 477.971 33.5762 477.633 33.5762C476.767 33.5762 476.025 33.9277 475.406 34.6309C474.794 35.334 474.488 36.2096 474.488 37.2578V43H472.867V32.2969H474.205L474.391 34.2793H474.469C474.866 33.5827 475.344 33.0456 475.904 32.668C476.464 32.2904 477.079 32.1016 477.75 32.1016Z" fill="black" fill-opacity="0.75"/>
<path d="M487.936 40.0801C487.936 41.0762 487.564 41.8444 486.822 42.3848C486.08 42.9251 485.038 43.1953 483.697 43.1953C482.278 43.1953 481.171 42.9707 480.377 42.5215V41.0176C480.891 41.278 481.441 41.4831 482.027 41.6328C482.62 41.7826 483.189 41.8574 483.736 41.8574C484.583 41.8574 485.234 41.724 485.689 41.457C486.145 41.1836 486.373 40.7702 486.373 40.2168C486.373 39.8001 486.191 39.4453 485.826 39.1523C485.468 38.8529 484.765 38.5013 483.717 38.0977C482.721 37.7266 482.011 37.4043 481.588 37.1309C481.171 36.8509 480.859 36.5352 480.65 36.1836C480.449 35.832 480.348 35.4121 480.348 34.9238C480.348 34.0514 480.702 33.3646 481.412 32.8633C482.122 32.3555 483.095 32.1016 484.332 32.1016C485.484 32.1016 486.611 32.3359 487.711 32.8047L487.135 34.123C486.061 33.6803 485.087 33.459 484.215 33.459C483.447 33.459 482.867 33.5794 482.477 33.8203C482.086 34.0612 481.891 34.3932 481.891 34.8164C481.891 35.1029 481.962 35.347 482.105 35.5488C482.255 35.7507 482.493 35.9427 482.818 36.125C483.144 36.3073 483.769 36.571 484.693 36.916C485.963 37.3783 486.819 37.8438 487.262 38.3125C487.711 38.7812 487.936 39.3704 487.936 40.0801Z" fill="black" fill-opacity="0.75"/>
<path d="M492.203 43H490.582V32.2969H492.203V43Z" fill="black" fill-opacity="0.75"/>
<path d="M502.965 43V36.0762C502.965 35.2038 502.766 34.5527 502.369 34.123C501.972 33.6934 501.35 33.4785 500.504 33.4785C499.384 33.4785 498.564 33.7812 498.043 34.3867C497.522 34.9922 497.262 35.9915 497.262 37.3848V43H495.641V32.2969H496.959L497.223 33.7617H497.301C497.633 33.2344 498.098 32.8275 498.697 32.541C499.296 32.248 499.964 32.1016 500.699 32.1016C501.988 32.1016 502.958 32.4141 503.609 33.0391C504.26 33.6576 504.586 34.6504 504.586 36.0176V43H502.965Z" fill="black" fill-opacity="0.75"/>
<path d="M507.691 41.9648C507.691 41.5286 507.789 41.1999 507.984 40.9785C508.186 40.7507 508.473 40.6367 508.844 40.6367C509.221 40.6367 509.514 40.7507 509.723 40.9785C509.938 41.1999 510.045 41.5286 510.045 41.9648C510.045 42.388 509.938 42.7135 509.723 42.9414C509.508 43.1693 509.215 43.2832 508.844 43.2832C508.512 43.2832 508.235 43.1823 508.014 42.9805C507.799 42.7721 507.691 42.4336 507.691 41.9648Z" fill="black" fill-opacity="0.75"/>
</g>
<defs>
<filter id="filter0_d" x="55.7969" y="0.697266" width="398.428" height="21.1074" filterUnits="userSpaceOnUse" color-interpolation-filters="sRGB">
<feFlood flood-opacity="0" result="BackgroundImageFix"/>
<feColorMatrix in="SourceAlpha" type="matrix" values="0 0 0 0 0 0 0 0 0 0 0 0 0 0 0 0 0 0 127 0"/>
<feOffset dy="1"/>
<feColorMatrix type="matrix" values="0 0 0 0 1 0 0 0 0 1 0 0 0 0 1 0 0 0 0.25 0"/>
<feBlend mode="normal" in2="BackgroundImageFix" result="effect1_dropShadow"/>
<feBlend mode="normal" in="SourceGraphic" in2="effect1_dropShadow" result="shape"/>
</filter>
</defs>
</svg>
