<svg width="513" height="54" viewBox="0 0 513 54" fill="none" xmlns="http://www.w3.org/2000/svg">
<g filter="url(#filter0_d)">
<path d="M68.4961 21H65.4785V14.8379H59.8242V21H56.7969V6.72266H59.8242V12.3184H65.4785V6.72266H68.4961V21ZM76.3965 11.9961C75.765 11.9961 75.2702 12.1979 74.9121 12.6016C74.554 12.9987 74.349 13.5651 74.2969 14.3008H78.4766C78.4635 13.5651 78.2715 12.9987 77.9004 12.6016C77.5293 12.1979 77.028 11.9961 76.3965 11.9961ZM76.8164 21.1953C75.0586 21.1953 73.6849 20.7103 72.6953 19.7402C71.7057 18.7702 71.2109 17.3965 71.2109 15.6191C71.2109 13.7897 71.6667 12.377 72.5781 11.3809C73.4961 10.3783 74.7624 9.87695 76.377 9.87695C77.9199 9.87695 79.1211 10.3164 79.9805 11.1953C80.8398 12.0742 81.2695 13.2884 81.2695 14.8379V16.2832H74.2285C74.2611 17.1296 74.5117 17.7904 74.9805 18.2656C75.4492 18.7409 76.1068 18.9785 76.9531 18.9785C77.6107 18.9785 78.2324 18.9102 78.8184 18.7734C79.4043 18.6367 80.0163 18.4186 80.6543 18.1191V20.4238C80.1335 20.6842 79.5768 20.8763 78.9844 21C78.3919 21.1302 77.6693 21.1953 76.8164 21.1953ZM87.1484 21.1953C85.8659 21.1953 84.8568 20.6973 84.1211 19.7012C83.3919 18.7051 83.0273 17.3249 83.0273 15.5605C83.0273 13.7702 83.3984 12.377 84.1406 11.3809C84.8893 10.3783 85.918 9.87695 87.2266 9.87695C88.6003 9.87695 89.6484 10.4108 90.3711 11.4785H90.4688C90.319 10.6647 90.2441 9.9388 90.2441 9.30078V5.80469H93.2324V21H90.9473L90.3711 19.584H90.2441C89.5671 20.6582 88.5352 21.1953 87.1484 21.1953ZM88.1934 18.8223C88.9551 18.8223 89.5117 18.6009 89.8633 18.1582C90.2214 17.7155 90.4167 16.9635 90.4492 15.9023V15.5801C90.4492 14.4082 90.2669 13.5684 89.9023 13.0605C89.5443 12.5527 88.9583 12.2988 88.1445 12.2988C87.4805 12.2988 86.9629 12.582 86.5918 13.1484C86.2272 13.7083 86.0449 14.5254 86.0449 15.5996C86.0449 16.6738 86.2305 17.4811 86.6016 18.0215C86.9727 18.5553 87.5033 18.8223 88.1934 18.8223ZM100.869 11.9961C100.238 11.9961 99.7428 12.1979 99.3848 12.6016C99.0267 12.9987 98.8216 13.5651 98.7695 14.3008H102.949C102.936 13.5651 102.744 12.9987 102.373 12.6016C102.002 12.1979 101.501 11.9961 100.869 11.9961ZM101.289 21.1953C99.5312 21.1953 98.1576 20.7103 97.168 19.7402C96.1784 18.7702 95.6836 17.3965 95.6836 15.6191C95.6836 13.7897 96.1393 12.377 97.0508 11.3809C97.9688 10.3783 99.235 9.87695 100.85 9.87695C102.393 9.87695 103.594 10.3164 104.453 11.1953C105.312 12.0742 105.742 13.2884 105.742 14.8379V16.2832H98.7012C98.7337 17.1296 98.9844 17.7904 99.4531 18.2656C99.9219 18.7409 100.579 18.9785 101.426 18.9785C102.083 18.9785 102.705 18.9102 103.291 18.7734C103.877 18.6367 104.489 18.4186 105.127 18.1191V20.4238C104.606 20.6842 104.049 20.8763 103.457 21C102.865 21.1302 102.142 21.1953 101.289 21.1953ZM114.199 12.3184H111.621V21H108.643V12.3184H107.002V10.8828L108.643 10.082V9.28125C108.643 8.03776 108.949 7.12956 109.561 6.55664C110.173 5.98372 111.152 5.69727 112.5 5.69727C113.529 5.69727 114.443 5.85026 115.244 6.15625L114.482 8.34375C113.883 8.15495 113.33 8.06055 112.822 8.06055C112.399 8.06055 112.093 8.1875 111.904 8.44141C111.715 8.6888 111.621 9.00781 111.621 9.39844V10.082H114.199V12.3184ZM120.439 11.9961C119.808 11.9961 119.313 12.1979 118.955 12.6016C118.597 12.9987 118.392 13.5651 118.34 14.3008H122.52C122.507 13.5651 122.314 12.9987 121.943 12.6016C121.572 12.1979 121.071 11.9961 120.439 11.9961ZM120.859 21.1953C119.102 21.1953 117.728 20.7103 116.738 19.7402C115.749 18.7702 115.254 17.3965 115.254 15.6191C115.254 13.7897 115.71 12.377 116.621 11.3809C117.539 10.3783 118.805 9.87695 120.42 9.87695C121.963 9.87695 123.164 10.3164 124.023 11.1953C124.883 12.0742 125.312 13.2884 125.312 14.8379V16.2832H118.271C118.304 17.1296 118.555 17.7904 119.023 18.2656C119.492 18.7409 120.15 18.9785 120.996 18.9785C121.654 18.9785 122.275 18.9102 122.861 18.7734C123.447 18.6367 124.059 18.4186 124.697 18.1191V20.4238C124.176 20.6842 123.62 20.8763 123.027 21C122.435 21.1302 121.712 21.1953 120.859 21.1953ZM130.654 18.9004C130.316 20.2155 129.743 21.7747 128.936 23.5781H126.787C127.21 21.8464 127.539 20.2122 127.773 18.6758H130.508L130.654 18.9004ZM144.824 9.87695C145.228 9.87695 145.563 9.90625 145.83 9.96484L145.605 12.7578C145.365 12.6927 145.072 12.6602 144.727 12.6602C143.776 12.6602 143.034 12.9043 142.5 13.3926C141.973 13.8809 141.709 14.5645 141.709 15.4434V21H138.73V10.082H140.986L141.426 11.918H141.572C141.911 11.306 142.367 10.8145 142.939 10.4434C143.519 10.0658 144.147 9.87695 144.824 9.87695ZM154.746 21L154.17 19.5156H154.092C153.59 20.1471 153.073 20.5866 152.539 20.834C152.012 21.0749 151.322 21.1953 150.469 21.1953C149.421 21.1953 148.594 20.8958 147.988 20.2969C147.389 19.6979 147.09 18.8451 147.09 17.7383C147.09 16.5794 147.493 15.7266 148.301 15.1797C149.115 14.6263 150.339 14.3203 151.973 14.2617L153.867 14.2031V13.7246C153.867 12.6178 153.301 12.0645 152.168 12.0645C151.296 12.0645 150.27 12.3281 149.092 12.8555L148.105 10.8438C149.362 10.1862 150.755 9.85742 152.285 9.85742C153.75 9.85742 154.873 10.1764 155.654 10.8145C156.436 11.4525 156.826 12.4225 156.826 13.7246V21H154.746ZM153.867 15.9414L152.715 15.9805C151.849 16.0065 151.204 16.1628 150.781 16.4492C150.358 16.7357 150.146 17.1719 150.146 17.7578C150.146 18.5977 150.628 19.0176 151.592 19.0176C152.282 19.0176 152.832 18.819 153.242 18.4219C153.659 18.0247 153.867 17.4974 153.867 16.8398V15.9414ZM162.764 15.0625L164.062 13.4023L167.119 10.082H170.479L166.143 14.8184L170.742 21H167.305L164.16 16.5762L162.881 17.6016V21H159.902V5.80469H162.881V12.582L162.725 15.0625H162.764ZM172.178 7.25977C172.178 6.28971 172.718 5.80469 173.799 5.80469C174.88 5.80469 175.42 6.28971 175.42 7.25977C175.42 7.72201 175.283 8.08333 175.01 8.34375C174.743 8.59766 174.339 8.72461 173.799 8.72461C172.718 8.72461 172.178 8.23633 172.178 7.25977ZM175.283 21H172.305V10.082H175.283V21ZM184.492 9.87695C185.781 9.87695 186.79 10.3815 187.52 11.3906C188.249 12.3932 188.613 13.7702 188.613 15.5215C188.613 17.3249 188.236 18.7214 187.48 19.7109C186.732 20.7005 185.71 21.1953 184.414 21.1953C183.132 21.1953 182.126 20.7298 181.396 19.7988H181.191L180.693 21H178.418V5.80469H181.396V9.33984C181.396 9.78906 181.357 10.5085 181.279 11.498H181.396C182.093 10.4173 183.125 9.87695 184.492 9.87695ZM183.535 12.2598C182.799 12.2598 182.262 12.4876 181.924 12.9434C181.585 13.3926 181.41 14.138 181.396 15.1797V15.502C181.396 16.6738 181.569 17.5137 181.914 18.0215C182.266 18.5293 182.819 18.7832 183.574 18.7832C184.186 18.7832 184.671 18.5033 185.029 17.9434C185.394 17.377 185.576 16.5566 185.576 15.4824C185.576 14.4082 185.394 13.6042 185.029 13.0703C184.665 12.5299 184.167 12.2598 183.535 12.2598ZM190.947 7.25977C190.947 6.28971 191.488 5.80469 192.568 5.80469C193.649 5.80469 194.189 6.28971 194.189 7.25977C194.189 7.72201 194.053 8.08333 193.779 8.34375C193.512 8.59766 193.109 8.72461 192.568 8.72461C191.488 8.72461 190.947 8.23633 190.947 7.25977ZM194.053 21H191.074V10.082H194.053V21ZM207.266 21H204.287V14.623C204.287 13.8353 204.147 13.2461 203.867 12.8555C203.587 12.4583 203.141 12.2598 202.529 12.2598C201.696 12.2598 201.094 12.5397 200.723 13.0996C200.352 13.653 200.166 14.5742 200.166 15.8633V21H197.188V10.082H199.463L199.863 11.4785H200.029C200.361 10.9512 200.817 10.554 201.396 10.2871C201.982 10.0137 202.646 9.87695 203.389 9.87695C204.658 9.87695 205.622 10.222 206.279 10.9121C206.937 11.5957 207.266 12.5853 207.266 13.8809V21ZM213.789 21.1953C212.507 21.1953 211.497 20.6973 210.762 19.7012C210.033 18.7051 209.668 17.3249 209.668 15.5605C209.668 13.7702 210.039 12.377 210.781 11.3809C211.53 10.3783 212.559 9.87695 213.867 9.87695C215.241 9.87695 216.289 10.4108 217.012 11.4785H217.109C216.96 10.6647 216.885 9.9388 216.885 9.30078V5.80469H219.873V21H217.588L217.012 19.584H216.885C216.208 20.6582 215.176 21.1953 213.789 21.1953ZM214.834 18.8223C215.596 18.8223 216.152 18.6009 216.504 18.1582C216.862 17.7155 217.057 16.9635 217.09 15.9023V15.5801C217.09 14.4082 216.908 13.5684 216.543 13.0605C216.185 12.5527 215.599 12.2988 214.785 12.2988C214.121 12.2988 213.604 12.582 213.232 13.1484C212.868 13.7083 212.686 14.5254 212.686 15.5996C212.686 16.6738 212.871 17.4811 213.242 18.0215C213.613 18.5553 214.144 18.8223 214.834 18.8223ZM227.51 11.9961C226.878 11.9961 226.383 12.1979 226.025 12.6016C225.667 12.9987 225.462 13.5651 225.41 14.3008H229.59C229.577 13.5651 229.385 12.9987 229.014 12.6016C228.643 12.1979 228.141 11.9961 227.51 11.9961ZM227.93 21.1953C226.172 21.1953 224.798 20.7103 223.809 19.7402C222.819 18.7702 222.324 17.3965 222.324 15.6191C222.324 13.7897 222.78 12.377 223.691 11.3809C224.609 10.3783 225.876 9.87695 227.49 9.87695C229.033 9.87695 230.234 10.3164 231.094 11.1953C231.953 12.0742 232.383 13.2884 232.383 14.8379V16.2832H225.342C225.374 17.1296 225.625 17.7904 226.094 18.2656C226.562 18.7409 227.22 18.9785 228.066 18.9785C228.724 18.9785 229.346 18.9102 229.932 18.7734C230.518 18.6367 231.13 18.4186 231.768 18.1191V20.4238C231.247 20.6842 230.69 20.8763 230.098 21C229.505 21.1302 228.783 21.1953 227.93 21.1953ZM244.883 21H241.904V14.623C241.904 13.8353 241.764 13.2461 241.484 12.8555C241.204 12.4583 240.758 12.2598 240.146 12.2598C239.313 12.2598 238.711 12.5397 238.34 13.0996C237.969 13.653 237.783 14.5742 237.783 15.8633V21H234.805V10.082H237.08L237.48 11.4785H237.646C237.979 10.9512 238.434 10.554 239.014 10.2871C239.6 10.0137 240.264 9.87695 241.006 9.87695C242.275 9.87695 243.239 10.222 243.896 10.9121C244.554 11.5957 244.883 12.5853 244.883 13.8809V21ZM255.518 15.5215C255.518 16.6022 255.693 17.4193 256.045 17.9727C256.403 18.526 256.982 18.8027 257.783 18.8027C258.577 18.8027 259.147 18.5293 259.492 17.9824C259.844 17.429 260.02 16.6087 260.02 15.5215C260.02 14.4408 259.844 13.6302 259.492 13.0898C259.141 12.5495 258.564 12.2793 257.764 12.2793C256.969 12.2793 256.396 12.5495 256.045 13.0898C255.693 13.6237 255.518 14.4342 255.518 15.5215ZM263.066 15.5215C263.066 17.2988 262.598 18.6888 261.66 19.6914C260.723 20.694 259.417 21.1953 257.744 21.1953C256.696 21.1953 255.771 20.9674 254.971 20.5117C254.17 20.0495 253.555 19.3887 253.125 18.5293C252.695 17.6699 252.48 16.6673 252.48 15.5215C252.48 13.7376 252.946 12.3509 253.877 11.3613C254.808 10.3717 256.117 9.87695 257.803 9.87695C258.851 9.87695 259.775 10.1048 260.576 10.5605C261.377 11.0163 261.992 11.6706 262.422 12.5234C262.852 13.3763 263.066 14.3757 263.066 15.5215ZM254.424 7.2793C254.424 6.85612 254.544 6.5306 254.785 6.30273C255.033 6.07487 255.365 5.96094 255.781 5.96094C256.211 5.96094 256.546 6.08138 256.787 6.32227C257.035 6.56315 257.158 6.88216 257.158 7.2793C257.158 7.66992 257.035 7.98568 256.787 8.22656C256.54 8.46094 256.204 8.57812 255.781 8.57812C255.365 8.57812 255.033 8.46419 254.785 8.23633C254.544 8.00846 254.424 7.68945 254.424 7.2793ZM258.359 7.2793C258.359 6.82357 258.49 6.49154 258.75 6.2832C259.017 6.06836 259.346 5.96094 259.736 5.96094C260.16 5.96094 260.495 6.07812 260.742 6.3125C260.996 6.54688 261.123 6.86914 261.123 7.2793C261.123 7.67643 260.996 7.99219 260.742 8.22656C260.488 8.46094 260.153 8.57812 259.736 8.57812C259.346 8.57812 259.017 8.47396 258.75 8.26562C258.49 8.05078 258.359 7.72201 258.359 7.2793ZM275.605 21H272.627V14.623C272.627 13.8353 272.487 13.2461 272.207 12.8555C271.927 12.4583 271.481 12.2598 270.869 12.2598C270.036 12.2598 269.434 12.5397 269.062 13.0996C268.691 13.653 268.506 14.5742 268.506 15.8633V21H265.527V10.082H267.803L268.203 11.4785H268.369C268.701 10.9512 269.157 10.554 269.736 10.2871C270.322 10.0137 270.986 9.87695 271.729 9.87695C272.998 9.87695 273.962 10.222 274.619 10.9121C275.277 11.5957 275.605 12.5853 275.605 13.8809V21ZM283.105 21.1953C279.707 21.1953 278.008 19.3301 278.008 15.5996C278.008 13.7441 278.47 12.3281 279.395 11.3516C280.319 10.3685 281.644 9.87695 283.369 9.87695C284.632 9.87695 285.765 10.1243 286.768 10.6191L285.889 12.9238C285.42 12.735 284.984 12.582 284.58 12.4648C284.176 12.3411 283.773 12.2793 283.369 12.2793C281.82 12.2793 281.045 13.3796 281.045 15.5801C281.045 17.7155 281.82 18.7832 283.369 18.7832C283.942 18.7832 284.473 18.7083 284.961 18.5586C285.449 18.4023 285.938 18.1615 286.426 17.8359V20.3848C285.944 20.6908 285.456 20.9023 284.961 21.0195C284.473 21.1367 283.854 21.1953 283.105 21.1953ZM293.486 11.9961C292.855 11.9961 292.36 12.1979 292.002 12.6016C291.644 12.9987 291.439 13.5651 291.387 14.3008H295.566C295.553 13.5651 295.361 12.9987 294.99 12.6016C294.619 12.1979 294.118 11.9961 293.486 11.9961ZM293.906 21.1953C292.148 21.1953 290.775 20.7103 289.785 19.7402C288.796 18.7702 288.301 17.3965 288.301 15.6191C288.301 13.7897 288.757 12.377 289.668 11.3809C290.586 10.3783 291.852 9.87695 293.467 9.87695C295.01 9.87695 296.211 10.3164 297.07 11.1953C297.93 12.0742 298.359 13.2884 298.359 14.8379V16.2832H291.318C291.351 17.1296 291.602 17.7904 292.07 18.2656C292.539 18.7409 293.197 18.9785 294.043 18.9785C294.701 18.9785 295.322 18.9102 295.908 18.7734C296.494 18.6367 297.106 18.4186 297.744 18.1191V20.4238C297.223 20.6842 296.667 20.8763 296.074 21C295.482 21.1302 294.759 21.1953 293.906 21.1953ZM313.711 21L313.311 19.6035H313.154C312.835 20.1113 312.383 20.5052 311.797 20.7852C311.211 21.0586 310.544 21.1953 309.795 21.1953C308.512 21.1953 307.546 20.8535 306.895 20.1699C306.243 19.4798 305.918 18.4902 305.918 17.2012V10.082H308.896V16.459C308.896 17.2467 309.036 17.8392 309.316 18.2363C309.596 18.627 310.042 18.8223 310.654 18.8223C311.488 18.8223 312.09 18.5456 312.461 17.9922C312.832 17.4323 313.018 16.5078 313.018 15.2188V10.082H315.996V21H313.711ZM322.1 21H319.121V5.80469H322.1V21ZM332.168 21L331.592 19.5156H331.514C331.012 20.1471 330.495 20.5866 329.961 20.834C329.434 21.0749 328.743 21.1953 327.891 21.1953C326.842 21.1953 326.016 20.8958 325.41 20.2969C324.811 19.6979 324.512 18.8451 324.512 17.7383C324.512 16.5794 324.915 15.7266 325.723 15.1797C326.536 14.6263 327.76 14.3203 329.395 14.2617L331.289 14.2031V13.7246C331.289 12.6178 330.723 12.0645 329.59 12.0645C328.717 12.0645 327.692 12.3281 326.514 12.8555L325.527 10.8438C326.784 10.1862 328.177 9.85742 329.707 9.85742C331.172 9.85742 332.295 10.1764 333.076 10.8145C333.857 11.4525 334.248 12.4225 334.248 13.7246V21H332.168ZM331.289 15.9414L330.137 15.9805C329.271 16.0065 328.626 16.1628 328.203 16.4492C327.78 16.7357 327.568 17.1719 327.568 17.7578C327.568 18.5977 328.05 19.0176 329.014 19.0176C329.704 19.0176 330.254 18.819 330.664 18.4219C331.081 18.0247 331.289 17.4974 331.289 16.8398V15.9414ZM344.941 17.7578C344.941 18.8776 344.551 19.7305 343.77 20.3164C342.995 20.9023 341.833 21.1953 340.283 21.1953C339.489 21.1953 338.812 21.14 338.252 21.0293C337.692 20.9251 337.168 20.7689 336.68 20.5605V18.0996C337.233 18.36 337.855 18.5781 338.545 18.7539C339.242 18.9297 339.854 19.0176 340.381 19.0176C341.462 19.0176 342.002 18.7051 342.002 18.0801C342.002 17.8457 341.93 17.6569 341.787 17.5137C341.644 17.3639 341.396 17.1979 341.045 17.0156C340.693 16.8268 340.225 16.6087 339.639 16.3613C338.799 16.0098 338.18 15.6842 337.783 15.3848C337.393 15.0853 337.106 14.7435 336.924 14.3594C336.748 13.9688 336.66 13.4902 336.66 12.9238C336.66 11.9538 337.035 11.2051 337.783 10.6777C338.538 10.1439 339.606 9.87695 340.986 9.87695C342.301 9.87695 343.581 10.1634 344.824 10.7363L343.926 12.8848C343.379 12.6504 342.868 12.4583 342.393 12.3086C341.917 12.1589 341.432 12.084 340.938 12.084C340.059 12.084 339.619 12.3216 339.619 12.7969C339.619 13.0638 339.759 13.2949 340.039 13.4902C340.326 13.6855 340.947 13.9753 341.904 14.3594C342.757 14.7044 343.382 15.0267 343.779 15.3262C344.176 15.6257 344.469 15.9707 344.658 16.3613C344.847 16.752 344.941 17.2174 344.941 17.7578ZM342.783 23.4414C342.783 24.2747 342.536 24.877 342.041 25.248C341.553 25.6191 340.794 25.8047 339.766 25.8047C339.258 25.8047 338.783 25.7363 338.34 25.5996V23.959C338.516 24.0046 338.75 24.0501 339.043 24.0957C339.342 24.1413 339.574 24.1641 339.736 24.1641C340.205 24.1641 340.439 23.9622 340.439 23.5586C340.439 23.0182 339.899 22.6667 338.818 22.5039L339.58 21H341.465L341.201 21.5957C341.683 21.752 342.067 21.9928 342.354 22.3184C342.64 22.6504 342.783 23.0247 342.783 23.4414ZM357.041 21H354.062V14.623C354.062 13.8353 353.929 13.2461 353.662 12.8555C353.402 12.4583 352.988 12.2598 352.422 12.2598C351.66 12.2598 351.107 12.5397 350.762 13.0996C350.417 13.6595 350.244 14.5807 350.244 15.8633V21H347.266V10.082H349.541L349.941 11.4785H350.107C350.4 10.9772 350.824 10.5866 351.377 10.3066C351.93 10.0202 352.565 9.87695 353.281 9.87695C354.915 9.87695 356.022 10.4108 356.602 11.4785H356.865C357.158 10.9707 357.588 10.5768 358.154 10.2969C358.727 10.0169 359.372 9.87695 360.088 9.87695C361.325 9.87695 362.259 10.196 362.891 10.834C363.529 11.4655 363.848 12.4811 363.848 13.8809V21H360.859V14.623C360.859 13.8353 360.726 13.2461 360.459 12.8555C360.199 12.4583 359.785 12.2598 359.219 12.2598C358.49 12.2598 357.943 12.5202 357.578 13.041C357.22 13.5618 357.041 14.3887 357.041 15.5215V21ZM373.848 21L373.271 19.5156H373.193C372.692 20.1471 372.174 20.5866 371.641 20.834C371.113 21.0749 370.423 21.1953 369.57 21.1953C368.522 21.1953 367.695 20.8958 367.09 20.2969C366.491 19.6979 366.191 18.8451 366.191 17.7383C366.191 16.5794 366.595 15.7266 367.402 15.1797C368.216 14.6263 369.44 14.3203 371.074 14.2617L372.969 14.2031V13.7246C372.969 12.6178 372.402 12.0645 371.27 12.0645C370.397 12.0645 369.372 12.3281 368.193 12.8555L367.207 10.8438C368.464 10.1862 369.857 9.85742 371.387 9.85742C372.852 9.85742 373.975 10.1764 374.756 10.8145C375.537 11.4525 375.928 12.4225 375.928 13.7246V21H373.848ZM372.969 15.9414L371.816 15.9805C370.951 16.0065 370.306 16.1628 369.883 16.4492C369.46 16.7357 369.248 17.1719 369.248 17.7578C369.248 18.5977 369.73 19.0176 370.693 19.0176C371.383 19.0176 371.934 18.819 372.344 18.4219C372.76 18.0247 372.969 17.4974 372.969 16.8398V15.9414ZM377.441 10.082H380.703L382.764 16.2246C382.939 16.7585 383.06 17.39 383.125 18.1191H383.184C383.255 17.4486 383.395 16.8171 383.604 16.2246L385.625 10.082H388.818L384.199 22.3965C383.776 23.5358 383.171 24.3887 382.383 24.9551C381.602 25.5215 380.687 25.8047 379.639 25.8047C379.124 25.8047 378.62 25.7493 378.125 25.6387V23.2754C378.483 23.36 378.874 23.4023 379.297 23.4023C379.824 23.4023 380.283 23.2396 380.674 22.9141C381.071 22.5951 381.38 22.11 381.602 21.459L381.777 20.9219L377.441 10.082ZM397.324 21L396.748 19.5156H396.67C396.169 20.1471 395.651 20.5866 395.117 20.834C394.59 21.0749 393.9 21.1953 393.047 21.1953C391.999 21.1953 391.172 20.8958 390.566 20.2969C389.967 19.6979 389.668 18.8451 389.668 17.7383C389.668 16.5794 390.072 15.7266 390.879 15.1797C391.693 14.6263 392.917 14.3203 394.551 14.2617L396.445 14.2031V13.7246C396.445 12.6178 395.879 12.0645 394.746 12.0645C393.874 12.0645 392.848 12.3281 391.67 12.8555L390.684 10.8438C391.94 10.1862 393.333 9.85742 394.863 9.85742C396.328 9.85742 397.451 10.1764 398.232 10.8145C399.014 11.4525 399.404 12.4225 399.404 13.7246V21H397.324ZM396.445 15.9414L395.293 15.9805C394.427 16.0065 393.783 16.1628 393.359 16.4492C392.936 16.7357 392.725 17.1719 392.725 17.7578C392.725 18.5977 393.206 19.0176 394.17 19.0176C394.86 19.0176 395.41 18.819 395.82 18.4219C396.237 18.0247 396.445 17.4974 396.445 16.8398V15.9414ZM412.109 21.1953C408.711 21.1953 407.012 19.3301 407.012 15.5996C407.012 13.7441 407.474 12.3281 408.398 11.3516C409.323 10.3685 410.648 9.87695 412.373 9.87695C413.636 9.87695 414.769 10.1243 415.771 10.6191L414.893 12.9238C414.424 12.735 413.988 12.582 413.584 12.4648C413.18 12.3411 412.777 12.2793 412.373 12.2793C410.824 12.2793 410.049 13.3796 410.049 15.5801C410.049 17.7155 410.824 18.7832 412.373 18.7832C412.946 18.7832 413.477 18.7083 413.965 18.5586C414.453 18.4023 414.941 18.1615 415.43 17.8359V20.3848C414.948 20.6908 414.46 20.9023 413.965 21.0195C413.477 21.1367 412.858 21.1953 412.109 21.1953ZM413.975 23.4414C413.975 24.2747 413.727 24.877 413.232 25.248C412.744 25.6191 411.986 25.8047 410.957 25.8047C410.449 25.8047 409.974 25.7363 409.531 25.5996V23.959C409.707 24.0046 409.941 24.0501 410.234 24.0957C410.534 24.1413 410.765 24.1641 410.928 24.1641C411.396 24.1641 411.631 23.9622 411.631 23.5586C411.631 23.0182 411.09 22.6667 410.01 22.5039L410.771 21H412.656L412.393 21.5957C412.874 21.752 413.258 21.9928 413.545 22.3184C413.831 22.6504 413.975 23.0247 413.975 23.4414ZM424.902 21L424.326 19.5156H424.248C423.747 20.1471 423.229 20.5866 422.695 20.834C422.168 21.0749 421.478 21.1953 420.625 21.1953C419.577 21.1953 418.75 20.8958 418.145 20.2969C417.546 19.6979 417.246 18.8451 417.246 17.7383C417.246 16.5794 417.65 15.7266 418.457 15.1797C419.271 14.6263 420.495 14.3203 422.129 14.2617L424.023 14.2031V13.7246C424.023 12.6178 423.457 12.0645 422.324 12.0645C421.452 12.0645 420.426 12.3281 419.248 12.8555L418.262 10.8438C419.518 10.1862 420.911 9.85742 422.441 9.85742C423.906 9.85742 425.029 10.1764 425.811 10.8145C426.592 11.4525 426.982 12.4225 426.982 13.7246V21H424.902ZM424.023 15.9414L422.871 15.9805C422.005 16.0065 421.361 16.1628 420.938 16.4492C420.514 16.7357 420.303 17.1719 420.303 17.7578C420.303 18.5977 420.785 19.0176 421.748 19.0176C422.438 19.0176 422.988 18.819 423.398 18.4219C423.815 18.0247 424.023 17.4974 424.023 16.8398V15.9414ZM433.037 21H430.059V5.80469H433.037V21ZM439.15 21H436.172V10.082H439.15V21ZM449.902 17.7578C449.902 18.8776 449.512 19.7305 448.73 20.3164C447.956 20.9023 446.794 21.1953 445.244 21.1953C444.45 21.1953 443.773 21.14 443.213 21.0293C442.653 20.9251 442.129 20.7689 441.641 20.5605V18.0996C442.194 18.36 442.816 18.5781 443.506 18.7539C444.202 18.9297 444.814 19.0176 445.342 19.0176C446.423 19.0176 446.963 18.7051 446.963 18.0801C446.963 17.8457 446.891 17.6569 446.748 17.5137C446.605 17.3639 446.357 17.1979 446.006 17.0156C445.654 16.8268 445.186 16.6087 444.6 16.3613C443.76 16.0098 443.141 15.6842 442.744 15.3848C442.354 15.0853 442.067 14.7435 441.885 14.3594C441.709 13.9688 441.621 13.4902 441.621 12.9238C441.621 11.9538 441.995 11.2051 442.744 10.6777C443.499 10.1439 444.567 9.87695 445.947 9.87695C447.262 9.87695 448.542 10.1634 449.785 10.7363L448.887 12.8848C448.34 12.6504 447.829 12.4583 447.354 12.3086C446.878 12.1589 446.393 12.084 445.898 12.084C445.02 12.084 444.58 12.3216 444.58 12.7969C444.58 13.0638 444.72 13.2949 445 13.4902C445.286 13.6855 445.908 13.9753 446.865 14.3594C447.718 14.7044 448.343 15.0267 448.74 15.3262C449.137 15.6257 449.43 15.9707 449.619 16.3613C449.808 16.752 449.902 17.2174 449.902 17.7578ZM447.744 23.4414C447.744 24.2747 447.497 24.877 447.002 25.248C446.514 25.6191 445.755 25.8047 444.727 25.8047C444.219 25.8047 443.743 25.7363 443.301 25.5996V23.959C443.477 24.0046 443.711 24.0501 444.004 24.0957C444.303 24.1413 444.535 24.1641 444.697 24.1641C445.166 24.1641 445.4 23.9622 445.4 23.5586C445.4 23.0182 444.86 22.6667 443.779 22.5039L444.541 21H446.426L446.162 21.5957C446.644 21.752 447.028 21.9928 447.314 22.3184C447.601 22.6504 447.744 23.0247 447.744 23.4414ZM451.807 19.6035C451.807 19.0566 451.953 18.6432 452.246 18.3633C452.539 18.0833 452.965 17.9434 453.525 17.9434C454.066 17.9434 454.482 18.0866 454.775 18.373C455.075 18.6595 455.225 19.0697 455.225 19.6035C455.225 20.1178 455.075 20.5247 454.775 20.8242C454.476 21.1172 454.059 21.2637 453.525 21.2637C452.979 21.2637 452.555 21.1204 452.256 20.834C451.956 20.541 451.807 20.1309 451.807 19.6035Z" fill="black" fill-opacity="0.75"/>
</g>
<path opacity="0.9" d="M10.0195 44.2012C10.0195 45.4577 9.5638 46.4375 8.65234 47.1406C7.74089 47.8438 6.50391 48.1953 4.94141 48.1953C3.2487 48.1953 1.94661 47.9772 1.03516 47.541V45.9395C1.62109 46.1868 2.25911 46.3822 2.94922 46.5254C3.63932 46.6686 4.32292 46.7402 5 46.7402C6.10677 46.7402 6.9401 46.5319 7.5 46.1152C8.0599 45.6921 8.33984 45.1061 8.33984 44.3574C8.33984 43.8626 8.23893 43.459 8.03711 43.1465C7.8418 42.8275 7.50977 42.5345 7.04102 42.2676C6.57878 42.0007 5.8724 41.6979 4.92188 41.3594C3.59375 40.8841 2.64323 40.321 2.07031 39.6699C1.50391 39.0189 1.2207 38.1693 1.2207 37.1211C1.2207 36.0208 1.63411 35.1452 2.46094 34.4941C3.28776 33.8431 4.38151 33.5176 5.74219 33.5176C7.16146 33.5176 8.4668 33.778 9.6582 34.2988L9.14062 35.7441C7.96224 35.2493 6.81641 35.002 5.70312 35.002C4.82422 35.002 4.13737 35.1908 3.64258 35.5684C3.14779 35.946 2.90039 36.4701 2.90039 37.1406C2.90039 37.6354 2.99154 38.0423 3.17383 38.3613C3.35612 38.6738 3.66211 38.9635 4.0918 39.2305C4.52799 39.4909 5.19206 39.7806 6.08398 40.0996C7.58138 40.6335 8.61003 41.2064 9.16992 41.8184C9.73633 42.4303 10.0195 43.2246 10.0195 44.2012ZM21.9336 42.6387C21.9336 44.3835 21.4941 45.7474 20.6152 46.7305C19.7363 47.707 18.5221 48.1953 16.9727 48.1953C16.0156 48.1953 15.166 47.9707 14.4238 47.5215C13.6816 47.0723 13.1087 46.4277 12.7051 45.5879C12.3014 44.748 12.0996 43.765 12.0996 42.6387C12.0996 40.8939 12.5358 39.5365 13.4082 38.5664C14.2806 37.5898 15.4915 37.1016 17.041 37.1016C18.5384 37.1016 19.7266 37.5996 20.6055 38.5957C21.4909 39.5918 21.9336 40.9395 21.9336 42.6387ZM13.7793 42.6387C13.7793 44.0059 14.0527 45.0475 14.5996 45.7637C15.1465 46.4798 15.9505 46.8379 17.0117 46.8379C18.0729 46.8379 18.877 46.4831 19.4238 45.7734C19.9772 45.0573 20.2539 44.0124 20.2539 42.6387C20.2539 41.278 19.9772 40.2461 19.4238 39.543C18.877 38.8333 18.0664 38.4785 16.9922 38.4785C15.931 38.4785 15.1302 38.8268 14.5898 39.5234C14.0495 40.2201 13.7793 41.2585 13.7793 42.6387ZM29.668 37.1016C30.1432 37.1016 30.5697 37.1406 30.9473 37.2188L30.7227 38.7227C30.2799 38.625 29.8893 38.5762 29.5508 38.5762C28.6849 38.5762 27.9427 38.9277 27.3242 39.6309C26.7122 40.334 26.4062 41.2096 26.4062 42.2578V48H24.7852V37.2969H26.123L26.3086 39.2793H26.3867C26.7839 38.5827 27.2624 38.0456 27.8223 37.668C28.3822 37.2904 28.9974 37.1016 29.668 37.1016ZM34.4727 37.2969V44.2402C34.4727 45.1126 34.6712 45.7637 35.0684 46.1934C35.4655 46.623 36.0872 46.8379 36.9336 46.8379C38.0534 46.8379 38.8704 46.5319 39.3848 45.9199C39.9056 45.3079 40.166 44.3086 40.166 42.9219V37.2969H41.7871V48H40.4492L40.2148 46.5645H40.127C39.7949 47.0918 39.3327 47.4954 38.7402 47.7754C38.1543 48.0553 37.4837 48.1953 36.7285 48.1953C35.4264 48.1953 34.4499 47.8861 33.7988 47.2676C33.1543 46.6491 32.832 45.6595 32.832 44.2988V37.2969H34.4727ZM46.8555 48H45.2344V32.8047H46.8555V48ZM56.875 48L56.5527 46.4766H56.4746C55.9408 47.1471 55.4069 47.6029 54.873 47.8438C54.3457 48.0781 53.6849 48.1953 52.8906 48.1953C51.8294 48.1953 50.9961 47.9219 50.3906 47.375C49.7917 46.8281 49.4922 46.0501 49.4922 45.041C49.4922 42.8796 51.2207 41.7467 54.6777 41.6426L56.4941 41.584V40.9199C56.4941 40.0801 56.3118 39.4616 55.9473 39.0645C55.5892 38.6608 55.013 38.459 54.2188 38.459C53.3268 38.459 52.3177 38.7324 51.1914 39.2793L50.6934 38.0391C51.2207 37.7526 51.7969 37.528 52.4219 37.3652C53.0534 37.2025 53.6849 37.1211 54.3164 37.1211C55.5924 37.1211 56.5365 37.4043 57.1484 37.9707C57.7669 38.5371 58.0762 39.4453 58.0762 40.6953V48H56.875ZM53.2129 46.8574C54.222 46.8574 55.013 46.5807 55.5859 46.0273C56.1654 45.474 56.4551 44.6992 56.4551 43.7031V42.7363L54.834 42.8047C53.5449 42.8503 52.6139 43.0521 52.041 43.4102C51.4746 43.7617 51.1914 44.3118 51.1914 45.0605C51.1914 45.6465 51.3672 46.0924 51.7188 46.3984C52.0768 46.7044 52.5749 46.8574 53.2129 46.8574ZM66.3086 37.1016C66.7839 37.1016 67.2103 37.1406 67.5879 37.2188L67.3633 38.7227C66.9206 38.625 66.5299 38.5762 66.1914 38.5762C65.3255 38.5762 64.5833 38.9277 63.9648 39.6309C63.3529 40.334 63.0469 41.2096 63.0469 42.2578V48H61.4258V37.2969H62.7637L62.9492 39.2793H63.0273C63.4245 38.5827 63.903 38.0456 64.4629 37.668C65.0228 37.2904 65.638 37.1016 66.3086 37.1016ZM71.2109 48H69.5898V37.2969H71.2109V48ZM87.168 48V41.0762C87.168 40.2038 86.9694 39.5527 86.5723 39.123C86.1751 38.6934 85.5534 38.4785 84.707 38.4785C83.5872 38.4785 82.7669 38.7812 82.2461 39.3867C81.7253 39.9922 81.4648 40.9915 81.4648 42.3848V48H79.8438V37.2969H81.1621L81.4258 38.7617H81.5039C81.8359 38.2344 82.3014 37.8275 82.9004 37.541C83.4993 37.248 84.1667 37.1016 84.9023 37.1016C86.1914 37.1016 87.1615 37.4141 87.8125 38.0391C88.4635 38.6576 88.7891 39.6504 88.7891 41.0176V48H87.168ZM96.6504 48.1953C95.0684 48.1953 93.8184 47.7135 92.9004 46.75C91.9889 45.7865 91.5332 44.4486 91.5332 42.7363C91.5332 41.0111 91.9564 39.6406 92.8027 38.625C93.6556 37.6094 94.7982 37.1016 96.2305 37.1016C97.5716 37.1016 98.6328 37.5443 99.4141 38.4297C100.195 39.3086 100.586 40.4707 100.586 41.916V42.9414H93.2129C93.2454 44.1979 93.5612 45.1517 94.1602 45.8027C94.7656 46.4538 95.6152 46.7793 96.709 46.7793C97.8613 46.7793 99.0007 46.5384 100.127 46.0566V47.502C99.554 47.7493 99.0104 47.9251 98.4961 48.0293C97.9883 48.14 97.373 48.1953 96.6504 48.1953ZM96.2109 38.459C95.3516 38.459 94.6647 38.7389 94.1504 39.2988C93.6426 39.8587 93.3431 40.6335 93.252 41.623H98.8477C98.8477 40.6009 98.6198 39.8197 98.1641 39.2793C97.7083 38.7324 97.0573 38.459 96.2109 38.459ZM110.156 42.5215C110.436 42.1243 110.863 41.6035 111.436 40.959L114.893 37.2969H116.816L112.48 41.8574L117.119 48H115.156L111.377 42.9414L110.156 43.9961V48H108.555V32.8047H110.156V40.8613C110.156 41.2194 110.13 41.7728 110.078 42.5215H110.156ZM125.645 48L125.322 46.4766H125.244C124.71 47.1471 124.176 47.6029 123.643 47.8438C123.115 48.0781 122.454 48.1953 121.66 48.1953C120.599 48.1953 119.766 47.9219 119.16 47.375C118.561 46.8281 118.262 46.0501 118.262 45.041C118.262 42.8796 119.99 41.7467 123.447 41.6426L125.264 41.584V40.9199C125.264 40.0801 125.081 39.4616 124.717 39.0645C124.359 38.6608 123.783 38.459 122.988 38.459C122.096 38.459 121.087 38.7324 119.961 39.2793L119.463 38.0391C119.99 37.7526 120.566 37.528 121.191 37.3652C121.823 37.2025 122.454 37.1211 123.086 37.1211C124.362 37.1211 125.306 37.4043 125.918 37.9707C126.536 38.5371 126.846 39.4453 126.846 40.6953V48H125.645ZM121.982 46.8574C122.992 46.8574 123.783 46.5807 124.355 46.0273C124.935 45.474 125.225 44.6992 125.225 43.7031V42.7363L123.604 42.8047C122.314 42.8503 121.383 43.0521 120.811 43.4102C120.244 43.7617 119.961 44.3118 119.961 45.0605C119.961 45.6465 120.137 46.0924 120.488 46.3984C120.846 46.7044 121.344 46.8574 121.982 46.8574ZM137.48 46.5645H137.393C136.644 47.6517 135.524 48.1953 134.033 48.1953C132.633 48.1953 131.543 47.7168 130.762 46.7598C129.987 45.8027 129.6 44.4421 129.6 42.6777C129.6 40.9134 129.99 39.543 130.771 38.5664C131.553 37.5898 132.64 37.1016 134.033 37.1016C135.485 37.1016 136.598 37.6289 137.373 38.6836H137.5L137.432 37.9121L137.393 37.1602V32.8047H139.014V48H137.695L137.48 46.5645ZM134.238 46.8379C135.345 46.8379 136.146 46.5384 136.641 45.9395C137.142 45.334 137.393 44.3607 137.393 43.0195V42.6777C137.393 41.1608 137.139 40.0801 136.631 39.4355C136.13 38.7845 135.326 38.459 134.219 38.459C133.268 38.459 132.539 38.8301 132.031 39.5723C131.53 40.3079 131.279 41.3496 131.279 42.6973C131.279 44.0645 131.53 45.0964 132.031 45.793C132.533 46.4896 133.268 46.8379 134.238 46.8379ZM149.043 48L148.721 46.4766H148.643C148.109 47.1471 147.575 47.6029 147.041 47.8438C146.514 48.0781 145.853 48.1953 145.059 48.1953C143.997 48.1953 143.164 47.9219 142.559 47.375C141.96 46.8281 141.66 46.0501 141.66 45.041C141.66 42.8796 143.389 41.7467 146.846 41.6426L148.662 41.584V40.9199C148.662 40.0801 148.48 39.4616 148.115 39.0645C147.757 38.6608 147.181 38.459 146.387 38.459C145.495 38.459 144.486 38.7324 143.359 39.2793L142.861 38.0391C143.389 37.7526 143.965 37.528 144.59 37.3652C145.221 37.2025 145.853 37.1211 146.484 37.1211C147.76 37.1211 148.704 37.4043 149.316 37.9707C149.935 38.5371 150.244 39.4453 150.244 40.6953V48H149.043ZM145.381 46.8574C146.39 46.8574 147.181 46.5807 147.754 46.0273C148.333 45.474 148.623 44.6992 148.623 43.7031V42.7363L147.002 42.8047C145.713 42.8503 144.782 43.0521 144.209 43.4102C143.643 43.7617 143.359 44.3118 143.359 45.0605C143.359 45.6465 143.535 46.0924 143.887 46.3984C144.245 46.7044 144.743 46.8574 145.381 46.8574ZM158.477 37.1016C158.952 37.1016 159.378 37.1406 159.756 37.2188L159.531 38.7227C159.089 38.625 158.698 38.5762 158.359 38.5762C157.493 38.5762 156.751 38.9277 156.133 39.6309C155.521 40.334 155.215 41.2096 155.215 42.2578V48H153.594V37.2969H154.932L155.117 39.2793H155.195C155.592 38.5827 156.071 38.0456 156.631 37.668C157.191 37.2904 157.806 37.1016 158.477 37.1016ZM174.277 48V41.0762C174.277 40.2038 174.079 39.5527 173.682 39.123C173.285 38.6934 172.663 38.4785 171.816 38.4785C170.69 38.4785 169.867 38.7845 169.346 39.3965C168.831 40.0085 168.574 41.0111 168.574 42.4043V48H166.953V32.8047H168.574V37.4043C168.574 37.9577 168.548 38.4167 168.496 38.7812H168.594C168.913 38.2669 169.365 37.8633 169.951 37.5703C170.544 37.2708 171.217 37.1211 171.973 37.1211C173.281 37.1211 174.261 37.4336 174.912 38.0586C175.57 38.6771 175.898 39.6634 175.898 41.0176V48H174.277ZM180.859 48H179.238V37.2969H180.859V48ZM191.143 48H183.379V46.8965L189.219 38.5566H183.74V37.2969H190.996V38.5566L185.234 46.7402H191.143V48ZM195.273 48H193.652V32.8047H195.273V48ZM200.332 48H198.711V37.2969H200.332V48ZM213.242 48.1953C211.693 48.1953 210.492 47.7201 209.639 46.7695C208.792 45.8125 208.369 44.4616 208.369 42.7168C208.369 40.9264 208.799 39.543 209.658 38.5664C210.524 37.5898 211.755 37.1016 213.35 37.1016C213.864 37.1016 214.378 37.1569 214.893 37.2676C215.407 37.3783 215.811 37.5085 216.104 37.6582L215.605 39.0352C215.247 38.8919 214.857 38.7747 214.434 38.6836C214.01 38.5859 213.636 38.5371 213.311 38.5371C211.136 38.5371 210.049 39.9238 210.049 42.6973C210.049 44.0124 210.312 45.0215 210.84 45.7246C211.374 46.4277 212.161 46.7793 213.203 46.7793C214.095 46.7793 215.01 46.5872 215.947 46.2031V47.6387C215.231 48.0098 214.329 48.1953 213.242 48.1953ZM214.688 50.8223C214.688 51.4538 214.437 51.9421 213.936 52.2871C213.441 52.6322 212.705 52.8047 211.729 52.8047C211.396 52.8047 211.084 52.7754 210.791 52.7168V51.6816C211.084 51.7337 211.423 51.7598 211.807 51.7598C212.321 51.7598 212.708 51.6947 212.969 51.5645C213.236 51.4342 213.369 51.1934 213.369 50.8418C213.369 50.5618 213.239 50.334 212.979 50.1582C212.725 49.9889 212.243 49.849 211.533 49.7383L212.393 48H213.467L212.93 49.123C214.102 49.377 214.688 49.9434 214.688 50.8223ZM227.734 42.6387C227.734 44.3835 227.295 45.7474 226.416 46.7305C225.537 47.707 224.323 48.1953 222.773 48.1953C221.816 48.1953 220.967 47.9707 220.225 47.5215C219.482 47.0723 218.91 46.4277 218.506 45.5879C218.102 44.748 217.9 43.765 217.9 42.6387C217.9 40.8939 218.337 39.5365 219.209 38.5664C220.081 37.5898 221.292 37.1016 222.842 37.1016C224.339 37.1016 225.527 37.5996 226.406 38.5957C227.292 39.5918 227.734 40.9395 227.734 42.6387ZM219.58 42.6387C219.58 44.0059 219.854 45.0475 220.4 45.7637C220.947 46.4798 221.751 46.8379 222.812 46.8379C223.874 46.8379 224.678 46.4831 225.225 45.7734C225.778 45.0573 226.055 44.0124 226.055 42.6387C226.055 41.278 225.778 40.2461 225.225 39.543C224.678 38.8333 223.867 38.4785 222.793 38.4785C221.732 38.4785 220.931 38.8268 220.391 39.5234C219.85 40.2201 219.58 41.2585 219.58 42.6387ZM220.059 34.3965C220.059 34.0579 220.143 33.8138 220.312 33.6641C220.488 33.5143 220.697 33.4395 220.938 33.4395C221.185 33.4395 221.396 33.5143 221.572 33.6641C221.755 33.8138 221.846 34.0579 221.846 34.3965C221.846 34.722 221.755 34.9661 221.572 35.1289C221.396 35.2852 221.185 35.3633 220.938 35.3633C220.697 35.3633 220.488 35.2852 220.312 35.1289C220.143 34.9661 220.059 34.722 220.059 34.3965ZM223.779 34.3965C223.779 34.0579 223.864 33.8138 224.033 33.6641C224.209 33.5143 224.417 33.4395 224.658 33.4395C224.899 33.4395 225.107 33.5143 225.283 33.6641C225.465 33.8138 225.557 34.0579 225.557 34.3965C225.557 34.722 225.465 34.9661 225.283 35.1289C225.107 35.2852 224.899 35.3633 224.658 35.3633C224.417 35.3633 224.209 35.2852 224.033 35.1289C223.864 34.9661 223.779 34.722 223.779 34.3965ZM237.432 48H229.668V46.8965L235.508 38.5566H230.029V37.2969H237.285V38.5566L231.523 46.7402H237.432V48ZM244.463 48.1953C242.881 48.1953 241.631 47.7135 240.713 46.75C239.801 45.7865 239.346 44.4486 239.346 42.7363C239.346 41.0111 239.769 39.6406 240.615 38.625C241.468 37.6094 242.611 37.1016 244.043 37.1016C245.384 37.1016 246.445 37.5443 247.227 38.4297C248.008 39.3086 248.398 40.4707 248.398 41.916V42.9414H241.025C241.058 44.1979 241.374 45.1517 241.973 45.8027C242.578 46.4538 243.428 46.7793 244.521 46.7793C245.674 46.7793 246.813 46.5384 247.939 46.0566V47.502C247.367 47.7493 246.823 47.9251 246.309 48.0293C245.801 48.14 245.186 48.1953 244.463 48.1953ZM244.023 38.459C243.164 38.459 242.477 38.7389 241.963 39.2988C241.455 39.8587 241.156 40.6335 241.064 41.623H246.66C246.66 40.6009 246.432 39.8197 245.977 39.2793C245.521 38.7324 244.87 38.459 244.023 38.459ZM256.055 37.1016C256.53 37.1016 256.956 37.1406 257.334 37.2188L257.109 38.7227C256.667 38.625 256.276 38.5762 255.938 38.5762C255.072 38.5762 254.329 38.9277 253.711 39.6309C253.099 40.334 252.793 41.2096 252.793 42.2578V48H251.172V37.2969H252.51L252.695 39.2793H252.773C253.171 38.5827 253.649 38.0456 254.209 37.668C254.769 37.2904 255.384 37.1016 256.055 37.1016ZM266.24 45.0801C266.24 46.0762 265.869 46.8444 265.127 47.3848C264.385 47.9251 263.343 48.1953 262.002 48.1953C260.583 48.1953 259.476 47.9707 258.682 47.5215V46.0176C259.196 46.278 259.746 46.4831 260.332 46.6328C260.924 46.7826 261.494 46.8574 262.041 46.8574C262.887 46.8574 263.538 46.724 263.994 46.457C264.45 46.1836 264.678 45.7702 264.678 45.2168C264.678 44.8001 264.495 44.4453 264.131 44.1523C263.773 43.8529 263.07 43.5013 262.021 43.0977C261.025 42.7266 260.316 42.4043 259.893 42.1309C259.476 41.8509 259.163 41.5352 258.955 41.1836C258.753 40.832 258.652 40.4121 258.652 39.9238C258.652 39.0514 259.007 38.3646 259.717 37.8633C260.426 37.3555 261.4 37.1016 262.637 37.1016C263.789 37.1016 264.915 37.3359 266.016 37.8047L265.439 39.123C264.365 38.6803 263.392 38.459 262.52 38.459C261.751 38.459 261.172 38.5794 260.781 38.8203C260.391 39.0612 260.195 39.3932 260.195 39.8164C260.195 40.1029 260.267 40.347 260.41 40.5488C260.56 40.7507 260.798 40.9427 261.123 41.125C261.449 41.3073 262.074 41.571 262.998 41.916C264.268 42.3783 265.124 42.8438 265.566 43.3125C266.016 43.7812 266.24 44.3704 266.24 45.0801ZM273.408 48.1953C271.826 48.1953 270.576 47.7135 269.658 46.75C268.747 45.7865 268.291 44.4486 268.291 42.7363C268.291 41.0111 268.714 39.6406 269.561 38.625C270.413 37.6094 271.556 37.1016 272.988 37.1016C274.329 37.1016 275.391 37.5443 276.172 38.4297C276.953 39.3086 277.344 40.4707 277.344 41.916V42.9414H269.971C270.003 44.1979 270.319 45.1517 270.918 45.8027C271.523 46.4538 272.373 46.7793 273.467 46.7793C274.619 46.7793 275.758 46.5384 276.885 46.0566V47.502C276.312 47.7493 275.768 47.9251 275.254 48.0293C274.746 48.14 274.131 48.1953 273.408 48.1953ZM272.969 38.459C272.109 38.459 271.423 38.7389 270.908 39.2988C270.4 39.8587 270.101 40.6335 270.01 41.623H275.605C275.605 40.6009 275.378 39.8197 274.922 39.2793C274.466 38.7324 273.815 38.459 272.969 38.459ZM287.441 48V41.0762C287.441 40.2038 287.243 39.5527 286.846 39.123C286.449 38.6934 285.827 38.4785 284.98 38.4785C283.861 38.4785 283.04 38.7812 282.52 39.3867C281.999 39.9922 281.738 40.9915 281.738 42.3848V48H280.117V37.2969H281.436L281.699 38.7617H281.777C282.109 38.2344 282.575 37.8275 283.174 37.541C283.773 37.248 284.44 37.1016 285.176 37.1016C286.465 37.1016 287.435 37.4141 288.086 38.0391C288.737 38.6576 289.062 39.6504 289.062 41.0176V48H287.441ZM294.102 45.6758L294.248 45.9004C294.079 46.5514 293.835 47.3066 293.516 48.166C293.197 49.0319 292.865 49.8359 292.52 50.5781H291.299C291.475 49.901 291.667 49.0645 291.875 48.0684C292.09 47.0723 292.24 46.2747 292.324 45.6758H294.102ZM311.738 42.6387C311.738 44.3835 311.299 45.7474 310.42 46.7305C309.541 47.707 308.327 48.1953 306.777 48.1953C305.82 48.1953 304.971 47.9707 304.229 47.5215C303.486 47.0723 302.913 46.4277 302.51 45.5879C302.106 44.748 301.904 43.765 301.904 42.6387C301.904 40.8939 302.34 39.5365 303.213 38.5664C304.085 37.5898 305.296 37.1016 306.846 37.1016C308.343 37.1016 309.531 37.5996 310.41 38.5957C311.296 39.5918 311.738 40.9395 311.738 42.6387ZM303.584 42.6387C303.584 44.0059 303.857 45.0475 304.404 45.7637C304.951 46.4798 305.755 46.8379 306.816 46.8379C307.878 46.8379 308.682 46.4831 309.229 45.7734C309.782 45.0573 310.059 44.0124 310.059 42.6387C310.059 41.278 309.782 40.2461 309.229 39.543C308.682 38.8333 307.871 38.4785 306.797 38.4785C305.736 38.4785 304.935 38.8268 304.395 39.5234C303.854 40.2201 303.584 41.2585 303.584 42.6387ZM321.387 42.5215C321.667 42.1243 322.093 41.6035 322.666 40.959L326.123 37.2969H328.047L323.711 41.8574L328.35 48H326.387L322.607 42.9414L321.387 43.9961V48H319.785V32.8047H321.387V40.8613C321.387 41.2194 321.361 41.7728 321.309 42.5215H321.387ZM336.875 48L336.553 46.4766H336.475C335.941 47.1471 335.407 47.6029 334.873 47.8438C334.346 48.0781 333.685 48.1953 332.891 48.1953C331.829 48.1953 330.996 47.9219 330.391 47.375C329.792 46.8281 329.492 46.0501 329.492 45.041C329.492 42.8796 331.221 41.7467 334.678 41.6426L336.494 41.584V40.9199C336.494 40.0801 336.312 39.4616 335.947 39.0645C335.589 38.6608 335.013 38.459 334.219 38.459C333.327 38.459 332.318 38.7324 331.191 39.2793L330.693 38.0391C331.221 37.7526 331.797 37.528 332.422 37.3652C333.053 37.2025 333.685 37.1211 334.316 37.1211C335.592 37.1211 336.536 37.4043 337.148 37.9707C337.767 38.5371 338.076 39.4453 338.076 40.6953V48H336.875ZM333.213 46.8574C334.222 46.8574 335.013 46.5807 335.586 46.0273C336.165 45.474 336.455 44.6992 336.455 43.7031V42.7363L334.834 42.8047C333.545 42.8503 332.614 43.0521 332.041 43.4102C331.475 43.7617 331.191 44.3118 331.191 45.0605C331.191 45.6465 331.367 46.0924 331.719 46.3984C332.077 46.7044 332.575 46.8574 333.213 46.8574ZM348.711 46.5645H348.623C347.874 47.6517 346.755 48.1953 345.264 48.1953C343.864 48.1953 342.773 47.7168 341.992 46.7598C341.217 45.8027 340.83 44.4421 340.83 42.6777C340.83 40.9134 341.221 39.543 342.002 38.5664C342.783 37.5898 343.87 37.1016 345.264 37.1016C346.715 37.1016 347.829 37.6289 348.604 38.6836H348.73L348.662 37.9121L348.623 37.1602V32.8047H350.244V48H348.926L348.711 46.5645ZM345.469 46.8379C346.576 46.8379 347.376 46.5384 347.871 45.9395C348.372 45.334 348.623 44.3607 348.623 43.0195V42.6777C348.623 41.1608 348.369 40.0801 347.861 39.4355C347.36 38.7845 346.556 38.459 345.449 38.459C344.499 38.459 343.77 38.8301 343.262 39.5723C342.76 40.3079 342.51 41.3496 342.51 42.6973C342.51 44.0645 342.76 45.0964 343.262 45.793C343.763 46.4896 344.499 46.8379 345.469 46.8379ZM360.273 48L359.951 46.4766H359.873C359.339 47.1471 358.805 47.6029 358.271 47.8438C357.744 48.0781 357.083 48.1953 356.289 48.1953C355.228 48.1953 354.395 47.9219 353.789 47.375C353.19 46.8281 352.891 46.0501 352.891 45.041C352.891 42.8796 354.619 41.7467 358.076 41.6426L359.893 41.584V40.9199C359.893 40.0801 359.71 39.4616 359.346 39.0645C358.988 38.6608 358.411 38.459 357.617 38.459C356.725 38.459 355.716 38.7324 354.59 39.2793L354.092 38.0391C354.619 37.7526 355.195 37.528 355.82 37.3652C356.452 37.2025 357.083 37.1211 357.715 37.1211C358.991 37.1211 359.935 37.4043 360.547 37.9707C361.165 38.5371 361.475 39.4453 361.475 40.6953V48H360.273ZM356.611 46.8574C357.62 46.8574 358.411 46.5807 358.984 46.0273C359.564 45.474 359.854 44.6992 359.854 43.7031V42.7363L358.232 42.8047C356.943 42.8503 356.012 43.0521 355.439 43.4102C354.873 43.7617 354.59 44.3118 354.59 45.0605C354.59 45.6465 354.766 46.0924 355.117 46.3984C355.475 46.7044 355.973 46.8574 356.611 46.8574ZM369.707 37.1016C370.182 37.1016 370.609 37.1406 370.986 37.2188L370.762 38.7227C370.319 38.625 369.928 38.5762 369.59 38.5762C368.724 38.5762 367.982 38.9277 367.363 39.6309C366.751 40.334 366.445 41.2096 366.445 42.2578V48H364.824V37.2969H366.162L366.348 39.2793H366.426C366.823 38.5827 367.301 38.0456 367.861 37.668C368.421 37.2904 369.036 37.1016 369.707 37.1016ZM385.508 48V41.0762C385.508 40.2038 385.309 39.5527 384.912 39.123C384.515 38.6934 383.893 38.4785 383.047 38.4785C381.921 38.4785 381.097 38.7845 380.576 39.3965C380.062 40.0085 379.805 41.0111 379.805 42.4043V48H378.184V32.8047H379.805V37.4043C379.805 37.9577 379.779 38.4167 379.727 38.7812H379.824C380.143 38.2669 380.596 37.8633 381.182 37.5703C381.774 37.2708 382.448 37.1211 383.203 37.1211C384.512 37.1211 385.492 37.4336 386.143 38.0586C386.8 38.6771 387.129 39.6634 387.129 41.0176V48H385.508ZM392.09 48H390.469V37.2969H392.09V48ZM402.373 48H394.609V46.8965L400.449 38.5566H394.971V37.2969H402.227V38.5566L396.465 46.7402H402.373V48ZM406.504 48H404.883V32.8047H406.504V48ZM411.562 48H409.941V37.2969H411.562V48ZM418.496 37.2969H420.234L422.578 43.4004C423.092 44.7936 423.411 45.7995 423.535 46.418H423.613C423.698 46.0859 423.874 45.5195 424.141 44.7188C424.414 43.9115 425.299 41.4375 426.797 37.2969H428.535L423.936 49.4844C423.48 50.6888 422.946 51.5417 422.334 52.043C421.729 52.5508 420.983 52.8047 420.098 52.8047C419.603 52.8047 419.115 52.7493 418.633 52.6387V51.3398C418.991 51.418 419.391 51.457 419.834 51.457C420.947 51.457 421.742 50.832 422.217 49.582L422.812 48.0586L418.496 37.2969ZM439.512 42.6387C439.512 44.3835 439.072 45.7474 438.193 46.7305C437.314 47.707 436.1 48.1953 434.551 48.1953C433.594 48.1953 432.744 47.9707 432.002 47.5215C431.26 47.0723 430.687 46.4277 430.283 45.5879C429.88 44.748 429.678 43.765 429.678 42.6387C429.678 40.8939 430.114 39.5365 430.986 38.5664C431.859 37.5898 433.07 37.1016 434.619 37.1016C436.117 37.1016 437.305 37.5996 438.184 38.5957C439.069 39.5918 439.512 40.9395 439.512 42.6387ZM431.357 42.6387C431.357 44.0059 431.631 45.0475 432.178 45.7637C432.725 46.4798 433.529 46.8379 434.59 46.8379C435.651 46.8379 436.455 46.4831 437.002 45.7734C437.555 45.0573 437.832 44.0124 437.832 42.6387C437.832 41.278 437.555 40.2461 437.002 39.543C436.455 38.8333 435.645 38.4785 434.57 38.4785C433.509 38.4785 432.708 38.8268 432.168 39.5234C431.628 40.2201 431.357 41.2585 431.357 42.6387ZM443.984 48H442.363V32.8047H443.984V48ZM459.199 48L458.877 46.4766H458.799C458.265 47.1471 457.731 47.6029 457.197 47.8438C456.67 48.0781 456.009 48.1953 455.215 48.1953C454.154 48.1953 453.32 47.9219 452.715 47.375C452.116 46.8281 451.816 46.0501 451.816 45.041C451.816 42.8796 453.545 41.7467 457.002 41.6426L458.818 41.584V40.9199C458.818 40.0801 458.636 39.4616 458.271 39.0645C457.913 38.6608 457.337 38.459 456.543 38.459C455.651 38.459 454.642 38.7324 453.516 39.2793L453.018 38.0391C453.545 37.7526 454.121 37.528 454.746 37.3652C455.378 37.2025 456.009 37.1211 456.641 37.1211C457.917 37.1211 458.861 37.4043 459.473 37.9707C460.091 38.5371 460.4 39.4453 460.4 40.6953V48H459.199ZM455.537 46.8574C456.546 46.8574 457.337 46.5807 457.91 46.0273C458.49 45.474 458.779 44.6992 458.779 43.7031V42.7363L457.158 42.8047C455.869 42.8503 454.938 43.0521 454.365 43.4102C453.799 43.7617 453.516 44.3118 453.516 45.0605C453.516 45.6465 453.691 46.0924 454.043 46.3984C454.401 46.7044 454.899 46.8574 455.537 46.8574ZM465.371 48H463.75V32.8047H465.371V48ZM470.43 48H468.809V37.2969H470.43V48ZM478.75 37.1016C479.225 37.1016 479.652 37.1406 480.029 37.2188L479.805 38.7227C479.362 38.625 478.971 38.5762 478.633 38.5762C477.767 38.5762 477.025 38.9277 476.406 39.6309C475.794 40.334 475.488 41.2096 475.488 42.2578V48H473.867V37.2969H475.205L475.391 39.2793H475.469C475.866 38.5827 476.344 38.0456 476.904 37.668C477.464 37.2904 478.079 37.1016 478.75 37.1016ZM488.936 45.0801C488.936 46.0762 488.564 46.8444 487.822 47.3848C487.08 47.9251 486.038 48.1953 484.697 48.1953C483.278 48.1953 482.171 47.9707 481.377 47.5215V46.0176C481.891 46.278 482.441 46.4831 483.027 46.6328C483.62 46.7826 484.189 46.8574 484.736 46.8574C485.583 46.8574 486.234 46.724 486.689 46.457C487.145 46.1836 487.373 45.7702 487.373 45.2168C487.373 44.8001 487.191 44.4453 486.826 44.1523C486.468 43.8529 485.765 43.5013 484.717 43.0977C483.721 42.7266 483.011 42.4043 482.588 42.1309C482.171 41.8509 481.859 41.5352 481.65 41.1836C481.449 40.832 481.348 40.4121 481.348 39.9238C481.348 39.0514 481.702 38.3646 482.412 37.8633C483.122 37.3555 484.095 37.1016 485.332 37.1016C486.484 37.1016 487.611 37.3359 488.711 37.8047L488.135 39.123C487.061 38.6803 486.087 38.459 485.215 38.459C484.447 38.459 483.867 38.5794 483.477 38.8203C483.086 39.0612 482.891 39.3932 482.891 39.8164C482.891 40.1029 482.962 40.347 483.105 40.5488C483.255 40.7507 483.493 40.9427 483.818 41.125C484.144 41.3073 484.769 41.571 485.693 41.916C486.963 42.3783 487.819 42.8438 488.262 43.3125C488.711 43.7812 488.936 44.3704 488.936 45.0801ZM493.203 48H491.582V37.2969H493.203V48ZM503.965 48V41.0762C503.965 40.2038 503.766 39.5527 503.369 39.123C502.972 38.6934 502.35 38.4785 501.504 38.4785C500.384 38.4785 499.564 38.7812 499.043 39.3867C498.522 39.9922 498.262 40.9915 498.262 42.3848V48H496.641V37.2969H497.959L498.223 38.7617H498.301C498.633 38.2344 499.098 37.8275 499.697 37.541C500.296 37.248 500.964 37.1016 501.699 37.1016C502.988 37.1016 503.958 37.4141 504.609 38.0391C505.26 38.6576 505.586 39.6504 505.586 41.0176V48H503.965ZM508.691 46.9648C508.691 46.5286 508.789 46.1999 508.984 45.9785C509.186 45.7507 509.473 45.6367 509.844 45.6367C510.221 45.6367 510.514 45.7507 510.723 45.9785C510.938 46.1999 511.045 46.5286 511.045 46.9648C511.045 47.388 510.938 47.7135 510.723 47.9414C510.508 48.1693 510.215 48.2832 509.844 48.2832C509.512 48.2832 509.235 48.1823 509.014 47.9805C508.799 47.7721 508.691 47.4336 508.691 46.9648Z" fill="black" fill-opacity="0.75"/>
<defs>
<filter id="filter0_d" x="56.7969" y="5.69727" width="398.428" height="21.1074" filterUnits="userSpaceOnUse" color-interpolation-filters="sRGB">
<feFlood flood-opacity="0" result="BackgroundImageFix"/>
<feColorMatrix in="SourceAlpha" type="matrix" values="0 0 0 0 0 0 0 0 0 0 0 0 0 0 0 0 0 0 127 0"/>
<feOffset dy="1"/>
<feColorMatrix type="matrix" values="0 0 0 0 1 0 0 0 0 1 0 0 0 0 1 0 0 0 0.25 0"/>
<feBlend mode="normal" in2="BackgroundImageFix" result="effect1_dropShadow"/>
<feBlend mode="normal" in="SourceGraphic" in2="effect1_dropShadow" result="shape"/>
</filter>
</defs>
</svg>
