<svg width="228" height="91" viewBox="0 0 228 91" fill="none" xmlns="http://www.w3.org/2000/svg">
<g filter="url(#filter0_d)">
<rect x="14" y="14" width="200" height="63" rx="25" fill="#FF9D11"/>
</g>
<rect x="14" y="14" width="200" height="60" rx="25" fill="url(#paint0_linear)"/>
<path opacity="0.9" d="M42.3984 44.1875L45.3574 37.7812H48.5605L43.8926 46.8438V52H40.9141V46.8438L36.2461 37.7812H39.459L42.3984 44.1875ZM56.4219 49.0703H51.2852L50.3086 52H47.1934L52.4863 37.7812H55.2012L60.5234 52H57.4082L56.4219 49.0703ZM52.0762 46.6973H55.6309L53.8438 41.375L52.0762 46.6973ZM67.1152 46.7949H64.7812V52H61.8516V37.7812H67.1348C68.8145 37.7812 70.11 38.1556 71.0215 38.9043C71.9329 39.653 72.3887 40.7109 72.3887 42.0781C72.3887 43.0482 72.1771 43.8587 71.7539 44.5098C71.3372 45.1543 70.7025 45.6686 69.8496 46.0527L72.9258 51.8633V52H69.7812L67.1152 46.7949ZM64.7812 44.4219H67.1445C67.8802 44.4219 68.4499 44.2363 68.8535 43.8652C69.2572 43.4876 69.459 42.9701 69.459 42.3125C69.459 41.6419 69.2669 41.1146 68.8828 40.7305C68.5052 40.3464 67.9225 40.1543 67.1348 40.1543H64.7812V44.4219ZM77.7402 52H74.8105V37.7812H77.7402V52ZM87.8379 48.2695C87.8379 47.7161 87.6426 47.293 87.252 47C86.8613 46.7005 86.1582 46.388 85.1426 46.0625C84.127 45.7305 83.3229 45.4049 82.7305 45.0859C81.1159 44.2135 80.3086 43.0384 80.3086 41.5605C80.3086 40.7923 80.5234 40.1087 80.9531 39.5098C81.3893 38.9043 82.0111 38.4323 82.8184 38.0938C83.6322 37.7552 84.5436 37.5859 85.5527 37.5859C86.5684 37.5859 87.4733 37.7715 88.2676 38.1426C89.0618 38.5072 89.6771 39.0247 90.1133 39.6953C90.556 40.3659 90.7773 41.1276 90.7773 41.9805H87.8477C87.8477 41.3294 87.6426 40.8249 87.2324 40.4668C86.8223 40.1022 86.2461 39.9199 85.5039 39.9199C84.7878 39.9199 84.2311 40.0729 83.834 40.3789C83.4368 40.6784 83.2383 41.0755 83.2383 41.5703C83.2383 42.0326 83.4694 42.4199 83.9316 42.7324C84.4004 43.0449 85.0872 43.3379 85.9922 43.6113C87.6589 44.1126 88.873 44.7344 89.6348 45.4766C90.3965 46.2188 90.7773 47.1432 90.7773 48.25C90.7773 49.4805 90.3118 50.4473 89.3809 51.1504C88.4499 51.847 87.1966 52.1953 85.6211 52.1953C84.5273 52.1953 83.5312 51.9967 82.6328 51.5996C81.7344 51.196 81.0475 50.6458 80.5723 49.9492C80.1035 49.2526 79.8691 48.4453 79.8691 47.5273H82.8086C82.8086 49.0964 83.7461 49.8809 85.6211 49.8809C86.3177 49.8809 86.8613 49.7409 87.252 49.4609C87.6426 49.1745 87.8379 48.7773 87.8379 48.2695ZM86.627 51.9316L86.5195 52.498C87.4961 52.6738 87.9844 53.237 87.9844 54.1875C87.9844 54.9036 87.6849 55.4701 87.0859 55.8867C86.4935 56.3034 85.6569 56.5117 84.5762 56.5117L84.5078 54.8809C85.237 54.8809 85.6016 54.6172 85.6016 54.0898C85.6016 53.8164 85.4909 53.6276 85.2695 53.5234C85.0547 53.4258 84.7031 53.3607 84.2148 53.3281L84.5176 51.9316H86.627ZM97.75 52V37.7812H102.73C104.456 37.7812 105.764 38.1133 106.656 38.7773C107.548 39.4349 107.994 40.4017 107.994 41.6777C107.994 42.3743 107.815 42.9896 107.457 43.5234C107.099 44.0508 106.601 44.4382 105.963 44.6855C106.692 44.8678 107.265 45.2357 107.682 45.7891C108.105 46.3424 108.316 47.0195 108.316 47.8203C108.316 49.1875 107.88 50.2227 107.008 50.9258C106.135 51.6289 104.892 51.987 103.277 52H97.75ZM100.68 45.8086V49.6465H103.189C103.88 49.6465 104.417 49.4837 104.801 49.1582C105.191 48.8262 105.387 48.3704 105.387 47.791C105.387 46.4889 104.713 45.8281 103.365 45.8086H100.68ZM100.68 43.7383H102.848C104.326 43.7122 105.064 43.123 105.064 41.9707C105.064 41.3262 104.876 40.8639 104.498 40.584C104.127 40.2975 103.538 40.1543 102.73 40.1543H100.68V43.7383ZM118.551 49.0703H113.414L112.438 52H109.322L114.615 37.7812H117.33L122.652 52H119.537L118.551 49.0703ZM114.205 46.6973H117.76L115.973 41.375L114.205 46.6973ZM131.354 48.2695C131.354 47.7161 131.158 47.293 130.768 47C130.377 46.7005 129.674 46.388 128.658 46.0625C127.643 45.7305 126.839 45.4049 126.246 45.0859C124.632 44.2135 123.824 43.0384 123.824 41.5605C123.824 40.7923 124.039 40.1087 124.469 39.5098C124.905 38.9043 125.527 38.4323 126.334 38.0938C127.148 37.7552 128.059 37.5859 129.068 37.5859C130.084 37.5859 130.989 37.7715 131.783 38.1426C132.577 38.5072 133.193 39.0247 133.629 39.6953C134.072 40.3659 134.293 41.1276 134.293 41.9805H131.363C131.363 41.3294 131.158 40.8249 130.748 40.4668C130.338 40.1022 129.762 39.9199 129.02 39.9199C128.303 39.9199 127.747 40.0729 127.35 40.3789C126.952 40.6784 126.754 41.0755 126.754 41.5703C126.754 42.0326 126.985 42.4199 127.447 42.7324C127.916 43.0449 128.603 43.3379 129.508 43.6113C131.174 44.1126 132.389 44.7344 133.15 45.4766C133.912 46.2188 134.293 47.1432 134.293 48.25C134.293 49.4805 133.827 50.4473 132.896 51.1504C131.965 51.847 130.712 52.1953 129.137 52.1953C128.043 52.1953 127.047 51.9967 126.148 51.5996C125.25 51.196 124.563 50.6458 124.088 49.9492C123.619 49.2526 123.385 48.4453 123.385 47.5273H126.324C126.324 49.0964 127.262 49.8809 129.137 49.8809C129.833 49.8809 130.377 49.7409 130.768 49.4609C131.158 49.1745 131.354 48.7773 131.354 48.2695ZM130.143 51.9316L130.035 52.498C131.012 52.6738 131.5 53.237 131.5 54.1875C131.5 54.9036 131.201 55.4701 130.602 55.8867C130.009 56.3034 129.173 56.5117 128.092 56.5117L128.023 54.8809C128.753 54.8809 129.117 54.6172 129.117 54.0898C129.117 53.8164 129.007 53.6276 128.785 53.5234C128.57 53.4258 128.219 53.3607 127.73 53.3281L128.033 51.9316H130.143ZM139.215 49.6465H145.436V52H136.285V37.7812H139.215V49.6465ZM155.348 49.0703H150.211L149.234 52H146.119L151.412 37.7812H154.127L159.449 52H156.334L155.348 49.0703ZM151.002 46.6973H154.557L152.77 41.375L151.002 46.6973ZM168.15 48.2695C168.15 47.7161 167.955 47.293 167.564 47C167.174 46.7005 166.471 46.388 165.455 46.0625C164.439 45.7305 163.635 45.4049 163.043 45.0859C161.428 44.2135 160.621 43.0384 160.621 41.5605C160.621 40.7923 160.836 40.1087 161.266 39.5098C161.702 38.9043 162.324 38.4323 163.131 38.0938C163.945 37.7552 164.856 37.5859 165.865 37.5859C166.881 37.5859 167.786 37.7715 168.58 38.1426C169.374 38.5072 169.99 39.0247 170.426 39.6953C170.868 40.3659 171.09 41.1276 171.09 41.9805H168.16C168.16 41.3294 167.955 40.8249 167.545 40.4668C167.135 40.1022 166.559 39.9199 165.816 39.9199C165.1 39.9199 164.544 40.0729 164.146 40.3789C163.749 40.6784 163.551 41.0755 163.551 41.5703C163.551 42.0326 163.782 42.4199 164.244 42.7324C164.713 43.0449 165.4 43.3379 166.305 43.6113C167.971 44.1126 169.186 44.7344 169.947 45.4766C170.709 46.2188 171.09 47.1432 171.09 48.25C171.09 49.4805 170.624 50.4473 169.693 51.1504C168.762 51.847 167.509 52.1953 165.934 52.1953C164.84 52.1953 163.844 51.9967 162.945 51.5996C162.047 51.196 161.36 50.6458 160.885 49.9492C160.416 49.2526 160.182 48.4453 160.182 47.5273H163.121C163.121 49.0964 164.059 49.8809 165.934 49.8809C166.63 49.8809 167.174 49.7409 167.564 49.4609C167.955 49.1745 168.15 48.7773 168.15 48.2695ZM176.197 52H173.268V37.7812H176.197V52ZM190.484 52H187.555L181.852 42.6445V52H178.922V37.7812H181.852L187.564 47.1562V37.7812H190.484V52Z" fill="#FF9D11"/>
<defs>
<filter id="filter0_d" x="0" y="0" width="228" height="91" filterUnits="userSpaceOnUse" color-interpolation-filters="sRGB">
<feFlood flood-opacity="0" result="BackgroundImageFix"/>
<feColorMatrix in="SourceAlpha" type="matrix" values="0 0 0 0 0 0 0 0 0 0 0 0 0 0 0 0 0 0 127 0"/>
<feMorphology radius="6" operator="dilate" in="SourceAlpha" result="effect1_dropShadow"/>
<feOffset/>
<feGaussianBlur stdDeviation="4"/>
<feColorMatrix type="matrix" values="0 0 0 0 1 0 0 0 0 1 0 0 0 0 1 0 0 0 0.21 0"/>
<feBlend mode="normal" in2="BackgroundImageFix" result="effect1_dropShadow"/>
<feBlend mode="normal" in="SourceGraphic" in2="effect1_dropShadow" result="shape"/>
</filter>
<linearGradient id="paint0_linear" x1="114" y1="14" x2="114" y2="74" gradientUnits="userSpaceOnUse">
<stop stop-color="white" stop-opacity="0.75"/>
<stop offset="1" stop-color="white"/>
</linearGradient>
</defs>
</svg>
