<svg width="244" height="127" viewBox="0 0 244 127" fill="none" xmlns="http://www.w3.org/2000/svg">
<g style="mix-blend-mode:luminosity">
<rect x="8" y="8" width="228" height="111" rx="8" fill="#E6A640"/>
<rect x="4" y="4" width="236" height="119" rx="12" stroke="white" stroke-opacity="0.7" stroke-width="8"/>
<rect x="8" y="8" width="228" height="99" rx="8" fill="#F9D458"/>
<path d="M76.1338 71V49.6719H83.6045C86.1924 49.6719 88.1553 50.1699 89.4932 51.166C90.8311 52.1523 91.5 53.6025 91.5 55.5166C91.5 56.5615 91.2314 57.4844 90.6943 58.2852C90.1572 59.0762 89.4102 59.6572 88.4531 60.0283C89.5469 60.3018 90.4062 60.8535 91.0312 61.6836C91.666 62.5137 91.9834 63.5293 91.9834 64.7305C91.9834 66.7812 91.3291 68.334 90.0205 69.3887C88.7119 70.4434 86.8467 70.9805 84.4248 71H76.1338ZM80.5283 61.7129V67.4697H84.293C85.3281 67.4697 86.1338 67.2256 86.71 66.7373C87.2959 66.2393 87.5889 65.5557 87.5889 64.6865C87.5889 62.7334 86.5781 61.7422 84.5566 61.7129H80.5283ZM80.5283 58.6074H83.7803C85.9971 58.5684 87.1055 57.6846 87.1055 55.9561C87.1055 54.9893 86.8223 54.2959 86.2559 53.876C85.6992 53.4463 84.8154 53.2314 83.6045 53.2314H80.5283V58.6074ZM107.335 66.6055H99.6299L98.165 71H93.4922L101.432 49.6719H105.504L113.487 71H108.814L107.335 66.6055ZM100.816 63.0459H106.148L103.468 55.0625L100.816 63.0459ZM126.539 65.4043C126.539 64.5742 126.246 63.9395 125.66 63.5C125.074 63.0508 124.02 62.582 122.496 62.0938C120.973 61.5957 119.767 61.1074 118.878 60.6289C116.456 59.3203 115.245 57.5576 115.245 55.3408C115.245 54.1885 115.567 53.1631 116.212 52.2646C116.866 51.3564 117.799 50.6484 119.01 50.1406C120.23 49.6328 121.598 49.3789 123.111 49.3789C124.635 49.3789 125.992 49.6572 127.184 50.2139C128.375 50.7607 129.298 51.5371 129.952 52.543C130.616 53.5488 130.948 54.6914 130.948 55.9707H126.554C126.554 54.9941 126.246 54.2373 125.631 53.7002C125.016 53.1533 124.151 52.8799 123.038 52.8799C121.964 52.8799 121.129 53.1094 120.533 53.5684C119.938 54.0176 119.64 54.6133 119.64 55.3555C119.64 56.0488 119.986 56.6299 120.68 57.0986C121.383 57.5674 122.413 58.0068 123.771 58.417C126.271 59.1689 128.092 60.1016 129.234 61.2148C130.377 62.3281 130.948 63.7148 130.948 65.375C130.948 67.2207 130.25 68.6709 128.854 69.7256C127.457 70.7705 125.577 71.293 123.214 71.293C121.573 71.293 120.079 70.9951 118.731 70.3994C117.384 69.7939 116.354 68.9688 115.641 67.9238C114.938 66.8789 114.586 65.668 114.586 64.291H118.995C118.995 66.6445 120.401 67.8213 123.214 67.8213C124.259 67.8213 125.074 67.6113 125.66 67.1914C126.246 66.7617 126.539 66.166 126.539 65.4043ZM124.723 70.8975L124.562 71.7471C126.026 72.0107 126.759 72.8555 126.759 74.2812C126.759 75.3555 126.31 76.2051 125.411 76.8301C124.522 77.4551 123.268 77.7676 121.646 77.7676L121.544 75.3213C122.638 75.3213 123.185 74.9258 123.185 74.1348C123.185 73.7246 123.019 73.4414 122.687 73.2852C122.364 73.1387 121.837 73.041 121.104 72.9922L121.559 70.8975H124.723ZM138.331 67.4697H147.662V71H133.937V49.6719H138.331V67.4697ZM162.53 66.6055H154.825L153.36 71H148.688L156.627 49.6719H160.699L168.683 71H164.01L162.53 66.6055ZM156.012 63.0459H161.344L158.663 55.0625L156.012 63.0459Z" fill="#811D14"/>
</g>
</svg>
