<svg id="color_line" height="512" viewBox="0 0 74 74" width="512" xmlns="http://www.w3.org/2000/svg" data-name="color line"><path d="m12.086 64.12h46.437v6.88h-46.437z" fill="#9297ab"/><path d="m58.522 71.5h-46.436a.5.5 0 0 1 -.5-.5v-6.879a.5.5 0 0 1 .5-.5h46.436a.5.5 0 0 1 .5.5v6.879a.5.5 0 0 1 -.5.5zm-45.937-1h45.437v-5.879h-45.436z" fill="#323c6b"/><path d="m55.943 64.12h-18.08v-9.631h9.738z" fill="#e1e6e9"/><path d="m55.943 64.621h-18.08a.5.5 0 0 1 -.5-.5v-9.632a.5.5 0 0 1 .5-.5h9.737a.5.5 0 0 1 .378.173l8.341 9.631a.5.5 0 0 1 -.378.827zm-17.58-1h16.486l-7.476-8.631h-9.01z" fill="#323c6b"/><path d="m19.481 50.533h18.382v3.956h-18.382z" fill="#9297ab"/><path d="m37.863 54.989h-18.382a.5.5 0 0 1 -.5-.5v-3.956a.5.5 0 0 1 .5-.5h18.382a.5.5 0 0 1 .5.5v3.956a.5.5 0 0 1 -.5.5zm-17.882-1h17.382v-2.956h-17.382z" fill="#323c6b"/><path d="m61.529 47.974a20.432 20.432 0 0 1 -8.429 12.872l-4.864-5.614a13.171 13.171 0 0 0 6.075-8.689 16.482 16.482 0 0 0 -4.644-14.605 4.4 4.4 0 0 0 2.215-3.818 4.318 4.318 0 0 0 -.028-.516c7.212 4.011 11.395 11.688 9.675 20.37z" fill="#9297ab"/><path d="m53.1 61.346a.5.5 0 0 1 -.378-.172l-4.862-5.614a.5.5 0 0 1 .117-.754 12.748 12.748 0 0 0 5.845-8.359 15.946 15.946 0 0 0 -4.5-14.145.5.5 0 0 1 .1-.8 3.937 3.937 0 0 0 1.94-3.841.5.5 0 0 1 .74-.5c7.813 4.346 11.613 12.356 9.919 20.9a20.894 20.894 0 0 1 -8.632 13.185.5.5 0 0 1 -.289.1zm-4.108-6 4.188 4.834a19.894 19.894 0 0 0 7.856-12.3 18.082 18.082 0 0 0 -8.668-19.4 4.916 4.916 0 0 1 -1.915 3.532 17.032 17.032 0 0 1 4.347 14.628 13.753 13.753 0 0 1 -5.806 8.701z" fill="#323c6b"/><path d="m51.182 19.362-2.257 4.6a4.277 4.277 0 0 0 -1.458-.255 4.41 4.41 0 0 0 -2.394 8.118l-5.524 11.258-12.665-6.212 11.633-23.714z" fill="#eeefee"/><path d="m39.548 43.583a.493.493 0 0 1 -.22-.051l-12.664-6.213a.5.5 0 0 1 -.229-.669l11.633-23.713a.5.5 0 0 1 .669-.229l12.663 6.205a.5.5 0 0 1 .229.669l-2.256 4.6a.5.5 0 0 1 -.62.25 3.748 3.748 0 0 0 -1.287-.225 3.91 3.91 0 0 0 -2.123 7.2.5.5 0 0 1 .178.641l-5.521 11.252a.5.5 0 0 1 -.452.283zm-12-6.941 11.772 5.772 5.117-10.432a4.911 4.911 0 0 1 3.03-8.779 4.785 4.785 0 0 1 1.2.151l1.848-3.763-11.769-5.765z" fill="#323c6b"/><path d="m26.873 39.695h10.259v5.514h-10.259z" fill="#e1e6e9" transform="matrix(.898 .44 -.44 .898 21.963 -9.755)"/><path d="m35.393 47.686a.5.5 0 0 1 -.22-.051l-9.21-4.518a.5.5 0 0 1 -.229-.669l2.428-4.948a.5.5 0 0 1 .669-.229l9.21 4.518a.5.5 0 0 1 .229.669l-2.428 4.951a.5.5 0 0 1 -.449.28zm-8.542-5.246 8.313 4.077 1.988-4.053-8.312-4.077z" fill="#323c6b"/><path d="m42.659 8.837h7.822v7.822h-7.822z" fill="#e1e6e9" transform="matrix(.898 .44 -.44 .898 10.372 -19.205)"/><path d="m48.359 18.482a.5.5 0 0 1 -.22-.051l-7.023-3.445a.5.5 0 0 1 -.229-.669l3.444-7.023a.5.5 0 0 1 .669-.229l7.023 3.445a.5.5 0 0 1 .229.669l-3.444 7.021a.5.5 0 0 1 -.449.28zm-6.354-4.173 6.125 3 3-6.125-6.125-3z" fill="#323c6b"/><path d="m42.292 5.808h13.593v3.613h-13.593z" fill="#9297ab" transform="matrix(.898 .44 -.44 .898 8.369 -20.838)"/><path d="m54.395 12.729a.5.5 0 0 1 -.22-.051l-12.205-5.986a.5.5 0 0 1 -.229-.669l1.592-3.243a.5.5 0 0 1 .667-.229l12.2 5.985a.5.5 0 0 1 .229.669l-1.586 3.245a.5.5 0 0 1 -.449.28zm-11.536-6.714 11.306 5.545 1.151-2.347-11.306-5.544z" fill="#323c6b"/><circle cx="47.466" cy="28.118" fill="#9297ab" r="4.415"/><g fill="#323c6b"><path d="m47.466 33.033a4.915 4.915 0 1 1 4.915-4.915 4.92 4.92 0 0 1 -4.915 4.915zm0-8.83a3.915 3.915 0 1 0 3.915 3.915 3.919 3.919 0 0 0 -3.915-3.918z"/><circle cx="47.466" cy="28.118" r="1.743"/><circle cx="44.543" cy="59.562" r="1.812"/><path d="m64.383 49.417a.483.483 0 0 1 -.1-.011.5.5 0 0 1 -.384-.593c.014-.065.031-.128.048-.192s.028-.1.039-.159a21.516 21.516 0 0 0 .163-7.469.5.5 0 1 1 .988-.151 22.513 22.513 0 0 1 -.17 7.813c-.015.076-.034.151-.055.226l-.036.141a.5.5 0 0 1 -.493.395z"/><path d="m63.509 52.417a.5.5 0 0 1 -.471-.668l.1-.279c.047-.124.1-.247.136-.374a.5.5 0 1 1 .951.309c-.046.144-.1.284-.154.424l-.1.256a.5.5 0 0 1 -.462.332z"/><path d="m32.84 18.417a.5.5 0 0 1 -.449-.72l.163-.333a.5.5 0 1 1 .9.439l-.163.333a.5.5 0 0 1 -.451.281z"/><path d="m28.833 26.583a.493.493 0 0 1 -.22-.051.5.5 0 0 1 -.229-.669l2.986-6.083a.5.5 0 1 1 .9.44l-2.987 6.08a.5.5 0 0 1 -.45.283z"/></g><path d="m19.008 67.574a.582.582 0 0 1 -.592.589h-.262a.591.591 0 1 1 -.007-1.181h.272a.582.582 0 0 1 .589.592z" fill="#fff"/><path d="m27.718 67.595a.582.582 0 0 1 -.614.566l-6.566-.023a.583.583 0 0 1 -.567-.6v-.019a.588.588 0 0 1 .614-.566l6.566.023a.582.582 0 0 1 .567.619z" fill="#fff"/></svg>