<svg id="color_line" height="512" viewBox="0 0 74 74" width="512" xmlns="http://www.w3.org/2000/svg" data-name="color line"><path d="m64.252 16.548v33.569h-6.193v-32.394h-42.118v32.394h-6.193v-33.569a5.018 5.018 0 0 1 5.018-5.018h44.467a5.018 5.018 0 0 1 5.019 5.018z" fill="#eeefee"/><path d="m64.25 16.55v33.57h-2.58v-31.24a5.023 5.023 0 0 0 -5.02-5.02h-44.47a4.97 4.97 0 0 0 -1.86.36 5.036 5.036 0 0 1 4.45-2.69h44.46a5.023 5.023 0 0 1 5.02 5.02z" fill="#e1e6e9"/><path d="m3 54.627h68v7.843h-68z" fill="#9297ab"/><path d="m7.51 50.117h11.137v4.51h-11.137z" fill="#9297ab"/><path d="m55.588 50.117h11.137v4.51h-11.137z" fill="#9297ab"/><path d="m71 54.63v7.84h-68v-2.75h65.44v-5.09z" fill="#84879c"/><path d="m16.08 50.12h2.57v4.51h-2.57z" fill="#84879c"/><path d="m64.16 50.12h2.57v4.51h-2.57z" fill="#84879c"/><path d="m22.483 36.661a.5.5 0 0 1 -.493-.588l3.284-18.438a.5.5 0 1 1 .984.176l-3.283 18.438a.5.5 0 0 1 -.492.412z" fill="#323c6b"/><path d="m42.941 36.617a.5.5 0 0 1 -.5-.5v-18.394a.5.5 0 0 1 1 0v18.394a.5.5 0 0 1 -.5.5z" fill="#323c6b"/><path d="m52 36.617a.5.5 0 0 1 -.5-.5v-18.394a.5.5 0 0 1 1 0v18.394a.5.5 0 0 1 -.5.5z" fill="#323c6b"/><circle cx="52" cy="38.939" fill="#fcd462" r="2.822"/><circle cx="42.941" cy="38.939" fill="#fcd462" r="2.822"/><path d="m33.529 36.617a.5.5 0 0 1 -.5-.5v-18.394a.5.5 0 0 1 1 0v18.394a.5.5 0 0 1 -.5.5z" fill="#323c6b"/><circle cx="33.529" cy="38.939" fill="#fcd462" r="2.822"/><circle cx="22" cy="38.939" fill="#27ccbc" r="2.822"/><path d="m54.82 38.94a2.82 2.82 0 0 1 -5.53.78 2.833 2.833 0 0 0 4.16-2.49 2.757 2.757 0 0 0 -.11-.77 2.826 2.826 0 0 1 1.48 2.48z" fill="#f7be56"/><path d="m45.76 38.94a2.82 2.82 0 0 1 -5.53.78 2.887 2.887 0 0 0 1.34.33 2.823 2.823 0 0 0 2.82-2.82 2.757 2.757 0 0 0 -.11-.77 2.826 2.826 0 0 1 1.48 2.48z" fill="#f7be56"/><path d="m36.35 38.94a2.82 2.82 0 0 1 -5.53.78 2.833 2.833 0 0 0 4.16-2.49 2.881 2.881 0 0 0 -.11-.78 2.83 2.83 0 0 1 1.48 2.49z" fill="#f7be56"/><path d="m24.82 38.94a2.82 2.82 0 0 1 -5.53.78 2.833 2.833 0 0 0 4.16-2.49 2.757 2.757 0 0 0 -.11-.77 2.826 2.826 0 0 1 1.48 2.48z" fill="#21b3a9"/><g fill="#323c6b"><path d="m64.252 50.617h-6.193a.5.5 0 0 1 -.5-.5v-31.894h-41.118v31.894a.5.5 0 0 1 -.5.5h-6.193a.5.5 0 0 1 -.5-.5v-33.569a5.525 5.525 0 0 1 5.519-5.519h44.466a5.525 5.525 0 0 1 5.519 5.519v33.569a.5.5 0 0 1 -.5.5zm-5.693-1h5.193v-33.069a4.524 4.524 0 0 0 -4.519-4.519h-44.466a4.524 4.524 0 0 0 -4.519 4.519v33.069h5.193v-31.894a.5.5 0 0 1 .5-.5h42.118a.5.5 0 0 1 .5.5z"/><path d="m71 62.97h-68a.5.5 0 0 1 -.5-.5v-7.843a.5.5 0 0 1 .5-.5h68a.5.5 0 0 1 .5.5v7.843a.5.5 0 0 1 -.5.5zm-67.5-1h67v-6.843h-67z"/><path d="m18.647 55.127h-11.137a.5.5 0 0 1 -.5-.5v-4.51a.5.5 0 0 1 .5-.5h11.137a.5.5 0 0 1 .5.5v4.51a.5.5 0 0 1 -.5.5zm-10.638-1h10.138v-3.51h-10.137z"/><path d="m66.726 55.127h-11.138a.5.5 0 0 1 -.5-.5v-4.51a.5.5 0 0 1 .5-.5h11.138a.5.5 0 0 1 .5.5v4.51a.5.5 0 0 1 -.5.5zm-10.638-1h10.138v-3.51h-10.138z"/><path d="m52 42.261a3.322 3.322 0 1 1 3.322-3.322 3.326 3.326 0 0 1 -3.322 3.322zm0-5.644a2.322 2.322 0 1 0 2.322 2.322 2.325 2.325 0 0 0 -2.322-2.322z"/><path d="m42.941 42.261a3.322 3.322 0 1 1 3.321-3.322 3.326 3.326 0 0 1 -3.321 3.322zm0-5.644a2.322 2.322 0 1 0 2.321 2.322 2.325 2.325 0 0 0 -2.321-2.322z"/><path d="m33.529 42.261a3.322 3.322 0 1 1 3.322-3.322 3.326 3.326 0 0 1 -3.322 3.322zm0-5.644a2.322 2.322 0 1 0 2.322 2.322 2.325 2.325 0 0 0 -2.322-2.322z"/><path d="m22 42.261a3.322 3.322 0 1 1 3.322-3.322 3.326 3.326 0 0 1 -3.322 3.322zm0-5.644a2.322 2.322 0 1 0 2.322 2.322 2.325 2.325 0 0 0 -2.322-2.322z"/><path d="m6.8 16.25h-.056a.5.5 0 0 1 -.444-.55c.022-.207.049-.412.083-.614a.5.5 0 0 1 .986.17c-.032.182-.055.367-.075.553a.5.5 0 0 1 -.494.441z"/><path d="m7.508 13.667a.5.5 0 0 1 -.453-.712 8.509 8.509 0 0 1 5.575-4.643.5.5 0 1 1 .252.968 7.51 7.51 0 0 0 -4.921 4.1.5.5 0 0 1 -.453.287z"/><path d="m67.252 42a.5.5 0 0 1 -.5-.5v-7.667a.5.5 0 0 1 1 0v7.667a.5.5 0 0 1 -.5.5z"/><path d="m67.252 44.583a.5.5 0 0 1 -.5-.5v-.417a.5.5 0 0 1 1 0v.417a.5.5 0 0 1 -.5.5z"/></g><path d="m30.377 57.534a.651.651 0 0 1 -.661.662h-.293a.661.661 0 1 1 -.012-1.323h.3a.652.652 0 0 1 .666.661z" fill="#fff"/><path d="m40.5 57.527a.651.651 0 0 1 -.686.636h-7.762a.653.653 0 0 1 -.637-.664v-.021a.658.658 0 0 1 .686-.636h7.762a.651.651 0 0 1 .637.685z" fill="#fff"/></svg>