<svg height="511pt" viewBox="0 -18 511.99977 511" width="511pt" xmlns="http://www.w3.org/2000/svg"><path d="m367.910156 377.496094c-1.035156 0-2.027344-.136719-2.945312-.402344-3.859375-1.109375-7.1875-4.933594-8.894532-10.226562-.972656-2.996094-1.445312-6.207032-1.90625-9.3125l-.058593-.371094c-.292969-1.9375-.601563-3.941406-1.027344-5.917969-2.296875-10.570313-7.996094-24.238281-32.824219-45.433594 0 0-3.8125-3.21875-4.617187-3.90625-12.5-10.539062-25.433594-21.441406-32.605469-35.957031-5.101562-10.34375-7.378906-22.277344-7.378906-38.695312 0-3.054688.085937-6.046876.160156-8.316407.160156-4.472656.421875-9.003906.703125-13.644531.613281-10.296875 1.253906-20.949219.511719-31.5-.136719-1.890625-.359375-3.800781-.578125-5.652344-.921875-7.972656-1.789063-15.453125 3.902343-21.203125 11.152344-11.289062 32.757813-17.015625 64.210938-17.015625 4.636719 0 9.417969.121094 14.207031.355469 28.1875 1.335937 50.421875 7.566406 67.96875 19.042969 29.5625 19.347656 44.164063 53.1875 51.207031 78.171875 5.699219 20.207031 8.730469 41.304687 11.667969 61.707031l.070313.492188c1.410156 9.816406 2.871094 19.972656 4.628906 29.945312l.265625 1.523438-115.453125 52.972656c-3.679688 1.691406-7.578125 3.34375-11.214844 3.34375zm1.757813-199.324219c-8.734375 0-17.523438.390625-26.125 1.164063-7.484375.664062-15.066407 2.035156-19.839844 7.546874-4.800781 5.546876-5.050781 13.355469-4.601563 20.964844.980469 16.660156 3.230469 33.4375 6.6875 49.863282 1.507813 7.175781 3.597657 15.292968 9.351563 20.820312 5.800781 5.558594 14.066406 7.277344 21.359375 8.449219 3.625.585937 7.441406 1.128906 11.664062 1.667969l1.699219.21875.046875 1.710937c.289063 10.375 1.757813 20.730469 4.378906 30.78125l.40625 1.5625-1.441406.726563c-1.847656.933593-3.472656 2.292968-4.832031 4.042968-1.984375 2.550782-3.078125 5.808594-3.078125 9.175782 0 2.746093.726562 5.378906 2.101562 7.605468 2.539063 4.128906 7.386719 6.792969 12.347657 6.792969 1.078125 0 2.152343-.132813 3.199219-.390625 5.890624-1.46875 10.40625-7.113281 10.5-13.132812.109374-6.632813-3.9375-12.535157-10.0625-14.691407-1.074219-.382812-2.1875-.625-3.316407-.722656l-1.402343-.121094-.359376-1.359375c-2.519531-9.515625-3.980468-19.34375-4.335937-29.21875l-.082031-2.289062 2.277344.226562c5.429687.539063 11.078124.957032 16.804687 1.242188l1.960937.097656-.703124 21.902344c-.054688 1.988281-.140626 4.917968 1.578124 7.160156 1.488282 1.957031 3.722657 2.90625 6.84375 2.90625 1.789063 0 3.441407-.328125 4.429688-.523438l20.851562-4.167968.539063 1.710937c.261719.835938.558594 1.546875.910156 2.167969 1.929688 3.449219 6.023438 5.671875 10.441407 5.671875 2.039062 0 4.027343-.484375 5.753906-1.410156 5.039062-2.695313 8.113281-8.695313 7.648437-14.929688-.515625-6.835937-5.714843-11.917969-12.945312-12.648437-.386719-.039063-.777344-.058594-1.15625-.058594-6.003907 0-10.273438 5.082031-11.144531 13.261719-.015626.140625-.023438.222656-.03125.304687-.011719.140625-.023438.28125-.042969.421875l-.230469 1.738281-1.574219.003907-19.777343 3.9375c-1.464844.292969-2.722657.441406-3.738282.441406 0 0-.003906 0-.007812 0-.648438 0-2.574219-.003906-3.546875-1.304687-.78125-.996094-.796875-2.640626-.738281-4.527344l.695312-21.90625 1.984375.046875c3.269531.082031 5.917969.121093 8.332031.121093 4.691406 0 9.445313-.101562 14.125-.296874 11.730469-.511719 24.738282-2.316407 32.242188-11.832032 4.941406-6.273437 6.128906-14.390625 6.636718-21.503906.859376-11.949219.230469-23.960938-1.863281-35.707031-3.78125-21.179688-13.902343-33.632813-30.945312-38.0625-16.195313-4.214844-34.316407-5.042969-51.492188-5.527344-2.777343-.082031-5.597656-.125-8.382812-.125zm0 0" fill="#d8deec"/><path d="m439.824219 323.675781c-2.941407 0-5.628907-1.402343-6.847657-3.574219-1.003906-1.824218-1.289062-4.199218-.921874-7.714843.648437-6.035157 3.347656-9.636719 7.222656-9.636719.203125 0 .414062.011719.632812.035156 4.019532.398438 8.867188 2.976563 9.296875 8.914063.347657 4.574219-1.914062 9.113281-5.5 11.035156-1.140625.617187-2.484375.941406-3.882812.941406zm0 0" fill="#d8deec"/><path d="m392.476562 95.5625c-3.210937-9.222656-7.410156-17.769531-12.480468-25.402344l-3.058594-4.609375 5.300781 1.585938c14.167969 4.246093 27.953125 12.53125 37.824219 22.738281l3.914062 4.050781-5.59375-.675781c-1.734374-.207031-3.507812-.316406-5.265624-.316406-6.1875 0-12.390626 1.316406-17.9375 3.796875l-1.988282.890625zm0 0" fill="#d8deec"/><path d="m379.757812 347.203125c-3.550781 0-7.023437-1.90625-8.855468-4.855469-2.238282-3.648437-1.929688-8.761718.722656-12.164062 2.492188-3.191406 5.351562-3.859375 7.308594-3.859375 1.054687 0 2.117187.1875 3.15625.554687 3.714844 1.308594 7.429687 5.152344 7.34375 10.796875-.0625 4.226563-3.253906 8.210938-7.421875 9.257813-.730469.179687-1.488281.269531-2.253907.269531zm0 0" fill="#d8deec"/><path d="m342.554688 80.660156c-1.996094-4.660156-4.023438-8.921875-6.199219-13.03125-5.628907-10.648437-12.273438-20.066406-19.746094-27.992187l-3.679687-3.902344 5.335937.539063c20.558594 2.082031 42.113281 14.347656 54.914063 31.253906.921874 1.214844 1.871093 2.550781 2.988281 4.195312l2.265625 3.335938-4.027344-.214844c-.933594-.050781-1.882812-.078125-2.820312-.078125-9.230469 0-18.292969 2.371094-26.207032 6.851563l-1.941406 1.097656zm0 0" fill="#d8deec"/><path d="m278.851562 63.277344c-5.226562-6.757813-10.976562-13.085938-17.085937-18.804688-7.855469-7.359375-16.628906-14.015625-26.074219-19.78125l-3.289062-2.011718 3.535156-1.53125c6.960938-3.019532 14.617188-4.546876 22.761719-4.546876 10.984375 0 22.136719 2.835938 32.25 8.207032 9.816406 5.207031 18.929687 12.804687 27.089843 22.582031l2.484376 2.980469-3.867188.296875c-12.6875.976562-24.804688 5.472656-35.039062 12.996093l-1.570313 1.15625zm0 0" fill="#d8deec"/><path d="m247.457031 99.046875c-6.375-9.402344-14.203125-17.5625-23.265625-24.265625l-1.382812-1.023438.804687-1.519531c.050781-.09375.09375-.199219.128907-.300781 4.0625-12.1875 19.089843-23.472656 33.496093-25.160156l.964844-.113282.683594.683594.105469.085938c9.464843 8.867187 17.890624 19.054687 25.039062 30.285156l1.53125 2.40625-2.785156.621094c-12.273438 2.730468-23.707032 9.3125-32.191406 18.53125l-1.710938 1.859375zm0 0" fill="#d8deec"/><path d="m203.84375 343.898438c-1.722656 0-3.496094-.050782-5.28125-.148438-16.269531-.886719-32.402344-5.515625-46.644531-13.386719-3.152344-1.742187-13.277344-8.03125-11.238281-15.769531 1.324218-4.949219 7.074218-7.589844 12.523437-9.523438 23.070313-8.183593 47.019531-14.421874 71.183594-18.539062 1.496093-.253906 2.988281-.558594 4.433593-.855469 3.492188-.722656 6.605469-1.324219 9.375-1.324219 3.746094 0 6.609376 1.128907 9.011719 3.554688 5.796875 5.875 8.40625 16.644531 6.199219 25.605469-2.503906 10.160156-10.46875 19.355469-21.3125 24.601562-7.917969 3.839844-17.421875 5.785157-28.25 5.785157zm0 0" fill="#d8deec"/><path d="m217.488281 70.226562-.453125-.28125c-.222656-.140624-.449218-.285156-.679687-.417968-3.0625-1.84375-6.269531-3.546875-9.371094-5.191406l-.347656-.183594c-9.5-5.03125-18.476563-9.785156-24.304688-17.976563-8.089843-11.347656-7.652343-26.664062-6.621093-37.195312l.210937-2.144531 2.121094.367187c26.679687 4.609375 51.929687 16.136719 73.023437 33.332031l2.988282 2.433594-3.714844 1.042969c-13.472656 3.773437-25.507813 13.917969-29.945313 25.242187l-.871093 2.226563zm0 0" fill="#d8deec"/><path d="m234.53125 101.703125c-.191406-.183594-.390625-.316406-.59375-.402344-8.855469-3.726562-17.773438-7.722656-26.515625-11.882812l-3.417969-1.625 14.671875-8.558594c.234375-.136719.445313-.332031.625-.5625l1.195313-1.574219 1.589844 1.179688c7.097656 5.285156 13.441406 11.570312 18.867187 18.683594l1.355469 1.78125-6.675782 3.992187zm0 0" fill="#ed6d66"/><path d="m191.144531 128.507812c-8.6875-3.773437-18.050781-7.988281-28.632812-12.886718l-3.480469-1.613282 40.757812-23.757812.960938.464844c9.019531 4.394531 18.335938 8.648437 27.6875 12.652344l3.597656 1.535156-39.945312 24.015625zm0 0" fill="#ed6d66"/><path d="m198.664062 85.167969c-9.140624-4.527344-18.25-9.3125-27.085937-14.226563l-3.144531-1.75 18.148437-10.066406c.117188-.0625.234375-.152344.359375-.265625l1.199219-1.085937 1.3125.949218c4.746094 3.421875 10.070313 6.25 15.21875 8.988282l.164063.085937c3.140624 1.660156 6.382812 3.375 9.40625 5.191406.222656.140625.398437.25.578124.359375l2.898438 1.738282-18.089844 10.558593zm0 0" fill="#ed6d66"/><path d="m153.605469 111.476562c-5.859375-2.742187-11.710938-5.496093-17.507813-8.222656 0 0-9.898437-4.664062-12.222656-5.761718l-3.523438-1.667969 43.921876-24.332031.972656.550781c8.878906 5.023437 17.921875 9.871093 26.878906 14.394531l3.28125 1.660156-40.851562 23.820313zm0 0" fill="#ed6d66"/><path d="m142.242188 153.679688c-5.453126 0-10.96875-1.820313-15.835938-3.425782l-18.894531-6.195312 47.246093-27.558594.949219.441406c10.699219 4.988282 20.042969 9.242188 28.5625 13.003906l3.527344 1.558594-21.753906 13.074219c-6.398438 3.847656-13.648438 8.210937-21.441407 8.988281l-.203124.019532-.203126-.023438c-.089843-.007812-.175781-.019531-.265624-.019531-.039063.003906-.144532.023437-.246094.050781l-.242188.0625h-.25c-.160156.011719-.273437.019531-.390625.019531-.152343.003907-.355469.003907-.558593.003907zm0 0" fill="#ed6d66"/><path d="m163.332031 66.265625c-8.445312-4.871094-16.925781-10.027344-25.199219-15.328125l-2.957031-1.894531 36.738281-18.433594.542969 2.523437c1.261719 5.867188 3.46875 11.046876 6.566407 15.402344 1.199218 1.6875 2.566406 3.296875 4.179687 4.917969l1.863281 1.878906-20.753906 11.5zm0 0" fill="#ed6d66"/><path d="m114.875 93.273438c-12.84375-6.003907-22.609375-10.46875-31.664062-14.480469l-3.871094-1.714844 52.339844-26.269531 1.007812 1.300781c.167969.222656.332031.378906.496094.488281 7.832031 5.078125 15.886718 10.042969 23.941406 14.761719l3.027344 1.773437-44.351563 24.574219zm0 0" fill="#ed6d66"/><path d="m60.925781 128.753906 55.03125-30.484375.921875.433594c4.925782 2.304687 9.832032 4.617187 14.703125 6.914063l.554688.257812c4.867187 2.300781 9.765625 4.609375 14.695312 6.917969l3.453125 1.621093-45.644531 26.609376c-.222656.128906-.410156.292968-.5625.492187l-.863281 1.121094zm0 0" fill="#ed6d66"/><path d="m9.832031 111.980469 64.78125-32.523438.859375.375c9.453125 4.117188 19.738282 8.773438 32.375 14.648438l3.5625 1.660156-55.742187 30.886719zm0 0" fill="#ed6d66"/><path d="m106.753906 285.171875-.097656-1.367187c-.933594-13.164063-1.609375-26.722657-2.003906-40.304688l-.074219-2.65625 2.574219.664062c13.050781 3.359376 26.300781 6.390626 39.382812 9.015626l1.507813.300781 3.015625 47.980469zm0 0" fill="#f9d889"/><path d="m145.214844 246.101562c-13.085938-2.664062-26.296875-5.726562-39.273438-9.101562l-1.46875-.382812-.027344-1.515626c-.21875-11.199218-.25-22.589843-.09375-33.847656l.039063-2.695312 38.148437 12.160156c.203126.0625.40625.09375.625.09375.074219 0 .152344-.015625.226563-.023438l2.113281-.265624 2.269532 36.101562zm0 0" fill="#f9d889"/><path d="m104.476562 194.324219.035157-1.496094c.328125-13.976563.972656-28.183594 1.914062-42.226563l.171875-2.570312 18.539063 6.082031c4.605469 1.519531 9.824219 3.234375 15.273437 3.5625l1.765625.109375 3.128907 49.542969zm0 0" fill="#f9d889"/><path d="m61.996094 180.789062-2.203125-48.128906 42.832031 14.058594-.105469 1.554688c-.976562 13.921874-1.648437 28.085937-2.007812 42.101562l-.066407 2.664062zm0 0" fill="#f9d889"/><path d="m65.988281 272.625.144531-1.742188c0 .007813.003907.058594.007813.113282l-1.929687-41.894532 2.734374.867188c10.640626 3.375 21.441407 6.539062 32.097657 9.40625l1.4375.386719.039062 1.492187c.347657 13.160156.980469 26.527344 1.878907 39.734375l.199218 2.902344zm0 0" fill="#f9d889"/><path d="m97.808594 234.824219c-10.945313-2.984375-21.867188-6.226563-32.46875-9.636719l-1.320313-.425781-1.824219-39.65625 38.152344 12.164062-.023437 1.488281c-.191407 11.414063-.1875 22.886719.007812 34.101563l.046875 2.664063zm0 0" fill="#f9d889"/><path d="m55.457031 269.386719c-8.914062-2.75-16.65625-5.53125-21.199219-11.742188-3.441406-4.703125-4.546874-10.984375-5.523437-16.53125l-4.613281-26.171875 3.292968 1.253906c10.253907 3.902344 20.804688 7.644532 31.367188 11.128907l1.304688.433593 2.003906 43.660157zm0 0" fill="#f9d889"/><path d="m57.117188 222.492188c-11.0625-3.707032-21.933594-7.625-32.316407-11.644532l-.054687-.007812-1.410156-.371094-7.046876-39.984375 41.777344 13.304687 1.816406 39.628907zm0 0" fill="#f9d889"/><path d="m15.492188 165.960938-8.9375-50.777344 49.101562 16.121094 2.214844 48.15625zm0 0" fill="#f9d889"/><path d="m240.65625 156.238281 22.25-13.117187 1.003906 1.765625c2.082032 3.660156 4.394532 6.65625 7.070313 9.160156.097656.070313.179687.132813.257812.199219l.789063.691406-.117188 1.042969c-.46875 4.125.015625 8.386719.488282 12.503906l.03125.296875c.214843 1.835938.417968 3.566406.539062 5.316406.222656 3.175782.324219 6.480469.3125 10.089844l-.003906 1.464844-1.394532.4375c-.089843.03125-.179687.058594-.265624.101562l-28.007813 14.257813zm0 0" fill="#5bd0fc"/><path d="m243.898438 204.859375 29.320312-14.929687-.140625 3.414062c-.152344 3.820312-.371094 7.570312-.621094 11.730469l-.015625.269531c-.261718 4.414062-.535156 8.976562-.691406 13.46875l-.019531.839844-.035157 1.039062-25.632812 16.679688zm0 0" fill="#5bd0fc"/><path d="m237.347656 106.457031 7.277344-4.371093 1.046875 1.644531c3.171875 4.988281 5.863281 10.246093 8.007813 15.621093 1.007812 2.527344 1.945312 5.203126 2.851562 7.789063l.210938.601563c1.035156 2.96875 2.324218 6.664062 3.757812 10.101562l.671875 1.613281-1.507813.882813c-.082031.046875-.167968.089844-.257812.132812l-19.054688 11.21875zm0 0" fill="#5bd0fc"/><path d="m204.992188 260.71875c-1.703126-11.476562-3.148438-22.050781-4.414063-32.332031l-.171875-1.390625 39.550781-20.128906 1.992188 29.851562c.019531.292969.113281.585938.285156.886719l.945313 1.640625-37.730469 24.554687zm0 0" fill="#5bd0fc"/><path d="m199.558594 219.851562c-1.4375-12.390624-2.585938-24.171874-3.519532-36.019531l-.097656-1.246093 40.800782-24.042969 2.921874 43.914062-39.777343 20.253907zm0 0" fill="#5bd0fc"/><path d="m195.378906 174.84375c-.957031-13.792969-1.5625-27.160156-1.855468-40.867188l-.023438-1.160156 39.933594-24.003906 3.007812 45.1875-40.839844 24.070312zm0 0" fill="#5bd0fc"/><path d="m152.164062 251.558594 44.398438-22.597656.355469 2.824218c1.261719 10.074219 2.691406 20.46875 4.253906 30.882813.054687.367187.199219.699219.4375.992187l1.410156 1.726563-48.019531 31.242187zm0 0" fill="#5bd0fc"/><path d="m149.539062 209.925781 42.492188-25.042969.265625 3.171876c.957031 11.4375 2.128906 22.960937 3.570313 35.222656l.164062 1.386718-44.15625 22.480469zm0 0" fill="#5bd0fc"/><path d="m146.234375 157.503906 1.71875-.339844c7.5625-1.507812 14.558594-5.71875 20.179687-9.105468l21.347657-12.824219.09375 3.425781c.359375 13.53125 1.023437 26.769532 2.023437 40.46875l.089844 1.238282-42.4375 25.003906zm0 0" fill="#5bd0fc"/><g fill="#939baa"><path d="m491.664062 430.660156c-9.640624-3.507812-20.226562-14.09375-23.566406-23.582031-2.636718-7.472656-3.734375-15.203125-4.894531-23.390625-.355469-2.539062-.757813-5.382812-1.203125-8.132812-1.363281-8.34375-3.699219-19.0625-9.722656-27.9375l-1.328125-1.957032 20.277343-9.289062.132813 2.960937c.777344 16.933594 5.535156 33.6875 13.761719 48.460938 1.878906 3.363281 4.25 7.191406 7.585937 10.066406 3.269531 2.828125 7.140625 4.398437 10.898438 4.425781l1.839843.011719.195313 2.503906c.054687.703125.109375 1.398438.148437 2.09375.402344 6.484375.269532 13.144531-3.402343 17.832031-2.269531 2.878907-5.695313 4.699219-8.753907 6.097657l-.902343.410156zm0 0"/><path d="m502.578125 398.160156c-2.492187-.277344-4.984375-1.445312-7.214844-3.375-2.871093-2.480468-4.992187-5.925781-6.6875-8.96875-8.441406-15.15625-13.0625-32.34375-13.359375-49.710937l-.011718-.066407-.011719-.253906v-1.28125l9.640625-4.425781.859375 1.738281c9.796875 19.777344 16.363281 41.949219 18.996093 64.121094l.296876 2.503906zm0 0"/><path d="m454.21875 445.640625c-.125-.226563-.273438-.410156-.453125-.5625-5.828125-4.886719-10.046875-12.730469-11.855469-22.0625-1.65625-8.511719-1.332031-17.324219-.8125-26.355469l.046875-1.003906c.40625-6.886719.820313-13.988281-.394531-21.054688-1.210938-7.101562-4.050781-13.175781-8.21875-17.570312l-1.921875-2.027344 16.53125-7.585937.964844 1.3125c6.15625 8.375 8.515625 19.085937 9.882812 27.484375.410157 2.511718.777344 5.082031 1.132813 7.570312l.054687.378906c1.132813 8.054688 2.304688 16.378907 5.085938 24.265626 2.949219 8.371093 10.917969 17.625 19.828125 23.023437l3.339844 2.027344-32.335938 13.726562zm0 0"/><path d="m436.59375 283.4375c-8.734375-28.171875-7.710938-60.179688 2.808594-87.816406l1.003906-2.628906 2.15625 1.8125c7.09375 5.96875 11.648438 15.0625 13.917969 27.796874 2.046875 11.464844 2.65625 23.136719 1.816406 34.695313-.472656 6.511719-1.527344 13.890625-5.773437 19.285156-3.039063 3.851563-7.453126 6.527344-13.488282 8.1875l-1.867187.515625zm0 0"/><path d="m438.242188 452.960938c-.171876-.175782-.332032-.308594-.480469-.386719-10.707031-5.71875-15.402344-17.769531-17.246094-24.445313-1.925781-7.003906-2.695313-14.117187-3.511719-21.644531-.371094-3.492187-.730468-6.824219-1.191406-10.125-1.054688-7.523437-3.164062-18.589844-9.28125-27.765625l-1.300781-1.949219 21.15625-9.703125.96875.808594c.070312.054688.132812.117188.195312.179688 4.648438 3.726562 7.914063 9.886718 9.203125 17.355468 1.117188 6.550782.742188 13.136719.347656 20.105469l-.0625 1.039063c-.53125 9.292968-.863281 18.382812.878907 27.363281 1.269531 6.546875 4.300781 15.816406 11.488281 22.804687l2.15625 2.101563-12.367188 5.253906zm0 0"/><path d="m437.363281 152.117188c-2.6875-2.210938-5.511719-4.285157-8.394531-6.167969-8.128906-5.324219-17.402344-9.621094-27.558594-12.773438l-1.273437-.398437-.125-1.324219c-.945313-10.03125-2.679688-19.554687-5.152344-28.304687l-.542969-1.917969 2.019532-.578125c.003906 0-.007813.007812-.027344.015625l.039062-.019531c5.152344-2.394532 10.941406-3.660157 16.742188-3.660157 4.09375 0 8.101562.613281 11.917968 1.828125.171876.054688.363282.082032.5625.082032.132813 0 .261719-.011719.390626-.035157l1.296874-.226562.722657 1.09375c9.898437 14.992187 14.386719 33.117187 12.644531 51.039062l-.363281 3.734375zm0 0"/><path d="m414.417969 462.535156c-.113281-.207031-.253907-.375-.421875-.507812-12.222656-9.902344-17.503906-26.53125-21.75-39.890625-5.28125-16.628907-11.894532-29.457031-19.675782-38.183594l-2.128906-2.386719 3.078125-.867187c2.765625-.78125 5.386719-1.980469 7.300781-2.855469l20.589844-9.453125.960938 1.328125c6.21875 8.589844 8.351562 19.640625 9.410156 27.207031.457031 3.207031.816406 6.511719 1.160156 9.710938l.019532.191406c.789062 7.378906 1.605468 15.007813 3.640624 22.382813 2.957032 10.726562 8.292969 19.203124 15.425782 24.507812l2.796875 2.082031-19.527344 8.292969zm0 0"/><path d="m408.277344 285.875c-.042969-.101562-.074219-.203125-.105469-.304688-3.605469-8.71875-3.980469-19.363281-1.144531-32.546874 1.078125-4.96875 2.503906-9.960938 3.882812-14.792969l.085938-.304688c1.6875-5.914062 3.433594-12.027343 4.589844-18.21875 2.296874-12.367187 1.636718-23.070312-1.964844-31.800781l-1.351563-3.277344 3.503907.539063c4.636718.714843 8.804687 1.5625 12.742187 2.589843 2.300781.589844 4.472656 1.367188 6.636719 2.371094l1.710937.796875-.691406 1.753907c-11.246094 28.53125-12.605469 61.71875-3.734375 91.054687l.691406 2.292969-2.378906.273437c-2.308594.265625-4.75.449219-7.464844.5625-3.921875.171875-8.222656.261719-13.148437.273438l-1.359375.003906zm0 0"/><path d="m401.472656 287.042969c-4.324218-.109375-8.21875-.269531-11.90625-.484375l-1.398437-.082032-.402344-1.339843c-4.230469-14.136719-2.410156-29.476563-.648437-44.308594.261718-2.148437.507812-4.285156.75-6.417969 1.75-15.824218 2.421874-34.015625-5.890626-48.902344l-1.730468-3.09375 3.546875.121094c9.070312.3125 16.320312.773438 22.808593 1.449219l1.695313.175781.09375 1.707032c.015625.316406.089844.597656.210937.832031 4.398438 8.460937 5.402344 19.308593 2.988282 32.261719-1.101563 5.890624-2.777344 11.792968-4.398438 17.5l-.171875.601562c-1.40625 4.914062-2.855469 9.992188-3.960937 15.105469-2.746094 12.726562-2.628906 23.273437.359375 32.242187l.902343 2.707032zm0 0"/><path d="m398.714844 469.761719c-4.792969-.066407-9.109375-3.351563-13.058594-6.886719-12.589844-11.246094-23.285156-24.351562-31.78125-38.945312-4.097656-7.03125-7.695312-14.445313-11.179688-21.613282-3.855468-7.945312-7.839843-16.160156-12.566406-23.976562-9.140625-15.164063-19.777344-25.96875-31.609375-32.121094l-4.117187-2.140625 4.382812-1.523437c12.03125-4.179688 22.824219-10.394532 32.070313-18.476563l1.492187-1.304687 1.316406 1.480468c8.347657 9.355469 13.398438 18.476563 15.441407 27.886719.421875 1.910156.707031 3.785156 1.035156 6.035156l.046875.296875c.480469 3.179688.980469 6.464844 2.015625 9.640625 2.050781 6.363281 6.066406 10.984375 11.019531 12.6875l.46875.164063.339844.359375c.105469.113281.203125.226562.320312.320312 9.65625 7.90625 17.734376 21.925781 24.007813 41.664063 4.160156 13.105468 9.335937 29.410156 21.121094 40.167968l2.300781 2.101563-3.925781 1.667969c-2.964844 1.257812-5.941407 2.519531-8.945313 2.519531zm0 0"/><path d="m393.191406 130.898438c-10.203125-2.484376-21.625-4.046876-33.957031-4.648438l-1.429687-.070312-.394532-1.375c-4.011718-14.03125-7.554687-25.636719-11.8125-36.671876l-.609375-1.570312 1.445313-.863281c7.527344-4.503907 16.214844-6.882813 25.117187-6.882813 2.824219 0 5.644531.246094 8.378907.738282h1.019531l.574219 1.054687c7.308593 13.632813 12.058593 29.820313 14.125 48.121094l.320312 2.84375zm0 0"/><path d="m380.980469 285.917969c-5.039063-.433594-10.128907-.992188-15.132813-1.660157l-.964844-.128906-.496093-.839844c-.042969-.074218-.078125-.148437-.117188-.21875-9.472656-12.804687-13.066406-29.792968-9.570312-45.402343.929687-4.136719 2.300781-8.089844 3.753906-12.277344l.078125-.230469c1.535156-4.382812 3.121094-8.910156 4.113281-13.65625 1.503907-7.109375 1.089844-18.429687-2.613281-26.308594l-1.300781-2.765624 3.058593-.085938c2.679688-.070312 5.332032-.105469 7.894532-.105469 1.5 0 3.003906.011719 4.503906.035157l1.355469.023437.480469 1.273437c.058593.152344.125.28125.207031.394532 9.976562 14.289062 9.441406 33.296875 7.597656 50.007812-.210937 1.855469-.425781 3.703125-.644531 5.566406l-.097656.808594c-1.699219 14.25-3.457032 28.984375.007812 43.101563l.664062 2.707031zm0 0"/><path d="m355.171875 282.632812c-6.261719-1.085937-12.679687-2.691406-17.222656-7.046874-4.894531-4.699219-6.726563-11.820313-8.183594-18.707032-1.304687-6.167968-2.472656-12.652344-3.472656-19.277344l-.207031-1.378906 1.222656-.671875c.222656-.121093.390625-.253906.527344-.410156 11.273437-13.195313 16.417968-32.105469 13.425781-49.34375l-.363281-2.101563 2.117187-.230468c.304687-.03125.613281-.066406.929687-.085938 2.710938-.246094 5.636719-.464844 8.648438-.644531l1.039062-.058594.644532.8125c4.945312 6.222657 6.128906 18.945313 4.390625 27.167969-.945313 4.488281-2.480469 8.898438-3.96875 13.164062-1.378907 3.960938-2.945313 8.453126-3.964844 12.964844-3.199219 14.316406-.824219 29.949219 6.515625 42.890625l2.089844 3.679688zm0 0"/><path d="m309.011719 127.121094c-4.546875-20.277344-13.34375-40.136719-25.4375-57.433594l-1.121094-1.597656 1.574219-1.160156c10.632812-7.8125 23.726562-12.222657 36.875-12.40625.222656-.003907.449218-.050782.675781-.140626l1.464844-.582031.90625 1.289063c3.136719 4.460937 6.101562 9.320312 8.8125 14.433594 8.238281 15.574218 13.769531 32.160156 20.023437 53.875l.75 2.613281-2.714844-.058594c-2.011718-.042969-3.988281-.066406-5.929687-.066406-12.628906 0-23.917969.929687-33.554687 2.757812l-1.902344.363281zm0 0"/><path d="m324.835938 226.675781c-.746094-6.371093-1.3125-12.785156-1.679688-19.066406-.375-6.28125-.433594-13.382813 3.625-18.066406 1.824219-2.109375 4.429688-3.628907 7.960938-4.640625l2.140624-.613282.382813 2.191407c2.449219 14.109375-.75 29.082031-8.78125 41.078125l-3.015625 4.503906zm0 0"/><path d="m265.597656 344.132812c-8.152344 0-16.191406-1.042968-23.898437-3.097656l-4.082031-1.085937 3.425781-2.46875c4.503906-3.242188 8.257812-7.101563 11.152343-11.472657l.644532-.96875 1.160156.082032c1.726562.117187 3.265625.171875 4.703125.171875 18.847656 0 37.230469-7.695313 50.433594-21.113281l1.28125-1.300782 1.414062 1.160156c.199219.164063.980469.820313 1.167969.976563l1.726562 1.460937c.964844.820313 1.929688 1.636719 2.886719 2.457032 3.996094 3.402344 7.390625 6.472656 10.378907 9.386718l1.554687 1.519532-1.644531 1.425781c-16.769532 14.53125-39.480469 22.867187-62.304688 22.867187zm0 0"/><path d="m271.164062 148.324219c-5.050781-6.082031-7.738281-13.773438-10.589843-21.921875-1.023438-2.949219-2.035157-5.820313-3.121094-8.5625-1.570313-3.941406-3.472656-7.902344-5.652344-11.773438l-.683593-1.214844.898437-1.058593c8.664063-10.238281 21.214844-17.390625 34.433594-19.621094l1.386719-.234375.691406 1.226562c7.59375 13.488282 13.148437 27.910157 16.507812 42.871094l.417969 1.875-1.851563.496094c-11.375 3.046875-20.171874 7.652344-26.148437 13.695312-1.183594 1.195313-2.171875 2.484376-3.019531 3.945313l-1.4375 2.480469zm0 0"/><path d="m257.140625 297.894531c-.890625-3.351562-2.246094-6.414062-4.035156-9.105469l-1.777344-2.671874 3.1875-.417969c9.019531-1.175781 19.152344-3.84375 29.308594-7.714844l1.410156-.535156.902344 1.207031c3.515625 4.703125 7.730469 9.304688 13.261719 14.476562l5.097656 4.761719-6.84375-1.335937c-4.578125-.894532-9.273438-1.347656-13.957032-1.347656-8.21875 0-16.277343 1.367187-23.957031 4.0625l-2.042969.714843zm0 0"/><path d="m255.070312 321.175781 1.023438-2.683593c.484375-1.269532.90625-2.621094 1.257812-4.019532.695313-2.820312 1-5.8125.902344-8.886718l-.046875-1.425782 1.335938-.507812c7.703125-2.917969 15.824219-4.394532 24.144531-4.394532 6.019531 0 12 .789063 17.773438 2.34375l3.671874.988282-2.894531 2.464844c-12.039062 10.265624-27.976562 16.152343-43.722656 16.152343zm0 0"/></g><path d="m511.84375 406.515625c-1.625-26.597656-8.71875-53.277344-20.507812-77.179687l7.207031-3.308594c1.675781-.765625 2.613281-2.574219 2.28125-4.386719-2.007813-11.011719-3.636719-22.332031-5.214844-33.28125-2.96875-20.636719-6.039063-41.976563-11.824219-62.492187-5.957031-21.117188-17.160156-48.363282-37.871094-68.761719.003907-.027344.015626-.054688.019532-.082031 3.617187-21.628907-1.496094-44.351563-14.03125-62.34375-12.054688-17.304688-34.292969-31.242188-56.644532-35.5-.386718-.070313-.761718-.070313-1.132812-.035157-15.714844-17.683593-39.929688-29.25-62.085938-29.25-.011718 0-.023437 0-.035156 0-.773437 0-1.484375.230469-2.097656.605469-5.105469-4.359375-10.492188-8.0625-16.109375-11.046875-21.109375-11.203125-45.863281-11.886719-64.605469-1.789063-.292968.160157-.546875.355469-.785156.566407-16.714844-8.914063-34.960938-14.988281-53.664062-17.691407-1.070313-.152343-2.164063.128907-3.023438.789063-.863281.65625-1.421875 1.632813-1.554688 2.707031-.800781 6.480469-1.390624 13.773438-.847656 21.089844l-95.148437 47.769531c-1.496094-.128906-2.960938.582031-3.765625 1.890625l-66.546875 33.410156c-1.625.070313-3.117188 1.121094-3.65625 2.757813-.1718752.53125-.230469 1.074219-.183594 1.601563-.0039062.25.0078125.503906.0546875.757812l22.6874995 128.84375c1.035157 5.890625 2.328126 13.226562 6.601563 19.070312 6.109375 8.351563 16.628906 11.585938 24.304687 13.949219l89.753907 27.621094c-3.683594 2.167969-7.308594 5.394531-8.59375 10.238281-2.148438 8.085938 3.144531 16.546875 14.160156 22.632813 15.050781 8.3125 32.078125 13.203125 49.246094 14.136719 1.894531.105468 3.753906.15625 5.582031.15625 11.15625 0 21.039062-1.945313 29.488281-5.746094.464844.53125 1.058594.957031 1.777344 1.195312 9.855469 3.222656 20.160156 4.785156 30.464844 4.785156 7.589843 0 15.175781-.847656 22.582031-2.507812.449219.59375 1.066406 1.074219 1.816406 1.347656 13.121094 4.777344 24.894532 15.691406 35 32.433594 4.539063 7.519531 8.488282 15.640625 12.300782 23.496094 3.542968 7.292968 7.207031 14.832031 11.394531 22.019531 8.816406 15.140625 19.914062 28.738281 32.980469 40.414063 4.59375 4.109374 10.210937 8.324218 17.007812 8.429687.082031 0 .167969.003906.253906.003906 4.277344 0 8.191406-1.664062 11.347656-3.003906l82.871094-35.164063c4.570313-1.941406 10.257813-4.351562 14.054688-9.191406 4.929687-6.285156 5.136718-14.625 4.691406-21.957031zm-9.035156-10.34375c-2.054688-.230469-4.207032-1.230469-6.136719-2.894531-2.640625-2.285156-4.644531-5.546875-6.253906-8.433594-8.296875-14.90625-12.828125-31.796875-13.101563-48.855469 0-.070312-.019531-.136719-.023437-.210937l6.714843-3.078125c9.773438 19.757812 16.1875 41.5 18.800782 63.472656zm-26.78125-168.117187c5.640625 20.003906 8.671875 41.074218 11.601562 61.453124 1.441406 10.007813 2.925782 20.324219 4.714844 30.496094l-114.046875 52.328125c-4.613281 2.117188-9.066406 3.925781-12.777344 2.84375-3.222656-.9375-6.042969-4.273437-7.546875-8.925781-.910156-2.808594-1.355468-5.808594-1.832031-8.984375-.3125-2.09375-.636719-4.257813-1.105469-6.417969-2.371094-10.898437-8.203125-24.949218-33.484375-46.53125-1.53125-1.304687-3.074219-2.605468-4.621093-3.910156-12.351563-10.421875-25.125-21.199219-32.105469-35.320312-7.066407-14.300782-7.542969-30.589844-7.007813-46.058594.15625-4.511719.429688-9.125.695313-13.589844.617187-10.371094 1.257812-21.09375.507812-31.765625-.136719-1.945313-.363281-3.894531-.582031-5.78125-.90625-7.757813-1.6875-14.457031 3.332031-19.527344 10.796875-10.914062 31.882813-16.421875 62.789063-16.421875 4.496094 0 9.203125.117188 14.109375.351563 27.835937 1.324219 49.742187 7.449219 66.976562 18.726562 29.046875 19.007813 43.429688 52.382813 50.382813 77.035157zm-60.785156 232.40625c-11.753907-9.53125-16.941407-25.863282-21.109376-38.988282-5.355468-16.875-12.089843-29.894531-20.074218-38.847656 2.875-.808594 5.488281-1.996094 7.597656-2.964844l19.097656-8.761718c5.925782 8.1875 8 18.820312 9.050782 26.300781.457031 3.25.816406 6.601562 1.164062 9.847656.804688 7.464844 1.632812 15.1875 3.707031 22.695313 3.082031 11.175781 8.746094 20.070312 16.160157 25.582031l-14.671876 6.226562c-.234374-.402343-.535156-.777343-.921874-1.089843zm23.46875-9.644532c-10.058594-5.367187-14.507813-16.851562-16.265626-23.21875-1.894531-6.878906-2.65625-13.9375-3.457031-21.414062-.355469-3.308594-.722656-6.726563-1.199219-10.105469-1.121093-7.980469-3.332031-19.210937-9.601562-28.59375l17.886719-8.207031c.0625.054687.109375.117187.171875.167968 4.300781 3.421876 7.332031 9.167969 8.53125 16.183594 1.082031 6.324219.710937 12.804688.320312 19.664063l-.058594 1.023437c-.535156 9.441406-.867187 18.675782.914063 27.855469 1.355469 6.996094 4.558594 16.574219 12.058594 23.863281l-8.332031 3.535156c-.28125-.289062-.59375-.550781-.96875-.753906zm16.355468-7.253906c-5.5-4.621094-9.476562-12.054688-11.199218-20.925781-1.601563-8.269531-1.28125-16.953125-.777344-25.867188l.058594-1.015625c.398437-7.007812.8125-14.257812-.421876-21.488281-1.285156-7.5-4.347656-13.972656-8.738281-18.617187l12.5-5.734376c5.863281 7.964844 8.171875 18.332032 9.527344 26.621094.425781 2.613282.804687 5.308594 1.171875 7.914063 1.152344 8.152343 2.34375 16.582031 5.1875 24.644531 3.179688 9.015625 11.59375 18.558594 20.675781 24.070312l-27.085937 11.496094c-.230469-.402344-.519532-.78125-.898438-1.097656zm-429.984375-234.695312-6.246093-35.476563 37.296874 11.886719 1.621094 35.316406c-10.839844-3.628906-21.59375-7.492188-32.226562-11.605469-.148438-.058593-.296875-.085937-.445313-.121093zm49.585938-127.203126c10.585937 4.613282 21.453125 9.566407 32.335937 14.628907l-51.542968 28.5625-40.398438-13.265625zm57.425781-27.394531c7.882812 5.113281 15.894531 10.050781 24.015625 14.816407l-40.386719 22.378906c-10.609375-4.960938-21.253906-9.867188-31.695312-14.496094l47.074218-23.636719c.273438.355469.59375.679688.992188.9375zm56.191406 6.078125c4.875 3.515625 10.242188 6.367188 15.515625 9.160156 3.144531 1.667969 6.398438 3.386719 9.410157 5.195313.195312.117187.382812.246094.578124.363281l-14.242187 8.304688c-9.109375-4.511719-18.117187-9.234375-27-14.179688l15.007813-8.3125c.269531-.152344.511718-.332031.730468-.53125zm69.332032-11.449218c9.457031 8.851562 17.753906 18.949218 24.730468 29.898437-12.679687 2.8125-24.4375 9.566406-33.238281 19.125-6.441406-9.507813-14.480469-17.910156-23.726563-24.75.101563-.191406.1875-.394531.257813-.605469 3.832031-11.496094 18.261719-22.214844 31.828125-23.800781.050781.042969.101562.085937.148438.132813zm64.695312 7.347656c3.097656 4.410156 6 9.15625 8.679688 14.21875 8.605468 16.265625 14.242187 33.933594 19.871093 53.492187-15.324219-.332031-28.640625.585938-39.90625 2.726563-4.660156-20.777344-13.515625-40.652344-25.742187-58.140625 10.308594-7.578125 22.914062-11.835938 35.71875-12.019531.488281-.003907.949218-.109376 1.378906-.277344zm57.457031 25.308594c7.203125 13.445312 11.855469 29.316406 13.890625 47.394531-10.398437-2.527344-21.804687-4.085938-34.324218-4.695313-3.71875-13.019531-7.394532-25.238281-11.875-36.84375 9.578124-5.730468 21.316406-7.867187 32.292968-5.855468zm-131.9375 152.28125-1.851562-27.789063 25.105469-12.78125c-.160157 3.921875-.390626 7.832031-.621094 11.691406-.269532 4.511719-.546875 9.179688-.707032 13.789063-.011718.277344-.015624.558594-.027343.835937zm-141.476562-32.554688 35.578125 11.339844c.40625.128906.820312.191406 1.222656.191406.164062 0 .324219-.019531.484375-.039062l1.976563 31.371093c-13.117188-2.671875-26.183594-5.703125-39.171876-9.085937-.226562-11.253906-.257812-22.519532-.089843-33.777344zm114.539062-121.402344c6.976563 5.207032 13.199219 11.378906 18.46875 18.292969l-3.457031 2.078125c-.34375-.328125-.742188-.605469-1.203125-.800781-8.886719-3.734375-17.699219-7.683594-26.421875-11.835938l11.402344-6.648437c.492187-.285156.894531-.660156 1.210937-1.085938zm49.53125 88.945313c.222657 1.878906.425781 3.652343.550781 5.410156.230469 3.292969.3125 6.617187.308594 9.949219-.1875.066406-.378906.125-.5625.21875l-25.324218 12.894531-2.664063-39.964844 19.4375-11.453125c2 3.515625 4.410156 6.800782 7.492187 9.675782.082032.078124.175782.132812.261719.199218-.5 4.394532.011719 8.871094.5 13.070313zm-38.773437-56.609375 2.707031 40.691406-36.992187 21.796875c-.941407-13.722656-1.550782-27.199219-1.847657-40.769531zm-42.050782 67.0625-38.5625 22.71875-2.699218-42.875c7.878906-1.566406 14.941406-5.808594 20.828125-9.34375l18.402343-11.066406c.367188 13.472656 1.03125 26.882812 2.03125 40.566406zm-37.992187 31.742187 38.695313-22.800781c.953124 11.457031 2.144531 23.167969 3.582031 35.296875l-40.199219 20.464844zm46.421875-27.351562 36.929688-21.757813 2.621093 39.363282-36.039062 18.347656c-1.429688-12.359375-2.59375-24.273438-3.511719-35.953125zm60.457031-44.976563-16.351562 9.632813-2.714844-40.78125 4.558594-2.742188c3.070312 4.835938 5.710937 9.949219 7.839843 15.292969 1.070313 2.683594 2.066407 5.542969 3.035157 8.308594 1.1875 3.410156 2.398437 6.855468 3.800781 10.214844-.054688.027343-.117188.042968-.167969.074218zm-30.832031-33.484375-35.714844 21.472657c-9.367187-4.074219-18.957031-8.417969-28.585937-12.875l36.511719-21.289063c9.167968 4.460937 18.4375 8.691406 27.789062 12.691406zm-44.191406 26.566407-18.453125 11.089843c-6.246094 3.757813-13.273438 7.976563-20.609375 8.707031-.191406-.015624-.382813-.035156-.582032-.023437-.214843.015625-.421874.058594-.628906.105469-.128906.007812-.257812.019531-.390625.023437-5.238281.132813-10.589843-1.617187-15.769531-3.320312l-14.671875-4.816407 42.503906-24.785156c9.589844 4.464844 19.183594 8.863282 28.601563 13.019532zm-79.832032 7.519531c-.457031.265625-.835937.613281-1.144531 1.003906l-36.582031-12.011719 50.125-27.777344c5.109375 2.398438 10.203125 4.796876 15.25 7.179688 4.867188 2.292969 9.773438 4.605469 14.695312 6.917969zm-3.113281 8.84375c-.976562 14.019531-1.648437 28.089843-2.011719 42.179687l-34.578124-11.019531-2.011719-43.835937zm7.90625 2.597656 16.089844 5.28125c4.796875 1.578125 10.148437 3.320313 15.777344 3.660156l2.828125 44.863281-36.605469-11.667968c.328125-14.078125.964844-28.132813 1.910156-42.136719zm48.351563 142.347656-2.539063-40.332031 40.691407-20.714844c1.253906 9.972656 2.667968 20.234375 4.265624 30.933594.113282.742188.421876 1.410156.863282 1.953125zm50.195312-32.660156c-1.660156-11.171875-3.125-21.894531-4.410156-32.273437l35.601562-18.125 1.785157 26.824218c.042969.644532.25 1.234375.554687 1.753906zm69.0625-117.730469c-1.378906 1.394532-2.464844 2.851563-3.332031 4.347656-4.8125-5.78125-7.460937-13.347656-10.234375-21.292968-.996094-2.847656-2.023438-5.789063-3.160156-8.636719-1.648438-4.140625-3.585938-8.152344-5.765625-12.023437 8.414062-9.953126 20.390625-16.769532 33.234375-18.941407 7.457031 13.234375 12.988281 27.542969 16.304687 42.332031-11.734375 3.136719-20.777343 7.878907-27.046875 14.214844zm-84.8125-54.46875-36.773437 21.441406c-6.609375-3.085937-13.207031-6.195312-19.730469-9.273437-3.3125-1.558594-6.644531-3.128906-9.988281-4.703125l39.535156-21.90625c8.867187 5.027344 17.859375 9.84375 26.957031 14.441406zm-137.5 44.546875 2.015625 43.917969-38.480469-12.265625-8.15625-46.300781zm10.601563 55.117188 34.003906 10.835937c-.199219 11.390625-.195313 22.789063.007813 34.175782-10.867188-2.960938-21.667969-6.167969-32.386719-9.617188zm34.195312 53.417969c.351563 13.304687.988281 26.585937 1.886719 39.820312l-32.292969-9.9375c.003907-.121094.027344-.238281.019531-.359375l-1.789062-38.953125c10.652344 3.378906 21.382812 6.527344 32.175781 9.429688zm8.132813 2.144531c13.09375 3.367187 26.269531 6.382812 39.488281 9.03125l2.746094 43.5625-40.230469-12.378907c-.949219-13.363281-1.613281-26.777343-2.003906-40.214843zm162.957031-14.164063c.140625 13.273438 1.785156 26.816406 7.988281 39.375.726563 1.472656 1.519532 2.898438 2.34375 4.296875-11.84375 4.355469-23.617187 6.996094-32.789062 7.300781-.054688.003907-.105469.019532-.160156.023438-6.242188-3.253906-13.160157-1.839844-19.40625-.546875-1.394532.289063-2.832032.585937-4.21875.820313-17.113282 2.921874-34.113282 6.910156-50.78125 11.859374zm14.917969 50.566406c3.996094 5.339844 8.617187 10.175782 13.503906 14.746094-12.945312-2.539062-26.476562-1.59375-38.957031 2.789063-.925781-3.511719-2.382813-6.808594-4.304688-9.699219 9.046875-1.179688 19.457031-3.90625 29.757813-7.835938zm-25.238282 35.113282c.761719-3.089844 1.0625-6.28125.964844-9.441406 12.964844-4.910157 27.324219-5.59375 40.6875-1.984376-11.800781 10.050782-27.503906 15.808594-42.984375 15.667969.53125-1.394531.980469-2.808593 1.332031-4.242187zm179.347657-164.394532c-2.71875-2.222656-5.570313-4.332031-8.578125-6.300781-8.335938-5.453125-17.652344-9.769531-28.050782-13.007812-.96875-10.183594-2.710937-19.75-5.222656-28.65625.136719-.046875.273438-.074219.40625-.136719 8.429688-3.929688 18.351563-4.566406 27.210938-1.746094.640625.203125 1.289062.222656 1.90625.113282 9.628906 14.585937 14.007812 32.359374 12.328125 49.734374zm-20.015625-59.308593c-8.214844-.992188-16.707032.257812-24.257813 3.648437-3.292969-9.460937-7.535156-18.085937-12.699219-25.859375 13.984376 4.199219 27.308594 12.230469 36.957032 22.210938zm-47.035156-22.527344c1.011718 1.332031 1.976562 2.710937 2.921874 4.109375-10.425781-.5625-21.039062 1.886719-30.117187 7.027344-1.921875-4.476563-3.992187-8.867188-6.273437-13.179688-5.757813-10.882812-12.519532-20.429687-20.058594-28.421875 19.96875 2.011719 40.867187 13.746094 53.527344 30.464844zm-81.570313-42.160156c9.644531 5.121093 18.578125 12.617187 26.488281 22.101562-12.972656 1-25.574218 5.664063-36.066406 13.375-5.261719-6.796875-11.046875-13.175781-17.3125-19.039062-8.066406-7.554688-16.941406-14.261719-26.398438-20.027344 15.894532-6.890625 35.914063-5.636719 53.289063 3.589844zm-112.3125-17.402344c26.28125 4.542969 51.417969 16.054687 72.097656 32.914063-13.851562 3.882812-26.542969 14.371093-31.269531 26.4375-.394531-.242188-.777344-.5-1.175781-.734376-3.195313-1.917968-6.542969-3.691406-9.78125-5.40625-9.289063-4.921874-18.0625-9.570312-23.613281-17.367187-7.242188-10.175781-7.417969-24-6.257813-35.84375zm-.3125 40.519531c1.335937 1.878906 2.8125 3.585938 4.390625 5.167969l-17.453125 9.671875c-8.496094-4.898438-16.871094-9.992188-25.109375-15.273438l31.285156-15.707031c1.222656 5.683594 3.363282 11.191407 6.886719 16.140625zm-141.519531 206.773438c-3.167969-4.328125-4.230469-10.375-5.171875-15.707032l-3.996094-22.695312c10.382813 3.945312 20.875 7.667969 31.449219 11.15625l1.8125 39.457031-3.925782-1.207031c-8.558593-2.628906-15.980468-5.277344-20.167968-11.003906zm162.796875 85.289062c-15.960938-.867187-31.792969-5.414062-45.78125-13.144531-5.84375-3.226563-11.605469-8.46875-10.269531-13.503906 1.074218-4.042969 6.289062-6.386719 11.253906-8.148438 22.957031-8.140625 46.792968-14.347656 70.855468-18.453125 1.523438-.257812 3.03125-.570312 4.492188-.871094 7.667969-1.585937 12.570312-2.351562 16.5625 1.683594 5.34375 5.410156 7.734375 15.386719 5.679688 23.71875-2.363282 9.582032-9.929688 18.285156-20.238282 23.285156-8.871094 4.296876-19.828125 6.128907-32.554687 5.433594zm43.542969-2.648437c4.675781-3.371094 8.636718-7.453125 11.648437-11.988281 1.613281.109374 3.230469.171874 4.84375.171874 19.316406 0 38.273437-7.898437 51.855469-21.710937.390625.332031.78125.660156 1.171875.988281 1.535156 1.296875 3.066406 2.585938 4.585937 3.882813 3.507813 2.996093 6.980469 6.085937 10.273438 9.308593-22.773438 19.738282-55.308594 27.101563-84.378906 19.347657zm156.535156 128.660156c-4.132813-.066406-8.09375-3.101563-11.757813-6.378906-12.433593-11.113281-22.992187-24.050781-31.386719-38.460938-4.03125-6.925781-7.628906-14.328125-11.105468-21.484375-3.894532-8.015625-7.921875-16.304687-12.648438-24.140625-9.378906-15.539062-20.261718-26.542969-32.410156-32.855469 11.957031-4.148437 23.148438-10.484374 32.730469-18.859374 7.125 7.976562 12.773437 16.800781 14.988281 26.972656.410156 1.902344.703125 3.84375 1.007812 5.898437.503907 3.359375 1.023438 6.832031 2.136719 10.269531 2.265625 7.019532 6.71875 12.058594 12.277344 13.960938.148437.175781.308594.347656.496094.496094 9.363281 7.664062 17.230469 21.367187 23.375 40.726562 4.257812 13.421875 9.523437 29.945313 21.6875 41.042969l-1.0625.449219c-2.777344 1.183594-5.652344 2.40625-8.328125 2.363281zm102.0625-44.269531c-1.914063 2.4375-4.945313 4.109375-8.007813 5.503906-.144531-.070312-.277343-.152344-.429687-.207031-9.167969-3.335938-19.214844-13.375-22.390625-22.382813-2.578125-7.304687-3.660157-14.972656-4.804688-23.085937-.375-2.648438-.761719-5.386719-1.203125-8.085938-1.429687-8.761719-3.875-19.65625-10.035156-28.742187l15.421875-7.074219c.792969 17.253906 5.609375 34.246094 14.015625 49.34375 1.953125 3.503906 4.433594 7.507813 8.023438 10.613281 3.640624 3.140625 7.996093 4.875 12.195312 4.90625.070312.90625.148438 1.816406.203125 2.722656.371094 6.113282.269531 12.339844-2.988281 16.488282zm0 0" fill="#231f20"/><path d="m378.105469 176.289062c-11.5625-.328124-23.25.023438-34.746094 1.050782-7.898437.707031-15.929687 2.195312-21.164063 8.238281-5.273437 6.085937-5.5625 14.355469-5.089843 22.386719.988281 16.804687 3.253906 33.679687 6.722656 50.160156 1.578125 7.472656 3.773437 15.941406 9.929687 21.84375 6.210938 5.953125 14.828126 7.757812 22.421876 8.988281 3.898437.628907 7.8125 1.179688 11.738281 1.671875.289062 10.535156 1.777343 21.027344 4.4375 31.230469-2.0625 1.042969-3.945313 2.589844-5.515625 4.601563-4.222656 5.425781-4.675782 13.261718-1.097656 19.058593 2.964843 4.8125 8.496093 7.738281 14.046874 7.738281 1.238282 0 2.476563-.144531 3.6875-.445312 6.742188-1.679688 11.910157-8.148438 12.015626-15.042969.117187-7.496093-4.460938-14.167969-11.394532-16.609375-1.269531-.449218-2.542968-.71875-3.8125-.828125-2.492187-9.398437-3.921875-19.066406-4.273437-28.78125 5.617187.566407 11.253906.972657 16.894531 1.25l-.632812 19.945313c-.066407 2.097656-.175782 5.609375 1.984374 8.441406 2.246094 2.949219 5.5625 3.683594 8.4375 3.683594 2 0 3.792969-.355469 4.855469-.570313l19.054688-3.804687c.269531.859375.609375 1.71875 1.074219 2.550781 2.367187 4.242187 7.230468 6.683594 12.175781 6.683594 2.300781 0 4.617187-.527344 6.710937-1.648438 5.71875-3.0625 9.210938-9.828125 8.691406-16.839843-.582031-7.839844-6.503906-13.664063-14.734374-14.488282-7.753907-.78125-13.445313 5.101563-14.496094 14.984375-.023438.21875-.039063.449219-.058594.671875-.027344.003906-.050781.003906-.074219.007813l-19.917969 3.976562c-4.21875.84375-5.125.140625-5.308593-.097656-.421875-.554687-.363281-2.339844-.335938-3.296875l.636719-19.894531c2.792969.070312 5.585938.117187 8.378906.117187 4.734375 0 9.472656-.097656 14.203125-.304687 12.1875-.519531 25.726563-2.425781 33.734375-12.585938 5.265625-6.6875 6.527344-15.179687 7.0625-22.601562.871094-12.089844.234375-24.265625-1.894531-36.195313-3.929687-22.035156-14.53125-35.003906-32.410156-39.648437-16.421875-4.269531-34.664063-5.105469-51.9375-5.597657zm9.328125 161.355469c-.054688 3.304688-2.648438 6.53125-5.90625 7.34375-3.285156.820313-7.117188-.773437-8.921875-3.699219-1.785157-2.898437-1.53125-7.140624.597656-9.871093 2.949219-3.789063 6.414063-3.289063 8.214844-2.65625 3.046875 1.074219 6.085937 4.238281 6.015625 8.882812zm46.613281-25.054687c.207031-1.945313 1.21875-8.257813 5.667969-7.8125 3.398437.339844 7.15625 2.375 7.503906 7.0625.28125 3.824218-1.550781 7.578125-4.457031 9.136718-2.722657 1.457032-6.703125.535157-8.039063-1.855468-.792968-1.429688-1.003906-3.441406-.675781-6.53125zm-27.214844-124.953125c4.179688 8.039062 5.117188 18.457031 2.789063 30.960937-1.105469 5.941406-2.824219 11.949219-4.480469 17.757813-1.429687 4.992187-2.90625 10.160156-4.035156 15.386719-2.820313 13.070312-2.679688 24 .421875 33.300781-3.949219-.09375-7.898438-.246094-11.84375-.484375-4.101563-13.691406-2.320313-28.835938-.578125-43.496094.253906-2.148438.511719-4.289062.746093-6.425781 1.8125-16.351563 2.386719-34.84375-6.132812-50.101563 7.535156.261719 15.179688.65625 22.671875 1.433594.027344.566406.164063 1.132812.441406 1.667969zm-32.679687-3.367188c.113281.292969.253906.578125.441406.847657 9.605469 13.753906 9.050781 32.304687 7.242188 48.632812-.234376 2.113281-.484376 4.234375-.738282 6.363281-1.722656 14.492188-3.476562 29.433594.058594 43.8125-5.027344-.433593-10.042969-.984375-15.042969-1.65625-.066406-.113281-.121093-.230469-.203125-.339843-9.164062-12.394532-12.625-28.777344-9.257812-43.824219.921875-4.105469 2.304687-8.082031 3.773437-12.292969 1.554688-4.460938 3.160157-9.078125 4.179688-13.902344 1.519531-7.183594 1.289062-18.949218-2.765625-27.566406 4.105468-.109375 8.214844-.136719 12.3125-.074219zm-45.863282 6.585938c1.714844-1.980469 4.175782-3.21875 7-4.035157 2.367188 13.585938-.789062 28.152344-8.464843 39.621094-.738281-6.308594-1.296875-12.632812-1.667969-18.949218-.347656-5.898438-.421875-12.53125 3.132812-16.636719zm3.429688 65.605469c-1.332031-6.332032-2.480469-12.730469-3.445312-19.15625.394531-.226563.769531-.5 1.082031-.867188 11.773437-13.785156 16.976562-33.121094 13.875-50.984375.285156-.027344.566406-.054687.847656-.082031 2.867187-.253906 5.742187-.46875 8.628906-.636719 4.410157 5.539063 5.691407 17.558594 4.011719 25.511719-.914062 4.320312-2.367188 8.496094-3.90625 12.914062-1.480469 4.238282-3.003906 8.625-4.027344 13.183594-3.347656 14.945312-.816406 31.03125 6.726563 44.324219-6.054688-1.058594-12.082031-2.59375-16.175781-6.519531-4.496094-4.3125-6.226563-11.101563-7.617188-17.6875zm91.484375 28.402343c-4.351563.1875-8.710937.261719-13.074219.269531-.03125-.101562-.050781-.203124-.09375-.304687-3.464844-8.332031-3.808594-18.601563-1.046875-31.386719 1.070313-4.964844 2.511719-10 3.902344-14.871094 1.710937-5.988281 3.480469-12.179687 4.660156-18.496093 2.378907-12.773438 1.671875-23.828125-2.078125-32.933594 4.289063.664063 8.488282 1.496094 12.546875 2.550781 2.25.582032 4.335938 1.347656 6.296875 2.253906-11.472656 29.101563-12.84375 62.433594-3.792968 92.371094-2.445313.28125-4.910157.445313-7.320313.546875zm31.3125-61.910156c2.011719 11.269531 2.613281 22.773437 1.789063 34.195313-.449219 6.203124-1.4375 13.21875-5.355469 18.191406-3.035157 3.855468-7.464844 6.128906-12.445313 7.5-8.671875-27.953125-7.648437-59.132813 2.765625-86.503906 6.753907 5.679687 11.066407 14.398437 13.246094 26.617187zm0 0" fill="#231f20"/></svg>