<svg id="color_line" height="512" viewBox="0 0 74 74" width="512" xmlns="http://www.w3.org/2000/svg" data-name="color line"><path d="m28.631 59.623h-18.022a4.176 4.176 0 0 1 -4.176-4.176v-48.271a4.176 4.176 0 0 1 4.176-4.176h30.912a4.176 4.176 0 0 1 4.179 4.176v48.27a4.176 4.176 0 0 1 -4.176 4.176h-12.893z" fill="#9297ab"/><path d="m41.521 60.123h-30.913a4.681 4.681 0 0 1 -4.676-4.676v-48.271a4.681 4.681 0 0 1 4.676-4.676h30.913a4.681 4.681 0 0 1 4.679 4.676v48.271a4.681 4.681 0 0 1 -4.679 4.676zm-30.913-56.623a3.68 3.68 0 0 0 -3.675 3.676v48.271a3.68 3.68 0 0 0 3.676 3.676h30.912a3.68 3.68 0 0 0 3.679-3.676v-48.271a3.68 3.68 0 0 0 -3.679-3.676z" fill="#323c6b"/><path d="m12.01 8.933h28.112v16.575h-28.112z" fill="#89c5cd"/><path d="m40.122 26.008h-28.112a.5.5 0 0 1 -.5-.5v-16.575a.5.5 0 0 1 .5-.5h28.112a.5.5 0 0 1 .5.5v16.575a.5.5 0 0 1 -.5.5zm-27.612-1h27.112v-15.575h-27.112z" fill="#323c6b"/><circle cx="26.066" cy="38.792" fill="#e1e6e9" r="7.479"/><path d="m33.54 38.79a7.443 7.443 0 0 1 -3.24 6.16 7.382 7.382 0 0 0 1.43-4.38 7.47 7.47 0 0 0 -11.71-6.16 7.464 7.464 0 0 1 13.52 4.38z" fill="#d5d6db"/><path d="m25.486 38.988a.5.5 0 0 1 -.393-.19l-4.257-5.4a.5.5 0 0 1 .785-.619l4.257 5.4a.5.5 0 0 1 -.393.81z" fill="#323c6b"/><rect fill="#27ccbc" height="3.713" rx="1.857" width="3.713" x="11.491" y="51.37"/><path d="m13.348 55.583a2.357 2.357 0 1 1 2.357-2.357 2.359 2.359 0 0 1 -2.357 2.357zm0-3.713a1.357 1.357 0 1 0 1.357 1.356 1.358 1.358 0 0 0 -1.357-1.356z" fill="#323c6b"/><rect fill="#fcd462" height="3.713" rx="1.857" width="3.713" x="18.972" y="51.37"/><path d="m20.828 55.583a2.357 2.357 0 1 1 2.356-2.357 2.359 2.359 0 0 1 -2.356 2.357zm0-3.713a1.357 1.357 0 1 0 1.356 1.356 1.358 1.358 0 0 0 -1.356-1.356z" fill="#323c6b"/><path d="m54.25 64.863h-13.62a1.656 1.656 0 0 1 -1.654-1.655v-2.4a.5.5 0 0 1 1 0v2.4a.656.656 0 0 0 .654.655h13.62a.656.656 0 0 0 .655-.655v-25.793a.5.5 0 0 1 1 0v25.793a1.657 1.657 0 0 1 -1.655 1.655z" fill="#323c6b"/><path d="m63.829 71.5h-32.129a1.657 1.657 0 0 1 -1.655-1.655v-9.034a.5.5 0 0 1 1 0v9.034a.656.656 0 0 0 .655.655h32.129a.656.656 0 0 0 .655-.655v-39.98a.5.5 0 0 1 1 0v39.98a1.657 1.657 0 0 1 -1.655 1.655z" fill="#323c6b"/><rect fill="#e1e6e9" height="6.162" rx=".953" width="4.09" x="37.431" y="54.649"/><path d="m40.567 61.311h-2.183a1.455 1.455 0 0 1 -1.453-1.453v-4.258a1.455 1.455 0 0 1 1.453-1.453h2.184a1.455 1.455 0 0 1 1.453 1.453v4.256a1.455 1.455 0 0 1 -1.454 1.455zm-2.184-6.162a.453.453 0 0 0 -.453.453v4.256a.453.453 0 0 0 .453.453h2.184a.453.453 0 0 0 .453-.453v-4.258a.453.453 0 0 0 -.453-.453z" fill="#323c6b"/><rect fill="#fe7058" height="6.162" rx=".953" width="4.09" x="28.632" y="54.649"/><path d="m31.769 61.311h-2.184a1.455 1.455 0 0 1 -1.453-1.453v-4.258a1.455 1.455 0 0 1 1.453-1.453h2.184a1.455 1.455 0 0 1 1.453 1.453v4.256a1.455 1.455 0 0 1 -1.453 1.455zm-2.184-6.162a.453.453 0 0 0 -.453.453v4.256a.453.453 0 0 0 .453.453h2.184a.453.453 0 0 0 .453-.453v-4.258a.453.453 0 0 0 -.453-.453z" fill="#323c6b"/><path d="m55.4 28.2a2.583 2.583 0 0 1 2.583 2.583v5.827a.817.817 0 0 1 -.817.817h-3.527a.817.817 0 0 1 -.817-.817v-5.823a2.583 2.583 0 0 1 2.578-2.587z" fill="#eeefee"/><path d="m55.405 28.7a.5.5 0 0 1 -.5-.5v-4.239a.5.5 0 0 1 1 0v4.239a.5.5 0 0 1 -.5.5z" fill="#323c6b"/><path d="m64.984 20.638a2.583 2.583 0 0 1 2.583 2.583v5.827a.817.817 0 0 1 -.817.817h-3.532a.817.817 0 0 1 -.817-.817v-5.827a2.583 2.583 0 0 1 2.583-2.583z" fill="#fe7058"/><path d="m57.99 30.79v5.82a.824.824 0 0 1 -.82.82h-1.1v-5.28a2.589 2.589 0 0 0 -2.58-2.59 2.222 2.222 0 0 0 -.37.03 2.564 2.564 0 0 1 2.28-1.39 2.59 2.59 0 0 1 2.59 2.59z" fill="#e1e6e9"/><path d="m67.57 23.22v5.83a.824.824 0 0 1 -.82.82h-1.1v-5.29a2.586 2.586 0 0 0 -2.58-2.58 2.346 2.346 0 0 0 -.38.03 2.587 2.587 0 0 1 4.88 1.19z" fill="#ea6453"/><g fill="#323c6b"><path d="m64.984 21.138a.5.5 0 0 1 -.5-.5v-4.238a.5.5 0 1 1 1 0v4.243a.5.5 0 0 1 -.5.495z"/><path d="m48.7 53.667a.5.5 0 0 1 -.5-.5v-.375a.5.5 0 0 1 1 0v.375a.5.5 0 0 1 -.5.5z"/><path d="m3.433 9.958a.5.5 0 0 1 -.5-.5v-.333a.5.5 0 0 1 1 0v.333a.5.5 0 0 1 -.5.5z"/><path d="m3.433 7.692a.486.486 0 0 1 -.5-.484 7.644 7.644 0 0 1 4.884-7.177.5.5 0 1 1 .365.931 6.64 6.64 0 0 0 -4.25 6.214.514.514 0 0 1 -.499.516z"/><path d="m48.7 51.25a.5.5 0 0 1 -.5-.5v-7.625a.5.5 0 0 1 1 0v7.625a.5.5 0 0 1 -.5.5z"/><path d="m26.065 46.771a7.979 7.979 0 1 1 7.979-7.979 7.987 7.987 0 0 1 -7.979 7.979zm0-14.958a6.979 6.979 0 1 0 6.979 6.979 6.987 6.987 0 0 0 -6.979-6.979z"/><path d="m57.171 37.931h-3.532a1.318 1.318 0 0 1 -1.316-1.317v-5.827a3.083 3.083 0 1 1 6.166 0v5.827a1.319 1.319 0 0 1 -1.318 1.317zm-1.766-9.231a2.086 2.086 0 0 0 -2.083 2.083v5.827a.317.317 0 0 0 .316.317h3.532a.318.318 0 0 0 .317-.317v-5.823a2.086 2.086 0 0 0 -2.082-2.087z"/><path d="m66.75 30.365h-3.531a1.319 1.319 0 0 1 -1.319-1.317v-5.827a3.083 3.083 0 1 1 6.166 0v5.827a1.319 1.319 0 0 1 -1.316 1.317zm-1.766-9.227a2.086 2.086 0 0 0 -2.084 2.083v5.827a.318.318 0 0 0 .317.317h3.533a.318.318 0 0 0 .317-.317v-5.827a2.086 2.086 0 0 0 -2.083-2.083z"/></g><path d="m15.113 28.348a.651.651 0 0 1 -.661.662h-.293a.661.661 0 1 1 -.012-1.323h.3a.652.652 0 0 1 .666.661z" fill="#fff"/><path d="m25.235 28.341a.651.651 0 0 1 -.686.636h-7.762a.653.653 0 0 1 -.637-.664v-.021a.658.658 0 0 1 .686-.636h7.762a.651.651 0 0 1 .637.685z" fill="#fff"/></svg>