<svg height="512pt" viewBox="-10 0 512 512.00418" width="512pt" xmlns="http://www.w3.org/2000/svg"><path d="m324.347656 63.886719 17.882813-53.074219c.570312-1.726562.960937-2.820312 1.261719-3.535156l.636718-1.519532 1.617188.335938c1.023437.210938 2.519531.675781 3.507812.984375l67.621094 21.203125c.632812.191406 2.144531.609375 4.417969 1.242188l.726562.199218c11.546875 3.160156 19.792969 5.578125 23.847657 6.988282l1.992187.695312-21.683594 52.890625zm0 0" fill="#b2eaf9"/><path d="m372.253906 196.230469-1.523437-.117188c-28.652344-2.15625-58.277344-4.386719-87.726563-6.195312l-2.425781-.152344.613281-2.351563c3.679688-14.066406 13.796875-25.898437 27.058594-31.648437 5.804688-2.519531 12.308594-3.847656 18.808594-3.847656 8.945312 0 17.589844 2.410156 25 6.96875 12.28125 7.5625 20.621094 20.6875 22.296875 35.113281l.257812 2.230469zm0 0" fill="#b2eaf9"/><path d="m219.738281 96.042969c-4.394531 0-8.546875-1.066407-12-3.085938-8.351562-4.878906-12.632812-16.3125-9.546875-25.484375 2.457032-7.265625 10.339844-13.207031 20.089844-15.132812 2.082031-.417969 4.191406-.628906 6.265625-.628906 6.941406 0 13.019531 2.421874 16.683594 6.640624 4.886719 5.621094 6.183593 14.328126 3.222656 21.660157-2.78125 6.917969-9.304687 12.636719-17.027344 14.917969-2.503906.738281-5.089843 1.113281-7.6875 1.113281zm0 0" fill="#b2eaf9"/><g fill="#696b77"><path d="m249.984375 69.769531c-.429687-5.363281-2.449219-10.367187-5.6875-14.085937-.34375-.394532-.726563-.800782-1.136719-1.203125l-2.417968-2.359375 92.800781-28.277344-8.527344 25.328125-74.832031 23.085937zm0 0"/><path d="m297.054688 464.171875c-5.875-35.164063-30.890626-66.867187-63.726563-80.769531l-2.210937-.9375 1.316406-2.003906c1.863281-2.828126 3.441406-5.898438 4.609375-8.257813l.773437-1.5625 1.65625.554687c19.707032 6.632813 37.710938 19.21875 50.703125 35.4375 12.203125 15.242188 20.398438 34.332032 23.078125 53.746094l.246094 1.761719-16.089844 4.1875zm0 0"/><path d="m225.367188 99.773438 3.210937-.949219c6.246094-1.851563 11.835937-5.609375 15.734375-10.578125l1.394531-1.773438 64.230469 64.1875-2.746094 1.152344c-.113281.046875-.574218.230469-.574218.230469-5.800782 2.511719-11.105469 6.152343-15.753907 10.8125l-1.417969 1.421875zm0 0"/><path d="m123.613281 464.171875c-5.871093-35.15625-30.886719-66.863281-63.726562-80.769531l-2.207031-.9375 1.316406-2.003906c1.867187-2.839844 3.445312-5.902344 4.609375-8.257813l.773437-1.566406 1.65625.558593c19.707032 6.632813 37.710938 19.21875 50.703125 35.433594 12.199219 15.246094 20.398438 34.332032 23.078125 53.75l.246094 1.757813-16.089844 4.191406zm0 0"/></g><path d="m449.308594 44.578125 2.128906 2.492187c5.609375 6.570313 7.183594 16.199219 3.921875 23.964844-3.191406 7.574219-11.003906 13.160156-19.433594 13.90625l-3.273437.289063zm0 0" fill="#ed6d66"/><path d="m337.5 293.460938c5.296875-3.425782 9.242188-7.398438 12.070312-12.144532 8.335938-14.015625 3.535157-33.914062-10.277343-42.582031-4.632813-2.90625-9.761719-4.382813-15.253907-4.382813-14.550781 0-29.382812 10.082032-40.214843 17.445313l-1.203125.816406c-17.601563 11.941407-33.917969 25.886719-48.503906 41.445313l-.800782.851562-1.132812-.277344c-.1875-.042968-.347656-.070312-.492188-.074218-11.402344-.203125-23.738281-.71875-34.617187-1.171875l-.285157-.007813c-8.4375-.347656-17.167968-.703125-25.601562-.949218l-4.894531-.144532 3.597656-3.324218c2.507813-2.316407 4.546875-4.820313 6.238281-7.648438 8.335938-14.011719 3.53125-33.910156-10.285156-42.578125-4.632812-2.90625-9.761719-4.382813-15.242188-4.382813-2.011718 0-4.117187.199219-6.257812.585938l-1.980469.359375-1.148437-6.527344 1.933594-.371093c2.589843-.5 4.796874-1.316407 6.746093-2.492188 5.644531-3.398438 9.332031-10.179688 9.855469-18.136719.371094-5.53125-.710938-10.9375-1.816406-15.496093l-.597656-2.46875 5.253906-.003907c14.742187 0 30.078125.226563 45.585937.679688l2.808594.082031-.996094 2.625c-.921875 2.4375-2 5.6875-2.183593 9.234375-.273438 5.492187 1.929687 10.5 5.75 13.070313 3.566406 2.386718 8.109374 2.464843 11.425781 2.519531l86.632812 1.550781c1.105469 0 2-.839844 2.070313-1.910156l1.34375-21.558594 2.011718.140625c17.921876 1.261719 36.003907 2.625 53.488282 3.941406l1.339844.101563c17.222656 1.300781 33.558593 3.363281 44.140624 14.1875 10.820313 11.0625 12.609376 30.285156 4.25 45.699218-7.210937 13.289063-21.070312 23.785157-39.027343 29.550782-10.980469 3.53125-27.949219 7.339844-42.628907 7.425781l-6.851562.042969zm0 0" fill="#5bd0fc"/><path d="m66.09375 286.9375c-.105469-.03125-.214844-.070312-.328125-.085938-17.476563-2.445312-29.648437-6.449218-39.476563-12.984374-12.398437-8.257813-20.148437-21.132813-20.222656-33.605469-.082031-14.542969 10.117188-29.191407 25.988282-37.320313 8.753906-4.476562 18.648437-7.21875 32.097656-8.886718l3.679687-.457032-1.640625 3.328125c-1.703125 3.453125-2.742187 6.335938-3.269531 9.074219-1.09375 5.71875.171875 11.285156 3.386719 14.890625 4.898437 5.488281 13.324218 5.832031 18.359375 6.039063l47.046875 1.941406c1.386718.058594 2.816406.117187 4.332031.117187 2.707031 0 5.027344-.191406 7.101563-.59375l1.996093-.382812 1.15625 6.574219-1.960937.351562c-12.441406 2.238281-24.847656 10.667969-33.90625 16.824219l-1.253906.851562c-14.660157 9.949219-28.488282 21.328125-41.105469 33.828125l-.84375.835938zm0 0" fill="#5bd0fc"/><path d="m316.519531 277.683594c-3.503906 0-6.890625-1.433594-9.058593-3.832032-2.273438-2.519531-3.324219-5.980468-2.738282-9.027343.902344-4.710938 5.300782-7.257813 9.117188-8.070313 1.019531-.21875 2.074218-.328125 3.132812-.328125 3.886719 0 7.035156 1.449219 8.875 4.078125 3.214844 4.585938 1.917969 11.8125-2.722656 15.160156-1.808594 1.300782-4.152344 2.019532-6.605469 2.019532zm0 0" fill="#288fc9"/><path d="m225.050781 213.949219c-3.773437-.066407-6.851562-.242188-9.226562-1.839844-2.652344-1.777344-4.171875-5.417969-3.964844-9.488281.1875-3.609375 1.574219-7.230469 2.980469-10.632813l.53125-1.28125 1.382812.042969c27.394532.925781 56.703125 2.492188 92.242188 4.933594l1.984375.136718-1.234375 19.644532zm0 0" fill="#288fc9"/><path d="m136.058594 224.917969c-1.53125 0-2.992188-.0625-4.402344-.117188l-46.8125-1.929687c-5.945312-.25-12.039062-.816406-15.496094-4.6875-2.382812-2.671875-3.292968-6.9375-2.4375-11.417969.828125-4.289063 3-8.3125 5.101563-12.207031l.117187-.292969.476563-1.097656 1.191406-.101563c2.027344-.167968 4.066406-.320312 6.113281-.46875 22.8125-1.644531 46.246094-2.542968 71.648438-2.757812l1.566406-.011719.390625 1.519531c1.246094 4.882813 2.550781 10.5625 2.175781 16.15625-.332031 5.109375-2.578125 11.71875-7.890625 14.929688-3.707031 2.226562-8.476562 2.484375-11.742187 2.484375zm0 0" fill="#288fc9"/><path d="m143.078125 277.683594c-3.503906 0-6.886719-1.433594-9.054687-3.832032-2.277344-2.519531-3.324219-5.980468-2.738282-9.027343.417969-2.1875 1.667969-4.128907 3.605469-5.613281 1.5-1.144532 3.457031-2.015626 5.507813-2.457032 1.035156-.222656 2.089843-.332031 3.140624-.332031 3.886719 0 7.035157 1.453125 8.871094 4.085937 3.203125 4.589844 1.910156 11.816407-2.722656 15.15625-1.8125 1.300782-4.15625 2.019532-6.609375 2.019532zm0 0" fill="#288fc9"/><path d="m213.960938 388.15625c-5.972657 0-12-3.554688-15.351563-9.054688-3.636719-5.957031-4.484375-14.125-2.328125-22.414062 2.023438-7.765625 6.300781-14.941406 10.625-21.542969 3.683594-5.621093 7.636719-11.199219 11.753906-16.582031 4.101563-5.375 8.46875-10.671875 12.972656-15.75 15.695313-17.738281 33.617188-33.496094 53.269532-46.835938l1.207031-.8125c10.945313-7.445312 24.574219-16.71875 37.835937-16.71875 4.804688 0 9.242188 1.257813 13.183594 3.730469 11.816406 7.414063 16.082032 25.078125 8.945313 37.058594-6.820313 11.460937-20.566407 16.222656-33.859375 20.828125l-.34375.121094c-2.910156 1.003906-5.914063 2.046875-8.777344 3.144531-28.960938 11.074219-53.339844 33.410156-66.886719 61.285156-.371093.75-.734375 1.515625-1.101562 2.285157-4.371094 9.109374-8.890625 18.519531-17.660157 20.816406-1.113281.292968-2.285156.441406-3.484374.441406zm103.007812-135.804688c-1.316406 0-2.648438.144532-3.972656.425782-6.5 1.390625-11.199219 5.714844-12.265625 11.289062-.152344.820313-.234375 1.664063-.234375 2.503906 0 3.582032 1.441406 7.226563 3.953125 9.996094 2.984375 3.300782 7.378906 5.195313 12.058593 5.195313 3.335938 0 6.449219-.972657 9.003907-2.804688 6.4375-4.652343 8.152343-14.363281 3.667969-20.78125-2.550782-3.648437-7.113282-5.824219-12.210938-5.824219zm0 0" fill="#939baa"/><path d="m340.429688 505.707031c-10.382813-.441406-20.96875-.667969-31.453126-.667969-9.148437 0-18.402343.171876-27.503906.511719l-2.066406.074219-.007812-2.066406c-.054688-12.453125 6.542968-24.753906 16.808593-31.339844.316407-.203125.558594-.480469.722657-.828125l.402343-.839844 17.792969-4.636719.804688 1.09375c.179687.242188.390624.433594.636718.570313 13.070313 7.171875 23 20.871094 25.914063 35.746094l.484375 2.492187zm0 0" fill="#939baa"/><path d="m40.511719 388.15625c-5.96875 0-11.988281-3.554688-15.34375-9.054688-3.636719-5.953124-4.484375-14.125-2.328125-22.414062 2.023437-7.765625 6.300781-14.941406 10.625-21.542969 3.675781-5.613281 7.632812-11.191406 11.753906-16.578125 4.097656-5.371094 8.460938-10.667968 12.972656-15.753906 15.699219-17.738281 33.621094-33.5 53.273438-46.835938l1.203125-.8125c10.945312-7.445312 24.574219-16.714843 37.835937-16.714843 4.808594 0 9.242188 1.253906 13.1875 3.726562 11.8125 7.421875 16.074219 25.082031 8.945313 37.058594-6.820313 11.460937-20.566407 16.222656-33.859375 20.828125l-.347656.121094c-2.90625 1.007812-5.914063 2.046875-8.777344 3.144531-28.953125 11.070313-53.335938 33.40625-66.894532 61.289063-.378906.785156-.734374 1.53125-1.09375 2.28125-4.371093 9.109374-8.886718 18.523437-17.671874 20.820312-1.109376.289062-2.28125.4375-3.480469.4375zm103.011719-135.804688c-1.3125 0-2.648438.144532-3.96875.425782-6.496094 1.386718-11.195313 5.714844-12.261719 11.289062-.832031 4.332032.554687 9.003906 3.707031 12.503906 2.980469 3.296876 7.375 5.191407 12.058594 5.191407 3.339844 0 6.457031-.972657 9.011718-2.804688 6.441407-4.648437 8.15625-14.359375 3.667969-20.78125-2.546875-3.648437-7.113281-5.824219-12.214843-5.824219zm0 0" fill="#939baa"/><path d="m166.980469 505.707031c-10.378907-.441406-20.960938-.667969-31.445313-.667969-9.148437 0-18.402344.171876-27.503906.511719l-2.066406.074219-.007813-2.066406c-.054687-12.457032 6.542969-24.757813 16.8125-31.339844.304688-.199219.554688-.484375.734375-.851562l.402344-.820313 17.78125-4.632813.800781 1.09375c.179688.242188.394531.433594.640625.566407 13.074219 7.179687 23 20.878906 25.902344 35.753906l.484375 2.488281zm0 0" fill="#939baa"/><path d="m139.132812 250.820312c-7.296874 1.5625-12.589843 6.492188-13.808593 12.867188-.949219 4.949219.621093 10.269531 4.195312 14.226562 3.46875 3.839844 8.519531 5.847657 13.542969 5.847657 3.605469 0 7.195312-1.039063 10.171875-3.183594 7.296875-5.265625 9.234375-16.269531 4.144531-23.550781-3.734375-5.339844-10.898437-7.773438-18.246094-6.207032zm9.382813 23.21875c-3.75 2.703126-9.828125 1.988282-13.011719-1.53125-1.859375-2.0625-2.726562-4.859374-2.257812-7.304687.71875-3.746094 4.382812-5.8125 7.574218-6.492187.835938-.179688 1.761719-.285157 2.71875-.285157 2.667969 0 5.554688.828125 7.230469 3.222657 2.570313 3.679687 1.476563 9.699218-2.253906 12.390624zm0 0" fill="#231f20"/><path d="m312.578125 250.820312c-7.300781 1.558594-12.589844 6.488282-13.8125 12.867188-.945313 4.949219.621094 10.269531 4.199219 14.226562 3.46875 3.839844 8.519531 5.847657 13.539062 5.847657 3.605469 0 7.199219-1.039063 10.171875-3.183594 7.300781-5.265625 9.234375-16.269531 4.144531-23.550781-3.734374-5.339844-10.890624-7.773438-18.242187-6.207032zm9.378906 23.21875c-3.75 2.703126-9.828125 1.988282-13.011719-1.53125-1.859374-2.0625-2.726562-4.859374-2.257812-7.304687.71875-3.75 4.382812-5.8125 7.574219-6.492187 3.167969-.679688 7.675781-.316407 9.949219 2.9375 2.570312 3.679687 1.476562 9.699218-2.253907 12.390624zm0 0" fill="#231f20"/><path d="m492.742188 32.476562c-.28125-2.207031-2.304688-3.765624-4.507813-3.492187l-35.261719 4.46875c-1.75-1.496094-5.324218-2.640625-11.832031-4.605469-5.832031-1.761718-12.863281-3.695312-17.515625-4.972656-2.335938-.644531-4.351562-1.199219-4.933594-1.382812l-45.609375-14.300782c-7.261719-2.273437-14.519531-4.550781-21.777343-6.828125-9.746094-3.058593-11.914063-1.144531-14.824219 7.515625l-3.101563 9.207032c-.640625-.132813-1.316406-.128907-1.984375.078124l-93.667969 28.539063c-.640624.191406-1.179687.542969-1.625.976563-5.539062-2.152344-12.105468-2.660157-19-1.296876-12.027343 2.378907-21.472656 9.71875-24.652343 19.148438-4.027344 11.945312 1.34375 26.292969 12.226562 32.65625 4.304688 2.519531 9.300781 3.832031 14.46875 3.917969l65.023438 65.464843c-4.375 5.898438-7.5625 12.667969-9.210938 19.859376-64.859375-3.820313-130.472656-5.558594-195.484375-.882813-16.902344 1.21875-34.699218 3.070313-50.183594 11-17.890624 9.160156-29.3867182 25.941406-29.28515575 42.75.08593755 14.464844 8.87109375 29.261719 22.92968775 38.617187 11.792968 7.84375 25.367187 11.257813 36.851562 13.160157-2.082031 2.207031-4.125 4.445312-6.136718 6.714843-9.207032 10.394532-17.699219 21.507813-25.253907 33.03125-4.609375 7.03125-9.183593 14.726563-11.421875 23.335938-2.570312 9.867188-1.46875 19.746094 3.019532 27.105469 4.523437 7.417969 12.621093 11.957031 20.539062 11.957031 1.6875 0 3.367188-.207031 5.003906-.632812 3.886719-1.019532 7.0625-2.988282 9.761719-5.507813 33.078125 13 58.046875 44.796875 62.761719 80.035156-12.609375 8.890625-19.765625 24.769531-17.878906 40.121094.257812 2.085937 2.039062 3.632813 4.175781 3.535156 22.292969-.957031 44.902343-.878906 67.195312.226563.066407.003906.132813.003906.199219.003906 1.097656 0 2.148438-.445312 2.910156-1.238281.808594-.84375 1.210938-1.996094 1.105469-3.160157-1.730469-18.8125-13.070313-36.144531-29.605469-45.273437-2.425781-21.507813-11.164062-42.597656-24.6875-59.484375-13.496094-16.847656-32.121094-29.964844-52.527344-37.042969 13.023438-25.820312 35.847657-46.476562 62.867188-56.808593 2.878906-1.101563 5.8125-2.117188 8.914062-3.191407 6.738282-2.328125 13.578126-4.710937 19.769532-7.957031.523437.261719 1.101562.425781 1.722656.4375 11.140625.203125 23.066406.695312 34.605469 1.171875 9.542969.390625 19.34375.792969 28.785156 1.039063-8.632813 9.902343-16.628906 20.429687-23.773437 31.328124-4.609376 7.03125-9.183594 14.726563-11.425782 23.335938-2.566406 9.867188-1.464844 19.746094 3.023438 27.109375 4.523437 7.417969 12.621094 11.957031 20.539062 11.957031 1.6875 0 3.367188-.207031 5.003906-.632812 3.886719-1.019532 7.0625-2.988282 9.761719-5.511719 33.078125 13 58.050781 44.800781 62.761719 80.039063-12.609375 8.890624-19.765625 24.769531-17.878906 40.117187.257812 2.089844 2.0625 3.648437 4.175781 3.539063 22.296875-.957032 44.902344-.882813 67.195313.226562.066406.003906.132812.003906.199218.003906 1.097656 0 2.148438-.445312 2.914063-1.242187.804687-.84375 1.210937-1.996094 1.101562-3.160157-1.726562-18.808593-13.066406-36.140624-29.601562-45.269531-2.429688-21.507812-11.167969-42.597656-24.691407-59.484375-13.496093-16.851562-32.121093-29.96875-52.527343-37.042968 13.023437-25.824219 35.847656-46.476563 62.867187-56.8125 2.878906-1.101563 5.8125-2.113282 8.914063-3.1875 3.578125-1.238282 7.183593-2.484376 10.703125-3.867188 3.925781.871094 8.429687 1.265625 13.265625 1.265625 14.367187-.003906 31.613281-3.421875 44.949219-7.707031 19.449218-6.25 34.542968-17.773438 42.5-32.441406 9.597656-17.6875 7.394531-39.902344-5.238282-52.824219-10.257812-10.488281-24.472656-13.699219-39.828125-15.277344-1.398437-16.714844-10.984375-32.421875-25.28125-41.222656-12.011719-7.394531-26.882812-9.632813-40.554687-6.4375-.195313-.492188-.492188-.949219-.890625-1.347657l-63.714844-63.667968s0 0 .003906-.003906c.527344-1.308594.9375-2.65625 1.253907-4.019532l68.929687-21.269531-2.367187 7.035156c-.359376 1.058594-.261719 2.21875.273437 3.207031.53125.984376 1.449219 1.703126 2.535156 1.984376l105.667969 27.40625c.296875.078124.597656.113281.894531.121093l27.828125 25.902344c.777344.722656 1.761719 1.078125 2.746094 1.078125 1.082031 0 2.160156-.429688 2.953125-1.285156 1.515625-1.628906 1.425781-4.179688-.207031-5.699219l-27.566406-25.65625c.347656.015625.699218.027344 1.046874.027344 11.410157 0 22.410157-7.105469 26.875-17.707031 4.539063-10.773438 1.777344-23.855469-6.503906-31.996094l34.804688-4.414063c2.210937-.28125 3.773437-2.300781 3.496094-4.511719zm-292.652344 35.632813c2.226562-6.597656 9.515625-12.019531 18.578125-13.8125 2.003906-.398437 3.976562-.589844 5.882812-.589844 6.289063 0 11.820313 2.105469 15.171875 5.957031 4.402344 5.066407 5.558594 12.9375 2.878906 19.59375-2.566406 6.375-8.601562 11.644532-15.746093 13.75-6.269531 1.847657-13.039063 1.183594-18.109375-1.78125-7.578125-4.429687-11.460938-14.800781-8.65625-23.117187zm16.597656 124.640625c30.835938 1.039062 61.609375 2.835938 92.164062 4.925781l-.988281 15.75-82.777343-1.476562c-3.441407-.058594-6.230469-.210938-8.152344-1.5-2.035156-1.363281-3.242188-4.398438-3.074219-7.722657.167969-3.304687 1.464844-6.683593 2.828125-9.976562zm-136.632812 1.84375c23.765624-1.710938 47.632812-2.554688 71.523437-2.75 1.316406 5.15625 2.460937 10.417969 2.125 15.527344-.304687 4.613281-2.289063 10.542968-6.9375 13.347656-4.203125 2.53125-10.210937 2.285156-15.042969 2.085938l-46.796875-1.933594c-5.515625-.230469-11.148437-.726563-14.085937-4.019532-1.96875-2.207031-2.703125-5.835937-1.960938-9.710937.769532-4 2.878906-7.90625 4.917969-11.683594.070313-.125.113281-.261719.164063-.394531 2.023437-.167969 4.054687-.324219 6.09375-.46875zm87.015624 309.121094c-19.636718-.839844-39.480468-.894532-59.117187-.160156-.050781-11.601563 6.148437-23.402344 15.894531-29.652344.652344-.417969 1.132813-1 1.445313-1.648438l15.582031-4.066406c.335938.453125.761719.851562 1.289062 1.140625 12.703126 6.96875 22.121094 20.132813 24.90625 34.386719zm-51.890624-95.832032c12.039062 15.035157 20.015624 33.652344 22.65625 52.761719l-12.25 3.195313c-5.996094-35.921875-31.382813-68.082032-64.917969-82.28125 1.765625-2.691406 3.304687-5.582032 4.726562-8.464844 19.34375 6.503906 37.023438 18.859375 49.785157 34.789062zm22.914062-109.703124c-3.027344 1.046874-6.160156 2.128906-9.160156 3.277343-29.421875 11.25-54.199219 33.949219-67.972656 62.277344-.367188.757813-.734376 1.527344-1.105469 2.300781-4.171875 8.695313-8.484375 17.683594-16.363281 19.746094-5.851563 1.535156-12.996094-1.785156-16.613282-7.71875-3.355468-5.503906-4.121094-13.109375-2.101562-20.875 1.949218-7.484375 6.132812-14.492188 10.363281-20.949219 7.339844-11.199219 15.597656-22 24.542969-32.101562 15.617187-17.632813 33.417968-33.28125 52.902344-46.507813l1.199218-.8125c14.074219-9.566406 33.347656-22.671875 48.839844-12.949218 10.945312 6.867187 14.898438 23.238281 8.292969 34.34375-6.453125 10.84375-19.859375 15.480468-32.824219 19.96875zm202.421875 205.535156c-19.640625-.839844-39.484375-.894532-59.121094-.160156-.050781-11.601563 6.148438-23.402344 15.894531-29.652344.652344-.417969 1.132813-1 1.445313-1.648438l15.582031-4.066406c.335938.453125.761719.851562 1.289063 1.140625 12.703125 6.96875 22.121093 20.132813 24.910156 34.386719zm-51.894531-95.832032c12.039062 15.035157 20.015625 33.652344 22.660156 52.761719l-12.253906 3.195313c-5.996094-35.921875-31.382813-68.082032-64.917969-82.285156 1.765625-2.6875 3.304687-5.578126 4.726563-8.464844 19.347656 6.507812 37.027343 18.863281 49.785156 34.792968zm22.914062-109.703124c-3.027344 1.046874-6.160156 2.128906-9.160156 3.277343-29.421875 11.25-54.195312 33.949219-67.972656 62.277344-.367188.761719-.738282 1.527344-1.109375 2.304687-4.167969 8.691407-8.480469 17.679688-16.359375 19.746094-5.851563 1.535156-12.992188-1.789062-16.613282-7.722656-3.359374-5.503906-4.125-13.109375-2.101562-20.875 1.945312-7.484375 6.132812-14.492188 10.363281-20.949219 7.335938-11.195312 15.597657-21.996093 24.542969-32.101562 15.617188-17.632813 33.417969-33.28125 52.902344-46.507813l1.199218-.8125c14.074219-9.566406 33.351563-22.671875 48.839844-12.949218 10.945313 6.867187 14.898438 23.238281 8.292969 34.34375-6.453125 10.84375-19.859375 15.480468-32.824219 19.96875zm106.964844-38.972657c-6.964844 12.835938-20.417969 22.996094-37.882812 28.605469-12.21875 3.929688-28.664063 7.246094-42.03125 7.324219 5.042968-3.261719 9.449218-7.335938 12.703124-12.800781 8.871094-14.910157 3.761719-36.078126-10.933593-45.300782-19.957031-12.519531-42.648438 2.90625-57.664063 13.113282l-1.191406.808593c-17.761719 12.054688-34.160156 26.070313-48.84375 41.730469-.289062-.074219-.585938-.121094-.894531-.125-11.140625-.207031-23.070313-.695312-34.605469-1.171875-8.574219-.351563-17.363281-.714844-25.910156-.960937 2.507812-2.324219 4.746094-4.976563 6.601562-8.09375 8.871094-14.910157 3.761719-36.078126-10.9375-45.300782-19.953125-12.519531-42.644531 2.90625-57.660156 13.113282l-1.191406.808593c-14.816406 10.054688-28.679688 21.472657-41.390625 34.066407-.203125-.0625-.410157-.121094-.628907-.152344-17.164062-2.402344-29.078124-6.3125-38.636718-12.671875-11.859375-7.890625-19.265625-20.132813-19.335938-31.949219-.082031-13.792969 9.691406-27.738281 24.902344-35.523438 9.675781-4.957031 20.3125-7.308593 31.425781-8.6875-1.457031 2.957032-2.777343 6.148438-3.433593 9.582032-1.214844 6.324218.230468 12.53125 3.863281 16.601562 5.457031 6.113282 14.414062 6.484375 19.765625 6.707032l46.800781 1.929687c1.433594.0625 3.003906.125 4.652344.125 4.78125 0 10.214843-.546875 14.886719-3.359375 6.203124-3.742188 10.25-11.113281 10.820312-19.722656.367188-5.5625-.644531-11.03125-1.871094-16.101563 16.078125-.03125 32.164063.210938 48.238282.675781-1.144532 3.042969-2.132813 6.328126-2.3125 9.839844-.3125 6.195313 2.230468 11.875 6.636718 14.832032 4.046875 2.714843 8.933594 2.800781 12.503906 2.867187l86.628907 1.542969h.074219c2.125 0 3.890624-1.652344 4.023437-3.78125l1.226563-19.542969c18.367187 1.289063 36.648437 2.667969 54.816406 4.039063 16.828125 1.269531 32.769531 3.265624 42.863281 13.589843 10.226563 10.457031 11.875 28.683594 3.921875 43.34375zm-67.488281-98.613281c11.753906 7.234375 19.769531 19.960938 21.351562 33.640625-.011719 0-.027343-.003906-.042969-.003906-29.46875-2.222657-59.246093-4.46875-89.199218-6.3125 3.5-13.339844 13.25-24.820313 25.925781-30.320313 13.425781-5.820312 29.503906-4.675781 41.964844 2.996094zm-44.59375-10.625c-.191407.082031-.386719.148438-.578125.230469-6.140625 2.664062-11.691406 6.53125-16.394532 11.242187l-60.296874-60.703125c6.753906-1.992187 12.621093-6.011719 16.734374-11.257812zm-54.441407-80.359375c-.445312-5.644531-2.554687-11.078125-6.167968-15.234375-.398438-.460938-.816406-.902344-1.25-1.324219l85.851562-26.15625-6.96875 20.667969zm92.148438-58.164063c.414062-1.230468.871094-2.589843 1.214844-3.390624 1.007812.207031 2.652344.722656 3.546875 1.003906 7.261719 2.277344 14.519531 4.554687 21.78125 6.832031l45.609375 14.296875c.71875.226562 2.503906.71875 5.210937 1.460938 4.855469 1.335937 17.867188 4.917968 23.71875 6.957031l-20.214843 49.316406-98.070313-25.4375zm109.386719 58.816407c-2.953125 7.015625-10.195313 12.019531-17.765625 12.683593l14.175781-34.574218c5.015625 5.882812 6.597656 14.753906 3.589844 21.890625zm0 0" fill="#231f20"/></svg>