<svg id="color_line" height="512" viewBox="0 0 74 74" width="512" xmlns="http://www.w3.org/2000/svg" data-name="color line"><path d="m48.233 15.073-3.914 15.227a11.009 11.009 0 0 0 -5.108-1.249 2.4 2.4 0 0 0 -.287.011l3.958-15.369a2.763 2.763 0 1 1 5.351 1.382z" fill="#eeefee"/><path d="m44.318 30.8a.5.5 0 0 1 -.231-.057 10.661 10.661 0 0 0 -4.934-1.192 1.378 1.378 0 0 0 -.171.007.5.5 0 0 1 -.544-.621l3.962-15.371a3.262 3.262 0 0 1 3.969-2.35 3.287 3.287 0 0 1 2.351 3.98l-3.92 15.227a.5.5 0 0 1 -.281.332.49.49 0 0 1 -.201.045zm-4.749-2.244a11.61 11.61 0 0 1 4.417 1.026l3.762-14.632a2.285 2.285 0 0 0 -1.632-2.765 2.263 2.263 0 0 0 -2.75 1.629z" fill="#323c6b"/><path d="m53.009 10.927a6.576 6.576 0 0 1 -5.374 6.457l.6-2.311a2.763 2.763 0 1 0 -5.351-1.382l-.6 2.322a6.568 6.568 0 1 1 10.725-5.086z" fill="#fe7058"/><path d="m15.261 51.152a4.908 4.908 0 0 0 .044-.7 6.109 6.109 0 0 0 -1.957-4.489l14.794-5.44a10.991 10.991 0 0 0 1.57 5.307z" fill="#eeefee"/><path d="m15.261 51.652a.5.5 0 0 1 -.5-.571 4.34 4.34 0 0 0 .04-.625 5.637 5.637 0 0 0 -1.8-4.123.5.5 0 0 1 .167-.836l14.794-5.44a.5.5 0 0 1 .673.452 10.528 10.528 0 0 0 1.5 5.066.5.5 0 0 1 -.255.728l-14.446 5.318a.508.508 0 0 1 -.173.031zm-1.024-5.479a6.646 6.646 0 0 1 1.569 4.246l13.182-4.851a11.53 11.53 0 0 1 -1.3-4.341z" fill="#323c6b"/><path d="m61.324 56.338a6.937 6.937 0 0 0 -3.782 4.036l-11.919-11.2a11.121 11.121 0 0 0 3.571-4.224z" fill="#eeefee"/><path d="m57.543 60.874a.5.5 0 0 1 -.343-.136l-11.919-11.2a.5.5 0 0 1 .054-.772 10.617 10.617 0 0 0 3.41-4.034.5.5 0 0 1 .792-.146l12.129 11.387a.5.5 0 0 1 -.143.823 6.445 6.445 0 0 0 -3.509 3.744.5.5 0 0 1 -.354.319.489.489 0 0 1 -.117.015zm-11.143-11.658 10.957 10.3a7.464 7.464 0 0 1 3.1-3.3l-11.123-10.451a11.631 11.631 0 0 1 -2.934 3.451z" fill="#323c6b"/><circle cx="9.15" cy="50.453" fill="#05afd6" r="6.15"/><circle cx="9.15" cy="29.312" fill="#9297ab" r="3.945"/><circle cx="64.066" cy="62.707" fill="#27ccbc" r="6.934"/><circle cx="39.211" cy="40.133" fill="#fcd462" r="11.08"/><path d="m53.01 10.93a6.552 6.552 0 0 1 -2.73 5.32 6.455 6.455 0 0 0 .81-3.16 6.559 6.559 0 0 0 -10.41-5.31 6.567 6.567 0 0 1 12.33 3.15z" fill="#ea6453"/><path d="m15.3 50.45a6.13 6.13 0 0 1 -2.63 5.04 6.148 6.148 0 0 0 -8.96-7.91 6.151 6.151 0 0 1 11.59 2.87z" fill="#27a2db"/><path d="m71 62.71a6.883 6.883 0 0 1 -2.82 5.57 6.92 6.92 0 0 0 -10.15-8.97 6.927 6.927 0 0 1 12.97 3.4z" fill="#21b3a9"/><path d="m50.29 40.13a11.015 11.015 0 0 1 -3.79 8.34 11.082 11.082 0 0 0 -16.48-14.53 11.08 11.08 0 0 1 20.27 6.19z" fill="#f7be56"/><path d="m9.15 44.8a.5.5 0 0 1 -.5-.5v-11.043a.5.5 0 0 1 1 0v11.043a.5.5 0 0 1 -.5.5z" fill="#323c6b"/><circle cx="42.143" cy="63.329" fill="#9297ab" r="3.945"/><path d="m57.133 63.829h-11.045a.5.5 0 0 1 0-1h11.045a.5.5 0 0 1 0 1z" fill="#323c6b"/><circle cx="61.351" cy="30.859" fill="#9297ab" r="3.945" transform="matrix(.915 -.403 .403 .915 -7.235 27.369)"/><path d="m13.1 29.31a3.925 3.925 0 0 1 -2.14 3.5 3.817 3.817 0 0 0 .39-1.69 3.949 3.949 0 0 0 -5.76-3.5 3.947 3.947 0 0 1 7.51 1.69z" fill="#84879c"/><path d="m46.09 63.33a3.925 3.925 0 0 1 -2.14 3.5 3.817 3.817 0 0 0 .39-1.69 3.949 3.949 0 0 0 -5.76-3.5 3.944 3.944 0 0 1 7.51 1.69z" fill="#84879c"/><path d="m63.16 34.36a3.941 3.941 0 0 0 -5.15-5.3c-.07.03-.15.07-.22.1a3.943 3.943 0 1 1 5.37 5.2z" fill="#84879c"/><g fill="#323c6b"><path d="m49.526 36.582a.5.5 0 0 1 -.2-.958l8.214-3.624a.5.5 0 0 1 .4.915l-8.216 3.627a.5.5 0 0 1 -.198.04z"/><path d="m47.636 17.884a.5.5 0 0 1 -.484-.625l.6-2.311a2.284 2.284 0 0 0 -1.632-2.764 2.263 2.263 0 0 0 -2.75 1.629l-.6 2.324a.5.5 0 0 1 -.8.262 7.071 7.071 0 1 1 5.76 1.476.519.519 0 0 1 -.094.009zm-2.083-6.771a3.268 3.268 0 0 1 3.164 4.087l-.386 1.5a6.065 6.065 0 1 0 -6.321-1.62l.388-1.507a3.266 3.266 0 0 1 3.155-2.453z"/><path d="m9.15 57.1a6.65 6.65 0 1 1 6.65-6.65 6.658 6.658 0 0 1 -6.65 6.65zm0-12.3a5.65 5.65 0 1 0 5.65 5.65 5.657 5.657 0 0 0 -5.65-5.65z"/><path d="m64.066 70.141a7.434 7.434 0 1 1 7.434-7.433 7.442 7.442 0 0 1 -7.434 7.433zm0-13.867a6.434 6.434 0 1 0 6.434 6.434 6.441 6.441 0 0 0 -6.434-6.434z"/><path d="m39.211 51.713a11.58 11.58 0 1 1 11.58-11.58 11.593 11.593 0 0 1 -11.58 11.58zm0-22.16a10.58 10.58 0 1 0 10.58 10.58 10.592 10.592 0 0 0 -10.58-10.58z"/><path d="m9.15 33.757a4.445 4.445 0 1 1 4.45-4.444 4.45 4.45 0 0 1 -4.45 4.444zm0-7.89a3.445 3.445 0 1 0 3.45 3.446 3.449 3.449 0 0 0 -3.45-3.446z"/><path d="m42.143 67.774a4.445 4.445 0 1 1 4.445-4.445 4.45 4.45 0 0 1 -4.445 4.445zm0-7.89a3.445 3.445 0 1 0 3.445 3.445 3.448 3.448 0 0 0 -3.445-3.445z"/><path d="m61.353 35.306a4.449 4.449 0 1 1 1.792-.38 4.438 4.438 0 0 1 -1.792.38zm-.003-7.894a3.45 3.45 0 1 0 1.248.235 3.43 3.43 0 0 0 -1.248-.235z"/><path d="m68.667 72a.5.5 0 0 1 -.232-.943c.072-.038.14-.082.207-.126l.188-.118a.5.5 0 1 1 .506.862l-.15.095c-.094.061-.187.121-.286.172a.5.5 0 0 1 -.233.058z"/><path d="m64.066 73.141a10.328 10.328 0 0 1 -5.936-1.879.5.5 0 1 1 .572-.82 9.166 9.166 0 0 0 7.121 1.529.5.5 0 1 1 .186.982 10.494 10.494 0 0 1 -1.943.188z"/><path d="m26.229 35.25a.494.494 0 0 1 -.192-.039.5.5 0 0 1 -.269-.654l.048-.126c.026-.074.054-.148.086-.22a.5.5 0 0 1 .912.411c-.022.049-.04.1-.059.15l-.065.171a.5.5 0 0 1 -.461.307z"/><path d="m27.566 32.75a.5.5 0 0 1 -.413-.782 14.61 14.61 0 0 1 6.579-5.317.5.5 0 0 1 .377.926 13.611 13.611 0 0 0 -6.13 4.955.5.5 0 0 1 -.413.218z"/></g><path d="m41.84 47.45a.653.653 0 0 1 -.55.74c-.09.01-.69.15-.82.17h-.1a.648.648 0 0 1 -.09-1.29c.09-.01.69-.15.82-.16a.308.308 0 0 1 .1-.01.653.653 0 0 1 .64.55z" fill="#fff"/><path d="m37.893 48.341a.679.679 0 0 1 -.112-.009 8.318 8.318 0 0 1 -6.151-4.771.65.65 0 1 1 1.184-.537 7.017 7.017 0 0 0 5.186 4.026.65.65 0 0 1 -.11 1.291z" fill="#fff"/></svg>