<svg id="color_line" height="512" viewBox="0 0 74 74" width="512" xmlns="http://www.w3.org/2000/svg" data-name="color line"><circle cx="36.757" cy="50.547" fill="#27ccbc" r="20.453" transform="matrix(.707 -.707 .707 .707 -24.976 40.796)"/><path d="m51.83 64.38a20.456 20.456 0 0 0 -31.33-26.04q-.33.33-.63.66a20.168 20.168 0 0 1 2.42-2.92 20.459 20.459 0 0 1 29.54 28.3z" fill="#21b3a9"/><circle cx="36.757" cy="50.547" fill="#eeefee" r="16.007" transform="matrix(.707 -.707 .707 .707 -24.976 40.796)"/><path d="m48.08 61.87c-.18.18-.36.35-.55.53a16.01 16.01 0 0 0 -23.48-21.58 17.184 17.184 0 0 1 1.39-1.59 16.009 16.009 0 0 1 22.64 22.64z" fill="#e1e6e9"/><path d="m38.556 40.347c.208 1.081.151 2-3.312 2.667s-3.857-.168-4.065-1.25-.151-2 3.312-2.667 3.857.169 4.065 1.25z" fill="#fe7058"/><path d="m33.2 43.75a3.355 3.355 0 0 1 -1.419-.252 2.043 2.043 0 0 1 -1.091-1.639c-.3-1.551.214-2.581 3.709-3.252a6.2 6.2 0 0 1 3.559.008 2.043 2.043 0 0 1 1.091 1.639 2.041 2.041 0 0 1 -.406 1.926 6.2 6.2 0 0 1 -3.3 1.326 11.646 11.646 0 0 1 -2.143.244zm3.347-4.389a10.778 10.778 0 0 0 -1.959.228c-3.2.614-3.061 1.327-2.916 2.082.108.566.233.781.532.921a5.645 5.645 0 0 0 2.947-.069 5.65 5.65 0 0 0 2.763-1.028c.226-.241.261-.487.152-1.053-.108-.566-.233-.781-.532-.921a2.417 2.417 0 0 0 -.99-.16z" fill="#323c6b"/><path d="m34.491 39.6a.5.5 0 0 1 -.491-.407l-.291-1.515a.5.5 0 1 1 .982-.188l.291 1.51a.5.5 0 0 1 -.4.585.522.522 0 0 1 -.091.015z" fill="#323c6b"/><path d="m31.908 40.414a.5.5 0 0 1 -.491-.406l-.228-1.183a.5.5 0 0 1 .982-.188l.229 1.183a.5.5 0 0 1 -.4.585.522.522 0 0 1 -.092.009z" fill="#323c6b"/><path d="m37.192 39.4a.5.5 0 0 1 -.491-.406l-.228-1.183a.5.5 0 0 1 .982-.188l.228 1.183a.5.5 0 0 1 -.4.585.522.522 0 0 1 -.091.009z" fill="#323c6b"/><path d="m35.534 45.029a.5.5 0 0 1 -.491-.406l-.291-1.515a.5.5 0 1 1 .982-.188l.291 1.515a.5.5 0 0 1 -.4.585.522.522 0 0 1 -.091.009z" fill="#323c6b"/><path d="m32.769 44.9a.5.5 0 0 1 -.491-.406l-.227-1.183a.5.5 0 0 1 .982-.188l.227 1.183a.5.5 0 0 1 -.4.585.522.522 0 0 1 -.091.009z" fill="#323c6b"/><path d="m38.053 43.881a.5.5 0 0 1 -.491-.406l-.227-1.183a.5.5 0 1 1 .982-.188l.227 1.183a.5.5 0 0 1 -.4.585.522.522 0 0 1 -.091.009z" fill="#323c6b"/><path d="m48.829 53.117c.208 1.081.151 2-3.312 2.667s-3.857-.168-4.065-1.25-.151-2 3.312-2.667 3.857.168 4.065 1.25z" fill="#fe7058"/><path d="m43.472 56.52a3.36 3.36 0 0 1 -1.42-.253 2.043 2.043 0 0 1 -1.091-1.639c-.3-1.551.214-2.58 3.709-3.252a6.2 6.2 0 0 1 3.559.008 2.043 2.043 0 0 1 1.091 1.639 2.042 2.042 0 0 1 -.406 1.926 6.2 6.2 0 0 1 -3.3 1.326 11.636 11.636 0 0 1 -2.142.245zm3.347-4.39a10.79 10.79 0 0 0 -1.96.229c-3.2.614-3.061 1.327-2.916 2.081.108.566.233.781.532.921a5.643 5.643 0 0 0 2.947-.068 5.644 5.644 0 0 0 2.763-1.029c.226-.24.261-.486.152-1.053-.108-.566-.233-.781-.532-.921a2.412 2.412 0 0 0 -.986-.16z" fill="#323c6b"/><path d="m44.764 52.368a.5.5 0 0 1 -.491-.406l-.291-1.515a.5.5 0 0 1 .982-.188l.291 1.515a.5.5 0 0 1 -.4.585.522.522 0 0 1 -.091.009z" fill="#323c6b"/><path d="m42.182 53.183a.5.5 0 0 1 -.491-.406l-.228-1.183a.5.5 0 1 1 .982-.188l.228 1.183a.5.5 0 0 1 -.4.585.522.522 0 0 1 -.091.009z" fill="#323c6b"/><path d="m47.465 52.168a.5.5 0 0 1 -.491-.406l-.228-1.183a.5.5 0 0 1 .982-.188l.228 1.183a.5.5 0 0 1 -.4.585.522.522 0 0 1 -.091.009z" fill="#323c6b"/><path d="m45.807 57.8a.5.5 0 0 1 -.491-.406l-.291-1.515a.5.5 0 1 1 .982-.188l.293 1.509a.5.5 0 0 1 -.4.585.522.522 0 0 1 -.093.015z" fill="#323c6b"/><path d="m43.042 57.665a.5.5 0 0 1 -.491-.406l-.227-1.183a.5.5 0 0 1 .982-.188l.227 1.183a.5.5 0 0 1 -.4.585.522.522 0 0 1 -.091.009z" fill="#323c6b"/><path d="m48.326 56.65a.5.5 0 0 1 -.491-.406l-.227-1.183a.5.5 0 1 1 .982-.188l.227 1.183a.5.5 0 0 1 -.4.585.522.522 0 0 1 -.091.009z" fill="#323c6b"/><path d="m32.062 55.442c.208 1.081.151 2-3.312 2.667s-3.857-.168-4.065-1.25-.151-2 3.312-2.667 3.858.168 4.065 1.25z" fill="#fe7058"/><path d="m26.7 58.843c-1.745 0-2.285-.723-2.51-1.89-.3-1.551.214-2.581 3.709-3.252s4.352.1 4.65 1.646c.3 1.551-.214 2.581-3.709 3.252a11.651 11.651 0 0 1 -2.14.244zm3.35-4.393a10.746 10.746 0 0 0 -1.958.233c-3.2.614-3.061 1.327-2.916 2.082s.285 1.466 3.479.853 3.061-1.327 2.916-2.082c-.106-.554-.209-1.086-1.521-1.086z" fill="#323c6b"/><path d="m28 54.692a.5.5 0 0 1 -.491-.406l-.291-1.515a.5.5 0 0 1 .982-.188l.291 1.515a.5.5 0 0 1 -.4.585.522.522 0 0 1 -.091.009z" fill="#323c6b"/><path d="m25.415 55.508a.5.5 0 0 1 -.491-.406l-.224-1.183a.5.5 0 0 1 .982-.188l.227 1.183a.5.5 0 0 1 -.4.585.522.522 0 0 1 -.094.009z" fill="#323c6b"/><path d="m30.7 54.493a.5.5 0 0 1 -.491-.406l-.229-1.187a.5.5 0 0 1 .982-.188l.228 1.188a.5.5 0 0 1 -.4.585.522.522 0 0 1 -.09.008z" fill="#323c6b"/><path d="m29.041 60.123a.5.5 0 0 1 -.491-.406l-.291-1.517a.5.5 0 0 1 .982-.188l.291 1.515a.5.5 0 0 1 -.4.585.522.522 0 0 1 -.091.011z" fill="#323c6b"/><path d="m26.275 59.99a.5.5 0 0 1 -.491-.406l-.226-1.184a.5.5 0 1 1 .982-.188l.227 1.183a.5.5 0 0 1 -.4.585.522.522 0 0 1 -.092.01z" fill="#323c6b"/><path d="m31.559 58.975a.5.5 0 0 1 -.491-.406l-.227-1.183a.5.5 0 0 1 .982-.188l.227 1.183a.5.5 0 0 1 -.4.585.522.522 0 0 1 -.091.009z" fill="#323c6b"/><circle cx="27.594" cy="46.912" fill="#27ccbc" r="1.904"/><path d="m27.594 49.316a2.4 2.4 0 1 1 2.4-2.4 2.407 2.407 0 0 1 -2.4 2.4zm0-3.808a1.4 1.4 0 1 0 1.4 1.4 1.406 1.406 0 0 0 -1.4-1.4z" fill="#323c6b"/><circle cx="38.688" cy="60.573" fill="#27ccbc" r="1.92"/><path d="m38.688 62.993a2.42 2.42 0 1 1 2.42-2.42 2.423 2.423 0 0 1 -2.42 2.42zm0-3.84a1.42 1.42 0 1 0 1.42 1.42 1.422 1.422 0 0 0 -1.42-1.42z" fill="#323c6b"/><circle cx="44.06" cy="43.558" fill="#fcd462" r="2.113"/><path d="m44.06 46.171a2.613 2.613 0 1 1 2.613-2.613 2.615 2.615 0 0 1 -2.613 2.613zm0-4.226a1.613 1.613 0 1 0 1.613 1.613 1.615 1.615 0 0 0 -1.613-1.613z" fill="#323c6b"/><circle cx="35.94" cy="50.486" fill="#fcd462" r="2.113"/><path d="m35.94 53.1a2.613 2.613 0 1 1 2.613-2.613 2.615 2.615 0 0 1 -2.613 2.613zm0-4.226a1.613 1.613 0 1 0 1.613 1.613 1.615 1.615 0 0 0 -1.613-1.614z" fill="#323c6b"/><path d="m61.217 6.567a6.272 6.272 0 0 0 -7.942-3.952l-6.161 2.066 3.986 11.894 6.161-2.067a6.272 6.272 0 0 0 3.956-7.941z" fill="#9297ab"/><path d="m50.976 16.195-3.734-11.134a2.138 2.138 0 1 0 -4.053 1.36l3.735 11.134a2.138 2.138 0 0 0 4.053-1.36z" fill="#9297ab"/><path d="m43.025 5.933-16.173 5.425c-5.874 1.97-8.206 4.422-11.988 8.845a2.114 2.114 0 0 0 1.153 3.437c5.684 1.247 9.023 1.8 14.9-.173l16.172-5.425z" fill="#eeefee"/><path d="m28.25 10.889-1.4.469c-5.874 1.97-8.206 4.422-11.988 8.845a2.114 2.114 0 0 0 1.153 3.437c5.684 1.247 9.023 1.8 14.9-.173l10.708-3.592c-2.592-5.344-12.003-6.248-13.373-8.986z" fill="#fe7058"/><path d="m61.48 7.67a6.269 6.269 0 0 0 -7.6-3.14l-6.13 2.06-.51-1.53c0-.01 0-.01-.01-.02l-.12-.36 6.17-2.07a6.273 6.273 0 0 1 7.94 3.96 6.474 6.474 0 0 1 .26 1.1z" fill="#84879c"/><path d="m47.84 6.96a2.134 2.134 0 0 0 -4.13 1l-.52-1.54a2.135 2.135 0 0 1 4.04-1.38c.01.01.01.01.01.02l.51 1.53-.03.01z" fill="#84879c"/><path d="m43.78 8.3-.15-.45-13.61 4.57-1.17.39-1.39.46c-5.88 1.97-8.21 4.43-11.99 8.85a2.088 2.088 0 0 0 -.47.97 2.055 2.055 0 0 1 -.55-.9 2.8 2.8 0 0 1 -.06-.28 2.066 2.066 0 0 1 -.03-.35 2.162 2.162 0 0 1 .12-.71 1.88 1.88 0 0 1 .38-.65c3.79-4.42 6.12-6.87 11.99-8.84l1.4-.47 14.77-4.96.17.49.52 1.56v.02c.02.1.04.2.07.3z" fill="#e1e6e9"/><path d="m28.25 10.889-1.4.469c-5.874 1.97-8.206 4.422-11.988 8.845a2.114 2.114 0 0 0 1.153 3.437c5.684 1.247 9.023 1.8 14.9-.173l10.708-3.592c-2.592-5.344-12.003-6.248-13.373-8.986z" fill="#fe7058"/><path d="m30.02 12.42-1.17.39-1.39.46c-5.88 1.97-8.21 4.43-11.99 8.85a2.088 2.088 0 0 0 -.47.97 2.055 2.055 0 0 1 -.55-.9 2.8 2.8 0 0 1 -.06-.28 2.066 2.066 0 0 1 -.03-.35 2.162 2.162 0 0 1 .12-.71 2.26 2.26 0 0 1 .38-.65c3.79-4.42 6.12-6.87 11.99-8.84l1.4-.47a4.16 4.16 0 0 0 1.77 1.53z" fill="#ea6453"/><path d="m13.518 32.129c0-1.538 2.785-5.253 2.785-5.253s2.785 3.715 2.785 5.253a2.785 2.785 0 1 1 -5.571 0z" fill="#fe7058"/><g fill="#323c6b"><path d="m16.3 35.414a3.289 3.289 0 0 1 -3.285-3.286c0-1.657 2.59-5.159 2.885-5.553a.518.518 0 0 1 .8 0c.3.394 2.886 3.9 2.886 5.553a3.29 3.29 0 0 1 -3.286 3.286zm0-7.688c-1.013 1.434-2.285 3.525-2.285 4.4a2.285 2.285 0 1 0 4.571 0c.003-.876-1.269-2.966-2.286-4.4z"/><path d="m23.777 25.263a36.45 36.45 0 0 1 -7.867-1.135 2.614 2.614 0 0 1 -1.425-4.25c3.751-4.387 6.168-6.968 12.209-8.994l16.172-5.425a.5.5 0 0 1 .633.315l4.062 12.109a.5.5 0 0 1 -.315.633l-16.173 5.425a22.344 22.344 0 0 1 -7.296 1.322zm18.933-18.697-15.7 5.266c-5.8 1.946-8.025 4.32-11.768 8.7a1.614 1.614 0 0 0 .88 2.623c5.624 1.235 8.83 1.788 14.63-.159l15.7-5.266z"/><path d="m36.757 71.5a20.954 20.954 0 1 1 14.816-6.137 20.817 20.817 0 0 1 -14.816 6.137zm0-40.907a19.953 19.953 0 1 0 14.109 5.844 19.823 19.823 0 0 0 -14.109-5.844z"/><path d="m36.507 66.858a16.5 16.5 0 1 1 11.672-4.827 16.457 16.457 0 0 1 -11.672 4.827zm0-32a15.5 15.5 0 1 0 10.965 4.534 15.457 15.457 0 0 0 -10.965-4.532z"/><path d="m51.1 17.075a.5.5 0 0 1 -.474-.341l-3.986-11.894a.5.5 0 0 1 .315-.633l6.161-2.066a6.772 6.772 0 0 1 8.575 4.267 6.772 6.772 0 0 1 -4.267 8.575l-6.161 2.066a.5.5 0 0 1 -.163.026zm-3.353-12.075 3.671 10.946 5.687-1.908a5.772 5.772 0 0 0 3.637-7.309 5.772 5.772 0 0 0 -7.308-3.637z"/><path d="m48.947 19.514a2.642 2.642 0 0 1 -2.5-1.8l-3.733-11.134a2.638 2.638 0 1 1 5-1.678l3.736 11.134a2.641 2.641 0 0 1 -2.5 3.478zm-3.731-15.414a1.64 1.64 0 0 0 -1.554 2.159l3.738 11.141a1.638 1.638 0 0 0 3.1-1.042l-3.732-11.138a1.641 1.641 0 0 0 -1.552-1.12z"/><path d="m12.875 18.415a.5.5 0 0 1 -.379-.826l.287-.333a.5.5 0 0 1 .757.653l-.285.331a.5.5 0 0 1 -.38.175z"/><path d="m14.493 16.459a.5.5 0 0 1 -.367-.839 28.822 28.822 0 0 1 5.474-4.709.5.5 0 0 1 .544.839 27.847 27.847 0 0 0 -5.284 4.55.5.5 0 0 1 -.367.159z"/><path d="m55.753 64.74a.452.452 0 0 1 -.267-.083.462.462 0 0 1 -.142-.657l.157-.2a.5.5 0 0 1 .817.576c-.033.046-.068.09-.1.135a.585.585 0 0 1 -.465.229z"/><path d="m57.193 62.542a.5.5 0 0 1 -.435-.746 22.654 22.654 0 0 0 2.8-8.725.494.494 0 0 1 .551-.443.5.5 0 0 1 .443.551 23.648 23.648 0 0 1 -2.927 9.108.5.5 0 0 1 -.432.255z"/></g></svg>