<svg id="color_line" height="512" viewBox="0 0 74 74" width="512" xmlns="http://www.w3.org/2000/svg" data-name="color line"><path d="m62.169 4.335a8.048 8.048 0 0 0 -11.381 0l-5.9 5.9 11.385 11.377 5.9-5.9a8.048 8.048 0 0 0 -.004-11.377z" fill="#9297ab"/><path d="m55.98 21.32-10.8-10.8a2.779 2.779 0 1 0 -3.93 3.93l10.8 10.8a2.779 2.779 0 1 0 3.93-3.93z" fill="#9297ab"/><path d="m52.526 25.717-15.68 15.692c-5.434 5.421-9.517 6.852-16.225 8.568l-3.146 3.146a2.891 2.891 0 0 1 -4.082-4.1l3.133-3.146c1.716-6.709 3.146-10.791 8.568-16.212l15.692-15.688z" fill="#eeefee"/><path d="m52.526 25.717-15.68 15.692c-5.434 5.421-9.517 6.852-16.225 8.568l-3.146 3.146a2.891 2.891 0 0 1 -4.082-4.1l3.133-3.146c1.716-6.709 3.146-10.791 8.568-16.212l15.692-15.688z" fill="#eeefee"/><path d="m63.18 5.57a8.036 8.036 0 0 0 -10.49.77l-5.84 5.85-1.67-1.67-.29-.29 5.9-5.89a8.033 8.033 0 0 1 11.38 0 8.354 8.354 0 0 1 1.01 1.23z" fill="#84879c"/><path d="m47.09 12.52a2.781 2.781 0 0 0 -4.33 3.43.035.035 0 0 1 .01.02l-1.52-1.52-.09-.1a2.777 2.777 0 0 1 4.02-3.83l1.67 1.67-.05.04z" fill="#84879c"/><path d="m42.77 15.97a.035.035 0 0 0 -.01-.02l-1.51-1.5-.09-.1-.37-.37-15.7 15.69a15.912 15.912 0 0 0 -1.717 1.83l2.783 1.042c.272-.288.55-.577.845-.872l15.689-15.69.47.47a2.929 2.929 0 0 1 -.39-.48z" fill="#e1e6e9"/><path d="m23.373 31.5c-4.03 4.568-5.329 8.449-6.847 14.382l-3.133 3.146a2.891 2.891 0 0 0 4.082 4.1l3.146-3.146c6.709-1.716 10.791-3.146 16.225-8.568l9.9-9.909c-7.704-2.672-14.211 4.287-23.373-.005z" fill="#fe7058"/><path d="m11.5 65.709c0-2.2 3.979-8.4 3.979-8.4s3.979 6.2 3.979 8.4a3.979 3.979 0 0 1 -7.958 0z" fill="#fe7058"/><path d="m19.45 65.71a3.97 3.97 0 0 1 -7.45 1.92 3.922 3.922 0 0 0 1.54.31 3.984 3.984 0 0 0 3.98-3.98c0-1.29-1.37-3.96-2.5-5.94.28-.44.45-.71.45-.71s3.98 6.2 3.98 8.4z" fill="#ea6453"/><path d="m15.475 70.188a4.484 4.484 0 0 1 -4.475-4.48c0-2.279 3.643-8.021 4.058-8.667a.519.519 0 0 1 .842 0c.415.647 4.058 6.389 4.058 8.667a4.484 4.484 0 0 1 -4.483 4.48zm0-11.936c-1.256 2.041-3.475 5.962-3.475 7.456a3.479 3.479 0 1 0 6.958 0c-.004-1.495-2.227-5.415-3.483-7.456z" fill="#323c6b"/><path d="m22.16 32.958c-3.1 3.969-4.281 7.628-5.63 12.922l-3.14 3.15a2.891 2.891 0 0 0 0 4.09 2.786 2.786 0 0 0 1.16.7 2.877 2.877 0 0 1 .75-2.79l3.13-3.15c1.581-6.167 3.311-10.532 7.725-15.338l-2.782-1.042z" fill="#ea6453"/><g fill="#323c6b"><path d="m15.428 54.462a3.389 3.389 0 0 1 -2.389-5.788l3.036-3.049c1.642-6.4 3.072-10.717 8.665-16.31l15.692-15.691a.5.5 0 0 1 .707 0l11.74 11.74a.5.5 0 0 1 0 .707l-15.679 15.692c-5.605 5.593-9.922 7.023-16.322 8.664l-3.05 3.05a3.405 3.405 0 0 1 -2.4.985zm25.358-39.778-15.339 15.339c-5.267 5.267-6.674 9.09-8.437 15.983a.5.5 0 0 1 -.13.229l-3.133 3.146a2.391 2.391 0 1 0 3.376 3.387l3.145-3.145a.5.5 0 0 1 .229-.131c6.892-1.763 10.716-3.169 16-8.437l15.322-15.338z"/><path d="m56.273 22.112a.5.5 0 0 1 -.354-.146l-11.381-11.382a.5.5 0 0 1 0-.707l5.9-5.9a8.546 8.546 0 0 1 12.088 0 8.547 8.547 0 0 1 0 12.088l-5.9 5.9a.5.5 0 0 1 -.353.147zm-10.673-11.881 10.673 10.674 5.542-5.542a7.547 7.547 0 0 0 0-10.674 7.547 7.547 0 0 0 -10.674 0z"/><path d="m54.015 26.563a3.269 3.269 0 0 1 -2.315-.963l-10.8-10.8a3.279 3.279 0 0 1 4.638-4.637l10.8 10.8a3.278 3.278 0 0 1 -2.319 5.6zm-10.8-16.352a2.278 2.278 0 0 0 -1.612 3.89l10.797 10.799a2.279 2.279 0 1 0 3.224-3.223l-10.8-10.8a2.273 2.273 0 0 0 -1.605-.666z"/><path d="m15.741 38.75a.5.5 0 0 1 -.465-.683l.076-.2c.039-.1.077-.207.12-.309a.5.5 0 1 1 .924.383c-.038.091-.072.184-.107.277l-.082.215a.5.5 0 0 1 -.466.317z"/><path d="m17.01 35.938a.5.5 0 0 1 -.443-.731 30.515 30.515 0 0 1 4.316-6.163.5.5 0 0 1 .748.664 29.509 29.509 0 0 0 -4.177 5.962.5.5 0 0 1 -.444.268z"/><path d="m65.966 16.167a.5.5 0 0 1 -.429-.756 10.512 10.512 0 0 0 1.488-5.384 10.67 10.67 0 0 0 -.307-2.492.5.5 0 0 1 .972-.235 11.637 11.637 0 0 1 .335 2.727 11.509 11.509 0 0 1 -1.63 5.9.5.5 0 0 1 -.429.24z"/><path d="m64.294 18.333a.5.5 0 0 1 -.358-.849l.358.349-.32-.391.075-.083a.5.5 0 1 1 .716.7l-.113.125a.5.5 0 0 1 -.358.149z"/></g></svg>