<svg id="color_line" height="512" viewBox="0 0 74 74" width="512" xmlns="http://www.w3.org/2000/svg" data-name="color line"><path d="m55.456 4.028v9.492a4.707 4.707 0 0 0 -5.234 0v-9.492z" fill="#bbbbcd"/><path d="m52.84 22.07a4.679 4.679 0 0 0 2.617-.795v44.137h-5.234v-44.137a4.679 4.679 0 0 0 2.617.795z" fill="#bbbbcd"/><path d="m55.46 4.03v9.49a4.712 4.712 0 0 0 -2.62-.8v-6.41h-2.62v-2.28z" fill="#9297ab"/><path d="m55.46 21.28v44.13h-2.62v-43.34a4.7 4.7 0 0 0 2.62-.79z" fill="#9297ab"/><path d="m13.708 65.414h46.585v6.669h-46.585z" fill="#9297ab"/><path d="m60.292 72.583h-46.584a.5.5 0 0 1 -.5-.5v-6.669a.5.5 0 0 1 .5-.5h46.584a.5.5 0 0 1 .5.5v6.669a.5.5 0 0 1 -.5.5zm-46.085-1h45.585v-5.669h-45.584z" fill="#323c6b"/><path d="m21.94 61.279h16.812v4.135h-16.812z" fill="#e7aa6c"/><path d="m38.751 65.914h-16.811a.5.5 0 0 1 -.5-.5v-4.135a.5.5 0 0 1 .5-.5h16.811a.5.5 0 0 1 .5.5v4.135a.5.5 0 0 1 -.5.5zm-16.312-1h15.812v-3.135h-15.811z" fill="#323c6b"/><rect fill="#9297ab" height="5.88" rx="1.448" width="20.887" x="19.902" y="2.276"/><path d="m22.183 8.156h16.324v6.407h-16.324z" fill="#eeefee"/><path d="m38.51 25.866v9.324a8.165 8.165 0 0 1 -16.33 0v-9.99a8.559 8.559 0 0 1 1.26.29c1.81.55 3.68 1.41 5.51.93 1.09-.28 2.01-1.01 3.08-1.34 2.11-.674 4.29.266 6.48.786z" fill="#fe7058"/><path d="m38.51 20.23v5.636c-2.19-.52-4.37-1.46-6.48-.79-1.07.33-1.99 1.06-3.08 1.34-1.83.48-3.7-.38-5.51-.93a8.559 8.559 0 0 0 -1.26-.29v-4.966z" fill="#eeefee"/><path d="m35.8 8.16h2.71v6.4h-2.71z" fill="#e1e6e9"/><path d="m38.51 25.87v9.32a8.154 8.154 0 0 1 -8.16 8.15 8.578 8.578 0 0 1 -1.35-.11 8.158 8.158 0 0 0 6.81-8.04v-10.03c.89.21 1.8.5 2.7.71z" fill="#ea6453"/><path d="m38.51 20.23v5.64c-.9-.21-1.81-.5-2.7-.71v-4.93z" fill="#e1e6e9"/><path d="m38.718 15.896h10.866v2.998h-10.866z" fill="#bbbbcd"/><path d="m49.583 19.394h-10.865a.5.5 0 0 1 -.5-.5v-3a.5.5 0 0 1 .5-.5h10.865a.5.5 0 0 1 .5.5v3a.5.5 0 0 1 -.5.5zm-10.366-1h9.866v-2h-9.865z" fill="#323c6b"/><rect fill="#9297ab" height="5.664" rx="1.313" width="19.571" x="20.562" y="14.563"/><path d="m40.79 3.72v2.99a1.451 1.451 0 0 1 -1.45 1.45h-1.01v-2.21a1.443 1.443 0 0 0 -1.45-1.44h-16.98v-.79a1.443 1.443 0 0 1 1.45-1.44h17.99a1.443 1.443 0 0 1 1.45 1.44z" fill="#84879c"/><path d="m40.13 15.88v3.03a1.31 1.31 0 0 1 -1.31 1.32h-2.56a1.317 1.317 0 0 0 1.31-1.32v-3.03a1.317 1.317 0 0 0 -1.31-1.32h2.56a1.31 1.31 0 0 1 1.31 1.32z" fill="#84879c"/><circle cx="52.84" cy="17.397" fill="#fcd462" r="4.672"/><path d="m57.51 17.4a4.649 4.649 0 0 1 -3.05 4.37 4.664 4.664 0 0 0 -3.67-7.55 4.36 4.36 0 0 0 -1.62.3 4.625 4.625 0 0 1 3.67-1.8 4.678 4.678 0 0 1 4.67 4.68z" fill="#f7be56"/><g fill="#323c6b"><path d="m38.506 15.063h-16.323a.5.5 0 0 1 -.5-.5v-6.407a.5.5 0 0 1 .5-.5h16.323a.5.5 0 0 1 .5.5v6.407a.5.5 0 0 1 -.5.5zm-15.824-1h15.324v-5.407h-15.323z"/><path d="m30.35 43.84a8.67 8.67 0 0 1 -8.67-8.65v-9.99a.5.5 0 0 1 .172-.377.491.491 0 0 1 .4-.118 8.978 8.978 0 0 1 1.334.306c.33.1.66.21.992.321a7.583 7.583 0 0 0 4.247.6 7.421 7.421 0 0 0 1.533-.657 9.3 9.3 0 0 1 1.527-.677c1.805-.572 3.624-.066 5.383.422.452.126.905.252 1.359.36a.5.5 0 0 1 .384.486v9.324a8.665 8.665 0 0 1 -8.661 8.65zm-7.67-18.04v9.39a7.665 7.665 0 0 0 15.33 0v-8.933c-.337-.086-.675-.18-1.012-.274-1.692-.471-3.291-.917-4.816-.431a8.343 8.343 0 0 0 -1.365.61 8.279 8.279 0 0 1 -1.742.738 8.433 8.433 0 0 1 -4.814-.624c-.323-.107-.646-.215-.966-.312-.219-.064-.423-.12-.615-.164z"/><path d="m27.818 27.058a11.486 11.486 0 0 1 -3.558-.781c-.323-.107-.646-.215-.966-.312a8 8 0 0 0 -1.184-.273.5.5 0 0 1 -.431-.5v-4.962a.5.5 0 0 1 .5-.5h16.331a.5.5 0 0 1 .5.5v5.636a.5.5 0 0 1 -.19.392.493.493 0 0 1 -.426.094c-.466-.11-.931-.24-1.4-.369-1.692-.471-3.291-.917-4.816-.431a8.343 8.343 0 0 0 -1.365.61 8.279 8.279 0 0 1 -1.742.738 4.928 4.928 0 0 1 -1.253.158zm-5.138-2.282c.278.057.577.133.9.231s.66.21.992.321a7.583 7.583 0 0 0 4.247.6 7.421 7.421 0 0 0 1.533-.657 9.3 9.3 0 0 1 1.527-.677c1.805-.572 3.624-.066 5.383.422.248.069.5.138.744.2v-4.486h-15.326z"/><path d="m55.457 14.02a.5.5 0 0 1 -.28-.085 4.269 4.269 0 0 0 -4.674 0 .5.5 0 0 1 -.78-.415v-9.492a.5.5 0 0 1 .5-.5h5.234a.5.5 0 0 1 .5.5v9.492a.5.5 0 0 1 -.5.5zm-2.617-1.795a5.188 5.188 0 0 1 2.117.448v-8.145h-4.234v8.145a5.186 5.186 0 0 1 2.116-.448z"/><path d="m55.457 65.912h-5.234a.5.5 0 0 1 -.5-.5v-44.137a.5.5 0 0 1 .78-.415 4.275 4.275 0 0 0 4.674 0 .5.5 0 0 1 .78.415v44.137a.5.5 0 0 1 -.5.5zm-4.734-1h4.234v-42.79a5.294 5.294 0 0 1 -4.234 0z"/><path d="m52.839 22.569a5.172 5.172 0 1 1 5.173-5.169 5.178 5.178 0 0 1 -5.173 5.169zm0-9.345a4.172 4.172 0 1 0 4.173 4.176 4.177 4.177 0 0 0 -4.173-4.175z"/><path d="m39.341 8.657h-17.991a1.95 1.95 0 0 1 -1.95-1.949v-2.984a1.95 1.95 0 0 1 1.95-1.948h17.991a1.951 1.951 0 0 1 1.949 1.948v2.984a1.951 1.951 0 0 1 -1.949 1.949zm-17.991-5.881a.949.949 0 0 0 -.948.948v2.984a.949.949 0 0 0 .948.948h17.991a.949.949 0 0 0 .948-.948v-2.984a.949.949 0 0 0 -.948-.948z"/><path d="m38.821 20.727h-16.946a1.814 1.814 0 0 1 -1.812-1.812v-3.04a1.814 1.814 0 0 1 1.813-1.812h16.945a1.814 1.814 0 0 1 1.813 1.813v3.039a1.814 1.814 0 0 1 -1.813 1.812zm-16.946-5.664a.813.813 0 0 0 -.812.813v3.039a.813.813 0 0 0 .813.813h16.945a.813.813 0 0 0 .813-.812v-3.041a.813.813 0 0 0 -.812-.812z"/></g><path d="m24.477 56.34c.139-6.245 7.446-10.423 7.446-10.423a13.139 13.139 0 0 0 2.736 6.6 6.236 6.236 0 0 1 1.557 4.165 3.278 3.278 0 0 1 -.042.483 5.088 5.088 0 0 1 -5.143 4.116h-1.331a5.053 5.053 0 0 1 -5.223-4.941z" fill="#fcd462"/><path d="m26.1 58.63a4.5 4.5 0 0 0 .22 1.48 4.666 4.666 0 0 1 -1.84-3.77c.14-6.25 7.44-10.42 7.44-10.42a13.206 13.206 0 0 0 .68 2.9c-1.98 1.38-6.39 4.97-6.5 9.81z" fill="#f7be56"/><path d="m26.9 58.381c.081-3.664 4.369-6.116 4.369-6.116a7.709 7.709 0 0 0 1.605 3.871 3.659 3.659 0 0 1 .913 2.444 1.923 1.923 0 0 1 -.025.283 2.985 2.985 0 0 1 -3.017 2.415h-.782a2.965 2.965 0 0 1 -3.063-2.897z" fill="#fe7058"/><path d="m31.03 61.779h-1.33a5.936 5.936 0 0 1 -4.228-1.752 5.1 5.1 0 0 1 -1.494-3.7c.144-6.454 7.39-10.67 7.7-10.846a.5.5 0 0 1 .746.391 12.73 12.73 0 0 0 2.62 6.319 6.773 6.773 0 0 1 1.674 4.5 3.888 3.888 0 0 1 -.047.549 5.6 5.6 0 0 1 -5.641 4.539zm-6.054-5.428a4.112 4.112 0 0 0 1.208 2.976 4.929 4.929 0 0 0 3.516 1.452h1.33a4.594 4.594 0 0 0 4.649-3.691 2.816 2.816 0 0 0 .036-.407 5.713 5.713 0 0 0 -1.439-3.844 13.337 13.337 0 0 1 -2.738-6.083c-1.738 1.167-6.454 4.775-6.561 9.6z" fill="#323c6b"/><path d="m21.833 42.873a.5.5 0 0 1 -.381-.176 11.607 11.607 0 0 1 -2.771-7.487.5.5 0 0 1 .5-.5.5.5 0 0 1 .5.5 10.607 10.607 0 0 0 2.533 6.841.5.5 0 0 1 -.381.824z" fill="#323c6b"/><path d="m19.18 33.708a.5.5 0 0 1 -.5-.5v-.458a.5.5 0 0 1 1 0v.458a.5.5 0 0 1 -.5.5z" fill="#323c6b"/><path d="m58.457 58.25a.5.5 0 0 1 -.5-.5v-7.083a.5.5 0 0 1 1 0v7.083a.5.5 0 0 1 -.5.5z" fill="#323c6b"/><path d="m58.457 61.292a.5.5 0 0 1 -.5-.5v-.625a.5.5 0 0 1 1 0v.625a.5.5 0 0 1 -.5.5z" fill="#323c6b"/></svg>