<svg id="color_line" height="512" viewBox="0 0 74 74" width="512" xmlns="http://www.w3.org/2000/svg" data-name="color line"><path d="m29.308 57.322h-24.163a2.648 2.648 0 0 1 -2.645-2.645v-43.85a2.648 2.648 0 0 1 2.645-2.645h18.02a.5.5 0 0 1 0 1h-18.02a1.646 1.646 0 0 0 -1.645 1.645v43.85a1.646 1.646 0 0 0 1.645 1.645h24.163a.5.5 0 0 1 0 1z" fill="#323c6b"/><path d="m68.855 57.322h-22.355a.5.5 0 0 1 0-1h22.355a1.646 1.646 0 0 0 1.645-1.645v-43.85a1.646 1.646 0 0 0 -1.645-1.645h-16.328a.5.5 0 0 1 0-1h16.328a2.648 2.648 0 0 1 2.645 2.645v43.85a2.648 2.648 0 0 1 -2.645 2.645z" fill="#323c6b"/><path d="m52.288 41.7a14.478 14.478 0 0 0 -28.917 1.07 14.407 14.407 0 0 0 3.014 8.843 20.046 20.046 0 0 1 3.887 8.587h15.249a21.734 21.734 0 0 1 3.946-8.787 14.432 14.432 0 0 0 2.821-9.713z" fill="#fcd462"/><path d="m49.47 51.41a21.693 21.693 0 0 0 -3.95 8.79h-2.3a21.647 21.647 0 0 1 3.43-6.82 14.4 14.4 0 0 0 2.83-9.71 14.483 14.483 0 0 0 -21.33-11.66 14.484 14.484 0 0 1 21.32 19.4z" fill="#f7be56"/><path d="m45.521 65.985v-5.785h-15.249v5.789a3.964 3.964 0 0 0 3.964 3.964h7.32a3.964 3.964 0 0 0 3.965-3.968z" fill="#9297ab"/><path d="m45.52 60.2v5.79a3.963 3.963 0 0 1 -3.96 3.96h-2.41a3.971 3.971 0 0 0 3.97-3.96v-5.79z" fill="#84879c"/><path d="m37.849 60.7a.5.5 0 0 1 -.5-.5v-9.831l-3.606-3.809a.5.5 0 1 1 .727-.687l3.743 3.953a.5.5 0 0 1 .137.344v10.03a.5.5 0 0 1 -.501.5z" fill="#323c6b"/><path d="m37.849 50.67a.5.5 0 0 1 -.363-.844l5.062-5.345a.5.5 0 0 1 .727.688l-5.062 5.345a.5.5 0 0 1 -.364.156z" fill="#323c6b"/><path d="m30.224 64.994h-1.966a.5.5 0 0 1 0-1h1.966a.5.5 0 0 1 0 1z" fill="#323c6b"/><path d="m47.439 64.994h-1.966a.5.5 0 0 1 0-1h1.967a.5.5 0 0 1 0 1z" fill="#323c6b"/><rect fill="#fe7058" height="9.257" rx="1.854" width="29.363" x="23.167" y="4.05"/><path d="m52.53 5.9v5.55a1.854 1.854 0 0 1 -1.85 1.86h-.98v-4.78a1.854 1.854 0 0 0 -1.86-1.85h-24.67v-.78a1.852 1.852 0 0 1 1.85-1.85h25.66a1.852 1.852 0 0 1 1.85 1.85z" fill="#ea6453"/><g fill="#323c6b"><path d="m37.849 24.438a.5.5 0 0 1 -.5-.5v-2.038a.5.5 0 1 1 1 0v2.035a.5.5 0 0 1 -.5.503z"/><path d="m28.375 26.977a.5.5 0 0 1 -.433-.25l-1.018-1.762a.5.5 0 1 1 .865-.5l1.018 1.762a.5.5 0 0 1 -.433.75z"/><path d="m21.439 33.912a.5.5 0 0 1 -.25-.067l-1.762-1.017a.5.5 0 0 1 .5-.866l1.762 1.017a.5.5 0 0 1 -.25.933z"/><path d="m18.9 43.385h-2.034a.5.5 0 0 1 0-1h2.034a.5.5 0 1 1 0 1z"/><path d="m19.678 53.876a.5.5 0 0 1 -.25-.933l1.762-1.018a.5.5 0 0 1 .5.866l-1.762 1.019a.5.5 0 0 1 -.25.066z"/><path d="m47.322 26.977a.5.5 0 0 1 -.433-.75l1.018-1.762a.5.5 0 1 1 .865.5l-1.018 1.762a.5.5 0 0 1 -.432.25z"/><path d="m54.257 33.912a.5.5 0 0 1 -.25-.933l1.763-1.017a.5.5 0 0 1 .5.866l-1.763 1.017a.5.5 0 0 1 -.25.067z"/><path d="m58.83 43.385h-2.03a.5.5 0 0 1 0-1h2.03a.5.5 0 0 1 0 1z"/><path d="m56.02 53.876a.5.5 0 0 1 -.25-.067l-1.763-1.018a.5.5 0 0 1 .5-.866l1.763 1.018a.5.5 0 0 1 -.25.933z"/><path d="m42.006 13.807h-8.315a.5.5 0 0 1 -.5-.5v-9.257a.5.5 0 0 1 .5-.5h8.314a.5.5 0 0 1 .5.5v9.256a.5.5 0 0 1 -.499.501zm-7.814-1h7.314v-8.257h-7.315z"/><path d="m45.521 60.7h-15.249a.5.5 0 0 1 -.49-.4 19.462 19.462 0 0 0 -3.793-8.376 14.979 14.979 0 0 1 12.687-24.1 14.976 14.976 0 0 1 14.111 13.85 15 15 0 0 1 -2.92 10.044 21.177 21.177 0 0 0 -3.856 8.582.5.5 0 0 1 -.49.4zm-14.843-1h14.44a22.062 22.062 0 0 1 3.946-8.586 14 14 0 0 0 2.724-9.375 13.978 13.978 0 1 0 -25.008 9.568 20.347 20.347 0 0 1 3.899 8.393z"/><path d="m41.557 70.45h-7.32a4.47 4.47 0 0 1 -4.464-4.464v-5.786a.5.5 0 0 1 .5-.5h15.248a.5.5 0 0 1 .5.5v5.789a4.47 4.47 0 0 1 -4.464 4.461zm-10.785-9.75v5.289a3.468 3.468 0 0 0 3.464 3.464h7.32a3.469 3.469 0 0 0 3.465-3.464v-5.289z"/><path d="m50.676 13.807h-25.655a2.357 2.357 0 0 1 -2.354-2.354v-5.553a2.357 2.357 0 0 1 2.354-2.35h25.655a2.356 2.356 0 0 1 2.353 2.35v5.548a2.356 2.356 0 0 1 -2.353 2.359zm-25.655-9.257a1.356 1.356 0 0 0 -1.354 1.35v5.548a1.356 1.356 0 0 0 1.354 1.354h25.655a1.355 1.355 0 0 0 1.354-1.354v-5.548a1.355 1.355 0 0 0 -1.354-1.35z"/><path d="m41.75 73.433a.5.5 0 0 1 -.014-1 6.427 6.427 0 0 0 5.858-4.2.5.5 0 0 1 .938.35 7.425 7.425 0 0 1 -6.769 4.852z"/><path d="m39.469 73.45h-.5a.5.5 0 0 1 0-1h.5a.5.5 0 0 1 0 1z"/><path d="m20.2 6.125h-.029a.5.5 0 0 1 -.471-.525 5.35 5.35 0 0 1 5.321-5.05h.385a.5.5 0 0 1 0 1h-.385a4.35 4.35 0 0 0 -4.327 4.1.5.5 0 0 1 -.494.475z"/><path d="m28.563 1.55h-.625a.5.5 0 0 1 0-1h.625a.5.5 0 0 1 0 1z"/></g></svg>