<svg id="color_line" height="512" viewBox="0 0 74 74" width="512" xmlns="http://www.w3.org/2000/svg" data-name="color line"><path d="m46.933 10.534a25.732 25.732 0 0 1 5.023 29.286 25.674 25.674 0 0 1 -12.132 12.132 25.734 25.734 0 1 1 7.109-41.418z" fill="#9297ab"/><circle cx="28.736" cy="28.737" fill="#eeefee" r="19.82" transform="matrix(.707 -.707 .707 .707 -11.904 28.736)"/><path d="m28.736 49.047a20.316 20.316 0 1 1 14.364-34.679 20.311 20.311 0 0 1 -14.364 34.679zm0-39.622a19.311 19.311 0 1 0 13.664 5.65 19.261 19.261 0 0 0 -13.664-5.649z" fill="#323c6b"/><path d="m51.956 39.82 5.475 5.48-12.131 12.127-5.475-5.475a25.674 25.674 0 0 0 12.131-12.132z" fill="#9297ab"/><path d="m51.96 39.82a24.627 24.627 0 0 1 -3.17 5.02 21.64 21.64 0 0 0 1.04-1.96 25.732 25.732 0 0 0 -41.42-29.28 23.085 23.085 0 0 0 -1.88 2.11 25.739 25.739 0 0 1 45.43 24.11z" fill="#84879c"/><path d="m55.22 47.25h.26l1.95-1.95-5.47-5.48a23.379 23.379 0 0 1 -1.46 2.63l4.76 4.76z" fill="#84879c"/><path d="m54.571 47.65h11.529a0 0 0 0 1 0 0v19.611a5.767 5.767 0 0 1 -5.767 5.767 5.767 5.767 0 0 1 -5.767-5.767v-19.611a0 0 0 0 1 0 0z" fill="#fcd462" transform="matrix(.707 -.707 .707 .707 -24.993 60.338)"/><path d="m71 65.24a5.762 5.762 0 0 1 -5.22 5.73 5.758 5.758 0 0 0 .9-8.9l-13.01-13.01 1.77-1.77 13.87 13.87a5.721 5.721 0 0 1 1.69 4.08z" fill="#f7be56"/><path d="m30.4 16.218c.256 1.335.187 2.471-4.089 3.292s-4.761-.208-5.018-1.543-.187-2.471 4.089-3.292 4.762.208 5.018 1.543z" fill="#fe7058"/><path d="m23.8 20.3c-2.085 0-2.731-.856-3-2.237-.354-1.842.267-3.067 4.486-3.877s5.249.1 5.6 1.939c.354 1.842-.267 3.067-4.486 3.877a14.149 14.149 0 0 1 -2.6.298zm4.127-5.422a13.451 13.451 0 0 0 -2.45.29c-4.062.78-3.882 1.716-3.692 2.707s.37 1.926 4.432 1.146 3.883-1.721 3.692-2.708c-.14-.733-.276-1.436-1.982-1.436z" fill="#323c6b"/><path d="m25.382 15.177a.5.5 0 0 1 -.491-.406l-.359-1.871a.5.5 0 0 1 .982-.188l.359 1.871a.5.5 0 0 1 -.4.585.522.522 0 0 1 -.091.009z" fill="#323c6b"/><path d="m22.194 16.184a.5.5 0 0 1 -.491-.406l-.28-1.46a.5.5 0 0 1 .982-.188l.28 1.46a.5.5 0 0 1 -.4.585.522.522 0 0 1 -.091.009z" fill="#323c6b"/><path d="m28.716 14.93a.5.5 0 0 1 -.491-.406l-.28-1.46a.5.5 0 0 1 .982-.188l.28 1.46a.5.5 0 0 1 -.4.585.522.522 0 0 1 -.091.009z" fill="#323c6b"/><path d="m26.67 21.88a.5.5 0 0 1 -.491-.406l-.359-1.874a.5.5 0 0 1 .982-.188l.359 1.87a.5.5 0 0 1 -.4.585.522.522 0 0 1 -.091.013z" fill="#323c6b"/><path d="m23.257 21.716a.5.5 0 0 1 -.491-.406l-.28-1.46a.5.5 0 0 1 .982-.188l.28 1.46a.5.5 0 0 1 -.4.585.522.522 0 0 1 -.091.009z" fill="#323c6b"/><path d="m29.779 20.463a.5.5 0 0 1 -.491-.406l-.28-1.46a.5.5 0 0 1 .982-.188l.28 1.46a.5.5 0 0 1 -.4.585.522.522 0 0 1 -.091.009z" fill="#323c6b"/><path d="m43.082 31.981c.256 1.335.187 2.471-4.089 3.292s-4.761-.208-5.018-1.543-.187-2.471 4.089-3.292 4.762.208 5.018 1.543z" fill="#fe7058"/><path d="m36.467 36.065a4.025 4.025 0 0 1 -1.7-.3 2.418 2.418 0 0 1 -1.281-1.938c-.354-1.842.267-3.067 4.486-3.877 2.09-.4 3.463-.4 4.322 0a2.419 2.419 0 0 1 1.281 1.938 2.419 2.419 0 0 1 -.471 2.275c-.65.691-1.926 1.2-4.015 1.6a14.285 14.285 0 0 1 -2.622.302zm4.133-5.418a13.416 13.416 0 0 0 -2.439.283c-4.062.78-3.882 1.716-3.692 2.707.124.644.269 1.009.722 1.221a7.037 7.037 0 0 0 3.71-.076 7.046 7.046 0 0 0 3.474-1.3c.342-.364.342-.758.218-1.4-.124-.644-.269-1.009-.722-1.221a3.1 3.1 0 0 0 -1.271-.214z" fill="#323c6b"/><path d="m38.064 30.939a.5.5 0 0 1 -.491-.406l-.359-1.87a.5.5 0 1 1 .982-.188l.359 1.87a.5.5 0 0 1 -.4.585.522.522 0 0 1 -.091.009z" fill="#323c6b"/><path d="m34.876 31.946a.5.5 0 0 1 -.491-.406l-.28-1.46a.5.5 0 0 1 .982-.188l.28 1.46a.5.5 0 0 1 -.4.585.522.522 0 0 1 -.091.009z" fill="#323c6b"/><path d="m41.4 30.693a.5.5 0 0 1 -.491-.406l-.28-1.46a.5.5 0 1 1 .982-.188l.28 1.46a.5.5 0 0 1 -.4.585.522.522 0 0 1 -.091.009z" fill="#323c6b"/><path d="m39.352 37.643a.5.5 0 0 1 -.491-.406l-.359-1.87a.5.5 0 1 1 .982-.188l.359 1.87a.5.5 0 0 1 -.4.585.522.522 0 0 1 -.091.009z" fill="#323c6b"/><path d="m35.939 37.479a.5.5 0 0 1 -.491-.406l-.281-1.46a.5.5 0 1 1 .982-.188l.281 1.46a.5.5 0 0 1 -.4.585.522.522 0 0 1 -.091.009z" fill="#323c6b"/><path d="m42.461 36.226a.5.5 0 0 1 -.491-.406l-.281-1.46a.5.5 0 1 1 .982-.188l.281 1.46a.5.5 0 0 1 -.4.585.522.522 0 0 1 -.091.009z" fill="#323c6b"/><path d="m22.384 34.851c.256 1.335.187 2.471-4.089 3.292s-4.761-.208-5.018-1.543-.187-2.471 4.089-3.292 4.762.208 5.018 1.543z" fill="#fe7058"/><path d="m15.769 38.935a4.025 4.025 0 0 1 -1.7-.3 2.418 2.418 0 0 1 -1.281-1.938c-.354-1.842.267-3.067 4.486-3.877 2.087-.4 3.461-.4 4.322 0a2.418 2.418 0 0 1 1.281 1.938c.354 1.842-.267 3.067-4.486 3.877a14.285 14.285 0 0 1 -2.622.3zm4.131-5.418a13.411 13.411 0 0 0 -2.439.283c-4.062.78-3.882 1.716-3.692 2.707.124.644.269 1.009.722 1.221a7.037 7.037 0 0 0 3.71-.076c4.062-.78 3.882-1.716 3.692-2.707-.124-.644-.269-1.009-.722-1.221a3.1 3.1 0 0 0 -1.271-.207z" fill="#323c6b"/><path d="m17.366 33.81a.5.5 0 0 1 -.491-.406l-.359-1.871a.5.5 0 0 1 .982-.188l.359 1.871a.5.5 0 0 1 -.4.585.522.522 0 0 1 -.091.009z" fill="#323c6b"/><path d="m14.178 34.816a.5.5 0 0 1 -.491-.406l-.281-1.46a.5.5 0 1 1 .982-.188l.281 1.46a.5.5 0 0 1 -.4.585.522.522 0 0 1 -.091.009z" fill="#323c6b"/><path d="m20.7 33.563a.5.5 0 0 1 -.491-.406l-.281-1.46a.5.5 0 0 1 .982-.188l.281 1.46a.5.5 0 0 1 -.4.585.522.522 0 0 1 -.091.009z" fill="#323c6b"/><path d="m18.654 40.513a.5.5 0 0 1 -.491-.406l-.359-1.87a.5.5 0 0 1 .982-.188l.359 1.87a.5.5 0 0 1 -.4.585.522.522 0 0 1 -.091.009z" fill="#323c6b"/><path d="m15.241 40.349a.5.5 0 0 1 -.491-.406l-.281-1.46a.5.5 0 0 1 .982-.188l.281 1.46a.5.5 0 0 1 -.4.585.522.522 0 0 1 -.091.009z" fill="#323c6b"/><path d="m21.764 39.1a.5.5 0 0 1 -.491-.406l-.281-1.46a.5.5 0 0 1 .982-.188l.281 1.46a.5.5 0 0 1 -.4.585.522.522 0 0 1 -.091.009z" fill="#323c6b"/><circle cx="16.869" cy="24.322" fill="#27ccbc" r="2.35"/><path d="m16.869 27.172a2.851 2.851 0 1 1 2.851-2.851 2.854 2.854 0 0 1 -2.851 2.851zm0-4.7a1.851 1.851 0 1 0 1.851 1.851 1.853 1.853 0 0 0 -1.851-1.852z" fill="#323c6b"/><circle cx="30.563" cy="41.186" fill="#27ccbc" r="2.37"/><path d="m30.563 44.056a2.87 2.87 0 1 1 2.87-2.87 2.873 2.873 0 0 1 -2.87 2.87zm0-4.74a1.87 1.87 0 1 0 1.87 1.87 1.872 1.872 0 0 0 -1.87-1.87z" fill="#323c6b"/><circle cx="37.194" cy="20.182" fill="#27ccbc" r="2.608"/><path d="m37.194 23.29a3.108 3.108 0 1 1 3.106-3.108 3.112 3.112 0 0 1 -3.106 3.108zm0-5.216a2.108 2.108 0 1 0 2.106 2.108 2.111 2.111 0 0 0 -2.106-2.108z" fill="#323c6b"/><circle cx="27.172" cy="28.733" fill="#fcd462" r="2.608"/><g fill="#323c6b"><path d="m27.172 31.841a3.108 3.108 0 1 1 3.108-3.108 3.112 3.112 0 0 1 -3.108 3.108zm0-5.216a2.108 2.108 0 1 0 2.108 2.108 2.111 2.111 0 0 0 -2.108-2.108z"/><path d="m28.756 54.963a26.234 26.234 0 1 1 18.531-44.783 26.261 26.261 0 0 1 5.12 29.855 26.233 26.233 0 0 1 -23.651 14.928zm-.02-51.456a25.229 25.229 0 1 0 10.872 47.993 25.169 25.169 0 0 0 11.892-11.894 25.217 25.217 0 0 0 -22.768-36.1z"/><path d="m45.3 57.927a.5.5 0 0 1 -.354-.146l-5.476-5.476a.5.5 0 0 1 .14-.806 25.17 25.17 0 0 0 11.89-11.893.5.5 0 0 1 .806-.14l5.476 5.476a.5.5 0 0 1 0 .707l-12.129 12.132a.5.5 0 0 1 -.353.146zm-4.627-5.834 4.627 4.627 11.425-11.42-4.625-4.632a26.216 26.216 0 0 1 -11.427 11.425z"/><path d="m65.232 71.5a6.247 6.247 0 0 1 -4.432-1.835l-13.866-13.865a.5.5 0 0 1 0-.707l8.155-8.155a.5.5 0 0 1 .707 0l13.868 13.862a6.264 6.264 0 0 1 -4.432 10.7zm-17.238-16.056 13.514 13.514a5.267 5.267 0 0 0 7.448-7.448l-13.514-13.51z"/><path d="m5.733 12.042a.5.5 0 0 1 -.4-.8l.124-.174c.058-.084.116-.168.179-.249a.5.5 0 0 1 .789.615c-.051.065-.1.133-.145.2s-.1.14-.148.208a.5.5 0 0 1 -.399.2z"/><path d="m7.421 9.958a.5.5 0 0 1 -.371-.836q.492-.542 1.013-1.064a29.489 29.489 0 0 1 4.747-3.838.5.5 0 1 1 .546.838 28.477 28.477 0 0 0 -4.585 3.708q-.5.5-.979 1.028a.5.5 0 0 1 -.371.164z"/><path d="m56.3 69.2a.5.5 0 0 1 -.354-.146l-4.988-4.988a.5.5 0 0 1 .707-.707l4.988 4.988a.5.5 0 0 1 -.354.854z"/><path d="m49.851 62.75a.5.5 0 0 1 -.351-.15l-.414-.414a.5.5 0 0 1 .707-.707l.414.414a.5.5 0 0 1 -.354.854z"/></g><path d="m8.23 38.725a.6.6 0 0 1 -.547-.354 23.349 23.349 0 0 1 -1.921-6.96.6.6 0 1 1 1.192-.136 22.16 22.16 0 0 0 1.823 6.6.6.6 0 0 1 -.546.847z" fill="#fff"/><path d="m6.189 29.141a.6.6 0 0 1 -.6-.578c-.006-.173-.011-.346-.006-.519a.578.578 0 0 1 .618-.581.6.6 0 0 1 .581.618c0 .146 0 .292.006.438a.6.6 0 0 1 -.578.622z" fill="#fff"/></svg>