<svg id="color_line" height="512" viewBox="0 0 74 74" width="512" xmlns="http://www.w3.org/2000/svg" data-name="color line"><path d="m42.429 55.014v7.977h-6.954v-8.243" fill="#bbbbcd"/><path d="m42.429 63.491h-6.954a.5.5 0 0 1 -.5-.5v-8.242a.5.5 0 0 1 1 0v7.743h5.954v-7.478a.5.5 0 0 1 1 0v7.978a.5.5 0 0 1 -.5.499z" fill="#323c6b"/><path d="m19.492 5.331a29.155 29.155 0 1 0 41.232 41.232z" fill="#9297ab"/><path d="m60.72 46.56a29.138 29.138 0 0 1 -44.78-4.3 29.115 29.115 0 0 0 42.73 2.25z" fill="#84879c"/><path d="m31.168 7.308a5.71 5.71 0 0 1 -.349 2.142 1.556 1.556 0 0 0 .882 1.871 4.025 4.025 0 0 0 2.191-.271c1.629-.407 3.674.145 4.285 1.454.417.892.165 2.036 1 2.7a2.578 2.578 0 0 0 2.084.359h.029a1.532 1.532 0 0 1 1.987 1.125 8.414 8.414 0 0 0 .262 1.619 5.257 5.257 0 0 0 2.143 3.054 3.487 3.487 0 0 0 3.18.427c1.173-.543 1.415-1.823 1.532-2.928.263-5.081 4.478-7.578 5.74-9.336a22.931 22.931 0 0 0 -26.609-3.936 2.824 2.824 0 0 1 1.643 1.72z" fill="#89c5cd"/><path d="m22.258 30.21c1.478-.1 2.956.351 4.443.351a.071.071 0 0 1 .047.009 2.743 2.743 0 0 0 1.507-4.97c0-.009-.019-.009-.019-.019a17.9 17.9 0 0 1 -3.051-2.16 3 3 0 0 1 -.73-3.4 8.922 8.922 0 0 1 1.195-1.351 1.591 1.591 0 0 0 .436-1.658 2.068 2.068 0 0 0 -1.033-.805q-2.27-1.078-4.559-2.176a22.938 22.938 0 0 0 -2.754 17.032 5.333 5.333 0 0 0 .661-.047c1.299-.181 2.54-.716 3.857-.806z" fill="#89c5cd"/><path d="m17.74 31.563a.5.5 0 0 1 -.487-.389 23.443 23.443 0 0 1 2.813-17.4.5.5 0 0 1 .643-.191l.354.169q2.108 1.008 4.205 2.006a2.494 2.494 0 0 1 1.268 1.038 2.061 2.061 0 0 1 -.518 2.215c-.138.162-.3.325-.471.487a3.537 3.537 0 0 0 -.653.762 2.528 2.528 0 0 0 .655 2.815 9.412 9.412 0 0 0 1.97 1.453c.337.208.675.415 1 .639a.477.477 0 0 1 .06.048 3.186 3.186 0 0 1 1.174 3.595 3.134 3.134 0 0 1 -3 2.262 1.01 1.01 0 0 1 -.1-.01 15.627 15.627 0 0 1 -2.017-.188 11.378 11.378 0 0 0 -2.339-.164 11.25 11.25 0 0 0 -2.054.411 14.985 14.985 0 0 1 -1.77.391 5.775 5.775 0 0 1 -.733.051zm2.949-16.883a22.44 22.44 0 0 0 -2.551 15.863c.066-.006.134-.014.2-.022a14.139 14.139 0 0 0 1.645-.367 12.155 12.155 0 0 1 2.236-.441 12.1 12.1 0 0 1 2.547.17 14.211 14.211 0 0 0 1.932.179.532.532 0 0 1 .094.009 2.132 2.132 0 0 0 2-1.558 2.211 2.211 0 0 0 -.829-2.505.485.485 0 0 1 -.053-.042c-.3-.205-.611-.4-.921-.586a10.3 10.3 0 0 1 -2.173-1.617 3.489 3.489 0 0 1 -.8-4 4.3 4.3 0 0 1 .825-.985c.145-.141.29-.281.419-.433a1.147 1.147 0 0 0 .364-1.123 1.784 1.784 0 0 0 -.8-.567c-1.363-.655-2.748-1.313-4.135-1.976z" fill="#323c6b"/><path d="m49.308 32.249c-1.134-.274-4-2.718-7.781-3.372a3.6 3.6 0 0 0 -3.275 6.11 4.029 4.029 0 0 1 .323.391c1.251 1.789.166 4.145-.577 6.178a17.35 17.35 0 0 0 -.992 7.124 22.909 22.909 0 0 0 24.844-15.4 8.339 8.339 0 0 0 -2.9-1.675c-3.131-.862-6.484 1.395-9.642.644z" fill="#89c5cd"/><path d="m56.132 9.529c-1.262 1.758-5.477 4.255-5.74 9.336-.116 1.105-.359 2.385-1.532 2.928a3.487 3.487 0 0 1 -3.18-.427 5.257 5.257 0 0 1 -2.143-3.054 8.414 8.414 0 0 1 -.262-1.619 1.532 1.532 0 0 0 -1.987-1.125h-.028a2.578 2.578 0 0 1 -2.084-.359c-.834-.669-.582-1.813-1-2.7-.611-1.309-2.656-1.861-4.285-1.454a4.025 4.025 0 0 1 -2.191.271 1.556 1.556 0 0 1 -.882-1.871 5.71 5.71 0 0 0 .349-2.142 2.824 2.824 0 0 0 -1.643-1.721 23.049 23.049 0 0 0 -9.031 8.444q2.284 1.093 4.559 2.176a2.068 2.068 0 0 1 1.033.805 1.591 1.591 0 0 1 -.436 1.658 8.922 8.922 0 0 0 -1.194 1.345 3 3 0 0 0 .73 3.4 17.9 17.9 0 0 0 3.051 2.16c0 .01.019.01.019.019a2.743 2.743 0 0 1 -1.506 4.974.071.071 0 0 0 -.047-.009c-1.487 0-2.965-.455-4.443-.351-1.317.095-2.558.625-3.856.805a5.333 5.333 0 0 1 -.661.047 22.958 22.958 0 0 0 19.264 17.614 17.35 17.35 0 0 1 .994-7.124c.743-2.033 1.828-4.389.577-6.178a4.029 4.029 0 0 0 -.323-.391 3.6 3.6 0 0 1 3.275-6.11c3.783.655 6.647 3.1 7.781 3.372 3.157.753 6.51-1.505 9.638-.645a8.339 8.339 0 0 1 2.9 1.675 22.931 22.931 0 0 0 -5.719-23.75z" fill="#eeefee"/><path d="m56.13 9.53c-.51.71-1.51 1.55-2.54 2.63-.09-.1-.19-.2-.29-.3a22.906 22.906 0 0 0 -22.71-5.53 4.419 4.419 0 0 0 -1.07-.74 22.927 22.927 0 0 1 26.61 3.94z" fill="#6eaaad"/><path d="m61.85 33.28a23.035 23.035 0 0 1 -8.63 11.5 22.976 22.976 0 0 0 5.8-9.17 24.073 24.073 0 0 0 .9-3.63 11.253 11.253 0 0 1 1.93 1.3z" fill="#6eaaad"/><path d="m30.59 6.33a22.94 22.94 0 0 0 -3.9 1.59 22.467 22.467 0 0 0 -2.53 1.54 23.111 23.111 0 0 1 5.36-3.87 4.419 4.419 0 0 1 1.07.74z" fill="#e1e6e9"/><path d="m63.05 25.95a22.8 22.8 0 0 1 -1.2 7.33 11.253 11.253 0 0 0 -1.93-1.3 22.53 22.53 0 0 0 .3-3.7 22.827 22.827 0 0 0 -6.63-16.12c1.03-1.08 2.03-1.92 2.54-2.63a22.87 22.87 0 0 1 6.92 16.42z" fill="#e1e6e9"/><path d="m63.055 49.394a.5.5 0 0 1 -.354-.146l-6.718-6.718a.5.5 0 0 1 .707-.707l6.718 6.717a.5.5 0 0 1 -.354.854z" fill="#323c6b"/><path d="m23.878 10.217a.5.5 0 0 1 -.354-.146l-6.716-6.717a.5.5 0 0 1 .707-.707l6.717 6.717a.5.5 0 0 1 -.354.854z" fill="#323c6b"/><path d="m50.684 62.986h-23.465l-5.382 8.014h34.229z" fill="#9297ab"/><path d="m56.07 71h-34.23l1.63-2.42h27.92l-3.75-5.59h3.04z" fill="#84879c"/><g fill="#323c6b"><path d="m47.779 22.515a4.517 4.517 0 0 1 -2.372-.731 5.774 5.774 0 0 1 -2.352-3.341 8.869 8.869 0 0 1 -.278-1.715.659.659 0 0 0 -.283-.476 1.381 1.381 0 0 0 -1.1-.2.5.5 0 0 1 -.107.012 2.984 2.984 0 0 1 -2.426-.468 2.814 2.814 0 0 1 -.9-1.93 3.71 3.71 0 0 0 -.241-.953c-.469-1.006-2.2-1.557-3.711-1.181-.146.036-.291.078-.438.12a3.329 3.329 0 0 1 -2.037.139 2.054 2.054 0 0 1 -1.21-2.436c.045-.236.111-.472.179-.707a2.758 2.758 0 0 0 .173-1.241c-.107-.493-.573-.957-1.385-1.378a.5.5 0 0 1 0-.887 23.433 23.433 0 0 1 27.19 4.028.5.5 0 0 1 .057.649 13.042 13.042 0 0 1 -1.444 1.548c-1.7 1.647-4.016 3.9-4.2 7.522-.091.875-.276 2.641-1.82 3.355a3.093 3.093 0 0 1 -1.295.271zm-6.041-7.5a2.3 2.3 0 0 1 1.354.435 1.645 1.645 0 0 1 .683 1.207 7.731 7.731 0 0 0 .245 1.523 4.747 4.747 0 0 0 1.935 2.768 3 3 0 0 0 2.7.39c.851-.394 1.111-1.294 1.241-2.525.205-3.984 2.791-6.5 4.5-8.162.409-.4.777-.756 1.059-1.077a22.433 22.433 0 0 0 -24.9-3.937 2.662 2.662 0 0 1 1.102 1.563 3.571 3.571 0 0 1 -.191 1.718c-.059.205-.118.411-.157.617-.074.392-.042 1.107.55 1.3a2.525 2.525 0 0 0 1.439-.154c.16-.046.318-.091.475-.129 1.742-.437 4.1.1 4.856 1.729a4.508 4.508 0 0 1 .321 1.213c.1.631.187 1.032.537 1.313a2.085 2.085 0 0 0 1.666.26.509.509 0 0 1 .105-.011 2.158 2.158 0 0 1 .48-.041z"/><path d="m40.107 49.394a23.673 23.673 0 0 1 -3.168-.219.5.5 0 0 1 -.432-.463 17.746 17.746 0 0 1 1.021-7.329l.219-.585c.688-1.833 1.4-3.729.418-5.133a3.151 3.151 0 0 0 -.279-.337 4.1 4.1 0 0 1 3.726-6.943 18.943 18.943 0 0 1 6.269 2.583 8.5 8.5 0 0 0 1.545.8 10.126 10.126 0 0 0 4.523-.346 10.54 10.54 0 0 1 5.131-.294 8.817 8.817 0 0 1 3.083 1.766.5.5 0 0 1 .162.55 23.428 23.428 0 0 1 -22.218 15.95zm-2.624-1.158a22.4 22.4 0 0 0 23.779-14.785 7.307 7.307 0 0 0 -2.449-1.365 9.671 9.671 0 0 0 -4.646.307 11 11 0 0 1 -4.974.343 8.159 8.159 0 0 1 -1.815-.9 17.816 17.816 0 0 0 -5.934-2.462 3.1 3.1 0 0 0 -2.831 5.27 4.457 4.457 0 0 1 .371.449c1.287 1.839.444 4.083-.3 6.062l-.215.578a16.67 16.67 0 0 0 -.986 6.502z"/><path d="m37.007 49.179a.52.52 0 0 1 -.067 0 23.515 23.515 0 0 1 -19.687-18 .5.5 0 0 1 .1-.423c.218-.272.624-.186.991-.231a14.139 14.139 0 0 0 1.645-.367 12.155 12.155 0 0 1 2.236-.441 12.088 12.088 0 0 1 2.548.17 14.211 14.211 0 0 0 1.932.179.532.532 0 0 1 .094.009 2.132 2.132 0 0 0 2-1.558 2.211 2.211 0 0 0 -.829-2.505.485.485 0 0 1 -.053-.042c-.3-.205-.611-.4-.921-.586a10.3 10.3 0 0 1 -2.173-1.617 3.489 3.489 0 0 1 -.8-4 4.3 4.3 0 0 1 .825-.985c.145-.141.29-.281.419-.433a1.147 1.147 0 0 0 .364-1.123 1.784 1.784 0 0 0 -.8-.567c-1.392-.661-2.8-1.333-4.2-2l-.354-.169a.5.5 0 0 1 -.211-.711 23.525 23.525 0 0 1 9.227-8.626.5.5 0 0 1 .462 0 3.215 3.215 0 0 1 1.9 2.06 3.572 3.572 0 0 1 -.19 1.723c-.059.205-.118.411-.157.617-.074.392-.042 1.107.55 1.3a2.525 2.525 0 0 0 1.439-.154c.16-.046.318-.091.475-.129 1.742-.437 4.1.1 4.856 1.729a4.508 4.508 0 0 1 .321 1.213c.1.631.187 1.032.537 1.313a2.085 2.085 0 0 0 1.666.26.509.509 0 0 1 .105-.011 2.31 2.31 0 0 1 1.833.382 1.645 1.645 0 0 1 .683 1.207 7.731 7.731 0 0 0 .245 1.523 4.747 4.747 0 0 0 1.935 2.768 3 3 0 0 0 2.7.39c.851-.394 1.111-1.294 1.241-2.525.205-3.984 2.791-6.5 4.5-8.162a12.281 12.281 0 0 0 1.329-1.414.5.5 0 0 1 .756-.066 23.428 23.428 0 0 1 5.843 24.268.5.5 0 0 1 -.785.231 7.977 7.977 0 0 0 -2.727-1.583 9.671 9.671 0 0 0 -4.646.307 11 11 0 0 1 -4.974.343 8.154 8.154 0 0 1 -1.816-.9 17.826 17.826 0 0 0 -5.934-2.461 3.1 3.1 0 0 0 -2.831 5.27 4.4 4.4 0 0 1 .371.448c1.287 1.839.444 4.083-.3 6.062l-.215.578a16.739 16.739 0 0 0 -.962 6.919.5.5 0 0 1 -.5.533zm-18.641-17.656a22.52 22.52 0 0 0 18.112 16.571 17.629 17.629 0 0 1 1.051-6.712l.219-.585c.688-1.833 1.4-3.729.418-5.133a3.151 3.151 0 0 0 -.279-.337 4.1 4.1 0 0 1 3.726-6.943 18.943 18.943 0 0 1 6.269 2.583 8.474 8.474 0 0 0 1.546.8 10.137 10.137 0 0 0 4.522-.347 10.54 10.54 0 0 1 5.131-.294 7.684 7.684 0 0 1 2.513 1.324 22.426 22.426 0 0 0 -5.421-22.171c-.3.339-.671.7-1.077 1.094-1.7 1.647-4.016 3.9-4.2 7.522-.091.875-.276 2.641-1.82 3.355a3.988 3.988 0 0 1 -3.663-.462 5.774 5.774 0 0 1 -2.352-3.341 8.869 8.869 0 0 1 -.278-1.715.659.659 0 0 0 -.283-.476 1.384 1.384 0 0 0 -1.1-.2.5.5 0 0 1 -.107.012 2.984 2.984 0 0 1 -2.426-.468 2.814 2.814 0 0 1 -.9-1.93 3.71 3.71 0 0 0 -.241-.953c-.469-1.006-2.2-1.557-3.711-1.181-.146.036-.291.078-.438.12a3.329 3.329 0 0 1 -2.037.139 2.054 2.054 0 0 1 -1.21-2.436c.045-.236.111-.472.179-.707a2.753 2.753 0 0 0 .172-1.243 2.139 2.139 0 0 0 -1.157-1.253 22.534 22.534 0 0 0 -8.307 7.667q2.032.971 4.054 1.934a2.494 2.494 0 0 1 1.268 1.038 2.061 2.061 0 0 1 -.518 2.215c-.138.162-.3.325-.471.487a3.537 3.537 0 0 0 -.653.762 2.528 2.528 0 0 0 .655 2.815 9.412 9.412 0 0 0 1.97 1.453c.337.208.675.415 1 .639a.477.477 0 0 1 .06.048 3.186 3.186 0 0 1 1.174 3.595 3.134 3.134 0 0 1 -3 2.262 1.01 1.01 0 0 1 -.1-.01 15.627 15.627 0 0 1 -2.017-.188 11.485 11.485 0 0 0 -2.34-.164 11.257 11.257 0 0 0 -2.053.411 14.985 14.985 0 0 1 -1.77.391z"/><path d="m40.107 55.608a29.7 29.7 0 0 1 -29.662-29.661 29.4 29.4 0 0 1 8.693-20.97.5.5 0 1 1 .705.708 28.406 28.406 0 0 0 -8.4 20.262 28.694 28.694 0 0 0 28.664 28.661 28.4 28.4 0 0 0 20.262-8.4.5.5 0 0 1 .709.706 29.4 29.4 0 0 1 -20.971 8.694z"/><path d="m56.066 71.5h-34.229a.5.5 0 0 1 -.415-.779l5.378-8.013a.5.5 0 0 1 .415-.221h23.47a.5.5 0 0 1 .415.221l5.382 8.014a.5.5 0 0 1 -.415.779zm-33.291-1h32.353l-4.71-7.014h-22.933z"/><path d="m65.367 20.5a.5.5 0 0 1 -.487-.386 25.1 25.1 0 0 0 -3.054-7.414.5.5 0 1 1 .852-.522 26.079 26.079 0 0 1 3.177 7.71.5.5 0 0 1 -.373.6.52.52 0 0 1 -.115.012z"/><path d="m65.843 23.313a.5.5 0 0 1 -.5-.438l-.024-.231c-.009-.087-.017-.174-.029-.26a.5.5 0 1 1 .99-.141c.015.1.024.2.034.3l.021.2a.5.5 0 0 1 -.435.558.457.457 0 0 1 -.057.012z"/><path d="m14.144 45.375a.5.5 0 0 1 -.4-.2l-.1-.127c-.05-.063-.1-.126-.145-.192a.5.5 0 0 1 .816-.577l.231.306a.5.5 0 0 1 -.4.8z"/><path d="m12.595 43.063a.5.5 0 0 1 -.428-.241 32.651 32.651 0 0 1 -3.371-7.6.5.5 0 0 1 .959-.285 31.592 31.592 0 0 0 3.267 7.363.5.5 0 0 1 -.428.759z"/></g><path d="m46.042 34.266a.6.6 0 0 1 -.2-.035c-.172-.062-.345-.123-.525-.174a.6.6 0 0 1 .33-1.154c.206.059.4.128.6.2a.6.6 0 0 1 -.2 1.165z" fill="#fff"/><path d="m50.175 35.99a4.134 4.134 0 0 1 -.964-.109 5.059 5.059 0 0 1 -1.18-.581.61.61 0 0 1 -.227-.826.591.591 0 0 1 .81-.223 6.038 6.038 0 0 0 .876.463 5.766 5.766 0 0 0 2.517-.2 6.452 6.452 0 0 1 3.15-.172.6.6 0 0 1 -.314 1.158 5.462 5.462 0 0 0 -2.574.185 9.633 9.633 0 0 1 -2.094.305z" fill="#fff"/></svg>