<svg id="color_line" height="512" viewBox="0 0 74 74" width="512" xmlns="http://www.w3.org/2000/svg" data-name="color line"><rect fill="#9297ab" height="68" rx="5.441" width="41.077" x="16.461" y="4"/><path d="m57.54 9.44v57.12a5.437 5.437 0 0 1 -3.7 5.15 5.634 5.634 0 0 0 .25-1.65v-57.12a5.446 5.446 0 0 0 -5.44-5.44h-30.2a5.279 5.279 0 0 0 -1.73.29 5.437 5.437 0 0 1 5.18-3.79h30.2a5.446 5.446 0 0 1 5.44 5.44z" fill="#84879c"/><path d="m29.156 2.236h15.688v29.341h-15.688z" fill="#89c5cd" transform="matrix(0 1 -1 0 53.906 -20.094)"/><path d="m48.67 9.06h3v15.69h-3z" fill="#6eaaad"/><path d="m45.455 35.9h-16.91a2.245 2.245 0 0 1 -2.089-1.445l-1.564-4.149a1.239 1.239 0 0 0 -1.154-.8h-7.277a.5.5 0 1 1 0-1h7.277a2.243 2.243 0 0 1 2.089 1.445l1.565 4.149a1.24 1.24 0 0 0 1.154.8h16.909a1.24 1.24 0 0 0 1.154-.8l1.564-4.148a2.243 2.243 0 0 1 2.089-1.445h7.277a.5.5 0 0 1 0 1h-7.277a1.239 1.239 0 0 0 -1.154.8l-1.564 4.149a2.245 2.245 0 0 1 -2.089 1.444z" fill="#323c6b"/><path d="m22.33 40.361h5.405v5.405h-5.405z" fill="#e1e6e9"/><path d="m27.734 46.266h-5.4a.5.5 0 0 1 -.5-.5v-5.4a.5.5 0 0 1 .5-.5h5.4a.5.5 0 0 1 .5.5v5.4a.5.5 0 0 1 -.5.5zm-4.9-1h4.4v-4.4h-4.4z" fill="#323c6b"/><path d="m34.298 40.361h5.405v5.405h-5.405z" fill="#e1e6e9"/><path d="m39.7 46.266h-5.4a.5.5 0 0 1 -.5-.5v-5.4a.5.5 0 0 1 .5-.5h5.4a.5.5 0 0 1 .5.5v5.4a.5.5 0 0 1 -.5.5zm-4.905-1h4.405v-4.4h-4.4z" fill="#323c6b"/><path d="m46.266 40.361h5.405v5.405h-5.405z" fill="#e1e6e9"/><path d="m51.67 46.266h-5.4a.5.5 0 0 1 -.5-.5v-5.4a.5.5 0 0 1 .5-.5h5.4a.5.5 0 0 1 .5.5v5.4a.5.5 0 0 1 -.5.5zm-4.9-1h4.4v-4.4h-4.4z" fill="#323c6b"/><path d="m22.33 50.725h5.405v5.405h-5.405z" fill="#e1e6e9"/><path d="m27.734 56.63h-5.4a.5.5 0 0 1 -.5-.5v-5.4a.5.5 0 0 1 .5-.5h5.4a.5.5 0 0 1 .5.5v5.4a.5.5 0 0 1 -.5.5zm-4.9-1h4.4v-4.4h-4.4z" fill="#323c6b"/><path d="m34.298 50.725h5.405v5.405h-5.405z" fill="#e1e6e9"/><path d="m39.7 56.63h-5.4a.5.5 0 0 1 -.5-.5v-5.4a.5.5 0 0 1 .5-.5h5.4a.5.5 0 0 1 .5.5v5.4a.5.5 0 0 1 -.5.5zm-4.905-1h4.405v-4.4h-4.4z" fill="#323c6b"/><path d="m46.266 50.725h5.405v5.405h-5.405z" fill="#e1e6e9"/><path d="m51.67 56.63h-5.4a.5.5 0 0 1 -.5-.5v-5.4a.5.5 0 0 1 .5-.5h5.4a.5.5 0 0 1 .5.5v5.4a.5.5 0 0 1 -.5.5zm-4.9-1h4.4v-4.4h-4.4z" fill="#323c6b"/><path d="m22.33 61.089h5.405v5.405h-5.405z" fill="#e1e6e9"/><path d="m27.734 66.994h-5.4a.5.5 0 0 1 -.5-.5v-5.405a.5.5 0 0 1 .5-.5h5.4a.5.5 0 0 1 .5.5v5.405a.5.5 0 0 1 -.5.5zm-4.9-1h4.4v-4.405h-4.4z" fill="#323c6b"/><path d="m34.298 61.089h5.405v5.405h-5.405z" fill="#e1e6e9"/><path d="m39.7 66.994h-5.4a.5.5 0 0 1 -.5-.5v-5.405a.5.5 0 0 1 .5-.5h5.4a.5.5 0 0 1 .5.5v5.405a.5.5 0 0 1 -.5.5zm-4.905-1h4.405v-4.405h-4.4z" fill="#323c6b"/><path d="m46.266 61.089h5.405v5.405h-5.405z" fill="#e1e6e9"/><g fill="#323c6b"><path d="m51.67 66.994h-5.4a.5.5 0 0 1 -.5-.5v-5.405a.5.5 0 0 1 .5-.5h5.4a.5.5 0 0 1 .5.5v5.405a.5.5 0 0 1 -.5.5zm-4.9-1h4.4v-4.405h-4.4z"/><path d="m52.1 72.5h-30.2a5.948 5.948 0 0 1 -5.941-5.941v-57.118a5.948 5.948 0 0 1 5.941-5.941h30.2a5.948 5.948 0 0 1 5.941 5.941v57.118a5.948 5.948 0 0 1 -5.941 5.941zm-30.2-68a4.946 4.946 0 0 0 -4.941 4.941v57.118a4.946 4.946 0 0 0 4.941 4.941h30.2a4.946 4.946 0 0 0 4.941-4.941v-57.118a4.946 4.946 0 0 0 -4.941-4.941z"/><path d="m51.67 25.25h-29.34a.5.5 0 0 1 -.5-.5v-15.687a.5.5 0 0 1 .5-.5h29.34a.5.5 0 0 1 .5.5v15.687a.5.5 0 0 1 -.5.5zm-28.841-1h28.341v-14.687h-28.34z"/><path d="m60.539 56.63a.5.5 0 0 1 -.5-.5v-.417a.5.5 0 0 1 1 0v.417a.5.5 0 0 1 -.5.5z"/><path d="m13.461 11.438a.5.5 0 0 1 -.5-.5v-.75a.5.5 0 0 1 1 0v.75a.5.5 0 0 1 -.5.5z"/><path d="m13.542 8.844a.5.5 0 0 1 -.5-.565 8.915 8.915 0 0 1 4.987-6.886.5.5 0 0 1 .435.9 7.919 7.919 0 0 0 -4.43 6.116.5.5 0 0 1 -.492.435z"/><path d="m60.539 54.167a.5.5 0 0 1 -.5-.5v-6.75a.5.5 0 0 1 1 0v6.75a.5.5 0 0 1 -.5.5z"/></g></svg>