<svg height="512pt" viewBox="0 -47 512.00126 512" width="512pt" xmlns="http://www.w3.org/2000/svg"><path d="m450.773438 377.449219c-50.980469-2.351563-102.472657-3.796875-153.050782-4.308594-9.863281-.097656-20.261718-.144531-30.90625-.144531-38 0-76.820312.625-113.328125 1.265625-22.414062.390625-45.082031.859375-67.003906 1.3125l-35.199219.730469-.367187-1.578126c-.046875-.195312-.09375-.339843-.15625-.464843-6.925781-14.445313-.65625-33.824219 13.417969-41.476563 9.097656-4.9375 20.050781-5.21875 29.714843-5.460937 35.679688-.945313 72.007813-1.421875 107.980469-1.421875 75.347656 0 151.449219 2.082031 226.1875 6.191406 5.550781.304688 11.84375.648438 16.773438 3.664062 5.222656 3.199219 8.890624 9.675782 9.8125 17.324219.867187 7.195313-.480469 14.550781-1.785157 21.660157-.023437.128906-.027343.3125-.007812.539062l.199219 2.273438zm0 0" fill="#d8deec"/><path d="m365.46875 129.847656c-9.472656-11.742187-23.832031-21.292968-43.90625-29.191406-6.21875-2.457031-12.648438-4.671875-18.863281-6.816406l-.15625-.054688c-12.359375-4.265625-25.140625-8.671875-36.714844-15.0625-6.828125-3.773437-11.34375-7.277344-14.640625-11.351562-4.113281-5.0625-6.039062-11.050782-5.285156-16.425782 1.234375-8.75 9.308594-14.941406 16.761718-17.195312 3.558594-1.070312 7.4375-1.589844 11.867188-1.589844 5.183594 0 10.3125.714844 14.644531 1.417969 43.964844 7.15625 86.894531 27.183594 120.871094 56.398437l4.898437 4.207032-6.417968-.703125c-1.257813-.136719-2.507813-.207031-3.714844-.207031-2.023438 0-4 .195312-5.875.578124-16.835938 3.433594-26.410156 19.953126-29.496094 33.058594-.164062.699219-.3125 1.390625-.457031 2.089844l-.859375 4.140625zm-81.699219-87.015625c-1.140625 0-2.296875.101563-3.4375.300781-7.660156 1.34375-13.195312 6.851563-14.105469 14.03125-.082031.683594-.121093 1.328126-.121093 1.957032 0 7.21875 4.78125 13.957031 11.628906 16.386718 1.796875.640626 3.714844.964844 5.699219.964844 4.984375 0 9.867187-2.074218 13.058594-5.546875 4.714843-5.117187 5.820312-12.976562 2.691406-19.117187-2.835938-5.535156-8.742188-8.976563-15.414063-8.976563zm0 0" fill="#d8deec"/><path d="m246.894531 276.554688c-2 0-3.898437-.257813-5.644531-.773438-5.796875-1.703125-10.507812-6.332031-11.722656-11.511719-1.117188-4.777343.421875-9.863281 1.910156-14.785156.972656-3.21875 1.972656-6.546875 2.355469-10.011719.820312-7.394531-1.3125-14.484375-3.375-21.34375-1.570313-5.214844-3.054688-10.136718-3.382813-15.25-.714844-11.371094 5.230469-23.160156 14.792969-29.335937 5.113281-3.300781 11.40625-5.121094 17.722656-5.121094 1.289063 0 2.582031.074219 3.847657.226563 9.179687 1.101562 11.570312 7.902343 14.601562 16.511718 5.011719 14.1875 5.984375 27.953125 3.25 46.023438-1.738281 11.453125-4.292969 23.332031-11.125 32.617187-5.871094 7.984375-14.554688 12.753907-23.230469 12.753907zm8.5625-94.027344c-4.890625 0-11.617187 3.230468-14.820312 10.316406-2.945313 6.53125-1.480469 14.585938 3.566406 19.585938 3.128906 3.105468 7.578125 4.882812 12.210937 4.882812 2.632813 0 5.207032-.597656 7.4375-1.726562 6.449219-3.261719 10.179688-10.746094 8.867188-17.800782-1.269531-6.824218-8.21875-12.886718-14.207031-14.8125-.929688-.292968-1.957031-.445312-3.054688-.445312zm0 0" fill="#d8deec"/><path d="m108.972656 76.363281c-3.382812 0-6.613281-.136719-8.9375-1.789062-2.667968-1.898438-3.789062-5.5625-4.796875-9.472657-.597656-2.304687-1.109375-4.699218-.222656-6.367187 1.238281-2.332031 4.828125-2.792969 8.183594-2.9375l25.738281-.992187c4.570312-.175782 12.226562-.472657 16.765625-5.40625 2.386719-2.582032 3.472656-6.265626 2.984375-10.101563-.492188-3.910156-2.523438-7.285156-5.570312-9.253906-2.558594-1.644531-5.769532-2.449219-9.8125-2.449219-2.332032 0-4.625.265625-6.144532.4375l-26.355468 2.953125c-1.222657.132813-2.527344.257813-3.777344.257813-2.269532 0-3.882813-.421876-5.066406-1.328126-2.328126-1.800781-2.882813-5.519531-3.226563-8.867187-.316406-3.105469-.492187-6.066406.851563-8.140625 1.734374-2.683594 5.667968-3.441406 9.660156-3.863281 11.675781-1.234375 23.558594-1.996094 35.3125-2.269531 1.6875-.035157 3.582031-.148438 5.59375-.265626l.484375-.03125c3.144531-.191406 6.710937-.410156 10.300781-.410156 6.871094 0 16.527344.703125 21.023438 6.789063 4.089843 5.515625 4.929687 13.921875 5.542968 20.058593.972656 9.644532.332032 19.207032-1.90625 28.421876-1.023437 4.214843-2.699218 9.40625-6.585937 12.160156-3.5 2.484375-8.191407 2.699218-13.515625 2.707031zm0 0" fill="#d8deec"/><path d="m361.285156 244.390625c2.769532-8.761719 5.023438-17.679687 6.703125-26.503906l.234375-1.222657 90.183594-24.746093.210938 2.390625c.6875 7.890625.976562 15.96875.855468 24.003906l-.027344 1.8125-1.804687.148438c-.121094.011718-.265625.027343-.371094.054687-17.269531 4.765625-33.746093 9.519531-48.28125 13.714844-14.828125 4.28125-29.445312 8.492187-45.261719 12.875l-3.550781.984375zm0 0" fill="#696b77"/><path d="m343.496094 324.261719c-7.105469-.238281-14.210938-.46875-21.328125-.671875l-4.050781-.113282 2.554687-3.144531c8.195313-10.09375 15.621094-21.113281 22.074219-32.75l.542968-.980469 1.117188-.046874c.121094-.007813.234375-.015626.351562-.039063l110.070313-24.246094-.648437 3.039063c-1.929688 9.003906-4.40625 17.984375-7.363282 26.695312l-.601562 1.769532-1.804688-.480469c-.210937-.054688-.414062-.082031-.609375-.082031-.148437 0-.292969.015624-.4375.046874l-24.347656 5.828126-1.507813.570312-.910156-.984375c-2.261718-2.433594-4.8125-4.449219-7.585937-5.992187-5.234375-2.910157-11.378907-4.445313-17.769531-4.445313-7.15625 0-14.367188 1.894531-20.851563 5.484375-10.566406 5.851562-19.441406 16.261719-24.988281 29.324219l-.535156 1.261719zm0 0" fill="#696b77"/><path d="m372.015625 177.925781c.03125-2.207031.027344-4.25-.011719-6.246093-.054687-3.007813-.167968-6.070313-.28125-9.03125l-.035156-.941407c-.140625-3.679687-.273438-7.15625-.324219-10.667969l-.019531-1.433593 67.816406-24.042969 1.925782-.96875.871093 1.859375c1.8125 3.867187 3.5 8.144531 5.320313 13.460937 1.515625 4.457032 2.9375 9.144532 4.226562 13.9375l.5 1.855469-80.027344 24.976563zm0 0" fill="#696b77"/><path d="m58.550781 283.390625c-.699219-7.449219-1-15.070313-.886719-22.648437l.019532-1.375 85.136718-31.230469.234376 2.597656c.570312 6.289063 1.417968 12.652344 2.519531 18.914063l.300781 1.714843-1.65625.535157c-28.128906 9.074218-55.988281 20.214843-82.808594 33.109374l-2.585937 1.242188zm0 0" fill="#696b77"/><path d="m61.289062 224.855469c1.101563-5.894531 2.464844-11.757813 4.039063-17.425781l.28125-1.023438 1.007813-.339844c.09375-.03125.183593-.054687.277343-.082031 7.007813-2.863281 14.835938-6.128906 22.40625-9.289063l4.472657-1.867187c8.265624-3.464844 17.847656-7.46875 26.210937-10.894531l.363281-.148438h.394532c7.011718-.128906 13.875-1.066406 20.511718-1.972656l2.550782-.347656-.292969 2.558594c-.371094 3.210937-.679688 6.675781-.941407 10.59375l-.097656 1.453124-1.414062.355469c-.121094.03125-.199219.042969-.273438.070313l-80.167968 31.929687zm0 0" fill="#696b77"/><g fill="#bfc7d8"><path d="m469.746094 412.738281c-2.234375 0-4.457032-.011719-6.664063-.023437-39.425781 0-79.523437-.300782-118.304687-.589844h-.359375c-19.769531-.152344-39.535157-.300781-59.296875-.410156l-229.800782-1.300782h-1.1875c-4.722656 0-9.625.148438-14.367187.292969l-.53125.015625c-4.710937.152344-10.054687.324219-15.203125.324219-6.011719 0-11.148438-.238281-15.699219-.722656l-1.570312-.167969-.199219-1.566406c-.902344-6.988282-1.144531-19.5 7.386719-24.8125 4.75-2.964844 10.726562-3.363282 15.945312-3.363282 1.683594 0 3.386719.046876 5.039063.089844 1.535156.042969 3.246094.089844 4.902344.089844.566406 0 1.132812-.007812 1.691406-.019531l44.929687-.9375c21.957031-.453125 44.660157-.925781 67.101563-1.3125 36.484375-.644531 75.285156-1.269531 113.261718-1.269531 10.628907 0 21.011719.050781 30.863282.148437 62.265625.621094 125.378906 2.648437 187.589844 6.035156 4.492187.238281 9.589843.507813 13.792968 2.605469 4.960938 2.480469 6.335938 7.027344 6.714844 9.519531l.023438.167969c.59375 4.292969-.714844 8.75-3.515626 11.949219-2.980468 3.386719-8.234374 4.234375-12.984374 4.617187-6.859376.566406-13.734376.640625-19.558594.640625zm0 0"/><path d="m418.367188 327.519531c-21.898438-1.152343-44.160157-2.140625-66.164063-2.9375l-3.054687-.109375 1.320312-2.753906c5.195312-10.824219 12.96875-19.503906 21.886719-24.441406 5.824219-3.222656 12.359375-4.925782 18.90625-4.925782 5.746093 0 11.203125 1.34375 15.773437 3.886719 10.644532 5.914063 16.515625 19.023438 13.359375 29.847657l-.445312 1.519531zm0 0"/><path d="m239.15625 57.746094c-4.5-1.617188-9.164062-3-13.871094-4.105469l-1.746094-.410156 2.496094-20.164063 2.117188.425782c5.574218 1.128906 11.148437 2.621093 16.566406 4.433593l2.554688.855469-1.558594 2.199219c-2.078125 2.929687-3.367188 6.09375-3.832032 9.402343-.238281 1.667969-.257812 3.441407-.0625 5.265626l.34375 3.179687zm0 0"/><path d="m221.378906 192.082031c-17.21875-10.714843-37.046875-16.375-57.34375-16.375-1.964844 0-3.953125.054688-5.910156.164063-5.714844.3125-11.449219 1.097656-16.996094 1.855468l-.363281.050782c-6.574219.894531-13.375 1.824218-20.054687 1.945312-.40625.007813-.832032.011719-1.273438.011719-7.914062 0-22.585938-1.445313-31.933594-11.144531-1.722656-1.78125-3.230468-3.867188-4.484375-6.199219l-.070312-.148437c-5.121094-9.679688-5.152344-22.023438-.109375-32.253907 5.746094-11.667969 17.871094-21.011719 32.4375-24.992187 6.105468-1.664063 12.75-2.507813 19.75-2.507813 7.097656 0 14.5625.816407 22.828125 2.507813 36.113281 7.363281 69.773437 28.394531 92.34375 57.699218l1.792969 2.328126-2.824219.8125c-3.464844.996093-6.675781 2.441406-9.546875 4.296874-7.351563 4.757813-12.773438 12.144532-15.265625 20.804688l-.730469 2.542969zm-100.074218-77.789062c-1.980469 0-3.878907.277343-5.632813.828125-10.65625 3.339844-20.105469 16.308594-20.21875 27.75-.121094 11.238281 7.511719 22.085937 18.148437 25.804687 2.6875.933594 5.558594 1.40625 8.53125 1.40625 8.429688 0 16.78125-3.898437 21.796876-10.175781 7.070312-8.851562 7.898437-21.8125 2.015624-31.515625-4.863281-8.039063-15.457031-14.097656-24.640624-14.097656zm0 0"/><path d="m217.472656 52.042969c-3.785156-.65625-7.660156-1.140625-11.515625-1.445313l-1.890625-.148437.5-19.707031 2.035156.09375c4.398438.195312 8.933594.625 13.484376 1.277343l1.945312.277344-2.492188 20.011719zm0 0"/><path d="m181.71875 48.554688c.382812-4.820313.363281-9.753907-.058594-14.664063l-.164062-1.921875 1.914062-.230469c4.992188-.609375 10.039063-.957031 15.003906-1.027343l2.082032-.027344-.480469 19.554687-1.988281-.035156c-.839844-.019531-1.679688-.023437-2.519532-.023437-3.921874 0-7.828124.175781-11.609374.523437l-2.363282.21875zm0 0"/><path d="m81.945312 321.738281c-.335937-11.925781 6-23.597656 16.132813-29.734375 5.121094-3.105468 11.132813-4.746094 17.390625-4.746094 6.382812 0 12.5 1.699219 17.6875 4.914063 9.382812 5.820313 15.601562 16.808594 15.847656 27.996094l.042969 2.015625-2.015625.027344c-18.441406.25-36.355469.605468-53.246094 1.050781l-.289062.007812c-3.023438.078125-6.148438.160157-9.398438.40625l-2.09375.160157zm0 0"/></g><path d="m369.464844 209.191406c1.15625-7.589844 1.929687-15.265625 2.300781-22.816406l.070313-1.394531 81.167968-25.328125.488282 2.097656c1.851562 8.007812 3.300781 16.230469 4.296874 24.441406l.253907 2.082032-2.089844.152343c-.164063.015625-.296875.035157-.417969.070313l-86.53125 23.738281zm0 0" fill="#f9d889"/><path d="m347.574219 278.402344c4.125-8.308594 7.773437-16.871094 10.835937-25.453125l.613282-1.714844 1.765624.449219c.175782.046875.328126.070312.453126.070312.171874 0 .355468-.027344.523437-.074218 16.617187-4.585938 32.347656-9.109376 48.34375-13.730469 14.8125-4.273438 30.132813-8.691407 46.558594-13.234375l2.667969-.738282-.136719 2.765626c-.492188 10-1.617188 20.0625-3.347657 29.90625l-.234374 1.347656-1.339844.265625c-.117188.023437-.234375.039062-.355469.050781l-108.210937 23.832031zm0 0" fill="#f9d889"/><path d="m429.59375 328.113281c-.441406-.027343-.863281-.054687-1.285156-.070312-.414063-.03125-.773438-.046875-1.136719-.0625l-2.945313-.152344.492188-2.292969c1.40625-6.546875.21875-13.734375-3.339844-20.242187l-1.257812-2.292969 24.953125-5.976562-1.363281 3.546874c-3.464844 9.011719-7.480469 17.765626-11.9375 26.023438l-.019532.074219-.574218 1.542969zm0 0" fill="#f9d889"/><path d="m371.484375 142.328125c.257813-5.367187.882813-10.105469 1.910156-14.484375 4.496094-19.097656 17.003907-28.101562 26.347657-30.011719 1.683593-.339843 3.441406-.515625 5.21875-.515625 8.980468 0 18.285156 4.308594 25.53125 11.828125 2.753906 2.859375 5.222656 6.113281 7.550781 9.949219l1.273437 2.101562-67.972656 24.109376zm0 0" fill="#f9d889"/><path d="m66.875 324.933594c-3.371094-10.738282-5.84375-21.835938-7.355469-32.980469l-.191406-1.4375 1.300781-.632813c27.019532-13.140624 55.242188-24.519531 83.886719-33.8125l2.117187-.6875.457032 2.175782c4.550781 21.589844 12.085937 42.277344 22.398437 61.488281l1.5625 2.914063-17.941406.160156-.046875-1.972656c-.273438-12.574219-7.246094-24.90625-17.761719-31.425782-5.804687-3.597656-12.664062-5.5-19.839843-5.5-7.027344 0-13.769532 1.832032-19.488282 5.300782-11.429687 6.925781-18.6875 20.597656-18.0625 34.015624l.082032 1.757813-1.734376.304687c-2.480468.4375-4.730468.972657-6.878906 1.640626l-1.90625.59375zm0 0" fill="#f9d889"/><path d="m57.988281 251.960938c.335938-6.003907.921875-11.96875 1.746094-17.730469l.160156-1.148438 82.347657-32.789062-.078126 3.03125c-.167968 6.273437-.074218 12.707031.277344 19.121093l.078125 1.476563-84.703125 31.078125zm0 0" fill="#f9d889"/><path d="m68.386719 197.410156c3.113281-9.347656 6.945312-18.527344 11.394531-27.28125l1.375-2.707031 1.941406 2.328125c.53125.632812 1.015625 1.175781 1.484375 1.664062 4.84375 5.019532 11.679688 8.710938 19.773438 10.675782l5.929687 1.4375-21.386718 8.933594c-6.027344 2.515624-12.109376 5.054687-17.851563 7.429687l-4.042969 1.675781zm0 0" fill="#f9d889"/><path d="m294.699219 322.890625c-31.136719-.695313-62.324219-1.050781-92.695313-1.050781l-5.839844.003906.15625-2.144531c.058594-.835938.132813-1.644531.214844-2.480469.078125-.742188.144532-1.480469.203125-2.25l.144531-1.851562 99.601563.363281.332031 9.460937zm0 0" fill="#5bd0fc"/><path d="m283.457031 72.410156c-1.527343 0-2.996093-.246094-4.371093-.730468-5.683594-2.011719-9.558594-8.167969-8.828126-14.015626.382813-2.972656 1.777344-5.546874 4.03125-7.457031 1.832032-1.539062 4.222657-2.628906 6.738282-3.074219.886718-.152343 1.800781-.230468 2.71875-.230468 5.3125 0 9.621094 2.464844 11.816406 6.761718 2.335938 4.574219 1.472656 10.679688-2.058594 14.511719-2.433594 2.652344-6.191406 4.234375-10.046875 4.234375zm0 0" fill="#5bd0fc"/><path d="m256.402344 213.261719c-3.554688 0-6.960938-1.355469-9.347656-3.71875-3.804688-3.769531-4.945313-10.085938-2.714844-15.023438 1.726562-3.84375 6.546875-7.96875 10.964844-7.96875.6875 0 1.351562.101563 1.964843.296875 4.742188 1.523438 10.46875 6.417969 11.449219 11.679688.96875 5.234375-1.914062 11.007812-6.699219 13.441406-1.675781.847656-3.617187 1.292969-5.617187 1.292969zm0 0" fill="#5bd0fc"/><path d="m122.265625 166.046875c-2.542969 0-5.007813-.410156-7.320313-1.214844-8.894531-3.101562-15.53125-12.523437-15.429687-21.910156.097656-9.710937 8.378906-21.117187 17.371094-23.929687 1.285156-.402344 2.726562-.605469 4.289062-.605469 6.941407 0 16.484375 4.15625 21.296875 12.101562 4.941406 8.152344 4.21875 19.460938-1.71875 26.882813-4.339844 5.433594-11.25 8.675781-18.488281 8.675781zm0 0" fill="#5bd0fc"/><path d="m511.773438 394.476562c-.929688-6.226562-4.570313-11.347656-9.992188-14.054687-5.304688-2.652344-11.335938-2.980469-16.179688-3.242187-8.90625-.484376-17.832031-.933594-26.773437-1.363282 1.320313-7.203125 2.808594-15.363281 1.839844-23.457031-1.160157-9.617187-5.777344-17.550781-12.667969-21.769531-3.03125-1.855469-6.34375-2.902344-9.628906-3.527344 30.0625-57.359375 35.574218-127.824219 14.640625-189.101562-3.492188-10.226563-8.714844-23.21875-18.152344-33.019532-3.445313-3.578125-7.328125-6.496094-11.425781-8.722656.160156-1.238281-.246094-2.535156-1.222656-3.460938-36.148438-34.046874-83.046876-57.1875-132.058594-65.160156-9.46875-1.542968-19.5625-2.566406-29.238282.351563-3.652343 1.097656-7.421874 3.003906-10.757812 5.585937-.28125-.1875-.574219-.355468-.90625-.472656-21.207031-7.554688-44.152344-10.074219-66.5-7.347656-.835938-5.5-2.378906-11.691406-5.914062-16.46875-7.8125-10.570313-24.433594-9.558594-36.570313-8.820313-2.128906.128907-4.140625.25-5.851563.289063-11.914062.277344-23.960937 1.050781-35.804687 2.300781-3.429687.359375-10.566406 1.113281-14.117187 6.601563-2.613282 4.035156-2.117188 8.859374-1.785157 12.050781.367188 3.5625.980469 9.527343 5.558594 13.046875 4.28125 3.285156 9.871094 2.664062 13.210937 2.289062l26.351563-2.949218c4.8125-.539063 9.039063-.828126 12.003906 1.082031 1.511719.980469 2.578125 2.816406 2.84375 4.921875.257813 2.023437-.277343 3.980468-1.433593 5.234375-2.613282 2.835937-7.625 3.257812-12.539063 3.449219l-25.675781 1c-3.078125.117187-10.296875.398437-13.359375 6.140624-2.066407 3.875-.960938 8.167969-.300781 10.730469.976562 3.800781 2.453124 9.542969 7.136718 12.886719 3.863282 2.757812 8.527344 2.925781 12.132813 2.925781h.75l46.132812-.160156c4.917969-.015625 11.65625-.042969 17-3.832031 5.535157-3.921875 7.703125-10.4375 8.972657-15.675782.464843-1.929687.847656-3.875 1.183593-5.828124 19.664063-2.109376 39.710938.601562 58.097657 7.90625.488281.191406.992187.285156 1.484374.285156.105469 0 .207032-.015625.308594-.023438 1.039063 2.113282 2.34375 4.164063 3.90625 6.09375 4.898438 6.042969 11.351563 10.03125 16.421875 12.832032 12.011719 6.632812 25.058594 11.132812 37.675781 15.488281 6.199219 2.140625 12.613282 4.351562 18.769532 6.777343 22.433594 8.835938 37.378906 19.757813 45.6875 33.386719.148437.242188.320312.457031.507812.65625-.457031 7.296875-.179687 14.609375.097656 21.769531.125 3.183594.253907 6.480469.308594 9.6875.941406 53.046876-18.082031 106.777344-52.1875 147.417969-.527344.628907-.828125 1.371094-.914062 2.128907-3.34375-.089844-6.683594-.1875-10.027344-.269532l-.347656-9.757812c-.074219-2.160156-1.847656-3.878906-4.011719-3.886719l-103.558594-.378906c-.003906 0-.011719 0-.015625 0-2.21875 0-4.023437 1.792969-4.03125 4.011719-.007812 2.078124-.171875 3.78125-.347656 5.582031-.097656 1.03125-.199219 2.089843-.273438 3.230469-4.484374.011718-8.972656.019531-13.453124.046874-.078126-.242187-.179688-.484374-.308594-.714843-22.972656-41.253907-32.40625-89.628907-26.691406-136.488281 2.902343-.34375 5.816406-.636719 8.691406-.796876 21.683594-1.207031 43.609375 4.683594 61.757812 16.597657.246094.160156.503906.28125.765625.382812-.078125 1.449219-.09375 2.90625 0 4.367188.367188 5.792969 2.019531 11.289062 3.621094 16.609375 1.976563 6.570312 3.84375 12.773437 3.160156 18.929687-.320312 2.882813-1.207031 5.820313-2.140625 8.933594-1.714844 5.695313-3.488281 11.585937-2.003906 17.921875 1.535156 6.550781 6.671875 12.230469 13.398438 15.039062l-1.511719 17.390626c-.191407 2.21875 1.449219 4.171874 3.667969 4.367187.117187.007813.238281.011719.355468.011719 2.066406 0 3.828125-1.582032 4.007813-3.679688l1.410156-16.222656c.644531.046875 1.289063.070312 1.9375.070312 10.261719 0 21.070313-5.65625 28.121094-15.246093 7.617187-10.363281 10.378906-23.089844 12.230469-35.304688 2.851562-18.84375 1.765624-33.941406-3.523438-48.945312-3.136719-8.886719-6.6875-18.957031-19.601562-20.507813-2.171876-.257812-4.367188-.324218-6.554688-.214844-23.492188-32.289062-59.371094-55.378906-98.496094-63.367187-17.335937-3.535156-32.179687-3.503906-45.386718.101563-16.449219 4.488281-29.675782 14.753906-36.28125 28.15625-5.710938 11.589843-5.789063 25.042968-.808594 35.84375-26.6875 49.574218-32.371094 110.652343-15.273438 164.296874-.011718.003907-.023437.007813-.03125.015626-16.003906 8.691406-23.527344 30.097656-17.023437 46.996093l-2.855469.058594c-2 .039063-4.085938-.011719-6.292969-.070313-7.929687-.214843-16.925781-.453124-24.375 4.1875-4.332031 2.699219-13.941406 11.417969-9.667969 34.074219.320313 1.703125 1.691407 3.007813 3.402344 3.246094 11.308594 1.582031 23.332032 1.199219 34.957032.832031 5.507812-.171875 10.71875-.339844 15.859374-.308594l229.792969 1.296876c19.761719.113281 39.523438.261718 59.285157.410156 38.910156.292968 79.144531.59375 118.703124.59375 2.203126.011718 4.429688.027344 6.667969.027344 6.625 0 13.363281-.109376 20.058594-.660157 5.964844-.492187 12.652344-1.667969 17.039063-6.664062 4.003906-4.558594 5.847656-10.910157 4.9375-17.003907zm-83.378907-68.4375c-.570312-.03125-1.144531-.058593-1.71875-.089843 1.539063-7.164063.117188-14.921875-3.546875-21.617188l18.714844-4.476562c-3.398438 8.839843-7.335938 17.464843-11.828125 25.785156-.082031.15625-.136719.316406-.199219.476563-.480468-.027344-.957031-.050782-1.421875-.078126zm-9.921875-.519531c-22.015625-1.15625-44.089844-2.136719-66.203125-2.941406 5.035157-10.476563 12.417969-18.773437 21.058594-23.554687 10.535156-5.832032 23.382813-6.242188 32.738281-1.042969 9.898438 5.503906 15.3125 17.5625 12.40625 27.539062zm35.101563-69.175781-104.214844 22.953125c4.144531-8.328125 7.800781-16.90625 10.9375-25.671875.308594.074219.625.125.945313.125.355468 0 .714843-.046875 1.074218-.144531 17.003906-4.691407 32.9375-9.285157 48.347656-13.734375 14.867188-4.289063 30.230469-8.71875 46.542969-13.230469-.488281 9.945313-1.597656 19.863281-3.320312 29.667969-.105469.015625-.207031.011718-.3125.035156zm2.230469-69.910156c-.269532.019531-.546876.0625-.816407.136718l-83.542969 22.921876c1.15625-7.632813 1.9375-15.320313 2.316407-23.015626l77.785156-24.269531c1.847656 7.984375 3.269531 16.074219 4.257813 24.226563zm-85.851563 31.828125 86.675781-23.78125c.679688 7.90625.960938 15.851562.847656 23.800781-.25.019531-.496093.054688-.746093.125-16.984375 4.6875-32.90625 9.277344-48.304688 13.722656-14.464843 4.171875-29.40625 8.480469-45.230469 12.867188 2.769532-8.777344 5.035157-17.707032 6.757813-26.734375zm79.625-63.886719-75.5625 23.578125c.023437-2.101563.027344-4.203125-.011719-6.304687-.058594-3.292969-.1875-6.628907-.3125-9.855469-.140625-3.652344-.277344-7.242188-.324218-10.777344l66.523437-23.59375c.089844-.03125.167969-.082031.257813-.121094 2.089843 4.457031 3.773437 8.988281 5.234374 13.265625 1.554688 4.554688 2.941407 9.160156 4.195313 13.808594zm-13.25-34.242188-62.84375 22.285157c.226563-4.78125.765625-9.476563 1.855469-14.117188 4.285156-18.183593 16.039062-26.722656 24.804687-28.507812 9.570313-1.953125 20.648438 2.167969 28.90625 10.742187 2.824219 2.929688 5.210938 6.183594 7.277344 9.597656zm-230.210937-71.535156.394531-15.761718c4.445312.203124 8.882812.625 13.289062 1.253906l-1.984375 15.980468c-3.878906-.664062-7.78125-1.15625-11.699218-1.472656zm-32.460938 12.265625c-.9375 3.871094-2.445312 8.621094-5.796875 10.996094-3.019531 2.140625-7.386719 2.328125-12.367187 2.347656l-46.132813.15625c-3.371094.011719-6.300781-.085937-8.167969-1.421875-2.117187-1.511718-3.105468-4.804687-4.015625-8.335937-.367187-1.429688-.984375-3.820313-.390625-4.929688.882813-1.660156 5.152344-1.824219 6.558594-1.878906l25.671875-1c4.882813-.1875 13.054687-.503906 18.15625-6.042969 2.789063-3.023437 4.066406-7.292968 3.5-11.710937-.570313-4.5-2.929687-8.394531-6.464844-10.675781-3.402343-2.199219-7.316406-2.777344-10.902343-2.777344-2.339844 0-4.542969.246094-6.375.449218l-26.347657 2.949219c-2.886719.324219-5.832031.539063-7.40625-.671875-1.683593-1.292968-2.148437-4.535156-2.453125-7.476562-.28125-2.738282-.453125-5.316406.535156-6.84375 1.289063-1.988282 4.867188-2.613282 8.199219-2.964844 11.625-1.226562 23.449219-1.984375 35.144531-2.253906 1.863282-.042969 3.945313-.171875 6.15625-.308594 10.289063-.625 24.386719-1.480469 29.597657 5.570312 3.746093 5.0625 4.5625 13.160157 5.160156 19.074219.949219 9.398438.324219 18.734375-1.859375 27.75zm10.058594-12.148437c.386718-4.957032.367187-9.960938-.0625-14.988282 4.910156-.601562 9.851562-.945312 14.796875-1.015624l-.390625 15.488281c-4.78125-.085938-9.570313.074219-14.34375.515625zm42.023437 2.972656 2.015625-16.230469c5.527344 1.117188 10.980469 2.574219 16.328125 4.363281-2.117187 2.996094-3.636719 6.433594-4.179687 10.28125-.265625 1.886719-.277344 3.820313-.070313 5.761719-4.617187-1.664062-9.328125-3.046875-14.09375-4.175781zm96.558594 47.101562c-6.316406-2.488281-12.816406-4.730468-19.097656-6.898437-12.292969-4.238281-25.003907-8.625-36.40625-14.921875-6.582031-3.632812-10.917969-6.980469-14.054688-10.851562-3.761719-4.640626-5.53125-10.066407-4.851562-14.890626 1.109375-7.886718 8.511719-13.496093 15.355469-15.558593 8.109374-2.445313 17.101562-1.5 25.613281-.113281 43.929687 7.148437 86.101562 26.890624 119.882812 55.9375-3.449219-.382813-6.890625-.273438-10.203125.402343-17.757812 3.617188-27.820312 20.875-31.039062 34.558594-.167969.710937-.324219 1.425781-.46875 2.140625-9.667969-11.984375-24.378906-21.785156-44.730469-29.804688zm22.199219 189.761719c.214844-.011719.425781-.023437.640625-.070312l107.085937-23.582031c-1.914062 8.960937-4.355468 17.804687-7.304687 26.46875-.632813-.175782-1.316407-.21875-2.003907-.054688l-24.359374 5.828125c-.171876.039063-.328126.109375-.488282.167969-2.328125-2.507813-5.042968-4.683594-8.085937-6.375-11.90625-6.617188-27.449219-6.222656-40.558594 1.035156-10.972656 6.074219-20.140625 16.824219-25.863281 30.292969-7.105469-.242188-14.21875-.464844-21.332032-.671875 8.363282-10.308594 15.8125-21.386719 22.269532-33.039063zm-145.757813 26.570313 95.8125.351562.191407 5.417969c-32.140626-.71875-64.308594-1.078125-96.433594-1.050781.0625-.816406.136718-1.609375.21875-2.421875.074218-.746094.144531-1.503907.210937-2.296875zm-131.484375-107.160156c.152344-.042969.304688-.078126.453125-.136719 8.3125-3.410157 17.730469-7.347657 26.839844-11.152344 8.878906-3.714844 18.050781-7.546875 26.195313-10.890625.027343 0 .054687.003906.082031 0 7.011719-.128906 13.964843-1.070312 20.695312-1.988281-.402343 3.554687-.707031 7.121093-.941406 10.691406-.167969.042969-.332031.078125-.496094.144531l-76.832031 30.589844c1.089844-5.808594 2.421875-11.570312 4.003906-17.257812zm-5.542968 26.546874 78.457031-31.238281c-.175781 6.429688-.078125 12.863281.28125 19.28125l-80.464844 29.519531c.332031-5.875.902344-11.734374 1.726563-17.5625zm-2.046876 26.269532 81.394532-29.863282c.585937 6.390626 1.4375 12.757813 2.542968 19.078126-28.324218 9.140624-56.230468 20.304687-83.058593 33.214843-.695313-7.449219-.992188-14.941406-.878907-22.429687zm203.496094-90.140625c7.585938.910156 9.660156 5.832031 12.957032 15.183593 4.890624 13.878907 5.835937 27.351563 3.15625 45.058594-1.695313 11.191406-4.171876 22.78125-10.753907 31.738282-7.933593 10.792968-19.402343 13.398437-26.707031 11.25-5.125-1.507813-9.277344-5.546876-10.335938-10.050782-.992187-4.234375.402344-8.859375 1.875-13.757812 1-3.320313 2.03125-6.753906 2.433594-10.363282.863282-7.792968-1.332031-15.089843-3.453125-22.144531-1.535156-5.105469-2.984375-9.929687-3.292969-14.796875-.675781-10.664062 4.898438-21.726562 13.875-27.527344 5.8125-3.761718 13.1875-5.433593 20.246094-4.589843zm-178.527344-39.765625c5.503907-11.167969 17.15625-20.117188 31.171876-23.945313 11.960937-3.261719 25.582031-3.253906 41.652343.023438 35.847657 7.316406 68.832031 27.984375 91.152344 56.96875-3.582031 1.027343-7 2.546875-10.074219 4.535156-7.855468 5.078125-13.546875 13.039063-16.105468 21.925781-19.140626-11.902344-41.902344-17.769531-64.414063-16.511718-5.839844.328124-11.660156 1.125-17.289063 1.894531-6.59375.902343-13.410156 1.835937-20.050781 1.957031-7.914062.15625-22.578125-1.023438-31.730469-10.515625-1.640624-1.699219-3.027343-3.648437-4.164062-5.757813-.027344-.0625-.054688-.121093-.085938-.183593-4.667968-8.832031-4.890624-20.589844-.0625-30.390625zm-1.488281 41.929687c5.175781 5.371094 12.292969 9.179688 20.742188 11.234375-4.125 1.71875-8.316407 3.46875-12.449219 5.195313-7.09375 2.964843-14.363281 6.003906-21.15625 8.8125 3.09375-9.277344 6.863281-18.3125 11.28125-27.011719.507812.605469 1.03125 1.203125 1.582031 1.769531zm-21.644531 118.882813c26.976562-13.125 55.089844-24.449219 83.632812-33.707032 4.550782 21.585938 12.136719 42.53125 22.585938 62.015626-4.21875.035156-8.441406.066406-12.660156.117187-.289063-13.183594-7.472656-26.125-18.710938-33.089844-12.347656-7.652343-28.992187-7.734375-41.414062-.207031-12.140625 7.359375-19.679688 21.65625-19.019532 35.824219-2.386718.414062-4.777343.964843-7.128906 1.699219-3.347656-10.640626-5.777344-21.574219-7.285156-32.652344zm22.441406 29.996094c-.304687-11.097657 5.660156-22.207032 15.171875-27.972657 9.894531-5.996093 23.15625-5.925781 32.988281.167969 8.949219 5.542969 14.667969 15.847656 14.902344 26.34375-17.785156.234375-35.550781.574219-53.277344 1.042969-3.070312.078125-6.375.164062-9.785156.417969zm-31.378906 51.714843c-6.492188-13.53125-.617188-31.6875 12.570312-38.851562 8.640626-4.691407 19.355469-4.976563 28.808594-5.222657 110.878906-2.921874 223.253906-1.320312 334.011719 4.769532 5.3125.292968 11.339844.621094 15.839844 3.378906 4.703125 2.878906 8.019531 8.804688 8.867187 15.855469.832032 6.882812-.488281 14.089843-1.765625 21.0625-.066406.359375-.0625.714843-.035156 1.066406-50.949219-2.347656-102.300781-3.804687-153.117187-4.308594-47.425782-.472656-95.316407.257813-144.289063 1.113281-25.375.445313-50.960937.980469-75.703125 1.496094l-24.886719.523438c-.070312-.300782-.160156-.597656-.300781-.882813zm448.21875 32.765625c-2.492188 2.839844-7.285156 3.589844-11.640625 3.945313-8.605469.707031-17.460937.660156-26.046875.609375-39.546875 0-79.765625-.304688-118.664062-.59375-19.765626-.152344-39.535157-.300782-59.300782-.410156l-229.792968-1.296876c-.398438-.003906-.800782-.003906-1.207032-.003906-4.925781 0-10.015625.160156-14.953125.316406-10.253906.324219-20.820312.660157-30.636719-.394531-.8125-6.335937-1.148437-18.117187 6.460938-22.855469 5.394531-3.363281 12.765625-3.167968 19.898438-2.976562 2.203124.058594 4.480468.121094 6.675781.074219l36.34375-.757813c24.734375-.519531 50.308593-1.054687 75.671875-1.496094 48.914062-.855468 96.746094-1.585937 144.070312-1.113281 62.273438.617188 125.355469 2.644531 187.503906 6.019531 4.3125.234376 9.203126.5 13.011719 2.40625 4.160157 2.074219 5.308594 5.925782 5.621094 8.035157.566406 3.773437-.5625 7.695312-3.015625 10.492187zm0 0" fill="#231f20"/><path d="m112.949219 170.558594c2.953125 1.03125 6.066406 1.523437 9.1875 1.523437 8.863281 0 17.796875-3.972656 23.355469-10.929687 7.582031-9.484375 8.472656-23.386719 2.164062-33.804688-5.859375-9.679687-20.683594-17.867187-32.582031-14.140625-11.390625 3.570313-21.496094 17.425781-21.625 29.648438-.125 12.066406 8.074219 23.71875 19.5 27.703125zm4.535156-49.65625c6.550781-2.054688 18.140625 2.140625 23.277344 10.621094 4.515625 7.464843 3.859375 17.808593-1.566407 24.597656-5.457031 6.820312-15.375 9.691406-23.59375 6.828125-8.125-2.835938-14.179687-11.4375-14.089843-20.007813.089843-8.785156 7.855469-19.496094 15.972656-22.039062zm0 0" fill="#231f20"/><path d="m238.8125 192.023438c-3.28125 7.269531-1.644531 16.246093 3.976562 21.828124 3.589844 3.5625 8.621094 5.457032 13.621094 5.457032 2.882813 0 5.753906-.628906 8.339844-1.933594 7.222656-3.65625 11.398438-12.046875 9.929688-19.953125-1.457032-7.847656-9.101563-14.28125-15.558594-16.347656-6.480469-2.078125-16.191406 1.828125-20.308594 10.949219zm7.351562 3.316406c1.765626-3.914063 6.957032-7.722656 10.5-6.585938 4.214844 1.347656 9.273438 5.746094 10.089844 10.140625.804688 4.320313-1.675781 9.277344-5.644531 11.285157-3.988281 2.019531-9.425781 1.136718-12.640625-2.050782-3.234375-3.210937-4.203125-8.585937-2.304688-12.789062zm0 0" fill="#231f20"/><path d="m279.984375 41.167969c-8.546875 1.496093-14.722656 7.675781-15.734375 15.742187-1.09375 8.699219 4.414062 17.5 12.8125 20.480469 2.046875.730469 4.207031 1.078125 6.367188 1.078125 5.433593 0 10.875-2.207031 14.535156-6.183594 5.269531-5.722656 6.5-14.519531 2.996094-21.382812-3.761719-7.363282-12.195313-11.277344-20.976563-9.734375zm12.046875 25.660156c-2.941406 3.199219-8.101562 4.449219-12.273438 2.96875-4.75-1.6875-8.121093-7.015625-7.511718-11.878906.683594-5.433594 5.164062-8.113281 9.128906-8.808594 4.070312-.714844 9.761719.285156 12.40625 5.460937 1.96875 3.859376 1.234375 9.015626-1.75 12.257813zm0 0" fill="#231f20"/></svg>