<svg height="511pt" viewBox="-23 0 511 511.997" width="511pt" xmlns="http://www.w3.org/2000/svg"><g fill="#f7b36f"><path d="m362.5625 323.777344c-17.078125-.0625-34.207031-1.804688-50.921875-5.179688-5.21875-1.0625-11.0625-2.53125-14.394531-6.570312-1.242188-1.503906-2.128906-3.328125-2.714844-5.566406l-.695312-2.675782 39.585937 2.53125h.195313c1.066406 0 1.957031-.835937 2.023437-1.902344.070313-1.113281-.78125-2.082031-1.898437-2.152343 0 0-37.121094-2.371094-37.128907-2.371094-.203125 0-.355469.019531-.507812.054687l-2.445313.5625v-2.511718c0-.648438.007813-1.300782.019532-1.941406.191406-10.296876 1.035156-20.617188 2.511718-30.675782.953125-6.535156 2.363282-13.925781 7.054688-18.886718 1.332031-1.417969 2.976562-2.652344 4.878906-3.671876l3.484375-1.855468-3.851563 26.816406c-.15625 1.105469.621094 2.144531 1.730469 2.308594.101563.015625.195313.015625.289063.015625 1.003906 0 1.867187-.75 2.011718-1.746094l3.769532-26.304687-.003906-.042969c0-.09375 0-.191407.007812-.289063l.089844-1.585937 1.5625-.269531c4.292968-.75 8.980468-.925782 12.996094-1l10.554687-.214844-.957031 22.695312-1.617188.253906c-4.699218.746094-8.753906 3.839844-11.117187 8.492188-3.136719 6.191406-2.273438 13.109375 2.195312 17.625 2.730469 2.757812 6.648438 4.335938 10.738281 4.335938 2.761719 0 5.40625-.714844 7.648438-2.070313 5.300781-3.214844 7.96875-9.847656 6.632812-16.503906-1.082031-5.390625-4.390624-9.46875-9.078124-11.183594l-1.3125-.480469v-1.570312l.027343-.183594.914063-21.488281 18.546875-.355469-1.117188 33.515625c-.035156 1.117187.851563 2.0625 1.972657 2.105469l.058593-.003906c1.105469 0 1.996094-.863282 2.03125-1.964844l1.046875-31.382813-.023437-.242187-.15625-2.105469 20.34375-.402344 3.363281 84.628907-1.882812.183593c-6.210938.601563-12.382813.988281-18.339844 1.148438l-1.96875.050781-.941406-22.425781c-.046876-1.078125-.945313-1.949219-2.011719-1.949219l-.101563.003906c-.542968.019532-1.046875.253906-1.410156.652344-.367188.398438-.558594.917969-.53125 1.457031l.9375 22.296875zm0 0"/><path d="m340.03125 287.976562c-3.039062 0-5.90625-1.136718-7.863281-3.113281-1.882813-1.894531-2.878907-4.371093-2.878907-7.15625 0-1.921875.5-3.972656 1.402344-5.769531 2.0625-4.050781 5.660156-6.460938 9.625-6.460938.488282 0 .996094.035157 1.507813.109376 6.425781.960937 8.117187 6.894531 8.484375 8.691406.828125 4.152344-.324219 9.535156-4.761719 12.230468-1.59375.960938-3.5 1.46875-5.515625 1.46875zm0 0"/><path d="m228.570312 55.28125c6.582032-9.0625 17.5-14.691406 28.492188-14.691406.847656 0 1.703125.035156 2.539062.101562 5.113282.410156 9.664063 1.976563 13.148438 4.53125 3.15625 2.3125 5.433594 5.515625 6.414062 9.011719l.835938 2.988281-3.066406-.46875c-6.101563-.9375-12.367188-1.414062-18.628906-1.414062-9.273438 0-18.585938 1.03125-27.679688 3.066406l-5.164062 1.15625zm0 0"/><path d="m255.167969 219.355469c-2.910157 0-5.765625-.820313-8.042969-2.304688-5.039062-3.285156-7.761719-9.984375-6.46875-15.929687.6875-3.125 2.1875-5.789063 4.339844-7.714844 2.171875-1.9375 4.964844-3.082031 8.078125-3.324219.351562-.03125.742187-.046875 1.136719-.046875 4.960937 0 11.757812 2.628906 14.585937 10.039063 2.132813 5.59375.152344 12.605469-4.609375 16.3125-2.445312 1.910156-5.648438 2.96875-9.019531 2.96875zm0 0"/><path d="m222.476562 268.589844c-5.390624-6.976563-12.234374-13.039063-19.800781-17.535156l-2.085937-1.242188 1.617187-1.808594c5.6875-6.363281 10.9375-13.144531 15.597657-20.15625l1.6875-2.539062 1.65625 2.558594c2.953124 4.570312 6.601562 8.394531 10.832031 11.371093 2.757812 1.957031 5.828125 3.5625 9.140625 4.78125l2.363281.871094-1.386719 2.105469c-4.96875 7.554687-10.53125 14.851562-16.535156 21.691406l-1.601562 1.824219zm0 0"/><path d="m193.878906 294.824219c-3.476562-8.207031-9.125-15.332031-16.339844-20.59375l-2.148437-1.566407 2.101563-1.628906c6.726562-5.21875 13.164062-10.957031 19.128906-17.046875l1.066406-1.09375 1.335938.746094c8.222656 4.59375 15.519531 11.019531 21.105468 18.589844l.996094 1.347656-1.15625 1.21875c-7.105469 7.464844-14.847656 14.472656-23.019531 20.828125l-2.058594 1.597656zm0 0"/><path d="m156.710938 317.484375c-2.023438-8.582031-6.265626-16.542969-12.269532-23.019531l-1.824218-1.96875 2.410156-1.1875c8.859375-4.351563 17.5-9.484375 25.675781-15.257813l1.101563-.777343 1.132812.730468c8.074219 5.179688 14.402344 12.964844 17.8125 21.921875l.101562.179688.757813 1.53125-1.390625.988281c-4.167969 2.96875-8.109375 5.589844-12.050781 8.015625-5.9375 3.652344-12.207031 7.082031-18.640625 10.1875l-2.242188 1.082031zm0 0"/><path d="m122.15625 330.234375c-.816406-8.6875-3.453125-16.941406-7.847656-24.539063l-1.277344-2.207031 2.449219-.710937c7.367187-2.148438 14.71875-4.808594 21.839843-7.914063l1.21875-.53125.960938.917969c6.941406 6.628906 11.78125 15.453125 13.621094 24.84375l.3125 1.578125-1.476563.640625c-8.855469 3.847656-18.03125 7.097656-27.273437 9.660156l-2.300782.640625zm0 0"/><path d="m108.988281 133.894531c-6.265625-7.828125-7.539062-19.40625-3.101562-28.152343 4.238281-8.355469 13.570312-14.027344 23.222656-14.117188l3.644531-.03125-1.925781 3.089844c-7.566406 12.125-13.75 25.113281-18.386719 38.613281l-1.183594 3.4375zm0 0"/><path d="m94.300781 335.355469c.378907-2.476563.632813-4.828125.78125-7.183594.472657-7.09375.195313-13.140625-.835937-18.496094l-.390625-2.003906 2.011719-.347656c3.878906-.671875 7.777343-1.480469 11.589843-2.402344l1.394531-.335937.765626 1.210937c4.976562 7.851563 7.945312 16.890625 8.597656 26.136719l.117187 1.703125-1.660156.386719c-6.695313 1.558593-13.472656 2.777343-20.140625 3.617187l-2.628906.332031zm0 0"/></g><path d="m235.707031 489.761719c-30.980469 0-58.835937-.601563-85.160156-1.835938-12.304687-.578125-23.335937-1.355469-33.714844-5.023437-11.671875-4.121094-20.71875-11.8125-24.820312-21.097656-5.03125-11.371094-3.15625-26.238282 4.894531-38.796876 7.820312-12.203124 19.769531-20.765624 30.421875-27.53125 16.382813-10.40625 33.972656-19.105468 52.277344-25.859374 16.230469-5.984376 33.0625-10.464844 50.03125-13.3125 1.15625-.191407 2.320312-.394532 3.5-.597657l1.125-.191406c8.078125-1.410156 17.210937-3.003906 25.722656-3.003906 5.921875 0 10.933594.75 15.324219 2.285156l11.121094 3.890625c30.683593 10.707031 62.417968 21.777344 93.226562 34.550781 15.125 6.277344 32.199219 13.363281 44.082031 26.207031 10.886719 11.757813 17.472657 31.554688 8.992188 46.640626-4.441407 7.910156-12.78125 14.035156-23.476563 17.246093-9.785156 2.925781-20.230468 3.238281-30.335937 3.542969-46.824219 1.421875-95.140625 2.886719-143.210938 2.886719zm116.453125-20.769531c7.316406 6.613281 17.320313 10.402343 27.449219 10.402343 2.46875 0 4.871094-.214843 7.171875-.644531 11.105469-2.046875 20.996094-8.769531 26.457031-17.984375 4.679688-7.878906 5.953125-16.382813 3.683594-24.597656-2.945313-10.640625-11.625-20.523438-23.8125-27.113281-3.980469-2.15625-8.84375-3.292969-14.066406-3.292969-4.507813 0-9.28125.847656-13.804688 2.449219l-.964843.339843-.839844-.578125c-.140625-.097656-.324219-.21875-.464844-.265625-20.003906-7.296875-40.777344-12.726562-61.78125-16.15625l-1.269531-.210937-.339844-1.242188c-1.363281-5.027344-3.5625-9.636718-6.53125-13.703125-8.050781-11.015625-20.769531-17.332031-34.902344-17.332031-1.984375 0-4.011719.128906-6.019531.378906-16.386719 2.035156-29.671875 11.9375-35.542969 26.480469-1.359375 3.386719-2.269531 6.992187-2.695312 10.722656l-.175781 1.515625-1.507813.230469c-.121094.019531-.269531.058594-.429687.113281l-29.585938 11.015625-.90625-1c-6.53125-7.175781-15.199219-11.042969-25.070312-11.183593h-.550782c-15.734375 0-32.605468 9.390624-41.980468 23.371093-8.25 12.292969-9.203126 28.09375-2.371094 39.316407 5.324218 8.75 15.554687 15.042968 27.371094 16.832031 2.332031.351562 4.734374.527343 7.128906.527343 8.742187 0 17.292968-2.347656 24.734375-6.796874l1.011719-.601563 1.019531.589844c.277343.164062.554687.253906.835937.277343 27.085938 2.296876 54.617188 3.460938 81.839844 3.460938 30.949219 0 62.140625-1.492188 92.707031-4.441406.523438-.046875.996094-.292969 1.339844-.695313l1.335937-1.5625zm0 0" fill="#696b77"/><path d="m298.636719 203.144531-.125-1.855469c-.300781-4.472656-1.304688-8.75-2.984375-12.703124-.671875-1.585938-1.507813-3.191407-2.480469-4.773438l-1.859375-3.015625 91.121094-.828125.273437 1.695312c1.015625 6.242188 1.875 12.875 2.554688 19.710938l.222656 2.210938zm0 0" fill="#ed6d66"/><path d="m256.480469 242.726562c-8.085938 0-15.957031-2.414062-22.15625-6.796874-13.335938-9.425782-19.539063-28.28125-14.425781-43.859376 2.433593-7.402343 7.472656-14.335937 14.1875-19.519531 6.289062-4.859375 13.355468-7.644531 19.382812-7.644531.378906 0 .757812.011719 1.136719.035156 10.660156.660156 22.191406 6.28125 30.101562 14.664063l.125.132812.097657.152344c.121093.1875.277343.355469.460937.503906l.132813.109375.113281.128906c2.6875 3.03125 4.753906 6.238282 6.144531 9.535157 6.421875 15.140625 1.519531 34.289062-11.398438 44.535156-6.515624 5.175781-15.003906 8.023437-23.902343 8.023437zm-2.171875-56.753906c-.507813 0-1.015625.015625-1.527344.054688-8.148438.613281-14.3125 6.0625-16.089844 14.222656-.28125 1.269531-.421875 2.597656-.421875 3.945312 0 6.550782 3.308594 12.785157 8.640625 16.265626 2.957032 1.925781 6.5 2.945312 10.25 2.945312 4.28125 0 8.375-1.355469 11.527344-3.816406 6.214844-4.84375 8.695312-13.664063 5.902344-20.972656-2.9375-7.679688-10.113282-12.644532-18.28125-12.644532zm0 0" fill="#ed6d66"/><path d="m122.132812 198.726562c1.144532-6.261718 2.488282-12.425781 3.988282-18.324218l.386718-1.519532 95.113282.894532-1.824219 3.003906c-1.636719 2.703125-2.902344 5.398438-3.757813 8.015625-.828124 2.527344-1.40625 5.160156-1.726562 7.824219l-.257812 2.179687-2.144532-.457031c-.144531-.03125-.285156-.046875-.441406-.046875l-89.773438.8125zm0 0" fill="#ed6d66"/><path d="m113.226562 144.371094.542969-1.847656c5.3125-18.085938 13.351563-35.226563 23.886719-50.941407l.878906-1.308593 24.179688 8.929687-1.863282 2.183594c-11.488281 13.453125-21.101562 29.402343-28.574218 47.40625l-.714844 1.722656zm0 0" fill="#ed6d66"/><path d="m52.082031 368.058594c-2.003906 0-4.160156-.070313-6.59375-.214844-4.890625-.292969-10.496093-.816406-15.074219-3.347656-3.851562-2.125-7.519531-6.449219-7.035156-11.316406.570313-5.738282 6.613282-9.574219 11.988282-10.710938 3.054687-.652344 6.238281-.742188 9.222656-.742188l2.519531.007813c.882813.011719 1.753906.019531 2.628906.019531 1.992188 0 3.605469-.046875 5.078125-.152344 8.699219-.621093 15.445313-4.140624 18.503906-9.65625 3.585938-6.453124 1.949219-17.148437-6.941406-23.171874-4.53125-3.070313-10.21875-4.628907-16.90625-4.628907-2.28125 0-4.707031.183594-7.21875.542969-3.898437.554688-7.75 1.460938-11.480468 2.335938-3.769532.898437-7.632813 1.820312-11.585938 2.355468-.636719.089844-1.9375.238282-3.429688.238282-4.285156 0-7.136718-1.179688-8.472656-3.503907-1.3125-2.289062-.742187-5.820312 1.351563-8.398437 2.136719-2.621094 5.445312-4.320313 8.703125-5.765625 7.769531-3.429688 23.019531-9.183594 37.898437-9.183594 5.816407 0 11.074219.898437 15.617188 2.667969 7.769531 3.03125 13.273437 8.460937 16.828125 16.59375 2.996094 6.886718 4.0625 15.105468 3.351562 25.871094-.738281 11.191406-3.898437 26.164062-14.757812 33.964843-5.808594 4.167969-13.722656 6.195313-24.195313 6.195313zm0 0" fill="#ed6d66"/><path d="m232.328125 505.9375c-34.933594 0-66.339844-.769531-96.023437-2.34375-13.890626-.742188-26.335938-1.734375-38.007813-6.390625-13.226563-5.289063-23.492187-15.171875-28.160156-27.121094-5.753907-14.710937-3.625-33.90625 5.5625-50.105469 8.871093-15.632812 22.363281-26.566406 34.394531-35.195312 18.445312-13.242188 38.277344-24.332031 58.945312-32.953125 18.273438-7.621094 37.246094-13.324219 56.386719-16.949219 1.699219-.316406 3.429688-.65625 5.195313-1.007812 9.085937-1.785156 19.378906-3.8125 28.984375-3.8125 6.679687 0 12.328125.949218 17.277343 2.90625l12.75 5.027344c34.511719 13.617187 70.203126 27.695312 104.835938 43.933593 17.011719 7.964844 36.292969 16.992188 49.765625 33.441407 12.417969 15.15625 19.910156 40.710937 10.203125 60.230468-5.054688 10.175782-14.511719 18.039063-26.628906 22.140625-11.007813 3.722657-22.769532 4.128907-34.148438 4.523438-52.730468 1.808593-107.171875 3.675781-161.332031 3.675781zm27.648437-157.492188c-8.796874 0-17.722656 1.550782-26.355468 3.050782l-.9375.164062c-1.253906.21875-2.496094.433594-3.714844.636719-17.210938 2.886719-34.289062 7.429687-50.769531 13.503906-18.613281 6.867188-36.460938 15.695313-53.046875 26.242188-11.035156 7.007812-23.425782 15.90625-31.671875 28.773437-8.773438 13.695313-10.765625 30.03125-5.191407 42.628906 4.558594 10.300782 14.464844 18.789063 27.1875 23.285157 10.890626 3.851562 22.238282 4.65625 34.875 5.246093 26.339844 1.246094 54.273438 1.847657 85.398438 1.847657 48.140625 0 96.511719-1.46875 143.289062-2.886719 10.382813-.316406 21.101563-.644531 31.375-3.71875 11.714844-3.507812 20.898438-10.308594 25.859376-19.144531 9.425781-16.773438 2.328124-38.550781-9.554688-51.390625-12.507812-13.515625-30.039062-20.78125-45.507812-27.191406-30.96875-12.84375-62.726563-23.925782-93.441407-34.648438l-11.121093-3.878906c-4.84375-1.695313-10.296876-2.519532-16.671876-2.519532zm0 0" fill="#bfc7d8"/><path d="m379.566406 475.351562c-10.980468 0-21.808594-5.039062-28.261718-13.152343-8.066407-10.152344-9.273438-25.351563-2.867188-36.136719 6.667969-11.214844 20.097656-16.238281 30.449219-16.238281 4.664062 0 8.917969.96875 12.296875 2.804687 11.058594 5.980469 19.214844 15.1875 21.8125 24.625 2 7.222656.910156 14.4375-3.25 21.441406-4.878906 8.207032-13.734375 14.210938-23.691406 16.066407-2.117188.390625-4.296876.589843-6.488282.589843zm-2.980468-47.585937c-2.714844 0-5.292969.835937-7.453126 2.421875-5.992187 4.40625-8.722656 12.667969-6.5 19.640625 2.191407 6.875 8.984376 11.867187 16.15625 11.867187.246094 0 .5-.007812.757813-.023437 7.574219-.394531 14.261719-6.503906 15.257813-13.914063.851562-6.371093-3.210938-13.582031-9.875-17.53125-2.714844-1.609374-5.597657-2.460937-8.34375-2.460937zm0 0" fill="#bfc7d8"/><path d="m256.972656 442.007812c-7.734375 0-15.015625-2.039062-21.050781-5.898437-15.425781-9.855469-22.410156-31.6875-15.570313-48.660156 5.296876-13.152344 17.363282-22.117188 32.277344-23.976563 1.832032-.230468 3.675782-.347656 5.480469-.347656 12.84375 0 24.378906 5.710938 31.652344 15.671875 10.804687 14.78125 9.394531 37.65625-3.144531 50.996094-7.183594 7.648437-18.265626 12.214843-29.644532 12.214843zm1.515625-62.015624c-.320312 0-.648437.007812-.972656.03125-7.605469.484374-15.113281 5.949218-18.683594 13.597656-3.03125 6.507812-2.558593 13.246094 1.304688 18.488281 3.328125 4.53125 9.0625 7.238281 15.339843 7.238281 1.109376 0 2.222657-.085937 3.300782-.257812 6.066406-.941406 11.558594-4.394532 14.703125-9.234375 3.691406-5.691407 3.519531-14.046875-.429688-20.789063-3.371093-5.769531-8.679687-9.074218-14.5625-9.074218zm0 0" fill="#bfc7d8"/><path d="m145.640625 473.308594c-2.136719 0-4.273437-.160156-6.351563-.476563-10.640624-1.605469-19.804687-7.183593-24.507812-14.917969-6.019531-9.902343-5.105469-23.941406 2.265625-34.941406 8.527344-12.703125 24.410156-21.578125 38.621094-21.578125.171875 0 .355469.003907.53125.011719 7.605469.105469 18.230469 2.757812 25.792969 14.753906 7.703124 12.210938 6.535156 29.6875-2.78125 41.550782-7.554688 9.621093-20.417969 15.597656-33.570313 15.597656zm1.988281-54.007813c-2.914062 0-5.988281 1.023438-8.890625 2.957031-7.238281 4.824219-12.421875 14.789063-8.5625 23.117188.867188 1.878906 2.125 3.546875 3.742188 4.96875 1.628906 1.429688 3.519531 2.515625 5.621093 3.226562 2.003907.679688 4.011719 1.023438 5.96875 1.023438 5.503907 0 10.273438-2.667969 13.4375-7.511719 4.808594-7.359375 4.054688-16.984375-1.828124-23.40625-2.625-2.859375-5.90625-4.375-9.488282-4.375zm0 0" fill="#bfc7d8"/><path d="m111.933594 339.214844 1.539062-.324219c23.5625-4.988281 46.039063-14 66.816406-26.789063 26.710938-16.429687 49.539063-38.59375 66.019532-64.089843.074218-.125.152344-.304688.226562-.550781l.515625-1.683594 1.734375.296875c2.535156.433593 5.121094.652343 7.683594.652343 9.867188 0 19.257812-3.136718 26.4375-8.835937 8.5625-6.800781 14.195312-17.332031 15.453125-28.890625l.195313-1.792969 87.175781.4375.148437 1.828125c.535156 6.550782.972656 13.589844 1.375 22.148438l.097656 2.054687-57.226562 1.128907c-11.046875.210937-22.453125 1.074218-29.832031 8.894531-5.242188 5.546875-7.003907 13.414062-8.128907 21.085937-1.503906 10.339844-2.359374 20.832032-2.546874 31.1875-.132813 6.699219.320312 13.59375 4.5 18.648438 4.183593 5.066406 10.828124 6.761718 16.726562 7.953125 17.359375 3.503906 35.113281 5.28125 52.761719 5.28125 8.347656 0 16.875-.414063 25.351562-1.230469l2.105469-.203125 1.992188 50.375-2.964844-1.363281c-33.5-15.40625-68.390625-29.160156-99.175782-41.296875l-12.53125-4.949219c-5.460937-2.160156-11.605468-3.207031-18.78125-3.207031-9.964843 0-20.476562 2.074219-29.757812 3.90625l-2.058594.402343c-1.050781.203126-2.089844.40625-3.113281.601563-19.382813 3.667969-38.628906 9.449219-57.203125 17.191406-18.613281 7.765625-36.601562 17.527344-53.464844 29.015625l-3.238281 2.207032zm0 0" fill="#f9d889"/><path d="m287.03125 176.164062c-8.671875-8.859374-20.695312-14.570312-32.164062-15.273437-.511719-.03125-1.023438-.046875-1.53125-.046875-9.273438 0-19.652344 5.320312-27.757813 14.234375l-.601563.664063-97.378906-.914063.742188-2.53125c12.832031-44.03125 37.546875-78.449219 69.578125-96.914063 18.132812-10.460937 39.011719-15.988281 60.378906-15.988281 8.09375 0 16.136719.816407 23.90625 2.421875 27.3125 5.65625 52.890625 21.523438 70.167969 43.535156l2.464844 3.136719-66.839844 1.597657c-1.113282.027343-2.003906.964843-1.980469 2.085937.027344 1.09375.9375 1.984375 2.03125 1.984375l66.753906-1.601562c.242188-.003907.46875-.054688.71875-.164063l1.53125-.644531.914063 1.386718c2.371094 3.578126 4.601562 7.34375 6.632812 11.1875l1.554688 2.945313-99.238282-.3125c-1.117187 0-2.03125.910156-2.035156 2.03125s.90625 2.035156 2.027344 2.039063l96.769531.292968c.621094 0 1.0625-.277344 1.328125-.507812l2.019532-1.761719 1.113281 2.4375c1.699219 3.710937 3.273437 7.589844 4.824219 11.859375l1.003906 2.769531s-129.066406-3.890625-129.070313-3.890625c-1.175781 0-2.054687.863282-2.085937 1.964844-.019532.554688.179687 1.070312.550781 1.464844.371094.394531.871094.617187 1.414063.632812l128.316406 3.859375c.109375 0 .214844-.019531.320312-.039062l1.75-.316407.519532 1.699219c2.136718 6.960938 3.976562 14.386719 5.460937 22.066407l.457031 2.355468-93.972656.859375zm0 0" fill="#f9d889"/><path d="m114.910156 295.976562c.515625-27.652343 1.101563-58.996093 5.863282-89.242187l.328124-2.089844 2.066407.445313c.175781.039062.320312.054687.449219.054687l87.875-.789062.378906-.046875 2.085937-.21875.117188 2.09375c.265625 4.667968 1.285156 9.304687 3.027343 13.777344l.351563.902343-.492187.835938c-.0625.105469-.132813.207031-.210938.304687-22.371094 35.554688-58.535156 63.222656-99.246094 75.921875l-2.648437.824219zm0 0" fill="#f9d889"/><path d="m378.742188 457.628906c-5.335938 0-10.601563-3.878906-12.238282-9.027344-1.679687-5.289062.484375-11.796874 5.042969-15.136718 1.488281-1.09375 3.183594-1.648438 5.042969-1.648438 2.523437 0 4.800781 1.039063 6.269531 1.910156 5.226563 3.09375 8.554687 8.773438 7.910156 13.5-.71875 5.4375-5.84375 10.097657-11.417969 10.386719-.195312.011719-.402343.015625-.609374.015625zm0 0" fill="#939baa"/><path d="m338.679688 433.726562c-.109376-.050781-.226563-.089843-.347657-.121093l-42.324219-9.941407 1.023438-2.222656c3.292969-7.164062 4.667969-15.207031 3.976562-23.253906l-.222656-2.582031 2.554688.4375c17.667968 3.046875 35.164062 7.515625 52.007812 13.292969l3.84375 1.316406-3.386718 2.242187c-4.589844 3.039063-8.34375 6.875-10.855469 11.09375-1.503907 2.53125-2.683594 5.371094-3.507813 8.4375l-.613281 2.277344zm0 0" fill="#939baa"/><path d="m255.308594 470.238281c-24.945313 0-50.160156-.980469-74.9375-2.910156l-4.328125-.335937 3.070312-3.070313c1.214844-1.214844 2.320313-2.457031 3.289063-3.695313 1.972656-2.515624 3.65625-5.320312 5.007812-8.347656l.335938-.746094 40.453125-15.828124.914062.785156c1.453125 1.253906 3.003907 2.410156 4.613281 3.441406 6.773438 4.328125 14.839844 6.613281 23.332032 6.613281 12.5625 0 24.417968-4.945312 32.523437-13.570312 1.1875-1.257813 2.332031-2.664063 3.40625-4.167969l.777344-1.09375 43.667969 10.257812c.164062.035157.324218.054688.460937.054688l.234375-.023438 2.28125-.179687-.125 2.285156c-.457031 8.269531 1.851563 16.507813 6.503906 23.195313l1.957032 2.816406-3.414063.320312c-29.71875 2.785157-60.007812 4.199219-90.023437 4.199219zm0 0" fill="#939baa"/><path d="m255.503906 415.277344c-4.9375 0-9.574218-2.136719-12.097656-5.578125-4.046875-5.496094-2.292969-11.355469-.890625-14.359375 2.917969-6.246094 9.195313-10.875 15.265625-11.261719.253906-.015625.503906-.023437.75-.023437 6.195312 0 9.773438 4.941406 11.019531 7.066406 3.140625 5.363281 3.355469 12.164062.515625 16.535156-2.511718 3.878906-6.960937 6.652344-11.902344 7.417969-.875.132812-1.769531.203125-2.660156.203125zm0 0" fill="#939baa"/><path d="m190.34375 442.464844c1.820312-9.683594.234375-19.714844-4.351562-27.527344l-1.207032-2.054688 28.746094-10.691406.191406 2.660156c.652344 9.136719 4.085938 18.089844 9.660156 25.210938l1.65625 2.117188-35.363281 13.835937zm0 0" fill="#939baa"/><path d="m145.503906 450.535156c-1.492187 0-3.0625-.273437-4.65625-.816406-3.105468-1.050781-5.71875-3.316406-6.984375-6.054688-2.902343-6.269531 1.441407-14.238281 7.128907-18.023437 1.53125-1.023437 3.921874-2.246094 6.597656-2.246094 2.453125 0 4.714844 1.046875 6.53125 3.027344 5.402344 5.886719 4.527344 13.683594 1.425781 18.4375-1.117187 1.707031-4.324219 5.675781-10.042969 5.675781zm0 0" fill="#939baa"/><path d="m381.976562 387.640625c-30.957031-12.839844-62.777343-23.945313-93.550781-34.683594l-11.117187-3.882812c-13.773438-4.816407-29.878906-2.011719-44.089844.464843-1.554688.269532-3.082031.535157-4.578125.789063-17.359375 2.90625-34.5625 7.484375-51.128906 13.597656-18.730469 6.914063-36.707031 15.804688-53.433594 26.429688-11.214844 7.121093-23.816406 16.183593-32.277344 29.378906-9.132812 14.253906-11.179687 31.3125-5.339843 44.523437 4.777343 10.800782 15.109374 19.679688 28.34375 24.359376 11.144531 3.941406 22.652343 4.761718 35.457031 5.363281 28.390625 1.332031 56.949219 1.84375 85.484375 1.84375 48.167968 0 96.265625-1.457031 143.355468-2.886719 10.496094-.316406 21.355469-.648438 31.886719-3.800781 12.214844-3.660157 21.8125-10.789063 27.03125-20.078125 9.890625-17.613282 2.539063-40.363282-9.835937-53.734375-12.796875-13.828125-30.546875-21.1875-46.207032-27.683594zm49.011719 77.46875c-4.1875 7.457031-12.113281 13.246094-22.3125 16.300781-9.523437 2.851563-19.839843 3.164063-29.820312 3.46875-74.828125 2.269532-152.207031 4.617188-228.214844 1.046875-12.15625-.570312-23.039063-1.335937-33.144531-4.910156-11.15625-3.941406-19.777344-11.238281-23.660156-20.019531-4.757813-10.765625-2.9375-24.90625 4.753906-36.90625 7.613281-11.878906 19.339844-20.277344 29.8125-26.929688 16.242187-10.316406 33.707031-18.953125 51.898437-25.667968 16.097657-5.941407 32.8125-10.386719 49.671875-13.210938 1.515625-.253906 3.058594-.523438 4.628906-.796875 13.242188-2.308594 28.253907-4.921875 40.042969-.796875l11.125 3.882812c30.664063 10.703126 62.371094 21.769532 93.117188 34.519532 14.898437 6.175781 31.78125 13.179687 43.378906 25.710937 10.394531 11.230469 16.730469 30.054688 8.722656 44.308594zm0 0" fill="#231f20"/><path d="m448.925781 411.523438c-13.773437-16.816407-32.746093-26.105469-49.835937-34.132813.019531-.1875.042968-.371094.035156-.5625l-5.171875-130.472656c-1.78125-44.859375-3.992187-100.6875-34.898437-142.246094-17.746094-23.863281-44.398438-41.167969-73.40625-47.742187.007812-.195313.019531-.390626-.003907-.589844-.652343-5.953125-4.046875-11.578125-9.308593-15.441406-4.382813-3.21875-10.003907-5.1875-16.253907-5.691407-.273437-.023437-.542969-.03125-.816406-.046875l-.246094-30.601562c-.019531-2.214844-1.820312-3.996094-4.03125-3.996094-.011719 0-.023437 0-.03125 0-2.230469.0195312-4.019531 1.839844-4 4.0625l.25 30.898438c-13.253906 1.972656-25.351562 10.558593-31.160156 22.800781-.234375.492187-.359375 1.007812-.382813 1.523437-8.628906 2.714844-16.960937 6.335938-24.777343 10.84375-10.769531 6.210938-20.730469 14.125-29.730469 23.511719l-25.996094-9.59375c-1.722656-.636719-3.65625-.027344-4.707031 1.480469-.089844.132812-.183594.269531-.273437.40625-13.257813-2.136719-27.613282 5.074218-33.703126 17.0625-6.230468 12.269531-3.320312 28.578125 6.773438 37.933594.171875.160156.355469.292968.546875.417968-.316406 1.089844-.628906 2.179688-.925781 3.273438-.5625 2.0625.582031 4.203125 2.605468 4.882812l18 6.03125c-2.007812 5.425782-3.832031 11.015625-5.460937 16.761719-11.621094 41.035156-12.429687 84-13.207031 125.550781-.003906.160156.023437.3125.035156.46875-4.894531 1.273438-9.847656 2.339844-14.84375 3.171875-.242188-.632812-.496094-1.261719-.761719-1.882812-4.167969-9.554688-10.953125-16.222657-20.179687-19.820313-20.710938-8.078125-47.578125 1.933594-58.167969 6.613282-3.945313 1.742187-8.003906 3.855468-10.957031 7.484374-3.742188 4.601563-4.507813 10.734376-1.902344 15.253907 2.992188 5.203125 9.378906 7.417969 17.976562 6.246093 4.148438-.566406 8.199219-1.523437 12.117188-2.445312 3.773438-.890625 7.339844-1.734375 10.980469-2.253906 5.757812-.824219 13.878906-.957032 19.871093 3.105468 4.636719 3.144532 7.851563 10.160157 5.046876 15.207032-2.910157 5.242187-10.511719 6.332031-13.644532 6.554687-2.335937.167969-4.695312.148438-7.195312.125-4.25-.039062-8.640625-.082031-13.066406.851563-7.722657 1.628906-15.902344 7.226562-16.773438 16.050781-.75 7.617187 4.550781 14.140625 10.132812 17.222656 5.691407 3.144531 12.09375 3.761719 17.644532 4.09375 2.210937.132813 4.546875.226563 6.953125.226563 9.195312 0 19.4375-1.382813 27.738281-7.34375 6.886719-4.941406 11.84375-12.695313 14.6875-22.789063 3.761719-.421875 7.523438-.949219 11.273438-1.585937l-1.132813 38.753906c0 .027344.003906.054688.003906.078125-12.070312 8.8125-25.261719 19.949219-34.222656 35.753906-10.066406 17.746094-12.339844 38.933594-5.933594 55.300781 5.28125 13.503907 16.785157 24.632813 31.554688 30.535157 12.546875 5.015625 25.507812 6.054687 39.933593 6.824219 31.992188 1.695312 64.167969 2.347656 96.320313 2.347656 54.277344 0 108.476563-1.859375 161.539063-3.675782 11.828124-.40625 24.058593-.824218 35.917968-4.839843 13.644532-4.621094 24.339844-13.566407 30.117188-25.1875 10.847656-21.820313 2.703125-50.105469-10.945313-66.769531zm-78.292969-89.828126-.859374-20.460937c-.09375-2.226563-1.992188-3.960937-4.199219-3.859375-2.222657.09375-3.949219 1.972656-3.855469 4.195312l.847656 20.210938c-16.941406-.070312-33.847656-1.78125-50.523437-5.148438-4.875-.984374-10.324219-2.332031-13.25-5.875-1.125-1.359374-1.855469-3.003906-2.324219-4.796874l36.886719 2.351562c.089843.003906.175781.007812.261719.007812 2.109374 0 3.882812-1.640624 4.019531-3.777343.144531-2.222657-1.542969-4.136719-3.765625-4.277344l-37.113282-2.367187c-.378906-.027344-.746093.019531-1.101562.09375 0-.640626.007812-1.277344.019531-1.90625.1875-10.144532 1.027344-20.382813 2.492188-30.425782.90625-6.226562 2.234375-13.25 6.53125-17.800781 1.261719-1.335937 2.742187-2.402344 4.367187-3.273437l-3.285156 22.910156c-.316406 2.207031 1.214844 4.25 3.417969 4.566406.195312.027344.386719.039062.578125.039062 1.972656 0 3.699218-1.449218 3.984375-3.460937l3.773437-26.304687c.023438-.167969.015625-.332032.019532-.5 4.023437-.703126 8.382812-.890626 12.695312-.972657l8.433594-.167969-.804688 18.925782c-5.238281.832031-9.902344 4.269531-12.585937 9.5625-3.535157 6.96875-2.53125 14.796875 2.558593 19.941406 3.195313 3.230469 7.679688 4.925781 12.160157 4.925781 3.023437 0 6.046875-.769531 8.675781-2.363281 6.023438-3.644531 9.0625-11.121094 7.5625-18.601562-1.230469-6.125-5.082031-10.738282-10.355469-12.675782.007813-.0625.023438-.117187.027344-.179687l.835937-19.691407 14.554688-.285156-1.042969 31.414063c-.074219 2.226562 1.667969 4.089843 3.894531 4.164062h.136719c2.164063 0 3.953125-1.71875 4.027344-3.898437l1.046875-31.457032c.003906-.128906-.019531-.253906-.027344-.382812l16.269532-.320312c.097656 2.324218.1875 4.628906.277343 6.898437l2.929688 73.886719c-6.058594.589844-12.125.972656-18.191407 1.136718zm-38.148437-48.863281c1.363281-2.6875 4.089844-5.355469 7.835937-5.355469.394532 0 .796876.03125 1.214844.089844 5.148438.769532 6.515625 5.636719 6.808594 7.109375.695312 3.460938-.21875 7.929688-3.832031 10.117188-3.3125 2.003906-8.214844 1.40625-10.925781-1.335938-3.167969-3.203125-2.574219-7.722656-1.101563-10.625zm-31.972656-71.675781c-.316407-4.582031-1.34375-9.105469-3.144531-13.355469-.730469-1.71875-1.613282-3.398437-2.613282-5.03125l85.855469-.785156c1.058594 6.53125 1.882813 13.082031 2.539063 19.585937zm-176.359375 128.890625c-.847656-8.949219-3.625-17.589844-8.117188-25.351563 7.523438-2.195312 14.902344-4.871093 22.085938-8.003906 6.652344 6.355469 11.265625 14.753906 13.035156 23.785156-8.808594 3.832032-17.84375 7.03125-27.003906 9.570313zm34.503906-13.019531c-2.09375-8.910156-6.535156-17.21875-12.75-23.925782 9.039062-4.4375 17.722656-9.605468 25.953125-15.414062 7.726563 4.960938 13.75 12.355469 17.023437 20.945312.046876.125.113282.242188.171876.359376-3.882813 2.777343-7.855469 5.4375-11.9375 7.945312-5.988282 3.6875-12.160157 7.042969-18.460938 10.089844zm37.066406-22.980469c-3.617187-8.53125-9.535156-15.980469-17-21.433594 6.824219-5.292969 13.285156-11.054687 19.320313-17.226562 8.007812 4.464843 15.035156 10.65625 20.476562 18.03125-7.035156 7.386719-14.65625 14.300781-22.796875 20.628906zm28.339844-26.675781c-5.578125-7.21875-12.519531-13.375-20.359375-18.039063 5.726563-6.410156 11.007813-13.214843 15.769531-20.378906 2.984375 4.621094 6.800782 8.707031 11.351563 11.925781 2.96875 2.097656 6.203125 3.765625 9.601562 5.019532-4.917969 7.480468-10.386719 14.660156-16.363281 21.472656zm-12.59375-69.082032c-.011719 0-.023438 0-.035156 0l-87.332032.792969c1.121094-6.105469 2.429688-12.171875 3.957032-18.1875l90.027344.851563c-1.679688 2.773437-3.027344 5.617187-3.949219 8.433594-.882813 2.683593-1.472657 5.433593-1.808594 8.207031-.277344-.058594-.5625-.097657-.859375-.097657zm24.011719 36.007813c-12.648438-8.945313-18.53125-26.828125-13.683594-41.601563 4.957031-15.109374 20.5-25.785156 31.667969-25.785156.34375 0 .6875.007813 1.027344.03125 10.449218.640625 21.425781 6.261719 28.757812 14.03125.242188.378906.542969.703125.890625.980469 2.464844 2.789063 4.460937 5.828125 5.804687 8.996094 6.078126 14.335937 1.433594 32.472656-10.804687 42.191406-12.164063 9.65625-30.933594 10.152344-43.660156 1.15625zm23.953125-191.613281c4.757812.382812 8.957031 1.820312 12.132812 4.152344 2.8125 2.0625 4.828125 4.933593 5.675782 7.9375-15.574219-2.386719-31.636719-1.765626-47.054688 1.683593 6.582031-9.058593 18.09375-14.683593 29.246094-13.773437zm-60.519532 34.429687c24.726563-14.261719 54.9375-19.121093 82.890626-13.335937 26.988281 5.585937 51.96875 21.125 68.992187 42.808594l-62.84375 1.503906c-2.226563.054687-3.984375 1.902344-3.933594 4.128906.054688 2.191406 1.847657 3.933594 4.03125 3.933594h.097657l66.703124-1.597656c.515626-.011719.996094-.128907 1.445313-.316407 2.371094 3.574219 4.546875 7.246094 6.535156 11.015625l-95.910156-.292968c-.003906 0-.007813 0-.011719 0-2.222656 0-4.027344 1.796874-4.035156 4.015624-.003906 2.226563 1.792969 4.039063 4.019531 4.046876l96.777344.292968h.011719c1.011718 0 1.921875-.382812 2.628906-.996094 1.753906 3.828126 3.328125 7.734376 4.765625 11.699219l-126.121094-3.789062c-2.242187-.089844-4.082031 1.683593-4.152343 3.90625-.066407 2.226562 1.683593 4.085937 3.910156 4.152343l128.25 3.855469h.121094c.234374 0 .460937-.027343.683593-.066406 2.203125 7.164063 3.976563 14.476563 5.40625 21.855469l-90.71875.828125c-8.699219-8.890625-21.226562-15.117188-33.472656-15.871094-11.292969-.691406-22.753906 5.90625-30.890625 14.847656l-93.839844-.886719c12.691406-43.53125 37.027344-77.492187 68.660156-95.738281zm-91.246093 29.535157c3.984375-7.847657 12.703125-12.945313 21.464843-13.027344-7.660156 12.285156-13.882812 25.347656-18.578124 39.023437-5.738282-7.15625-7.058594-17.78125-2.886719-25.996093zm8.015625 36.433593c5.277344-17.933593 13.214844-34.851562 23.632812-50.382812l20.011719 7.386719c-11.574219 13.546874-21.332031 29.695312-28.898437 47.933593zm7.0625 63.964844c.28125.0625.574218.101563.875.101563h.039062l87.84375-.796876c.199219 0 .386719-.03125.578125-.0625.28125 4.929688 1.359375 9.804688 3.160157 14.394532-.035157.050781-.078126.089844-.113282.140625-22.414062 35.683593-58.054687 62.660156-98.226562 75.195312.558594-29.4375 1.21875-59.558593 5.84375-88.972656zm-47.632813 153.183594c-8.414062 6.039062-20.191406 6.175781-29.507812 5.617187-4.671875-.28125-10.011719-.773437-14.226563-3.101562-3.167968-1.75-6.398437-5.429688-6.007812-9.375.445312-4.527344 5.574218-7.929688 10.410156-8.949219 2.808594-.59375 5.738281-.695313 8.800781-.695313.832031 0 1.675781.007813 2.527344.011719 2.554687.023438 5.1875.050781 7.847656-.140625 9.386719-.671875 16.71875-4.566406 20.117188-10.683594 4.011719-7.21875 2.257812-19.136718-7.570313-25.796874-6.523437-4.421876-15.113281-5.90625-25.539062-4.414063-3.996094.570313-7.910156 1.496094-11.691406 2.386719-3.902344.921875-7.589844 1.792968-11.355469 2.308594-1.867188.253906-8.101563.84375-9.898438-2.28125-.902343-1.570313-.398437-4.210938 1.171875-6.144532 1.875-2.304687 4.933594-3.859375 7.957032-5.195312 9.667968-4.273438 34.085937-13.457032 51.980468-6.476563 7.253906 2.828125 12.394532 7.90625 15.714844 15.527344 2.871094 6.585937 3.882812 14.507813 3.195312 24.9375-.710937 10.757813-3.707031 25.125-13.925781 32.464844zm21.089844-50.941407c3.9375-.675781 7.847656-1.480468 11.726563-2.417968 4.804687 7.578125 7.65625 16.234375 8.292968 25.199218-6.613281 1.546876-13.273437 2.742188-19.945312 3.582032.359375-2.359375.636718-4.804688.804687-7.355469.480469-7.234375.199219-13.460937-.878906-19.007813zm85.140625 4.519532c26.945312-16.578125 49.988281-38.957032 66.640625-64.714844.214844-.332031.355469-.691406.464844-1.050781 2.640625.453125 5.328125.6875 8.015625.6875 9.960937 0 19.925781-3.113281 27.6875-9.277344 9.230468-7.328125 14.921875-18.574219 16.195312-30.234375l83.535156.421875c.613282 7.488281 1.039063 14.878906 1.378907 22.078125l-55.171875 1.085938c-11.476563.222656-23.34375 1.144531-31.253906 9.523437-5.628907 5.960937-7.484376 14.179687-8.648438 22.171875-1.511719 10.378906-2.378906 20.953125-2.574219 31.4375-.132812 7.085938.378907 14.40625 4.960938 19.957031 4.605469 5.574219 11.640625 7.386719 17.871093 8.644531 17.542969 3.539063 35.335938 5.316407 53.160157 5.316407 8.511719 0 17.035156-.421875 25.539062-1.234375l1.785157 45c-32.941407-15.15625-66.628907-28.46875-99.277344-41.34375-4.171875-1.648438-8.351563-3.296875-12.535156-4.949219-15.503907-6.132813-33.652344-2.558594-49.664063.597656-1.75.34375-3.472656.683594-5.160156 1.003907-19.550781 3.703124-38.925781 9.527343-57.59375 17.308593-18.746094 7.820313-36.816407 17.628907-53.824219 29.207031l1.011719-34.59375c23.523437-4.988281 46.523437-14.167968 67.457031-27.042968zm271.308594 160.898437c-4.820313 9.699219-13.871094 17.207031-25.480469 21.136719-10.738281 3.636719-22.367187 4.035156-33.613281 4.417969-84.320313 2.890625-171.511719 5.882812-257.152344 1.335937-13.699219-.730468-25.964844-1.703125-37.367188-6.257812-12.710937-5.078125-22.570312-14.550782-27.042968-25.984375-5.539063-14.160157-3.457032-32.703125 5.4375-48.386719 8.671875-15.285156 21.964844-26.050781 33.828125-34.566406 18.324219-13.15625 38.023437-24.167969 58.546875-32.722656 18.148437-7.570313 36.984375-13.234376 55.988281-16.832032 1.703125-.324218 3.445313-.667968 5.214844-1.015625 14.925781-2.9375 31.835937-6.269531 45.140625-1.007812 4.1875 1.652343 8.367187 3.304687 12.546875 4.949219 34.550781 13.628906 70.28125 27.71875 104.925781 43.957031 16.828125 7.886719 35.898438 16.828125 49.066406 32.902343 12.007813 14.660157 19.285156 39.316407 9.960938 58.074219zm0 0" fill="#231f20"/><path d="m394.0625 407.292969c-8.433594-4.566407-19.507812-4.503907-29.5-.96875-.285156-.203125-.59375-.382813-.9375-.511719-20.101562-7.328125-40.996094-12.785156-62.113281-16.238281-1.398438-5.125-3.675781-10.007813-6.851563-14.355469-9.683594-13.253906-25.679687-19.890625-42.78125-17.765625-17.125 2.136719-31.011718 12.5-37.148437 27.726563-1.460938 3.621093-2.386719 7.402343-2.824219 11.234374-.261719.039063-.523438.105469-.78125.203126l-28.367188 10.554687c-6.859374-7.535156-16.058593-11.6875-26.515624-11.832031-.195313-.003906-.390626-.003906-.582032-.003906-16.394531 0-33.871094 9.691406-43.644531 24.257812-8.671875 12.925781-9.640625 29.589844-2.414063 41.46875 5.632813 9.25 16.390626 15.890625 28.78125 17.769531 2.472657.375 4.953126.558594 7.421876.558594 9.15625 0 18.136718-2.519531 25.761718-7.085937.5.292968 1.066406.492187 1.683594.546874 27.21875 2.308594 54.605469 3.464844 82.003906 3.464844 31.039063 0 62.089844-1.484375 92.894532-4.449218 1.082031-.101563 2.015624-.628907 2.671874-1.390626 7.683594 6.933594 18.226563 10.925782 28.835938 10.925782 2.507812 0 5.019531-.222656 7.496094-.679688 11.660156-2.160156 22.058594-9.234375 27.8125-18.933594 4.960937-8.355468 6.300781-17.398437 3.882812-26.152343-3.085937-11.160157-12.121094-21.492188-24.785156-28.34375zm-39.363281 3.933593c-4.683594 3.09375-8.695313 7.0625-11.46875 11.734376-1.664063 2.800781-2.882813 5.820312-3.71875 8.945312-.21875-.097656-.449219-.183594-.695313-.242188l-39.972656-9.390624c3.460938-7.53125 4.867188-15.992188 4.15625-24.257813 17.523438 3.019531 34.871094 7.445313 51.699219 13.210937zm-132.492188-23.035156c5.027344-12.46875 16.492188-20.96875 30.667969-22.734375 1.761719-.222656 3.507812-.328125 5.234375-.328125 12.121094 0 23.097656 5.34375 30.039063 14.847656 10.261718 14.042969 8.917968 35.773438-2.988282 48.445313-11.90625 12.675781-33.515625 15.367187-48.164062 6.003906-14.65625-9.363281-21.289063-30.105469-14.789063-46.234375zm-10.480469 16.804688c.679688 9.5 4.214844 18.804687 10.085938 26.300781l-29.507812 11.539063c1.875-9.9375.402343-20.40625-4.582032-28.910157zm-72.136718 65.863281c-10.058594-1.523437-18.695313-6.753906-23.097656-13.988281-5.628907-9.242188-4.734376-22.417969 2.21875-32.78125 8.210937-12.238282 23.347656-20.691406 36.957031-20.691406.152343 0 .304687 0 .457031.003906 7.113281.097656 17.078125 2.578125 24.175781 13.824218 7.269531 11.515626 6.148438 28.027344-2.664062 39.253907-8.453125 10.765625-23.738281 16.546875-38.046875 14.378906zm40.941406-5.519531c1.222656-1.226563 2.378906-2.519532 3.445312-3.882813 2.121094-2.699219 3.871094-5.652343 5.257813-8.761719l38.574219-15.085937c1.519531 1.308594 3.136718 2.519531 4.84375 3.609375 7.304687 4.667969 15.847656 6.925781 24.40625 6.925781 12.605468 0 25.238281-4.898437 33.976562-14.199219 1.300782-1.382812 2.492188-2.851562 3.585938-4.378906l42.351562 9.949219c.3125.074219.621094.109375.925782.109375.132812 0 .257812-.019531.386718-.035156-.464844 8.523437 1.867188 17.261718 6.863282 24.453125-54.601563 5.125-109.933594 5.554687-164.617188 1.296875zm227.5-7.664063c-4.589844 7.722657-12.941406 13.375-22.347656 15.113281-12.207032 2.261719-25.386719-2.496093-32.808594-11.835937-7.574219-9.523437-8.714844-23.769531-2.714844-33.871094 5.945313-10.003906 18.183594-15.253906 28.726563-15.253906 4.222656 0 8.171875.84375 11.339843 2.554687 10.585938 5.730469 18.378907 14.476563 20.847657 23.398438 1.84375 6.683594.820312 13.375-3.042969 19.894531zm0 0" fill="#231f20"/><path d="m137.628906 420.59375c-7.9375 5.289062-13.574218 16.316406-9.269531 25.617188 1.984375 4.277343 5.824219 7.652343 10.535156 9.253906 2.242188.757812 4.46875 1.128906 6.617188 1.128906 6.066406 0 11.539062-2.953125 15.109375-8.421875 5.304687-8.132813 4.46875-18.761719-2.03125-25.851563-5.511719-6.007812-13.542969-6.671874-20.960938-1.726562zm16.238282 23.171875c-1.328126 2.035156-5.191407 6.503906-12.378907 4.0625-2.59375-.878906-4.769531-2.753906-5.8125-5.003906-2.378906-5.140625 1.402344-12.175781 6.421875-15.523438 2.347656-1.5625 6.835938-3.578125 10.546875.46875 4.679688 5.105469 3.914063 11.871094 1.222657 15.996094zm0 0" fill="#231f20"/><path d="m385.949219 428.503906c-6.199219-3.675781-12.929688-3.648437-17.996094.074219-6.660156 4.894531-9.699219 14.089844-7.226563 21.863281 2.453126 7.691406 10.109376 13.25 18.058594 13.25.296875 0 .59375-.007812.890625-.023437 8.480469-.445313 15.996094-7.316407 17.109375-15.640625.957032-7.144532-3.496094-15.171875-10.835937-19.523438zm2.84375 18.457032c-.605469 4.527343-4.886719 8.410156-9.542969 8.65625-4.636719.253906-9.398438-3.101563-10.839844-7.625-1.433594-4.5.421875-10.050782 4.316406-12.914063 3.300782-2.425781 7.125-.8125 9.109376.363281 4.492187 2.660156 7.480468 7.613282 6.957031 11.519532zm0 0" fill="#231f20"/><path d="m255.476562 421.34375c1.195313 0 2.402344-.09375 3.609376-.28125 6.617187-1.023438 12.625-4.804688 16.070312-10.113281 4.09375-6.3125 3.945312-15.511719-.375-22.890625-3.9375-6.726563-10.429688-10.472656-17.390625-10.03125-8.316406.527344-16.503906 6.457031-20.371094 14.75-3.351562 7.1875-2.804687 14.667968 1.503907 20.519531 3.738281 5.082031 10.140624 8.046875 16.953124 8.046875zm-11.148437-25.15625c2.617187-5.613281 8.199219-9.773438 13.578125-10.113281 5.519531-.355469 8.78125 4.117187 9.917969 6.058593 2.773437 4.734376 3.003906 10.671876.566406 14.429688-2.214844 3.414062-6.152344 5.855469-10.539063 6.535156-5.085937.785156-10.238281-1.054687-12.835937-4.578125-3.429687-4.664062-1.902344-9.730469-.6875-12.332031zm0 0" fill="#231f20"/><path d="m274.457031 197.902344c-3.449219-9.019532-12.21875-14.59375-21.828125-13.871094-9.0625.683594-15.917968 6.734375-17.894531 15.796875-1.84375 8.441406 1.894531 17.613281 9.082031 22.304687 3.363282 2.191407 7.355469 3.273438 11.347656 3.273438 4.578126 0 9.152344-1.425781 12.757813-4.242188 6.882813-5.367187 9.632813-15.152343 6.535156-23.261718zm-11.496093 16.90625c-4.050782 3.164062-10.386719 3.40625-14.738282.570312-4.375-2.855468-6.734375-8.671875-5.609375-13.832031 1.203125-5.523437 5.175781-9.066406 10.621094-9.476563.320313-.023437.644531-.035156.972656-.035156 4.8125 0 10.378907 2.625 12.71875 8.746094 1.835938 4.804688.128907 10.832031-3.964843 14.027344zm0 0" fill="#231f20"/></svg>