<svg id="color_line" height="512" viewBox="0 0 74 74" width="512" xmlns="http://www.w3.org/2000/svg" data-name="color line"><path d="m11.924 31.716h41.448v19.274h-41.448z" fill="#eeefee" transform="matrix(.707 -.707 .707 .707 -19.678 35.197)"/><path d="m46.151 11.027h7.856v25.788h-7.856z" fill="#9297ab" transform="matrix(-.707 .707 -.707 -.707 102.405 5.424)"/><path d="m60.987 3.32h5.445v13.942h-5.445z" fill="#9297ab" transform="matrix(-.707 .707 -.707 -.707 116.035 -27.482)"/><path d="m59.532 9.968-8.937 8.912 4.533 4.532 8.937-8.912z" fill="#e1e6e9"/><path d="m55.128 23.913a.5.5 0 0 1 -.354-.146l-4.533-4.533a.5.5 0 0 1 0-.708l8.939-8.912a.5.5 0 0 1 .707 0l4.533 4.533a.5.5 0 0 1 0 .708l-8.937 8.912a.5.5 0 0 1 -.355.146zm-3.828-5.033 3.826 3.826 8.232-8.206-3.826-3.826z" fill="#323c6b"/><path d="m12.483 52.607h6.456v11.364h-6.456z" fill="#bbbbcd" transform="matrix(.707 -.707 .707 .707 -36.615 28.182)"/><path d="m51.75 31.14h-.01l-29.24 29.24-2.8-2.79-.027-.027h-.12l2.457 2.457 2.8 2.8 29.31-29.3v-.01z" fill="#e1e6e9"/><path d="m59.6 27.89-5.49 5.49-2.31-2.3-.142-.142h-.121l.203.202 2.38 2.38 2.3 2.3 5.55-5.56z" fill="#84879c"/><path d="m70.56 13.29-3.85 3.86-9.86-9.86.07-.06 7.48 7.48 3.79-3.79z" fill="#84879c"/><path d="m19.64 57.65-4.453 4.443v.234l2.263 2.263 4.56-4.57z" fill="#9297ab"/><g fill="#323c6b"><path d="m3.436 71.064a.5.5 0 0 1 -.354-.854l9.993-9.993a.5.5 0 0 1 .707.707l-9.992 9.993a.5.5 0 0 1 -.354.147z"/><path d="m20.056 48.156a.5.5 0 0 1 -.354-.146l-3.671-3.67a.5.5 0 0 1 .707-.707l3.672 3.667a.5.5 0 0 1 -.354.854z"/><path d="m23.454 42.106a.5.5 0 0 1 -.354-.146l-2.344-2.344a.5.5 0 0 1 .707-.707l2.344 2.344a.5.5 0 0 1 -.354.854z"/><path d="m29.5 38.708a.5.5 0 0 1 -.354-.146l-3.671-3.67a.5.5 0 0 1 .707-.707l3.671 3.67a.5.5 0 0 1 -.354.854z"/><path d="m32.9 32.658a.5.5 0 0 1 -.354-.146l-2.346-2.345a.5.5 0 0 1 .707-.707l2.348 2.34a.5.5 0 0 1 -.354.854z"/><path d="m38.952 29.261a.5.5 0 0 1 -.354-.146l-3.67-3.67a.5.5 0 0 1 .707-.707l3.67 3.67a.5.5 0 0 1 -.354.854z"/><path d="m24.808 63.321a.5.5 0 0 1 -.354-.146l-13.628-13.63a.5.5 0 0 1 0-.707l29.308-29.307a.5.5 0 0 1 .707 0l13.628 13.628a.5.5 0 0 1 0 .707l-29.307 29.308a.5.5 0 0 1 -.354.147zm-12.922-14.129 12.922 12.922 28.6-28.6-12.921-12.923z"/><path d="m56.419 36.316a.5.5 0 0 1 -.354-.146l-18.234-18.235a.5.5 0 0 1 0-.707l5.555-5.555a.5.5 0 0 1 .707 0l18.235 18.234a.5.5 0 0 1 0 .707l-5.555 5.555a.5.5 0 0 1 -.354.147zm-17.528-18.735 17.528 17.528 4.848-4.848-17.528-17.528z"/><path d="m66.713 17.645a.5.5 0 0 1 -.354-.146l-9.859-9.859a.5.5 0 0 1 0-.707l3.85-3.851a.515.515 0 0 1 .707 0l9.859 9.859a.5.5 0 0 1 0 .707l-3.849 3.852a.5.5 0 0 1 -.354.145zm-9.151-10.358 9.151 9.151 3.144-3.143-9.152-9.152z"/><path d="m17.446 65.089a.5.5 0 0 1 -.354-.146l-8.034-8.036a.5.5 0 0 1 0-.707l4.565-4.565a.5.5 0 0 1 .707 0l8.035 8.035a.5.5 0 0 1 0 .707l-4.565 4.565a.5.5 0 0 1 -.354.147zm-7.328-8.535 7.328 7.328 3.854-3.858-7.324-7.324z"/></g><path d="m52.161 26.015a.724.724 0 0 1 1.039.006l.226.235a.735.735 0 1 1 -1.036 1.044l-.235-.243a.724.724 0 0 1 .006-1.042z" fill="#fff"/><path d="m44.866 18.635a.724.724 0 0 1 1.038.045l5.445 5.52a.726.726 0 0 1 -.028 1.022l-.017.016a.731.731 0 0 1 -1.038-.045l-5.446-5.519a.724.724 0 0 1 .046-1.039z" fill="#fff"/></svg>