<svg id="color_line" height="512" viewBox="0 0 74 74" width="512" xmlns="http://www.w3.org/2000/svg" data-name="color line"><path d="m47.712 36.825a.75.75 0 0 1 -.108-1.492l12.8-1.882a.75.75 0 0 1 .218 1.484l-12.8 1.882a.761.761 0 0 1 -.11.008z" fill="#323c6b"/><path d="m59.79 56.43a.748.748 0 0 1 -.446-.147l-15.16-11.222a.75.75 0 1 1 .893-1.206l15.16 11.223a.75.75 0 0 1 -.447 1.353z" fill="#323c6b"/><path d="m27.137 63.451a.75.75 0 0 1 -.689-1.043l6.72-15.8a.75.75 0 1 1 1.38.587l-6.72 15.8a.749.749 0 0 1 -.691.456z" fill="#323c6b"/><path d="m14.183 43.187a.75.75 0 0 1 -.183-1.478l12.862-3.222a.75.75 0 1 1 .364 1.455l-12.861 3.223a.76.76 0 0 1 -.182.022z" fill="#323c6b"/><path d="m29.273 31.017a.744.744 0 0 1 -.438-.142l-9.052-6.535a.75.75 0 0 1 .878-1.216l9.052 6.535a.75.75 0 0 1 -.439 1.358z" fill="#323c6b"/><path d="m38.823 27.4a.751.751 0 0 1 -.726-.939l3.556-13.648a.75.75 0 0 1 1.451.378l-3.556 13.651a.75.75 0 0 1 -.725.558z" fill="#323c6b"/><circle cx="14.781" cy="19.865" fill="#05afd6" r="6.679"/><circle cx="43.738" cy="8.093" fill="#27ccbc" r="5.093"/><circle cx="64.372" cy="33.528" fill="#fcd462" r="3.917"/><circle cx="64.223" cy="58.928" fill="#eeefee" r="5.486" transform="matrix(.995 -.104 .104 .995 -5.806 7.034)"/><circle cx="26.078" cy="66.781" fill="#05afd6" r="4.219"/><circle cx="9.384" cy="44.099" fill="#9297ab" r="5.093"/><circle cx="37.342" cy="37.018" fill="#fe7058" r="12.316"/><path d="m21.46 19.86a6.652 6.652 0 0 1 -3.56 5.9 6.672 6.672 0 0 0 -8.2-10.23 6.681 6.681 0 0 1 11.76 4.33z" fill="#27a2db"/><path d="m48.83 8.09a5.1 5.1 0 0 1 -3 4.65 5.088 5.088 0 0 0 -4.05-8.17 4.925 4.925 0 0 0 -2.1.46 5.085 5.085 0 0 1 9.15 3.06z" fill="#21b3a9"/><path d="m68.29 33.53a3.907 3.907 0 0 1 -2.57 3.67 3.92 3.92 0 0 0 -3.31-6.02 3.746 3.746 0 0 0 -1.34.24 3.918 3.918 0 0 1 7.22 2.11z" fill="#f7be56"/><path d="m66.57 63.88a5.4 5.4 0 0 0 1.15-3.96 5.488 5.488 0 0 0 -6.03-4.88 5.239 5.239 0 0 0 -1.78.51 5.481 5.481 0 1 1 6.66 8.33z" fill="#e1e6e9"/><path d="m30.3 66.78a4.208 4.208 0 0 1 -2.68 3.92 4.133 4.133 0 0 0 .72-2.35 4.221 4.221 0 0 0 -4.22-4.22 4.174 4.174 0 0 0 -1.54.29 4.221 4.221 0 0 1 7.72 2.36z" fill="#27a2db"/><path d="m14.48 44.1a5.079 5.079 0 0 1 -2.98 4.63 5.1 5.1 0 0 0 -6.17-7.71 5.1 5.1 0 0 1 9.15 3.08z" fill="#84879c"/><path d="m49.66 37.02a12.267 12.267 0 0 1 -5.61 10.32 12.318 12.318 0 0 0 -8.67-21.07 12.119 12.119 0 0 0 -6.66 1.97 12.3 12.3 0 0 1 20.94 8.78z" fill="#ea6453"/><g fill="#323c6b"><path d="m67.75 67.141a.5.5 0 0 1 -.208-.955c.16-.073.314-.159.468-.245l.323.393.242.438c-.256.143-.434.24-.618.325a.5.5 0 0 1 -.207.044z"/><path d="m64.216 67.914a8.98 8.98 0 0 1 -4.685-1.314.5.5 0 1 1 .521-.854 7.93 7.93 0 0 0 4.98 1.126.507.507 0 0 1 .548.447.5.5 0 0 1 -.447.548 9.12 9.12 0 0 1 -.917.047z"/><path d="m27.182 26.109a.5.5 0 0 1 -.333-.873l.165-.154c.1-.091.191-.182.293-.266a.5.5 0 1 1 .636.772c-.083.068-.161.143-.239.217l-.188.176a.5.5 0 0 1 -.334.128z"/><path d="m29.5 24.392a.5.5 0 0 1 -.257-.929 15.792 15.792 0 0 1 7.832-2.249h.008a.5.5 0 0 1 .008 1 14.785 14.785 0 0 0 -7.335 2.107.5.5 0 0 1 -.256.071z"/><path d="m14.781 27.043a7.179 7.179 0 1 1 7.179-7.179 7.187 7.187 0 0 1 -7.179 7.179zm0-13.358a6.179 6.179 0 1 0 6.179 6.179 6.186 6.186 0 0 0 -6.179-6.178z"/><path d="m43.738 13.686a5.593 5.593 0 1 1 5.593-5.593 5.6 5.6 0 0 1 -5.593 5.593zm0-10.186a4.593 4.593 0 1 0 4.593 4.593 4.6 4.6 0 0 0 -4.593-4.593z"/><path d="m64.372 37.944a4.417 4.417 0 1 1 4.417-4.417 4.422 4.422 0 0 1 -4.417 4.417zm0-7.833a3.417 3.417 0 1 0 3.417 3.417 3.421 3.421 0 0 0 -3.417-3.417z"/><path d="m64.212 64.915a5.987 5.987 0 0 1 -5.942-5.361 5.986 5.986 0 1 1 6.578 5.328 6.065 6.065 0 0 1 -.636.033zm.014-10.973a5.141 5.141 0 0 0 -.524.027 4.992 4.992 0 0 0 -4.437 5.479 4.986 4.986 0 1 0 4.962-5.507z"/><path d="m26.078 71.5a4.719 4.719 0 1 1 4.722-4.719 4.724 4.724 0 0 1 -4.722 4.719zm0-8.438a3.719 3.719 0 1 0 3.722 3.719 3.723 3.723 0 0 0 -3.722-3.719z"/><path d="m9.384 49.691a5.593 5.593 0 1 1 5.593-5.591 5.6 5.6 0 0 1 -5.593 5.591zm0-10.186a4.593 4.593 0 1 0 4.593 4.595 4.6 4.6 0 0 0 -4.593-4.594z"/><path d="m37.342 49.834a12.817 12.817 0 1 1 12.817-12.816 12.831 12.831 0 0 1 -12.817 12.816zm0-24.633a11.817 11.817 0 1 0 11.817 11.817 11.83 11.83 0 0 0 -11.817-11.818z"/></g><path d="m35.35 45.781a.643.643 0 0 1 -.83.39 6.133 6.133 0 0 1 -.691-.313.648.648 0 1 1 .67-1.11 3.411 3.411 0 0 0 .461.2.644.644 0 0 1 .39.833z" fill="#fff"/><path d="m31.89 44.525a.644.644 0 0 1 -.4-.142 9.338 9.338 0 0 1 -3.513-6.383.65.65 0 0 1 1.293-.135 8.051 8.051 0 0 0 3.025 5.5.65.65 0 0 1 -.405 1.158z" fill="#fff"/></svg>