<svg id="color_line" height="512" viewBox="0 0 74 74" width="512" xmlns="http://www.w3.org/2000/svg" data-name="color line"><path d="m67.748 42.809-23.448 18.517-24.61-.637-4.851 2.911-7.692-12.9 14.146-8.018a3.945 3.945 0 0 1 2.726-.5l15.525 2.78a1.793 1.793 0 0 1 -.779 3.5l-8.807-1.544-1.035 5.91 8.806 1.544a7.748 7.748 0 0 0 5.822-1.3l.131-.094 23.366-11.287a.663.663 0 0 1 .7 1.117z" fill="#fcd462"/><path d="m14.839 64.1a.492.492 0 0 1 -.122-.015.5.5 0 0 1 -.308-.229l-7.691-12.9a.5.5 0 0 1 .184-.691l14.146-8.015a4.46 4.46 0 0 1 3.061-.553l15.524 2.78a2.293 2.293 0 0 1 -.953 4.482l-8.315-1.459-.865 4.926 8.313 1.458a7.266 7.266 0 0 0 5.449-1.213l.121-.087 23.447-11.343a1.163 1.163 0 0 1 1.228 1.96l-23.444 18.518a.518.518 0 0 1 -.322.107l-24.469-.634-4.723 2.841a.505.505 0 0 1 -.261.067zm-7-13.218 7.173 12.031 4.421-2.657a.5.5 0 0 1 .271-.071l24.434.633 23.3-18.406a.16.16 0 0 0 .036-.214.167.167 0 0 0 -.21-.061l-23.425 11.352a8.258 8.258 0 0 1 -6.2 1.379l-8.806-1.544a.5.5 0 0 1 -.406-.579l1.035-5.91a.5.5 0 0 1 .205-.323.511.511 0 0 1 .373-.083l8.807 1.544a1.292 1.292 0 0 0 1.5-1.05 1.3 1.3 0 0 0 -.936-1.472l-15.479-2.77a3.448 3.448 0 0 0 -2.382.434z" fill="#323c6b"/><path d="m29.441 49.877 8.807 1.544a4.793 4.793 0 0 0 5.552-3.893 4.793 4.793 0 0 0 -3.627-5.494l-15.623-2.8a6.958 6.958 0 0 0 -4.79.873l-16.76 9.493 10.8 18.126 6.682-4.016 24.827.643 24.295-19.19a3.663 3.663 0 0 0 .83-4.825 3.663 3.663 0 0 0 -4.695-1.348l-23.639 11.431" fill="#fcd462"/><path d="m69.61 45.16-24.3 19.19-24.82-.64-6.69 4.02-10.8-18.13.1-.06 9.02 15.12 6.68-4.01 24.83.64 24.29-19.19a3.644 3.644 0 0 0 1.39-2.88 3.551 3.551 0 0 1 1.13 1.12 3.663 3.663 0 0 1 -.83 4.82z" fill="#f7be56"/><path d="m55.852 35.647a12.778 12.778 0 0 1 -1.545-.1 25.574 25.574 0 0 1 -9.261-3.366c-6.8-3.929-10.745-9.415-8.97-12.489.9-1.555 3.041-2.207 6.039-1.842a25.572 25.572 0 0 1 9.262 3.366c6.8 3.929 10.744 9.415 8.969 12.489-.735 1.274-2.305 1.942-4.494 1.942zm-15.283-16.6c-1.684 0-2.881.449-3.367 1.292-1.214 2.1 1.909 6.911 8.5 10.713a24.243 24.243 0 0 0 8.769 3.2c2.405.293 4.145-.143 4.756-1.2 1.214-2.1-1.909-6.911-8.494-10.713a24.243 24.243 0 0 0 -8.769-3.2 11.546 11.546 0 0 0 -1.396-.087z" fill="#d5d6db"/><g fill="#323c6b"><path d="m63.418 54.319a.5.5 0 0 1 -.31-.892l.365-.289a.5.5 0 1 1 .619.784l-.365.289a.5.5 0 0 1 -.309.108z"/><path d="m55.775 60.406a.5.5 0 0 1 -.312-.891l5.791-4.625a.5.5 0 0 1 .625.781l-5.791 4.629a.5.5 0 0 1 -.313.106z"/><path d="m14.688 40.033a.5.5 0 0 1 -.246-.935l.386-.218a.5.5 0 1 1 .492.87l-.386.218a.5.5 0 0 1 -.246.065z"/><path d="m16.807 38.833a.5.5 0 0 1 -.246-.935l1.472-.834a10.366 10.366 0 0 1 6.822-1.315.5.5 0 0 1 -.146.989 9.391 9.391 0 0 0 -6.174 1.19l-1.481.84a.5.5 0 0 1 -.247.065z"/><path d="m13.8 68.226a.492.492 0 0 1 -.122-.015.5.5 0 0 1 -.308-.229l-10.8-18.122a.5.5 0 0 1 .184-.691l16.758-9.5a7.461 7.461 0 0 1 5.124-.93l15.623 2.8a5.3 5.3 0 0 1 3.574 7.484l21.691-10.483a4.163 4.163 0 0 1 4.393 7.015l-24.295 19.191a.533.533 0 0 1 -.322.107l-24.681-.639-6.558 3.941a.505.505 0 0 1 -.261.071zm-10.109-18.438 10.286 17.251 6.252-3.757a.638.638 0 0 1 .271-.071l24.646.638 24.154-19.079a3.163 3.163 0 0 0 -3.338-5.33l-23.591 11.4c-.082.065-.166.128-.253.189a5.262 5.262 0 0 1 -3.954.88l-8.809-1.539a.5.5 0 0 1 .172-.985l8.807 1.544a4.28 4.28 0 0 0 3.208-.714c.072-.051.144-.1.212-.159a.53.53 0 0 1 .055-.044 4.293 4.293 0 0 0 -1.752-7.491l-15.6-2.792a6.462 6.462 0 0 0 -4.446.81z"/></g><path d="m48.211 40.712c-3.55 0-6.331-6.155-6.331-14.012s2.781-14.013 6.331-14.013 6.331 6.155 6.331 14.013-2.781 14.012-6.331 14.012zm0-26.725c-2.43 0-5.03 5.108-5.03 12.713s2.6 12.712 5.03 12.712 5.03-5.108 5.03-12.712-2.6-12.713-5.03-12.713z" fill="#fe7058"/><path d="m40.57 35.647c-2.19 0-3.76-.669-4.494-1.941-1.775-3.075 2.165-8.561 8.97-12.489a25.574 25.574 0 0 1 9.261-3.366c3-.365 5.143.288 6.039 1.842 1.775 3.075-2.165 8.561-8.969 12.489a25.572 25.572 0 0 1 -9.262 3.366 12.778 12.778 0 0 1 -1.545.099zm15.284-16.6a11.521 11.521 0 0 0 -1.39.09 24.243 24.243 0 0 0 -8.769 3.2c-6.586 3.8-9.709 8.609-8.5 10.713.61 1.057 2.338 1.5 4.757 1.2a24.243 24.243 0 0 0 8.769-3.2c6.585-3.8 9.708-8.609 8.494-10.713-.481-.837-1.678-1.285-3.361-1.285z" fill="#27ccbc"/><path d="m12.348 59.746a.583.583 0 0 1 .811.211l.066.119a.592.592 0 1 1 -1.016.608l-.071-.128a.583.583 0 0 1 .21-.81z" fill="#fff"/><path d="m7.915 52.194a.583.583 0 0 1 .8.241l3.357 5.734a.585.585 0 0 1 -.225.793l-.017.009a.589.589 0 0 1 -.8-.242l-3.357-5.729a.583.583 0 0 1 .242-.806z" fill="#fff"/></svg>