<svg id="color_line" height="512" viewBox="0 0 74 74" width="512" xmlns="http://www.w3.org/2000/svg" data-name="color line"><path d="m48.149 55.458v11.45a3.743 3.743 0 0 1 -3.743 3.743h-14.032a3.743 3.743 0 0 1 -3.743-3.743v-11.45z" fill="#9297ab"/><path d="m48.15 55.46v11.45a3.741 3.741 0 0 1 -3.74 3.74h-3.44a3.741 3.741 0 0 0 3.74-3.74v-11.45z" fill="#84879c"/><path d="m46.794 56.958a4.051 4.051 0 0 0 3.935-3.011 35.433 35.433 0 0 1 6.023-12.486c5.161-6.843 6.77-16.513 2.112-26.274a20.785 20.785 0 0 0 -9.779-9.787c-18.123-8.644-35.925 4.337-35.925 21.492a24.107 24.107 0 0 0 4.7 14.338 37.938 37.938 0 0 1 6.167 12.749 4.047 4.047 0 0 0 3.927 2.979z" fill="#fcd462"/><path d="m56.75 41.46a35.441 35.441 0 0 0 -6.02 12.49 4.052 4.052 0 0 1 -3.94 3.01h-.74a3.928 3.928 0 0 0 .8-1.56 35.42 35.42 0 0 1 6.03-12.48c5.16-6.85 6.77-16.52 2.11-26.28a20.811 20.811 0 0 0 -9.78-9.78 25.712 25.712 0 0 0 -18.3-1.83c6.35-3.05 14.23-3.42 22.17.37a20.744 20.744 0 0 1 9.78 9.79c4.66 9.76 3.05 19.43-2.11 26.27z" fill="#f7be56"/><path d="m26.631 64.445h-2.812a.5.5 0 0 1 0-1h2.812a.5.5 0 1 1 0 1z" fill="#323c6b"/><path d="m50.96 64.445h-2.812a.5.5 0 0 1 0-1h2.812a.5.5 0 0 1 0 1z" fill="#323c6b"/><path d="m48.148 61.945h-21.517a.5.5 0 0 1 0-1h21.517a.5.5 0 0 1 0 1z" fill="#323c6b"/><path d="m48.148 66.708h-21.517a.5.5 0 0 1 0-1h21.517a.5.5 0 0 1 0 1z" fill="#323c6b"/><path d="m27.8 39.2c-2.684 0-4.6-.811-5.492-2.354-2.18-3.776 2.736-10.559 11.192-15.446s16.791-5.75 18.971-1.973-2.736 10.56-11.193 15.443a31.91 31.91 0 0 1 -11.557 4.2 15.918 15.918 0 0 1 -1.921.13zm19.225-20.831c-3.395 0-8.193 1.459-12.874 4.162-7.564 4.369-12.472 10.626-10.717 13.669.8 1.388 3.034 1.968 6.131 1.589a30.59 30.59 0 0 0 11.063-4.039c7.565-4.368 12.472-10.627 10.719-13.668-.67-1.159-2.23-1.713-4.322-1.713z" fill="#eeefee"/><path d="m46.942 39.2c-3.648 0-8.523-1.481-13.441-4.32-8.456-4.883-13.373-11.666-11.192-15.443 1.09-1.889 3.723-2.681 7.413-2.229a31.91 31.91 0 0 1 11.557 4.2c8.457 4.883 13.374 11.666 11.193 15.443-.912 1.577-2.904 2.349-5.53 2.349zm-12.791-5.45c7.565 4.369 15.439 5.488 17.2 2.448s-3.153-9.3-10.719-13.667a30.59 30.59 0 0 0 -11.063-4.037c-3.1-.379-5.329.2-6.131 1.589-1.755 3.041 3.153 9.3 10.718 13.667z" fill="#fe7058"/><path d="m37.39 45.555c-4.361 0-7.777-7.649-7.777-17.415s3.416-17.415 7.777-17.415 7.777 7.649 7.777 17.415-3.416 17.415-7.777 17.415zm0-33.53c-3.511 0-6.477 7.38-6.477 16.115s2.966 16.115 6.477 16.115 6.477-7.38 6.477-16.115-2.967-16.115-6.477-16.115z" fill="#27ccbc"/><g fill="#323c6b"><path d="m56.9 47.188a.5.5 0 0 1 -.434-.749 33.232 33.232 0 0 1 2.281-3.473 26.884 26.884 0 0 0 2.453-3.944.5.5 0 0 1 .891.455 27.945 27.945 0 0 1 -2.546 4.091 32.153 32.153 0 0 0 -2.213 3.367.5.5 0 0 1 -.432.253z"/><path d="m12.878 15.583a.5.5 0 0 1 -.45-.717l.1-.2c.054-.117.108-.234.167-.349a.5.5 0 0 1 .891.455c-.053.1-.1.209-.15.314l-.1.217a.5.5 0 0 1 -.458.28z"/><path d="m14.286 13a.494.494 0 0 1 -.265-.076.5.5 0 0 1 -.159-.689 27.907 27.907 0 0 1 6.072-6.877.5.5 0 0 1 .631.776 26.905 26.905 0 0 0 -5.855 6.631.5.5 0 0 1 -.424.235z"/><path d="m62.648 37.563a.5.5 0 0 1 -.464-.687c.048-.118.091-.238.134-.358l.083-.225a.5.5 0 1 1 .936.352l-.077.213c-.048.131-.1.262-.147.392a.5.5 0 0 1 -.465.313z"/><path d="m46.794 57.458h-18.844a4.544 4.544 0 0 1 -4.409-3.351 37.285 37.285 0 0 0 -6.087-12.581 24.748 24.748 0 0 1 6.762-35.577c7.436-4.691 16.584-5.049 25.084-.995a21.3 21.3 0 0 1 10.014 10.017c4.378 9.175 3.569 19.19-2.164 26.791a34.751 34.751 0 0 0 -5.937 12.31 4.547 4.547 0 0 1 -4.419 3.386zm-9.436-54.305a23.721 23.721 0 0 0 -23.7 23.739 23.53 23.53 0 0 0 4.6 14.042 38.272 38.272 0 0 1 6.249 12.918 3.542 3.542 0 0 0 3.442 2.607h18.845a3.546 3.546 0 0 0 3.45-2.636 35.78 35.78 0 0 1 6.108-12.663c5.5-7.3 6.274-16.926 2.061-25.758a20.292 20.292 0 0 0 -9.543-9.546 26.714 26.714 0 0 0 -11.512-2.703z"/><path d="m44.41 71.15h-14.04a4.245 4.245 0 0 1 -4.24-4.24v-10.17a.5.5 0 0 1 1 0v10.17a3.243 3.243 0 0 0 3.24 3.24h14.04a3.243 3.243 0 0 0 3.24-3.24v-10.18a.5.5 0 0 1 1 0v10.18a4.245 4.245 0 0 1 -4.24 4.24z"/></g></svg>