<svg height="512pt" viewBox="-78 0 512 512.00033" width="512pt" xmlns="http://www.w3.org/2000/svg"><path d="m268.179688 505.90625-.277344-40.320312 24.019531.382812.117187 1.949219c.007813 1.03125.09375 2.046875.253907 3.011719 1.230469 7.554687 6.390625 12.066406 13.792969 12.066406.855468 0 1.753906-.066406 2.667968-.191406 6.320313-.871094 11.433594-5.195313 14.019532-11.863282 2.6875-6.929687 1.902343-14.691406-1.949219-19.316406-2.417969-2.902344-5.863281-4.4375-9.972657-4.4375-1.117187 0-2.292968.117188-3.492187.34375-6.542969 1.242188-11.84375 6.179688-14.171875 13.203125l-.628906 1.902344-1.902344-.632813c-.25-.085937-.449219-.125-.636719-.128906l-20.789062-.335938c-1.042969 0-2.386719.113282-3.519531 1-1.878907 1.457032-1.859376 3.820313-1.851563 5.089844l.261719 38.277344-26.550782-.015625 4.738282-3.589844c.261718-.199219.601562-.550781.738281-1.089843 1.054687-4.078126 2.246094-8.691407 1.972656-13.359376-.320312-5.449218-2.785156-10.191406-6.589843-12.6875-3.957032-2.589843-9.011719-2.601562-12.703126-2.609374l-14.449218-.023438.609375-40.457031c.011719-.480469.023437-.851563.046875-1.121094l.144531-1.6875 1.691406-.136719c.171875-.011718.363281-.019531.589844-.019531.1875 0 .40625.007813.644531.019531l30.875.832032.03125.003906c1.066406-.050782 1.90625-.902344 1.9375-1.984375.03125-1.121094-.855468-2.054688-1.972656-2.085938l-30.800781-.832031c-.234375-.003906-.496094-.015625-.785157-.015625-2.105468 0-3.597656.488281-4.691406 1.535156-1.71875 1.636719-1.753906 4.105469-1.769531 5.429688l-.613281 40.507812-80.675782-.175781c-6.550781 0-13.984374.394531-19.273437 5.105469-7.273437 6.492187-6.570313 17.316406-5.144531 26.023437l.378906 2.324219-57.015625-.03125c-10.328125-.011719-21.875-.648437-28.167969-8.109375-2.753906-3.277344-4.339844-7.664062-4.996094-13.820312l-.242187-2.257813 61.203125 1.316406c1.140625 0 2.046875-.886719 2.066406-1.976562.023438-1.125-.867187-2.058594-1.984375-2.082031l-61.476562-1.324219v-1.957031c0-.207032 0-.410157-.007813-.605469l-.457031-34.765625 33.855469-1.710938.242187 1.828125c.230469 1.777344.730469 3.441407 1.476563 4.945313 1.492187 3.015625 3.953125 5.5625 7.121094 7.371094 3.140624 1.78125 6.789062 2.726562 10.539062 2.726562 1.894531 0 3.804688-.253906 5.675781-.753906 7.414063-1.976563 13.464844-7.539063 15.785157-14.519532 2.171874-6.53125.542968-14.105468-4.257813-19.765624-3.75-4.417969-8.992187-6.953126-14.386719-6.953126-.910156 0-1.832031.074219-2.734375.214844-6.453125 1.023438-12.78125 6.144532-16.515625 13.363282-1.007812 1.941406-1.769531 3.960937-2.261718 6.011718l-.351563 1.453125-34.246094 1.730469-.425781-31.867188 77.351562-2.523437c.550782-.019531 1.054688-.246094 1.425782-.644531.367187-.390625.5625-.90625.539062-1.445313-.03125-1.09375-.9375-1.976562-2.011718-1.976562l-77.359376 2.519531-.433593-32.945312 34.667969-1.007813c2.855468-.085937 6.742187-.207031 9.550781-2.769531 3.332031-3.046875 3.347656-8.007813 3.355469-10.96875l.078124-21.421875 1.789063-.183594c1.90625-.191406 3.71875-.695313 5.394531-1.496094 2.023438-.964843 3.808594-2.246093 5.296875-3.796875 1.476563-1.542968 2.628907-3.320312 3.335938-5.148437 2.738281-7.085938.65625-13.710938-5.710938-18.179688-3.777343-2.652343-8.769531-4.175781-13.683593-4.175781-3.441407 0-8.414063.757812-12.554688 4.367188-5.871094 5.109374-6.863281 11.988281-2.660156 18.394531 2.871094 4.378906 7.828125 7.886719 13.257812 9.375l1.472656.40625-.074218 21.839843c-.011719 3.109376-.179688 6.28125-2.042969 7.980469-1.5625 1.433594-4.164063 1.628907-6.914063 1.714844l-34.613281 1.007813-2.285156-171.171876 26.703125.0625c.539062 0 1.050781-.210937 1.4375-.59375.378906-.378906.597656-.890624.597656-1.425781 0-1.121093-.917968-2.035156-2.039062-2.039062l-26.746094-.066407-.761719-57.105468 53.804688-7.113282c.816406-.105468 2.117187-.273437 3.421875-.273437 2.183594 0 3.6875.488281 4.605468 1.488281 1.199219 1.292969 1.386719 3.523438 1.480469 5.890625l1.101563 28.613281c.007812.140626.054687.347657.144531.628907l.710937 2.195312-20.042968 3.472657c-1.082032.1875-1.8125 1.183593-1.660156 2.261718l3.300781 24.5c.199219 1.464844.527343 3.917969 2.332031 5.507813 1.125.988281 2.59375 1.472656 4.488281 1.472656.976563 0 1.867188-.128906 2.515625-.222656l34.1875-4.957031c1.082032-.15625 1.851563-1.171876 1.71875-2.265626-.035156-.292968-.144531-.585937-.316406-.859374l-.179688-.277344-.078124-.324219c-.21875-.890625-.527344-2.585937-.828126-4.226563l-.105468-.597656c-2.175782-12.113281-4.566406-23.128906-9.875-24.894531-1.097656-.363281-2.320313-.542969-3.746094-.542969-2.132812 0-4.371094.417969-6.085938.78125l-2.324218.496094-1.199219-30.921875c-.082031-2.230469-.214844-5.957031-2.546875-8.496094-1.730469-1.875-4.21875-2.789062-7.609375-2.789062-1.519531 0-2.917969.183593-3.941406.320312l-53.324219 7.042969-.375-27.730469 81.0625-3.476562.488281 1.398437c2.527344 7.230469 9.128907 12.90625 16.421875 14.117188 1.039063.167968 2.113282.253906 3.191406.253906 7.804688 0 15.285157-4.601562 18.609376-11.453125 3.867187-7.992187 1.699218-18.289063-5.035157-23.945313-4.003906-3.367187-9.066406-5.222656-14.265625-5.222656-3.683594 0-7.296875.945313-10.441406 2.730469-5.953125 3.386719-9.449219 9.296875-9.597656 16.210937l-.039063 1.878907-80.445312 3.4375-.734375-55.109375c-.074219-6-.164063-13.367188 3.289062-18.816406 2.9375-4.625 7.960938-7.589844 15.355469-9.070313l2.351563-.472656 1.101562 60.96875c.019531 1.097656.933594 1.992187 2.03125 1.992187.578125-.007812 1.085938-.226562 1.460938-.617187.375-.394531.578124-.910157.566406-1.453125l-1.113282-61.34375 1.910157-.121094c1.976562-.125 4.0625-.199219 6.375-.234375l11.523437-.164063-.425781 2.386719c-1.1875 6.652344-2.0625 16.199219 4.007813 22.296875 3.632812 3.636719 8.753906 5.261719 16.605468 5.261719 1.3125 0 2.753906-.042969 4.535156-.136719l162.476563-8.109375c.535156-.03125 1.046875-.273437 1.390625-.660156.371094-.414063.5625-.953125.53125-1.492187l-1.269531-22.261719 30.765625-.449219-.710938 2.578125c-.066406.234375-.09375.390625-.089844.523437l.308594 44.246094c.019532 2.667969-.105468 5.632813-1.792968 7.046875-1.277344 1.058594-3.355469 1.175781-5.546876 1.207031l-59.402343.953126-.433594-1.449219c-.945313-3.160157-2.871094-5.957031-5.570313-8.082031-3.320312-2.613282-7.507812-4.054688-11.800781-4.054688-2.042969 0-4.035156.328125-5.929687.96875-5.402344 1.835938-9.304688 6.042969-10.703125 11.539062-1.222657 4.800782-.304688 9.984376 2.515625 14.21875 2.789062 4.207032 7.175781 7.03125 12.039062 7.75.847656.132813 1.710938.199219 2.578125.199219 6.996094 0 13.144531-4.175781 16.042969-10.894531.621094-1.4375 1.058594-2.9375 1.300781-4.46875l.261719-1.660156 59.171875-.957032c2.367187-.039062 5.609375-.089843 8.078125-2.152343 3.328125-2.777344 3.28125-7.597657 3.253906-10.1875l-.3125-44.207031c0-.195313-.0625-.429688-.117187-.613282l-.753907-2.535156 25.324219-.367188c2.59375-.039062 5.558594-.210937 8.613281-.394531l.292969-.015625c4.066407-.238281 8.273438-.484375 12.535157-.484375 2.308593 0 4.382812.074219 6.335937.222657l1.90625.144531-2.636719 89.007812c-.019531.542969.175782 1.054688.546875 1.449219.375.398438.882813.625 1.425781.640625h.058594c1.085938 0 1.988282-.878906 2.019532-1.964844l2.636718-88.59375 2.421875.621094c5.386719 1.382813 9.5 3.832031 12.222657 7.277344 4.460937 5.683593 4.289062 13.355469 4.121093 20.773437l-.0625 2.554688c-.128906 8.972656-.269531 17.972656-.410156 26.972656l-.195313 12.449219-4.691406 299.097656-81.429687-.34375-.214844-1.75c-.648437-5.199219-2.953125-9.886719-6.5-13.191406-4.445313-4.144531-10.066406-6.332031-16.261719-6.332031-6.851562 0-13.96875 2.78125-19.03125 7.441406-8.804687 8.109375-9.632812 19.515625-2.113281 29.0625 4.511719 5.722656 12.011719 9.277344 19.582031 9.277344.382813 0 .773438-.011719 1.160156-.019532 9.167969-.433594 17.789063-6.15625 21.433594-14.234375.636719-1.40625 1.128906-2.945312 1.464844-4.578125l.328125-1.605468 81.523437.335937-.503906 31.949219h-1.96875l-63.445312 1.101562c-.542969.007813-1.050782.226563-1.429688.617188-.375.390625-.574218.902344-.566406 1.445312.023438 1.121094.914062 1.996094 2.03125 1.996094l65.3125-1.125-.921875 58.945312c-.136719 9.007813-.695313 17.5625-5.953125 23.238282-5.980469 6.441406-16.078125 6.992187-25.90625 7zm-99.667969-112.304688-1.652344.234376c-7.605469 1.085937-14.273437 6.214843-17.410156 13.382812-3.421875 7.828125-1.652344 16.207031 4.617187 21.863281 3.742188 3.375 8.734375 5.234375 14.0625 5.234375 3.589844 0 7.117188-.878906 10.199219-2.542968 8.027344-4.308594 12.144531-13.457032 10.242187-22.765626-1.574218-7.703124-6.941406-13.269531-14.359374-14.898437l-1.632813-.359375 2.773437-73.425781 22.378907-.207031-.003907-.003907 10.832032-.097656c8.09375-.066406 19.175781-.160156 27.375-6.042969 5.648437-4.054687 9.585937-10.492187 12.03125-19.679687l.390625-1.460938 38.667969-.648437c.175781 0 .34375-.003906.503906-.003906 1.15625 0 1.964844.089843 2.53125.277343l1.097656.367188.230469 1.132812c.128906.621094.097656 1.433594.019531 2.464844l-2.042969 26.597656c-.019531.269531.015625.542969.109375.8125l.933594 2.644531-12.324219.078126c-2.417969.015624-4.671875.03125-6.523437.050781l-4.554688.039062c-2.019531.023438-2.316406 1.390625-2.347656 1.972657l-.902344 21.113281c-.042968 1.03125-.105468 2.550781.625 3.902343 1.3125 2.441407 4.097656 2.957032 6.378906 3.140626l33.191407 2.6875c.605469.042968 1.296875.09375 2.019531.09375 2.351562 0 4.101562-.511719 5.5-1.617188 3.582031-2.835938 2.832031-8.101562 2.511719-10.347656-.15625-1.140625-.230469-2.722656-.308594-4.398438l-.011719-.242187c-.230468-4.738281-.488281-10.019531-2.339844-12.996094-1.992187-3.199219-4.691406-3.640625-7.304687-3.640625-.609375 0-1.199219.027344-1.753906.050781l-.386719.015625c-.46875.019532-.957031.035156-1.445312.035156-.609376 0-2.554688.011719-5.21875.03125l-2.855469.023438.957031-2.695312c.058594-.164063.09375-.300782.097656-.40625l2.042969-26.59375c.125-1.597657.335937-4.257813-1.300781-6.277344-1.730469-2.140625-4.542969-2.386719-6.503906-2.386719-.246094 0-.476563 0-.675782.003906l-37.742187.640625.382812-2.359375c.195313-1.214843.371094-2.414062.519531-3.582031.664063-5.042969 1.203126-10.316406 1.601563-15.6875l.132813-1.824219 36.722656-.527343c.539062-.007813 1.050781-.230469 1.429687-.621094.375-.386719.578125-.894532.566407-1.433594-.011719-1.132812-.890626-2.015625-1.996094-2.015625l-36.464844.53125.09375-2.117187c.144531-3.183594.226562-6.476563.261719-10.0625l.015625-2.015626 55.546875.945313c1.023437 0 1.886719-.730469 2.039062-1.703125 2.65625-16.578125 3.722657-33.496094 3.167969-50.289062l-.078125-2.265626 2.476563.226563.246093.015625c.675781.042969 1.445313.09375 2.253907.09375 2.8125 0 4.878906-.613281 6.492187-1.9375 2.972656-2.4375 3.292969-6.5 3.238281-9.769531-.011718-.691407-.011718-1.433594-.011718-2.222657-.015626-6.859374-.046876-17.195312-7.101563-21.113281-2.953125-1.640625-6.949219-2.40625-12.578125-2.40625-2.605469 0-5.242188.15625-7.796875.304688l-.371094.023437c-2.035156.113282-3.957031.222656-5.597656.222656 0 0-.796875-.007812-1.027344-.007812-1.792969 0-4.371093.21875-6.046875 2.117188-1.722656 1.945312-1.574218 4.609374-1.484375 6.199218l.941407 17.039063c.121093 2.109375.324218 5.597656 2.753906 7.796875 2.019531 1.828125 4.832031 2.039062 6.691406 2.179687l12.851562.964844.066407 1.785156c.570312 15.59375-.289063 31.378907-2.5625 46.914063l-.253907 1.738281-53.789062-.910156-.113281-1.925781c-.042969-1.992188-.105469-4.355469-.210938-6.765626-.085937-1.9375-.109375-4.253906-.128906-7.3125-.101563-12.949218-.234375-30.6875-6.714844-38.308593-2.011719-2.355469-5.191406-3.9375-9.726562-4.84375l-1.605469-.320313-.082031-42.605468c-.019531-1.921876.03125-3.621094.785156-4.820313 1.046875-1.652344 3.445313-2.421875 7.558594-2.421875.273437 0 .507812.003906.695312.007812l56.5625.75.464844 1.316407c.324219.929687.695313 1.785156 1.136719 2.613281 2.800781 5.324219 8.679687 8.757812 14.984375 8.757812 2.378906 0 4.636719-.492187 6.707031-1.46875 7.769531-3.632812 11.5625-13.398437 8.285156-21.324218-1.238281-2.988282-3.023437-5.40625-5.304687-7.1875-2.253907-1.753906-4.882813-2.796875-7.8125-3.097656-.539063-.054688-1.09375-.082032-1.644531-.082032-5.808594 0-11.613282 3.042969-14.792969 7.75-1.40625 2.078125-2.246094 4.375-2.5 6.824219l-.1875 1.820313-55.847657-.734376c-.277343-.003906-.589843-.007812-.933593-.007812-5.445313 0-8.980469 1.414062-10.808594 4.324219-1.421875 2.257812-1.421875 4.859375-1.421875 6.949219l.082031 42.195312-2.082031-.082031c-1.058594-.042969-2.1875-.0625-3.359375-.0625-3.699219 0-7.480469.207031-11.015625.429687l-3.082031.195313 1.082031-2.890625c.09375-.25.140625-.523438.132812-.808594l-1.617187-59.355469c-.109375-3.964843-.046875-7.734375 1.925781-10.292969 2.539063-3.304687 7.625-3.726562 11.769532-3.726562.621093 0 1.246093.007812 1.875.027344l49.136718 1.21875c.792969.019531 1.691406.042968 2.660156.042968 4.953126 0 12.011719-.59375 16.117188-5.734374 3.050781-3.804688 3.386719-8.972657 3.628906-12.75l2.359375-36.15625 2.015625.152343c.082032.003907.167969.015625.25.015625 4.042969 0 7.902344-1.695312 11.15625-4.898437 7.578125-7.425781 6.132813-17.195313.789063-23.011719-3.144531-3.425781-7.433594-5.390625-11.773438-5.390625-3.789062 0-7.402343 1.457031-10.75 4.328125-4.703125 4.035156-6.722656 9.597656-5.535156 15.261719 1.015625 4.800781 4.371094 9.300781 8.757813 11.742187l1.101562.613282-2.421875 37.074218c-.28125 4.21875-.6875 7.917969-2.757813 10.492188-2.945312 3.6875-8.453124 4.183594-13.453124 4.183594-.675782 0-1.359376-.007813-2.042969-.027344l-49.140625-1.21875c-.71875-.019532-1.527344-.042969-2.398438-.042969-4.492187 0-10.890625.554687-14.566406 5.332031-3 3.898438-2.859375 9.285156-2.765625 12.851563l1.621094 59.394531c.007812.292969.089843.59375.25.890625l1.46875 2.792969-3.152344.140625c-.976563.042969-2.109375.085937-3.117187.085937-.203126 0-.40625-.003906-.597657-.007812l-51.121093-.949219c-.914063-.015625-1.839844-.027344-2.769532-.027344-6.78125 0-12.042968.527344-16.554687 1.660157l-2.078125.519531-8.277344-46.257813c-.40625-2.226562-.28125-3.117187-.152344-3.597656l.28125-1.027344 1.003906-.34375c.5-.167968 1.21875-.269531 2.410157-.332031l28.683593-1.460937.296876 1.753906c.398437 2.371094 1.167968 4.433594 2.277343 6.125 2.890625 4.402344 7.84375 7.140625 12.933594 7.140625.859375 0 1.6875-.074219 2.488281-.21875 4.316406-.773438 8.460938-3.703125 11.367188-8.039063 4.273437-6.367187 4.566406-15.398437.707031-21.960937-2.875-4.875-7.59375-7.558594-13.289063-7.558594-.519531 0-1.054687.023437-1.589843.070313-5.207031.445312-9.808594 4.015624-12.621094 9.792968-1.097656 2.265625-1.859375 4.695313-2.261719 7.21875l-.257812 1.597656-28.9375 1.484376c-1.59375.082031-4.007813.203124-5.769532 1.859374-2.613281 2.464844-1.910156 6.34375-1.574218 8.203126l8.417968 47.058593-1.28125.683594c-3.277343 1.75-5.828124 3.957031-7.796874 6.757813-4.769532 6.777343-4.847657 15.84375-4.90625 22.464843l-.085938 10.410157s-24.199219-.546876-24.199219-.546876c-1.15625 0-2.0625.871094-2.085937 1.984376-.023438 1.121093.867187 2.050781 1.984375 2.078124l24.273437.542969-.164062 20.039063-62.855469.789062-1.765625-27.222656c-.070312-1.0625-.957031-1.898438-2.019531-1.898438l-.140625.003907c-.546875.035156-1.039063.277343-1.394532.683593-.359374.410157-.535156.9375-.503906 1.484376l1.890625 29.136718c.070313 1.066406.964844 1.898438 2.035157 1.898438l64.714843-.8125-.183593 23.222656-46.371094-1.117188c-1.140625 0-2.046875.867188-2.070313 1.972657-.015625.550781.179688 1.066406.554688 1.457031.371093.390625.878906.617188 1.429687.628906l46.421875 1.117188-.074219 9.519531c-.078124 9.78125.855469 19.574219 8.144532 24.945313 4.371094 3.230468 9.878906 3.753906 14.1875 3.851562l2.09375.046875-2.042969 30.207031c-.214844 3.464844-.8125 5.21875-2.058594 6.035156-.609375.398438-1.367187.570313-2.464843.570313-.855469 0-1.777344-.109375-2.386719-.183594l-15.808594-1.933593c-.070313-.007813-.148437-.011719-.222656-.011719l-2.023438.082031-.226562-1.832031c-1.285157-10.417969-3.835938-13.03125-4.875-13.671875-1.691407-1.046875-4.03125-1.578125-6.960938-1.578125-5.273437 0-11.523437 1.65625-17.042969 3.121093l-.324218.082032c-2.28125.597656-4.433594 1.164062-5.925782 1.417968-.996093.167969-1.726562 1.058594-1.695312 2.066407l.6875 22.328125c.066406 2 .171875 5.316406 2.554688 7.382812 1.789062 1.558594 4.160156 1.738282 5.785156 1.738282.300781 0 .582031-.007813.839844-.019532l25.316406-.839844c.269531-.007812 1.597656-.125 2.035156-1.746093.144531-.648438.5-5.632813.230469-12.3125l-.09375-2.351563 17.214843 2.105469c.835938.097656 1.828126.214844 2.867188.214844 1.925781 0 3.472656-.402344 4.738281-1.226563 3.410157-2.234375 3.726563-6.730468 3.894531-9.148437l2.058594-30.558594 31.308594-.285156zm28.730469-70.230468c-.199219.253906-.4375.664062-.457032 1.191406l-1.617187 48.992188c-.042969 1.121093.839843 2.0625 1.960937 2.105468l.070313-.003906c1.097656 0 1.988281-.867188 2.03125-1.972656l1.617187-48.992188c.023438-.617187-.238281-1.070312-.464844-1.34375l-1.597656-1.945312zm0 0" fill="#59bd8b"/><path d="m185.066406 284.640625c-5.277344 0-10.570312-3.25-15.5-6.765625-6.867187-4.910156-14.636718-10.777344-19.964844-18.347656-5.554687-7.886719-7.679687-17.117188-5.679687-24.691406 2.140625-8.105469 9.429687-14.21875 16.953125-14.21875.347656 0 .804688.007812 1.289062.0625 4.667969.433593 7.113282 2.878906 9.945313 5.710937 1.769531 1.78125 3.773437 3.792969 6.492187 5.308594 1.203126.679687 3.007813 1.578125 4.832032 1.578125.519531 0 1.019531-.074219 1.488281-.21875 2.308594-.71875 3.363281-2.863282 4.480469-5.132813.738281-1.515625 1.660156-3.410156 3.171875-5.109375 2.03125-2.277344 5.574219-4.714844 9.425781-4.714844.738281 0 1.460938.089844 2.152344.269532 4.3125 1.128906 6.835937 5.421875 7.683594 8.753906 1.117187 4.367188.5 9.011719-.335938 13.375-2.054688 10.75-5.660156 21.117188-10.707031 30.820312-4.085938 7.855469-8.289063 12.007813-13.226563 13.0625-.808594.171876-1.648437.257813-2.5.257813zm0 0" fill="#fff"/><path d="m135.886719 316.605469c-4.691407 0-10.019531-.238281-13.855469-3.070313-5.824219-4.28125-6.558594-12.933594-6.484375-21.648437l.609375-75.347657c.066406-7.898437.417969-14.871093 4.15625-20.175781 5.84375-8.289062 17.417969-9.40625 27.964844-9.40625.992187 0 1.988281.007813 2.992187.027344l51.113281.953125c.246094.003906.496094.003906.753907.003906 2.292969 0 5.097656-.179687 8.34375-.390625l.1875-.011719c3.683593-.238281 8.265625-.539062 12.835937-.539062 9.640625 0 15.296875 1.367188 17.792969 4.296875 5.078125 5.972656 5.625 20.890625 5.75 35.65625.019531 2.8125.039063 5.40625.128906 7.515625.703125 15.960938.011719 32.042969-2.066406 47.808594-1.394531 10.585937-3.980469 22.238281-12.542969 28.394531-6.597656 4.726563-15.242187 5.191406-25.039062 5.285156l-71.070313.640625c-.527343.003906-1.050781.007813-1.570312.007813zm24.996093-100.054688c-9.3125 0-18.292968 7.414063-20.890624 17.246094-2.328126 8.851563-.039063 19.082031 6.28125 28.070313 5.710937 8.105468 13.800781 14.21875 20.9375 19.3125 5.480468 3.914062 11.433593 7.535156 17.785156 7.535156 1.144531 0 2.292968-.121094 3.421875-.363282 8.152343-1.746093 13.023437-9.484374 15.976562-15.160156 5.238281-10.050781 8.976563-20.792968 11.097657-31.929687.878906-4.597657 1.601562-9.988281.277343-15.136719-1.5-5.890625-5.554687-10.367188-10.589843-11.683594-.992188-.261718-2.046876-.394531-3.121094-.394531-4.457032 0-9.136719 2.269531-12.515625 6.070313-1.851563 2.066406-2.925781 4.253906-3.789063 6.011718-.308594.632813-.710937 1.449219-1.042968 2l-.851563 1.414063-1.550781-.570313c-.484375-.175781-1.058594-.449218-1.707032-.804687-2.214843-1.242188-3.9375-2.96875-5.605468-4.636719-3.121094-3.121094-6.332032-6.332031-12.492188-6.902344-.535156-.050781-1.082031-.078125-1.621094-.078125zm0 0" fill="#ed6d66"/><g fill="#cbe580"><path d="m316.207031 143.023438c-4.765625 0-9.359375-2.640626-11.429687-6.566407-3.136719-5.964843-1.226563-10.386719.191406-12.488281 2.449219-3.625 6.933594-5.960938 11.417969-5.960938.5 0 .894531.019532 1.277343.0625 2.523438.253907 7.183594 1.609376 9.742188 7.792969 2.421875 5.878907-.503906 13.398438-6.261719 16.09375-1.503906.707031-3.164062 1.066407-4.9375 1.066407zm0 0"/><path d="m318.125 190c-.777344 0-1.523438-.050781-2.125-.09375l-19.433594-1.464844c-2.148437-.167968-3.460937-.398437-4.289062-1.160156-.996094-.875-1.273438-2.5-1.40625-4.996094l-.949219-17.019531c-.0625-1.101563-.050781-1.785156.039063-2.28125l.234374-1.273437 1.261719-.308594c.503907-.121094 1.195313-.179688 2.238281-.179688l.8125.007813c1.75 0 3.699219-.113281 5.761719-.230469l.34375-.023438c2.316407-.136718 4.941407-.292968 7.5-.292968 4.964844 0 8.359375.601562 10.683594 1.894531 4.976563 2.753906 4.988281 11.308594 5 17.554687 0 .824219.011719 1.59375.019531 2.292969.054688 3.496094-.488281 5.523438-1.757812 6.566407-.847656.695312-2.0625 1.007812-3.933594 1.007812zm0 0"/><path d="m306.03125 478.933594c-5.289062 0-8.835938-3.15625-9.726562-8.65625-1.238282-7.574219 3.308593-17.140625 11.808593-18.753906.984375-.1875 1.886719-.277344 2.753907-.277344 2.855468 0 5.21875 1.035156 6.832031 2.984375 2.9375 3.527343 3.457031 9.660156 1.28125 15.25-.972657 2.488281-3.960938 8.367187-10.773438 9.296875-.75.105468-1.484375.15625-2.175781.15625zm0 0"/><path d="m301.808594 49.226562c-1.023438 0-2.058594-.15625-3.078125-.464843-4.371094-1.320313-8.105469-5.445313-9.078125-10.027344-.878906-4.234375.617187-8.257813 4.203125-11.335937 2.566406-2.195313 5.3125-3.3125 8.164062-3.3125 3.179688 0 6.359375 1.472656 8.71875 4.039062 3.898438 4.242188 5.363281 11.484375-.628906 17.359375-2.492187 2.445313-5.363281 3.742187-8.300781 3.742187zm0 0"/><path d="m305.988281 355.484375c-.730469 0-1.464843-.058594-1.90625-.09375l-32.996093-2.671875c-.78125-.0625-1.363282-.148438-1.785157-.253906l-1.59375-.398438.082031-1.644531c.007813-.152344.019532-.320313.019532-.425781l.835937-19.304688 1.898438-.015625c8.261719-.070312 27.515625-.191406 29.90625-.199219.6875 0 1.347656-.027343 1.976562-.058593.679688-.027344 1.21875-.042969 1.652344-.042969 2.078125 0 2.964844.40625 3.796875 1.730469 1.195312 1.917969 1.484375 6.074219 1.714844 10.90625l.007812.117187c.078125 1.691406.167969 3.601563.363282 5.011719.5 3.652344.199218 5.625-1.007813 6.601563-.664063.527343-1.546875.742187-2.964844.742187zm0 0"/><path d="m238.421875 396.804688c-6.429687 0-12.546875-2.882813-16.363281-7.71875-7.425782-9.429688-4-18.359376 1.675781-23.574219 4.34375-3.996094 10.398437-6.386719 16.195313-6.386719 5.183593 0 9.875 1.824219 13.570312 5.269531 5.257812 4.90625 6.90625 13.746094 3.832031 20.554688-3.035156 6.726562-10.246093 11.480469-17.941406 11.835937-.324219.015625-.644531.019532-.96875.019532zm0 0"/><path d="m185.03125 80.921875c-.65625 0-1.324219-.046875-1.988281-.148437-3.714844-.550782-7.089844-2.726563-9.257813-5.976563-2.183594-3.28125-2.894531-7.285156-1.957031-10.984375 1.433594-5.664062 5.671875-7.871094 8.066406-8.679688 1.503907-.507812 3.066407-.765624 4.652344-.765624 3.34375 0 6.628906 1.132812 9.253906 3.183593 5.503907 4.355469 5.339844 10.761719 3.53125 14.933594-1.679687 3.890625-5.910156 8.4375-12.300781 8.4375zm0 0"/><path d="m168.132812 430.238281c-4.269531 0-8.402343-1.523437-11.34375-4.175781-7.410156-6.6875-4.640624-14.867188-3.613281-17.214844 2.429688-5.566406 8.480469-11.179687 16.519531-11.179687.507813 0 1.019532.019531 1.53125.066406 6.953126.636719 11.945313 5.152344 13.359376 12.082031 1.289062 6.265625-.742188 14.382813-8.183594 18.382813-2.480469 1.335937-5.339844 2.039062-8.269532 2.039062zm0 0"/><path d="m169.464844 143.015625c-3.726563 0-7.492188-2.082031-9.601563-5.304687-2.632812-3.992188-2.53125-11.046876.246094-16.769532 1.03125-2.113281 4.007813-7.070312 9.316406-7.527344.433594-.035156.847657-.046874 1.253907-.046874 4.1875 0 7.65625 1.976562 9.769531 5.566406 3.042969 5.171875 2.800781 12.585937-.582031 17.628906-2.292969 3.421875-5.46875 5.71875-8.714844 6.304688-.546875.097656-1.113282.148437-1.6875.148437zm0 0"/><path d="m108.019531 107.253906c-.847656 0-1.691406-.070312-2.511719-.203125-6.804687-1.125-12.792968-7.171875-13.925781-14.070312-1.121093-6.898438 1.550781-12.738281 7.335938-16.023438 2.480469-1.410156 5.511719-2.191406 8.527343-2.191406 4.242188 0 8.234376 1.472656 11.546876 4.261719 5.273437 4.433594 7.023437 12.804687 3.996093 19.0625-2.65625 5.480468-8.671875 9.164062-14.96875 9.164062zm0 0"/><path d="m80.914062 372.453125c-1.65625 0-2.503906-.1875-3.117187-.691406-.8125-.675781-1.121094-1.847657-1.195313-4.488281l-.628906-20.582032 1.554688-.394531c.703125-.175781 1.445312-.371094 2.222656-.578125l1.078125-.285156c4.320313-1.140625 11.417969-3.011719 16.207031-3.011719 1.839844 0 3.25.269531 4.308594.824219l.410156.210937.273438.371094c2.78125 3.765625 3.523437 21 3.378906 25.957031l-.054688 1.878906-23.457031.773438c-.367187.011719-.695312.015625-.980469.015625zm0 0"/><path d="m60.933594 195.425781c-.339844 0-.585938-.027343-.769532-.058593l-1.132812-.195313-.398438-1.082031c-.253906-.679688-.402343-1.816406-.441406-2.148438l-3.042968-22.527344 19.027343-3.296874c.871094-.148438 1.796875-.359376 2.777344-.578126l.273437-.0625c2.324219-.523437 4.902344-1.105468 7.066407-1.105468.878906 0 1.625.09375 2.273437.289062l.339844.101563.285156.214843c1.632813 1.21875 3.707032 4.730469 6.703125 21.5l.757813 4.164063-31.730469 4.605469c-.828125.121094-1.480469.179687-1.988281.179687zm0 0"/><path d="m64.804688 451.257812c-6.15625 0-11.851563-3.140624-14.167969-7.8125-1.953125-3.9375-1.507813-9.414062 1.191406-14.648437 3.109375-6.003906 8.425781-10.402344 13.546875-11.207031.707031-.113282 1.429688-.167969 2.140625-.167969 4.234375 0 8.230469 1.957031 11.246094 5.511719 3.824219 4.515625 5.199219 10.738281 3.503906 15.863281-1.867187 5.601563-6.964844 10.261719-12.988281 11.882813-1.441406.382812-2.945313.578124-4.472656.578124zm0 0"/><path d="m58.007812 326.925781c-5.808593 0-12.101562-3.410156-15.304687-8.292969-3.066406-4.6875-2.378906-9.339843 1.941406-13.105468 2.484375-2.160156 6.007813-3.351563 9.914063-3.351563 4.09375 0 8.21875 1.246094 11.316406 3.421875 4.789062 3.351563 6.300781 8.105469 4.257812 13.390625-1.09375 2.808594-3.492187 5.265625-6.585937 6.742188-1.675781.792969-3.539063 1.195312-5.539063 1.195312zm0 0"/></g><path d="m196.960938 505.867188-.476563-29.304688 29.226563.0625c4.113281 0 7.746093.148438 10.5 1.949219 2.726562 1.78125 4.5 5.335937 4.75 9.511719.242187 4.042968-.820313 8.144531-1.847657 12.113281-.199219.78125.085938 1.609375.726563 2.105469l4.640625 3.585937zm0 0" fill="#f9d889"/><path d="m210.347656 27.25.019532-.125v-18.917969l24.359374-.359375 1.164063 20.40625-25.542969 1.277344zm0 0" fill="#f9d889"/><path d="m175.476562 29.167969c0-.078125.003907-.152344.011719-.230469l-1.703125-20.199219 32.511719-.472656v18.988281l.050781.355469.226563 2.109375-31.09375 1.546875v-2.097656zm0 0" fill="#f9d889"/><path d="m164.382812 505.84375.53125-29.351562 27.5.058593.488282 29.304688zm0 0" fill="#f9d889"/><path d="m131.953125 9.335938 37.953125-.546876v2.207032l1.503906 18.007812.042969.085938.003906.476562v1.902344l-38.242187 1.914062zm0 0" fill="#f9d889"/><path d="m135.6875 505.824219-1.203125-29.390625 26.359375.046875-.519531 29.355469zm0 0" fill="#f9d889"/><path d="m106.636719 505.804688-.289063-1.652344c-1.53125-8.742188-2.296875-18.386719 3.628906-23.667969 4.210938-3.757813 10.679688-4.070313 16.414063-4.070313l4.027344.003907 1.203125 29.398437zm0 0" fill="#f9d889"/><path d="m92.898438 9.910156 34.984374-.511718 1.277344 24.183593-33.703125 1.6875zm0 0" fill="#f9d889"/><path d="m71.019531 36.394531c-4.445312 0-10.015625-.460937-13.609375-4.066406-4.78125-4.792969-3.996094-12.9375-2.597656-20.277344l.304688-1.601562 33.707031-.488281 2.574219 25.507812-15.941407.796875c-1.21875.058594-2.824219.128906-4.4375.128906zm0 0" fill="#f9d889"/><path d="m350.410156 11.117188c-9.980468-12.691407-30.15625-11.492188-44.882812-10.617188-3.023438.179688-5.878906.347656-8.347656.386719l-257.84375 3.730469c-13.335938.191406-27.929688 1.90625-35.074219 13.160156-4.4375 6.992187-4.324219 15.394531-4.2343752 22.148437l5.7890622 435.035157c.132813 9.875.757813 19.339843 6.867188 26.597656 7.964844 9.460937 21.109375 10.257812 32.800781 10.269531l265.507813.171875h.15625c10.628906 0 22.574218-.71875 30.199218-8.941406 6.710938-7.238282 7.421875-17.4375 7.574219-27.265625l5-319.1875 1.433594-91.355469c.144531-9 .285156-18 .417969-27 .011718-.808594.03125-1.628906.050781-2.460938.1875-8.101562.398437-17.285156-5.414063-24.671874zm-116.632812 15.238281-21.429688 1.070312c.003906-.058593.019532-.113281.019532-.171875v-17.078125l20.46875-.292969zm-177-13.925781 30.238281-.4375 2.179687 21.585937-13.835937.691406c-6.359375.316407-12.875.320313-16.535156-3.355469-4.023438-4.039062-3.433594-11.203124-2.046875-18.484374zm40.480468 20.742187-2.148437-21.296875 30.882813-.449219 1.0625 20.257813zm37.851563-1.890625-1.046875-19.972656 33.847656-.488282c0 .128907-.015625.257813-.003906.390626l1.542969 18.328124c0 .007813.003906.015626.003906.027344zm40.84375-20.578125 28.347656-.410156v16.960937c0 .195313.03125.382813.058594.570313l-26.882813 1.34375c0-.105469.015626-.203125.007813-.308594zm-64.648437 471.273437c3.714843-3.3125 9.730468-3.597656 16.035156-3.5625l1.15625.003907 1.042968 25.402343-21.214843-.015624c-1.453125-8.273438-2.164063-17.242188 2.980469-21.828126zm114.398437-3.355468c3.941406.007812 7.132813.132812 9.410156 1.625 2.171875 1.421875 3.652344 4.472656 3.855469 7.960937.21875 3.710938-.800781 7.664063-1.785156 11.488281-.414063 1.609376.203125 3.238282 1.4375 4.195313l-39.6875-.027344-.417969-25.300781zm-35.253906-.074219.417969 25.3125-24.449219-.015625.453125-25.34375zm-32.09375 25.289063-20.746094-.011719-1.042969-25.390625 22.242188.046875zm182.503906-28.167969c-.132813 8.605469-.652344 16.757812-5.425781 21.910156-5.453125 5.878906-15.023438 6.34375-24.4375 6.359375l-40.828125-.027344-.25-36.292968 20.019531.320312h.066406c.015625 0 .023438-.003906.035156-.003906.011719 1.121094.101563 2.234375.277344 3.320312 1.40625 8.578125 7.457032 13.738282 15.769532 13.738282.953124 0 1.9375-.070313 2.945312-.207032 7.058594-.96875 12.746094-5.75 15.605469-13.117187 2.941406-7.582031 2.027343-16.152344-2.277344-21.324219-3.566406-4.285156-9.03125-5.980469-15.371094-4.777344-7.953125 1.511719-13.394531 7.566406-15.703125 14.535156-.386718-.128906-.789062-.222656-1.214844-.226562l-20.375-.328125c-1.164062-.023437-3.332031-.050781-5.21875 1.417969-2.652343 2.0625-2.628906 5.308594-2.621093 6.695312l.25 36.246094-18.582031-.015625c.695312-.527344 1.234374-1.273437 1.46875-2.183594 1.085937-4.222656 2.320312-9.003906 2.027343-13.976562-.359375-6.074219-3.15625-11.398438-7.488281-14.234375-4.460938-2.917969-9.863281-2.929688-13.808594-2.9375l-12.410156-.023438.578125-38.429687c.003906-.40625.019531-.734375.042969-.984375.246094-.011719.570312-.011719.972656 0l30.800781.839844h.113281c2.175782 0 3.96875-1.734376 4.027344-3.921876.0625-2.226562-1.695312-4.078124-3.917968-4.140624l-30.804688-.839844c-1.492188-.042969-4.605469-.125-6.910156 2.074218-2.316406 2.210938-2.363282 5.34375-2.390625 6.851563l-.578125 38.53125-77.886719-.164063c-6.015625-.011718-15.09375-.035156-21.421875 5.609376-7.722656 6.882812-7.4375 17.753906-5.792969 27.839843l-54.652343-.039062c-9.882813-.003907-20.90625-.582031-26.640626-7.394531-2.808593-3.335938-4.007812-7.785157-4.539062-12.742188l58.925781 1.273438h.085938c2.1875 0 3.984375-1.75 4.03125-3.945313.046875-2.226563-1.71875-4.070313-3.945313-4.117187l-59.515625-1.285157c-.003906-.230469-.007812-.464843-.011719-.699219l-.4375-32.761718 30.089844-1.523438c.261719 1.964844.816406 3.839844 1.671875 5.566406 3.449219 6.957032 11.207031 11.207032 19.453125 11.207032 2.050782 0 4.132813-.261719 6.1875-.8125 8.0625-2.15625 14.640625-8.21875 17.167969-15.820313 2.394531-7.195312.621094-15.503906-4.625-21.695312-4.878906-5.75-11.960937-8.523438-18.964844-7.414063-7.070312 1.117188-13.960937 6.644532-17.976562 14.417969-1.109375 2.144531-1.914063 4.3125-2.429688 6.453125l-30.683593 1.550781-.371094-27.828125 75.398437-2.453125c2.222657-.074219 3.96875-1.9375 3.898438-4.160156-.070313-2.226563-1.933594-3.980469-4.160157-3.898437l-75.242187 2.449218-.386719-28.941406 32.707032-.957031c2.976562-.085938 7.472656-.21875 10.835937-3.289063 3.980469-3.636718 4.003906-9.359375 4.011719-12.433594l.074218-19.621093c2.058594-.214844 4.097657-.757813 6.042969-1.679688 4.480469-2.128906 7.992188-5.785156 9.636719-10.03125 3.058594-7.894531.65625-15.578125-6.421875-20.542969-7.714844-5.410156-20.554687-6.765624-28.699219.328126-6.589844 5.738281-7.746094 13.785156-3.019531 20.996093 3.085937 4.710938 8.464844 8.578125 14.398437 10.207031l-.074218 20.3125c-.007813 2.546876-.125 5.359376-1.386719 6.511719-1.0625.96875-3.367187 1.117188-5.632813 1.183594l-32.578124.953125-2.226563-167.105469 24.664063.0625h.007812c2.222656 0 4.027344-1.800781 4.03125-4.023437.007812-2.226563-1.792969-4.035156-4.019531-4.042969l-24.789063-.058594-.710937-53.363281 52.039062-6.875c1.542969-.203125 5.148438-.679688 6.300781.570312.804688.875.894532 3.132813.949219 4.625l1.109375 28.605469c.015625.414063.109375.800781.238282 1.171875l-17.769532 3.082032c-2.136718.371093-3.597656 2.363281-3.308594 4.511718l3.304688 24.496094c.21875 1.628906.628906 4.65625 2.988281 6.730469 1.8125 1.589843 3.984375 1.972656 5.8125 1.972656 1.113281 0 2.101563-.140625 2.800781-.242187l34.183594-4.953126c2.167969-.316406 3.691406-2.304687 3.425782-4.480468-.078126-.628906-.296876-1.207032-.621094-1.703125-.230469-.945313-.601563-3.003907-.910156-4.710938-2.375-13.210937-4.855469-24.316406-11.203126-26.429687-3.449218-1.148438-7.410156-.554688-10.886718.179687l-1.105469-28.542969c-.097656-2.511718-.261719-6.714843-3.078125-9.769531-3.988281-4.335937-10.269531-3.503906-13.285156-3.105469l-51.09375 6.75-.3125-23.542968 77.640625-3.324219c2.730469 7.832031 9.804687 14.066406 17.980469 15.425781 1.171874.191406 2.347656.285156 3.519531.285156 8.472656 0 16.691406-4.921874 20.402343-12.585937 4.257813-8.785156 1.871094-20.113281-5.546874-26.351563-7.652344-6.429687-18.488282-7.515624-26.976563-2.695312-6.617187 3.757812-10.449219 10.390625-10.613281 17.90625l-76.511719 3.273438-.707031-53.050782c-.074219-5.679687-.171875-12.753906 2.980468-17.714844 2.925782-4.613281 8.019532-6.972656 14.054688-8.1875l1.0625 58.570313c.039062 2.203125 1.835938 3.960937 4.027344 3.960937h.074218c2.226563-.039062 4-1.878906 3.960938-4.105468l-1.078125-59.429688c2.066406-.132812 4.167969-.199218 6.28125-.230468l9.09375-.132813c-1.1875 6.65625-2.246094 17.21875 4.566406 24.054687 4.832031 4.855469 11.515625 5.851563 18.015625 5.851563 1.566406 0 3.121094-.058594 4.636719-.132813l162.46875-8.113281c1.074219-.054687 2.082031-.535156 2.800781-1.332031.714844-.800781 1.085938-1.855469 1.023438-2.925781l-1.152344-20.183594 26.015625-.375c-.097656.355469-.167969.722656-.164063 1.109375l.3125 44.210938c.011719 1.480468.035157 4.566406-1.074218 5.492187-.824219.6875-2.914063.722656-4.296875.746094l-57.886719.929687c-1.046875-3.480468-3.152344-6.636718-6.253906-9.082031-5.507813-4.339844-13.023438-5.644531-19.613282-3.40625-6.054687 2.058594-10.425781 6.769531-11.992187 12.933594-1.363281 5.351562-.34375 11.121093 2.785156 15.824219 3.105469 4.671874 7.996094 7.816406 13.414063 8.621093.964844.144531 1.921875.214844 2.871094.214844 7.683593 0 14.644531-4.605469 17.882812-12.101563.707031-1.636718 1.175781-3.296874 1.429688-4.949218l57.496093-.925782c2.519531-.039062 6.324219-.101562 9.332031-2.617187 4.03125-3.367187 3.992188-8.8125 3.96875-11.738281l-.3125-44.210938c-.003906-.40625-.085937-.792968-.199218-1.164062l22.675781-.328125c2.652344-.039063 5.59375-.214844 8.710937-.398438 6.019532-.359375 12.683594-.75 18.890626-.285156l-2.582032 87.101563c-.066406 2.222656 1.683594 4.082031 3.910156 4.148437h.121094c2.171875 0 3.964844-1.726563 4.027344-3.910156l2.554688-86.089844c4.5625 1.175781 8.484374 3.203125 11.148437 6.585937 4.019531 5.113282 3.851563 12.429688 3.6875 19.503907-.019531.851562-.035156 1.695312-.050781 2.53125-.132813 8.996093-.273438 17.992187-.417969 26.988281l-.199219 12.457031-4.652344 297.117188-77.691406-.328125c-.683594-5.480469-3.128906-10.695313-7.121094-14.414063-11.449218-10.667969-28.316406-7.820312-38.007812 1.101563-9.632812 8.867187-10.546875 21.339844-2.332031 31.773437 4.9375 6.261719 12.945312 10.039063 21.148437 10.039063.414063 0 .828125-.007813 1.242188-.027344 9.917968-.464844 19.234375-6.652344 23.179687-15.402344.726563-1.609375 1.25-3.292968 1.59375-5.007812l77.863281.328125-.4375 27.957031c-.019531 0-.039062 0-.058593 0l-63.421875 1.097656c-2.226563.039063-4 1.875-3.960938 4.101563.035156 2.203125 1.835938 3.960937 4.03125 3.960937h.070313l63.214843-1.09375zm-32.367187-22.179688c.84375-.160156 1.632812-.238281 2.375-.238281 2.269531 0 4.046874.753906 5.292968 2.253906 2.449219 2.941406 2.84375 8.390625.957032 13.25-.835938 2.152344-3.402344 7.25-9.179688 8.042969-6.910156.949219-9.066406-3.199219-9.664062-6.84375-1.089844-6.664063 2.839843-15.0625 10.21875-16.464844zm-254.878907-23.769531c2.816407-5.457031 7.554688-9.441406 12.070313-10.15625 4.25-.671875 8.46875 1.027344 11.554687 4.667969 3.386719 3.992187 4.613281 9.460937 3.125 13.933593-1.65625 4.980469-6.210937 9.132813-11.605469 10.578126-6.453124 1.726562-13.777343-1.050782-16.328124-6.191407-1.671876-3.367187-1.226563-8.164062 1.183593-12.832031zm9.070313-105.792969c-6.164063 2.925781-14.742188-.957031-18.300782-6.386719-2.527343-3.855468-2-7.390624 1.570313-10.5 2.292969-1.996093 5.410156-2.863281 8.605469-2.863281 3.675781 0 7.449218 1.152344 10.167968 3.058594 2.800782 1.964844 5.6875 5.472656 3.535157 11.03125-.90625 2.34375-2.9375 4.40625-5.578125 5.660156zm23.316406-157.347656c2.648438 1.976563 5.117188 15.710937 5.933594 20.246094.136718.757812.265625 1.472656.386718 2.136719l-29.6875 4.300781c-1.230468.179687-1.835937.183593-2.121093.136719-.164063-.429688-.289063-1.363282-.335938-1.695313l-2.785156-20.648437 17.125-2.96875c1-.175782 2.046875-.410157 3.152344-.660157 2.839843-.640625 6.355469-1.4375 8.332031-.847656zm10.992188 21.710937c.140624-.015624.273437-.023437.40625-.023437.046874 0 .089843 0 .132812.003906-.175781-.007812-.359375 0-.539062.019531zm2.914062-109.589843c2.09375-1.191407 4.738281-1.9375 7.546875-1.9375 3.398437 0 7.042969 1.089843 10.253906 3.792969 4.605469 3.871093 6.132813 11.191406 3.484375 16.664062-2.664062 5.488281-9.261718 8.871094-15.351562 7.859375-6.007813-.996094-11.285156-6.335937-12.277344-12.417969-.980469-6.027344 1.328125-11.117187 6.34375-13.960937zm95.59375-7.011719c-1.800781 4.171875-6.265625 7.988281-12.164062 7.109375-3.167969-.472656-6.042969-2.335937-7.886719-5.113281-1.871094-2.808594-2.484375-6.226563-1.683594-9.375 1.203125-4.746094 4.757813-6.601563 6.769531-7.285156 1.300782-.441407 2.660156-.65625 4.019532-.65625 2.855468 0 5.714843.957031 8.011718 2.765624 4.597656 3.621094 4.53125 8.859376 2.933594 12.554688zm60.011719 312.4375c-2.730469 6.050781-9.246094 10.335938-16.210938 10.664062-6.085937.277344-12.078125-2.378906-15.675781-6.945312-8.265625-10.496094-.972656-18.617188 1.457031-20.855469 3.90625-3.589843 9.375-5.855469 14.847657-5.855469 4.328124 0 8.65625 1.417969 12.203124 4.722657 4.664063 4.347656 6.117188 12.199219 3.378907 18.269531zm0 0" fill="#231f20"/><path d="m249.898438 294.808594 37.164062-.625c1.457031-.027344 2.09375.082031 2.363281.175781.101563.484375.015625 1.570313-.011719 1.953125l-2.042968 26.550781c-.042969.570313.035156 1.121094.214844 1.632813-1.667969.007812-3.386719.019531-5.09375.03125-4.042969.027344-8.003907.054687-10.953126.078125l-4.554687.039062c-3.28125.042969-4.246094 2.453125-4.320313 3.863281l-.910156 21.140626c-.050781 1.152343-.132812 3.082031.867188 4.941406 1.984375 3.691406 6.339844 4.042968 7.980468 4.175781l32.960938 2.667969c.683594.054687 1.507812.121094 2.410156.121094 2.089844 0 4.597656-.359376 6.734375-2.054688 4.457031-3.53125 3.617188-9.601562 3.257813-12.195312-.152344-1.085938-.226563-2.722657-.308594-4.453126-.234375-4.933593-.496094-10.519531-2.636719-13.953124-3.027343-4.859376-7.539062-4.671876-10.835937-4.535157-.566406.023438-1.152344.046875-1.757813.050781-.609375.003907-2.554687.011719-5.222656.03125.101563-.308593.179687-.628906.207031-.964843l2.042969-26.550781c.136719-1.773438.386719-5.066407-1.746094-7.699219-2.609375-3.214844-6.777343-3.144531-8.78125-3.113281l-35.339843.59375c.199218-1.234376.378906-2.457032.535156-3.644532.691406-5.234375 1.214844-10.503906 1.605468-15.792968l34.890626-.503907c2.230468-.03125 4.007812-1.863281 3.976562-4.089843-.03125-2.226563-1.832031-4.023438-4.089844-3.972657l-34.289062.496094c.152344-3.371094.234375-6.75.265625-10.125l53.53125.902344c.023437.003906.046875.003906.070312.003906 1.972657 0 3.664063-1.4375 3.976563-3.394531 2.683594-16.710938 3.746094-33.75 3.1875-50.667969l.222656.019531c.765625.058594 1.679688.125 2.675781.125 2.429688 0 5.347657-.410156 7.765625-2.394531 3.628906-2.984375 4.027344-7.628906 3.96875-11.34375-.011718-.683594-.011718-1.417969-.015625-2.191406-.011719-7.320313-.03125-18.375-8.125-22.867188-5.878906-3.261719-14.167969-2.777343-21.480469-2.34375-2.292968.132813-4.464843.261719-6.203124.238281-1.847657-.03125-5.675782-.082031-8.207032 2.785157-2.265625 2.5625-2.082031 5.871093-1.984375 7.648437l.949219 17.027344c.128906 2.242188.359375 6.414062 3.40625 9.164062 2.53125 2.289063 5.886719 2.542969 7.890625 2.691407l11.058594.832031c.566406 15.527344-.285157 31.164062-2.539063 46.546875l-50.105468-.851563c-.027344 0-.050782.007813-.074219.007813-.046875-2.273437-.113281-4.546875-.210938-6.816406-.085937-1.960938-.105469-4.40625-.128906-7.234375-.105469-13.269532-.25-31.4375-7.191406-39.59375-2.496094-2.933594-6.34375-4.609375-10.859375-5.515625l-.082032-40.96875c-.003906-1.320313-.007812-2.960938.484376-3.746094.976562-1.550781 5.164062-1.496094 6.53125-1.476563l55.164062.722657c.34375.96875.757812 1.9375 1.261719 2.890625 3.242187 6.160156 9.976562 9.820312 16.746093 9.820312 2.578126 0 5.164063-.53125 7.5625-1.65625 8.699219-4.074218 12.953126-15.023437 9.28125-23.902344-2.746093-6.644531-8.125-10.839843-14.753906-11.511718-7.03125-.707032-14.378906 2.722656-18.304687 8.542968-1.605469 2.378907-2.546875 5.007813-2.832031 7.742188l-54.019532-.710938c-3.011718-.042968-10.074218-.132812-13.460937 5.246094-1.734375 2.761719-1.726563 5.820313-1.722657 8.058594l.078126 40.078125c-4.796876-.1875-9.84375.066406-14.585938.363281.179688-.476562.277344-1 .261719-1.542968l-1.617188-59.371094c-.097656-3.589844-.054687-6.980469 1.511719-9.015625 2.140625-2.78125 7.035156-3.050781 12.007812-2.929688l49.136719 1.226563c5.222657.132812 14.949219.375 20.394531-6.441406 3.433594-4.292969 3.796876-9.828126 4.0625-13.871094l2.230469-34.136719c.128907.003906.261719.015625.390625.015625 4.503906 0 8.914063-1.882812 12.566406-5.46875 8.472657-8.3125 6.84375-19.265625.855469-25.792969-5.667969-6.179687-16.003906-9.199219-25.292969-1.230469-5.28125 4.53125-7.539062 10.796876-6.191406 17.1875 1.15625 5.488282 4.886719 10.382813 9.734375 13.082032l-2.339843 35.816406c-.253907 3.855469-.601563 7.222656-2.3125 9.363281-2.59375 3.242188-8.207032 3.554688-13.898438 3.417969l-49.132812-1.226562c-4.773438-.121094-13.664063-.34375-18.601563 6.066406-3.445313 4.476562-3.285156 10.300781-3.179687 14.15625l1.617187 59.371094c.015625.644531.199219 1.238281.480469 1.769531-1.359375.0625-2.574219.097656-3.59375.078125l-51.121094-.949219c-6.625-.125-13.570312.117187-19.847656 1.691406l-7.902344-44.15625c-.3125-1.746093-.253906-2.453125-.1875-2.71875.441406-.148437 1.5-.203125 1.871094-.222656l26.898437-1.378906c.429688 2.550781 1.285157 4.914062 2.585938 6.898437 3.289062 5.023438 8.921875 8.042969 14.625 8.042969.941406 0 1.886719-.082031 2.820312-.253906 4.851563-.875 9.46875-4.117188 12.671875-8.894531 4.6875-6.992188 5.003906-16.894532.765625-24.082032-3.53125-5.992187-9.632812-9.085937-16.761719-8.472656-5.929687.503906-11.125 4.480469-14.25 10.910156-1.21875 2.5-2.03125 5.144532-2.449218 7.777344l-27.316406 1.402344c-1.777344.089844-4.742188.242187-7.035157 2.402344-3.398437 3.195312-2.542969 7.972656-2.175781 10.011718l8.164062 45.625c-3.300781 1.753906-6.210937 4.128906-8.496093 7.367188-5.132813 7.289062-5.207031 16.726562-5.265625 23.617187l-.066406 8.363281-22.179688-.5c-2.230469-.035156-4.074219 1.714844-4.121094 3.941407-.050781 2.226562 1.710938 4.070312 3.9375 4.121093l22.296875.503907-.128906 16.101562-59 .742188-1.644531-25.324219c-.144532-2.222656-2.066406-3.914062-4.285156-3.761719-2.222657.144531-3.90625 2.0625-3.761719 4.285157l1.894531 29.144531c.136719 2.121093 1.898438 3.769531 4.023438 3.769531h.050781l62.65625-.789062-.15625 19.148437-44.332031-1.070313c-2.214844-.03125-4.074219 1.707032-4.128907 3.929688-.054687 2.226562 1.707031 4.074219 3.933594 4.128906l44.460937 1.074219-.058593 7.546875c-.085938 10.316406.941406 20.675781 8.953125 26.574219 4.679687 3.445312 10.398437 4.125 15.332031 4.234375l-1.894531 28.117187c-.066406.96875-.265625 3.914063-1.164063 4.5-.648437.425781-2.539062.195313-3.550781.070313l-15.765625-1.929688c-.25-.03125-.492187-.027344-.730469-.015625-.84375-6.804687-2.546875-13.117187-5.808594-15.132812-6.183593-3.824219-16.9375-.976563-25.578124 1.3125-2.363282.625-4.597657 1.214843-6.066407 1.464843-1.984375.335938-3.414062 2.085938-3.351562 4.097657l.683593 22.328125c.066407 2.160156.191407 6.175781 3.234376 8.832031 2.246093 1.949219 5.082031 2.222656 7.105468 2.222656.449219 0 .859375-.011719 1.214844-.023437l25.007812-.828125c1.410157-.046875 3.277344-.921875 3.894532-3.234375.242187-.898438.558594-6.414063.304687-12.914063l14.878907 1.820313c.851562.105468 1.929687.238281 3.109374.238281 1.839844 0 3.933594-.320313 5.828126-1.558594 4.265624-2.785156 4.628906-8.136719 4.800781-10.710937l1.9375-28.6875 27.351562-.25-2.628906 69.476562c-8.125 1.164063-15.5 6.65625-18.957031 14.566406-3.777344 8.648438-1.820313 17.902344 5.113281 24.148438 4.199219 3.785156 9.765625 5.75 15.390625 5.75 3.832031 0 7.6875-.910156 11.160156-2.777344 8.804688-4.738281 13.324219-14.757812 11.246094-24.933594-1.753906-8.582031-7.734375-14.664062-15.894531-16.453124l2.644531-69.851563 18.390625-.167969c-.515625.65625-.847656 1.464844-.878906 2.359375l-1.625 48.996094c-.074219 2.226563 1.667969 4.089844 3.894531 4.164063h.136719c2.164062 0 3.957031-1.714844 4.027343-3.894532l1.628907-49c.035156-1.019531-.328125-1.949218-.925781-2.679687l6.652343-.058594c8.367188-.078125 19.824219-.179687 28.519531-6.421875 7.003907-5.027344 10.679688-12.832031 12.796876-20.785156zm50.5625 37.667968c.710937-.003906 1.394531-.027343 2.054687-.054687 3.113281-.128906 3.210937.019531 3.660156.742187 1.027344 1.648438 1.277344 6.917969 1.421875 10.066407.09375 1.917969.175782 3.734375.378906 5.183593.511719 3.699219-.023437 4.566407-.277343 4.769532-.570313.449218-2.613281.285156-3.488281.214844l-32.960938-2.667969c-.726562-.058594-1.179688-.132813-1.460938-.199219.003907-.195312.015626-.398438.019532-.53125l.746094-17.324219c8.265624-.066406 27.511718-.1875 29.90625-.199219zm-6.839844-146.664062c-.585938-.53125-.707032-2.707031-.757813-3.632812l-.949219-17.027344c-.046874-.871094-.042968-1.476563.015626-1.804688.285156-.074218.847656-.132812 2.011718-.121094 2.042969.027344 4.34375-.105468 6.789063-.25 5.910156-.347656 13.261719-.78125 17.097656 1.347657 3.949219 2.191406 3.964844 10.398437 3.972656 15.828125 0 .816406.003907 1.589844.015625 2.308594.042969 2.714843-.300781 4.390624-1.027344 4.984374-.90625.746094-3.289062.5625-4.714843.457032l-19.363281-1.453125c-.90625-.070313-2.601563-.199219-3.089844-.636719zm13.007812-60.726562c2.085938-3.089844 5.984375-5.082032 9.761719-5.082032.351563 0 .699219.015625 1.046875.050782 2.574219.261718 6.066406 1.613281 8.117188 6.570312 2.003906 4.847656-.5 11.296875-5.253907 13.523438-4.753906 2.226562-11.304687.023437-13.75-4.621094-2.523437-4.792969-1.347656-8.324219.078125-10.441406zm-11.46875-96.171876c2.367188-2.03125 4.714844-2.832031 6.859375-2.832031 2.945313 0 5.511719 1.503907 7.246094 3.390625 3.375 3.675782 4.507813 9.613282-.5625 14.585938-2.867187 2.8125-6.109375 3.777344-9.390625 2.785156-3.714844-1.121094-6.878906-4.628906-7.699219-8.527344-.519531-2.457031-.324219-6.082031 3.546875-9.402344zm-133.25 92.902344c.878906-1.804687 3.382813-6.039062 7.6875-6.40625.371094-.03125.730469-.046875 1.074219-.046875 4.394531 0 6.796875 2.441407 8.054687 4.578125 2.636719 4.472656 2.414063 11.136719-.515624 15.5-1.992188 2.976563-4.695313 4.960938-7.410157 5.453125-3.347656.609375-7.246093-1.191406-9.265625-4.277343-2.234375-3.40625-2.070312-9.769532.375-14.800782zm-58.507812 247.910156-21.578125.710938c-1.96875.066406-2.585938-.085938-2.753907-.21875-.117187-.101562-.398437-.601562-.472656-3l-.582031-18.984375c1.027344-.257813 2.140625-.550781 3.320313-.863281 5.503906-1.457032 15.65625-4.144532 19.085937-2.355469 2.054687 2.792969 3.1875 17.796875 2.980469 24.710937zm79.226562 40.492188c1.132813 5.546875-.644531 12.710938-7.167968 16.21875-5.539063 2.980469-12.828126 2.195312-17.332032-1.859375-6.246094-5.628906-4.261718-12.316406-3.121094-14.933594 2.300782-5.265625 8.304688-10.609375 16.035157-9.914062 6.023437.546875 10.355469 4.46875 11.585937 10.488281zm49.769532-101.171875c-6.125 4.394531-14.441407 4.824219-23.890626 4.910156l-71.070312.640625c-5.714844.058594-10.746094-.113281-14.222656-2.671875-5.097656-3.753906-5.738282-11.835937-5.671875-20.015625l.609375-75.355468c.0625-7.554688.390625-14.203126 3.796875-19.035157 5.089843-7.226562 15.445312-8.5625 26.332031-8.5625.976562 0 1.960938.011719 2.941406.027344l51.125.949219c2.539063.050781 5.738282-.160156 9.449219-.398438 9.347656-.609375 24.988281-1.621094 28.980469 3.0625 5.042968 5.925782 5.183594 23.773438 5.269531 34.433594.023437 2.90625.042969 5.417969.136719 7.523438.695312 15.84375.003906 31.8125-2.054688 47.460937-1.339844 10.164063-3.777344 21.320313-11.730468 27.03125zm0 0" fill="#231f20"/><path d="m205.691406 212.503906c-5.933594-1.550781-12.859375.910156-17.640625 6.277344-2.023437 2.269531-3.167969 4.597656-4.089843 6.46875-.296876.601562-.671876 1.367188-.964844 1.84375-.300782-.105469-.761719-.304688-1.429688-.679688-1.957031-1.097656-3.515625-2.65625-5.160156-4.304687-3.203125-3.203125-6.832031-6.835937-13.722656-7.476563-10.78125-1.007812-21.597656 7.191407-24.621094 18.652344-2.488281 9.425782-.089844 20.261719 6.578125 29.730469 5.886719 8.359375 14.132813 14.597656 21.402344 19.789063 5.847656 4.171874 12.136719 7.910156 18.949219 7.910156 1.265624 0 2.542968-.128906 3.84375-.40625 8.980468-1.921875 14.191406-10.160156 17.332031-16.1875 5.328125-10.230469 9.125-21.15625 11.289062-32.484375.917969-4.8125 1.667969-10.480469.253907-16.011719-1.683594-6.59375-6.289063-11.625-12.019532-13.121094zm3.847656 27.621094c-2.019531 10.554688-5.554687 20.738281-10.519531 30.269531-3.796875 7.289063-7.566406 11.109375-11.867187 12.03125-5.25 1.121094-10.996094-2.308593-16.425782-6.183593-6.726562-4.804688-14.335937-10.542969-19.492187-17.863282-5.21875-7.410156-7.226563-16.019531-5.375-23.035156 1.910156-7.238281 8.5-12.730469 15.023437-12.730469.351563 0 .703126.015625 1.054688.050781 3.992188.371094 5.992188 2.375 8.765625 5.148438 1.867187 1.871094 3.988281 3.992188 6.917969 5.636719 1.957031 1.097656 4.902344 2.449219 7.898437 1.519531 3.121094-.96875 4.476563-3.726562 5.675781-6.15625.777344-1.582031 1.582032-3.214844 2.875-4.664062 2.28125-2.5625 6.128907-4.742188 9.582032-3.839844 3.242187.847656 5.472656 4.285156 6.246094 7.316406 1.019531 3.980469.429687 8.359375-.359376 12.5zm0 0" fill="#231f20"/></svg>