<svg id="color_line" height="512" viewBox="0 0 74 74" width="512" xmlns="http://www.w3.org/2000/svg" data-name="color line"><path d="m27.22 37h19.7v23.68h-19.7z" fill="#05afd6"/><path d="m27.22 13.32h19.7v23.68h-19.7z" fill="#fe7058"/><path d="m43.23 37h3.69v23.68h-3.69z" fill="#27a2db"/><path d="m43.23 13.32h3.69v23.68h-3.69z" fill="#ea6453"/><g fill="#323c6b"><path d="m23.97 70c-12.587 0-18.97-11.107-18.97-33.005s6.383-32.995 18.97-32.995c4.27 0 8.572 1.109 11.124 9.159a.5.5 0 1 1 -.953.3c-2.226-7.016-5.676-8.459-10.171-8.459-11.923 0-17.97 10.768-17.97 31.995s6.047 32.005 17.97 32.005c4.5 0 7.947-1.439 10.171-8.461a.5.5 0 0 1 .953.3c-2.548 8.047-6.852 9.161-11.124 9.161z"/><path d="m25.517 61.4c-4.4 0-10.255-2.53-10.255-24.406s5.853-24.4 10.255-24.4a6.927 6.927 0 0 1 1.9.234.5.5 0 0 1 -.272.962 5.949 5.949 0 0 0 -1.626-.2c-3.973 0-9.255 2.425-9.255 23.4s5.28 23.41 9.253 23.41a5.949 5.949 0 0 0 1.626-.2.5.5 0 1 1 .272.962 6.927 6.927 0 0 1 -1.898.238z"/><path d="m49.358 70c-4.271 0-8.576-1.109-11.124-9.159a.5.5 0 0 1 .953-.3c2.224 7.016 5.674 8.459 10.171 8.459 11.923 0 17.969-10.767 17.969-32s-6.045-32-17.969-32c-4.495 0-7.944 1.439-10.171 8.461a.5.5 0 1 1 -.953-.3c2.553-8.047 6.855-9.161 11.124-9.161 12.587 0 18.969 11.1 18.969 32.99s-6.382 33.01-18.969 33.01z"/><path d="m47.811 61.4a6.925 6.925 0 0 1 -1.9-.234.5.5 0 0 1 .272-.962 5.948 5.948 0 0 0 1.625.2c3.974 0 9.256-2.426 9.256-23.406s-5.282-23.4-9.256-23.4a5.948 5.948 0 0 0 -1.625.2.5.5 0 0 1 -.272-.962 6.925 6.925 0 0 1 1.9-.234c4.4 0 10.256 2.529 10.256 24.4s-5.853 24.398-10.256 24.398z"/><path d="m18.937 37.5a.5.5 0 0 1 -.382-.177l-2.813-3.332-3.156 3.352a.5.5 0 0 1 -.729-.686l3.543-3.757a.492.492 0 0 1 .378-.157.5.5 0 0 1 .368.177l3.175 3.76a.5.5 0 0 1 -.381.823z"/><path d="m9.512 24.721a.5.5 0 0 1 -.45-.28l-1.914-3.919-3.878 2.478a.5.5 0 0 1 -.539-.843l4.351-2.782a.508.508 0 0 1 .4-.06.5.5 0 0 1 .314.262l2.165 4.423a.5.5 0 0 1 -.449.72z"/><path d="m57.594 41.26h-.014a.5.5 0 0 1 -.368-.177l-3.175-3.76a.5.5 0 1 1 .764-.646l2.813 3.332 3.155-3.352a.5.5 0 0 1 .729.686l-3.54 3.76a.5.5 0 0 1 -.364.157z"/><path d="m66.156 54.645a.5.5 0 0 1 -.465-.317l-1.8-4.58a.5.5 0 0 1 .931-.366l1.6 4.058 4.064-2.163a.5.5 0 1 1 .47.883l-4.559 2.427a.5.5 0 0 1 -.241.058z"/><path d="m37.067 29.26a.5.5 0 0 1 -.5-.5v-6.75a.5.5 0 0 1 1 0v6.75a.5.5 0 0 1 -.5.5z"/><path d="m40.442 25.885h-6.75a.5.5 0 0 1 0-1h6.75a.5.5 0 0 1 0 1z"/><path d="m40.442 49.792h-6.75a.5.5 0 0 1 0-1h6.75a.5.5 0 0 1 0 1z"/><path d="m46.92 61.18h-19.7a.5.5 0 0 1 -.5-.5v-23.68a.5.5 0 0 1 .5-.5h19.7a.5.5 0 0 1 .5.5v23.68a.5.5 0 0 1 -.5.5zm-19.2-1h18.7v-22.68h-18.7z"/><path d="m46.92 37.5h-19.7a.5.5 0 0 1 -.5-.5v-23.68a.5.5 0 0 1 .5-.5h19.7a.5.5 0 0 1 .5.5v23.68a.5.5 0 0 1 -.5.5zm-19.2-1h18.7v-22.68h-18.7z"/><path d="m24.22 30.313a.5.5 0 0 1 -.5-.5v-8.344a.5.5 0 0 1 1 0v8.344a.5.5 0 0 1 -.5.5z"/><path d="m24.22 19.813a.5.5 0 0 1 -.5-.5v-.5a.5.5 0 0 1 1 0v.5a.5.5 0 0 1 -.5.5z"/></g><path d="m29.753 53.03a.634.634 0 0 1 .642.645v.286a.644.644 0 1 1 -1.288.007v-.3a.634.634 0 0 1 .646-.638z" fill="#fff"/><path d="m29.775 44.345a.634.634 0 0 1 .617.669l-.025 6.437a.636.636 0 0 1 -.649.618h-.018a.64.64 0 0 1 -.617-.669l.025-6.437a.634.634 0 0 1 .667-.618z" fill="#fff"/></svg>