<svg id="color_line" height="512" viewBox="0 0 74 74" width="512" xmlns="http://www.w3.org/2000/svg" data-name="color line"><path d="m22.379 10.085 12.576 12.694c-1.753-1.77-6.773.368-11.215 4.768s-6.633 9.407-4.88 11.177l-12.576-12.694a11.328 11.328 0 1 1 16.1-15.945z" fill="#eeefee"/><path d="m34.95 22.78c-.74-.75-2.08-.8-3.71-.26l-9.36-9.46a11.326 11.326 0 0 0 -18.87 4.62 11.325 11.325 0 0 1 19.37-7.6z" fill="#e1e6e9"/><ellipse cx="26.911" cy="30.751" fill="#e1e6e9" rx="11.328" ry="4.51" transform="matrix(.71 -.704 .704 .71 -13.849 27.845)"/><path d="m20.605 39.832a2.85 2.85 0 0 1 -2.1-.755c-1.976-1.994.169-7.214 4.883-11.884a22.908 22.908 0 0 1 6.772-4.8c2.321-.986 4.15-.973 5.15.038 1.979 2-.16 7.218-4.869 11.884-3.506 3.468-7.304 5.517-9.836 5.517zm12.588-17.176a7.049 7.049 0 0 0 -2.642.653 21.892 21.892 0 0 0 -6.459 4.591c-4.6 4.561-6.239 9.1-4.877 10.47 1.336 1.349 5.987-.279 10.522-4.771s6.2-9.121 4.863-10.47a1.917 1.917 0 0 0 -1.407-.473z" fill="#323c6b"/><path d="m51.621 13.062-12.576 12.694c1.753-1.77 6.773.368 11.215 4.768s6.633 9.407 4.88 11.177l12.576-12.694a11.328 11.328 0 1 0 -16.1-15.945z" fill="#05afd6"/><path d="m70.96 20.1a11.315 11.315 0 0 0 -18.62-3.89l-9.3 9.39c-1.76-.64-3.2-.64-3.99.16l12.57-12.7a11.328 11.328 0 0 1 19.34 7.04z" fill="#27a2db"/><ellipse cx="47.089" cy="33.728" fill="#27a2db" rx="4.51" ry="11.328" transform="matrix(.704 -.71 .71 .704 -10.013 43.443)"/><path d="m53.395 42.809c-2.531 0-6.329-2.048-9.835-5.521-4.71-4.666-6.849-9.888-4.87-11.888 1-1.01 2.831-1.023 5.15-.038a22.91 22.91 0 0 1 6.772 4.8c4.714 4.669 6.859 9.89 4.883 11.884a2.851 2.851 0 0 1 -2.1.763zm-12.588-17.176a1.917 1.917 0 0 0 -1.406.475c-1.336 1.349.332 5.98 4.863 10.47s9.186 6.122 10.522 4.771c1.361-1.374-.274-5.909-4.877-10.47a21.894 21.894 0 0 0 -6.459-4.593 7.049 7.049 0 0 0 -2.643-.653z" fill="#323c6b"/><path d="m45.563 64.132a2.34 2.34 0 1 1 -3-1.384 2.348 2.348 0 0 1 3 1.384z" fill="#fcd462"/><path d="m43.383 67.777a2.836 2.836 0 1 1 2.648-3.82 2.826 2.826 0 0 1 -2.649 3.818zm-.019-4.669a1.825 1.825 0 0 0 -.626.111 1.838 1.838 0 1 0 2.362 1.088 1.85 1.85 0 0 0 -1.735-1.199z" fill="#323c6b"/><path d="m41.8 48.332a2.029 2.029 0 1 1 2.6 1.2 2.025 2.025 0 0 1 -2.6-1.2z" fill="#fcd462"/><path d="m43.713 50.155a2.526 2.526 0 0 1 -2.3-3.585 2.53 2.53 0 0 1 3.355-1.236 2.528 2.528 0 0 1 -.185 4.666 2.567 2.567 0 0 1 -.87.155zm0-4.056a1.529 1.529 0 0 0 -1.436 2.057 1.529 1.529 0 1 0 2.072-1.919 1.515 1.515 0 0 0 -.641-.137z" fill="#323c6b"/><path d="m33 62.1a2.333 2.333 0 1 1 -3-1.384 2.329 2.329 0 0 1 3 1.384z" fill="#fcd462"/><path d="m30.8 65.743a2.835 2.835 0 1 1 2.665-3.817 2.842 2.842 0 0 1 -2.665 3.817zm0-4.671a1.834 1.834 0 1 0 1.724 1.2 1.842 1.842 0 0 0 -1.724-1.2z" fill="#323c6b"/><path d="m33.226 45.383a2.456 2.456 0 1 1 1.46-3.149 2.45 2.45 0 0 1 -1.46 3.149z" fill="#fcd462"/><path d="m32.377 46.036a2.962 2.962 0 1 1 1.021-.184 2.941 2.941 0 0 1 -1.021.184zm0-4.912a1.95 1.95 0 0 0 -1.829 2.626 1.954 1.954 0 1 0 1.829-2.626z" fill="#323c6b"/><path d="m38.235 52.32a2.334 2.334 0 1 1 -3-1.393 2.329 2.329 0 0 1 3 1.393z" fill="#fcd462"/><g fill="#323c6b"><path d="m36.041 55.963a2.841 2.841 0 0 1 -.975-5.5 2.838 2.838 0 1 1 .975 5.5zm0-4.677a1.819 1.819 0 0 0 -1.66 1.066 1.835 1.835 0 1 0 3.388.141 1.834 1.834 0 0 0 -1.73-1.207z"/><path d="m9.583 5.05a.5.5 0 0 1 -.166-.972 14.844 14.844 0 0 1 4.936-.857 15.26 15.26 0 0 1 3.688.493.5.5 0 0 1 -.249.969 14.249 14.249 0 0 0 -3.442-.461 13.84 13.84 0 0 0 -4.6.8.5.5 0 0 1 -.167.028z"/><path d="m20.791 5.792a.5.5 0 0 1 -.224-.053l-.282-.15a.5.5 0 0 1 .431-.9c.063.03.125.064.187.1l.114.061a.5.5 0 0 1 -.225.947z"/><path d="m63.7 37.825a.5.5 0 0 1 -.355-.852l5.5-5.546a.5.5 0 0 1 .71.7l-5.5 5.546a.5.5 0 0 1 -.355.152z"/><path d="m61.794 39.748a.5.5 0 0 1 -.355-.852l.331-.333a.5.5 0 0 1 .71.7l-.331.333a.5.5 0 0 1 -.355.152z"/><path d="m55.141 42.2a.5.5 0 0 1 -.355-.852c1.361-1.374-.274-5.909-4.877-10.47a21.894 21.894 0 0 0 -6.459-4.593c-1.889-.8-3.364-.868-4.048-.179a.5.5 0 0 1 -.71-.7l12.575-12.696a11.793 11.793 0 0 1 8.349-3.51h.027a11.832 11.832 0 0 1 8.428 20.161l-12.571 12.692a.5.5 0 0 1 -.359.147zm-14.283-17.564a8.056 8.056 0 0 1 2.982.73 22.91 22.91 0 0 1 6.772 4.8c3.48 3.448 5.561 7.2 5.616 9.724l11.133-11.235a10.833 10.833 0 0 0 -7.715-18.455h-.025a10.8 10.8 0 0 0 -7.644 3.216z"/><path d="m18.859 39.224a.5.5 0 0 1 -.355-.148l-12.575-12.694a11.833 11.833 0 0 1 8.424-20.161h.029a11.8 11.8 0 0 1 8.353 3.511l12.575 12.695a.5.5 0 0 1 -.71.7c-.684-.687-2.159-.621-4.045.182a21.892 21.892 0 0 0 -6.463 4.591c-4.6 4.558-6.236 9.09-4.88 10.468a.5.5 0 0 1 -.355.852zm-4.509-32a10.831 10.831 0 0 0 -7.711 18.454l11.133 11.238c.055-2.528 2.135-6.276 5.616-9.724a22.908 22.908 0 0 1 6.772-4.8 8.056 8.056 0 0 1 2.982-.73l-11.119-11.225a10.8 10.8 0 0 0 -7.646-3.215z"/></g><path d="m48.409 37.772a.6.6 0 0 1 -.342-.1l-.288-.189a.6.6 0 1 1 .685-.985l.27.177a.6.6 0 0 1 -.325 1.1z" fill="#fff"/><path d="m46.446 36.24a.6.6 0 0 1 -.41-.153l-.15-.133c-.115-.1-.229-.2-.344-.312a18.457 18.457 0 0 1 -3.481-4.742.6.6 0 0 1 1.092-.5 17.224 17.224 0 0 0 3.22 4.378c.1.1.2.186.3.276l.16.141a.6.6 0 0 1 -.391 1.047z" fill="#fff"/></svg>