<svg id="color_line" height="512" viewBox="0 0 74 74" width="512" xmlns="http://www.w3.org/2000/svg" data-name="color line"><path d="m45.956 42.229v11.688h-17.915v-11.688a1.458 1.458 0 0 0 1.063-1.4v-2.329a1.453 1.453 0 0 1 1.453-1.453h.418a1.459 1.459 0 0 1 1.452 1.453v2.335a1.453 1.453 0 0 0 1.453 1.453h.01a1.459 1.459 0 0 0 1.453-1.453v-5.413a1.453 1.453 0 0 1 1.453-1.453h.418a1.459 1.459 0 0 1 1.453 1.453v5.412a1.453 1.453 0 1 0 2.905 0v-1.5a1.453 1.453 0 0 1 1.453-1.453h.418a1.459 1.459 0 0 1 1.453 1.453v1.5a1.447 1.447 0 0 0 1.06 1.395z" fill="#eeefee"/><path d="m33.753 24.586a10.736 10.736 0 0 0 7.116 0c3.824-1.575 5.281-6.133 2.268-9.195-4.549-4.622-5.278-12.391-5.278-12.391s-8.611 9.482-8.611 14.755c0 3.908 1.822 5.945 4.505 6.831z" fill="#fcd462"/><path d="m31.54 19.19a7.074 7.074 0 0 0 1.86 5.27c-2.49-.95-4.15-2.97-4.15-6.7 0-5.28 8.61-14.76 8.61-14.76a24.31 24.31 0 0 0 .63 3.38c-2.5 3.05-6.95 9.02-6.95 12.81z" fill="#f7be56"/><path d="m35.033 24.825a6.5 6.5 0 0 0 4.31 0c2.316-.954 3.2-3.715 1.374-5.569-2.755-2.8-3.2-7.505-3.2-7.505s-5.217 5.742-5.217 8.936c0 2.368 1.108 3.599 2.733 4.138z" fill="#fe7058"/><path d="m37 29.287a.5.5 0 0 1 -.5-.5v-6.962a.5.5 0 1 1 1 0v6.962a.5.5 0 0 1 -.5.5z" fill="#323c6b"/><path d="m19.706 58.421h34.588a3.956 3.956 0 0 1 3.956 3.956v8.623a0 0 0 0 1 0 0h-42.5a0 0 0 0 1 0 0v-8.623a3.956 3.956 0 0 1 3.956-3.956z" fill="#9297ab"/><path d="m26.7 53.917h20.6a2.241 2.241 0 0 1 2.241 2.241v2.263a0 0 0 0 1 0 0h-25.081a0 0 0 0 1 0 0v-2.264a2.241 2.241 0 0 1 2.24-2.24z" fill="#9297ab"/><path d="m58.25 62.38v8.62h-42.5v-2.77h39.62v-8.62a3.859 3.859 0 0 0 -.15-1.08 3.958 3.958 0 0 1 3.03 3.85z" fill="#84879c"/><path d="m49.54 56.16v2.26h-2.88v-2.26a2.236 2.236 0 0 0 -2.24-2.24h2.88a2.236 2.236 0 0 1 2.24 2.24z" fill="#84879c"/><path d="m48.054 32.687v8.146a1.459 1.459 0 0 1 -1.454 1.453h-.256a1.333 1.333 0 0 1 -.389-.057 1.447 1.447 0 0 1 -1.063-1.4v-1.5a1.459 1.459 0 0 0 -1.453-1.453h-.418a1.453 1.453 0 0 0 -1.453 1.453v1.5a1.453 1.453 0 1 1 -2.905 0v-5.407a1.459 1.459 0 0 0 -1.453-1.453h-.418a1.453 1.453 0 0 0 -1.453 1.453v5.412a1.459 1.459 0 0 1 -1.453 1.453h-.01a1.453 1.453 0 0 1 -1.453-1.453v-2.334a1.459 1.459 0 0 0 -1.453-1.453h-.418a1.453 1.453 0 0 0 -1.452 1.453v2.335a1.458 1.458 0 0 1 -1.063 1.4 1.332 1.332 0 0 1 -.389.057h-.248a1.455 1.455 0 0 1 -1.453-1.462v-8.143a3.9 3.9 0 0 1 3.9-3.9h14.315a3.9 3.9 0 0 1 3.892 3.9z" fill="#eeefee"/><path d="m45.96 42.23v11.69h-2.44v-16.03a1.454 1.454 0 0 1 1.37 1.44v1.5a1.449 1.449 0 0 0 1.07 1.4z" fill="#e1e6e9"/><path d="m48.05 32.69v8.14a1.46 1.46 0 0 1 -1.45 1.46h-.25a1.227 1.227 0 0 1 -.39-.06v-7.26a3.9 3.9 0 0 0 -3.9-3.9h-14.31a3.955 3.955 0 0 0 -1.58.33 3.876 3.876 0 0 1 3.67-2.61h14.32a3.89 3.89 0 0 1 3.89 3.9z" fill="#e1e6e9"/><g fill="#323c6b"><path d="m49.243 47.963h-3.287a.5.5 0 0 1 0-1h3.287a.5.5 0 0 1 0 1z"/><path d="m49.243 49.484a.5.5 0 0 1 -.5-.5v-3a.5.5 0 0 1 1 0v3a.5.5 0 0 1 -.5.5z"/><path d="m37.229 25.688a10.807 10.807 0 0 1 -3.638-.63c-3.213-1.066-4.842-3.524-4.842-7.3 0-5.4 8.384-14.7 8.741-15.091a.494.494 0 0 1 .528-.138.5.5 0 0 1 .339.427c.007.076.77 7.649 5.137 12.087a5.792 5.792 0 0 1 1.642 5.274 6.642 6.642 0 0 1 -4.076 4.734 12.255 12.255 0 0 1 -3.831.637zm.283-21.53c-2.047 2.4-7.764 9.456-7.764 13.6 0 3.349 1.361 5.428 4.162 6.356h.01a10.3 10.3 0 0 0 6.792 0 5.631 5.631 0 0 0 3.443-4 4.748 4.748 0 0 0 -1.375-4.373c-3.634-3.693-4.88-9.23-5.268-11.583z"/><path d="m22.943 33.188a.5.5 0 0 1 -.5-.5 7.393 7.393 0 0 1 3.883-6.5.5.5 0 1 1 .477.879 6.4 6.4 0 0 0 -3.359 5.625.5.5 0 0 1 -.501.496z"/><path d="m22.943 35.781a.5.5 0 0 1 -.5-.5v-.594a.5.5 0 0 1 1 0v.594a.5.5 0 0 1 -.5.5z"/><path d="m61.182 61.958a.5.5 0 0 1 -.5-.434 6.435 6.435 0 0 0 -4.734-5.388.5.5 0 1 1 .258-.966 7.431 7.431 0 0 1 5.468 6.222.5.5 0 0 1 -.43.562.511.511 0 0 1 -.062.004z"/><path d="m61.25 64.875a.5.5 0 0 1 -.5-.5v-.625a.5.5 0 0 1 1 0v.625a.5.5 0 0 1 -.5.5z"/><path d="m45.956 54.417h-17.915a.5.5 0 0 1 -.5-.5v-11.688a.5.5 0 0 1 .365-.481.956.956 0 0 0 .7-.915v-2.333a1.955 1.955 0 0 1 1.953-1.953h.418a1.955 1.955 0 0 1 1.95 1.953v2.335a.957.957 0 0 0 1.915 0v-5.414a1.955 1.955 0 0 1 1.953-1.952h.417a1.955 1.955 0 0 1 1.953 1.952v5.412a.953.953 0 0 0 1.905 0v-1.5a1.955 1.955 0 0 1 1.953-1.953h.417a1.955 1.955 0 0 1 1.953 1.953v1.5a.952.952 0 0 0 .7.914.5.5 0 0 1 .367.482v11.688a.5.5 0 0 1 -.504.5zm-17.415-1h16.915v-10.849a1.955 1.955 0 0 1 -1.063-1.735v-1.5a.954.954 0 0 0 -.953-.953h-.417a.954.954 0 0 0 -.953.953v1.5a1.953 1.953 0 0 1 -3.905 0v-5.412a.953.953 0 0 0 -.953-.952h-.417a.953.953 0 0 0 -.953.952v5.412a1.957 1.957 0 0 1 -3.915 0v-2.333a.954.954 0 0 0 -.953-.953h-.418a.954.954 0 0 0 -.953.953v2.335a1.959 1.959 0 0 1 -1.063 1.734z"/><path d="m46.6 42.786h-.256a1.824 1.824 0 0 1 -.535-.079 1.95 1.95 0 0 1 -1.417-1.874v-1.5a.954.954 0 0 0 -.953-.953h-.417a.954.954 0 0 0 -.953.953v1.5a1.953 1.953 0 0 1 -3.905 0v-5.412a.953.953 0 0 0 -.953-.952h-.417a.953.953 0 0 0 -.953.952v5.412a1.957 1.957 0 0 1 -3.915 0v-2.333a.954.954 0 0 0 -.953-.953h-.418a.954.954 0 0 0 -.953.953v2.335a1.96 1.96 0 0 1 -1.428 1.877 1.817 1.817 0 0 1 -.524.075h-.25a1.959 1.959 0 0 1 -1.953-1.962v-8.137a4.407 4.407 0 0 1 4.4-4.4h14.315a4.4 4.4 0 0 1 4.393 4.4v8.146a1.955 1.955 0 0 1 -1.955 1.952zm-3.578-5.406h.417a1.955 1.955 0 0 1 1.953 1.953v1.5a.952.952 0 0 0 .7.914.875.875 0 0 0 .256.039h.252a.954.954 0 0 0 .953-.953v-8.145a3.4 3.4 0 0 0 -3.393-3.4h-14.315a3.406 3.406 0 0 0 -3.4 3.4v8.136a.958.958 0 0 0 .953.962h.256a.847.847 0 0 0 .244-.035.96.96 0 0 0 .708-.917v-2.334a1.955 1.955 0 0 1 1.953-1.953h.418a1.955 1.955 0 0 1 1.95 1.953v2.335a.957.957 0 0 0 1.915 0v-5.414a1.954 1.954 0 0 1 1.953-1.952h.417a1.954 1.954 0 0 1 1.953 1.952v5.412a.953.953 0 0 0 1.905 0v-1.5a1.955 1.955 0 0 1 1.952-1.953z"/><path d="m58.25 71.5h-42.5a.5.5 0 0 1 -.5-.5v-8.623a4.461 4.461 0 0 1 4.457-4.457h34.586a4.461 4.461 0 0 1 4.457 4.457v8.623a.5.5 0 0 1 -.5.5zm-42-1h41.5v-8.123a3.461 3.461 0 0 0 -3.457-3.457h-34.586a3.461 3.461 0 0 0 -3.457 3.457z"/><path d="m49.54 58.92h-25.08a.5.5 0 0 1 -.5-.5v-2.263a2.744 2.744 0 0 1 2.74-2.74h20.6a2.744 2.744 0 0 1 2.741 2.741v2.262a.5.5 0 0 1 -.501.5zm-24.58-1h24.08v-1.763a1.743 1.743 0 0 0 -1.74-1.74h-20.6a1.743 1.743 0 0 0 -1.741 1.741z"/></g><path d="m25.932 61.459a.756.756 0 0 1 -.767.768h-.34a.768.768 0 1 1 -.014-1.535h.353a.756.756 0 0 1 .768.767z" fill="#fff"/><path d="m37.232 61.489a.756.756 0 0 1 -.8.739h-8.559a.758.758 0 0 1 -.739-.771v-.025a.764.764 0 0 1 .8-.739h8.559a.756.756 0 0 1 .739.796z" fill="#fff"/></svg>