<svg id="color_line" height="512" viewBox="0 0 74 74" width="512" xmlns="http://www.w3.org/2000/svg" data-name="color line"><circle cx="37" cy="37" fill="#27ccbc" r="34"/><path d="m71 37a33.926 33.926 0 0 1 -11.39 25.4 34.006 34.006 0 0 0 -48.01-48.01 34.005 34.005 0 0 1 59.4 22.61z" fill="#21b3a9"/><circle cx="37" cy="37" fill="#eeefee" r="27.333"/><path d="m64.33 37a27.254 27.254 0 0 1 -10.91 21.85 27.331 27.331 0 0 0 -35.62-41.3 27.33 27.33 0 0 1 46.53 19.45z" fill="#e1e6e9"/><path d="m37 12.573a.5.5 0 0 1 -.5-.5v-2.406a.5.5 0 0 1 1 0v2.406a.5.5 0 0 1 -.5.5z" fill="#323c6b"/><path d="m12.073 37.5h-2.406a.5.5 0 0 1 0-1h2.406a.5.5 0 1 1 0 1z" fill="#323c6b"/><path d="m37 64.833a.5.5 0 0 1 -.5-.5v-2.406a.5.5 0 0 1 1 0v2.406a.5.5 0 0 1 -.5.5z" fill="#323c6b"/><path d="m64.333 37.5h-2.406a.5.5 0 0 1 0-1h2.406a.5.5 0 0 1 0 1z" fill="#323c6b"/><path d="m50.663 37.5h-10.88a.5.5 0 0 1 0-1h10.88a.5.5 0 0 1 0 1z" fill="#323c6b"/><path d="m35.233 35.352a.5.5 0 0 1 -.386-.182l-11.514-13.928a.5.5 0 0 1 .767-.642l11.519 13.934a.5.5 0 0 1 -.386.818z" fill="#323c6b"/><circle cx="37" cy="37" fill="#9297ab" r="2.789"/><g fill="#323c6b"><path d="m37 40.289a3.289 3.289 0 1 1 3.289-3.289 3.293 3.293 0 0 1 -3.289 3.289zm0-5.577a2.289 2.289 0 1 0 2.289 2.288 2.292 2.292 0 0 0 -2.289-2.289z"/><path d="m59.381 66.938a.5.5 0 0 1 -.3-.9 36.843 36.843 0 0 0 6.319-6.164.5.5 0 1 1 .777.628 37.79 37.79 0 0 1 -6.5 6.334.5.5 0 0 1 -.296.102z"/><path d="m8.424 14.083a.5.5 0 0 1 -.386-.818l.324-.4a.5.5 0 0 1 .766.645l-.318.39a.5.5 0 0 1 -.386.183z"/><path d="m10.8 11.438a.5.5 0 0 1 -.354-.853 37.815 37.815 0 0 1 7.933-6.1.5.5 0 0 1 .5.867 36.776 36.776 0 0 0 -7.722 5.94.5.5 0 0 1 -.357.146z"/><path d="m67.428 58.5a.5.5 0 0 1 -.411-.784c.08-.116.157-.234.235-.353l.134-.2a.5.5 0 0 1 .832.555l-.13.2c-.082.125-.164.25-.249.373a.5.5 0 0 1 -.411.209z"/><path d="m37 71.5a34.5 34.5 0 1 1 34.5-34.5 34.539 34.539 0 0 1 -34.5 34.5zm0-68a33.5 33.5 0 1 0 33.5 33.5 33.538 33.538 0 0 0 -33.5-33.5z"/><path d="m37 64.833a27.833 27.833 0 1 1 27.833-27.833 27.864 27.864 0 0 1 -27.833 27.833zm0-54.667a26.833 26.833 0 1 0 26.833 26.834 26.864 26.864 0 0 0 -26.833-26.833z"/></g><path d="m12.976 56.15a.649.649 0 0 1 -.515-.252 30.83 30.83 0 0 1 -4.446-7.918.65.65 0 1 1 1.215-.46 29.538 29.538 0 0 0 4.26 7.58.65.65 0 0 1 -.515 1.047z" fill="#fff"/><path d="m7.762 45.766a.651.651 0 0 1 -.628-.482l-.16-.622a.65.65 0 0 1 1.26-.324l.156.609a.65.65 0 0 1 -.46.8.641.641 0 0 1 -.168.019z" fill="#fff"/></svg>