<svg height="512pt" viewBox="-68 0 512 512.00171" width="512pt" xmlns="http://www.w3.org/2000/svg"><path d="m350.617188 158.082031c-.851563 0-1.691407-.03125-2.492188-.085937-1.210938-.082032-2.824219-.117188-4.871094-.136719-10.136718-.136719-14.753906-.726563-16.476562-2.105469l-.097656-.085937c-2.167969-1.972657-3.480469-7.554688-4.398438-18.671875 0 0-.1875-2.171875-.226562-2.5625-1.613282-15.808594.695312-31.769532 6.671874-46.148438 1.585938-3.820312 3.875-8.65625 7.539063-12.191406 3.082031-2.957031 6.902344-4.652344 10.488281-4.652344.589844 0 1.132813.042969 1.664063.125 3.824219.574219 7.648437 3.386719 10.214843 7.519532 2.492188 4.007812 3.722657 8.78125 4.773438 13.328124 3.390625 14.71875 5.492188 29.800782 6.246094 44.828126.246094 4.832031.289062 9.875-2.089844 13.761718-3.785156 6.15625-12.242188 7.078125-16.945312 7.078125zm0 0" fill="#f0f2fa"/><path d="m161.988281 446.910156c-6.109375-.019531-11.085937-.257812-14.910156-3.003906-5.78125-4.148438-6.753906-12.621094-7.210937-20.234375l-4.890626-81.03125c-.28125-4.652344-.867187-9.589844-1.492187-14.820313l-.035156-.300781c-1.683594-14.128906-3.578125-30.035156.65625-42.167969 4.273437-12.1875 16.425781-13.285156 31.867187-13.460937 1.667969-.019531 3.308594-.039063 4.890625-.078125 9.910157-.289062 19.757813-.433594 29.261719-.433594 37.226562 0 74.785156 2.0625 111.628906 6.132813 5.660156.632812 11.019532 1.488281 14.402344 4.964843 3.789062 3.882813 4.171875 9.996094 4.246094 16.449219l1.191406 108.832031c.136719 11.589844-.847656 23.082032-8.902344 28.648438-4.191406 2.894531-9.589844 3.5625-15.695312 4.085938-27.1875 2.363281-55.265625 4.101562-83.457032 5.175781l-.230468.007812-.222656-.042969c-.09375-.019531-.195313-.027343-.296876-.027343-.210937.007812-.355468.027343-.5.0625l-.203124.050781-.207032.007812c-20.085937.746094-40.230468 1.144532-59.882812 1.183594zm0 0" fill="#f0f2fa"/><path d="m285.84375 127.144531c-1.082031 0-1.972656-.046875-2.523438-.089843-1.207031-.082032-2.816406-.113282-4.863281-.132813-2.988281-.042969-9.167969-.132813-13.007812-.832031l-.304688-.058594-.273437-.144531c-.210938-.109375-.371094-.171875-.507813-.195313-.140625-.03125-.253906-.03125-.335937-.03125h-.382813l-.355469-.140625c-.410156-.160156-.886718-.371093-1.300781-.699219l-.109375-.089843c-2.164062-1.972657-3.4375-7.359375-4.390625-18.597657-.085937-1.050781-.164062-1.921874-.234375-2.644531-1.601562-15.804687.707032-31.765625 6.675782-46.144531 1.601562-3.835938 3.902343-8.679688 7.550781-12.1875 3.058593-2.957031 6.882812-4.65625 10.484375-4.65625.578125 0 1.136718.039062 1.65625.125 3.828125.570312 7.65625 3.382812 10.222656 7.519531 2.480469 4.015625 3.710938 8.785157 4.761719 13.324219 3.382812 14.644531 5.488281 29.726562 6.257812 44.828125.246094 4.828125.285157 9.863281-2.101562 13.765625-3.777344 6.164062-12.222657 7.082031-16.917969 7.082031zm0 0" fill="#f0f2fa"/><path d="m218.691406 92.703125c-.851562 0-1.691406-.03125-2.496094-.085937-1.203124-.085938-2.816406-.117188-4.871093-.136719-10.152344-.136719-14.769531-.730469-16.484375-2.109375l-.09375-.082032c-2.164063-1.972656-3.4375-7.363281-4.390625-18.601562-.085938-1.042969-.164063-1.914062-.230469-2.636719-1.605469-15.804687.703125-31.765625 6.671875-46.144531 1.601563-3.832031 3.902344-8.675781 7.546875-12.195312 3.074219-2.953126 6.894531-4.648438 10.484375-4.648438.554687 0 1.105469.042969 1.640625.121094 3.847656.574218 7.675781 3.386718 10.246094 7.523437 2.480468 4.019531 3.710937 8.785157 4.757812 13.324219 3.386719 14.644531 5.492188 29.726562 6.257813 44.828125.238281 4.84375.269531 9.894531-2.101563 13.765625-3.773437 6.15625-12.234375 7.078125-16.9375 7.078125zm0 0" fill="#f0f2fa"/><path d="m150.386719 115.472656c-.847657 0-1.6875-.03125-2.492188-.085937-1.171875-.089844-2.71875-.113281-4.511719-.140625l-.367187-.003906c-10.136719-.140626-14.746094-.726563-16.464844-2.09375l-.105469-.089844c-2.164062-1.980469-3.4375-7.375-4.390624-18.617188-.082032-1.027344-.160157-1.898437-.230469-2.628906-1.601563-15.796875.707031-31.757812 6.675781-46.148438.703125-1.691406 1.675781-3.910156 2.953125-6.125 1.425781-2.46875 2.929687-4.453124 4.59375-6.058593 3.070313-2.953125 6.890625-4.648438 10.488281-4.648438.542969 0 1.085938.035157 1.609375.109375 3.875.578125 7.707031 3.394532 10.269531 7.539063 2.480469 4.003906 3.710938 8.777343 4.757813 13.320312 3.386719 14.628907 5.492187 29.710938 6.261719 44.828125.246094 4.828125.285156 9.867188-2.105469 13.757813-3.773437 6.164062-12.234375 7.085937-16.941406 7.085937zm0 0" fill="#f0f2fa"/><path d="m65.214844 250.269531c-1.898438 0-3.648438-.761719-5.351563-2.324219-6.324219-5.835937-11.734375-14.167968-16.964843-22.222656l-.273438-.421875c-2.585938-3.988281-5.03125-7.753906-7.582031-11.226562l-25.480469-34.722657c-1.910156-2.597656-3.496094-4.953124-3.496094-7.421874v-.101563c.117188-4.867187 6.429688-7.8125 9.140625-8.855469 6.949219-2.664062 14.613281-4.074218 22.167969-4.074218 10.835938 0 21.109375 2.757812 29.707031 7.972656 15.558594 9.445312 25.410157 27.417968 24.511719 44.722656-.183594 3.707031-2.625 11.753906-7.546875 20.644531-4.796875 8.664063-10.28125 14.902344-15.046875 17.117188l-.375.171875-.410156.011718c-.191406.003907-.339844.027344-.46875.066407-.183594.050781-.394532.175781-.5625.28125l-.335938.210937-.386718.0625c-.421876.074219-.839844.109375-1.246094.109375zm0 0" fill="#f0f2fa"/><g fill="#939baa"><path d="m284.953125 449.003906c0-.140625-.011719-.25-.039063-.367187l-.519531-2.265625 2.320313-.175782c4.960937-.371093 10.191406-.789062 15.992187-1.277343l2.15625-.183594.242188 40.3125c.03125 5.042969-.1875 10.230469-3.210938 13.363281-2.746093 2.867188-7.210937 3.496094-11.925781 3.933594-.421875.039062-.855469.078125-1.289062.113281-.390626.035157-.78125.066407-1.175782.105469l-2.175781.207031zm0 0"/><path d="m258.355469 502.476562c.421875-11.3125.730469-19.484374.972656-25.546874.675781-17.433594.675781-17.433594.261719-23.851563-.0625-.878906-.121094-1.882813-.191406-3.070313l-.117188-1.992187 1.996094-.121094c5.886718-.355469 11.773437-.738281 17.5-1.140625l2.136718-.148437v2.144531c0 .125-.007812.238281-.019531.355469l.375 53.992187-1.855469.148438c-6.535156.519531-12.90625.957031-18.945312 1.300781l-2.191406.125zm0 0"/><path d="m225.695312 503.847656c-.265624-7.753906-.34375-17.148437-.417968-26.230468l-.011719-1.558594c-.0625-8.679688-.136719-17.074219-.320313-24.40625l-.050781-1.972656 1.96875-.078126c10.277344-.410156 18.65625-.800781 26.371094-1.230468l1.992187-.109375.304688 5.09375c.40625 6.1875.40625 6.1875-.269531 23.414062l-.0625 1.667969c-.234375 6.011719-.542969 13.945312-.925781 24.605469l-.066407 1.835937-1.835937.085938c-8.179688.390625-16.46875.664062-24.640625.8125l-1.96875.035156zm0 0"/><path d="m211.496094 505.929688c-5.410156 0-10.890625-.054688-16.289063-.160157l-1.960937-.039062v-1.960938c0-.097656.003906-.195312.007812-.289062-1.429687-16.863281-1.351562-34.046875.25-51.097657l.167969-1.773437 1.78125-.039063c8.574219-.1875 16.214844-.402343 23.359375-.660156l2.023438-.070312.050781 2.019531c.1875 7.285156.257812 15.617187.320312 24.226563.0625 8.558593.136719 19.210937.417969 27.738281l.066406 2.046875-2.046875.019531c-2.714843.027344-5.433593.039063-8.148437.039063zm0 0"/><path d="m187.128906 505.570312c-4.464844-.125-8.800781-.28125-12.882812-.460937-3.457032-.15625-6.992188-.488281-8.917969-2.660156-1.730469-1.949219-1.875-5.058594-1.875-8.339844l-.007813-43.148437 1.988282-.007813c7.269531-.03125 14.640625-.113281 21.914062-.242187l2.230469-.039063-.203125 2.222656c-1.523438 16.835938-1.589844 33.832031-.199219 50.511719l.1875 2.226562zm0 0"/><path d="m330.21875 280.980469c-.386719-.503907-.765625-.945313-1.15625-1.355469-.875-.898438-1.875-1.691406-3.042969-2.410156l-1.507812-.929688.734375-1.609375c15.75-34.421875 24.636718-72.675781 25.699218-110.621093l.050782-1.847657 1.847656-.09375c2.902344-.148437 5.617188-.636719 8.070312-1.449219l2.660157-.882812-.027344 2.800781c-.414063 41.007813-10.777344 81.851563-29.972656 118.113281l-1.457031 2.75zm0 0"/><path d="m319.089844 274.550781c-1.589844-.363281-3.339844-.652343-5.511719-.914062l-2.585937-.308594 1.015624-2.550781c9.578126-35.175782 14.226563-71.5625 13.796876-108.101563l-.027344-2.601562 2.519531.636719c3.90625.988281 9.5 1.140624 14.894531 1.210937l3.75.070313-.054687 2.015624c-1.058594 37.554688-9.886719 75.394532-25.535157 109.429688l-.675781 1.476562zm0 0"/><path d="m269.929688 269.707031c-4.183594-.28125-8.367188-.539062-12.558594-.78125l-1.816406-.101562-.070313-1.816407c-1.761719-45.113281 1.507813-90.507812 9.722656-134.921874l.339844-1.839844 1.859375.214844c2.675781.3125 5.734375.425781 9.496094.5l2.386718.042968-.460937 2.34375c-8.753906 44.199219-11.03125 89.339844-6.773437 134.171875l.222656 2.339844zm0 0"/><path d="m293.132812 271.5625c-4.839843-.441406-9.769531-.859375-15.074218-1.269531l-1.671875-.128907-.164063-1.667968c-4.4375-45.351563-2.136718-91.003906 6.839844-135.6875l.332031-1.652344 1.683594.046875c.378906.007813.703125.019531 1.027344.019531 4.300781 0 8.171875-.691406 11.507812-2.046875l3.144531-1.277343-.40625 3.375c-5.535156 45.734374-7.230468 92.234374-5.039062 138.203124l.109375 2.296876zm0 0"/><path d="m230.355469 267.78125c-5.363281-.160156-10.789063-.28125-16.132813-.359375l-2.371094-.039063.4375-2.328124c10.210938-54.8125 12.28125-110.691407 6.15625-166.085938l-.234374-2.140625 2.152343-.078125c2.925781-.101562 5.632813-.535156 8.050781-1.28125l2.363282-.730469.21875 2.464844c5.011718 55.902344 5.484375 112.5625 1.414062 168.40625.003906.039063.003906.101563.003906.171875v2.058594zm0 0"/><path d="m206.050781 267.339844c-1.667969-.011719-3.335937-.015625-5.003906-.015625-1.195313 0-5.78125.015625-5.78125.015625l.195313-2.1875c4.980468-55.273438 6.332031-111.433594 4.015624-166.917969l-.09375-2.28125 2.269532.203125c2.726562.246094 5.8125.332031 9.609375.382812l1.042969.011719h1.785156l.203125 1.773438c6.28125 55.875 4.175781 112.191406-6.261719 167.386719l-.3125 1.640624zm0 0"/><path d="m160.171875 265.738281c.054687-.773437-.335937-1.511719-.996094-1.890625l-.828125-.472656-.15625-.933594c-7.773437-46.53125-10.28125-93.996094-7.453125-141.070312l.105469-1.789063 1.789062-.089843c2.382813-.117188 4.675782-.476563 6.824219-1.0625l2.75-.746094-.230469 2.835937c-3.558593 44.503907 1.597657 93.152344 15.320313 144.59375l.652344 2.453125-4.109375.101563c-1.03125.023437-2.0625.050781-3.101563.082031-1.5625.039062-3.167969.0625-4.808593.082031-1.160157.007813-2.34375.027344-3.558594.046875l-2.359375.035156zm0 0"/><path d="m144.246094 268.148438c-11.132813-48.40625-13.609375-97.925782-7.363282-147.179688l.226563-1.800781 1.816406.054687c1.300781.039063 2.648438.066406 4.046875.089844h.019532c.589843 0 1.164062.007812 1.710937.019531l2.082031.039063-.125 2.078125c-2.867187 48.304687-.160156 96.984375 8.054688 144.691406l.359375 2.082031-2.09375.246094c-2.25.265625-4.359375.65625-6.269531 1.164062l-2 .535157zm0 0"/><path d="m129.835938 360.742188c-11.828126-.238282-21.976563-8.636719-27.53125-16.417969-6.953126-9.75-10.480469-21.523438-13.894532-32.902344l-17.523437-58.394531 1.359375-.792969c2.539062-1.484375 5.144531-3.753906 7.738281-6.75l2.753906-3.1875.726563 4.148437c.257812 1.488282.601562 3.050782 1.046875 4.777344l.027343.121094c6.15625 32.195312 20.6875 62.308594 42.03125 87.089844.390626.457031.933594.707031 1.53125.707031.144532 0 .277344-.015625.421876-.035156l2.089843-.273438.164063 2.101563c.050781.652344.101562 1.3125.144531 1.949218l1.078125 17.902344zm0 0"/><path d="m125.609375 293.277344c-17.8125-7.363282-32.015625-23.707032-37.066406-42.652344l-.035157-.148438-.152343-.820312c-.234375-1.25-.46875-2.503906-.675781-3.761719-.023438-.15625-.089844-.339843-.195313-.546875l-.136719-.277344-.046875-.300781c-.320312-1.984375-.535156-3.820312-.652343-5.617187-.019532-.285156-.101563-.5625-.25-.824219l-.558594-1.003906.582031-.988281c2.1875-3.714844 4.183594-7.792969 5.773437-11.792969l1.980469-4.976563 1.769531 5.054688c7.464844 21.339844 19.753907 37.625 37.566407 49.777344l1.789062 1.21875-1.359375 1.6875c-1.554687 1.929687-2.785156 4.183593-3.667968 6.703124-.8125 2.34375-1.460938 4.953126-1.925782 7.75l-.410156 2.484376zm0 0"/><path d="m126.121094 331.539062c-11.78125-14.546874-21.230469-30.746093-28.085938-48.15625l3.308594-2.109374c7.078125 7.464843 15.6875 13.210937 24.894531 16.621093l1.363281.503907-.058593 1.453124c-.382813 9.265626.761719 18.859376 1.867187 28.140626.089844.691406.167969 1.367187.25 2.054687l.804688 6.855469zm0 0"/></g><path d="m375.710938 136.933594c-.777344-15.410156-2.929688-30.847656-6.402344-45.882813-1.164063-5.035156-2.546875-10.355469-5.515625-15.152343-3.542969-5.71875-8.828125-9.484376-14.496094-10.335938-5.871094-.875-12.3125 1.425781-17.234375 6.164062-4.46875 4.308594-7.125 9.867188-8.933594 14.230469-6.359375 15.304688-8.816406 32.28125-7.109375 49.09375.070313.691407.140625 1.527344.21875 2.457031.628907 7.492188 1.441407 14.574219 3.863281 19.265626-.265624.554687-.425781 1.171874-.410156 1.828124.832032 37.355469-3.726562 74.578126-13.546875 110.628907-.144531.53125-.175781 1.066406-.105469 1.582031-1.558593-.160156-3.117187-.320312-4.679687-.476562.019531-.183594.039063-.371094.03125-.5625-2.335937-48.171876-.375-96.84375 5.828125-144.671876.039062-.285156.042969-.5625.019531-.839843.238281-.335938.472657-.675781.6875-1.027344 3.289063-5.359375 3.269531-11.707031 2.988281-17.238281-.777343-15.414063-2.929687-30.851563-6.402343-45.886719-1.160157-5.035156-2.546875-10.351563-5.515625-15.152344-3.542969-5.71875-8.828125-9.484375-14.496094-10.332031-5.875-.878906-12.316406 1.425781-17.234375 6.164062-4.46875 4.308594-7.121094 9.867188-8.933594 14.226563-6.359375 15.304687-8.820312 32.28125-7.109375 49.097656.070313.691407.140625 1.527344.21875 2.460938.808594 9.605469 1.902344 18.566406 6.339844 22.628906.460938.421875.992188.796875 1.578125 1.128906-8.339844 44.835938-11.683594 90.609375-9.957031 136.179688-3.648438-.175781-7.296875-.328125-10.949219-.464844 4.179687-57.339844 3.605469-115.433594-1.707031-172.675781 1.613281-1.308594 2.980468-2.832032 4.050781-4.578125 3.285156-5.355469 3.265625-11.707031 2.984375-17.238281-.777344-15.414063-2.929688-30.851563-6.402344-45.886719-1.160156-5.035157-2.542968-10.351563-5.515625-15.148438-3.542969-5.722656-8.824219-9.488281-14.496093-10.335937-5.871094-.878906-12.3125 1.425781-17.230469 6.164062-4.472657 4.308594-7.125 9.867188-8.9375 14.226563-6.359375 15.308593-8.816407 32.285156-7.109375 49.097656.070312.695313.140625 1.527344.21875 2.460937.808594 9.609376 1.902344 18.570313 6.339844 22.628907.730468.671875 1.636718 1.214843 2.683593 1.664062 2.433594 56.160157 1.097657 112.984375-3.976562 168.957031-1.894531.019532-3.785157.050782-5.675781.082032-14.449219-53.394532-19.582032-103.621094-15.234376-149.324219 1.613282-1.308594 2.980469-2.835937 4.054688-4.578125 3.285156-5.359375 3.261719-11.710938 2.984375-17.242188-.777344-15.410156-2.929687-30.847656-6.402344-45.882812-1.160156-5.035156-2.542969-10.355469-5.515625-15.152344-3.542968-5.71875-8.824218-9.488281-14.496094-10.335937-5.871093-.875-12.316406 1.429687-17.234374 6.164062-4.46875 4.308594-7.125 9.867188-8.933594 14.230469-6.359375 15.304688-8.820313 32.28125-7.109375 49.09375.070312.695312.136719 1.527344.21875 2.460938.808593 9.609374 1.902343 18.570312 6.335937 22.632812 1.859375 1.699219 4.777344 2.613281 8.460938 3.121094-6.3125 50.1875-3.707032 100.574218 7.753906 149.847656-19.46875-12.730469-31.839844-29.890625-38.867188-53.953125-.351562-1.199219-1.21875-2.09375-2.28125-2.554687.121094-.757813.199219-1.457032.230469-2.082032 1.007813-19.46875-10.011719-39.648437-27.417969-50.214844-16.398437-9.953124-38.316406-11.628906-57.199218-4.375-8.25 3.171876-12.875 8.257813-13.02343775 14.320313-.11718725 4.792969 2.76171875 8.714844 4.66796875 11.308594l25.488281 34.714843c2.496094 3.402344 4.945313 7.183594 7.539063 11.183594 5.46875 8.433594 11.125 17.160156 18.050781 23.550782 2.828125 2.605468 6.082031 3.9375 9.496094 3.9375.097656 0 .199218-.015626.296875-.015626l17.042969 56.8125c3.394531 11.3125 7.238281 24.132813 14.78125 34.707032 8.527343 11.957031 20.773437 18.992187 32.941406 18.992187h.054687l3.453125 57.203125c.394532 6.511719 1.125 18.628906 9.726563 24.796875 4.109375 2.945313 8.84375 3.8125 13.835937 4.054688l.015625 41.222656c0 3.398437.003907 8.53125 3.394531 12.359375 3.496094 3.945312 8.644532 4.492188 13.191407 4.695312 12.5625.558594 25.171875.835938 37.796875.835938 26.304687 0 52.667968-1.207031 78.753906-3.621094 5.660156-.519531 11.539062-1.398437 15.738281-5.761718 4.976563-5.171876 4.929688-12.953126 4.902344-17.601563l-.234375-38.773437c0-.007813 0-.015626 0-.027344 4.949219-.53125 10.480469-1.558594 15.203125-4.824219 10.402344-7.1875 11.660156-21.0625 11.523437-33.691406l-1.199218-108.832031c-.035156-3.285157-.160156-6.621094-.75-9.796876.289062-.277343.542968-.589843.742187-.957031 22.0625-39.738281 33.515625-84.734375 33.160157-130.175781 1.203124-1.117188 2.253906-2.367188 3.109374-3.761719 3.285157-5.359375 3.265626-11.710937 2.984376-17.242187zm-45.136719-47.886719c1.511719-3.636719 3.683593-8.238281 7.085937-11.511719 2.722656-2.625 6.035156-4.09375 9.097656-4.09375.453126 0 .902344.03125 1.34375.097656 3.273438.488282 6.578126 2.957032 8.835938 6.601563 2.324219 3.753906 3.503906 8.34375 4.515625 12.722656 3.363281 14.574219 5.453125 29.539063 6.207031 44.476563.226563 4.523437.273438 9.222656-1.808594 12.617187-3.984374 6.492188-14.476562 6.265625-17.589843 6.042969-1.300781-.09375-3.011719-.117188-4.988281-.144531-3.664063-.050781-13.398438-.183594-15.253907-1.664063-2.476562-2.269531-3.398437-13.234375-3.746093-17.363281-.085938-.980469-.15625-1.863281-.230469-2.59375-1.574219-15.484375.683593-31.109375 6.53125-45.1875zm-2.765625 73.605469c3.957031 1 9.246094 1.183594 15.355468 1.265625.609376.007812 1.175782.019531 1.722657.027343-1.054688 37.289063-9.78125 74.785157-25.351563 108.65625-1.875-.429687-3.800781-.71875-5.722656-.949218.039062-.101563.082031-.199219.113281-.304688 9.652344-35.4375 14.308594-71.984375 13.882813-108.695312zm-49.597656 105.648437c-4.417969-45.164062-2.128907-90.601562 6.816406-135.097656.359375.007813.71875.019531 1.074218.019531 4.601563 0 8.738282-.757812 12.257813-2.191406-5.546875 45.859375-7.246094 92.425781-5.046875 138.539062-5.027344-.460937-10.0625-.882812-15.101562-1.269531zm-12.433594-210.191406c1.511718-3.640625 3.683594-8.238281 7.085937-11.511719 2.722657-2.625 6.035157-4.097656 9.097657-4.097656.457031 0 .90625.03125 1.34375.097656 3.277343.492188 6.578124 2.960938 8.835937 6.605469 2.324219 3.753906 3.503906 8.34375 4.515625 12.722656 3.363281 14.570313 5.453125 29.535157 6.207031 44.476563.226563 4.519531.273438 9.222656-1.808593 12.617187-3.984376 6.492188-14.476563 6.265625-17.59375 6.042969-1.296876-.09375-3.003907-.117188-4.984376-.144531-2.765624-.035157-8.988281-.121094-12.671874-.800781-.339844-.175782-.699219-.324219-1.097657-.398438-.230469-.042969-.457031-.058594-.683593-.0625-.328126-.121094-.613282-.253906-.800782-.402344-2.476562-2.265625-3.398437-13.230468-3.746094-17.355468-.085937-.988282-.160156-1.867188-.234374-2.601563-1.570313-15.484375.6875-31.113281 6.535156-45.1875zm1.394531 74.335937c2.847656.332032 6.117187.449219 9.691406.511719-8.789062 44.398438-11.074219 89.703125-6.804687 134.757813-4.1875-.285156-8.378906-.546875-12.570313-.78125-1.761719-45 1.496094-90.203125 9.683594-134.488282zm-36.765625 133.136719c-.003906.066407.007812.128907.003906.195313-5.386718-.160156-10.773437-.28125-16.160156-.355469 10.257812-55.015625 12.335938-111.050781 6.1875-166.671875 3.101562-.113281 5.976562-.574219 8.570312-1.367188 4.996094 55.785157 5.476563 112.351563 1.398438 168.199219zm-38.292969-196.726562c-1.570312-15.484375.6875-31.109375 6.535157-45.1875 1.511718-3.640625 3.683593-8.238281 7.085937-11.515625 3.128906-3.011719 7.03125-4.503906 10.441406-3.996094 3.273438.492188 6.578125 2.960938 8.835938 6.605469 2.324219 3.753906 3.503906 8.34375 4.515625 12.722656 3.363281 14.570313 5.449218 29.535156 6.203125 44.476563.230469 4.519531.277343 9.222656-1.804688 12.617187-3.984375 6.492187-14.476562 6.265625-17.59375 6.042969-1.296875-.09375-3.007812-.117188-4.984375-.144532-3.664062-.050781-13.398437-.183593-15.253906-1.664062-2.476562-2.265625-3.402344-13.230469-3.75-17.359375-.082031-.984375-.15625-1.863281-.230469-2.597656zm19.125 29.683593c.371094.003907.722657.011719 1.070313.015626 6.261718 55.660156 4.167968 111.746093-6.238282 166.785156-2.871093-.019532-5.742187-.023438-8.613281-.015625 4.988281-55.382813 6.332031-111.59375 4.015625-167.171875 2.910156.257812 6.199219.339844 9.765625.386718zm-35.871093 167.09375c-1.5625.039063-3.125.070313-4.691407.113282-1.542969.046875-3.140625.066406-4.773437.082031-1.207032.011719-2.457032.027344-3.734375.054687.105469-1.519531-.65625-3-2.003907-3.769531-7.753906-46.394531-10.25-93.671875-7.429687-140.621093 2.59375-.132813 5.015625-.519532 7.246094-1.136719-3.574219 44.765625 1.59375 93.589843 15.386719 145.277343zm-51.320313-171.410156c-.082031-.988281-.160156-1.867187-.234375-2.601562-1.570312-15.484375.6875-31.113282 6.535156-45.1875 1.515625-3.636719 3.683594-8.238282 7.085938-11.511719 2.722656-2.625 6.035156-4.09375 9.097656-4.09375.457031 0 .90625.03125 1.347656.097656 3.273438.488281 6.574219 2.957031 8.832032 6.605469 2.324218 3.753906 3.507812 8.339844 4.515624 12.71875 3.367188 14.574219 5.453126 29.539062 6.207032 44.476562.226562 4.523438.277344 9.222657-1.804688 12.617188-3.988281 6.496094-14.476562 6.265625-17.59375 6.042969-1.300781-.09375-3.007812-.117188-4.984375-.140625-3.664062-.050782-13.398437-.183594-15.253906-1.664063-2.480469-2.269531-3.402344-13.234375-3.75-17.359375zm14.816406 27c1.3125.039063 2.671875.0625 4.078125.082032.609375.007812 1.179688.019531 1.726563.027343-2.886719 48.476563-.167969 97.285157 8.074219 145.144531-2.210938.265626-4.410157.65625-6.542969 1.21875-11.089844-48.175781-13.558594-97.417968-7.335938-146.472656zm-6.480469 154.832032c-1.621093 2.007812-2.984374 4.40625-3.996093 7.296874-.902344 2.589844-1.554688 5.296876-2.015625 8.082032-17.460938-7.222656-31.03125-23.105469-35.894532-41.324219-.285156-1.511719-.574218-3.023437-.824218-4.542969-.066406-.402344-.207032-.773437-.378906-1.121094-.292969-1.792968-.507813-3.601562-.625-5.421874-.039063-.609376-.222657-1.171876-.5-1.675782 2.351562-3.988281 4.355468-8.164062 5.90625-12.070312 7.601562 21.71875 20.199218 38.398437 38.328124 50.777344zm-4.953124 52.179687c.082031.691406.160156 1.367187.242187 2.050781-11.679687-14.425781-21.027344-30.496094-27.78125-47.636718 7.148437 7.535156 15.90625 13.507812 25.652344 17.117187-.386719 9.421875.792969 19.324219 1.886719 28.46875zm-82.960938-103.777344c-2.660156-4.101562-5.171875-7.976562-7.808594-11.570312l-25.488281-34.714844c-1.726563-2.351563-3.152344-4.449219-3.105469-6.339844.089844-3.71875 6.035156-6.289062 7.855469-6.988281 6.878906-2.644531 14.207031-3.945312 21.453125-3.945312 10.230469 0 20.289062 2.597656 28.671875 7.6875 14.941406 9.070312 24.402344 26.3125 23.546875 42.90625-.183594 3.605468-2.753906 11.554687-7.300781 19.78125-4.558594 8.234374-9.804688 14.253906-14.140625 16.261718-.328125.015625-.65625.054688-.984375.152344-.382813.117188-.726563.296875-1.042969.507812-1.773438.296876-3.304688-.25-4.90625-1.726562-6.179688-5.703125-11.554688-13.992188-16.75-22.011719zm59.464844 118.699219c-6.769532-9.488281-10.253906-21.105469-13.625-32.34375l-17.050782-56.855469c2.902344-1.695312 5.671876-4.199219 8.230469-7.171875.300781 1.660156.664063 3.304688 1.089844 4.9375 6.214844 32.53125 20.828125 62.875 42.472656 88.019532.796875.925781 1.925781 1.402343 3.058594 1.402343.222656 0 .449219-.023437.671875-.058593.050781.640624.105469 1.292968.144531 1.917968l.949219 15.730469c-11.027344-.210937-20.582031-8.0625-25.941406-15.578125zm62.890625 157.960938c-1.261719-1.417969-1.367188-4.125-1.367188-7.011719l-.019531-41.160157c7.308594-.027343 14.625-.109374 21.949219-.230468-1.535157 16.882812-1.613281 33.976562-.199219 50.859375-4.285156-.125-8.570312-.277344-12.847656-.464844-2.898438-.128906-6.109375-.402344-7.515625-1.992187zm28.421875 2.65625c.003906-.160157.019531-.320313.007812-.484376-1.433594-16.835937-1.34375-33.886718.242188-50.71875 7.792968-.164062 15.589844-.382812 23.390625-.65625.191406 7.414063.257812 15.910157.320312 24.183594.074219 9.621094.152344 19.550782.421875 27.796875-8.132812.074219-16.265625.039063-24.382812-.121093zm66.339844-50.824219c-.058594-.875-.125-1.878907-.195313-3.058594 5.847656-.351563 11.691406-.726563 17.527344-1.136719-.007813.097656-.027344.191406-.027344.289063l.367187 52.207031c-6.289062.5-12.589843.9375-18.898437 1.296875.410156-11.300781.730469-19.480469.964844-25.539063.683593-17.539062.683593-17.539062.261719-24.058593zm-8.242188-2.574219c.070312 1.195312.136719 2.210938.195312 3.097656.394532 6.097656.394532 6.097656-.273437 23.222656-.238281 6.1875-.566406 14.59375-.992187 26.273438-8.183594.390625-16.382813.660156-24.582032.8125-.273437-8.171875-.351562-18.113281-.421875-27.746094-.0625-8.347656-.132812-16.921875-.324219-24.433594 8.800782-.351562 17.601563-.746093 26.398438-1.226562zm47.113281 46.648438c-2.28125 2.371093-6.347656 2.925781-10.667969 3.328124-.824218.074219-1.648437.140626-2.472656.214844l-.363281-51.578125c0-.273437-.03125-.539062-.085937-.796875 5.347656-.398437 10.679687-.828125 16.011718-1.277344l.230469 38.148438c.027344 4.632812-.15625 9.371094-2.652344 11.960938zm21.097657-62.269532c-3.773438 2.613282-8.902344 3.242188-14.726563 3.75-27.617187 2.398438-55.492187 4.109375-83.359375 5.164063-.265625-.046875-.539062-.066407-.816406-.058594-.292969.007813-.574219.054687-.84375.121094-19.972656.734375-39.941406 1.144531-59.8125 1.175781-5.519532-.015625-10.335938-.179688-13.753906-2.628906-5.058594-3.628906-5.945313-11.574219-6.375-18.730469l-4.894532-81.027344c-.289062-4.800781-.894531-9.875-1.535156-15.246093-1.65625-13.851563-3.535156-29.546876.5625-41.257813 3.839844-10.984375 14.855469-11.953125 29.996094-12.125 1.679687-.019531 3.324218-.039063 4.914062-.082031 9.722656-.285156 19.460938-.425782 29.210938-.425782 37.210937 0 74.566406 2.050782 111.414062 6.121094 5.28125.582032 10.265625 1.355469 13.191406 4.359375 3.277344 3.363281 3.609376 9.054688 3.675782 15.085938l1.195312 108.835937c.121094 11.039063-.765625 21.945313-8.042968 26.96875zm10.25-154.992187c-.402344-.523438-.828126-1.035157-1.300782-1.523438-1.058594-1.082031-2.214844-1.972656-3.441406-2.722656 15.898438-34.75 24.8125-73.1875 25.886719-111.410156 3.121093-.15625 6.003906-.679688 8.597656-1.539063-.414063 40.816406-10.636719 81.121094-29.742187 117.195313zm0 0" fill="#231f20"/></svg>