<svg id="color_line" height="512" viewBox="0 0 74 74" width="512" xmlns="http://www.w3.org/2000/svg" data-name="color line"><path d="m56.34 53.13v15.76a2.11 2.11 0 0 1 -2.11 2.11h-28.07a2.117 2.117 0 0 1 -2.11-2.11v-15.76a10.168 10.168 0 0 1 8.26-9.99v-3.83h15.77v3.83a10.158 10.158 0 0 1 8.26 9.99z" fill="#eeefee"/><path d="m56.34 53.13v15.76a2.11 2.11 0 0 1 -2.11 2.11h-28.07a2.117 2.117 0 0 1 -2.11-2.11v-.95h27.3a2.11 2.11 0 0 0 2.11-2.11v-15.76a10.116 10.116 0 0 0 -1.48-5.29 10.135 10.135 0 0 1 4.36 8.35z" fill="#e1e6e9"/><path d="m51.9 52.62v12.573a1.327 1.327 0 0 1 -1.364 1.286h-20.672a1.327 1.327 0 0 1 -1.364-1.286v-12.573a1.327 1.327 0 0 1 1.364-1.286h20.668a1.327 1.327 0 0 1 1.368 1.286z" fill="#89c5cd"/><path d="m51.9 52.62v12.57a1.331 1.331 0 0 1 -1.37 1.29h-2.62a1.329 1.329 0 0 0 1.36-1.29v-12.57a1.329 1.329 0 0 0 -1.36-1.29h2.62a1.331 1.331 0 0 1 1.37 1.29z" fill="#6eaaad"/><path d="m39.555 30.092c6.9-5.119-.457-15.842-1.118-16.13.093.711-.306 3.588-1.218 3.907a17.823 17.823 0 0 0 -7.408-11.542l-.611 2.773c-2.043-3.738-5.828-6.071-12.47-5.268 0 0-.374 9.1 7.909 12.2a3.821 3.821 0 0 1 1.081.8 4.212 4.212 0 0 1 -3.241.249c.431 3.517 8.481 14.3 17.074 13.005z" fill="#27ccbc"/><path d="m36.9 16.34a1.207 1.207 0 0 0 -.28-.25c.1.71-.3 3.58-1.21 3.9a17.849 17.849 0 0 0 -7.41-11.54l-.61 2.77c-1.83-3.36-5.07-5.58-10.52-5.41a12.216 12.216 0 0 1 -.14-1.98c6.64-.8 10.43 1.53 12.47 5.27l.61-2.77a17.867 17.867 0 0 1 7.09 10.01z" fill="#21b3a9"/><path d="m39.81 29.88c2.27-4.2-.45-9.89-2.12-12.45a7.488 7.488 0 0 0 .75-3.47c.65.29 7.83 10.74 1.37 15.92z" fill="#21b3a9"/><g fill="#323c6b"><path d="m40.675 34.173a.5.5 0 0 1 -.483-.373c-3.617-13.787-17.673-24.872-17.815-24.983a.5.5 0 1 1 .615-.789c.144.113 14.466 11.408 18.166 25.518a.5.5 0 0 1 -.356.611.52.52 0 0 1 -.127.016z"/><path d="m59.34 57.958a.5.5 0 0 1 -.5-.5v-4.328a12.746 12.746 0 0 0 -.228-2.35.5.5 0 1 1 .982-.185 13.718 13.718 0 0 1 .245 2.535v4.329a.5.5 0 0 1 -.499.499z"/><path d="m59.34 60.188a.5.5 0 0 1 -.5-.5v-.375a.5.5 0 0 1 1 0v.375a.5.5 0 0 1 -.5.5z"/><path d="m16.362 13.6a.5.5 0 0 1 -.421-.229 17.43 17.43 0 0 1 -2.4-6.188.5.5 0 0 1 .986-.183 16.39 16.39 0 0 0 2.256 5.828.5.5 0 0 1 -.421.771z"/><path d="m13.771 5.529a.5.5 0 0 1 -.5-.464c-.015-.209-.024-.4-.032-.573a.5.5 0 0 1 .479-.52.491.491 0 0 1 .521.479c.006.161.016.345.03.543a.5.5 0 0 1 -.463.534z"/><path d="m54.23 71.5h-28.07a2.613 2.613 0 0 1 -2.61-2.61v-15.76a10.67 10.67 0 0 1 8.261-10.4v-3.42a.5.5 0 0 1 .5-.5h15.769a.5.5 0 0 1 .5.5v3.424a10.667 10.667 0 0 1 8.26 10.4v15.756a2.613 2.613 0 0 1 -2.61 2.61zm-21.419-31.69v3.33a.5.5 0 0 1 -.407.491 9.667 9.667 0 0 0 -7.854 9.5v15.759a1.612 1.612 0 0 0 1.61 1.61h28.07a1.611 1.611 0 0 0 1.609-1.61v-15.76a9.664 9.664 0 0 0 -7.853-9.5.5.5 0 0 1 -.407-.491v-3.329z"/></g><rect fill="#9297ab" height="6.509" rx="1.266" width="20.386" x="30" y="33.301"/><path d="m50.39 34.57v3.97a1.272 1.272 0 0 1 -1.27 1.27h-2.5a1.272 1.272 0 0 0 1.27-1.27v-3.97a1.272 1.272 0 0 0 -1.27-1.27h2.5a1.272 1.272 0 0 1 1.27 1.27z" fill="#84879c"/><path d="m50.531 66.979h-20.667a1.828 1.828 0 0 1 -1.864-1.786v-12.573a1.828 1.828 0 0 1 1.864-1.786h20.667a1.828 1.828 0 0 1 1.869 1.786v12.573a1.828 1.828 0 0 1 -1.869 1.786zm-20.667-15.146a.829.829 0 0 0 -.864.787v12.573a.829.829 0 0 0 .864.786h20.667a.829.829 0 0 0 .864-.786v-12.573a.829.829 0 0 0 -.864-.786z" fill="#323c6b"/><path d="m49.119 40.31h-17.852a1.769 1.769 0 0 1 -1.767-1.767v-3.976a1.769 1.769 0 0 1 1.767-1.767h17.852a1.769 1.769 0 0 1 1.767 1.767v3.977a1.769 1.769 0 0 1 -1.767 1.766zm-17.852-6.51a.767.767 0 0 0 -.767.767v3.977a.767.767 0 0 0 .767.766h17.852a.767.767 0 0 0 .767-.766v-3.977a.767.767 0 0 0 -.767-.767z" fill="#323c6b"/><path d="m38.128 30.7a14.369 14.369 0 0 1 -8.574-3.29c-4.1-3.116-7.281-7.908-7.569-10.26a.5.5 0 0 1 .607-.548 5.025 5.025 0 0 0 2.161.078c-.111-.07-.23-.139-.347-.2-8.465-3.18-8.179-12.58-8.176-12.67a.5.5 0 0 1 .44-.476c5.664-.684 9.8.811 12.308 4.449l.345-1.563a.5.5 0 0 1 .757-.314 18.278 18.278 0 0 1 7.42 10.774 7.679 7.679 0 0 0 .44-2.654.5.5 0 0 1 .7-.522c.685.3 3.771 4.9 4.276 9.316a7.8 7.8 0 0 1 -3.061 7.674.5.5 0 0 1 -.224.093 10.1 10.1 0 0 1 -1.503.113zm-14.992-12.992c.687 2.163 3.351 6.113 7.023 8.9 2.176 1.653 5.533 3.5 9.2 3a6.591 6.591 0 0 0 2.631-5.437c.034-3.58-2-7.277-3.123-8.924-.162 1.208-.588 2.775-1.48 3.087a.5.5 0 0 1 -.66-.4 17.636 17.636 0 0 0 -6.585-10.78l-.452 2.051a.5.5 0 0 1 -.927.132c-2.141-3.917-6.023-5.621-11.534-5.059.04 1.806.657 8.688 7.586 11.288a3.875 3.875 0 0 1 1.337 1.017.5.5 0 0 1 -.142.663 4.268 4.268 0 0 1 -2.874.462z" fill="#323c6b"/><path d="m40.713 63.054a.583.583 0 0 1 .589-.6h.137a.592.592 0 1 1 .016 1.184h-.146a.583.583 0 0 1 -.596-.584z" fill="#fff"/><path d="m31.957 63.1a.583.583 0 0 1 .611-.573l6.644-.03a.585.585 0 0 1 .573.592v.019a.589.589 0 0 1 -.611.573l-6.644.03a.583.583 0 0 1 -.573-.611z" fill="#fff"/></svg>