<svg id="color_line" height="512" viewBox="0 0 74 74" width="512" xmlns="http://www.w3.org/2000/svg" data-name="color line"><path d="m65.439 36.358c0 9.869-8 34.642-17.863 34.642a17.7 17.7 0 0 1 -10.576-3.477 17.7 17.7 0 0 1 -10.576 3.477c-9.86 0-17.863-24.774-17.863-34.642a17.853 17.853 0 0 1 28.439-14.386 17.853 17.853 0 0 1 28.439 14.386z" fill="#fe7058"/><path d="m65.44 36.36c0 9.87-8 34.64-17.86 34.64a17.7 17.7 0 0 1 -10.58-3.48 17.7 17.7 0 0 1 -10.58 3.48c-3.01 0-5.85-2.31-8.34-5.81a8.586 8.586 0 0 0 5.84 2.84 17.7 17.7 0 0 0 10.58-3.48 17.7 17.7 0 0 0 10.58 3.48c9.86 0 17.86-24.77 17.86-34.64a17.746 17.746 0 0 0 -3.02-9.94 17.82 17.82 0 0 1 5.52 12.91z" fill="#ea6453"/><path d="m37 22.472a.5.5 0 0 1 -.5-.5c0-.111-.052-11.173-8.637-14.7a.5.5 0 0 1 .381-.925c9.213 3.784 9.256 15.51 9.256 15.628a.5.5 0 0 1 -.5.497z" fill="#323c6b"/><path d="m48.384 3a6.1 6.1 0 0 1 -6.065 3.865c-4.692-.167-7.3 4.718-6.489 8.276 0 0 8.109 2.653 11.465-2.526a9.944 9.944 0 0 0 1.089-9.615z" fill="#6fc666"/><path d="m40.411 16.334a16.661 16.661 0 0 1 -4.736-.718.5.5 0 0 1 -.332-.364 7.806 7.806 0 0 1 1.657-6.452 6.526 6.526 0 0 1 5.341-2.433q.133 0 .264 0a5.545 5.545 0 0 0 5.311-3.533.5.5 0 0 1 .437-.335.494.494 0 0 1 .48.269c.1.19 2.375 4.733-1.113 10.117-1.788 2.755-4.762 3.449-7.309 3.449zm-4.149-1.588c1.411.389 7.844 1.872 10.613-2.4a9.754 9.754 0 0 0 1.438-8.111 6.548 6.548 0 0 1 -6.013 3.13 5.533 5.533 0 0 0 -4.535 2.072 6.837 6.837 0 0 0 -1.503 5.31z" fill="#323c6b"/><path d="m15.125 30.625a.75.75 0 0 1 -.649-1.124 13.5 13.5 0 0 1 11.667-6.771.75.75 0 1 1 0 1.5 11.992 11.992 0 0 0 -10.366 6.018.751.751 0 0 1 -.652.377z" fill="#fff"/><path d="m13.732 34.326a.75.75 0 0 1 -.716-.975q.139-.44.3-.868a.75.75 0 0 1 1.4.529c-.1.259-.19.521-.273.788a.751.751 0 0 1 -.711.526z" fill="#fff"/><g fill="#323c6b"><path d="m57.125 68.991a.5.5 0 0 1 -.369-.837c.133-.145.265-.292.395-.445a.5.5 0 1 1 .762.646c-.138.163-.277.32-.418.474a.5.5 0 0 1 -.37.162z"/><path d="m12.016 21.833a.5.5 0 0 1 -.348-.859l.1-.093c.1-.1.2-.2.31-.293a.5.5 0 1 1 .67.742c-.1.087-.188.177-.281.268l-.1.1a.5.5 0 0 1 -.351.135z"/><path d="m14.5 19.782a.5.5 0 0 1 -.286-.91 21.3 21.3 0 0 1 11.136-3.823.478.478 0 0 1 .524.475.5.5 0 0 1 -.474.524 20.3 20.3 0 0 0 -10.614 3.645.5.5 0 0 1 -.286.089z"/><path d="m58.939 66.625a.5.5 0 0 1 -.415-.778 47.018 47.018 0 0 0 4.092-7.736.5.5 0 0 1 .92.392 47.99 47.99 0 0 1 -4.182 7.9.5.5 0 0 1 -.415.222z"/><path d="m47.576 71.5a18.133 18.133 0 0 1 -10.576-3.359 18.133 18.133 0 0 1 -10.576 3.359c-10.224 0-18.362-25.237-18.362-35.143a18.383 18.383 0 0 1 18.362-18.357 18.133 18.133 0 0 1 10.576 3.354 18.133 18.133 0 0 1 10.576-3.354 18.383 18.383 0 0 1 18.362 18.357c0 9.906-8.138 35.143-18.362 35.143zm-10.576-4.477a.5.5 0 0 1 .3.1 17.14 17.14 0 0 0 10.276 3.377c9.477 0 17.362-24.79 17.362-34.143a17.382 17.382 0 0 0 -17.362-17.357 17.14 17.14 0 0 0 -10.276 3.374.5.5 0 0 1 -.6 0 17.14 17.14 0 0 0 -10.276-3.374 17.382 17.382 0 0 0 -17.362 17.357c0 9.353 7.886 34.143 17.362 34.143a17.14 17.14 0 0 0 10.276-3.379.5.5 0 0 1 .3-.098z"/></g></svg>