<svg id="color_line" height="512" viewBox="0 0 74 74" width="512" xmlns="http://www.w3.org/2000/svg" data-name="color line"><path d="m47.428 24.369h20.219a1.209 1.209 0 0 1 1.209 1.209v3.684a1.208 1.208 0 0 1 -1.208 1.208h-20.22a1.209 1.209 0 0 1 -1.209-1.209v-3.684a1.208 1.208 0 0 1 1.208-1.208z" fill="#9297ab" transform="matrix(1 -.003 .003 1 -.074 .156)"/><path d="m66.879 30.444-.023 14.506v.228c-1.156.341-2.3.672-3.459 1a10.9 10.9 0 0 1 -4.49.644c-2.041-.271-3.73-1.658-5.581-2.569a6.722 6.722 0 0 0 -5.133-.565l.02-13.2z" fill="#eeefee"/><path d="m66.854 45.178-.022 16.122a9.334 9.334 0 0 1 -18.668.049l.027-17.651a6.722 6.722 0 0 1 5.133.565c1.851.911 3.54 2.3 5.581 2.569a10.9 10.9 0 0 0 4.49-.644c1.156-.338 2.305-.669 3.459-1.01z" fill="#27ccbc"/><path d="m68.861 25.547v3.689a1.211 1.211 0 0 1 -1.209 1.209h-1.865a1.65 1.65 0 0 0 1.013-1.536v-3.047a1.641 1.641 0 0 0 -1.011-1.517l1.824-.007h.041a1.211 1.211 0 0 1 1.207 1.209z" fill="#84879c"/><path d="m66.879 30.444-.025 14.734c-.83.246-1.652.482-3.054.859l.032-15.582z" fill="#e1e6e9"/><path d="m66.854 45.178-.022 16.122a9.326 9.326 0 0 1 -9.032 9.346 7.6 7.6 0 0 1 -.811.041 8.731 8.731 0 0 1 -1.744-.159 9.317 9.317 0 0 0 8.566-9.319l.022-15.277c.829-.238 2.842-.698 3.021-.754z" fill="#21b3a9"/><path d="m59.724 47.382a6.417 6.417 0 0 1 -.889-.061 11.227 11.227 0 0 1 -4.119-1.721c-.527-.308-1.071-.627-1.614-.894a6.152 6.152 0 0 0 -4.734-.546.5.5 0 0 1 -.678-.468l.02-13.2a.5.5 0 0 1 .5-.5l18.668-.048a.5.5 0 0 1 .5.5l-.025 14.737a.5.5 0 0 1 -.358.476c-1.157.342-2.305.673-3.463 1a13.8 13.8 0 0 1 -3.808.725zm-9.815-4.482a8.313 8.313 0 0 1 3.636.91c.573.282 1.134.61 1.676.927a10.335 10.335 0 0 0 3.749 1.594 10.6 10.6 0 0 0 4.285-.628c1.038-.3 2.066-.594 3.1-.9l.022-13.858-17.668.045-.018 12.034a5.731 5.731 0 0 1 1.218-.124z" fill="#323c6b"/><path d="m57.5 71.153a9.833 9.833 0 0 1 -9.834-9.808l.026-17.654a.5.5 0 0 1 .322-.466 7.156 7.156 0 0 1 5.533.584c.573.282 1.134.61 1.676.927a10.335 10.335 0 0 0 3.749 1.594 10.6 10.6 0 0 0 4.285-.628c1.157-.332 2.3-.663 3.457-1a.5.5 0 0 1 .642.48l-.024 16.118a9.829 9.829 0 0 1 -9.8 9.857zm-8.808-27.1-.026 17.291a8.833 8.833 0 0 0 8.834 8.809h.028a8.829 8.829 0 0 0 8.804-8.853l.021-15.45c-.94.275-1.877.546-2.821.816a11.382 11.382 0 0 1 -4.7.659 11.227 11.227 0 0 1 -4.116-1.725c-.527-.308-1.071-.627-1.614-.894a6.423 6.423 0 0 0 -4.412-.652z" fill="#323c6b"/><path d="m47.432 31a1.709 1.709 0 0 1 -1.708-1.705l-.008-3.684a1.709 1.709 0 0 1 1.7-1.712l20.218-.055a1.711 1.711 0 0 1 1.709 1.705l.008 3.684a1.711 1.711 0 0 1 -1.7 1.712l-20.213.055zm20.21-6.155-20.22.055a.709.709 0 0 0 -.707.71l.008 3.684a.708.708 0 0 0 .708.707l20.219-.055a.709.709 0 0 0 .707-.71l-.008-3.684a.71.71 0 0 0 -.707-.711z" fill="#323c6b"/><path d="m50.375 50.271a.577.577 0 0 1 -.592-.58v-.323a.586.586 0 1 1 1.172-.021v.333a.577.577 0 0 1 -.58.591z" fill="#fff"/><path d="m50.527 59.386a.577.577 0 0 1 -.569-.6l-.124-7.107a.579.579 0 0 1 .583-.57h.019a.583.583 0 0 1 .569.6l.124 7.107a.577.577 0 0 1 -.602.57z" fill="#fff"/><path d="m34.727 54.832a15.8 15.8 0 1 1 -22.392-14.34v-11.342h13.2v11.342a15.778 15.778 0 0 1 9.032 12.087 16.143 16.143 0 0 1 .16 2.253z" fill="#eeefee"/><path d="m34.725 54.834a15.8 15.8 0 0 1 -14.888 15.766 15.792 15.792 0 0 0 2.805-29.672v-11.776h2.889v11.34a15.766 15.766 0 0 1 9.194 14.342z" fill="#e1e6e9"/><path d="m34.727 54.832a15.792 15.792 0 1 1 -30.858-4.743 12.579 12.579 0 0 1 2.913.17 63.32 63.32 0 0 1 6.694 2.121c2.234.679 4.761.962 6.854-.094 1.678-.858 2.951-2.517 4.789-2.923 1.867-.424 3.715.566 5.421 1.424q1.98.99 4.026 1.791a16.143 16.143 0 0 1 .161 2.254z" fill="#fe7058"/><g fill="#ea6453"><path d="m35.044 54.932a16.151 16.151 0 0 1 -16.134 16.125 15.969 15.969 0 0 1 -8.9-2.691 16.134 16.134 0 0 0 22.39-14.872 17.008 17.008 0 0 0 -.115-1.905c.856.37 1.711.7 2.585 1.006a15.781 15.781 0 0 1 .174 2.337z"/><circle cx="10.862" cy="57.375" r="1.653"/><circle cx="18.747" cy="63.607" r="1.653"/><circle cx="26.25" cy="56.548" r="1.653"/></g><path d="m18.932 71.127a16.291 16.291 0 0 1 -7.1-30.954v-11.022a.5.5 0 0 1 .5-.5h13.2a.5.5 0 0 1 .5.5v11.022a16.291 16.291 0 0 1 -7.1 30.954zm-6.1-41.476v10.839a.5.5 0 0 1 -.292.454 15.292 15.292 0 1 0 12.783 0 .5.5 0 0 1 -.292-.454v-10.839z" fill="#323c6b"/><path d="m26.934 30.444-15.984.056a1.209 1.209 0 0 1 -1.212-1.206l-.008-3.685a1.209 1.209 0 0 1 1.205-1.209l15.984-.055a1.209 1.209 0 0 1 1.212 1.206l.008 3.684a1.209 1.209 0 0 1 -1.205 1.209z" fill="#9297ab"/><path d="m28.14 25.549v3.689a1.211 1.211 0 0 1 -1.209 1.209h-1.865a1.65 1.65 0 0 0 1.018-1.537l-.007-3.047a1.641 1.641 0 0 0 -1.011-1.517l1.824-.007h.041a1.211 1.211 0 0 1 1.209 1.21z" fill="#84879c"/><path d="m10.947 31a1.708 1.708 0 0 1 -1.708-1.7l-.009-3.69a1.711 1.711 0 0 1 1.7-1.712l15.983-.055h.005a1.708 1.708 0 0 1 1.708 1.7l.008 3.684a1.711 1.711 0 0 1 -1.7 1.712l-15.982.061zm15.976-6.155-15.986.055a.709.709 0 0 0 -.707.71l.008 3.684a.708.708 0 0 0 .708.707l15.983-.055a.709.709 0 0 0 .707-.71l-.008-3.684a.709.709 0 0 0 -.708-.707z" fill="#323c6b"/><path d="m18.935 24.869a.5.5 0 0 1 -.5-.5v-15.49a6.322 6.322 0 0 1 12.644 0v3.729a6.453 6.453 0 1 0 12.906 0v-3.025a7.026 7.026 0 0 1 14.052 0v14.76a.5.5 0 0 1 -1 0v-14.76a6.026 6.026 0 0 0 -12.052 0v3.024a7.453 7.453 0 1 1 -14.906 0v-3.728a5.322 5.322 0 0 0 -10.644 0v15.49a.5.5 0 0 1 -.5.5z" fill="#323c6b"/></svg>