<svg id="color_line" enable-background="new 0 0 512 512" height="512" viewBox="0 0 512 512" width="512" xmlns="http://www.w3.org/2000/svg"><g><path d="m234.489 91.662v-49.457c0-11.882 9.632-21.514 21.514-21.514s21.514 9.632 21.514 21.514v49.429" fill="#eeefee"/><path d="m408.521 333.651h-50.688c-1.911 0-3.459-1.549-3.459-3.459 0-1.911 1.549-3.459 3.459-3.459h50.688c1.911 0 3.459 1.549 3.459 3.459s-1.549 3.459-3.459 3.459z" fill="#323c6b"/><path d="m154.167 333.651h-50.688c-1.911 0-3.459-1.549-3.459-3.459 0-1.911 1.549-3.459 3.459-3.459h50.688c1.911 0 3.459 1.549 3.459 3.459.001 1.91-1.548 3.459-3.459 3.459z" fill="#323c6b"/><path d="m311.656 333.651h-111.312c-1.911 0-3.459-1.549-3.459-3.459 0-1.911 1.549-3.459 3.459-3.459h111.312c1.911 0 3.459 1.549 3.459 3.459s-1.549 3.459-3.459 3.459z" fill="#323c6b"/><path d="m194.906 185.427-80.619 231.86c-5.394 14.432 1.933 30.504 16.365 35.898s30.504-1.933 35.898-16.365c.092-.246.18-.493.265-.742l74.351-213.891" fill="#eeefee"/><path d="m140.62 458.074c-3.629-.004-7.23-.639-10.641-1.875-16.297-5.823-24.789-23.755-18.966-40.052.003-.008.005-.015.008-.022l80.633-231.832c.562-1.826 2.498-2.851 4.324-2.289s2.851 2.498 2.289 4.324c-.024.079-.051.157-.081.234l-80.633 231.86c-2.201 6.116-1.872 12.857.913 18.73 5.75 12.198 20.3 17.425 32.497 11.675 5.881-2.773 10.414-7.776 12.593-13.903l74.344-213.871c.562-1.826 2.498-2.851 4.324-2.288 1.826.562 2.851 2.498 2.288 4.324-.024.079-.051.157-.081.234l-74.351 213.891c-4.429 12.477-16.221 20.824-29.461 20.854z" fill="#323c6b"/><path d="m317.094 185.565 80.619 231.722c4.984 14.579-2.794 30.437-17.372 35.422-14.288 4.885-29.869-2.486-35.156-16.63l-74.351-213.891" fill="#eeefee"/><path d="m380.817 452.982c-7.361 2.664-15.506 2.086-22.417-1.591.761-.277 1.522-.484 2.283-.761 14.479-5.131 22.058-21.027 16.927-35.507-.015-.042-.03-.084-.045-.126l-75.693-217.392 15.222-12.039 80.605 231.715c5.218 14.476-2.288 30.442-16.764 35.659-.039.014-.078.028-.118.042z" fill="#e1e6e9"/><path d="m396.399 494.703c-1.408-.001-2.674-.854-3.203-2.159l-15.547-38.289c-.718-1.771.135-3.789 1.906-4.508 1.771-.718 3.789.135 4.508 1.906l15.547 38.289c.718 1.77-.134 3.788-1.905 4.506-.413.167-.854.254-1.299.254z" fill="#323c6b"/><path d="m115.615 494.703c-1.911-.001-3.458-1.551-3.457-3.462 0-.445.086-.886.254-1.299l15.547-38.289c.718-1.771 2.737-2.625 4.508-1.906 1.771.718 2.625 2.737 1.906 4.508l-15.547 38.289c-.531 1.307-1.801 2.161-3.211 2.159z" fill="#323c6b"/><circle cx="256.014" cy="156.001" fill="#fe7058" r="67.826"/><path d="m323.805 156.022c.005 27.457-16.55 52.207-41.929 62.685 28.578-24.201 32.126-66.986 7.926-95.563-19.063-22.511-50.493-30.115-77.737-18.807 28.523-24.265 71.316-20.813 95.581 7.711 10.44 12.272 16.169 27.861 16.159 43.974z" fill="#ea6453"/><g fill="#323c6b"><path d="m416.865 411.247c-1.425.001-2.705-.873-3.224-2.2l-19.027-48.861c-.694-1.781.188-3.786 1.968-4.48s3.786.188 4.48 1.968l19.027 48.868c.695 1.78-.183 3.786-1.963 4.481-.402.157-.83.238-1.261.237z"/><path d="m419.902 427.098c-1.825.004-3.339-1.41-3.459-3.231l-.035-1.065c.003-.312-.011-.624-.042-.934-.214-1.899 1.152-3.612 3.051-3.826s3.612 1.152 3.826 3.051c.055.533.069 1.059.083 1.591v.733c.126 1.906-1.317 3.554-3.223 3.681h-.001z"/><path d="m168.496 146.598c-.174 0-.347-.011-.519-.035-1.889-.284-3.19-2.046-2.906-3.936v-.001l.159-1.204c.09-.692.18-1.439.311-2.152.404-1.867 2.245-3.054 4.112-2.65 1.787.386 2.964 2.096 2.689 3.903-.104.581-.18 1.169-.256 1.764l-.18 1.384c-.261 1.682-1.707 2.924-3.41 2.927z"/><path d="m173.513 127.35c-1.911.001-3.46-1.547-3.462-3.457 0-.432.08-.859.237-1.261 7.902-20.202 22.652-36.985 41.673-47.415 1.696-.881 3.784-.22 4.665 1.475.854 1.644.261 3.668-1.344 4.593-17.597 9.648-31.243 25.175-38.552 43.866-.518 1.324-1.794 2.197-3.217 2.199z"/></g><circle cx="256.014" cy="156.001" fill="#eeefee" r="30.886"/><path d="m256 190.346c-18.969 0-34.346-15.377-34.346-34.346s15.377-34.346 34.346-34.346 34.346 15.377 34.346 34.346c-.02 18.961-15.385 34.327-34.346 34.346zm0-61.772c-15.147 0-27.427 12.279-27.427 27.427 0 15.147 12.279 27.427 27.427 27.427 15.147 0 27.427-12.279 27.427-27.427-.019-15.14-12.288-27.408-27.427-27.427z" fill="#323c6b"/><path d="m371.394 458.074c-13.221-.033-25.003-8.351-29.461-20.798l-74.365-213.954c-.562-1.826.463-3.762 2.289-4.324 1.734-.534 3.586.363 4.243 2.055l74.351 213.891c4.354 12.775 18.24 19.601 31.015 15.246 12.775-4.354 19.601-18.24 15.246-31.015-.082-.241-.168-.481-.258-.719l-80.626-231.784c-.691-1.781.192-3.785 1.974-4.477 1.781-.691 3.785.192 4.477 1.973.03.077.057.155.081.234l80.619 231.749c5.789 16.37-2.788 34.334-19.158 40.123-3.349 1.185-6.875 1.794-10.427 1.8z" fill="#323c6b"/><path d="m257.315 39.922v48.536c1.128-.083 2.256-.166 3.459-.166 5.652-.075 11.252 1.082 16.412 3.39h.346v-49.477c-.027-11.867-9.665-21.468-21.532-21.449-2.694.015-5.365.507-7.888 1.453 1.053.754 2.047 1.587 2.975 2.491 3.968 4.077 6.2 9.534 6.228 15.222z" fill="#e1e6e9"/><path d="m277.511 95.128c-1.911 0-3.459-1.549-3.459-3.459v-49.464c0-9.971-8.083-18.055-18.055-18.055s-18.055 8.083-18.055 18.055v49.429c0 1.911-1.549 3.459-3.459 3.459s-3.459-1.549-3.459-3.459v-49.429c0-13.793 11.181-24.974 24.974-24.974s24.974 11.181 24.974 24.974v49.429c.019 1.911-1.514 3.475-3.425 3.494-.013 0-.024 0-.036 0z" fill="#323c6b"/><path d="m256 227.286c-39.359 0-71.265-31.906-71.265-71.265s31.906-71.264 71.265-71.264 71.265 31.906 71.265 71.265c-.054 39.336-31.929 71.211-71.265 71.264zm0-135.645c-35.537 0-64.346 28.809-64.346 64.346s28.809 64.346 64.346 64.346 64.346-28.809 64.346-64.346c-.05-35.517-28.829-64.296-64.346-64.346z" fill="#323c6b"/></g></svg>