<svg id="color_line" height="512" viewBox="0 0 74 74" width="512" xmlns="http://www.w3.org/2000/svg" data-name="color line"><path d="m40.5 23.793h-33.536a3.812 3.812 0 0 0 -3.812 3.812v20.044a3.812 3.812 0 0 0 3.812 3.812h58.224a3.812 3.812 0 0 0 3.812-3.812v-20.044a3.812 3.812 0 0 0 -3.812-3.812h-12.605" fill="#9297ab"/><path d="m69 27.61v20.04a3.8 3.8 0 0 1 -2.82 3.67 3.774 3.774 0 0 0 .19-1.17v-20.04a3.811 3.811 0 0 0 -3.81-3.82h-58.22a3.658 3.658 0 0 0 -1 .14 3.8 3.8 0 0 1 3.62-2.64h58.23a3.818 3.818 0 0 1 3.81 3.82z" fill="#84879c"/><path d="m26.042 30.786h-17.707a.5.5 0 1 1 0-1h17.707a.5.5 0 0 1 0 1z" fill="#323c6b"/><path d="m26.042 37.057h-17.707a.5.5 0 0 1 0-1h17.707a.5.5 0 1 1 0 1z" fill="#323c6b"/><path d="m26.042 43.329h-17.707a.5.5 0 0 1 0-1h17.707a.5.5 0 1 1 0 1z" fill="#323c6b"/><path d="m7.692 51.461h7.6a0 0 0 0 1 0 0v3.555a.98.98 0 0 1 -.98.98h-5.639a.98.98 0 0 1 -.98-.98v-3.555a0 0 0 0 1 -.001 0z" fill="#707583"/><path d="m14.309 56.5h-5.636a1.482 1.482 0 0 1 -1.48-1.48v-3.559a.5.5 0 0 1 .5-.5h7.6a.5.5 0 0 1 .5.5v3.555a1.482 1.482 0 0 1 -1.484 1.484zm-6.117-4.539v3.055a.481.481 0 0 0 .48.48h5.636a.481.481 0 0 0 .48-.48v-3.055z" fill="#323c6b"/><path d="m54.711 51.461h7.6a0 0 0 0 1 0 0v3.555a.98.98 0 0 1 -.98.98h-5.639a.98.98 0 0 1 -.98-.98v-3.555a0 0 0 0 1 -.001 0z" fill="#707583"/><g fill="#323c6b"><path d="m61.327 56.5h-5.636a1.482 1.482 0 0 1 -1.48-1.48v-3.559a.5.5 0 0 1 .5-.5h7.6a.5.5 0 0 1 .5.5v3.555a1.482 1.482 0 0 1 -1.484 1.484zm-6.116-4.536v3.055a.481.481 0 0 0 .48.48h5.636a.481.481 0 0 0 .48-.48v-3.058z"/><path d="m10.546 21.293h-.346a.5.5 0 0 1 0-1h.35a.5.5 0 1 1 0 1z"/><path d="m21.708 21.293h-8.666a.5.5 0 0 1 0-1h8.666a.5.5 0 0 1 0 1z"/><path d="m67.439 54.757a.5.5 0 0 1 -.128-.983 5.626 5.626 0 0 0 4.189-5.434v-.84a.5.5 0 0 1 1 0v.84a6.626 6.626 0 0 1 -4.933 6.4.506.506 0 0 1 -.128.017z"/><path d="m72 45.969a.5.5 0 0 1 -.5-.5v-.391a.5.5 0 0 1 1 0v.391a.5.5 0 0 1 -.5.5z"/><path d="m65.188 51.961h-58.224a4.317 4.317 0 0 1 -4.312-4.312v-20.049a4.317 4.317 0 0 1 4.312-4.312h33.536a.5.5 0 0 1 0 1h-33.536a3.315 3.315 0 0 0 -3.312 3.312v20.049a3.315 3.315 0 0 0 3.312 3.312h58.224a3.315 3.315 0 0 0 3.312-3.312v-20.049a3.315 3.315 0 0 0 -3.312-3.312h-12.605a.5.5 0 0 1 0-1h12.605a4.317 4.317 0 0 1 4.312 4.312v20.049a4.317 4.317 0 0 1 -4.312 4.312z"/></g><circle cx="47.166" cy="37.006" fill="#84879c" r="16.006"/><g opacity=".5"><path d="m63.17 37.01a15.916 15.916 0 0 1 -6.05 12.52 16 16 0 0 0 -22.07-22.96 15.991 15.991 0 0 1 28.12 10.44z" fill="#707583"/></g><path d="m59.04 37.01a11.861 11.861 0 0 1 -11 11.83 8.433 8.433 0 0 1 -.87.04 12.1 12.1 0 0 1 -3.43-.5 11.908 11.908 0 0 1 -1.34-.5c-.37-.16-.72-.34-1.07-.53-.26-.15-.51-.3-.75-.47a11.127 11.127 0 0 1 -1.69-1.37 11.866 11.866 0 0 1 8.28-20.37 11.207 11.207 0 0 1 1.3.07 11.608 11.608 0 0 1 2.14.44c.28.08.55.18.82.28a10.672 10.672 0 0 1 1.09.49 10.838 10.838 0 0 1 1.24.72 11.884 11.884 0 0 1 5.28 9.87z" fill="#89c5cd"/><path d="m47.166 53.512a16.506 16.506 0 1 1 16.506-16.506 16.524 16.524 0 0 1 -16.506 16.506zm0-32.012a15.506 15.506 0 1 0 15.506 15.506 15.524 15.524 0 0 0 -15.506-15.506z" fill="#323c6b"/><g fill="#eeefee" opacity=".5"><path d="m50.61 25.65-10.03 21.23a11.127 11.127 0 0 1 -1.69-1.37l9.58-20.3a11.608 11.608 0 0 1 2.14.44z"/><path d="m52.52 26.42-10.12 21.46c-.37-.16-.72-.34-1.07-.53l10.1-21.42a10.672 10.672 0 0 1 1.09.49z"/><path d="m56.86 30.16-8.82 18.68a8.433 8.433 0 0 1 -.87.04 12.1 12.1 0 0 1 -3.43-.5l10.02-21.24a11.871 11.871 0 0 1 3.1 3.02z"/></g><path d="m47.166 49.3a12.3 12.3 0 1 1 12.3-12.3 12.31 12.31 0 0 1 -12.3 12.3zm0-23.592a11.3 11.3 0 1 0 11.3 11.3 11.309 11.309 0 0 0 -11.3-11.298z" fill="#323c6b"/><path d="m26.24 47.658a.772.772 0 0 1 .79-.778l.432.007a.784.784 0 1 1 0 1.568l-.445-.007a.772.772 0 0 1 -.777-.79z" fill="#fff"/><path d="m15.017 47.647a.772.772 0 0 1 .819-.747h8.537a.774.774 0 0 1 .748.793v.025a.78.78 0 0 1 -.819.747h-8.538a.772.772 0 0 1 -.747-.818z" fill="#fff"/></svg>