<svg id="color_line" height="512" viewBox="0 0 74 74" width="512" xmlns="http://www.w3.org/2000/svg" data-name="color line"><path d="m18.291 14.258-2.516.742a1.749 1.749 0 0 0 -1.156 1.1l-7.619 21.6-3.285-2 7.712-21.864a3.15 3.15 0 0 1 2.082-1.974l3.753-1.1a1.825 1.825 0 0 1 1.8.456 1.825 1.825 0 0 1 -.771 3.04z" fill="#9297ab"/><path d="m7 38.2a.5.5 0 0 1 -.26-.073l-3.285-2a.5.5 0 0 1 -.212-.594l7.712-21.864a3.661 3.661 0 0 1 2.412-2.288l3.754-1.1a2.325 2.325 0 1 1 1.313 4.461l-2.516.74a1.251 1.251 0 0 0 -.825.782l-7.622 21.601a.5.5 0 0 1 -.3.3.51.51 0 0 1 -.171.035zm-2.68-2.719 2.412 1.47 7.416-21.024a2.253 2.253 0 0 1 1.486-1.409l2.515-.74a1.326 1.326 0 0 0 .56-2.212 1.329 1.329 0 0 0 -1.308-.331l-3.754 1.1a2.659 2.659 0 0 0 -1.747 1.665z" fill="#323c6b"/><path d="m55.709 14.258 2.516.74a1.749 1.749 0 0 1 1.156 1.1l7.619 21.602 3.285-2-7.711-21.867a3.15 3.15 0 0 0 -2.082-1.974l-3.753-1.1a1.825 1.825 0 0 0 -1.8.456 1.825 1.825 0 0 0 .77 3.043z" fill="#9297ab"/><path d="m70.29 35.7-2.03 1.23-7.56-21.43a3.147 3.147 0 0 0 -2.08-1.97l-3.76-1.11a1.741 1.741 0 0 0 -.45-.06 1.813 1.813 0 0 1 2.33-1.6l3.75 1.1a3.126 3.126 0 0 1 2.08 1.97z" fill="#84879c"/><path d="m5.56 40.611 1.554 19.607a3.62 3.62 0 0 0 3.611 3.331h16.4a3.6 3.6 0 0 0 3.5-2.705l2.884-11.011a3.615 3.615 0 0 1 7 0l2.873 11.011a3.611 3.611 0 0 0 3.5 2.705h16.41a3.617 3.617 0 0 0 3.6-3.331l1.548-19.607" fill="#89c5cd"/><path d="m68.44 40.61-1.55 19.61a3.624 3.624 0 0 1 -3.6 3.33h-16.41a3.606 3.606 0 0 1 -3.5-2.71v-.01a3.716 3.716 0 0 0 1 .14h16.41a3.633 3.633 0 0 0 3.6-3.34l1.35-17.02z" fill="#6eaaad"/><path d="m5.929 34.764h24.682l-1.5 4.963a1.929 1.929 0 0 0 -.045.905h-23.137a2.941 2.941 0 0 1 -2.929-2.939 2.868 2.868 0 0 1 .861-2.068 2.906 2.906 0 0 1 2.068-.861z" fill="#e1e6e9"/><path d="m29.068 41.133h-23.139a3.439 3.439 0 0 1 -3.429-3.44 3.362 3.362 0 0 1 1.011-2.425 3.4 3.4 0 0 1 2.418-1h24.682a.5.5 0 0 1 .479.645l-1.5 4.963a1.421 1.421 0 0 0 -.032.667.5.5 0 0 1 -.491.594zm-23.139-5.869a2.414 2.414 0 0 0 -1.715.714 2.376 2.376 0 0 0 -.714 1.715 2.438 2.438 0 0 0 2.429 2.44h22.61a2.565 2.565 0 0 1 .093-.542l1.307-4.327z" fill="#323c6b"/><path d="m44.942 40.633a1.941 1.941 0 0 1 -1.923 1.6h-12.039a1.957 1.957 0 0 1 -1.867-2.5l1.5-4.963.067-.224a1.955 1.955 0 0 1 1.867-1.386h8.909a1.956 1.956 0 0 1 1.867 1.386l.067.224 1.5 4.963a1.935 1.935 0 0 1 .052.9z" fill="#9297ab"/><path d="m44.94 40.63a1.932 1.932 0 0 1 -1.92 1.6h-.34a.647.647 0 0 0 -.04-.19l-1.5-4.96-.07-.23a1.947 1.947 0 0 0 -1.87-1.38h-8.8l.21-.71.07-.22a1.944 1.944 0 0 1 1.87-1.39h8.9a1.944 1.944 0 0 1 1.87 1.39l.07.22 1.5 4.97a1.849 1.849 0 0 1 .05.9z" fill="#84879c"/><path d="m42.957 42.794h-12.039a2.458 2.458 0 0 1 -2.349-3.141l1.568-5.194a2.466 2.466 0 0 1 2.345-1.742h8.91a2.466 2.466 0 0 1 2.345 1.742l1.563 5.187a2.465 2.465 0 0 1 .069 1.14 2.439 2.439 0 0 1 -2.412 2.008zm-10.475-9.077a1.46 1.46 0 0 0 -1.388 1.031l-1.565 5.187a1.421 1.421 0 0 0 -.032.667 1.44 1.44 0 0 0 1.421 1.192h12.039a1.441 1.441 0 0 0 1.431-1.184v-.01a1.438 1.438 0 0 0 -.046-.675l-1.562-5.18a1.46 1.46 0 0 0 -1.388-1.03z" fill="#323c6b"/><path d="m67 38.2a.51.51 0 0 1 -.168-.029.5.5 0 0 1 -.3-.3l-7.624-21.611a1.249 1.249 0 0 0 -.824-.782l-2.517-.741a2.325 2.325 0 1 1 1.313-4.461l3.752 1.1a3.661 3.661 0 0 1 2.413 2.288l7.712 21.864a.5.5 0 0 1 -.212.594l-3.285 2a.5.5 0 0 1 -.26.078zm-10.775-27.019a1.325 1.325 0 0 0 -.375 2.6l2.516.74a2.251 2.251 0 0 1 1.485 1.409l7.416 21.024 2.412-1.47-7.579-21.484a2.658 2.658 0 0 0 -1.752-1.662l-3.752-1.1a1.337 1.337 0 0 0 -.371-.057z" fill="#323c6b"/><path d="m71 37.693a2.939 2.939 0 0 1 -2.929 2.94h-23.129a1.935 1.935 0 0 0 -.056-.905l-1.5-4.963h24.685a2.925 2.925 0 0 1 2.929 2.928z" fill="#e1e6e9"/><path d="m71 37.69a2.882 2.882 0 0 1 -.86 2.08 2.917 2.917 0 0 1 -2.07.86h-2.94a2.935 2.935 0 0 0 0-5.87h2.94a2.928 2.928 0 0 1 2.93 2.93z" fill="#d5d6db"/><g fill="#323c6b"><path d="m68.071 41.133h-23.129a.5.5 0 0 1 -.491-.594 1.438 1.438 0 0 0 -.046-.675l-1.5-4.956a.5.5 0 0 1 .479-.645h24.687a3.435 3.435 0 0 1 0 6.869zm-22.605-1h22.605a2.435 2.435 0 0 0 0-4.869h-24.009l1.3 4.319a2.771 2.771 0 0 1 .104.55z"/><path d="m63.287 64.049h-16.411a4.113 4.113 0 0 1 -3.983-3.08l-2.872-11.01a3.119 3.119 0 0 0 -3.016-2.331 3.125 3.125 0 0 0 -3.015 2.328l-2.885 11.015a4.11 4.11 0 0 1 -3.981 3.078h-16.4a4.135 4.135 0 0 1 -4.109-3.792l-1.553-19.607a.5.5 0 0 1 .459-.538.512.512 0 0 1 .537.459l1.553 19.608a3.132 3.132 0 0 0 3.113 2.871h16.4a3.11 3.11 0 0 0 3.014-2.33l2.886-11.013a4.115 4.115 0 0 1 7.965 0l2.871 11.011a3.115 3.115 0 0 0 3.016 2.331h16.411a3.124 3.124 0 0 0 3.1-2.87l1.555-19.608a.517.517 0 0 1 .537-.459.5.5 0 0 1 .459.538l-1.554 19.608a4.127 4.127 0 0 1 -4.097 3.791z"/><path d="m16.806 32.264h-.625a.5.5 0 1 1 0-1h.625a.5.5 0 0 1 0 1z"/><path d="m27.938 32.264h-9.063a.5.5 0 0 1 0-1h9.063a.5.5 0 0 1 0 1z"/><path d="m63.531 67.038a.5.5 0 0 1 -.019-1 6.161 6.161 0 0 0 5.541-4.1.5.5 0 1 1 .943.33 7.166 7.166 0 0 1 -6.447 4.77z"/><path d="m61.5 67.049h-.437a.5.5 0 0 1 0-1h.437a.5.5 0 1 1 0 1z"/></g><path d="m9.15 47.968a.658.658 0 0 1 -.735-.594v-.151a.668.668 0 1 1 1.328-.152v.161a.658.658 0 0 1 -.593.736z" fill="#fff"/><path d="m10 56.292a.658.658 0 0 1 -.712-.621l-.565-6.137a.66.66 0 0 1 .6-.71h.021a.665.665 0 0 1 .712.621l.565 6.137a.658.658 0 0 1 -.621.71z" fill="#fff"/></svg>