<svg id="color_line" height="512" viewBox="0 0 74 74" width="512" xmlns="http://www.w3.org/2000/svg" data-name="color line"><path d="m33.5 23.263a3.1 3.1 0 0 1 -.889 2.168 3.043 3.043 0 0 1 -2.168.9h-1.843v9.669h-9.668v-1.98a3.062 3.062 0 1 0 -6.125 0v1.98h-9.667v-9.669h1.9a3.062 3.062 0 0 0 0-6.125h-1.9v-9.667h9.667v-1.729a3.062 3.062 0 0 1 6.125 0v1.73h9.668v9.667h1.848a3.056 3.056 0 0 1 3.052 3.056z" fill="#27ccbc"/><path d="m33.5 23.26a3.1 3.1 0 0 1 -.89 2.17 2.907 2.907 0 0 1 -1.32.78 3 3 0 0 0 .15-.95 3.051 3.051 0 0 0 -3.06-3.05h-1.84v-9.67h-9.67v-1.73a3.039 3.039 0 0 0 -.9-2.16 3.1 3.1 0 0 0 -2.17-.9 2.94 2.94 0 0 0 -.84.12 3.063 3.063 0 0 1 2.9-2.12 3.1 3.1 0 0 1 2.17.9 3.039 3.039 0 0 1 .9 2.16v1.73h9.67v9.67h1.85a3.049 3.049 0 0 1 3.05 3.05z" fill="#21b3a9"/><path d="m70.86 20.51a3.1 3.1 0 0 1 -.889 2.168 3.043 3.043 0 0 1 -2.168.9h-1.848v9.667h-9.667v-1.978a3.062 3.062 0 1 0 -6.125 0v1.978h-9.663v-9.667h1.9a3.062 3.062 0 0 0 0-6.125h-1.9v-9.667h9.667v-1.729a3.062 3.062 0 0 1 6.125 0v1.73h9.667v9.667h1.841a3.056 3.056 0 0 1 3.06 3.056z" fill="#eeefee"/><path d="m70.86 20.51a3.043 3.043 0 0 1 -2.34 2.98 2.927 2.927 0 0 0 .17-.98 3.058 3.058 0 0 0 -3.05-3.06h-1.85v-9.66h-9.67v-1.73a3.073 3.073 0 0 0 -3.07-3.06 2.92 2.92 0 0 0 -.73.09 3.065 3.065 0 0 1 5.97.97v1.73h9.67v9.66h1.84a3.06 3.06 0 0 1 3.06 3.06z" fill="#e1e6e9"/><path d="m66.781 58.265a3.1 3.1 0 0 1 -.889 2.168 3.043 3.043 0 0 1 -2.168.9h-1.847v9.667h-9.667v-1.978a3.062 3.062 0 1 0 -6.125 0v1.978h-9.667v-9.667h1.9a3.062 3.062 0 0 0 0-6.125h-1.9v-9.667h9.667v-1.73a3.062 3.062 0 0 1 6.125 0v1.73h9.667v9.667h1.848a3.056 3.056 0 0 1 3.056 3.057z" fill="#fe7058"/><path d="m66.78 58.26a3.06 3.06 0 0 1 -.89 2.17 3 3 0 0 1 -1.52.83 2.832 2.832 0 0 0 .22-1.12 3.058 3.058 0 0 0 -3.05-3.06h-1.85v-9.66h-9.67v-1.73a3.073 3.073 0 0 0 -3.07-3.06 3.509 3.509 0 0 0 -.66.07 3.052 3.052 0 0 1 5.02-1.04 3 3 0 0 1 .9 2.15v1.73h9.67v9.67h1.84a3.052 3.052 0 0 1 3.06 3.05z" fill="#ea6453"/><path d="m33.5 58.265a3.1 3.1 0 0 1 -.889 2.168 3.043 3.043 0 0 1 -2.168.9h-1.843v9.667h-9.668v-1.978a3.062 3.062 0 1 0 -6.125 0v1.978h-9.667v-9.667h1.9a3.062 3.062 0 0 0 0-6.125h-1.9v-9.667h9.667v-1.73a3.062 3.062 0 0 1 6.125 0v1.73h9.668v9.667h1.848a3.056 3.056 0 0 1 3.052 3.057z" fill="#fcd462"/><path d="m33.5 58.26a3.06 3.06 0 0 1 -.89 2.17 3 3 0 0 1 -1.28.77 3.1 3.1 0 0 0 .11-.81 3.06 3.06 0 0 0 -3.06-3.06h-1.84v-9.66h-9.67v-1.73a3.073 3.073 0 0 0 -3.07-3.06 3.172 3.172 0 0 0 -.88.13 3.042 3.042 0 0 1 5.11-1.35 3 3 0 0 1 .9 2.15v1.73h9.67v9.67h1.85a3.049 3.049 0 0 1 3.05 3.05z" fill="#f7be56"/><g fill="#323c6b"><path d="m68.955 8.375a.5.5 0 0 1 -.5-.5v-2.589h-5.33a.5.5 0 0 1 0-1h5.83a.5.5 0 0 1 .5.5v3.089a.5.5 0 0 1 -.5.5z"/><path d="m68.955 10.958a.5.5 0 0 1 -.5-.5v-.4a.5.5 0 0 1 1 0v.4a.5.5 0 0 1 -.5.5z"/><path d="m23.378 43.041h-.366a.5.5 0 0 1 0-1h.366a.5.5 0 0 1 0 1z"/><path d="m31.6 45.125a.5.5 0 0 1 -.5-.5v-1.584h-5.6a.5.5 0 1 1 0-1h6.1a.5.5 0 0 1 .5.5v2.084a.5.5 0 0 1 -.5.5z"/><path d="m65.955 33.745h-9.667a.5.5 0 0 1 -.5-.5v-1.978a2.563 2.563 0 1 0 -5.125 0v1.979a.5.5 0 0 1 -.5.5h-9.663a.5.5 0 0 1 -.5-.5v-9.668a.5.5 0 0 1 .5-.5h1.9a2.563 2.563 0 0 0 0-5.125h-1.9a.5.5 0 0 1 -.5-.5v-9.667a.5.5 0 0 1 .5-.5h9.167v-1.229a3.563 3.563 0 0 1 7.125 0v1.229h9.167a.5.5 0 0 1 .5.5v9.167h1.341a3.563 3.563 0 0 1 0 7.125h-1.345v9.167a.5.5 0 0 1 -.5.5zm-9.167-1h8.667v-9.167a.5.5 0 0 1 .5-.5h1.845a2.551 2.551 0 0 0 1.814-.754 2.566 2.566 0 0 0 -1.814-4.371h-1.845a.5.5 0 0 1 -.5-.5v-9.167h-9.167a.5.5 0 0 1 -.5-.5v-1.729a2.563 2.563 0 0 0 -5.125 0v1.729a.5.5 0 0 1 -.5.5h-9.163v8.667h1.4a3.563 3.563 0 0 1 0 7.125h-1.4v8.667h8.667v-1.478a3.563 3.563 0 0 1 7.125 0z"/><path d="m28.6 36.5h-9.668a.5.5 0 0 1 -.5-.5v-1.98a2.563 2.563 0 1 0 -5.125 0v1.98a.5.5 0 0 1 -.5.5h-9.667a.5.5 0 0 1 -.5-.5v-9.669a.5.5 0 0 1 .5-.5h1.9a2.562 2.562 0 0 0 0-5.125h-1.9a.5.5 0 0 1 -.5-.5v-9.666a.5.5 0 0 1 .5-.5h9.167v-1.23a3.563 3.563 0 0 1 7.125 0v1.23h9.168a.5.5 0 0 1 .5.5v9.167h1.349a3.562 3.562 0 0 1 0 7.125h-1.349v9.168a.5.5 0 0 1 -.5.5zm-9.167-1h8.667v-9.169a.5.5 0 0 1 .5-.5h1.849a2.549 2.549 0 0 0 1.814-.754 2.566 2.566 0 0 0 -1.814-4.371h-1.849a.5.5 0 0 1 -.5-.5v-9.166h-9.168a.5.5 0 0 1 -.5-.5v-1.73a2.563 2.563 0 0 0 -5.125 0v1.73a.5.5 0 0 1 -.5.5h-9.167v8.667h1.4a3.562 3.562 0 0 1 0 7.125h-1.4v8.668h8.667v-1.48a3.563 3.563 0 0 1 7.125 0z"/><path d="m28.6 71.5h-9.668a.5.5 0 0 1 -.5-.5v-1.979a2.563 2.563 0 1 0 -5.125 0v1.979a.5.5 0 0 1 -.5.5h-9.667a.5.5 0 0 1 -.5-.5v-9.667a.5.5 0 0 1 .5-.5h1.9a2.563 2.563 0 0 0 0-5.125h-1.9a.5.5 0 0 1 -.5-.5v-9.667a.5.5 0 0 1 .5-.5h9.167v-1.229a3.563 3.563 0 0 1 7.125 0v1.229h9.168a.5.5 0 0 1 .5.5v9.167h1.349a3.563 3.563 0 0 1 0 7.125h-1.349v9.167a.5.5 0 0 1 -.5.5zm-9.167-1h8.667v-9.167a.5.5 0 0 1 .5-.5h1.849a2.551 2.551 0 0 0 1.814-.754 2.566 2.566 0 0 0 -1.814-4.371h-1.849a.5.5 0 0 1 -.5-.5v-9.167h-9.168a.5.5 0 0 1 -.5-.5v-1.729a2.563 2.563 0 0 0 -5.125 0v1.729a.5.5 0 0 1 -.5.5h-9.167v8.667h1.4a3.563 3.563 0 0 1 0 7.125h-1.4v8.667h8.667v-1.479a3.563 3.563 0 0 1 7.125 0z"/><path d="m61.877 71.5h-9.667a.5.5 0 0 1 -.5-.5v-1.979a2.563 2.563 0 1 0 -5.125 0v1.979a.5.5 0 0 1 -.5.5h-9.667a.5.5 0 0 1 -.5-.5v-9.667a.5.5 0 0 1 .5-.5h1.9a2.563 2.563 0 0 0 0-5.125h-1.9a.5.5 0 0 1 -.5-.5v-9.667a.5.5 0 0 1 .5-.5h9.167v-1.229a3.563 3.563 0 0 1 7.125 0v1.229h9.167a.5.5 0 0 1 .5.5v9.167h1.348a3.563 3.563 0 0 1 0 7.125h-1.348v9.167a.5.5 0 0 1 -.5.5zm-9.167-1h8.667v-9.167a.5.5 0 0 1 .5-.5h1.848a2.551 2.551 0 0 0 1.814-.754 2.566 2.566 0 0 0 -1.814-4.371h-1.848a.5.5 0 0 1 -.5-.5v-9.167h-9.167a.5.5 0 0 1 -.5-.5v-1.729a2.563 2.563 0 0 0 -5.125 0v1.729a.5.5 0 0 1 -.5.5h-9.167v8.667h1.4a3.563 3.563 0 0 1 0 7.125h-1.4v8.667h8.667v-1.479a3.563 3.563 0 0 1 7.125 0z"/></g><path d="m42.745 68.352a.545.545 0 0 1 .555-.552l.3.005a.553.553 0 1 1 0 1.106l-.314-.005a.545.545 0 0 1 -.541-.554z" fill="#fff"/><path d="m41.9 68.376v.016a.547.547 0 0 1 -.583.525h-2.925a.547.547 0 0 1 -.533-.575v-.525l.008-3.154a.542.542 0 0 1 .558-.525h.016a.55.55 0 0 1 .525.574v3.1h2.406a.547.547 0 0 1 .528.564z" fill="#fff"/></svg>