<svg id="color_line" height="512" viewBox="0 0 74 74" width="512" xmlns="http://www.w3.org/2000/svg" data-name="color line"><path d="m59.518 48.482a22.518 22.518 0 1 1 -31.929-20.455v-16.168h18.822v16.168a22.488 22.488 0 0 1 13.107 20.455z" fill="#eeefee"/><path d="m59.52 48.48a22.527 22.527 0 0 1 -21.23 22.48 22.518 22.518 0 0 0 4-42.31v-16.79h4.12v16.17a22.481 22.481 0 0 1 13.11 20.45z" fill="#e1e6e9"/><path d="m55.26 48.868a18.287 18.287 0 0 1 -36.573 0 17.935 17.935 0 0 1 .927-5.705 12.851 12.851 0 0 1 4.75-.047c2.4.431 4.618 1.508 6.96 2.211 2.323.7 4.946.993 7.12-.1 1.742-.89 3.073-2.614 4.984-3.035 1.939-.44 3.86.59 5.63 1.48a50.4 50.4 0 0 0 6.005 2.548 17.767 17.767 0 0 1 .197 2.648z" fill="#fe7058"/><path d="m55.26 48.87a18.309 18.309 0 0 1 -18.29 18.28 18.1 18.1 0 0 1 -10.09-3.05 18.29 18.29 0 0 0 25.38-16.86 19.28 19.28 0 0 0 -.13-2.16c.97.42 1.94.79 2.93 1.14a17.89 17.89 0 0 1 .2 2.65z" fill="#ea6453"/><rect fill="#9297ab" height="6.857" rx="1.44" width="24.428" x="24.786" y="5"/><path d="m49.21 6.44v3.98a1.44 1.44 0 0 1 -1.44 1.44h-1.35v-2.88a1.44 1.44 0 0 0 -1.44-1.44h-20.19v-1.1a1.434 1.434 0 0 1 1.44-1.44h21.54a1.434 1.434 0 0 1 1.44 1.44z" fill="#84879c"/><circle cx="26.034" cy="53.154" fill="#ea6453" r="2.091"/><circle cx="36.008" cy="61.037" fill="#ea6453" r="2.091"/><circle cx="45.499" cy="52.109" fill="#ea6453" r="2.091"/><g fill="#323c6b"><path d="m37 71.5a23.016 23.016 0 0 1 -9.911-43.791v-15.85a.5.5 0 0 1 .5-.5h18.822a.5.5 0 0 1 .5.5v15.85a23.016 23.016 0 0 1 -9.911 43.791zm-8.911-59.141v15.668a.5.5 0 0 1 -.291.454 22.019 22.019 0 1 0 18.4 0 .5.5 0 0 1 -.291-.454v-15.668z"/><path d="m36.974 67.654a18.808 18.808 0 0 1 -18.787-18.786 18.413 18.413 0 0 1 .954-5.868.5.5 0 0 1 .377-.332 13.275 13.275 0 0 1 4.934-.048 27.046 27.046 0 0 1 4.476 1.35c.829.3 1.688.619 2.541.875 2.741.829 5.013.806 6.751-.07a12.255 12.255 0 0 0 1.861-1.269 8.367 8.367 0 0 1 3.239-1.806c2.024-.46 4 .531 5.734 1.407l.229.115a50.036 50.036 0 0 0 5.946 2.523.5.5 0 0 1 .328.4 18.421 18.421 0 0 1 .2 2.725 18.808 18.808 0 0 1 -18.783 18.784zm-16.974-24.054a17.392 17.392 0 0 0 -.812 5.268 17.787 17.787 0 1 0 35.573 0 17.344 17.344 0 0 0 -.149-2.281 50.909 50.909 0 0 1 -5.777-2.472l-.23-.115c-1.664-.838-3.384-1.708-5.067-1.324a7.516 7.516 0 0 0 -2.847 1.624 13.183 13.183 0 0 1 -2.02 1.37c-1.976 1-4.5 1.043-7.492.136-.882-.264-1.754-.584-2.6-.893a25.857 25.857 0 0 0 -4.309-1.3 12.238 12.238 0 0 0 -4.27-.013z"/><path d="m47.773 12.357h-21.546a1.942 1.942 0 0 1 -1.94-1.94v-3.977a1.942 1.942 0 0 1 1.94-1.94h21.546a1.942 1.942 0 0 1 1.94 1.94v3.977a1.942 1.942 0 0 1 -1.94 1.94zm-21.546-6.857a.941.941 0 0 0 -.94.94v3.977a.941.941 0 0 0 .94.94h21.546a.941.941 0 0 0 .94-.94v-3.977a.941.941 0 0 0 -.94-.94z"/><path d="m48.125 71.943a.5.5 0 0 1 -.219-.95 25.059 25.059 0 0 0 7.421-5.521.5.5 0 1 1 .732.681 26.047 26.047 0 0 1 -7.716 5.74.5.5 0 0 1 -.218.05z"/><path d="m13.229 39.75a.5.5 0 0 1 -.466-.683l.146-.382a.5.5 0 0 1 .926.38l-.141.368a.5.5 0 0 1 -.465.317z"/><path d="m14.365 37.25a.5.5 0 0 1 -.443-.73 26.025 26.025 0 0 1 6.4-7.986.5.5 0 0 1 .643.767 25.037 25.037 0 0 0 -6.151 7.681.5.5 0 0 1 -.449.268z"/><path d="m57.741 63.813a.5.5 0 0 1 -.405-.793l.148-.225a.5.5 0 1 1 .816.577l-.058.088c-.031.049-.062.1-.1.146a.5.5 0 0 1 -.401.207z"/></g></svg>