<svg id="color_line" height="512" viewBox="0 0 74 74" width="512" xmlns="http://www.w3.org/2000/svg" data-name="color line"><path d="m71 62.633h-68a13.45 13.45 0 0 1 13.441-13.092h41.129a13.44 13.44 0 0 1 13.43 13.092z" fill="#9297ab"/><path d="m41.44 38.621v10.92h-8.88v-10.92" fill="#eeefee"/><path d="m41.44 50.041h-8.88a.5.5 0 0 1 -.5-.5v-10.92a.5.5 0 0 1 1 0v10.42h7.88v-10.42a.5.5 0 0 1 1 0v10.92a.5.5 0 0 1 -.5.5z" fill="#323c6b"/><path d="m31.723 19.778a19.423 19.423 0 0 0 -3.852 10.53 9.129 9.129 0 0 0 18.258 0 19.423 19.423 0 0 0 -3.852-10.53z" fill="#9297ab"/><path d="m71 62.63h-68a13.09 13.09 0 0 1 .45-3.08h63.22a13.39 13.39 0 0 0 -3.64-8.85 13.442 13.442 0 0 1 7.97 11.93z" fill="#84879c"/><path d="m46.13 30.31a9.126 9.126 0 0 1 -10.88 8.96 9.133 9.133 0 0 0 7.38-8.96 19.446 19.446 0 0 0 -3.85-10.53h3.5a19.446 19.446 0 0 1 3.85 10.53z" fill="#84879c"/><circle cx="37" cy="29.607" fill="#eeefee" r="3.386"/><path d="m37 33.493a3.886 3.886 0 1 1 3.886-3.886 3.89 3.89 0 0 1 -3.886 3.886zm0-6.771a2.886 2.886 0 1 0 2.886 2.886 2.889 2.889 0 0 0 -2.886-2.886z" fill="#323c6b"/><path d="m71 63.133h-68a.5.5 0 0 1 -.5-.513 14.03 14.03 0 0 1 13.941-13.58h41.129a14.025 14.025 0 0 1 13.93 13.581.5.5 0 0 1 -.5.513zm-67.477-1h66.954a13.024 13.024 0 0 0 -12.907-12.092h-41.129a13.03 13.03 0 0 0 -12.918 12.092z" fill="#323c6b"/><path d="m37 39.937a9.64 9.64 0 0 1 -9.629-9.629 20.01 20.01 0 0 1 3.956-10.835.5.5 0 0 1 .4-.2h10.549a.5.5 0 0 1 .4.2 20.01 20.01 0 0 1 3.956 10.835 9.64 9.64 0 0 1 -9.632 9.629zm-5.027-19.659a18.9 18.9 0 0 0 -3.6 10.03 8.629 8.629 0 0 0 17.258 0 18.9 18.9 0 0 0 -3.6-10.03z" fill="#323c6b"/><path d="m16.263 12.674a10.458 10.458 0 0 0 10.314 8.764h20.846a10.458 10.458 0 0 0 10.314-8.764z" fill="#fcd462"/><path d="m57.734 12.67a10.455 10.455 0 0 1 -10.315 8.762h-1.619a10.383 10.383 0 0 0 8.335-8.762z" fill="#f7be56"/><g fill="#323c6b"><path d="m47.423 21.938h-20.846a10.913 10.913 0 0 1 -10.807-9.183.5.5 0 0 1 .494-.581h41.473a.5.5 0 0 1 .494.581 10.913 10.913 0 0 1 -10.808 9.183zm-30.554-8.764a9.913 9.913 0 0 0 9.708 7.764h20.846a9.913 9.913 0 0 0 9.708-7.764z"/><path d="m72.166 55.969a.5.5 0 0 1 -.446-.273 15.72 15.72 0 0 0 -6.43-6.672.5.5 0 1 1 .482-.876 16.721 16.721 0 0 1 6.838 7.094.5.5 0 0 1 -.445.727z"/><path d="m63.375 48.089a.5.5 0 0 1 -.176-.032c-.067-.025-.137-.046-.207-.068l-.186-.059a.5.5 0 1 1 .323-.946l.155.049c.089.027.178.055.265.087a.5.5 0 0 1 -.176.968z"/><path d="m20.875 23.647a.5.5 0 0 1 -.212-.047l-.16-.069c-.092-.038-.183-.077-.271-.122a.5.5 0 1 1 .455-.891c.065.033.133.061.2.089l.2.087a.5.5 0 0 1 -.213.953z"/><path d="m18 21.858a.5.5 0 0 1 -.318-.115 13.994 13.994 0 0 1 -4.782-8.063.5.5 0 1 1 .981-.192 12.994 12.994 0 0 0 4.436 7.486.5.5 0 0 1 -.319.885z"/></g><path d="m17.468 52.643a.613.613 0 0 1 -.624.621h-.276a.622.622 0 1 1 -.007-1.244h.286a.613.613 0 0 1 .621.623z" fill="#fff"/><path d="m28.024 52.665a.613.613 0 0 1 -.647.6l-8.054-.024a.615.615 0 0 1 -.6-.627v-.02a.619.619 0 0 1 .647-.6l8.054.024a.613.613 0 0 1 .6.647z" fill="#fff"/></svg>