<svg id="color_line" height="512" viewBox="0 0 74 74" width="512" xmlns="http://www.w3.org/2000/svg" data-name="color line"><path d="m43.4 55.459a.5.5 0 0 1 -.354-.146l-3.1-3.1a.5.5 0 0 1 0-.707l13.027-13.027a.5.5 0 0 1 .707 0l3.1 3.1a.5.5 0 0 1 0 .707l-13.024 13.027a.5.5 0 0 1 -.356.146zm-2.4-3.6 2.4 2.395 12.321-12.32-2.4-2.4z" fill="#323c6b"/><path d="m22.143 34.2a.5.5 0 0 1 -.354-.146l-3.1-3.1a.5.5 0 0 1 0-.707l13.023-13.029a.515.515 0 0 1 .707 0l3.1 3.1a.5.5 0 0 1 0 .707l-13.019 13.028a.5.5 0 0 1 -.357.147zm-2.395-3.6 2.395 2.4 12.318-12.326-2.4-2.4z" fill="#323c6b"/><rect fill="#89c5cd" height="25.97" rx="1.58" transform="matrix(-.707 -.707 .707 -.707 20.641 44.816)" width="16.833" x="11.185" y="5.148"/><rect fill="#89c5cd" height="25.97" rx="1.58" transform="matrix(-.707 -.707 .707 -.707 56.865 132.388)" width="16.833" x="47.434" y="41.432"/><path d="m69.88 52.29-16.13 16.12a1.569 1.569 0 0 1 -2.23 0l-9.67-9.66a1.581 1.581 0 0 1 0-2.24l.59-.59 8.91 8.91a1.581 1.581 0 0 0 2.24 0l15.54-15.53.75.75a1.581 1.581 0 0 1 0 2.24z" fill="#6eaaad"/><path d="m33.62 16.02-16.13 16.13a1.581 1.581 0 0 1 -2.24 0l-9.66-9.67a1.569 1.569 0 0 1 0-2.23l.59-.59 8.91 8.91a1.587 1.587 0 0 0 2.23 0l15.54-15.54.76.76a1.587 1.587 0 0 1 0 2.23z" fill="#6eaaad"/><path d="m10.42 27.815a.5.5 0 0 1 -.354-.854l18.364-18.361a.5.5 0 0 1 .707.707l-18.363 18.361a.5.5 0 0 1 -.354.147z" fill="#323c6b"/><path d="m25.553 24.584a.5.5 0 0 1 -.354-.146l-11.9-11.9a.5.5 0 0 1 .701-.71l11.9 11.9a.5.5 0 0 1 -.354.854z" fill="#323c6b"/><path d="m20.856 29.282a.5.5 0 0 1 -.354-.146l-11.902-11.903a.5.5 0 0 1 .707-.707l11.9 11.9a.5.5 0 0 1 -.354.854z" fill="#323c6b"/><path d="m30.251 19.887a.5.5 0 0 1 -.354-.146l-11.9-11.9a.5.5 0 0 1 .703-.711l11.9 11.9a.5.5 0 0 1 -.354.854z" fill="#323c6b"/><path d="m18.105 50.832h5.888v4.237h-5.888z" fill="#e1e6e9" transform="matrix(-.707 -.707 .707 -.707 -1.509 105.277)"/><path d="m21.633 57.031a.5.5 0 0 1 -.354-.146l-4.164-4.164a.5.5 0 0 1 0-.707l3-3a.5.5 0 0 1 .707 0l4.164 4.164a.5.5 0 0 1 0 .707l-3 3a.5.5 0 0 1 -.353.146zm-3.457-4.664 3.457 3.457 2.289-2.289-3.457-3.457z" fill="#323c6b"/><path d="m7.341 62.974 4.745-4.744 3.683 3.683-4.744 4.745" fill="#e1e6e9"/><path d="m11.025 67.158a.5.5 0 0 1 -.354-.854l4.391-4.391-2.977-2.977-4.39 4.392a.5.5 0 0 1 -.707-.707l4.745-4.745a.5.5 0 0 1 .707 0l3.684 3.684a.5.5 0 0 1 0 .707l-4.745 4.745a.5.5 0 0 1 -.354.146z" fill="#323c6b"/><circle cx="7.02" cy="66.98" fill="#fcd462" r="4.02" transform="matrix(.707 -.707 .707 .707 -45.306 24.582)"/><path d="m9.86 69.82a4.014 4.014 0 0 1 -5.68 0 3.907 3.907 0 0 1 -.82-1.19 4.016 4.016 0 0 0 6.18-4.77 2.782 2.782 0 0 1 .32.28 4.014 4.014 0 0 1 0 5.68z" fill="#f7be56"/><path d="m9.516 69.476a4.014 4.014 0 0 1 -5.68 0 3.907 3.907 0 0 1 -.82-1.19 4.016 4.016 0 0 0 6.18-4.77 2.782 2.782 0 0 1 .32.28 4.014 4.014 0 0 1 0 5.68z" fill="#f7be56"/><path d="m44.05 14.335c5.63-4.79 11.4-3.89 15.45.16s4.95 9.83.17 15.46z" fill="#9297ab"/><path d="m23.166 57.622-6.788-6.788a8.682 8.682 0 0 0 -12.278 0l19.066 19.066a8.682 8.682 0 0 0 0-12.278z" fill="#9297ab"/><path d="m60.7 27.95-2.47-2.47c3.06-3.1 2.71-8.32-.42-12.26a13.361 13.361 0 0 1 1.47 1.27c4.051 4.05 4.951 9.83 1.42 13.46z" fill="#84879c"/><path d="m23.17 57.62-2.537-2.537h-.06l.1.1a8.685 8.685 0 0 1 .03 12.25l2.47 2.47a8.685 8.685 0 0 0 -.003-12.283z" fill="#84879c"/><path d="m59.669 30.455a.5.5 0 0 1 -.354-.146l-15.615-15.621a.5.5 0 0 1 .029-.734c5.312-4.521 11.492-4.448 16.127.188s4.712 10.82.2 16.137a.5.5 0 0 1 -.361.176zm-14.877-16.085 14.841 14.841c3.858-4.848 3.69-10.186-.487-14.363s-9.51-4.34-14.354-.478z" fill="#323c6b"/><path d="m23.166 70.4a.5.5 0 0 1 -.354-.146l-19.065-19.066a.5.5 0 0 1 0-.707 9.181 9.181 0 0 1 12.985 0l6.788 6.788a9.181 9.181 0 0 1 0 12.985.5.5 0 0 1 -.354.146zm-18.348-19.555 18.337 18.337a8.182 8.182 0 0 0 -.343-11.207l-6.788-6.788a8.182 8.182 0 0 0 -11.207-.343z" fill="#323c6b"/><rect fill="#eeefee" height="26.777" rx="2.581" transform="matrix(.707 -.707 .707 .707 -14.593 37.303)" width="44.789" x="15.337" y="22.879"/><path d="m58.723 25.583h-.07l.057.057a2.577 2.577 0 0 1 0 3.65l-28.02 28.02a2.618 2.618 0 0 1 -3.25.33l2.1 2.1a2.577 2.577 0 0 0 3.65 0l28.02-28.02a2.577 2.577 0 0 0 0-3.65z" fill="#e1e6e9"/><path d="m31.364 61a3.071 3.071 0 0 1 -2.179-.9l-15.285-15.286a3.08 3.08 0 0 1 0-4.357l.354.354-.354-.354 28.02-28.02a3.085 3.085 0 0 1 4.358 0l15.284 15.283a3.08 3.08 0 0 1 0 4.357l-28.02 28.023a3.072 3.072 0 0 1 -2.178.9zm12.736-48.465a2.075 2.075 0 0 0 -1.472.608l-28.02 28.02a2.081 2.081 0 0 0 0 2.943l15.284 15.285a2.084 2.084 0 0 0 2.943 0l28.02-28.02a2.081 2.081 0 0 0 0-2.943l-15.283-15.284a2.077 2.077 0 0 0 -1.472-.609z" fill="#323c6b"/><path d="m46.685 64.08a.5.5 0 0 1 -.354-.854l18.364-18.363a.5.5 0 0 1 .707.707l-18.363 18.363a.5.5 0 0 1 -.354.147z" fill="#323c6b"/><path d="m61.818 60.85a.5.5 0 0 1 -.354-.146l-11.9-11.9a.5.5 0 0 1 .707-.707l11.901 11.903a.5.5 0 0 1 -.354.854z" fill="#323c6b"/><path d="m57.121 65.547a.5.5 0 0 1 -.354-.146l-11.9-11.9a.5.5 0 0 1 .707-.707l11.9 11.9a.5.5 0 0 1 -.354.854z" fill="#323c6b"/><path d="m66.516 56.152a.5.5 0 0 1 -.354-.146l-11.9-11.9a.5.5 0 0 1 .707-.707l11.9 11.9a.5.5 0 0 1 -.354.854z" fill="#323c6b"/><rect fill="none" height="25.97" rx="1.58" transform="matrix(-.707 -.707 .707 -.707 56.905 132.367)" width="16.833" x="47.45" y="41.413"/><g fill="#323c6b"><path d="m52.637 69.375a2.072 2.072 0 0 1 -1.471-.608l-9.666-9.667a2.083 2.083 0 0 1 0-2.942l16.126-16.129a2.082 2.082 0 0 1 2.942 0l9.668 9.671a2.083 2.083 0 0 1 0 2.942l-16.128 16.125a2.076 2.076 0 0 1 -1.471.608zm6.463-28.956a1.074 1.074 0 0 0 -.764.316l-16.136 16.129a1.08 1.08 0 0 0 0 1.528l9.668 9.668a1.083 1.083 0 0 0 1.528 0l16.133-16.128a1.08 1.08 0 0 0 0-1.528l-9.667-9.668a1.074 1.074 0 0 0 -.762-.317z"/><path d="m16.372 33.111a2.072 2.072 0 0 1 -1.472-.611l-9.667-9.666a2.083 2.083 0 0 1 0-2.942l16.128-16.128a2.081 2.081 0 0 1 2.942 0l9.668 9.667a2.082 2.082 0 0 1 0 2.942l-16.128 16.127a2.072 2.072 0 0 1 -1.471.611zm6.46-28.956a1.073 1.073 0 0 0 -.764.316l-16.128 16.129a1.083 1.083 0 0 0 0 1.528l9.668 9.672a1.106 1.106 0 0 0 1.528 0l16.128-16.133a1.081 1.081 0 0 0 0-1.528l-9.664-9.668a1.074 1.074 0 0 0 -.768-.316z"/><path d="m7.02 71.5a4.518 4.518 0 1 1 3.2-1.321 4.507 4.507 0 0 1 -3.2 1.321zm0-8.036a3.518 3.518 0 1 0 2.489 1.029 3.51 3.51 0 0 0 -2.489-1.031z"/><path d="m32.917 63.755a.5.5 0 0 1 -.139-.98 5.018 5.018 0 0 0 2.18-1.263l2.657-2.657a.5.5 0 0 1 .707.707l-2.657 2.657a6 6 0 0 1 -2.608 1.516.492.492 0 0 1 -.14.02z"/><path d="m30.875 63.954h-.05c-.211-.021-.419-.055-.626-.094a.5.5 0 0 1 .185-.982c.179.033.358.063.541.081a.5.5 0 0 1 -.049 1z"/><path d="m9.469 12.649a.5.5 0 0 1 -.354-.853l.229-.229a.5.5 0 0 1 .708.706l-.229.229a.5.5 0 0 1 -.354.147z"/><path d="m11.34 10.75a.5.5 0 0 1 -.354-.854l4.487-4.486a.5.5 0 0 1 .707.707l-4.487 4.483a.5.5 0 0 1 -.353.15z"/></g><path d="m12.152 54.65a.613.613 0 0 1 -.88 0l-.192-.2a.622.622 0 1 1 .874-.885l.2.2a.613.613 0 0 1 -.002.885z" fill="#fff"/><path d="m18.052 60.571a.613.613 0 0 1 -.879-.035l-4.327-4.355a.615.615 0 0 1 .021-.865l.015-.014a.619.619 0 0 1 .879.035l4.327 4.355a.613.613 0 0 1 -.036.879z" fill="#fff"/></svg>