<svg width="560" height="674" viewBox="0 0 560 674" fill="none" xmlns="http://www.w3.org/2000/svg">
<rect width="560" height="674" rx="8" fill="url(#paint0_linear)"/>
<rect opacity="0.15" y="4" width="560" height="670" rx="8" fill="black"/>
<rect x="206" y="529" width="149" height="39" rx="13" fill="white" fill-opacity="0.3"/>
<path d="M229.417 544.377L229.471 545.666C230.323 544.663 231.472 544.162 232.919 544.162C234.545 544.162 235.651 544.785 236.238 546.031C236.625 545.473 237.126 545.021 237.742 544.678C238.365 544.334 239.099 544.162 239.944 544.162C242.494 544.162 243.79 545.512 243.833 548.212V556H241.846V548.33C241.846 547.499 241.656 546.88 241.276 546.472C240.897 546.056 240.259 545.849 239.364 545.849C238.627 545.849 238.014 546.071 237.527 546.515C237.04 546.951 236.757 547.542 236.679 548.287V556H234.681V548.384C234.681 546.694 233.854 545.849 232.199 545.849C230.896 545.849 230.004 546.404 229.524 547.514V556H227.537V544.377H229.417ZM251.664 556.215C250.089 556.215 248.807 555.699 247.818 554.668C246.83 553.63 246.336 552.244 246.336 550.511V550.146C246.336 548.993 246.554 547.965 246.991 547.062C247.435 546.153 248.051 545.444 248.839 544.936C249.634 544.42 250.493 544.162 251.417 544.162C252.928 544.162 254.103 544.66 254.94 545.655C255.778 546.651 256.197 548.076 256.197 549.931V550.758H248.323C248.352 551.904 248.685 552.831 249.322 553.54C249.967 554.242 250.783 554.593 251.771 554.593C252.473 554.593 253.068 554.45 253.555 554.163C254.042 553.877 254.468 553.497 254.833 553.024L256.047 553.97C255.073 555.466 253.612 556.215 251.664 556.215ZM251.417 545.795C250.615 545.795 249.942 546.089 249.397 546.676C248.853 547.256 248.517 548.072 248.388 549.125H254.21V548.975C254.153 547.965 253.881 547.184 253.394 546.633C252.907 546.074 252.248 545.795 251.417 545.795ZM262.159 553.089L264.866 544.377H266.993L262.32 557.794C261.597 559.728 260.448 560.694 258.872 560.694L258.496 560.662L257.755 560.522V558.911L258.292 558.954C258.965 558.954 259.488 558.818 259.86 558.546C260.24 558.274 260.551 557.776 260.795 557.053L261.235 555.871L257.089 544.377H259.259L262.159 553.089ZM272.611 553.304L275.49 544.377H277.521L273.353 556H271.838L267.627 544.377H269.657L272.611 553.304ZM284.105 556.215C282.53 556.215 281.248 555.699 280.26 554.668C279.271 553.63 278.777 552.244 278.777 550.511V550.146C278.777 548.993 278.996 547.965 279.433 547.062C279.877 546.153 280.493 545.444 281.28 544.936C282.075 544.42 282.935 544.162 283.858 544.162C285.369 544.162 286.544 544.66 287.382 545.655C288.22 546.651 288.639 548.076 288.639 549.931V550.758H280.765C280.793 551.904 281.126 552.831 281.764 553.54C282.408 554.242 283.225 554.593 284.213 554.593C284.915 554.593 285.509 554.45 285.996 554.163C286.483 553.877 286.909 553.497 287.274 553.024L288.488 553.97C287.514 555.466 286.053 556.215 284.105 556.215ZM283.858 545.795C283.056 545.795 282.383 546.089 281.839 546.676C281.295 547.256 280.958 548.072 280.829 549.125H286.651V548.975C286.594 547.965 286.322 547.184 285.835 546.633C285.348 546.074 284.689 545.795 283.858 545.795ZM293.107 556H291.12V539.5H293.107V556ZM301.121 556.215C299.546 556.215 298.264 555.699 297.275 554.668C296.287 553.63 295.793 552.244 295.793 550.511V550.146C295.793 548.993 296.011 547.965 296.448 547.062C296.892 546.153 297.508 545.444 298.296 544.936C299.091 544.42 299.95 544.162 300.874 544.162C302.385 544.162 303.56 544.66 304.397 545.655C305.235 546.651 305.654 548.076 305.654 549.931V550.758H297.78C297.809 551.904 298.142 552.831 298.779 553.54C299.424 554.242 300.24 554.593 301.229 554.593C301.93 554.593 302.525 554.45 303.012 554.163C303.499 553.877 303.925 553.497 304.29 553.024L305.504 553.97C304.53 555.466 303.069 556.215 301.121 556.215ZM300.874 545.795C300.072 545.795 299.399 546.089 298.854 546.676C298.31 547.256 297.974 548.072 297.845 549.125H303.667V548.975C303.61 547.965 303.338 547.184 302.851 546.633C302.364 546.074 301.705 545.795 300.874 545.795ZM313.582 546.16C313.281 546.11 312.955 546.085 312.604 546.085C311.301 546.085 310.417 546.64 309.951 547.75V556H307.964V544.377H309.897L309.93 545.72C310.581 544.681 311.505 544.162 312.701 544.162C313.088 544.162 313.382 544.212 313.582 544.312V546.16ZM319.533 539.758H317.481V557.719H319.533V559.352H315.483V538.125H319.533V539.758ZM332.209 538.125H336.27V559.352H332.209V557.719H334.282V539.758H332.209V538.125Z" fill="white" fill-opacity="0.9"/>
<path d="M330.866 549.329C330.866 551.657 330.469 553.386 329.674 554.518C328.879 555.649 327.636 556.215 325.946 556.215C324.278 556.215 323.042 555.663 322.24 554.561C321.438 553.451 321.023 551.796 320.994 549.598V546.944C320.994 544.646 321.392 542.938 322.187 541.82C322.981 540.703 324.228 540.145 325.925 540.145C327.608 540.145 328.847 540.685 329.642 541.767C330.437 542.841 330.845 544.502 330.866 546.751V549.329ZM328.879 546.611C328.879 544.928 328.643 543.704 328.17 542.938C327.697 542.164 326.949 541.777 325.925 541.777C324.908 541.777 324.167 542.16 323.701 542.927C323.236 543.693 322.996 544.871 322.981 546.461V549.641C322.981 551.331 323.225 552.58 323.712 553.39C324.206 554.192 324.951 554.593 325.946 554.593C326.927 554.593 327.654 554.213 328.127 553.454C328.607 552.695 328.857 551.499 328.879 549.866V546.611Z" fill="#FFCA45"/>
<path opacity="0.8" d="M273.383 607.296C271.936 606.88 270.881 606.37 270.219 605.767C269.562 605.157 269.234 604.407 269.234 603.517C269.234 602.509 269.636 601.677 270.438 601.021C271.247 600.358 272.296 600.027 273.585 600.027C274.464 600.027 275.246 600.197 275.932 600.537C276.623 600.877 277.156 601.346 277.531 601.943C277.912 602.541 278.103 603.194 278.103 603.903H276.406C276.406 603.13 276.16 602.523 275.668 602.084C275.176 601.639 274.481 601.416 273.585 601.416C272.753 601.416 272.103 601.601 271.634 601.97C271.171 602.333 270.939 602.84 270.939 603.49C270.939 604.012 271.159 604.454 271.599 604.817C272.044 605.175 272.797 605.503 273.857 605.802C274.924 606.101 275.756 606.432 276.354 606.795C276.957 607.152 277.402 607.571 277.689 608.052C277.982 608.532 278.129 609.098 278.129 609.748C278.129 610.785 277.725 611.617 276.916 612.244C276.107 612.865 275.026 613.176 273.673 613.176C272.794 613.176 271.974 613.009 271.212 612.675C270.45 612.335 269.861 611.872 269.445 611.286C269.035 610.7 268.83 610.035 268.83 609.291H270.526C270.526 610.064 270.811 610.677 271.379 611.128C271.953 611.573 272.718 611.796 273.673 611.796C274.563 611.796 275.246 611.614 275.721 611.251C276.195 610.888 276.433 610.393 276.433 609.766C276.433 609.139 276.213 608.655 275.773 608.315C275.334 607.97 274.537 607.63 273.383 607.296ZM281.812 613H280.177V603.49H281.812V613ZM289.089 604.949C288.843 604.908 288.576 604.888 288.289 604.888C287.223 604.888 286.499 605.342 286.118 606.25V613H284.492V603.49H286.074L286.101 604.589C286.634 603.739 287.39 603.314 288.368 603.314C288.685 603.314 288.925 603.355 289.089 603.438V604.949ZM296.111 613C296.018 612.812 295.941 612.479 295.883 611.998C295.127 612.783 294.225 613.176 293.176 613.176C292.238 613.176 291.468 612.912 290.864 612.385C290.267 611.852 289.968 611.178 289.968 610.363C289.968 609.373 290.343 608.605 291.093 608.061C291.849 607.51 292.909 607.234 294.274 607.234H295.856V606.487C295.856 605.919 295.687 605.468 295.347 605.134C295.007 604.794 294.506 604.624 293.844 604.624C293.264 604.624 292.777 604.771 292.385 605.063C291.992 605.356 291.796 605.711 291.796 606.127H290.161C290.161 605.652 290.328 605.195 290.662 604.756C291.002 604.311 291.459 603.959 292.033 603.701C292.613 603.443 293.249 603.314 293.94 603.314C295.036 603.314 295.895 603.59 296.516 604.141C297.137 604.686 297.459 605.438 297.482 606.399V610.776C297.482 611.649 297.594 612.344 297.816 612.859V613H296.111ZM293.413 611.761C293.923 611.761 294.406 611.629 294.863 611.365C295.32 611.102 295.651 610.759 295.856 610.337V608.386H294.582C292.59 608.386 291.594 608.969 291.594 610.135C291.594 610.645 291.764 611.043 292.104 611.33C292.443 611.617 292.88 611.761 293.413 611.761ZM314.586 613H312.89L306.447 603.139V613H304.751V600.203H306.447L312.907 610.108V600.203H314.586V613ZM323.199 612.06C322.566 612.804 321.638 613.176 320.413 613.176C319.399 613.176 318.626 612.883 318.093 612.297C317.565 611.705 317.299 610.832 317.293 609.678V603.49H318.919V609.634C318.919 611.075 319.505 611.796 320.677 611.796C321.919 611.796 322.745 611.333 323.155 610.407V603.49H324.781V613H323.234L323.199 612.06ZM328.789 603.49L328.833 604.545C329.53 603.725 330.471 603.314 331.654 603.314C332.984 603.314 333.89 603.824 334.37 604.844C334.687 604.387 335.097 604.018 335.601 603.736C336.11 603.455 336.711 603.314 337.402 603.314C339.488 603.314 340.549 604.419 340.584 606.628V613H338.958V606.725C338.958 606.045 338.803 605.538 338.492 605.204C338.182 604.864 337.66 604.694 336.928 604.694C336.324 604.694 335.823 604.876 335.425 605.239C335.026 605.597 334.795 606.08 334.73 606.689V613H333.096V606.769C333.096 605.386 332.419 604.694 331.065 604.694C329.999 604.694 329.27 605.148 328.877 606.057V613H327.251V603.49H328.789ZM348.916 613C348.822 612.812 348.746 612.479 348.688 611.998C347.932 612.783 347.029 613.176 345.98 613.176C345.043 613.176 344.272 612.912 343.669 612.385C343.071 611.852 342.772 611.178 342.772 610.363C342.772 609.373 343.147 608.605 343.897 608.061C344.653 607.51 345.714 607.234 347.079 607.234H348.661V606.487C348.661 605.919 348.491 605.468 348.151 605.134C347.812 604.794 347.311 604.624 346.648 604.624C346.068 604.624 345.582 604.771 345.189 605.063C344.797 605.356 344.601 605.711 344.601 606.127H342.966C342.966 605.652 343.133 605.195 343.467 604.756C343.807 604.311 344.264 603.959 344.838 603.701C345.418 603.443 346.054 603.314 346.745 603.314C347.841 603.314 348.699 603.59 349.32 604.141C349.941 604.686 350.264 605.438 350.287 606.399V610.776C350.287 611.649 350.398 612.344 350.621 612.859V613H348.916ZM346.218 611.761C346.728 611.761 347.211 611.629 347.668 611.365C348.125 611.102 348.456 610.759 348.661 610.337V608.386H347.387C345.395 608.386 344.398 608.969 344.398 610.135C344.398 610.645 344.568 611.043 344.908 611.33C345.248 611.617 345.685 611.761 346.218 611.761ZM357.433 604.949C357.187 604.908 356.92 604.888 356.633 604.888C355.566 604.888 354.843 605.342 354.462 606.25V613H352.836V603.49H354.418L354.444 604.589C354.978 603.739 355.733 603.314 356.712 603.314C357.028 603.314 357.269 603.355 357.433 603.438V604.949ZM364.455 613C364.361 612.812 364.285 612.479 364.227 611.998C363.471 612.783 362.568 613.176 361.52 613.176C360.582 613.176 359.812 612.912 359.208 612.385C358.61 611.852 358.312 611.178 358.312 610.363C358.312 609.373 358.687 608.605 359.437 608.061C360.192 607.51 361.253 607.234 362.618 607.234H364.2V606.487C364.2 605.919 364.03 605.468 363.69 605.134C363.351 604.794 362.85 604.624 362.188 604.624C361.607 604.624 361.121 604.771 360.729 605.063C360.336 605.356 360.14 605.711 360.14 606.127H358.505C358.505 605.652 358.672 605.195 359.006 604.756C359.346 604.311 359.803 603.959 360.377 603.701C360.957 603.443 361.593 603.314 362.284 603.314C363.38 603.314 364.238 603.59 364.859 604.141C365.48 604.686 365.803 605.438 365.826 606.399V610.776C365.826 611.649 365.938 612.344 366.16 612.859V613H364.455ZM361.757 611.761C362.267 611.761 362.75 611.629 363.207 611.365C363.664 611.102 363.995 610.759 364.2 610.337V608.386H362.926C360.934 608.386 359.938 608.969 359.938 610.135C359.938 610.645 360.107 611.043 360.447 611.33C360.787 611.617 361.224 611.761 361.757 611.761ZM373.912 610.478C373.912 610.038 373.745 609.698 373.411 609.458C373.083 609.212 372.506 609.001 371.68 608.825C370.859 608.649 370.206 608.438 369.72 608.192C369.239 607.946 368.882 607.653 368.647 607.313C368.419 606.974 368.305 606.569 368.305 606.101C368.305 605.321 368.633 604.662 369.289 604.123C369.951 603.584 370.795 603.314 371.82 603.314C372.898 603.314 373.771 603.593 374.439 604.149C375.113 604.706 375.45 605.418 375.45 606.285H373.815C373.815 605.84 373.625 605.456 373.244 605.134C372.869 604.812 372.395 604.65 371.82 604.65C371.229 604.65 370.766 604.779 370.432 605.037C370.098 605.295 369.931 605.632 369.931 606.048C369.931 606.44 370.086 606.736 370.396 606.936C370.707 607.135 371.267 607.325 372.075 607.507C372.89 607.688 373.549 607.905 374.053 608.157C374.557 608.409 374.929 608.714 375.169 609.071C375.415 609.423 375.538 609.854 375.538 610.363C375.538 611.213 375.198 611.896 374.519 612.411C373.839 612.921 372.957 613.176 371.873 613.176C371.111 613.176 370.438 613.041 369.852 612.771C369.266 612.502 368.806 612.127 368.472 611.646C368.144 611.16 367.979 610.636 367.979 610.073H369.605C369.635 610.618 369.852 611.052 370.256 611.374C370.666 611.69 371.205 611.849 371.873 611.849C372.488 611.849 372.98 611.726 373.35 611.479C373.725 611.228 373.912 610.894 373.912 610.478ZM379.423 613H377.788V603.49H379.423V613Z" fill="white"/>
<path d="M324.646 588.354C324.842 588.549 325.158 588.549 325.354 588.354L328.536 585.172C328.731 584.976 328.731 584.66 328.536 584.464C328.34 584.269 328.024 584.269 327.828 584.464L325 587.293L322.172 584.464C321.976 584.269 321.66 584.269 321.464 584.464C321.269 584.66 321.269 584.976 321.464 585.172L324.646 588.354ZM324.5 563V588H325.5V563H324.5Z" fill="white" fill-opacity="0.8"/>
<path opacity="0.8" d="M158.887 491.333L159.818 491.966C159.273 492.71 158.992 493.513 158.975 494.374V495.569H157.357V494.55C157.357 493.952 157.498 493.36 157.779 492.774C158.066 492.188 158.436 491.708 158.887 491.333ZM161.655 491.333L162.587 491.966C162.042 492.71 161.761 493.513 161.743 494.374V495.569H160.126V494.55C160.126 493.952 160.267 493.36 160.548 492.774C160.835 492.188 161.204 491.708 161.655 491.333ZM167.456 505.176C166.167 505.176 165.118 504.754 164.31 503.91C163.501 503.061 163.097 501.927 163.097 500.509V500.21C163.097 499.267 163.275 498.426 163.633 497.688C163.996 496.943 164.5 496.363 165.145 495.947C165.795 495.525 166.498 495.314 167.254 495.314C168.49 495.314 169.451 495.722 170.137 496.536C170.822 497.351 171.165 498.517 171.165 500.034V500.711H164.723C164.746 501.648 165.019 502.407 165.54 502.987C166.067 503.562 166.735 503.849 167.544 503.849C168.118 503.849 168.604 503.731 169.003 503.497C169.401 503.263 169.75 502.952 170.049 502.565L171.042 503.339C170.245 504.563 169.05 505.176 167.456 505.176ZM167.254 496.65C166.598 496.65 166.047 496.891 165.602 497.371C165.156 497.846 164.881 498.514 164.775 499.375H169.539V499.252C169.492 498.426 169.27 497.787 168.871 497.336C168.473 496.879 167.934 496.65 167.254 496.65ZM174.821 505H173.195V491.5H174.821V505ZM178.961 495.49L179.005 496.545C179.702 495.725 180.643 495.314 181.826 495.314C183.156 495.314 184.062 495.824 184.542 496.844C184.858 496.387 185.269 496.018 185.772 495.736C186.282 495.455 186.883 495.314 187.574 495.314C189.66 495.314 190.721 496.419 190.756 498.628V505H189.13V498.725C189.13 498.045 188.975 497.538 188.664 497.204C188.354 496.864 187.832 496.694 187.1 496.694C186.496 496.694 185.995 496.876 185.597 497.239C185.198 497.597 184.967 498.08 184.902 498.689V505H183.268V498.769C183.268 497.386 182.591 496.694 181.237 496.694C180.171 496.694 179.441 497.148 179.049 498.057V505H177.423V495.49H178.961ZM199.088 505C198.994 504.812 198.918 504.479 198.859 503.998C198.104 504.783 197.201 505.176 196.152 505.176C195.215 505.176 194.444 504.912 193.841 504.385C193.243 503.852 192.944 503.178 192.944 502.363C192.944 501.373 193.319 500.605 194.069 500.061C194.825 499.51 195.886 499.234 197.251 499.234H198.833V498.487C198.833 497.919 198.663 497.468 198.323 497.134C197.983 496.794 197.482 496.624 196.82 496.624C196.24 496.624 195.754 496.771 195.361 497.063C194.969 497.356 194.772 497.711 194.772 498.127H193.138C193.138 497.652 193.305 497.195 193.639 496.756C193.979 496.311 194.436 495.959 195.01 495.701C195.59 495.443 196.226 495.314 196.917 495.314C198.013 495.314 198.871 495.59 199.492 496.141C200.113 496.686 200.436 497.438 200.459 498.399V502.776C200.459 503.649 200.57 504.344 200.793 504.859V505H199.088ZM196.39 503.761C196.899 503.761 197.383 503.629 197.84 503.365C198.297 503.102 198.628 502.759 198.833 502.337V500.386H197.559C195.566 500.386 194.57 500.969 194.57 502.135C194.57 502.645 194.74 503.043 195.08 503.33C195.42 503.617 195.856 503.761 196.39 503.761ZM202.63 495.807L201.707 495.174C202.252 494.412 202.533 493.609 202.551 492.766V491.5H204.159V492.643C204.153 493.229 204.007 493.814 203.72 494.4C203.438 494.98 203.075 495.449 202.63 495.807ZM205.328 495.807L204.405 495.174C204.95 494.412 205.231 493.609 205.249 492.766V491.5H206.857V492.643C206.852 493.229 206.705 493.814 206.418 494.4C206.137 494.98 205.773 495.449 205.328 495.807ZM221.359 500.351C221.359 501.804 221.025 502.973 220.357 503.857C219.689 504.736 218.793 505.176 217.668 505.176C216.467 505.176 215.538 504.751 214.882 503.901L214.803 505H213.309V491.5H214.935V496.536C215.591 495.722 216.496 495.314 217.65 495.314C218.805 495.314 219.71 495.751 220.366 496.624C221.028 497.497 221.359 498.692 221.359 500.21V500.351ZM219.733 500.166C219.733 499.059 219.52 498.203 219.092 497.6C218.664 496.996 218.049 496.694 217.246 496.694C216.174 496.694 215.403 497.192 214.935 498.188V502.302C215.433 503.298 216.209 503.796 217.264 503.796C218.043 503.796 218.649 503.494 219.083 502.891C219.517 502.287 219.733 501.379 219.733 500.166ZM225.183 505H223.557V495.49H225.183V505ZM223.425 492.968C223.425 492.704 223.504 492.481 223.662 492.3C223.826 492.118 224.066 492.027 224.383 492.027C224.699 492.027 224.939 492.118 225.104 492.3C225.268 492.481 225.35 492.704 225.35 492.968C225.35 493.231 225.268 493.451 225.104 493.627C224.939 493.803 224.699 493.891 224.383 493.891C224.066 493.891 223.826 493.803 223.662 493.627C223.504 493.451 223.425 493.231 223.425 492.968ZM229.56 505H227.934V491.5H229.56V505ZM231.783 500.166C231.783 498.684 232.126 497.506 232.812 496.633C233.497 495.754 234.405 495.314 235.536 495.314C236.696 495.314 237.602 495.725 238.252 496.545L238.331 495.49H239.816V504.771C239.816 506.002 239.45 506.972 238.718 507.681C237.991 508.39 237.013 508.744 235.782 508.744C235.097 508.744 234.426 508.598 233.77 508.305C233.113 508.012 232.612 507.61 232.267 507.101L233.11 506.125C233.808 506.986 234.66 507.417 235.668 507.417C236.459 507.417 237.074 507.194 237.514 506.749C237.959 506.304 238.182 505.677 238.182 504.868V504.051C237.531 504.801 236.644 505.176 235.519 505.176C234.405 505.176 233.503 504.728 232.812 503.831C232.126 502.935 231.783 501.713 231.783 500.166ZM233.418 500.351C233.418 501.423 233.638 502.267 234.077 502.882C234.517 503.491 235.132 503.796 235.923 503.796C236.948 503.796 237.701 503.33 238.182 502.398V498.057C237.684 497.148 236.937 496.694 235.94 496.694C235.149 496.694 234.531 497.002 234.086 497.617C233.641 498.232 233.418 499.144 233.418 500.351ZM244.044 505H242.418V495.49H244.044V505ZM242.286 492.968C242.286 492.704 242.365 492.481 242.523 492.3C242.688 492.118 242.928 492.027 243.244 492.027C243.561 492.027 243.801 492.118 243.965 492.3C244.129 492.481 244.211 492.704 244.211 492.968C244.211 493.231 244.129 493.451 243.965 493.627C243.801 493.803 243.561 493.891 243.244 493.891C242.928 493.891 242.688 493.803 242.523 493.627C242.365 493.451 242.286 493.231 242.286 492.968ZM252.191 502.478C252.191 502.038 252.024 501.698 251.69 501.458C251.362 501.212 250.785 501.001 249.959 500.825C249.139 500.649 248.485 500.438 247.999 500.192C247.519 499.946 247.161 499.653 246.927 499.313C246.698 498.974 246.584 498.569 246.584 498.101C246.584 497.321 246.912 496.662 247.568 496.123C248.23 495.584 249.074 495.314 250.1 495.314C251.178 495.314 252.051 495.593 252.719 496.149C253.393 496.706 253.729 497.418 253.729 498.285H252.095C252.095 497.84 251.904 497.456 251.523 497.134C251.148 496.812 250.674 496.65 250.1 496.65C249.508 496.65 249.045 496.779 248.711 497.037C248.377 497.295 248.21 497.632 248.21 498.048C248.21 498.44 248.365 498.736 248.676 498.936C248.986 499.135 249.546 499.325 250.354 499.507C251.169 499.688 251.828 499.905 252.332 500.157C252.836 500.409 253.208 500.714 253.448 501.071C253.694 501.423 253.817 501.854 253.817 502.363C253.817 503.213 253.478 503.896 252.798 504.411C252.118 504.921 251.236 505.176 250.152 505.176C249.391 505.176 248.717 505.041 248.131 504.771C247.545 504.502 247.085 504.127 246.751 503.646C246.423 503.16 246.259 502.636 246.259 502.073H247.885C247.914 502.618 248.131 503.052 248.535 503.374C248.945 503.69 249.484 503.849 250.152 503.849C250.768 503.849 251.26 503.726 251.629 503.479C252.004 503.228 252.191 502.894 252.191 502.478ZM257.702 505H256.076V495.49H257.702V505ZM255.944 492.968C255.944 492.704 256.023 492.481 256.182 492.3C256.346 492.118 256.586 492.027 256.902 492.027C257.219 492.027 257.459 492.118 257.623 492.3C257.787 492.481 257.869 492.704 257.869 492.968C257.869 493.231 257.787 493.451 257.623 493.627C257.459 493.803 257.219 493.891 256.902 493.891C256.586 493.891 256.346 493.803 256.182 493.627C256.023 493.451 255.944 493.231 255.944 492.968ZM261.851 495.49L261.903 496.686C262.63 495.771 263.579 495.314 264.751 495.314C266.761 495.314 267.774 496.448 267.792 498.716V505H266.166V498.707C266.16 498.021 266.002 497.515 265.691 497.187C265.387 496.858 264.909 496.694 264.259 496.694C263.731 496.694 263.269 496.835 262.87 497.116C262.472 497.397 262.161 497.767 261.938 498.224V505H260.312V495.49H261.851ZM272.011 505H270.385V495.49H272.011V505ZM270.253 492.968C270.253 492.704 270.332 492.481 270.49 492.3C270.654 492.118 270.895 492.027 271.211 492.027C271.527 492.027 271.768 492.118 271.932 492.3C272.096 492.481 272.178 492.704 272.178 492.968C272.178 493.231 272.096 493.451 271.932 493.627C271.768 493.803 271.527 493.891 271.211 493.891C270.895 493.891 270.654 493.803 270.49 493.627C270.332 493.451 270.253 493.231 270.253 492.968ZM281.292 493.188V495.49H283.067V496.747H281.292V502.645C281.292 503.025 281.371 503.312 281.529 503.506C281.688 503.693 281.957 503.787 282.338 503.787C282.525 503.787 282.783 503.752 283.111 503.682V505C282.684 505.117 282.268 505.176 281.863 505.176C281.137 505.176 280.589 504.956 280.22 504.517C279.851 504.077 279.666 503.453 279.666 502.645V496.747H277.935V495.49H279.666V493.188H281.292ZM290.846 505C290.752 504.812 290.676 504.479 290.617 503.998C289.861 504.783 288.959 505.176 287.91 505.176C286.973 505.176 286.202 504.912 285.599 504.385C285.001 503.852 284.702 503.178 284.702 502.363C284.702 501.373 285.077 500.605 285.827 500.061C286.583 499.51 287.644 499.234 289.009 499.234H290.591V498.487C290.591 497.919 290.421 497.468 290.081 497.134C289.741 496.794 289.24 496.624 288.578 496.624C287.998 496.624 287.512 496.771 287.119 497.063C286.727 497.356 286.53 497.711 286.53 498.127H284.896C284.896 497.652 285.062 497.195 285.396 496.756C285.736 496.311 286.193 495.959 286.768 495.701C287.348 495.443 287.983 495.314 288.675 495.314C289.771 495.314 290.629 495.59 291.25 496.141C291.871 496.686 292.193 497.438 292.217 498.399V502.776C292.217 503.649 292.328 504.344 292.551 504.859V505H290.846ZM288.147 503.761C288.657 503.761 289.141 503.629 289.598 503.365C290.055 503.102 290.386 502.759 290.591 502.337V500.386H289.316C287.324 500.386 286.328 500.969 286.328 502.135C286.328 502.645 286.498 503.043 286.838 503.33C287.178 503.617 287.614 503.761 288.147 503.761ZM300.303 502.478C300.303 502.038 300.136 501.698 299.802 501.458C299.474 501.212 298.896 501.001 298.07 500.825C297.25 500.649 296.597 500.438 296.11 500.192C295.63 499.946 295.272 499.653 295.038 499.313C294.81 498.974 294.695 498.569 294.695 498.101C294.695 497.321 295.023 496.662 295.68 496.123C296.342 495.584 297.186 495.314 298.211 495.314C299.289 495.314 300.162 495.593 300.83 496.149C301.504 496.706 301.841 497.418 301.841 498.285H300.206C300.206 497.84 300.016 497.456 299.635 497.134C299.26 496.812 298.785 496.65 298.211 496.65C297.619 496.65 297.156 496.779 296.822 497.037C296.488 497.295 296.321 497.632 296.321 498.048C296.321 498.44 296.477 498.736 296.787 498.936C297.098 499.135 297.657 499.325 298.466 499.507C299.28 499.688 299.939 499.905 300.443 500.157C300.947 500.409 301.319 500.714 301.56 501.071C301.806 501.423 301.929 501.854 301.929 502.363C301.929 503.213 301.589 503.896 300.909 504.411C300.229 504.921 299.348 505.176 298.264 505.176C297.502 505.176 296.828 505.041 296.242 504.771C295.656 504.502 295.196 504.127 294.862 503.646C294.534 503.16 294.37 502.636 294.37 502.073H295.996C296.025 502.618 296.242 503.052 296.646 503.374C297.057 503.69 297.596 503.849 298.264 503.849C298.879 503.849 299.371 503.726 299.74 503.479C300.115 503.228 300.303 502.894 300.303 502.478ZM299.107 505.07L299.002 505.527C299.898 505.686 300.347 506.192 300.347 507.048C300.347 507.616 300.112 508.064 299.644 508.393C299.175 508.727 298.521 508.894 297.684 508.894L297.622 507.953C298.085 507.953 298.442 507.877 298.694 507.725C298.952 507.572 299.081 507.358 299.081 507.083C299.081 506.825 298.987 506.635 298.8 506.512C298.612 506.389 298.231 506.301 297.657 506.248L297.938 505.07H299.107ZM305.813 505H304.179V495.49H305.813V505ZM311.605 502.618L313.82 495.49H315.561L311.737 506.468C311.146 508.05 310.205 508.841 308.916 508.841L308.608 508.814L308.002 508.7V507.382L308.441 507.417C308.992 507.417 309.42 507.306 309.725 507.083C310.035 506.86 310.29 506.453 310.489 505.861L310.85 504.895L307.457 495.49H309.232L311.605 502.618ZM322.75 505C322.656 504.812 322.58 504.479 322.521 503.998C321.766 504.783 320.863 505.176 319.814 505.176C318.877 505.176 318.106 504.912 317.503 504.385C316.905 503.852 316.606 503.178 316.606 502.363C316.606 501.373 316.981 500.605 317.731 500.061C318.487 499.51 319.548 499.234 320.913 499.234H322.495V498.487C322.495 497.919 322.325 497.468 321.985 497.134C321.646 496.794 321.145 496.624 320.482 496.624C319.902 496.624 319.416 496.771 319.023 497.063C318.631 497.356 318.435 497.711 318.435 498.127H316.8C316.8 497.652 316.967 497.195 317.301 496.756C317.641 496.311 318.098 495.959 318.672 495.701C319.252 495.443 319.888 495.314 320.579 495.314C321.675 495.314 322.533 495.59 323.154 496.141C323.775 496.686 324.098 497.438 324.121 498.399V502.776C324.121 503.649 324.232 504.344 324.455 504.859V505H322.75ZM320.052 503.761C320.562 503.761 321.045 503.629 321.502 503.365C321.959 503.102 322.29 502.759 322.495 502.337V500.386H321.221C319.229 500.386 318.232 500.969 318.232 502.135C318.232 502.645 318.402 503.043 318.742 503.33C319.082 503.617 319.519 503.761 320.052 503.761ZM328.208 495.49L328.261 496.686C328.987 495.771 329.937 495.314 331.108 495.314C333.118 495.314 334.132 496.448 334.149 498.716V505H332.523V498.707C332.518 498.021 332.359 497.515 332.049 497.187C331.744 496.858 331.267 496.694 330.616 496.694C330.089 496.694 329.626 496.835 329.228 497.116C328.829 497.397 328.519 497.767 328.296 498.224V505H326.67V495.49H328.208ZM345.013 505.176C343.724 505.176 342.675 504.754 341.866 503.91C341.058 503.061 340.653 501.927 340.653 500.509V500.21C340.653 499.267 340.832 498.426 341.189 497.688C341.553 496.943 342.057 496.363 342.701 495.947C343.352 495.525 344.055 495.314 344.811 495.314C346.047 495.314 347.008 495.722 347.693 496.536C348.379 497.351 348.722 498.517 348.722 500.034V500.711H342.279C342.303 501.648 342.575 502.407 343.097 502.987C343.624 503.562 344.292 503.849 345.101 503.849C345.675 503.849 346.161 503.731 346.56 503.497C346.958 503.263 347.307 502.952 347.605 502.565L348.599 503.339C347.802 504.563 346.606 505.176 345.013 505.176ZM344.811 496.65C344.154 496.65 343.604 496.891 343.158 497.371C342.713 497.846 342.438 498.514 342.332 499.375H347.096V499.252C347.049 498.426 346.826 497.787 346.428 497.336C346.029 496.879 345.49 496.65 344.811 496.65ZM352.378 505H350.752V491.5H352.378V505ZM358.935 505.176C357.646 505.176 356.597 504.754 355.788 503.91C354.979 503.061 354.575 501.927 354.575 500.509V500.21C354.575 499.267 354.754 498.426 355.111 497.688C355.475 496.943 355.979 496.363 356.623 495.947C357.273 495.525 357.977 495.314 358.732 495.314C359.969 495.314 360.93 495.722 361.615 496.536C362.301 497.351 362.644 498.517 362.644 500.034V500.711H356.201C356.225 501.648 356.497 502.407 357.019 502.987C357.546 503.562 358.214 503.849 359.022 503.849C359.597 503.849 360.083 503.731 360.481 503.497C360.88 503.263 361.229 502.952 361.527 502.565L362.521 503.339C361.724 504.563 360.528 505.176 358.935 505.176ZM358.732 496.65C358.076 496.65 357.525 496.891 357.08 497.371C356.635 497.846 356.359 498.514 356.254 499.375H361.018V499.252C360.971 498.426 360.748 497.787 360.35 497.336C359.951 496.879 359.412 496.65 358.732 496.65ZM366.062 495.49L366.106 496.545C366.804 495.725 367.744 495.314 368.928 495.314C370.258 495.314 371.163 495.824 371.644 496.844C371.96 496.387 372.37 496.018 372.874 495.736C373.384 495.455 373.984 495.314 374.676 495.314C376.762 495.314 377.822 496.419 377.857 498.628V505H376.231V498.725C376.231 498.045 376.076 497.538 375.766 497.204C375.455 496.864 374.934 496.694 374.201 496.694C373.598 496.694 373.097 496.876 372.698 497.239C372.3 497.597 372.068 498.08 372.004 498.689V505H370.369V498.769C370.369 497.386 369.692 496.694 368.339 496.694C367.272 496.694 366.543 497.148 366.15 498.057V505H364.524V495.49H366.062ZM386.189 505C386.096 504.812 386.02 504.479 385.961 503.998C385.205 504.783 384.303 505.176 383.254 505.176C382.316 505.176 381.546 504.912 380.942 504.385C380.345 503.852 380.046 503.178 380.046 502.363C380.046 501.373 380.421 500.605 381.171 500.061C381.927 499.51 382.987 499.234 384.353 499.234H385.935V498.487C385.935 497.919 385.765 497.468 385.425 497.134C385.085 496.794 384.584 496.624 383.922 496.624C383.342 496.624 382.855 496.771 382.463 497.063C382.07 497.356 381.874 497.711 381.874 498.127H380.239C380.239 497.652 380.406 497.195 380.74 496.756C381.08 496.311 381.537 495.959 382.111 495.701C382.691 495.443 383.327 495.314 384.019 495.314C385.114 495.314 385.973 495.59 386.594 496.141C387.215 496.686 387.537 497.438 387.561 498.399V502.776C387.561 503.649 387.672 504.344 387.895 504.859V505H386.189ZM383.491 503.761C384.001 503.761 384.484 503.629 384.941 503.365C385.398 503.102 385.729 502.759 385.935 502.337V500.386H384.66C382.668 500.386 381.672 500.969 381.672 502.135C381.672 502.645 381.842 503.043 382.182 503.33C382.521 503.617 382.958 503.761 383.491 503.761ZM391.647 495.49L391.7 496.686C392.427 495.771 393.376 495.314 394.548 495.314C396.558 495.314 397.571 496.448 397.589 498.716V505H395.963V498.707C395.957 498.021 395.799 497.515 395.488 497.187C395.184 496.858 394.706 496.694 394.056 496.694C393.528 496.694 393.065 496.835 392.667 497.116C392.269 497.397 391.958 497.767 391.735 498.224V505H390.109V495.49H391.647ZM400.076 504.147C400.076 503.866 400.158 503.632 400.322 503.444C400.492 503.257 400.744 503.163 401.078 503.163C401.412 503.163 401.664 503.257 401.834 503.444C402.01 503.632 402.098 503.866 402.098 504.147C402.098 504.417 402.01 504.643 401.834 504.824C401.664 505.006 401.412 505.097 401.078 505.097C400.744 505.097 400.492 505.006 400.322 504.824C400.158 504.643 400.076 504.417 400.076 504.147Z" fill="white"/>
<rect x="71" y="308" width="416" height="39" rx="13" fill="white" fill-opacity="0.3"/>
<path d="M95.8252 332.304L98.7041 323.377H100.734L96.5664 335H95.0518L90.8408 323.377H92.8711L95.8252 332.304ZM109.65 335C109.536 334.771 109.443 334.363 109.371 333.775C108.447 334.735 107.344 335.215 106.062 335.215C104.917 335.215 103.975 334.893 103.237 334.248C102.507 333.596 102.142 332.773 102.142 331.777C102.142 330.567 102.6 329.629 103.517 328.963C104.44 328.29 105.737 327.953 107.405 327.953H109.339V327.04C109.339 326.345 109.131 325.794 108.716 325.386C108.3 324.97 107.688 324.763 106.879 324.763C106.17 324.763 105.576 324.942 105.096 325.3C104.616 325.658 104.376 326.091 104.376 326.6H102.378C102.378 326.02 102.582 325.461 102.99 324.924C103.406 324.38 103.964 323.95 104.666 323.635C105.375 323.32 106.152 323.162 106.997 323.162C108.336 323.162 109.385 323.499 110.145 324.172C110.904 324.838 111.298 325.758 111.326 326.933V332.282C111.326 333.349 111.462 334.198 111.734 334.828V335H109.65ZM106.353 333.485C106.976 333.485 107.566 333.324 108.125 333.002C108.684 332.68 109.088 332.261 109.339 331.745V329.36H107.781C105.346 329.36 104.129 330.073 104.129 331.498C104.129 332.121 104.337 332.608 104.752 332.959C105.167 333.31 105.701 333.485 106.353 333.485ZM120.06 325.16C119.759 325.11 119.433 325.085 119.082 325.085C117.779 325.085 116.894 325.64 116.429 326.75V335H114.441V323.377H116.375L116.407 324.72C117.059 323.681 117.983 323.162 119.179 323.162C119.565 323.162 119.859 323.212 120.06 323.312V325.16ZM229.77 326.256H220.811V324.526H229.77V326.256ZM229.77 330.714H220.811V328.995H229.77V330.714Z" fill="#FFCA45"/>
<path d="M129.223 323.377L129.276 324.666C130.129 323.663 131.278 323.162 132.725 323.162C134.35 323.162 135.457 323.785 136.044 325.031C136.431 324.473 136.932 324.021 137.548 323.678C138.171 323.334 138.905 323.162 139.75 323.162C142.299 323.162 143.596 324.512 143.639 327.212V335H141.651V327.33C141.651 326.499 141.462 325.88 141.082 325.472C140.702 325.056 140.065 324.849 139.17 324.849C138.432 324.849 137.82 325.071 137.333 325.515C136.846 325.951 136.563 326.542 136.484 327.287V335H134.486V327.384C134.486 325.694 133.659 324.849 132.005 324.849C130.701 324.849 129.81 325.404 129.33 326.514V335H127.343V323.377H129.223ZM151.47 335.215C149.894 335.215 148.612 334.699 147.624 333.668C146.636 332.63 146.142 331.244 146.142 329.511V329.146C146.142 327.993 146.36 326.965 146.797 326.062C147.241 325.153 147.857 324.444 148.645 323.936C149.439 323.42 150.299 323.162 151.223 323.162C152.734 323.162 153.908 323.66 154.746 324.655C155.584 325.651 156.003 327.076 156.003 328.931V329.758H148.129C148.158 330.904 148.491 331.831 149.128 332.54C149.772 333.242 150.589 333.593 151.577 333.593C152.279 333.593 152.873 333.45 153.36 333.163C153.847 332.877 154.273 332.497 154.639 332.024L155.853 332.97C154.879 334.466 153.418 335.215 151.47 335.215ZM151.223 324.795C150.421 324.795 149.747 325.089 149.203 325.676C148.659 326.256 148.322 327.072 148.193 328.125H154.016V327.975C153.958 326.965 153.686 326.184 153.199 325.633C152.712 325.074 152.053 324.795 151.223 324.795ZM161.965 332.089L164.672 323.377H166.799L162.126 336.794C161.403 338.728 160.253 339.694 158.678 339.694L158.302 339.662L157.561 339.522V337.911L158.098 337.954C158.771 337.954 159.294 337.818 159.666 337.546C160.046 337.274 160.357 336.776 160.601 336.053L161.041 334.871L156.895 323.377H159.064L161.965 332.089ZM172.417 332.304L175.296 323.377H177.326L173.158 335H171.644L167.433 323.377H169.463L172.417 332.304ZM183.911 335.215C182.336 335.215 181.054 334.699 180.065 333.668C179.077 332.63 178.583 331.244 178.583 329.511V329.146C178.583 327.993 178.801 326.965 179.238 326.062C179.682 325.153 180.298 324.444 181.086 323.936C181.881 323.42 182.74 323.162 183.664 323.162C185.175 323.162 186.35 323.66 187.188 324.655C188.025 325.651 188.444 327.076 188.444 328.931V329.758H180.57C180.599 330.904 180.932 331.831 181.569 332.54C182.214 333.242 183.03 333.593 184.019 333.593C184.72 333.593 185.315 333.45 185.802 333.163C186.289 332.877 186.715 332.497 187.08 332.024L188.294 332.97C187.32 334.466 185.859 335.215 183.911 335.215ZM183.664 324.795C182.862 324.795 182.189 325.089 181.645 325.676C181.1 326.256 180.764 327.072 180.635 328.125H186.457V327.975C186.4 326.965 186.128 326.184 185.641 325.633C185.154 325.074 184.495 324.795 183.664 324.795ZM192.913 335H190.926V318.5H192.913V335ZM200.927 335.215C199.351 335.215 198.069 334.699 197.081 333.668C196.093 332.63 195.599 331.244 195.599 329.511V329.146C195.599 327.993 195.817 326.965 196.254 326.062C196.698 325.153 197.314 324.444 198.102 323.936C198.896 323.42 199.756 323.162 200.68 323.162C202.191 323.162 203.365 323.66 204.203 324.655C205.041 325.651 205.46 327.076 205.46 328.931V329.758H197.586C197.615 330.904 197.948 331.831 198.585 332.54C199.229 333.242 200.046 333.593 201.034 333.593C201.736 333.593 202.33 333.45 202.817 333.163C203.304 332.877 203.73 332.497 204.096 332.024L205.31 332.97C204.336 334.466 202.875 335.215 200.927 335.215ZM200.68 324.795C199.878 324.795 199.204 325.089 198.66 325.676C198.116 326.256 197.779 327.072 197.65 328.125H203.473V327.975C203.415 326.965 203.143 326.184 202.656 325.633C202.169 325.074 201.51 324.795 200.68 324.795ZM213.388 325.16C213.087 325.11 212.761 325.085 212.41 325.085C211.107 325.085 210.222 325.64 209.757 326.75V335H207.77V323.377H209.703L209.735 324.72C210.387 323.681 211.311 323.162 212.507 323.162C212.894 323.162 213.187 323.212 213.388 323.312V325.16ZM242.327 318.758H240.275V336.719H242.327V338.352H238.277V317.125H242.327V318.758ZM304.986 338.115L303.858 337.342C304.532 336.404 304.882 335.437 304.911 334.441V332.647H306.855V334.205C306.855 334.928 306.676 335.652 306.318 336.375C305.967 337.098 305.523 337.678 304.986 338.115ZM394.834 338.115L393.706 337.342C394.379 336.404 394.73 335.437 394.759 334.441V332.647H396.703V334.205C396.703 334.928 396.524 335.652 396.166 336.375C395.815 337.098 395.371 337.678 394.834 338.115ZM463.767 317.125H467.827V338.352H463.767V336.719H465.84V318.758H463.767V317.125Z" fill="white" fill-opacity="0.9"/>
<path d="M245.528 319.961L245.206 323.807H244.014L244.024 318.5H245.528V319.961ZM248.429 319.961L248.106 323.807H246.914L246.925 318.5H248.429V319.961ZM255.282 335.215C253.707 335.215 252.425 334.699 251.437 333.668C250.448 332.63 249.954 331.244 249.954 329.511V329.146C249.954 327.993 250.173 326.965 250.609 326.062C251.053 325.153 251.669 324.444 252.457 323.936C253.252 323.42 254.111 323.162 255.035 323.162C256.546 323.162 257.721 323.66 258.559 324.655C259.396 325.651 259.815 327.076 259.815 328.931V329.758H251.941C251.97 330.904 252.303 331.831 252.94 332.54C253.585 333.242 254.401 333.593 255.39 333.593C256.091 333.593 256.686 333.45 257.173 333.163C257.66 332.877 258.086 332.497 258.451 332.024L259.665 332.97C258.691 334.466 257.23 335.215 255.282 335.215ZM255.035 324.795C254.233 324.795 253.56 325.089 253.016 325.676C252.471 326.256 252.135 327.072 252.006 328.125H257.828V327.975C257.771 326.965 257.499 326.184 257.012 325.633C256.525 325.074 255.866 324.795 255.035 324.795ZM264.284 335H262.297V318.5H264.284V335ZM269.344 323.377L269.397 324.666C270.25 323.663 271.399 323.162 272.846 323.162C274.471 323.162 275.578 323.785 276.165 325.031C276.552 324.473 277.053 324.021 277.669 323.678C278.292 323.334 279.026 323.162 279.871 323.162C282.421 323.162 283.717 324.512 283.76 327.212V335H281.772V327.33C281.772 326.499 281.583 325.88 281.203 325.472C280.824 325.056 280.186 324.849 279.291 324.849C278.553 324.849 277.941 325.071 277.454 325.515C276.967 325.951 276.684 326.542 276.605 327.287V335H274.607V327.384C274.607 325.694 273.78 324.849 272.126 324.849C270.823 324.849 269.931 325.404 269.451 326.514V335H267.464V323.377H269.344ZM293.943 335C293.829 334.771 293.736 334.363 293.664 333.775C292.74 334.735 291.637 335.215 290.355 335.215C289.21 335.215 288.268 334.893 287.53 334.248C286.8 333.596 286.435 332.773 286.435 331.777C286.435 330.567 286.893 329.629 287.81 328.963C288.733 328.29 290.03 327.953 291.698 327.953H293.632V327.04C293.632 326.345 293.424 325.794 293.009 325.386C292.593 324.97 291.981 324.763 291.172 324.763C290.463 324.763 289.868 324.942 289.389 325.3C288.909 325.658 288.669 326.091 288.669 326.6H286.671C286.671 326.02 286.875 325.461 287.283 324.924C287.699 324.38 288.257 323.95 288.959 323.635C289.668 323.32 290.445 323.162 291.29 323.162C292.629 323.162 293.678 323.499 294.438 324.172C295.197 324.838 295.59 325.758 295.619 326.933V332.282C295.619 333.349 295.755 334.198 296.027 334.828V335H293.943ZM290.646 333.485C291.269 333.485 291.859 333.324 292.418 333.002C292.977 332.68 293.381 332.261 293.632 331.745V329.36H292.074C289.639 329.36 288.422 330.073 288.422 331.498C288.422 332.121 288.63 332.608 289.045 332.959C289.46 333.31 289.994 333.485 290.646 333.485ZM299.476 319.961L299.153 323.807H297.961L297.972 318.5H299.476V319.961ZM302.376 319.961L302.054 323.807H300.861L300.872 318.5H302.376V319.961ZM316.298 319.961L315.976 323.807H314.783L314.794 318.5H316.298V319.961ZM319.198 319.961L318.876 323.807H317.684L317.694 318.5H319.198V319.961ZM325.117 329.618L323.871 330.918V335H321.884V318.5H323.871V328.479L324.935 327.201L328.555 323.377H330.972L326.449 328.232L331.498 335H329.167L325.117 329.618ZM340.199 335C340.085 334.771 339.992 334.363 339.92 333.775C338.996 334.735 337.893 335.215 336.611 335.215C335.465 335.215 334.524 334.893 333.786 334.248C333.056 333.596 332.69 332.773 332.69 331.777C332.69 330.567 333.149 329.629 334.065 328.963C334.989 328.29 336.285 327.953 337.954 327.953H339.888V327.04C339.888 326.345 339.68 325.794 339.265 325.386C338.849 324.97 338.237 324.763 337.428 324.763C336.719 324.763 336.124 324.942 335.645 325.3C335.165 325.658 334.925 326.091 334.925 326.6H332.927C332.927 326.02 333.131 325.461 333.539 324.924C333.954 324.38 334.513 323.95 335.215 323.635C335.924 323.32 336.701 323.162 337.546 323.162C338.885 323.162 339.934 323.499 340.693 324.172C341.452 324.838 341.846 325.758 341.875 326.933V332.282C341.875 333.349 342.011 334.198 342.283 334.828V335H340.199ZM336.901 333.485C337.524 333.485 338.115 333.324 338.674 333.002C339.232 332.68 339.637 332.261 339.888 331.745V329.36H338.33C335.895 329.36 334.678 330.073 334.678 331.498C334.678 332.121 334.885 332.608 335.301 332.959C335.716 333.31 336.25 333.485 336.901 333.485ZM350.608 325.16C350.308 325.11 349.982 325.085 349.631 325.085C348.327 325.085 347.443 325.64 346.978 326.75V335H344.99V323.377H346.924L346.956 324.72C347.608 323.681 348.532 323.162 349.728 323.162C350.114 323.162 350.408 323.212 350.608 323.312V325.16ZM362.264 329.317C362.264 331.086 361.859 332.511 361.05 333.593C360.241 334.674 359.145 335.215 357.763 335.215C356.352 335.215 355.242 334.767 354.433 333.872V339.469H352.445V323.377H354.261L354.357 324.666C355.167 323.663 356.291 323.162 357.73 323.162C359.127 323.162 360.23 323.688 361.039 324.741C361.855 325.794 362.264 327.258 362.264 329.135V329.317ZM360.276 329.092C360.276 327.781 359.997 326.746 359.438 325.987C358.88 325.228 358.114 324.849 357.14 324.849C355.937 324.849 355.034 325.382 354.433 326.449V332.003C355.027 333.063 355.937 333.593 357.161 333.593C358.114 333.593 358.869 333.217 359.428 332.465C359.993 331.706 360.276 330.581 360.276 329.092ZM371.975 333.851C371.201 334.76 370.066 335.215 368.569 335.215C367.33 335.215 366.385 334.857 365.733 334.141C365.089 333.417 364.763 332.35 364.756 330.939V323.377H366.743V330.886C366.743 332.647 367.459 333.528 368.892 333.528C370.41 333.528 371.42 332.963 371.921 331.831V323.377H373.908V335H372.018L371.975 333.851ZM378.807 333.378H385.606V335H376.379V333.539L382.792 325.021H376.476V323.377H385.284V324.784L378.807 333.378ZM389.323 319.961L389.001 323.807H387.809L387.819 318.5H389.323V319.961ZM392.224 319.961L391.901 323.807H390.709L390.72 318.5H392.224V319.961ZM406.146 319.961L405.823 323.807H404.631L404.642 318.5H406.146V319.961ZM409.046 319.961L408.724 323.807H407.531L407.542 318.5H409.046V319.961ZM414.965 329.618L413.719 330.918V335H411.731V318.5H413.719V328.479L414.782 327.201L418.402 323.377H420.819L416.297 328.232L421.346 335H419.015L414.965 329.618ZM425.03 335H423.043V323.377H425.03V335ZM422.882 320.294C422.882 319.972 422.979 319.7 423.172 319.478C423.372 319.256 423.666 319.145 424.053 319.145C424.439 319.145 424.733 319.256 424.934 319.478C425.134 319.7 425.234 319.972 425.234 320.294C425.234 320.616 425.134 320.885 424.934 321.1C424.733 321.314 424.439 321.422 424.053 321.422C423.666 321.422 423.372 321.314 423.172 321.1C422.979 320.885 422.882 320.616 422.882 320.294ZM433.839 325.16C433.538 325.11 433.212 325.085 432.861 325.085C431.558 325.085 430.674 325.64 430.208 326.75V335H428.221V323.377H430.154L430.187 324.72C430.838 323.681 431.762 323.162 432.958 323.162C433.345 323.162 433.638 323.212 433.839 323.312V325.16ZM442.422 335C442.307 334.771 442.214 334.363 442.143 333.775C441.219 334.735 440.116 335.215 438.834 335.215C437.688 335.215 436.746 334.893 436.009 334.248C435.278 333.596 434.913 332.773 434.913 331.777C434.913 330.567 435.371 329.629 436.288 328.963C437.212 328.29 438.508 327.953 440.177 327.953H442.11V327.04C442.11 326.345 441.903 325.794 441.487 325.386C441.072 324.97 440.46 324.763 439.65 324.763C438.941 324.763 438.347 324.942 437.867 325.3C437.387 325.658 437.147 326.091 437.147 326.6H435.149C435.149 326.02 435.354 325.461 435.762 324.924C436.177 324.38 436.736 323.95 437.438 323.635C438.146 323.32 438.924 323.162 439.769 323.162C441.108 323.162 442.157 323.499 442.916 324.172C443.675 324.838 444.069 325.758 444.098 326.933V332.282C444.098 333.349 444.234 334.198 444.506 334.828V335H442.422ZM439.124 333.485C439.747 333.485 440.338 333.324 440.896 333.002C441.455 332.68 441.86 332.261 442.11 331.745V329.36H440.553C438.118 329.36 436.9 330.073 436.9 331.498C436.9 332.121 437.108 332.608 437.523 332.959C437.939 333.31 438.472 333.485 439.124 333.485ZM449.082 333.378H455.882V335H446.654V333.539L453.067 325.021H446.751V323.377H455.56V324.784L449.082 333.378ZM459.599 319.961L459.276 323.807H458.084L458.095 318.5H459.599V319.961ZM462.499 319.961L462.177 323.807H460.984L460.995 318.5H462.499V319.961Z" fill="#1EA1A3"/>
<path d="M172.646 402.354C172.842 402.549 173.158 402.549 173.354 402.354L176.536 399.172C176.731 398.976 176.731 398.66 176.536 398.464C176.34 398.269 176.024 398.269 175.828 398.464L173 401.293L170.172 398.464C169.976 398.269 169.66 398.269 169.464 398.464C169.269 398.66 169.269 398.976 169.464 399.172L172.646 402.354ZM172.5 342V402H173.5V342H172.5Z" fill="white" fill-opacity="0.8"/>
<path opacity="0.8" d="M128.711 428V415.203H132.323C133.437 415.203 134.421 415.449 135.276 415.941C136.132 416.434 136.791 417.134 137.254 418.042C137.723 418.95 137.96 419.993 137.966 421.171V421.988C137.966 423.195 137.731 424.253 137.263 425.161C136.8 426.069 136.135 426.767 135.268 427.253C134.406 427.739 133.401 427.988 132.253 428H128.711ZM130.398 416.592V426.62H132.174C133.475 426.62 134.485 426.216 135.206 425.407C135.933 424.599 136.296 423.447 136.296 421.953V421.206C136.296 419.753 135.953 418.625 135.268 417.822C134.588 417.014 133.621 416.604 132.367 416.592H130.398ZM142.035 428H140.409V418.49H142.035V428ZM140.277 415.968C140.277 415.704 140.356 415.481 140.515 415.3C140.679 415.118 140.919 415.027 141.235 415.027C141.552 415.027 141.792 415.118 141.956 415.3C142.12 415.481 142.202 415.704 142.202 415.968C142.202 416.231 142.12 416.451 141.956 416.627C141.792 416.803 141.552 416.891 141.235 416.891C140.919 416.891 140.679 416.803 140.515 416.627C140.356 416.451 140.277 416.231 140.277 415.968ZM146.175 426.673H151.738V428H144.188V426.805L149.436 419.835H144.268V418.49H151.475V419.642L146.175 426.673ZM155.342 428H153.716V418.49H155.342V428ZM153.584 415.968C153.584 415.704 153.663 415.481 153.821 415.3C153.985 415.118 154.226 415.027 154.542 415.027C154.858 415.027 155.099 415.118 155.263 415.3C155.427 415.481 155.509 415.704 155.509 415.968C155.509 416.231 155.427 416.451 155.263 416.627C155.099 416.803 154.858 416.891 154.542 416.891C154.226 416.891 153.985 416.803 153.821 416.627C153.663 416.451 153.584 416.231 153.584 415.968ZM159.49 418.49L159.543 419.686C160.27 418.771 161.219 418.314 162.391 418.314C164.4 418.314 165.414 419.448 165.432 421.716V428H163.806V421.707C163.8 421.021 163.642 420.515 163.331 420.187C163.026 419.858 162.549 419.694 161.898 419.694C161.371 419.694 160.908 419.835 160.51 420.116C160.111 420.397 159.801 420.767 159.578 421.224V428H157.952V418.49H159.49ZM169.65 428H168.024V418.49H169.65V428ZM167.893 415.968C167.893 415.704 167.972 415.481 168.13 415.3C168.294 415.118 168.534 415.027 168.851 415.027C169.167 415.027 169.407 415.118 169.571 415.3C169.735 415.481 169.817 415.704 169.817 415.968C169.817 416.231 169.735 416.451 169.571 416.627C169.407 416.803 169.167 416.891 168.851 416.891C168.534 416.891 168.294 416.803 168.13 416.627C167.972 416.451 167.893 416.231 167.893 415.968ZM173.799 418.49L173.852 419.686C174.578 418.771 175.527 418.314 176.699 418.314C178.709 418.314 179.723 419.448 179.74 421.716V428H178.114V421.707C178.108 421.021 177.95 420.515 177.64 420.187C177.335 419.858 176.857 419.694 176.207 419.694C175.68 419.694 175.217 419.835 174.818 420.116C174.42 420.397 174.109 420.767 173.887 421.224V428H172.261V418.49H173.799ZM188.723 428H187.035V415.203H188.723V428ZM186.912 413.155C186.912 412.892 186.991 412.669 187.149 412.487C187.313 412.306 187.554 412.215 187.87 412.215C188.187 412.215 188.427 412.306 188.591 412.487C188.755 412.669 188.837 412.892 188.837 413.155C188.837 413.419 188.755 413.639 188.591 413.814C188.427 413.99 188.187 414.078 187.87 414.078C187.554 414.078 187.313 413.99 187.149 413.814C186.991 413.639 186.912 413.419 186.912 413.155ZM197.099 425.478C197.099 425.038 196.932 424.698 196.598 424.458C196.27 424.212 195.692 424.001 194.866 423.825C194.046 423.649 193.393 423.438 192.906 423.192C192.426 422.946 192.068 422.653 191.834 422.313C191.605 421.974 191.491 421.569 191.491 421.101C191.491 420.321 191.819 419.662 192.476 419.123C193.138 418.584 193.981 418.314 195.007 418.314C196.085 418.314 196.958 418.593 197.626 419.149C198.3 419.706 198.637 420.418 198.637 421.285H197.002C197.002 420.84 196.812 420.456 196.431 420.134C196.056 419.812 195.581 419.65 195.007 419.65C194.415 419.65 193.952 419.779 193.618 420.037C193.284 420.295 193.117 420.632 193.117 421.048C193.117 421.44 193.272 421.736 193.583 421.936C193.894 422.135 194.453 422.325 195.262 422.507C196.076 422.688 196.735 422.905 197.239 423.157C197.743 423.409 198.115 423.714 198.355 424.071C198.602 424.423 198.725 424.854 198.725 425.363C198.725 426.213 198.385 426.896 197.705 427.411C197.025 427.921 196.144 428.176 195.06 428.176C194.298 428.176 193.624 428.041 193.038 427.771C192.452 427.502 191.992 427.127 191.658 426.646C191.33 426.16 191.166 425.636 191.166 425.073H192.792C192.821 425.618 193.038 426.052 193.442 426.374C193.853 426.69 194.392 426.849 195.06 426.849C195.675 426.849 196.167 426.726 196.536 426.479C196.911 426.228 197.099 425.894 197.099 425.478ZM202.372 418.49L202.416 419.545C203.113 418.725 204.054 418.314 205.237 418.314C206.567 418.314 207.473 418.824 207.953 419.844C208.27 419.387 208.68 419.018 209.184 418.736C209.693 418.455 210.294 418.314 210.985 418.314C213.071 418.314 214.132 419.419 214.167 421.628V428H212.541V421.725C212.541 421.045 212.386 420.538 212.075 420.204C211.765 419.864 211.243 419.694 210.511 419.694C209.907 419.694 209.406 419.876 209.008 420.239C208.609 420.597 208.378 421.08 208.313 421.689V428H206.679V421.769C206.679 420.386 206.002 419.694 204.648 419.694C203.582 419.694 202.853 420.148 202.46 421.057V428H200.834V418.49H202.372ZM218.395 428H216.769V418.49H218.395V428ZM216.637 415.968C216.637 415.704 216.716 415.481 216.874 415.3C217.038 415.118 217.278 415.027 217.595 415.027C217.911 415.027 218.151 415.118 218.315 415.3C218.479 415.481 218.562 415.704 218.562 415.968C218.562 416.231 218.479 416.451 218.315 416.627C218.151 416.803 217.911 416.891 217.595 416.891C217.278 416.891 217.038 416.803 216.874 416.627C216.716 416.451 216.637 416.231 216.637 415.968Z" fill="white"/>
<path opacity="0.8" d="M256.759 390V377.203H260.942C262.331 377.203 263.374 377.49 264.071 378.064C264.774 378.639 265.126 379.488 265.126 380.613C265.126 381.211 264.956 381.741 264.616 382.204C264.276 382.661 263.813 383.016 263.228 383.268C263.919 383.461 264.464 383.83 264.862 384.375C265.267 384.914 265.469 385.559 265.469 386.309C265.469 387.457 265.097 388.359 264.353 389.016C263.608 389.672 262.557 390 261.197 390H256.759ZM258.446 384.015V388.62H261.232C262.018 388.62 262.636 388.418 263.087 388.014C263.544 387.604 263.772 387.041 263.772 386.326C263.772 384.785 262.935 384.015 261.259 384.015H258.446ZM258.446 382.661H260.995C261.733 382.661 262.322 382.477 262.762 382.107C263.207 381.738 263.43 381.237 263.43 380.604C263.43 379.901 263.225 379.392 262.814 379.075C262.404 378.753 261.78 378.592 260.942 378.592H258.446V382.661ZM269.485 390H267.859V380.49H269.485V390ZM267.728 377.968C267.728 377.704 267.807 377.481 267.965 377.3C268.129 377.118 268.369 377.027 268.686 377.027C269.002 377.027 269.242 377.118 269.406 377.3C269.57 377.481 269.652 377.704 269.652 377.968C269.652 378.231 269.57 378.451 269.406 378.627C269.242 378.803 269.002 378.891 268.686 378.891C268.369 378.891 268.129 378.803 267.965 378.627C267.807 378.451 267.728 378.231 267.728 377.968ZM273.862 390H272.236V376.5H273.862V390ZM276.086 385.166C276.086 383.684 276.429 382.506 277.114 381.633C277.8 380.754 278.708 380.314 279.839 380.314C280.999 380.314 281.904 380.725 282.555 381.545L282.634 380.49H284.119V389.771C284.119 391.002 283.753 391.972 283.021 392.681C282.294 393.39 281.315 393.744 280.085 393.744C279.399 393.744 278.729 393.598 278.072 393.305C277.416 393.012 276.915 392.61 276.569 392.101L277.413 391.125C278.11 391.986 278.963 392.417 279.971 392.417C280.762 392.417 281.377 392.194 281.816 391.749C282.262 391.304 282.484 390.677 282.484 389.868V389.051C281.834 389.801 280.946 390.176 279.821 390.176C278.708 390.176 277.806 389.728 277.114 388.831C276.429 387.935 276.086 386.713 276.086 385.166ZM277.721 385.351C277.721 386.423 277.94 387.267 278.38 387.882C278.819 388.491 279.435 388.796 280.226 388.796C281.251 388.796 282.004 388.33 282.484 387.398V383.057C281.986 382.148 281.239 381.694 280.243 381.694C279.452 381.694 278.834 382.002 278.389 382.617C277.943 383.232 277.721 384.144 277.721 385.351ZM288.347 390H286.721V380.49H288.347V390ZM286.589 377.968C286.589 377.704 286.668 377.481 286.826 377.3C286.99 377.118 287.23 377.027 287.547 377.027C287.863 377.027 288.104 377.118 288.268 377.3C288.432 377.481 288.514 377.704 288.514 377.968C288.514 378.231 288.432 378.451 288.268 378.627C288.104 378.803 287.863 378.891 287.547 378.891C287.23 378.891 286.99 378.803 286.826 378.627C286.668 378.451 286.589 378.231 286.589 377.968Z" fill="white"/>
<path d="M272.646 364.354C272.842 364.549 273.158 364.549 273.354 364.354L276.536 361.172C276.731 360.976 276.731 360.66 276.536 360.464C276.34 360.269 276.024 360.269 275.828 360.464L273 363.293L270.172 360.464C269.976 360.269 269.66 360.269 269.464 360.464C269.269 360.66 269.269 360.976 269.464 361.172L272.646 364.354ZM272.5 339V364H273.5V339H272.5Z" fill="white" fill-opacity="0.8"/>
<path opacity="0.8" d="M188.812 272.203V280.904C188.807 282.111 188.426 283.099 187.67 283.866C186.92 284.634 185.9 285.064 184.611 285.158L184.163 285.176C182.763 285.176 181.646 284.798 180.814 284.042C179.982 283.286 179.561 282.246 179.549 280.922V272.203H181.219V280.869C181.219 281.795 181.474 282.516 181.983 283.031C182.493 283.541 183.22 283.796 184.163 283.796C185.118 283.796 185.848 283.541 186.352 283.031C186.861 282.521 187.116 281.804 187.116 280.878V272.203H188.812ZM181.351 270.226C181.351 269.962 181.43 269.742 181.588 269.566C181.752 269.385 181.992 269.294 182.309 269.294C182.625 269.294 182.865 269.385 183.029 269.566C183.193 269.742 183.275 269.962 183.275 270.226C183.275 270.489 183.193 270.709 183.029 270.885C182.865 271.061 182.625 271.148 182.309 271.148C181.992 271.148 181.752 271.061 181.588 270.885C181.43 270.709 181.351 270.489 181.351 270.226ZM185.13 270.243C185.13 269.979 185.209 269.757 185.367 269.575C185.531 269.394 185.771 269.303 186.088 269.303C186.404 269.303 186.645 269.394 186.809 269.575C186.973 269.757 187.055 269.979 187.055 270.243C187.055 270.507 186.973 270.727 186.809 270.902C186.645 271.078 186.404 271.166 186.088 271.166C185.771 271.166 185.531 271.078 185.367 270.902C185.209 270.727 185.13 270.507 185.13 270.243ZM195.035 283.849C195.615 283.849 196.122 283.673 196.556 283.321C196.989 282.97 197.229 282.53 197.276 282.003H198.814C198.785 282.548 198.598 283.066 198.252 283.559C197.906 284.051 197.443 284.443 196.863 284.736C196.289 285.029 195.68 285.176 195.035 285.176C193.74 285.176 192.709 284.745 191.941 283.884C191.18 283.017 190.799 281.833 190.799 280.333V280.061C190.799 279.135 190.969 278.312 191.309 277.591C191.648 276.87 192.135 276.311 192.768 275.912C193.406 275.514 194.159 275.314 195.026 275.314C196.093 275.314 196.978 275.634 197.681 276.272C198.39 276.911 198.768 277.74 198.814 278.76H197.276C197.229 278.145 196.995 277.641 196.573 277.248C196.157 276.85 195.642 276.65 195.026 276.65C194.2 276.65 193.559 276.949 193.102 277.547C192.65 278.139 192.425 278.997 192.425 280.122V280.43C192.425 281.525 192.65 282.369 193.102 282.961C193.553 283.553 194.197 283.849 195.035 283.849ZM195.299 285.079L195.193 285.536C196.09 285.694 196.538 286.201 196.538 287.057C196.538 287.625 196.304 288.073 195.835 288.401C195.366 288.735 194.713 288.902 193.875 288.902L193.813 287.962C194.276 287.962 194.634 287.886 194.886 287.733C195.144 287.581 195.272 287.367 195.272 287.092C195.272 286.834 195.179 286.644 194.991 286.521C194.804 286.397 194.423 286.31 193.849 286.257L194.13 285.079H195.299ZM209.054 285.176C207.765 285.176 206.716 284.754 205.907 283.91C205.099 283.061 204.694 281.927 204.694 280.509V280.21C204.694 279.267 204.873 278.426 205.23 277.688C205.594 276.943 206.098 276.363 206.742 275.947C207.393 275.525 208.096 275.314 208.852 275.314C210.088 275.314 211.049 275.722 211.734 276.536C212.42 277.351 212.763 278.517 212.763 280.034V280.711H206.32C206.344 281.648 206.616 282.407 207.138 282.987C207.665 283.562 208.333 283.849 209.142 283.849C209.716 283.849 210.202 283.731 210.601 283.497C210.999 283.263 211.348 282.952 211.646 282.565L212.64 283.339C211.843 284.563 210.647 285.176 209.054 285.176ZM208.852 276.65C208.195 276.65 207.645 276.891 207.199 277.371C206.754 277.846 206.479 278.514 206.373 279.375H211.137V279.252C211.09 278.426 210.867 277.787 210.469 277.336C210.07 276.879 209.531 276.65 208.852 276.65ZM216.419 285H214.793V271.5H216.419V285ZM222.976 285.176C221.687 285.176 220.638 284.754 219.829 283.91C219.021 283.061 218.616 281.927 218.616 280.509V280.21C218.616 279.267 218.795 278.426 219.152 277.688C219.516 276.943 220.02 276.363 220.664 275.947C221.314 275.525 222.018 275.314 222.773 275.314C224.01 275.314 224.971 275.722 225.656 276.536C226.342 277.351 226.685 278.517 226.685 280.034V280.711H220.242C220.266 281.648 220.538 282.407 221.06 282.987C221.587 283.562 222.255 283.849 223.063 283.849C223.638 283.849 224.124 283.731 224.522 283.497C224.921 283.263 225.27 282.952 225.568 282.565L226.562 283.339C225.765 284.563 224.569 285.176 222.976 285.176ZM222.773 276.65C222.117 276.65 221.566 276.891 221.121 277.371C220.676 277.846 220.4 278.514 220.295 279.375H225.059V279.252C225.012 278.426 224.789 277.787 224.391 277.336C223.992 276.879 223.453 276.65 222.773 276.65ZM230.104 275.49L230.147 276.545C230.845 275.725 231.785 275.314 232.969 275.314C234.299 275.314 235.204 275.824 235.685 276.844C236.001 276.387 236.411 276.018 236.915 275.736C237.425 275.455 238.025 275.314 238.717 275.314C240.803 275.314 241.863 276.419 241.898 278.628V285H240.272V278.725C240.272 278.045 240.117 277.538 239.807 277.204C239.496 276.864 238.975 276.694 238.242 276.694C237.639 276.694 237.138 276.876 236.739 277.239C236.341 277.597 236.109 278.08 236.045 278.689V285H234.41V278.769C234.41 277.386 233.733 276.694 232.38 276.694C231.313 276.694 230.584 277.148 230.191 278.057V285H228.565V275.49H230.104ZM250.23 285C250.137 284.812 250.061 284.479 250.002 283.998C249.246 284.783 248.344 285.176 247.295 285.176C246.357 285.176 245.587 284.912 244.983 284.385C244.386 283.852 244.087 283.178 244.087 282.363C244.087 281.373 244.462 280.605 245.212 280.061C245.968 279.51 247.028 279.234 248.394 279.234H249.976V278.487C249.976 277.919 249.806 277.468 249.466 277.134C249.126 276.794 248.625 276.624 247.963 276.624C247.383 276.624 246.896 276.771 246.504 277.063C246.111 277.356 245.915 277.711 245.915 278.127H244.28C244.28 277.652 244.447 277.195 244.781 276.756C245.121 276.311 245.578 275.959 246.152 275.701C246.732 275.443 247.368 275.314 248.06 275.314C249.155 275.314 250.014 275.59 250.635 276.141C251.256 276.686 251.578 277.438 251.602 278.399V282.776C251.602 283.649 251.713 284.344 251.936 284.859V285H250.23ZM247.532 283.761C248.042 283.761 248.525 283.629 248.982 283.365C249.439 283.102 249.771 282.759 249.976 282.337V280.386H248.701C246.709 280.386 245.713 280.969 245.713 282.135C245.713 282.645 245.883 283.043 246.223 283.33C246.562 283.617 246.999 283.761 247.532 283.761ZM255.688 275.49L255.741 276.686C256.468 275.771 257.417 275.314 258.589 275.314C260.599 275.314 261.612 276.448 261.63 278.716V285H260.004V278.707C259.998 278.021 259.84 277.515 259.529 277.187C259.225 276.858 258.747 276.694 258.097 276.694C257.569 276.694 257.106 276.835 256.708 277.116C256.31 277.397 255.999 277.767 255.776 278.224V285H254.15V275.49H255.688ZM269.953 285C269.859 284.812 269.783 284.479 269.725 283.998C268.969 284.783 268.066 285.176 267.018 285.176C266.08 285.176 265.31 284.912 264.706 284.385C264.108 283.852 263.81 283.178 263.81 282.363C263.81 281.373 264.185 280.605 264.935 280.061C265.69 279.51 266.751 279.234 268.116 279.234H269.698V278.487C269.698 277.919 269.528 277.468 269.188 277.134C268.849 276.794 268.348 276.624 267.686 276.624C267.105 276.624 266.619 276.771 266.227 277.063C265.834 277.356 265.638 277.711 265.638 278.127H264.003C264.003 277.652 264.17 277.195 264.504 276.756C264.844 276.311 265.301 275.959 265.875 275.701C266.455 275.443 267.091 275.314 267.782 275.314C268.878 275.314 269.736 275.59 270.357 276.141C270.979 276.686 271.301 277.438 271.324 278.399V282.776C271.324 283.649 271.436 284.344 271.658 284.859V285H269.953ZM267.255 283.761C267.765 283.761 268.248 283.629 268.705 283.365C269.162 283.102 269.493 282.759 269.698 282.337V280.386H268.424C266.432 280.386 265.436 280.969 265.436 282.135C265.436 282.645 265.605 283.043 265.945 283.33C266.285 283.617 266.722 283.761 267.255 283.761ZM283.875 282.478C283.875 282.038 283.708 281.698 283.374 281.458C283.046 281.212 282.469 281.001 281.643 280.825C280.822 280.649 280.169 280.438 279.683 280.192C279.202 279.946 278.845 279.653 278.61 279.313C278.382 278.974 278.268 278.569 278.268 278.101C278.268 277.321 278.596 276.662 279.252 276.123C279.914 275.584 280.758 275.314 281.783 275.314C282.861 275.314 283.734 275.593 284.402 276.149C285.076 276.706 285.413 277.418 285.413 278.285H283.778C283.778 277.84 283.588 277.456 283.207 277.134C282.832 276.812 282.357 276.65 281.783 276.65C281.191 276.65 280.729 276.779 280.395 277.037C280.061 277.295 279.894 277.632 279.894 278.048C279.894 278.44 280.049 278.736 280.359 278.936C280.67 279.135 281.229 279.325 282.038 279.507C282.853 279.688 283.512 279.905 284.016 280.157C284.52 280.409 284.892 280.714 285.132 281.071C285.378 281.423 285.501 281.854 285.501 282.363C285.501 283.213 285.161 283.896 284.481 284.411C283.802 284.921 282.92 285.176 281.836 285.176C281.074 285.176 280.4 285.041 279.814 284.771C279.229 284.502 278.769 284.127 278.435 283.646C278.106 283.16 277.942 282.636 277.942 282.073H279.568C279.598 282.618 279.814 283.052 280.219 283.374C280.629 283.69 281.168 283.849 281.836 283.849C282.451 283.849 282.943 283.726 283.312 283.479C283.688 283.228 283.875 282.894 283.875 282.478ZM293.49 285C293.396 284.812 293.32 284.479 293.262 283.998C292.506 284.783 291.604 285.176 290.555 285.176C289.617 285.176 288.847 284.912 288.243 284.385C287.646 283.852 287.347 283.178 287.347 282.363C287.347 281.373 287.722 280.605 288.472 280.061C289.228 279.51 290.288 279.234 291.653 279.234H293.235V278.487C293.235 277.919 293.065 277.468 292.726 277.134C292.386 276.794 291.885 276.624 291.223 276.624C290.643 276.624 290.156 276.771 289.764 277.063C289.371 277.356 289.175 277.711 289.175 278.127H287.54C287.54 277.652 287.707 277.195 288.041 276.756C288.381 276.311 288.838 275.959 289.412 275.701C289.992 275.443 290.628 275.314 291.319 275.314C292.415 275.314 293.273 275.59 293.895 276.141C294.516 276.686 294.838 277.438 294.861 278.399V282.776C294.861 283.649 294.973 284.344 295.195 284.859V285H293.49ZM290.792 283.761C291.302 283.761 291.785 283.629 292.242 283.365C292.699 283.102 293.03 282.759 293.235 282.337V280.386H291.961C289.969 280.386 288.973 280.969 288.973 282.135C288.973 282.645 289.143 283.043 289.482 283.33C289.822 283.617 290.259 283.761 290.792 283.761ZM299.036 276.642C299.757 275.757 300.694 275.314 301.849 275.314C303.858 275.314 304.872 276.448 304.89 278.716V285H303.264V278.707C303.258 278.021 303.1 277.515 302.789 277.187C302.484 276.858 302.007 276.694 301.356 276.694C300.829 276.694 300.366 276.835 299.968 277.116C299.569 277.397 299.259 277.767 299.036 278.224V285H297.41V271.5H299.036V276.642ZM309.091 285H307.465V275.49H309.091V285ZM307.333 272.968C307.333 272.704 307.412 272.481 307.57 272.3C307.734 272.118 307.975 272.027 308.291 272.027C308.607 272.027 308.848 272.118 309.012 272.3C309.176 272.481 309.258 272.704 309.258 272.968C309.258 273.231 309.176 273.451 309.012 273.627C308.848 273.803 308.607 273.891 308.291 273.891C307.975 273.891 307.734 273.803 307.57 273.627C307.412 273.451 307.333 273.231 307.333 272.968ZM319.734 280.351C319.734 281.798 319.403 282.964 318.741 283.849C318.079 284.733 317.183 285.176 316.052 285.176C314.897 285.176 313.989 284.81 313.327 284.077V288.656H311.701V275.49H313.187L313.266 276.545C313.928 275.725 314.848 275.314 316.025 275.314C317.168 275.314 318.07 275.745 318.732 276.606C319.4 277.468 319.734 278.666 319.734 280.201V280.351ZM318.108 280.166C318.108 279.094 317.88 278.247 317.423 277.626C316.966 277.005 316.339 276.694 315.542 276.694C314.558 276.694 313.819 277.131 313.327 278.004V282.548C313.813 283.415 314.558 283.849 315.56 283.849C316.339 283.849 316.957 283.541 317.414 282.926C317.877 282.305 318.108 281.385 318.108 280.166ZM334.324 280.351C334.324 281.804 333.99 282.973 333.322 283.857C332.654 284.736 331.758 285.176 330.633 285.176C329.432 285.176 328.503 284.751 327.847 283.901L327.768 285H326.273V271.5H327.899V276.536C328.556 275.722 329.461 275.314 330.615 275.314C331.77 275.314 332.675 275.751 333.331 276.624C333.993 277.497 334.324 278.692 334.324 280.21V280.351ZM332.698 280.166C332.698 279.059 332.484 278.203 332.057 277.6C331.629 276.996 331.014 276.694 330.211 276.694C329.139 276.694 328.368 277.192 327.899 278.188V282.302C328.397 283.298 329.174 283.796 330.229 283.796C331.008 283.796 331.614 283.494 332.048 282.891C332.481 282.287 332.698 281.379 332.698 280.166ZM338.147 285H336.521V275.49H338.147V285ZM336.39 272.968C336.39 272.704 336.469 272.481 336.627 272.3C336.791 272.118 337.031 272.027 337.348 272.027C337.664 272.027 337.904 272.118 338.068 272.3C338.232 272.481 338.314 272.704 338.314 272.968C338.314 273.231 338.232 273.451 338.068 273.627C337.904 273.803 337.664 273.891 337.348 273.891C337.031 273.891 336.791 273.803 336.627 273.627C336.469 273.451 336.39 273.231 336.39 272.968ZM345.354 276.949C345.108 276.908 344.842 276.888 344.555 276.888C343.488 276.888 342.765 277.342 342.384 278.25V285H340.758V275.49H342.34L342.366 276.589C342.899 275.739 343.655 275.314 344.634 275.314C344.95 275.314 345.19 275.355 345.354 275.438V276.949ZM350.927 280.166C350.927 278.707 351.272 277.535 351.964 276.65C352.655 275.76 353.561 275.314 354.68 275.314C355.793 275.314 356.675 275.695 357.325 276.457V271.5H358.951V285H357.457L357.378 283.98C356.728 284.777 355.822 285.176 354.662 285.176C353.561 285.176 352.661 284.725 351.964 283.822C351.272 282.92 350.927 281.742 350.927 280.289V280.166ZM352.553 280.351C352.553 281.429 352.775 282.272 353.221 282.882C353.666 283.491 354.281 283.796 355.066 283.796C356.098 283.796 356.851 283.333 357.325 282.407V278.039C356.839 277.143 356.092 276.694 355.084 276.694C354.287 276.694 353.666 277.002 353.221 277.617C352.775 278.232 352.553 279.144 352.553 280.351ZM363.249 285H361.623V275.49H363.249V285ZM361.491 272.968C361.491 272.704 361.57 272.481 361.729 272.3C361.893 272.118 362.133 272.027 362.449 272.027C362.766 272.027 363.006 272.118 363.17 272.3C363.334 272.481 363.416 272.704 363.416 272.968C363.416 273.231 363.334 273.451 363.17 273.627C363.006 273.803 362.766 273.891 362.449 273.891C362.133 273.891 361.893 273.803 361.729 273.627C361.57 273.451 361.491 273.231 361.491 272.968ZM367.389 283.673H372.952V285H365.402V283.805L370.649 276.835H365.481V275.49H372.688V276.642L367.389 283.673ZM376.556 285H374.93V275.49H376.556V285ZM374.798 272.968C374.798 272.704 374.877 272.481 375.035 272.3C375.199 272.118 375.439 272.027 375.756 272.027C376.072 272.027 376.312 272.118 376.477 272.3C376.641 272.481 376.723 272.704 376.723 272.968C376.723 273.231 376.641 273.451 376.477 273.627C376.312 273.803 376.072 273.891 375.756 273.891C375.439 273.891 375.199 273.803 375.035 273.627C374.877 273.451 374.798 273.231 374.798 272.968ZM379.201 284.147C379.201 283.866 379.283 283.632 379.447 283.444C379.617 283.257 379.869 283.163 380.203 283.163C380.537 283.163 380.789 283.257 380.959 283.444C381.135 283.632 381.223 283.866 381.223 284.147C381.223 284.417 381.135 284.643 380.959 284.824C380.789 285.006 380.537 285.097 380.203 285.097C379.869 285.097 379.617 285.006 379.447 284.824C379.283 284.643 379.201 284.417 379.201 284.147Z" fill="white"/>
<rect x="180" y="138" width="199" height="39" rx="13" fill="white" fill-opacity="0.3"/>
<path d="M204.655 162.304L207.534 153.377H209.564L205.396 165H203.882L199.671 153.377H201.701L204.655 162.304ZM218.48 165C218.366 164.771 218.273 164.363 218.201 163.775C217.277 164.735 216.174 165.215 214.893 165.215C213.747 165.215 212.805 164.893 212.067 164.248C211.337 163.596 210.972 162.773 210.972 161.777C210.972 160.567 211.43 159.629 212.347 158.963C213.271 158.29 214.567 157.953 216.235 157.953H218.169V157.04C218.169 156.345 217.961 155.794 217.546 155.386C217.131 154.97 216.518 154.763 215.709 154.763C215 154.763 214.406 154.942 213.926 155.3C213.446 155.658 213.206 156.091 213.206 156.6H211.208C211.208 156.02 211.412 155.461 211.82 154.924C212.236 154.38 212.794 153.95 213.496 153.635C214.205 153.32 214.982 153.162 215.827 153.162C217.166 153.162 218.215 153.499 218.975 154.172C219.734 154.838 220.128 155.758 220.156 156.933V162.282C220.156 163.349 220.292 164.198 220.564 164.828V165H218.48ZM215.183 163.485C215.806 163.485 216.396 163.324 216.955 163.002C217.514 162.68 217.918 162.261 218.169 161.745V159.36H216.611C214.176 159.36 212.959 160.073 212.959 161.498C212.959 162.121 213.167 162.608 213.582 162.959C213.997 163.31 214.531 163.485 215.183 163.485ZM228.89 155.16C228.589 155.11 228.263 155.085 227.912 155.085C226.609 155.085 225.724 155.64 225.259 156.75V165H223.271V153.377H225.205L225.237 154.72C225.889 153.681 226.813 153.162 228.009 153.162C228.396 153.162 228.689 153.212 228.89 153.312V155.16ZM338.6 156.256H329.641V154.526H338.6V156.256ZM338.6 160.714H329.641V158.995H338.6V160.714Z" fill="#FFCA45"/>
<path d="M238.053 153.377L238.106 154.666C238.959 153.663 240.108 153.162 241.555 153.162C243.18 153.162 244.287 153.785 244.874 155.031C245.261 154.473 245.762 154.021 246.378 153.678C247.001 153.334 247.735 153.162 248.58 153.162C251.13 153.162 252.426 154.512 252.469 157.212V165H250.481V157.33C250.481 156.499 250.292 155.88 249.912 155.472C249.533 155.056 248.895 154.849 248 154.849C247.262 154.849 246.65 155.071 246.163 155.515C245.676 155.951 245.393 156.542 245.314 157.287V165H243.316V157.384C243.316 155.694 242.489 154.849 240.835 154.849C239.532 154.849 238.64 155.404 238.16 156.514V165H236.173V153.377H238.053ZM260.3 165.215C258.724 165.215 257.442 164.699 256.454 163.668C255.466 162.63 254.972 161.244 254.972 159.511V159.146C254.972 157.993 255.19 156.965 255.627 156.062C256.071 155.153 256.687 154.444 257.475 153.936C258.27 153.42 259.129 153.162 260.053 153.162C261.564 153.162 262.738 153.66 263.576 154.655C264.414 155.651 264.833 157.076 264.833 158.931V159.758H256.959C256.988 160.904 257.321 161.831 257.958 162.54C258.603 163.242 259.419 163.593 260.407 163.593C261.109 163.593 261.703 163.45 262.19 163.163C262.677 162.877 263.104 162.497 263.469 162.024L264.683 162.97C263.709 164.466 262.248 165.215 260.3 165.215ZM260.053 154.795C259.251 154.795 258.577 155.089 258.033 155.676C257.489 156.256 257.152 157.072 257.023 158.125H262.846V157.975C262.788 156.965 262.516 156.184 262.029 155.633C261.542 155.074 260.883 154.795 260.053 154.795ZM270.795 162.089L273.502 153.377H275.629L270.956 166.794C270.233 168.728 269.083 169.694 267.508 169.694L267.132 169.662L266.391 169.522V167.911L266.928 167.954C267.601 167.954 268.124 167.818 268.496 167.546C268.876 167.274 269.187 166.776 269.431 166.053L269.871 164.871L265.725 153.377H267.895L270.795 162.089ZM281.247 162.304L284.126 153.377H286.156L281.988 165H280.474L276.263 153.377H278.293L281.247 162.304ZM292.741 165.215C291.166 165.215 289.884 164.699 288.896 163.668C287.907 162.63 287.413 161.244 287.413 159.511V159.146C287.413 157.993 287.632 156.965 288.068 156.062C288.512 155.153 289.128 154.444 289.916 153.936C290.711 153.42 291.57 153.162 292.494 153.162C294.005 153.162 295.18 153.66 296.018 154.655C296.855 155.651 297.274 157.076 297.274 158.931V159.758H289.4C289.429 160.904 289.762 161.831 290.399 162.54C291.044 163.242 291.86 163.593 292.849 163.593C293.55 163.593 294.145 163.45 294.632 163.163C295.119 162.877 295.545 162.497 295.91 162.024L297.124 162.97C296.15 164.466 294.689 165.215 292.741 165.215ZM292.494 154.795C291.692 154.795 291.019 155.089 290.475 155.676C289.93 156.256 289.594 157.072 289.465 158.125H295.287V157.975C295.23 156.965 294.958 156.184 294.471 155.633C293.984 155.074 293.325 154.795 292.494 154.795ZM301.743 165H299.756V148.5H301.743V165ZM309.757 165.215C308.181 165.215 306.899 164.699 305.911 163.668C304.923 162.63 304.429 161.244 304.429 159.511V159.146C304.429 157.993 304.647 156.965 305.084 156.062C305.528 155.153 306.144 154.444 306.932 153.936C307.727 153.42 308.586 153.162 309.51 153.162C311.021 153.162 312.195 153.66 313.033 154.655C313.871 155.651 314.29 157.076 314.29 158.931V159.758H306.416C306.445 160.904 306.778 161.831 307.415 162.54C308.06 163.242 308.876 163.593 309.864 163.593C310.566 163.593 311.16 163.45 311.647 163.163C312.134 162.877 312.561 162.497 312.926 162.024L314.14 162.97C313.166 164.466 311.705 165.215 309.757 165.215ZM309.51 154.795C308.708 154.795 308.035 155.089 307.49 155.676C306.946 156.256 306.609 157.072 306.48 158.125H312.303V157.975C312.245 156.965 311.973 156.184 311.486 155.633C310.999 155.074 310.34 154.795 309.51 154.795ZM322.218 155.16C321.917 155.11 321.591 155.085 321.24 155.085C319.937 155.085 319.052 155.64 318.587 156.75V165H316.6V153.377H318.533L318.565 154.72C319.217 153.681 320.141 153.162 321.337 153.162C321.724 153.162 322.017 153.212 322.218 153.312V155.16ZM351.157 148.758H349.105V166.719H351.157V168.352H347.107V147.125H351.157V148.758ZM356.937 147.125H360.997V168.352H356.937V166.719H359.01V148.758H356.937V147.125Z" fill="white" fill-opacity="0.9"/>
<path opacity="0.8" d="M339.604 220V207.203H343.788C345.177 207.203 346.22 207.49 346.917 208.064C347.62 208.639 347.972 209.488 347.972 210.613C347.972 211.211 347.802 211.741 347.462 212.204C347.122 212.661 346.659 213.016 346.073 213.268C346.765 213.461 347.31 213.83 347.708 214.375C348.112 214.914 348.314 215.559 348.314 216.309C348.314 217.457 347.942 218.359 347.198 219.016C346.454 219.672 345.402 220 344.043 220H339.604ZM341.292 214.015V218.62H344.078C344.863 218.62 345.481 218.418 345.933 218.014C346.39 217.604 346.618 217.041 346.618 216.326C346.618 214.785 345.78 214.015 344.104 214.015H341.292ZM341.292 212.661H343.841C344.579 212.661 345.168 212.477 345.607 212.107C346.053 211.738 346.275 211.237 346.275 210.604C346.275 209.901 346.07 209.392 345.66 209.075C345.25 208.753 344.626 208.592 343.788 208.592H341.292V212.661ZM350.134 215.157C350.134 214.226 350.315 213.388 350.679 212.644C351.048 211.899 351.558 211.325 352.208 210.921C352.864 210.517 353.611 210.314 354.449 210.314C355.744 210.314 356.79 210.763 357.587 211.659C358.39 212.556 358.791 213.748 358.791 215.236V215.351C358.791 216.276 358.612 217.108 358.255 217.847C357.903 218.579 357.396 219.15 356.734 219.561C356.078 219.971 355.322 220.176 354.467 220.176C353.178 220.176 352.132 219.728 351.329 218.831C350.532 217.935 350.134 216.748 350.134 215.271V215.157ZM351.769 215.351C351.769 216.405 352.012 217.252 352.498 217.891C352.99 218.529 353.646 218.849 354.467 218.849C355.293 218.849 355.949 218.526 356.436 217.882C356.922 217.231 357.165 216.323 357.165 215.157C357.165 214.114 356.916 213.271 356.418 212.626C355.926 211.976 355.27 211.65 354.449 211.65C353.646 211.65 352.999 211.97 352.507 212.608C352.015 213.247 351.769 214.161 351.769 215.351ZM366.367 217.478C366.367 217.038 366.2 216.698 365.866 216.458C365.538 216.212 364.961 216.001 364.135 215.825C363.314 215.649 362.661 215.438 362.175 215.192C361.694 214.946 361.337 214.653 361.103 214.313C360.874 213.974 360.76 213.569 360.76 213.101C360.76 212.321 361.088 211.662 361.744 211.123C362.406 210.584 363.25 210.314 364.275 210.314C365.354 210.314 366.227 210.593 366.895 211.149C367.568 211.706 367.905 212.418 367.905 213.285H366.271C366.271 212.84 366.08 212.456 365.699 212.134C365.324 211.812 364.85 211.65 364.275 211.65C363.684 211.65 363.221 211.779 362.887 212.037C362.553 212.295 362.386 212.632 362.386 213.048C362.386 213.44 362.541 213.736 362.852 213.936C363.162 214.135 363.722 214.325 364.53 214.507C365.345 214.688 366.004 214.905 366.508 215.157C367.012 215.409 367.384 215.714 367.624 216.071C367.87 216.423 367.993 216.854 367.993 217.363C367.993 218.213 367.653 218.896 366.974 219.411C366.294 219.921 365.412 220.176 364.328 220.176C363.566 220.176 362.893 220.041 362.307 219.771C361.721 219.502 361.261 219.127 360.927 218.646C360.599 218.16 360.435 217.636 360.435 217.073H362.061C362.09 217.618 362.307 218.052 362.711 218.374C363.121 218.69 363.66 218.849 364.328 218.849C364.943 218.849 365.436 218.726 365.805 218.479C366.18 218.228 366.367 217.894 366.367 217.478ZM365.172 220.07L365.066 220.527C365.963 220.686 366.411 221.192 366.411 222.048C366.411 222.616 366.177 223.064 365.708 223.393C365.239 223.727 364.586 223.894 363.748 223.894L363.687 222.953C364.149 222.953 364.507 222.877 364.759 222.725C365.017 222.572 365.146 222.358 365.146 222.083C365.146 221.825 365.052 221.635 364.864 221.512C364.677 221.389 364.296 221.301 363.722 221.248L364.003 220.07H365.172Z" fill="white"/>
<path d="M353.646 197.354C353.842 197.549 354.158 197.549 354.354 197.354L357.536 194.172C357.731 193.976 357.731 193.66 357.536 193.464C357.34 193.269 357.024 193.269 356.828 193.464L354 196.293L351.172 193.464C350.976 193.269 350.66 193.269 350.464 193.464C350.269 193.66 350.269 193.976 350.464 194.172L353.646 197.354ZM353.5 172V197H354.5V172H353.5Z" fill="white" fill-opacity="0.8"/>
<path opacity="0.8" d="M235.553 115V102.203H239.736C241.125 102.203 242.168 102.49 242.865 103.064C243.568 103.639 243.92 104.488 243.92 105.613C243.92 106.211 243.75 106.741 243.41 107.204C243.07 107.661 242.607 108.016 242.021 108.268C242.713 108.461 243.258 108.83 243.656 109.375C244.061 109.914 244.263 110.559 244.263 111.309C244.263 112.457 243.891 113.359 243.146 114.016C242.402 114.672 241.351 115 239.991 115H235.553ZM237.24 109.015V113.62H240.026C240.812 113.62 241.43 113.418 241.881 113.014C242.338 112.604 242.566 112.041 242.566 111.326C242.566 109.785 241.729 109.015 240.053 109.015H237.24ZM237.24 107.661H239.789C240.527 107.661 241.116 107.477 241.556 107.107C242.001 106.738 242.224 106.237 242.224 105.604C242.224 104.901 242.019 104.392 241.608 104.075C241.198 103.753 240.574 103.592 239.736 103.592H237.24V107.661ZM246.082 110.157C246.082 109.226 246.264 108.388 246.627 107.644C246.996 106.899 247.506 106.325 248.156 105.921C248.812 105.517 249.56 105.314 250.397 105.314C251.692 105.314 252.738 105.763 253.535 106.659C254.338 107.556 254.739 108.748 254.739 110.236V110.351C254.739 111.276 254.561 112.108 254.203 112.847C253.852 113.579 253.345 114.15 252.683 114.561C252.026 114.971 251.271 115.176 250.415 115.176C249.126 115.176 248.08 114.728 247.277 113.831C246.48 112.935 246.082 111.748 246.082 110.271V110.157ZM247.717 110.351C247.717 111.405 247.96 112.252 248.446 112.891C248.938 113.529 249.595 113.849 250.415 113.849C251.241 113.849 251.897 113.526 252.384 112.882C252.87 112.231 253.113 111.323 253.113 110.157C253.113 109.114 252.864 108.271 252.366 107.626C251.874 106.976 251.218 106.65 250.397 106.65C249.595 106.65 248.947 106.97 248.455 107.608C247.963 108.247 247.717 109.161 247.717 110.351ZM262.315 112.478C262.315 112.038 262.148 111.698 261.814 111.458C261.486 111.212 260.909 111.001 260.083 110.825C259.263 110.649 258.609 110.438 258.123 110.192C257.643 109.946 257.285 109.653 257.051 109.313C256.822 108.974 256.708 108.569 256.708 108.101C256.708 107.321 257.036 106.662 257.692 106.123C258.354 105.584 259.198 105.314 260.224 105.314C261.302 105.314 262.175 105.593 262.843 106.149C263.517 106.706 263.854 107.418 263.854 108.285H262.219C262.219 107.84 262.028 107.456 261.647 107.134C261.272 106.812 260.798 106.65 260.224 106.65C259.632 106.65 259.169 106.779 258.835 107.037C258.501 107.295 258.334 107.632 258.334 108.048C258.334 108.44 258.489 108.736 258.8 108.936C259.11 109.135 259.67 109.325 260.479 109.507C261.293 109.688 261.952 109.905 262.456 110.157C262.96 110.409 263.332 110.714 263.572 111.071C263.818 111.423 263.941 111.854 263.941 112.363C263.941 113.213 263.602 113.896 262.922 114.411C262.242 114.921 261.36 115.176 260.276 115.176C259.515 115.176 258.841 115.041 258.255 114.771C257.669 114.502 257.209 114.127 256.875 113.646C256.547 113.16 256.383 112.636 256.383 112.073H258.009C258.038 112.618 258.255 113.052 258.659 113.374C259.069 113.69 259.608 113.849 260.276 113.849C260.892 113.849 261.384 113.726 261.753 113.479C262.128 113.228 262.315 112.894 262.315 112.478ZM261.12 115.07L261.015 115.527C261.911 115.686 262.359 116.192 262.359 117.048C262.359 117.616 262.125 118.064 261.656 118.393C261.188 118.727 260.534 118.894 259.696 118.894L259.635 117.953C260.098 117.953 260.455 117.877 260.707 117.725C260.965 117.572 261.094 117.358 261.094 117.083C261.094 116.825 261 116.635 260.812 116.512C260.625 116.389 260.244 116.301 259.67 116.248L259.951 115.07H261.12ZM278.575 110.351C278.575 111.804 278.241 112.973 277.573 113.857C276.905 114.736 276.009 115.176 274.884 115.176C273.683 115.176 272.754 114.751 272.098 113.901L272.019 115H270.524V101.5H272.15V106.536C272.807 105.722 273.712 105.314 274.866 105.314C276.021 105.314 276.926 105.751 277.582 106.624C278.244 107.497 278.575 108.692 278.575 110.21V110.351ZM276.949 110.166C276.949 109.059 276.735 108.203 276.308 107.6C275.88 106.996 275.265 106.694 274.462 106.694C273.39 106.694 272.619 107.192 272.15 108.188V112.302C272.648 113.298 273.425 113.796 274.479 113.796C275.259 113.796 275.865 113.494 276.299 112.891C276.732 112.287 276.949 111.379 276.949 110.166ZM282.398 115H280.772V105.49H282.398V115ZM280.641 102.968C280.641 102.704 280.72 102.481 280.878 102.3C281.042 102.118 281.282 102.027 281.599 102.027C281.915 102.027 282.155 102.118 282.319 102.3C282.483 102.481 282.565 102.704 282.565 102.968C282.565 103.231 282.483 103.451 282.319 103.627C282.155 103.803 281.915 103.891 281.599 103.891C281.282 103.891 281.042 103.803 280.878 103.627C280.72 103.451 280.641 103.231 280.641 102.968ZM289.605 106.949C289.359 106.908 289.093 106.888 288.806 106.888C287.739 106.888 287.016 107.342 286.635 108.25V115H285.009V105.49H286.591L286.617 106.589C287.15 105.739 287.906 105.314 288.885 105.314C289.201 105.314 289.441 105.355 289.605 105.438V106.949ZM295.178 110.166C295.178 108.707 295.523 107.535 296.215 106.65C296.906 105.76 297.812 105.314 298.931 105.314C300.044 105.314 300.926 105.695 301.576 106.457V101.5H303.202V115H301.708L301.629 113.98C300.979 114.777 300.073 115.176 298.913 115.176C297.812 115.176 296.912 114.725 296.215 113.822C295.523 112.92 295.178 111.742 295.178 110.289V110.166ZM296.804 110.351C296.804 111.429 297.026 112.272 297.472 112.882C297.917 113.491 298.532 113.796 299.317 113.796C300.349 113.796 301.102 113.333 301.576 112.407V108.039C301.09 107.143 300.343 106.694 299.335 106.694C298.538 106.694 297.917 107.002 297.472 107.617C297.026 108.232 296.804 109.144 296.804 110.351ZM307.5 115H305.874V105.49H307.5V115ZM305.742 102.968C305.742 102.704 305.821 102.481 305.979 102.3C306.144 102.118 306.384 102.027 306.7 102.027C307.017 102.027 307.257 102.118 307.421 102.3C307.585 102.481 307.667 102.704 307.667 102.968C307.667 103.231 307.585 103.451 307.421 103.627C307.257 103.803 307.017 103.891 306.7 103.891C306.384 103.891 306.144 103.803 305.979 103.627C305.821 103.451 305.742 103.231 305.742 102.968ZM311.64 113.673H317.203V115H309.653V113.805L314.9 106.835H309.732V105.49H316.939V106.642L311.64 113.673ZM320.807 115H319.181V105.49H320.807V115ZM319.049 102.968C319.049 102.704 319.128 102.481 319.286 102.3C319.45 102.118 319.69 102.027 320.007 102.027C320.323 102.027 320.563 102.118 320.728 102.3C320.892 102.481 320.974 102.704 320.974 102.968C320.974 103.231 320.892 103.451 320.728 103.627C320.563 103.803 320.323 103.891 320.007 103.891C319.69 103.891 319.45 103.803 319.286 103.627C319.128 103.451 319.049 103.231 319.049 102.968ZM323.452 114.147C323.452 113.866 323.534 113.632 323.698 113.444C323.868 113.257 324.12 113.163 324.454 113.163C324.788 113.163 325.04 113.257 325.21 113.444C325.386 113.632 325.474 113.866 325.474 114.147C325.474 114.417 325.386 114.643 325.21 114.824C325.04 115.006 324.788 115.097 324.454 115.097C324.12 115.097 323.868 115.006 323.698 114.824C323.534 114.643 323.452 114.417 323.452 114.147Z" fill="white"/>
<path d="M230.314 51V38.2031H234.252C235.377 38.2031 236.382 38.458 237.267 38.9678C238.157 39.4717 238.852 40.1924 239.35 41.1299C239.848 42.0615 240.097 43.1221 240.097 44.3115V44.9004C240.097 46.0898 239.851 47.1475 239.358 48.0732C238.872 48.999 238.184 49.7168 237.293 50.2266C236.402 50.7363 235.397 50.9941 234.278 51H230.314ZM232.951 40.3389V48.8818H234.226C235.257 48.8818 236.045 48.5449 236.59 47.8711C237.135 47.1973 237.413 46.2334 237.425 44.9795V44.3027C237.425 43.002 237.155 42.0176 236.616 41.3496C236.077 40.6758 235.289 40.3389 234.252 40.3389H232.951ZM244.825 51H242.188V38.2031H244.825V51ZM243.489 34.8193C243.894 34.8193 244.21 34.9336 244.438 35.1621C244.673 35.3848 244.79 35.6719 244.79 36.0234C244.79 36.375 244.673 36.6621 244.438 36.8848C244.21 37.1074 243.894 37.2188 243.489 37.2188C243.091 37.2188 242.774 37.1074 242.54 36.8848C242.306 36.6621 242.188 36.375 242.188 36.0234C242.188 35.6719 242.306 35.3848 242.54 35.1621C242.78 34.9336 243.097 34.8193 243.489 34.8193ZM250.072 48.8818H256.523V51H246.776V49.4531L253.104 40.3389H246.785V38.2031H256.383V39.7148L250.072 48.8818ZM260.997 51H258.36V38.2031H260.997V51ZM259.661 34.8193C260.065 34.8193 260.382 34.9336 260.61 35.1621C260.845 35.3848 260.962 35.6719 260.962 36.0234C260.962 36.375 260.845 36.6621 260.61 36.8848C260.382 37.1074 260.065 37.2188 259.661 37.2188C259.263 37.2188 258.946 37.1074 258.712 36.8848C258.478 36.6621 258.36 36.375 258.36 36.0234C258.36 35.6719 258.478 35.3848 258.712 35.1621C258.952 34.9336 259.269 34.8193 259.661 34.8193ZM271.377 38.2031L274.664 47.4844L277.934 38.2031H281.396V51H278.751V47.502L279.015 41.4639L275.561 51H273.75L270.305 41.4727L270.568 47.502V51H267.932V38.2031H271.377ZM294.211 44.8916C294.211 46.1514 293.988 47.2559 293.543 48.2051C293.098 49.1543 292.459 49.8867 291.627 50.4023C290.801 50.918 289.852 51.1758 288.779 51.1758C287.719 51.1758 286.772 50.9209 285.94 50.4111C285.108 49.9014 284.464 49.1748 284.007 48.2314C283.55 47.2822 283.318 46.1924 283.312 44.9619V44.3291C283.312 43.0693 283.538 41.9619 283.989 41.0068C284.446 40.0459 285.088 39.3105 285.914 38.8008C286.746 38.2852 287.695 38.0273 288.762 38.0273C289.828 38.0273 290.774 38.2852 291.601 38.8008C292.433 39.3105 293.074 40.0459 293.525 41.0068C293.982 41.9619 294.211 43.0664 294.211 44.3203V44.8916ZM291.539 44.3115C291.539 42.9697 291.299 41.9502 290.818 41.2529C290.338 40.5557 289.652 40.207 288.762 40.207C287.877 40.207 287.194 40.5527 286.714 41.2441C286.233 41.9297 285.99 42.9375 285.984 44.2676V44.8916C285.984 46.1982 286.225 47.2119 286.705 47.9326C287.186 48.6533 287.877 49.0137 288.779 49.0137C289.664 49.0137 290.344 48.668 290.818 47.9766C291.293 47.2793 291.533 46.2656 291.539 44.9355V44.3115ZM296.127 51V38.2031H300.064C301.189 38.2031 302.194 38.458 303.079 38.9678C303.97 39.4717 304.664 40.1924 305.162 41.1299C305.66 42.0615 305.909 43.1221 305.909 44.3115V44.9004C305.909 46.0898 305.663 47.1475 305.171 48.0732C304.685 48.999 303.996 49.7168 303.105 50.2266C302.215 50.7363 301.21 50.9941 300.091 51H296.127ZM298.764 40.3389V48.8818H300.038C301.069 48.8818 301.857 48.5449 302.402 47.8711C302.947 47.1973 303.226 46.2334 303.237 44.9795V44.3027C303.237 43.002 302.968 42.0176 302.429 41.3496C301.89 40.6758 301.102 40.3389 300.064 40.3389H298.764ZM315.533 45.4541H310.471V48.8818H316.412V51H307.834V38.2031H316.395V40.3389H310.471V43.3887H315.533V45.4541ZM320.596 48.8818H326.194V51H317.959V38.2031H320.596V48.8818ZM330.519 51H327.882V38.2031H330.519V51ZM329.183 34.8193C329.587 34.8193 329.903 34.9336 330.132 35.1621C330.366 35.3848 330.483 35.6719 330.483 36.0234C330.483 36.375 330.366 36.6621 330.132 36.8848C329.903 37.1074 329.587 37.2188 329.183 37.2188C328.784 37.2188 328.468 37.1074 328.233 36.8848C327.999 36.6621 327.882 36.375 327.882 36.0234C327.882 35.6719 327.999 35.3848 328.233 35.1621C328.474 34.9336 328.79 34.8193 329.183 34.8193Z" fill="white"/>
<defs>
<linearGradient id="paint0_linear" x1="0" y1="0" x2="0" y2="674" gradientUnits="userSpaceOnUse">
<stop stop-color="#23D4AB"/>
<stop offset="1" stop-color="#23BCC1"/>
</linearGradient>
</defs>
</svg>
