<svg width="560" height="351" viewBox="0 0 560 351" fill="none" xmlns="http://www.w3.org/2000/svg">
<rect width="560" height="351" rx="8" fill="url(#paint0_linear)"/>
<rect opacity="0.15" y="4" width="560" height="347" rx="8" fill="black"/>
<path d="M151.541 46.3154H149.44V51H146.804V38.2031H151.559C153.07 38.2031 154.236 38.54 155.057 39.2139C155.877 39.8877 156.287 40.8398 156.287 42.0703C156.287 42.9434 156.097 43.6729 155.716 44.2588C155.341 44.8389 154.77 45.3018 154.002 45.6475L156.771 50.877V51H153.94L151.541 46.3154ZM149.44 44.1797H151.567C152.229 44.1797 152.742 44.0127 153.105 43.6787C153.469 43.3389 153.65 42.873 153.65 42.2812C153.65 41.6777 153.478 41.2031 153.132 40.8574C152.792 40.5117 152.268 40.3389 151.559 40.3389H149.44V44.1797ZM168.812 44.8916C168.812 46.1514 168.589 47.2559 168.144 48.2051C167.698 49.1543 167.06 49.8867 166.228 50.4023C165.401 50.918 164.452 51.1758 163.38 51.1758C162.319 51.1758 161.373 50.9209 160.541 50.4111C159.709 49.9014 159.064 49.1748 158.607 48.2314C158.15 47.2822 157.919 46.1924 157.913 44.9619V44.3291C157.913 43.0693 158.139 41.9619 158.59 41.0068C159.047 40.0459 159.688 39.3105 160.515 38.8008C161.347 38.2852 162.296 38.0273 163.362 38.0273C164.429 38.0273 165.375 38.2852 166.201 38.8008C167.033 39.3105 167.675 40.0459 168.126 41.0068C168.583 41.9619 168.812 43.0664 168.812 44.3203V44.8916ZM166.14 44.3115C166.14 42.9697 165.899 41.9502 165.419 41.2529C164.938 40.5557 164.253 40.207 163.362 40.207C162.478 40.207 161.795 40.5527 161.314 41.2441C160.834 41.9297 160.591 42.9375 160.585 44.2676V44.8916C160.585 46.1982 160.825 47.2119 161.306 47.9326C161.786 48.6533 162.478 49.0137 163.38 49.0137C164.265 49.0137 164.944 48.668 165.419 47.9766C165.894 47.2793 166.134 46.2656 166.14 44.9355V44.3115ZM170.728 51V38.2031H175.21C176.763 38.2031 177.94 38.502 178.743 39.0996C179.546 39.6914 179.947 40.5615 179.947 41.71C179.947 42.3369 179.786 42.8906 179.464 43.3711C179.142 43.8457 178.693 44.1943 178.119 44.417C178.775 44.5811 179.291 44.9121 179.666 45.4102C180.047 45.9082 180.237 46.5176 180.237 47.2383C180.237 48.4688 179.845 49.4004 179.06 50.0332C178.274 50.666 177.155 50.9883 175.702 51H170.728ZM173.364 45.4277V48.8818H175.623C176.244 48.8818 176.728 48.7354 177.073 48.4424C177.425 48.1436 177.601 47.7334 177.601 47.2119C177.601 46.04 176.994 45.4453 175.781 45.4277H173.364ZM173.364 43.5645H175.315C176.646 43.541 177.311 43.0107 177.311 41.9736C177.311 41.3936 177.141 40.9775 176.801 40.7256C176.467 40.4678 175.937 40.3389 175.21 40.3389H173.364V43.5645ZM192.735 44.8916C192.735 46.1514 192.513 47.2559 192.067 48.2051C191.622 49.1543 190.983 49.8867 190.151 50.4023C189.325 50.918 188.376 51.1758 187.304 51.1758C186.243 51.1758 185.297 50.9209 184.465 50.4111C183.633 49.9014 182.988 49.1748 182.531 48.2314C182.074 47.2822 181.843 46.1924 181.837 44.9619V44.3291C181.837 43.0693 182.062 41.9619 182.514 41.0068C182.971 40.0459 183.612 39.3105 184.438 38.8008C185.271 38.2852 186.22 38.0273 187.286 38.0273C188.353 38.0273 189.299 38.2852 190.125 38.8008C190.957 39.3105 191.599 40.0459 192.05 41.0068C192.507 41.9619 192.735 43.0664 192.735 44.3203V44.8916ZM190.063 44.3115C190.063 42.9697 189.823 41.9502 189.343 41.2529C188.862 40.5557 188.177 40.207 187.286 40.207C186.401 40.207 185.719 40.5527 185.238 41.2441C184.758 41.9297 184.515 42.9375 184.509 44.2676V44.8916C184.509 46.1982 184.749 47.2119 185.229 47.9326C185.71 48.6533 186.401 49.0137 187.304 49.0137C188.188 49.0137 188.868 48.668 189.343 47.9766C189.817 47.2793 190.058 46.2656 190.063 44.9355V44.3115ZM203.528 40.3389H199.608V51H196.972V40.3389H193.104V38.2031H203.528V40.3389ZM219.401 51H216.765L211.632 42.5801V51H208.995V38.2031H211.632L216.773 46.6406V38.2031H219.401V51ZM229.403 45.4541H224.341V48.8818H230.282V51H221.704V38.2031H230.265V40.3389H224.341V43.3887H229.403V45.4541ZM238.465 47.6426C238.465 47.1445 238.289 46.7637 237.938 46.5C237.586 46.2305 236.953 45.9492 236.039 45.6562C235.125 45.3574 234.401 45.0645 233.868 44.7773C232.415 43.9922 231.688 42.9346 231.688 41.6045C231.688 40.9131 231.882 40.2979 232.269 39.7588C232.661 39.2139 233.221 38.7891 233.947 38.4844C234.68 38.1797 235.5 38.0273 236.408 38.0273C237.322 38.0273 238.137 38.1943 238.852 38.5283C239.566 38.8564 240.12 39.3223 240.513 39.9258C240.911 40.5293 241.11 41.2148 241.11 41.9824H238.474C238.474 41.3965 238.289 40.9424 237.92 40.6201C237.551 40.292 237.032 40.1279 236.364 40.1279C235.72 40.1279 235.219 40.2656 234.861 40.541C234.504 40.8105 234.325 41.168 234.325 41.6133C234.325 42.0293 234.533 42.3779 234.949 42.6592C235.371 42.9404 235.989 43.2041 236.804 43.4502C238.304 43.9014 239.396 44.4609 240.082 45.1289C240.768 45.7969 241.11 46.6289 241.11 47.625C241.11 48.7324 240.691 49.6025 239.854 50.2354C239.016 50.8623 237.888 51.1758 236.47 51.1758C235.485 51.1758 234.589 50.9971 233.78 50.6396C232.972 50.2764 232.354 49.7812 231.926 49.1543C231.504 48.5273 231.293 47.8008 231.293 46.9746H233.938C233.938 48.3867 234.782 49.0928 236.47 49.0928C237.097 49.0928 237.586 48.9668 237.938 48.7148C238.289 48.457 238.465 48.0996 238.465 47.6426ZM253.31 51H250.673L245.54 42.5801V51H242.903V38.2031H245.54L250.682 46.6406V38.2031H253.31V51ZM263.312 45.4541H258.249V48.8818H264.19V51H255.612V38.2031H264.173V40.3389H258.249V43.3887H263.312V45.4541ZM272.373 47.6426C272.373 47.1445 272.197 46.7637 271.846 46.5C271.494 46.2305 270.861 45.9492 269.947 45.6562C269.033 45.3574 268.31 45.0645 267.776 44.7773C266.323 43.9922 265.597 42.9346 265.597 41.6045C265.597 40.9131 265.79 40.2979 266.177 39.7588C266.569 39.2139 267.129 38.7891 267.855 38.4844C268.588 38.1797 269.408 38.0273 270.316 38.0273C271.23 38.0273 272.045 38.1943 272.76 38.5283C273.475 38.8564 274.028 39.3223 274.421 39.9258C274.819 40.5293 275.019 41.2148 275.019 41.9824H272.382C272.382 41.3965 272.197 40.9424 271.828 40.6201C271.459 40.292 270.94 40.1279 270.272 40.1279C269.628 40.1279 269.127 40.2656 268.77 40.541C268.412 40.8105 268.233 41.168 268.233 41.6133C268.233 42.0293 268.441 42.3779 268.857 42.6592C269.279 42.9404 269.897 43.2041 270.712 43.4502C272.212 43.9014 273.305 44.4609 273.99 45.1289C274.676 45.7969 275.019 46.6289 275.019 47.625C275.019 48.7324 274.6 49.6025 273.762 50.2354C272.924 50.8623 271.796 51.1758 270.378 51.1758C269.394 51.1758 268.497 50.9971 267.688 50.6396C266.88 50.2764 266.262 49.7812 265.834 49.1543C265.412 48.5273 265.201 47.8008 265.201 46.9746H267.847C267.847 48.3867 268.69 49.0928 270.378 49.0928C271.005 49.0928 271.494 48.9668 271.846 48.7148C272.197 48.457 272.373 48.0996 272.373 47.6426ZM279.615 51H276.979V38.2031H279.615V51ZM278.279 34.8193C278.684 34.8193 279 34.9336 279.229 35.1621C279.463 35.3848 279.58 35.6719 279.58 36.0234C279.58 36.375 279.463 36.6621 279.229 36.8848C279 37.1074 278.684 37.2188 278.279 37.2188C277.881 37.2188 277.564 37.1074 277.33 36.8848C277.096 36.6621 276.979 36.375 276.979 36.0234C276.979 35.6719 277.096 35.3848 277.33 35.1621C277.57 34.9336 277.887 34.8193 278.279 34.8193ZM291.278 47.8271L294.179 38.2031H297.114L292.658 51H289.907L285.469 38.2031H288.396L291.278 47.8271ZM306.026 45.4541H300.964V48.8818H306.905V51H298.327V38.2031H306.888V40.3389H300.964V43.3887H306.026V45.4541ZM320.634 45.4541H315.571V48.8818H321.513V51H312.935V38.2031H321.495V40.3389H315.571V43.3887H320.634V45.4541ZM325.696 48.8818H331.295V51H323.06V38.2031H325.696V48.8818ZM340.515 45.4541H335.452V48.8818H341.394V51H332.815V38.2031H341.376V40.3389H335.452V43.3887H340.515V45.4541ZM346.386 38.2031L349.673 47.4844L352.942 38.2031H356.405V51H353.76V47.502L354.023 41.4639L350.569 51H348.759L345.313 41.4727L345.577 47.502V51H342.94V38.2031H346.386ZM366.091 48.3633H361.468L360.589 51H357.785L362.549 38.2031H364.992L369.782 51H366.979L366.091 48.3633ZM362.18 46.2275H365.379L363.771 41.4375L362.18 46.2275ZM381.384 51H378.747L373.614 42.5801V51H370.978V38.2031H373.614L378.756 46.6406V38.2031H381.384V51ZM386.323 48.8818H391.922V51H383.687V38.2031H386.323V48.8818ZM400.843 48.3633H396.22L395.341 51H392.537L397.301 38.2031H399.744L404.534 51H401.73L400.843 48.3633ZM396.932 46.2275H400.131L398.522 41.4375L396.932 46.2275ZM410.467 46.3154H408.366V51H405.729V38.2031H410.484C411.996 38.2031 413.162 38.54 413.982 39.2139C414.803 39.8877 415.213 40.8398 415.213 42.0703C415.213 42.9434 415.022 43.6729 414.642 44.2588C414.267 44.8389 413.695 45.3018 412.928 45.6475L415.696 50.877V51H412.866L410.467 46.3154ZM408.366 44.1797H410.493C411.155 44.1797 411.668 44.0127 412.031 43.6787C412.395 43.3389 412.576 42.873 412.576 42.2812C412.576 41.6777 412.403 41.2031 412.058 40.8574C411.718 40.5117 411.193 40.3389 410.484 40.3389H408.366V44.1797ZM420.029 51H417.393V38.2031H420.029V51Z" fill="white"/>
<path d="M264.223 122.08C263.839 122.028 263.5 122.002 263.207 122.002C262.139 122.002 261.439 122.363 261.107 123.086V130H258.285V119.434H260.951L261.029 120.693C261.596 119.723 262.38 119.238 263.383 119.238C263.695 119.238 263.988 119.281 264.262 119.365L264.223 122.08ZM264.799 124.619C264.799 123.571 265.001 122.637 265.404 121.816C265.808 120.996 266.387 120.361 267.143 119.912C267.904 119.463 268.786 119.238 269.789 119.238C271.215 119.238 272.377 119.674 273.275 120.547C274.18 121.419 274.685 122.604 274.789 124.102L274.809 124.824C274.809 126.445 274.356 127.747 273.451 128.73C272.546 129.707 271.332 130.195 269.809 130.195C268.285 130.195 267.068 129.707 266.156 128.73C265.251 127.754 264.799 126.426 264.799 124.746V124.619ZM267.621 124.824C267.621 125.827 267.81 126.595 268.188 127.129C268.565 127.656 269.105 127.92 269.809 127.92C270.492 127.92 271.026 127.66 271.41 127.139C271.794 126.611 271.986 125.771 271.986 124.619C271.986 123.636 271.794 122.874 271.41 122.334C271.026 121.794 270.486 121.523 269.789 121.523C269.099 121.523 268.565 121.794 268.188 122.334C267.81 122.868 267.621 123.698 267.621 124.824ZM286.068 124.814C286.068 126.507 285.707 127.829 284.984 128.779C284.262 129.723 283.253 130.195 281.957 130.195C280.811 130.195 279.896 129.756 279.213 128.877L279.086 130H276.547V115H279.369V120.381C280.02 119.619 280.876 119.238 281.938 119.238C283.227 119.238 284.236 119.714 284.965 120.664C285.701 121.608 286.068 122.939 286.068 124.658V124.814ZM283.246 124.609C283.246 123.542 283.077 122.764 282.738 122.275C282.4 121.781 281.895 121.533 281.225 121.533C280.326 121.533 279.708 121.901 279.369 122.637V126.807C279.714 127.549 280.339 127.92 281.244 127.92C282.156 127.92 282.755 127.471 283.041 126.572C283.178 126.143 283.246 125.488 283.246 124.609ZM287.377 124.619C287.377 123.571 287.579 122.637 287.982 121.816C288.386 120.996 288.965 120.361 289.721 119.912C290.482 119.463 291.365 119.238 292.367 119.238C293.793 119.238 294.955 119.674 295.854 120.547C296.758 121.419 297.263 122.604 297.367 124.102L297.387 124.824C297.387 126.445 296.934 127.747 296.029 128.73C295.124 129.707 293.91 130.195 292.387 130.195C290.863 130.195 289.646 129.707 288.734 128.73C287.829 127.754 287.377 126.426 287.377 124.746V124.619ZM290.199 124.824C290.199 125.827 290.388 126.595 290.766 127.129C291.143 127.656 291.684 127.92 292.387 127.92C293.07 127.92 293.604 127.66 293.988 127.139C294.372 126.611 294.564 125.771 294.564 124.619C294.564 123.636 294.372 122.874 293.988 122.334C293.604 121.794 293.064 121.523 292.367 121.523C291.677 121.523 291.143 121.794 290.766 122.334C290.388 122.868 290.199 123.698 290.199 124.824ZM302.504 116.836V119.434H304.311V121.504H302.504V126.777C302.504 127.168 302.579 127.448 302.729 127.617C302.878 127.786 303.165 127.871 303.588 127.871C303.9 127.871 304.177 127.848 304.418 127.803V129.941C303.865 130.111 303.295 130.195 302.709 130.195C300.73 130.195 299.721 129.196 299.682 127.197V121.504H298.139V119.434H299.682V116.836H302.504Z" fill="white"/>
<path opacity="0.9" fill-rule="evenodd" clip-rule="evenodd" d="M249 149C249 144.582 252.582 141 257 141H276.3H304C308.418 141 312 144.582 312 149V159C312 163.418 308.418 167 304 167H257C252.582 167 249 163.418 249 159V149Z" fill="url(#paint1_linear)"/>
<path d="M268.649 160H266.452L262.175 152.983V160H259.978V149.336H262.175L266.459 156.367V149.336H268.649V160ZM274.077 160.146C272.915 160.146 271.967 159.79 271.235 159.077C270.507 158.364 270.144 157.415 270.144 156.228V156.023C270.144 155.227 270.297 154.517 270.605 153.892C270.913 153.262 271.347 152.778 271.909 152.441C272.475 152.1 273.12 151.929 273.842 151.929C274.926 151.929 275.778 152.271 276.398 152.954C277.023 153.638 277.336 154.607 277.336 155.862V156.726H272.29C272.358 157.244 272.563 157.659 272.905 157.971C273.251 158.284 273.688 158.44 274.216 158.44C275.031 158.44 275.668 158.145 276.127 157.554L277.167 158.718C276.85 159.167 276.42 159.519 275.878 159.773C275.336 160.022 274.736 160.146 274.077 160.146ZM273.835 153.643C273.415 153.643 273.073 153.784 272.81 154.067C272.551 154.351 272.385 154.756 272.312 155.283H275.256V155.115C275.246 154.646 275.119 154.285 274.875 154.031C274.631 153.772 274.284 153.643 273.835 153.643ZM282.836 157.81C282.836 157.551 282.707 157.349 282.448 157.202C282.194 157.051 281.784 156.917 281.218 156.799C279.333 156.404 278.391 155.603 278.391 154.397C278.391 153.694 278.681 153.108 279.262 152.639C279.848 152.166 280.612 151.929 281.555 151.929C282.561 151.929 283.364 152.166 283.964 152.639C284.57 153.113 284.873 153.728 284.873 154.485H282.756C282.756 154.182 282.658 153.933 282.463 153.738C282.268 153.538 281.962 153.438 281.547 153.438C281.191 153.438 280.915 153.518 280.72 153.679C280.524 153.84 280.427 154.045 280.427 154.294C280.427 154.529 280.537 154.719 280.756 154.866C280.981 155.007 281.357 155.132 281.884 155.239C282.412 155.342 282.856 155.459 283.217 155.591C284.335 156.001 284.895 156.711 284.895 157.722C284.895 158.445 284.584 159.031 283.964 159.48C283.344 159.924 282.543 160.146 281.562 160.146C280.898 160.146 280.307 160.029 279.79 159.795C279.277 159.556 278.874 159.231 278.581 158.821C278.288 158.406 278.142 157.959 278.142 157.48H280.148C280.168 157.856 280.307 158.145 280.566 158.345C280.825 158.545 281.171 158.645 281.606 158.645C282.011 158.645 282.316 158.569 282.521 158.418C282.731 158.262 282.836 158.059 282.836 157.81ZM288.212 152.075L288.278 152.991C288.845 152.283 289.604 151.929 290.556 151.929C291.396 151.929 292.021 152.175 292.431 152.668C292.841 153.162 293.051 153.899 293.061 154.88V160H290.944V154.932C290.944 154.482 290.847 154.158 290.651 153.958C290.456 153.752 290.131 153.65 289.677 153.65C289.082 153.65 288.635 153.904 288.337 154.412V160H286.22V152.075H288.212ZM298.32 160.146C297.158 160.146 296.21 159.79 295.478 159.077C294.75 158.364 294.387 157.415 294.387 156.228V156.023C294.387 155.227 294.541 154.517 294.848 153.892C295.156 153.262 295.59 152.778 296.152 152.441C296.718 152.1 297.363 151.929 298.085 151.929C299.169 151.929 300.021 152.271 300.642 152.954C301.267 153.638 301.579 154.607 301.579 155.862V156.726H296.533C296.601 157.244 296.806 157.659 297.148 157.971C297.495 158.284 297.932 158.44 298.459 158.44C299.274 158.44 299.912 158.145 300.371 157.554L301.411 158.718C301.093 159.167 300.664 159.519 300.122 159.773C299.58 160.022 298.979 160.146 298.32 160.146ZM298.078 153.643C297.658 153.643 297.316 153.784 297.053 154.067C296.794 154.351 296.628 154.756 296.555 155.283H299.499V155.115C299.489 154.646 299.362 154.285 299.118 154.031C298.874 153.772 298.527 153.643 298.078 153.643Z" fill="#CC75AA"/>
<path d="M399.938 240.639C399.938 239.018 400.322 237.712 401.09 236.723C401.865 235.733 402.906 235.238 404.215 235.238C405.374 235.238 406.275 235.635 406.92 236.43L407.037 235.434H409.596V245.648C409.596 246.573 409.384 247.377 408.961 248.061C408.544 248.744 407.955 249.265 407.193 249.623C406.432 249.981 405.54 250.16 404.518 250.16C403.743 250.16 402.988 250.004 402.252 249.691C401.516 249.385 400.96 248.988 400.582 248.5L401.832 246.781C402.535 247.569 403.388 247.963 404.391 247.963C405.139 247.963 405.722 247.761 406.139 247.357C406.555 246.96 406.764 246.394 406.764 245.658V245.092C406.113 245.827 405.257 246.195 404.195 246.195C402.926 246.195 401.897 245.701 401.109 244.711C400.328 243.715 399.938 242.396 399.938 240.756V240.639ZM402.76 240.844C402.76 241.801 402.952 242.553 403.336 243.1C403.72 243.64 404.247 243.91 404.918 243.91C405.777 243.91 406.393 243.588 406.764 242.943V238.5C406.386 237.855 405.777 237.533 404.938 237.533C404.26 237.533 403.727 237.81 403.336 238.363C402.952 238.917 402.76 239.743 402.76 240.844ZM416.637 246.195C415.087 246.195 413.824 245.72 412.848 244.77C411.878 243.819 411.393 242.553 411.393 240.971V240.697C411.393 239.636 411.598 238.689 412.008 237.855C412.418 237.016 412.997 236.371 413.746 235.922C414.501 235.466 415.361 235.238 416.324 235.238C417.77 235.238 418.906 235.694 419.732 236.605C420.566 237.517 420.982 238.809 420.982 240.482V241.635H414.254C414.345 242.325 414.618 242.878 415.074 243.295C415.536 243.712 416.119 243.92 416.822 243.92C417.91 243.92 418.759 243.526 419.371 242.738L420.758 244.291C420.335 244.89 419.762 245.359 419.039 245.697C418.316 246.029 417.516 246.195 416.637 246.195ZM416.314 237.523C415.755 237.523 415.299 237.712 414.947 238.09C414.602 238.467 414.381 239.008 414.283 239.711H418.209V239.486C418.196 238.861 418.027 238.38 417.701 238.041C417.376 237.696 416.913 237.523 416.314 237.523ZM428.531 238.08C428.147 238.028 427.809 238.002 427.516 238.002C426.448 238.002 425.748 238.363 425.416 239.086V246H422.594V235.434H425.26L425.338 236.693C425.904 235.723 426.689 235.238 427.691 235.238C428.004 235.238 428.297 235.281 428.57 235.365L428.531 238.08ZM432.877 246H430.045V235.434H432.877V246ZM429.879 232.699C429.879 232.276 430.019 231.928 430.299 231.654C430.585 231.381 430.973 231.244 431.461 231.244C431.943 231.244 432.327 231.381 432.613 231.654C432.9 231.928 433.043 232.276 433.043 232.699C433.043 233.129 432.896 233.48 432.604 233.754C432.317 234.027 431.936 234.164 431.461 234.164C430.986 234.164 430.602 234.027 430.309 233.754C430.022 233.48 429.879 233.129 429.879 232.699ZM435.396 246V231.781H439.771C441.021 231.781 442.138 232.064 443.121 232.631C444.111 233.191 444.882 233.992 445.436 235.033C445.989 236.068 446.266 237.247 446.266 238.568V239.223C446.266 240.544 445.992 241.719 445.445 242.748C444.905 243.777 444.14 244.574 443.15 245.141C442.161 245.707 441.044 245.993 439.801 246H435.396ZM438.326 234.154V243.646H439.742C440.888 243.646 441.764 243.272 442.369 242.523C442.975 241.775 443.284 240.704 443.297 239.311V238.559C443.297 237.113 442.997 236.02 442.398 235.277C441.799 234.529 440.924 234.154 439.771 234.154H438.326ZM447.779 240.619C447.779 239.571 447.981 238.637 448.385 237.816C448.788 236.996 449.368 236.361 450.123 235.912C450.885 235.463 451.767 235.238 452.77 235.238C454.195 235.238 455.357 235.674 456.256 236.547C457.161 237.419 457.665 238.604 457.77 240.102L457.789 240.824C457.789 242.445 457.337 243.747 456.432 244.73C455.527 245.707 454.312 246.195 452.789 246.195C451.266 246.195 450.048 245.707 449.137 244.73C448.232 243.754 447.779 242.426 447.779 240.746V240.619ZM450.602 240.824C450.602 241.827 450.79 242.595 451.168 243.129C451.546 243.656 452.086 243.92 452.789 243.92C453.473 243.92 454.007 243.66 454.391 243.139C454.775 242.611 454.967 241.771 454.967 240.619C454.967 239.636 454.775 238.874 454.391 238.334C454.007 237.794 453.466 237.523 452.77 237.523C452.079 237.523 451.546 237.794 451.168 238.334C450.79 238.868 450.602 239.698 450.602 240.824ZM462.125 235.434L462.213 236.654C462.968 235.71 463.98 235.238 465.25 235.238C466.37 235.238 467.203 235.567 467.75 236.225C468.297 236.882 468.577 237.865 468.59 239.174V246H465.768V239.242C465.768 238.643 465.637 238.21 465.377 237.943C465.117 237.67 464.684 237.533 464.078 237.533C463.284 237.533 462.688 237.872 462.291 238.549V246H459.469V235.434H462.125ZM470.865 240.219C470.865 238.728 471.064 237.309 471.461 235.961C471.858 234.613 472.444 233.422 473.219 232.387C473.993 231.345 474.833 230.622 475.738 230.219L476.285 231.742C475.335 232.445 474.592 233.533 474.059 235.004C473.525 236.475 473.258 238.194 473.258 240.16V240.463C473.258 242.436 473.521 244.161 474.049 245.639C474.576 247.117 475.322 248.22 476.285 248.949L475.738 250.443C474.853 250.046 474.026 249.343 473.258 248.334C472.496 247.331 471.913 246.173 471.51 244.857C471.106 243.542 470.891 242.169 470.865 240.736V240.219ZM482.633 240.443C482.633 241.915 482.421 243.331 481.998 244.691C481.575 246.052 480.966 247.253 480.172 248.295C479.378 249.337 478.528 250.053 477.623 250.443L477.076 248.949C478.001 248.253 478.73 247.178 479.264 245.727C479.798 244.275 480.074 242.605 480.094 240.717V240.199C480.094 238.253 479.827 236.537 479.293 235.053C478.766 233.568 478.027 232.455 477.076 231.713L477.623 230.219C478.508 230.603 479.342 231.299 480.123 232.309C480.911 233.318 481.52 234.493 481.949 235.834C482.385 237.175 482.613 238.565 482.633 240.004V240.443Z" fill="white"/>
<path opacity="0.9" fill-rule="evenodd" clip-rule="evenodd" d="M397 265C397 260.582 400.582 257 405 257H434.7H476C480.418 257 484 260.582 484 265V275C484 279.418 480.418 283 476 283H405C400.582 283 397 279.418 397 275V265Z" fill="url(#paint2_linear)"/>
<path d="M414.386 271.642H410.167V276H407.97V265.336H414.913V267.116H410.167V269.87H414.386V271.642ZM415.558 271.964C415.558 271.178 415.709 270.478 416.012 269.862C416.314 269.247 416.749 268.771 417.315 268.434C417.887 268.097 418.548 267.929 419.3 267.929C420.37 267.929 421.241 268.256 421.915 268.91C422.594 269.564 422.972 270.453 423.05 271.576L423.065 272.118C423.065 273.334 422.726 274.311 422.047 275.048C421.368 275.78 420.458 276.146 419.315 276.146C418.172 276.146 417.259 275.78 416.576 275.048C415.897 274.315 415.558 273.319 415.558 272.06V271.964ZM417.674 272.118C417.674 272.87 417.816 273.446 418.099 273.847C418.382 274.242 418.788 274.44 419.315 274.44C419.828 274.44 420.228 274.245 420.516 273.854C420.804 273.458 420.948 272.829 420.948 271.964C420.948 271.227 420.804 270.656 420.516 270.25C420.228 269.845 419.823 269.643 419.3 269.643C418.783 269.643 418.382 269.845 418.099 270.25C417.816 270.651 417.674 271.273 417.674 272.118ZM426.317 268.075L426.383 268.991C426.949 268.283 427.708 267.929 428.661 267.929C429.5 267.929 430.125 268.175 430.536 268.668C430.946 269.162 431.156 269.899 431.166 270.88V276H429.049V270.932C429.049 270.482 428.951 270.158 428.756 269.958C428.561 269.752 428.236 269.65 427.782 269.65C427.186 269.65 426.739 269.904 426.441 270.412V276H424.325V268.075H426.317ZM435.655 272.821L434.894 273.583V276H432.777V264.75H434.894V270.983L435.304 270.456L437.333 268.075H439.874L437.01 271.378L440.123 276H437.691L435.655 272.821ZM445.082 273.81C445.082 273.551 444.952 273.349 444.693 273.202C444.439 273.051 444.029 272.917 443.463 272.799C441.578 272.404 440.636 271.603 440.636 270.397C440.636 269.694 440.926 269.108 441.507 268.639C442.093 268.166 442.857 267.929 443.8 267.929C444.806 267.929 445.609 268.166 446.209 268.639C446.815 269.113 447.118 269.728 447.118 270.485H445.001C445.001 270.182 444.903 269.933 444.708 269.738C444.513 269.538 444.208 269.438 443.792 269.438C443.436 269.438 443.16 269.518 442.965 269.679C442.77 269.84 442.672 270.045 442.672 270.294C442.672 270.529 442.782 270.719 443.001 270.866C443.226 271.007 443.602 271.132 444.129 271.239C444.657 271.342 445.101 271.459 445.462 271.591C446.581 272.001 447.14 272.711 447.14 273.722C447.14 274.445 446.83 275.031 446.209 275.48C445.589 275.924 444.789 276.146 443.807 276.146C443.143 276.146 442.552 276.029 442.035 275.795C441.522 275.556 441.119 275.231 440.826 274.821C440.533 274.406 440.387 273.959 440.387 273.48H442.394C442.413 273.856 442.552 274.145 442.811 274.345C443.07 274.545 443.417 274.645 443.851 274.645C444.256 274.645 444.562 274.569 444.767 274.418C444.977 274.262 445.082 274.059 445.082 273.81ZM450.743 276H448.619V268.075H450.743V276ZM448.495 266.024C448.495 265.707 448.6 265.446 448.81 265.241C449.024 265.036 449.315 264.933 449.681 264.933C450.042 264.933 450.331 265.036 450.545 265.241C450.76 265.446 450.868 265.707 450.868 266.024C450.868 266.347 450.758 266.61 450.538 266.815C450.323 267.021 450.038 267.123 449.681 267.123C449.325 267.123 449.037 267.021 448.817 266.815C448.602 266.61 448.495 266.347 448.495 266.024ZM455.453 273.004L456.917 268.075H459.188L456.002 277.23L455.826 277.648C455.353 278.683 454.571 279.201 453.482 279.201C453.175 279.201 452.862 279.154 452.545 279.062V277.458L452.867 277.465C453.268 277.465 453.565 277.404 453.761 277.282C453.961 277.16 454.117 276.957 454.229 276.674L454.479 276.022L451.703 268.075H453.98L455.453 273.004ZM459.576 271.964C459.576 271.178 459.728 270.478 460.03 269.862C460.333 269.247 460.768 268.771 461.334 268.434C461.905 268.097 462.567 267.929 463.319 267.929C464.388 267.929 465.26 268.256 465.934 268.91C466.612 269.564 466.991 270.453 467.069 271.576L467.083 272.118C467.083 273.334 466.744 274.311 466.065 275.048C465.387 275.78 464.476 276.146 463.333 276.146C462.191 276.146 461.278 275.78 460.594 275.048C459.916 274.315 459.576 273.319 459.576 272.06V271.964ZM461.693 272.118C461.693 272.87 461.834 273.446 462.118 273.847C462.401 274.242 462.806 274.44 463.333 274.44C463.846 274.44 464.247 274.245 464.535 273.854C464.823 273.458 464.967 272.829 464.967 271.964C464.967 271.227 464.823 270.656 464.535 270.25C464.247 269.845 463.841 269.643 463.319 269.643C462.801 269.643 462.401 269.845 462.118 270.25C461.834 270.651 461.693 271.273 461.693 272.118ZM470.335 268.075L470.401 268.991C470.968 268.283 471.727 267.929 472.679 267.929C473.519 267.929 474.144 268.175 474.554 268.668C474.964 269.162 475.174 269.899 475.184 270.88V276H473.067V270.932C473.067 270.482 472.97 270.158 472.774 269.958C472.579 269.752 472.254 269.65 471.8 269.65C471.205 269.65 470.758 269.904 470.46 270.412V276H468.343V268.075H470.335Z" fill="#23BCC1"/>
<path d="M309.08 246H306.248V235.434H309.08V246ZM306.082 232.699C306.082 232.276 306.222 231.928 306.502 231.654C306.788 231.381 307.176 231.244 307.664 231.244C308.146 231.244 308.53 231.381 308.816 231.654C309.103 231.928 309.246 232.276 309.246 232.699C309.246 233.129 309.1 233.48 308.807 233.754C308.52 234.027 308.139 234.164 307.664 234.164C307.189 234.164 306.805 234.027 306.512 233.754C306.225 233.48 306.082 233.129 306.082 232.699ZM314.393 246H311.561V231H314.393V246ZM321.59 246.195C320.04 246.195 318.777 245.72 317.801 244.77C316.831 243.819 316.346 242.553 316.346 240.971V240.697C316.346 239.636 316.551 238.689 316.961 237.855C317.371 237.016 317.951 236.371 318.699 235.922C319.454 235.466 320.314 235.238 321.277 235.238C322.723 235.238 323.859 235.694 324.686 236.605C325.519 237.517 325.936 238.809 325.936 240.482V241.635H319.207C319.298 242.325 319.572 242.878 320.027 243.295C320.49 243.712 321.072 243.92 321.775 243.92C322.863 243.92 323.712 243.526 324.324 242.738L325.711 244.291C325.288 244.89 324.715 245.359 323.992 245.697C323.27 246.029 322.469 246.195 321.59 246.195ZM321.268 237.523C320.708 237.523 320.252 237.712 319.9 238.09C319.555 238.467 319.334 239.008 319.236 239.711H323.162V239.486C323.149 238.861 322.98 238.38 322.654 238.041C322.329 237.696 321.867 237.523 321.268 237.523ZM333.484 238.08C333.1 238.028 332.762 238.002 332.469 238.002C331.401 238.002 330.701 238.363 330.369 239.086V246H327.547V235.434H330.213L330.291 236.693C330.857 235.723 331.642 235.238 332.645 235.238C332.957 235.238 333.25 235.281 333.523 235.365L333.484 238.08ZM337.83 246H334.998V231H337.83V246ZM345.027 246.195C343.478 246.195 342.215 245.72 341.238 244.77C340.268 243.819 339.783 242.553 339.783 240.971V240.697C339.783 239.636 339.988 238.689 340.398 237.855C340.809 237.016 341.388 236.371 342.137 235.922C342.892 235.466 343.751 235.238 344.715 235.238C346.16 235.238 347.296 235.694 348.123 236.605C348.956 237.517 349.373 238.809 349.373 240.482V241.635H342.645C342.736 242.325 343.009 242.878 343.465 243.295C343.927 243.712 344.51 243.92 345.213 243.92C346.3 243.92 347.15 243.526 347.762 242.738L349.148 244.291C348.725 244.89 348.152 245.359 347.43 245.697C346.707 246.029 345.906 246.195 345.027 246.195ZM344.705 237.523C344.145 237.523 343.689 237.712 343.338 238.09C342.993 238.467 342.771 239.008 342.674 239.711H346.6V239.486C346.587 238.861 346.417 238.38 346.092 238.041C345.766 237.696 345.304 237.523 344.705 237.523ZM351.111 240.219C351.111 238.728 351.31 237.309 351.707 235.961C352.104 234.613 352.69 233.422 353.465 232.387C354.24 231.345 355.079 230.622 355.984 230.219L356.531 231.742C355.581 232.445 354.839 233.533 354.305 235.004C353.771 236.475 353.504 238.194 353.504 240.16V240.463C353.504 242.436 353.768 244.161 354.295 245.639C354.822 247.117 355.568 248.22 356.531 248.949L355.984 250.443C355.099 250.046 354.272 249.343 353.504 248.334C352.742 247.331 352.16 246.173 351.756 244.857C351.352 243.542 351.137 242.169 351.111 240.736V240.219ZM362.879 240.443C362.879 241.915 362.667 243.331 362.244 244.691C361.821 246.052 361.212 247.253 360.418 248.295C359.624 249.337 358.774 250.053 357.869 250.443L357.322 248.949C358.247 248.253 358.976 247.178 359.51 245.727C360.044 244.275 360.32 242.605 360.34 240.717V240.199C360.34 238.253 360.073 236.537 359.539 235.053C359.012 233.568 358.273 232.455 357.322 231.713L357.869 230.219C358.755 230.603 359.588 231.299 360.369 232.309C361.157 233.318 361.766 234.493 362.195 235.834C362.632 237.175 362.859 238.565 362.879 240.004V240.443Z" fill="white"/>
<path opacity="0.9" fill-rule="evenodd" clip-rule="evenodd" d="M290 265C290 260.582 293.582 257 298 257H327.7H369C373.418 257 377 260.582 377 265V275C377 279.418 373.418 283 369 283H298C293.582 283 290 279.418 290 275V265Z" fill="url(#paint3_linear)"/>
<path d="M307.386 271.642H303.167V276H300.97V265.336H307.913V267.116H303.167V269.87H307.386V271.642ZM308.558 271.964C308.558 271.178 308.709 270.478 309.012 269.862C309.314 269.247 309.749 268.771 310.315 268.434C310.887 268.097 311.548 267.929 312.3 267.929C313.37 267.929 314.241 268.256 314.915 268.91C315.594 269.564 315.972 270.453 316.05 271.576L316.065 272.118C316.065 273.334 315.726 274.311 315.047 275.048C314.368 275.78 313.458 276.146 312.315 276.146C311.172 276.146 310.259 275.78 309.576 275.048C308.897 274.315 308.558 273.319 308.558 272.06V271.964ZM310.674 272.118C310.674 272.87 310.816 273.446 311.099 273.847C311.382 274.242 311.788 274.44 312.315 274.44C312.828 274.44 313.228 274.245 313.516 273.854C313.804 273.458 313.948 272.829 313.948 271.964C313.948 271.227 313.804 270.656 313.516 270.25C313.228 269.845 312.823 269.643 312.3 269.643C311.783 269.643 311.382 269.845 311.099 270.25C310.816 270.651 310.674 271.273 310.674 272.118ZM319.317 268.075L319.383 268.991C319.949 268.283 320.708 267.929 321.661 267.929C322.5 267.929 323.125 268.175 323.536 268.668C323.946 269.162 324.156 269.899 324.166 270.88V276H322.049V270.932C322.049 270.482 321.951 270.158 321.756 269.958C321.561 269.752 321.236 269.65 320.782 269.65C320.186 269.65 319.739 269.904 319.441 270.412V276H317.325V268.075H319.317ZM328.655 272.821L327.894 273.583V276H325.777V264.75H327.894V270.983L328.304 270.456L330.333 268.075H332.874L330.01 271.378L333.123 276H330.691L328.655 272.821ZM338.082 273.81C338.082 273.551 337.952 273.349 337.693 273.202C337.439 273.051 337.029 272.917 336.463 272.799C334.578 272.404 333.636 271.603 333.636 270.397C333.636 269.694 333.926 269.108 334.507 268.639C335.093 268.166 335.857 267.929 336.8 267.929C337.806 267.929 338.609 268.166 339.209 268.639C339.815 269.113 340.118 269.728 340.118 270.485H338.001C338.001 270.182 337.903 269.933 337.708 269.738C337.513 269.538 337.208 269.438 336.792 269.438C336.436 269.438 336.16 269.518 335.965 269.679C335.77 269.84 335.672 270.045 335.672 270.294C335.672 270.529 335.782 270.719 336.001 270.866C336.226 271.007 336.602 271.132 337.129 271.239C337.657 271.342 338.101 271.459 338.462 271.591C339.581 272.001 340.14 272.711 340.14 273.722C340.14 274.445 339.83 275.031 339.209 275.48C338.589 275.924 337.789 276.146 336.807 276.146C336.143 276.146 335.552 276.029 335.035 275.795C334.522 275.556 334.119 275.231 333.826 274.821C333.533 274.406 333.387 273.959 333.387 273.48H335.394C335.413 273.856 335.552 274.145 335.811 274.345C336.07 274.545 336.417 274.645 336.851 274.645C337.256 274.645 337.562 274.569 337.767 274.418C337.977 274.262 338.082 274.059 338.082 273.81ZM343.743 276H341.619V268.075H343.743V276ZM341.495 266.024C341.495 265.707 341.6 265.446 341.81 265.241C342.024 265.036 342.315 264.933 342.681 264.933C343.042 264.933 343.331 265.036 343.545 265.241C343.76 265.446 343.868 265.707 343.868 266.024C343.868 266.347 343.758 266.61 343.538 266.815C343.323 267.021 343.038 267.123 342.681 267.123C342.325 267.123 342.037 267.021 341.817 266.815C341.602 266.61 341.495 266.347 341.495 266.024ZM348.453 273.004L349.917 268.075H352.188L349.002 277.23L348.826 277.648C348.353 278.683 347.571 279.201 346.482 279.201C346.175 279.201 345.862 279.154 345.545 279.062V277.458L345.867 277.465C346.268 277.465 346.565 277.404 346.761 277.282C346.961 277.16 347.117 276.957 347.229 276.674L347.479 276.022L344.703 268.075H346.98L348.453 273.004ZM352.576 271.964C352.576 271.178 352.728 270.478 353.03 269.862C353.333 269.247 353.768 268.771 354.334 268.434C354.905 268.097 355.567 267.929 356.319 267.929C357.388 267.929 358.26 268.256 358.934 268.91C359.612 269.564 359.991 270.453 360.069 271.576L360.083 272.118C360.083 273.334 359.744 274.311 359.065 275.048C358.387 275.78 357.476 276.146 356.333 276.146C355.191 276.146 354.278 275.78 353.594 275.048C352.916 274.315 352.576 273.319 352.576 272.06V271.964ZM354.693 272.118C354.693 272.87 354.834 273.446 355.118 273.847C355.401 274.242 355.806 274.44 356.333 274.44C356.846 274.44 357.247 274.245 357.535 273.854C357.823 273.458 357.967 272.829 357.967 271.964C357.967 271.227 357.823 270.656 357.535 270.25C357.247 269.845 356.841 269.643 356.319 269.643C355.801 269.643 355.401 269.845 355.118 270.25C354.834 270.651 354.693 271.273 354.693 272.118ZM363.335 268.075L363.401 268.991C363.968 268.283 364.727 267.929 365.679 267.929C366.519 267.929 367.144 268.175 367.554 268.668C367.964 269.162 368.174 269.899 368.184 270.88V276H366.067V270.932C366.067 270.482 365.97 270.158 365.774 269.958C365.579 269.752 365.254 269.65 364.8 269.65C364.205 269.65 363.758 269.904 363.46 270.412V276H361.343V268.075H363.335Z" fill="#23BCC1"/>
<path d="M94.0625 241.762L93.0469 242.777V246H90.2246V231H93.0469V239.311L93.5938 238.607L96.2988 235.434H99.6875L95.8691 239.838L100.02 246H96.7773L94.0625 241.762ZM100.469 240.619C100.469 239.571 100.671 238.637 101.074 237.816C101.478 236.996 102.057 236.361 102.812 235.912C103.574 235.463 104.456 235.238 105.459 235.238C106.885 235.238 108.047 235.674 108.945 236.547C109.85 237.419 110.355 238.604 110.459 240.102L110.479 240.824C110.479 242.445 110.026 243.747 109.121 244.73C108.216 245.707 107.002 246.195 105.479 246.195C103.955 246.195 102.738 245.707 101.826 244.73C100.921 243.754 100.469 242.426 100.469 240.746V240.619ZM103.291 240.824C103.291 241.827 103.48 242.595 103.857 243.129C104.235 243.656 104.775 243.92 105.479 243.92C106.162 243.92 106.696 243.66 107.08 243.139C107.464 242.611 107.656 241.771 107.656 240.619C107.656 239.636 107.464 238.874 107.08 238.334C106.696 237.794 106.156 237.523 105.459 237.523C104.769 237.523 104.235 237.794 103.857 238.334C103.48 238.868 103.291 239.698 103.291 240.824ZM114.814 235.434L114.902 236.654C115.658 235.71 116.67 235.238 117.939 235.238C119.059 235.238 119.893 235.567 120.439 236.225C120.986 236.882 121.266 237.865 121.279 239.174V246H118.457V239.242C118.457 238.643 118.327 238.21 118.066 237.943C117.806 237.67 117.373 237.533 116.768 237.533C115.973 237.533 115.378 237.872 114.98 238.549V246H112.158V235.434H114.814ZM129.756 244.926C129.059 245.772 128.096 246.195 126.865 246.195C125.732 246.195 124.867 245.87 124.268 245.219C123.675 244.568 123.372 243.614 123.359 242.357V235.434H126.182V242.26C126.182 243.36 126.683 243.91 127.686 243.91C128.643 243.91 129.3 243.578 129.658 242.914V235.434H132.49V246H129.834L129.756 244.926ZM137.266 235.434L137.354 236.615C138.102 235.697 139.115 235.238 140.391 235.238C141.751 235.238 142.686 235.775 143.193 236.85C143.936 235.775 144.993 235.238 146.367 235.238C147.513 235.238 148.366 235.574 148.926 236.244C149.486 236.908 149.766 237.911 149.766 239.252V246H146.934V239.262C146.934 238.663 146.816 238.227 146.582 237.953C146.348 237.673 145.934 237.533 145.342 237.533C144.495 237.533 143.91 237.937 143.584 238.744L143.594 246H140.771V239.271C140.771 238.66 140.651 238.217 140.41 237.943C140.169 237.67 139.759 237.533 139.18 237.533C138.379 237.533 137.799 237.865 137.441 238.529V246H134.619V235.434H137.266Z" fill="white"/>
<path opacity="0.9" fill-rule="evenodd" clip-rule="evenodd" d="M76 265C76 260.582 79.5817 257 84 257H113.7H155C159.418 257 163 260.582 163 265V275C163 279.418 159.418 283 155 283H84C79.5817 283 76 279.418 76 275V265Z" fill="url(#paint4_linear)"/>
<path d="M89.6851 276V265.336H92.9663C93.9038 265.336 94.7412 265.548 95.4785 265.973C96.2207 266.393 96.7993 266.994 97.2144 267.775C97.6294 268.551 97.8369 269.435 97.8369 270.426V270.917C97.8369 271.908 97.6318 272.79 97.2217 273.561C96.8164 274.333 96.2427 274.931 95.5005 275.355C94.7583 275.78 93.9209 275.995 92.9883 276H89.6851ZM91.8823 267.116V274.235H92.9443C93.8037 274.235 94.4604 273.954 94.9146 273.393C95.3687 272.831 95.6006 272.028 95.6104 270.983V270.419C95.6104 269.335 95.3857 268.515 94.9365 267.958C94.4873 267.396 93.8306 267.116 92.9663 267.116H91.8823ZM102.949 276.146C101.787 276.146 100.84 275.79 100.107 275.077C99.3799 274.364 99.0161 273.415 99.0161 272.228V272.023C99.0161 271.227 99.1699 270.517 99.4775 269.892C99.7852 269.262 100.22 268.778 100.781 268.441C101.348 268.1 101.992 267.929 102.715 267.929C103.799 267.929 104.651 268.271 105.271 268.954C105.896 269.638 106.208 270.607 106.208 271.862V272.726H101.162C101.23 273.244 101.436 273.659 101.777 273.971C102.124 274.284 102.561 274.44 103.088 274.44C103.904 274.44 104.541 274.145 105 273.554L106.04 274.718C105.723 275.167 105.293 275.519 104.751 275.773C104.209 276.022 103.608 276.146 102.949 276.146ZM102.708 269.643C102.288 269.643 101.946 269.784 101.682 270.067C101.423 270.351 101.257 270.756 101.184 271.283H104.128V271.115C104.119 270.646 103.992 270.285 103.748 270.031C103.503 269.772 103.157 269.643 102.708 269.643ZM107.109 271.979C107.109 270.763 107.397 269.784 107.974 269.042C108.555 268.3 109.336 267.929 110.317 267.929C111.187 267.929 111.863 268.227 112.346 268.822L112.434 268.075H114.353V275.736C114.353 276.43 114.194 277.033 113.877 277.545C113.564 278.058 113.123 278.449 112.551 278.717C111.98 278.986 111.311 279.12 110.544 279.12C109.963 279.12 109.397 279.003 108.845 278.769C108.293 278.539 107.876 278.241 107.593 277.875L108.53 276.586C109.058 277.177 109.697 277.472 110.449 277.472C111.011 277.472 111.448 277.321 111.76 277.018C112.073 276.72 112.229 276.295 112.229 275.744V275.319C111.741 275.871 111.099 276.146 110.303 276.146C109.351 276.146 108.579 275.775 107.988 275.033C107.402 274.286 107.109 273.297 107.109 272.067V271.979ZM109.226 272.133C109.226 272.851 109.37 273.415 109.658 273.825C109.946 274.23 110.342 274.433 110.845 274.433C111.489 274.433 111.951 274.191 112.229 273.708V270.375C111.946 269.892 111.489 269.65 110.859 269.65C110.352 269.65 109.951 269.857 109.658 270.272C109.37 270.688 109.226 271.308 109.226 272.133ZM113.203 264.823C113.203 265.473 112.969 265.998 112.5 266.398C112.036 266.798 111.426 266.999 110.669 266.999C109.912 266.999 109.299 266.801 108.831 266.405C108.367 266.01 108.135 265.482 108.135 264.823H109.636C109.636 265.131 109.727 265.37 109.907 265.541C110.093 265.707 110.347 265.79 110.669 265.79C110.986 265.79 111.235 265.707 111.416 265.541C111.597 265.37 111.687 265.131 111.687 264.823H113.203ZM118.22 276H116.096V268.075H118.22V276ZM115.972 266.024C115.972 265.707 116.077 265.446 116.287 265.241C116.501 265.036 116.792 264.933 117.158 264.933C117.52 264.933 117.808 265.036 118.022 265.241C118.237 265.446 118.345 265.707 118.345 266.024C118.345 266.347 118.235 266.61 118.015 266.815C117.8 267.021 117.515 267.123 117.158 267.123C116.802 267.123 116.514 267.021 116.294 266.815C116.079 266.61 115.972 266.347 115.972 266.024ZM124.263 273.81C124.263 273.551 124.133 273.349 123.875 273.202C123.621 273.051 123.21 272.917 122.644 272.799C120.759 272.404 119.817 271.603 119.817 270.397C119.817 269.694 120.107 269.108 120.688 268.639C121.274 268.166 122.039 267.929 122.981 267.929C123.987 267.929 124.79 268.166 125.391 268.639C125.996 269.113 126.299 269.728 126.299 270.485H124.182C124.182 270.182 124.084 269.933 123.889 269.738C123.694 269.538 123.389 269.438 122.974 269.438C122.617 269.438 122.341 269.518 122.146 269.679C121.951 269.84 121.853 270.045 121.853 270.294C121.853 270.529 121.963 270.719 122.183 270.866C122.407 271.007 122.783 271.132 123.311 271.239C123.838 271.342 124.282 271.459 124.644 271.591C125.762 272.001 126.321 272.711 126.321 273.722C126.321 274.445 126.011 275.031 125.391 275.48C124.771 275.924 123.97 276.146 122.988 276.146C122.324 276.146 121.733 276.029 121.216 275.795C120.703 275.556 120.3 275.231 120.007 274.821C119.714 274.406 119.568 273.959 119.568 273.48H121.575C121.594 273.856 121.733 274.145 121.992 274.345C122.251 274.545 122.598 274.645 123.032 274.645C123.438 274.645 123.743 274.569 123.948 274.418C124.158 274.262 124.263 274.059 124.263 273.81ZM123.853 276.015L123.772 276.439C124.504 276.571 124.871 276.994 124.871 277.707C124.871 278.244 124.646 278.668 124.197 278.981C123.752 279.293 123.125 279.45 122.314 279.45L122.263 278.227C122.81 278.227 123.083 278.029 123.083 277.633C123.083 277.428 123 277.287 122.834 277.208C122.673 277.135 122.41 277.086 122.043 277.062L122.271 276.015H123.853ZM130.569 272.821L129.807 273.583V276H127.69V264.75H129.807V270.983L130.217 270.456L132.246 268.075H134.788L131.924 271.378L135.037 276H132.605L130.569 272.821ZM139.204 276.146C138.042 276.146 137.095 275.79 136.362 275.077C135.635 274.364 135.271 273.415 135.271 272.228V272.023C135.271 271.227 135.425 270.517 135.732 269.892C136.04 269.262 136.475 268.778 137.036 268.441C137.603 268.1 138.247 267.929 138.97 267.929C140.054 267.929 140.906 268.271 141.526 268.954C142.151 269.638 142.463 270.607 142.463 271.862V272.726H137.417C137.485 273.244 137.69 273.659 138.032 273.971C138.379 274.284 138.816 274.44 139.343 274.44C140.159 274.44 140.796 274.145 141.255 273.554L142.295 274.718C141.978 275.167 141.548 275.519 141.006 275.773C140.464 276.022 139.863 276.146 139.204 276.146ZM138.962 269.643C138.542 269.643 138.201 269.784 137.937 270.067C137.678 270.351 137.512 270.756 137.439 271.283H140.383V271.115C140.374 270.646 140.247 270.285 140.002 270.031C139.758 269.772 139.412 269.643 138.962 269.643ZM145.62 268.075L145.686 268.991C146.252 268.283 147.012 267.929 147.964 267.929C148.804 267.929 149.429 268.175 149.839 268.668C150.249 269.162 150.459 269.899 150.469 270.88V276H148.352V270.932C148.352 270.482 148.254 270.158 148.059 269.958C147.864 269.752 147.539 269.65 147.085 269.65C146.489 269.65 146.042 269.904 145.745 270.412V276H143.628V268.075H145.62Z" fill="#9F9F9F"/>
<path d="M215.328 242.006L217.281 235.434H220.309L216.061 247.641L215.826 248.197C215.195 249.577 214.153 250.268 212.701 250.268C212.291 250.268 211.874 250.206 211.451 250.082V247.943L211.881 247.953C212.415 247.953 212.812 247.872 213.072 247.709C213.339 247.546 213.548 247.276 213.697 246.898L214.029 246.029L210.328 235.434H213.365L215.328 242.006ZM220.826 240.619C220.826 239.571 221.028 238.637 221.432 237.816C221.835 236.996 222.415 236.361 223.17 235.912C223.932 235.463 224.814 235.238 225.816 235.238C227.242 235.238 228.404 235.674 229.303 236.547C230.208 237.419 230.712 238.604 230.816 240.102L230.836 240.824C230.836 242.445 230.383 243.747 229.479 244.73C228.574 245.707 227.359 246.195 225.836 246.195C224.312 246.195 223.095 245.707 222.184 244.73C221.279 243.754 220.826 242.426 220.826 240.746V240.619ZM223.648 240.824C223.648 241.827 223.837 242.595 224.215 243.129C224.592 243.656 225.133 243.92 225.836 243.92C226.52 243.92 227.053 243.66 227.438 243.139C227.822 242.611 228.014 241.771 228.014 240.619C228.014 239.636 227.822 238.874 227.438 238.334C227.053 237.794 226.513 237.523 225.816 237.523C225.126 237.523 224.592 237.794 224.215 238.334C223.837 238.868 223.648 239.698 223.648 240.824ZM235.172 235.434L235.26 236.654C236.015 235.71 237.027 235.238 238.297 235.238C239.417 235.238 240.25 235.567 240.797 236.225C241.344 236.882 241.624 237.865 241.637 239.174V246H238.814V239.242C238.814 238.643 238.684 238.21 238.424 237.943C238.163 237.67 237.73 237.533 237.125 237.533C236.331 237.533 235.735 237.872 235.338 238.549V246H232.516V235.434H235.172Z" fill="white"/>
<path opacity="0.9" fill-rule="evenodd" clip-rule="evenodd" d="M183 265C183 260.582 186.582 257 191 257H220.7H262C266.418 257 270 260.582 270 265V275C270 279.418 266.418 283 262 283H191C186.582 283 183 279.418 183 275V265Z" fill="url(#paint5_linear)"/>
<path d="M196.685 276V265.336H199.966C200.904 265.336 201.741 265.548 202.479 265.973C203.221 266.393 203.799 266.994 204.214 267.775C204.629 268.551 204.837 269.435 204.837 270.426V270.917C204.837 271.908 204.632 272.79 204.222 273.561C203.816 274.333 203.243 274.931 202.5 275.355C201.758 275.78 200.921 275.995 199.988 276H196.685ZM198.882 267.116V274.235H199.944C200.804 274.235 201.46 273.954 201.915 273.393C202.369 272.831 202.601 272.028 202.61 270.983V270.419C202.61 269.335 202.386 268.515 201.937 267.958C201.487 267.396 200.831 267.116 199.966 267.116H198.882ZM209.949 276.146C208.787 276.146 207.84 275.79 207.107 275.077C206.38 274.364 206.016 273.415 206.016 272.228V272.023C206.016 271.227 206.17 270.517 206.478 269.892C206.785 269.262 207.22 268.778 207.781 268.441C208.348 268.1 208.992 267.929 209.715 267.929C210.799 267.929 211.651 268.271 212.271 268.954C212.896 269.638 213.208 270.607 213.208 271.862V272.726H208.162C208.23 273.244 208.436 273.659 208.777 273.971C209.124 274.284 209.561 274.44 210.088 274.44C210.904 274.44 211.541 274.145 212 273.554L213.04 274.718C212.723 275.167 212.293 275.519 211.751 275.773C211.209 276.022 210.608 276.146 209.949 276.146ZM209.708 269.643C209.288 269.643 208.946 269.784 208.682 270.067C208.423 270.351 208.257 270.756 208.184 271.283H211.128V271.115C211.119 270.646 210.992 270.285 210.748 270.031C210.503 269.772 210.157 269.643 209.708 269.643ZM214.109 271.979C214.109 270.763 214.397 269.784 214.974 269.042C215.555 268.3 216.336 267.929 217.317 267.929C218.187 267.929 218.863 268.227 219.346 268.822L219.434 268.075H221.353V275.736C221.353 276.43 221.194 277.033 220.877 277.545C220.564 278.058 220.123 278.449 219.551 278.717C218.98 278.986 218.311 279.12 217.544 279.12C216.963 279.12 216.397 279.003 215.845 278.769C215.293 278.539 214.876 278.241 214.593 277.875L215.53 276.586C216.058 277.177 216.697 277.472 217.449 277.472C218.011 277.472 218.448 277.321 218.76 277.018C219.073 276.72 219.229 276.295 219.229 275.744V275.319C218.741 275.871 218.099 276.146 217.303 276.146C216.351 276.146 215.579 275.775 214.988 275.033C214.402 274.286 214.109 273.297 214.109 272.067V271.979ZM216.226 272.133C216.226 272.851 216.37 273.415 216.658 273.825C216.946 274.23 217.342 274.433 217.845 274.433C218.489 274.433 218.951 274.191 219.229 273.708V270.375C218.946 269.892 218.489 269.65 217.859 269.65C217.352 269.65 216.951 269.857 216.658 270.272C216.37 270.688 216.226 271.308 216.226 272.133ZM220.203 264.823C220.203 265.473 219.969 265.998 219.5 266.398C219.036 266.798 218.426 266.999 217.669 266.999C216.912 266.999 216.299 266.801 215.831 266.405C215.367 266.01 215.135 265.482 215.135 264.823H216.636C216.636 265.131 216.727 265.37 216.907 265.541C217.093 265.707 217.347 265.79 217.669 265.79C217.986 265.79 218.235 265.707 218.416 265.541C218.597 265.37 218.687 265.131 218.687 264.823H220.203ZM225.22 276H223.096V268.075H225.22V276ZM222.972 266.024C222.972 265.707 223.077 265.446 223.287 265.241C223.501 265.036 223.792 264.933 224.158 264.933C224.52 264.933 224.808 265.036 225.022 265.241C225.237 265.446 225.345 265.707 225.345 266.024C225.345 266.347 225.235 266.61 225.015 266.815C224.8 267.021 224.515 267.123 224.158 267.123C223.802 267.123 223.514 267.021 223.294 266.815C223.079 266.61 222.972 266.347 222.972 266.024ZM231.263 273.81C231.263 273.551 231.133 273.349 230.875 273.202C230.621 273.051 230.21 272.917 229.644 272.799C227.759 272.404 226.817 271.603 226.817 270.397C226.817 269.694 227.107 269.108 227.688 268.639C228.274 268.166 229.039 267.929 229.981 267.929C230.987 267.929 231.79 268.166 232.391 268.639C232.996 269.113 233.299 269.728 233.299 270.485H231.182C231.182 270.182 231.084 269.933 230.889 269.738C230.694 269.538 230.389 269.438 229.974 269.438C229.617 269.438 229.341 269.518 229.146 269.679C228.951 269.84 228.853 270.045 228.853 270.294C228.853 270.529 228.963 270.719 229.183 270.866C229.407 271.007 229.783 271.132 230.311 271.239C230.838 271.342 231.282 271.459 231.644 271.591C232.762 272.001 233.321 272.711 233.321 273.722C233.321 274.445 233.011 275.031 232.391 275.48C231.771 275.924 230.97 276.146 229.988 276.146C229.324 276.146 228.733 276.029 228.216 275.795C227.703 275.556 227.3 275.231 227.007 274.821C226.714 274.406 226.568 273.959 226.568 273.48H228.575C228.594 273.856 228.733 274.145 228.992 274.345C229.251 274.545 229.598 274.645 230.032 274.645C230.438 274.645 230.743 274.569 230.948 274.418C231.158 274.262 231.263 274.059 231.263 273.81ZM230.853 276.015L230.772 276.439C231.504 276.571 231.871 276.994 231.871 277.707C231.871 278.244 231.646 278.668 231.197 278.981C230.752 279.293 230.125 279.45 229.314 279.45L229.263 278.227C229.81 278.227 230.083 278.029 230.083 277.633C230.083 277.428 230 277.287 229.834 277.208C229.673 277.135 229.41 277.086 229.043 277.062L229.271 276.015H230.853ZM237.569 272.821L236.807 273.583V276H234.69V264.75H236.807V270.983L237.217 270.456L239.246 268.075H241.788L238.924 271.378L242.037 276H239.605L237.569 272.821ZM246.204 276.146C245.042 276.146 244.095 275.79 243.362 275.077C242.635 274.364 242.271 273.415 242.271 272.228V272.023C242.271 271.227 242.425 270.517 242.732 269.892C243.04 269.262 243.475 268.778 244.036 268.441C244.603 268.1 245.247 267.929 245.97 267.929C247.054 267.929 247.906 268.271 248.526 268.954C249.151 269.638 249.463 270.607 249.463 271.862V272.726H244.417C244.485 273.244 244.69 273.659 245.032 273.971C245.379 274.284 245.816 274.44 246.343 274.44C247.159 274.44 247.796 274.145 248.255 273.554L249.295 274.718C248.978 275.167 248.548 275.519 248.006 275.773C247.464 276.022 246.863 276.146 246.204 276.146ZM245.962 269.643C245.542 269.643 245.201 269.784 244.937 270.067C244.678 270.351 244.512 270.756 244.439 271.283H247.383V271.115C247.374 270.646 247.247 270.285 247.002 270.031C246.758 269.772 246.412 269.643 245.962 269.643ZM252.62 268.075L252.686 268.991C253.252 268.283 254.012 267.929 254.964 267.929C255.804 267.929 256.429 268.175 256.839 268.668C257.249 269.162 257.459 269.899 257.469 270.88V276H255.352V270.932C255.352 270.482 255.254 270.158 255.059 269.958C254.864 269.752 254.539 269.65 254.085 269.65C253.489 269.65 253.042 269.904 252.745 270.412V276H250.628V268.075H252.62Z" fill="#9F9F9F"/>
<g opacity="0.8">
<path fill-rule="evenodd" clip-rule="evenodd" d="M226.5 185.5V215.5V185.5Z" fill="white"/>
<path d="M227 185.5V185H226V185.5H227ZM226.5 215.5L229.387 210.5H223.613L226.5 215.5ZM226 185.5V211H227V185.5H226Z" fill="white"/>
<path fill-rule="evenodd" clip-rule="evenodd" d="M333.5 185.5V215.5V185.5Z" fill="white"/>
<path d="M334 185.5V185H333V185.5H334ZM333.5 215.5L336.387 210.5H330.613L333.5 215.5ZM333 185.5V211H334V185.5H333Z" fill="white"/>
<path fill-rule="evenodd" clip-rule="evenodd" d="M440.5 185.5V215.5V185.5Z" fill="white"/>
<path d="M441 185.5V185H440V185.5H441ZM440.5 215.5L443.387 210.5H437.613L440.5 215.5ZM440 185.5V211H441V185.5H440Z" fill="white"/>
<path d="M119.5 184.5H441" stroke="white" stroke-linecap="square"/>
<path d="M281.5 183.5V167.5" stroke="white" stroke-linecap="square"/>
<path fill-rule="evenodd" clip-rule="evenodd" d="M119.5 185.5V215.5V185.5Z" fill="white"/>
<path d="M120 185.5V185H119V185.5H120ZM119.5 215.5L122.387 210.5H116.613L119.5 215.5ZM119 185.5V211H120V185.5H119Z" fill="white"/>
</g>
<defs>
<linearGradient id="paint0_linear" x1="0" y1="0" x2="0" y2="351" gradientUnits="userSpaceOnUse">
<stop stop-color="#23D4AB"/>
<stop offset="1" stop-color="#23BCC1"/>
</linearGradient>
<linearGradient id="paint1_linear" x1="249" y1="141" x2="249" y2="167" gradientUnits="userSpaceOnUse">
<stop stop-color="white"/>
<stop offset="1" stop-color="#E4E4E4"/>
</linearGradient>
<linearGradient id="paint2_linear" x1="397" y1="257" x2="397" y2="283" gradientUnits="userSpaceOnUse">
<stop stop-color="white"/>
<stop offset="1" stop-color="#E4E4E4"/>
</linearGradient>
<linearGradient id="paint3_linear" x1="290" y1="257" x2="290" y2="283" gradientUnits="userSpaceOnUse">
<stop stop-color="white"/>
<stop offset="1" stop-color="#E4E4E4"/>
</linearGradient>
<linearGradient id="paint4_linear" x1="76" y1="257" x2="76" y2="283" gradientUnits="userSpaceOnUse">
<stop stop-color="white"/>
<stop offset="1" stop-color="#E4E4E4"/>
</linearGradient>
<linearGradient id="paint5_linear" x1="183" y1="257" x2="183" y2="283" gradientUnits="userSpaceOnUse">
<stop stop-color="white"/>
<stop offset="1" stop-color="#E4E4E4"/>
</linearGradient>
</defs>
</svg>
