<svg width="560" height="41" viewBox="0 0 560 41" fill="none" xmlns="http://www.w3.org/2000/svg">
<path d="M0.5 8C0.5 3.85786 3.85786 0.5 8 0.5H199.5V40.5H0.5V8Z" fill="#F2F2F2"/>
<path d="M0.5 8C0.5 3.85786 3.85786 0.5 8 0.5H199.5V40.5H0.5V8Z" fill="url(#paint0_linear)"/>
<path d="M0.5 8C0.5 3.85786 3.85786 0.5 8 0.5H199.5V40.5H0.5V8Z" stroke="#4F4F4F"/>
<path d="M200.5 0.5H552C556.142 0.5 559.5 3.85786 559.5 8V40.5H200.5V0.5Z" fill="#F2F2F2"/>
<path d="M200.5 0.5H552C556.142 0.5 559.5 3.85786 559.5 8V40.5H200.5V0.5Z" fill="url(#paint1_linear)"/>
<path d="M200.5 0.5H552C556.142 0.5 559.5 3.85786 559.5 8V40.5H200.5V0.5Z" stroke="#4F4F4F"/>
<path d="M21.6172 28V15.1504H24.3418V28H21.6172ZM21.5117 12.6631C21.5117 11.79 21.998 11.3535 22.9707 11.3535C23.9434 11.3535 24.4297 11.79 24.4297 12.6631C24.4297 13.0791 24.3066 13.4043 24.0605 13.6387C23.8203 13.8672 23.457 13.9814 22.9707 13.9814C21.998 13.9814 21.5117 13.542 21.5117 12.6631ZM36.4355 28H33.7549V22.2607C33.7549 21.5518 33.6289 21.0215 33.377 20.6699C33.125 20.3125 32.7236 20.1338 32.1729 20.1338C31.4229 20.1338 30.8809 20.3857 30.5469 20.8896C30.2129 21.3877 30.0459 22.2168 30.0459 23.377V28H27.3652V18.1738H29.4131L29.7734 19.4307H29.9229C30.2217 18.9561 30.6318 18.5986 31.1533 18.3584C31.6807 18.1123 32.2783 17.9893 32.9463 17.9893C34.0889 17.9893 34.9561 18.2998 35.5479 18.9209C36.1396 19.5361 36.4355 20.4268 36.4355 21.5928V28ZM47.7471 18.1738V19.5361L46.209 19.9316C46.4902 20.3711 46.6309 20.8633 46.6309 21.4082C46.6309 22.4629 46.2617 23.2861 45.5234 23.8779C44.791 24.4639 43.7715 24.7568 42.4648 24.7568L41.9814 24.7305L41.5859 24.6865C41.3105 24.8975 41.1729 25.1318 41.1729 25.3896C41.1729 25.7764 41.665 25.9697 42.6494 25.9697H44.3193C45.3975 25.9697 46.2178 26.2012 46.7803 26.6641C47.3486 27.127 47.6328 27.8066 47.6328 28.7031C47.6328 29.8516 47.1523 30.7422 46.1914 31.375C45.2363 32.0078 43.8623 32.3242 42.0693 32.3242C40.6982 32.3242 39.6494 32.084 38.9229 31.6035C38.2021 31.1289 37.8418 30.4609 37.8418 29.5996C37.8418 29.0078 38.0264 28.5127 38.3955 28.1143C38.7646 27.7158 39.3066 27.4316 40.0215 27.2617C39.7461 27.1445 39.5059 26.9541 39.3008 26.6904C39.0957 26.4209 38.9932 26.1367 38.9932 25.8379C38.9932 25.4629 39.1016 25.1523 39.3184 24.9062C39.5352 24.6543 39.8486 24.4082 40.2588 24.168C39.7432 23.9453 39.333 23.5879 39.0283 23.0957C38.7295 22.6035 38.5801 22.0234 38.5801 21.3555C38.5801 20.2832 38.9287 19.4541 39.626 18.8682C40.3232 18.2822 41.3193 17.9893 42.6143 17.9893C42.8896 17.9893 43.2148 18.0156 43.5898 18.0684C43.9707 18.1152 44.2139 18.1504 44.3193 18.1738H47.7471ZM40.1621 29.3887C40.1621 29.7578 40.3379 30.0479 40.6895 30.2588C41.0469 30.4697 41.5449 30.5752 42.1836 30.5752C43.1445 30.5752 43.8975 30.4434 44.4424 30.1797C44.9873 29.916 45.2598 29.5557 45.2598 29.0986C45.2598 28.7295 45.0986 28.4746 44.7764 28.334C44.4541 28.1934 43.9561 28.123 43.2822 28.123H41.8936C41.4014 28.123 40.9883 28.2373 40.6543 28.4658C40.3262 28.7002 40.1621 29.0078 40.1621 29.3887ZM41.1377 21.3906C41.1377 21.9238 41.2578 22.3457 41.498 22.6562C41.7441 22.9668 42.1162 23.1221 42.6143 23.1221C43.1182 23.1221 43.4873 22.9668 43.7217 22.6562C43.9561 22.3457 44.0732 21.9238 44.0732 21.3906C44.0732 20.207 43.5869 19.6152 42.6143 19.6152C41.6299 19.6152 41.1377 20.207 41.1377 21.3906ZM49.2588 15.6338C49.2588 14.7607 49.7451 14.3242 50.7178 14.3242C51.6904 14.3242 52.1768 14.7607 52.1768 15.6338C52.1768 16.0498 52.0537 16.375 51.8076 16.6094C51.5674 16.8379 51.2041 16.9521 50.7178 16.9521C49.7451 16.9521 49.2588 16.5127 49.2588 15.6338ZM52.0537 28H49.373V18.1738H52.0537V28ZM57.5557 28H54.875V14.3242H57.5557V28ZM60.2627 15.6338C60.2627 14.7607 60.749 14.3242 61.7217 14.3242C62.6943 14.3242 63.1807 14.7607 63.1807 15.6338C63.1807 16.0498 63.0576 16.375 62.8115 16.6094C62.5713 16.8379 62.208 16.9521 61.7217 16.9521C60.749 16.9521 60.2627 16.5127 60.2627 15.6338ZM63.0576 28H60.377V18.1738H63.0576V28ZM72.7168 28H64.9561V26.418L69.5088 20.2217H65.2285V18.1738H72.5586V19.9141L68.1289 25.9521H72.7168V28ZM78.6582 28.1758C75.5996 28.1758 74.0703 26.4971 74.0703 23.1396C74.0703 21.4697 74.4863 20.1953 75.3184 19.3164C76.1504 18.4316 77.3428 17.9893 78.8955 17.9893C80.0322 17.9893 81.0518 18.2119 81.9541 18.6572L81.1631 20.7314C80.7412 20.5615 80.3486 20.4238 79.9854 20.3184C79.6221 20.207 79.2588 20.1514 78.8955 20.1514C77.501 20.1514 76.8037 21.1416 76.8037 23.1221C76.8037 25.0439 77.501 26.0049 78.8955 26.0049C79.4111 26.0049 79.8887 25.9375 80.3281 25.8027C80.7676 25.6621 81.207 25.4453 81.6465 25.1523V27.4463C81.2129 27.7217 80.7734 27.9121 80.3281 28.0176C79.8887 28.123 79.332 28.1758 78.6582 28.1758ZM88.001 19.8965C87.4326 19.8965 86.9873 20.0781 86.665 20.4414C86.3428 20.7988 86.1582 21.3086 86.1113 21.9707H89.873C89.8613 21.3086 89.6885 20.7988 89.3545 20.4414C89.0205 20.0781 88.5693 19.8965 88.001 19.8965ZM88.3789 28.1758C86.7969 28.1758 85.5605 27.7393 84.6699 26.8662C83.7793 25.9932 83.334 24.7568 83.334 23.1572C83.334 21.5107 83.7441 20.2393 84.5645 19.3428C85.3906 18.4404 86.5303 17.9893 87.9834 17.9893C89.3721 17.9893 90.4531 18.3848 91.2266 19.1758C92 19.9668 92.3867 21.0596 92.3867 22.4541V23.7549H86.0498C86.0791 24.5166 86.3047 25.1113 86.7266 25.5391C87.1484 25.9668 87.7402 26.1807 88.502 26.1807C89.0938 26.1807 89.6533 26.1191 90.1807 25.9961C90.708 25.873 91.2588 25.6768 91.833 25.4072V27.4814C91.3643 27.7158 90.8633 27.8887 90.3301 28C89.7969 28.1172 89.1465 28.1758 88.3789 28.1758Z" fill="#4F4F4F"/>
<path d="M226.574 28H223.85V17.418H220.36V15.1504H230.063V17.418H226.574V28ZM238.791 28L238.431 26.7432H238.29C238.003 27.2002 237.596 27.5547 237.068 27.8066C236.541 28.0527 235.94 28.1758 235.267 28.1758C234.112 28.1758 233.242 27.8682 232.656 27.2529C232.07 26.6318 231.777 25.7412 231.777 24.5811V18.1738H234.458V23.9131C234.458 24.6221 234.584 25.1553 234.836 25.5127C235.088 25.8643 235.489 26.04 236.04 26.04C236.79 26.04 237.332 25.791 237.666 25.293C238 24.7891 238.167 23.957 238.167 22.7969V18.1738H240.848V28H238.791ZM233.289 15.6514C233.289 15.2705 233.397 14.9775 233.614 14.7725C233.837 14.5674 234.136 14.4648 234.511 14.4648C234.897 14.4648 235.199 14.5732 235.416 14.79C235.639 15.0068 235.75 15.2939 235.75 15.6514C235.75 16.0029 235.639 16.2871 235.416 16.5039C235.193 16.7148 234.892 16.8203 234.511 16.8203C234.136 16.8203 233.837 16.7178 233.614 16.5127C233.397 16.3076 233.289 16.0205 233.289 15.6514ZM236.831 15.6514C236.831 15.2412 236.948 14.9424 237.183 14.7549C237.423 14.5615 237.719 14.4648 238.07 14.4648C238.451 14.4648 238.753 14.5703 238.976 14.7812C239.204 14.9922 239.318 15.2822 239.318 15.6514C239.318 16.0088 239.204 16.293 238.976 16.5039C238.747 16.7148 238.445 16.8203 238.07 16.8203C237.719 16.8203 237.423 16.7266 237.183 16.5391C236.948 16.3457 236.831 16.0498 236.831 15.6514ZM249.145 17.9893C249.508 17.9893 249.81 18.0156 250.05 18.0684L249.848 20.582C249.631 20.5234 249.367 20.4941 249.057 20.4941C248.201 20.4941 247.533 20.7139 247.053 21.1533C246.578 21.5928 246.341 22.208 246.341 22.999V28H243.66V18.1738H245.69L246.086 19.8262H246.218C246.522 19.2754 246.933 18.833 247.448 18.499C247.97 18.1592 248.535 17.9893 249.145 17.9893ZM254.409 22.6562L255.578 21.1621L258.329 18.1738H261.353L257.45 22.4365L261.59 28H258.496L255.666 24.0186L254.515 24.9414V28H251.834V14.3242H254.515V20.4238L254.374 22.6562H254.409ZM266.986 28.1758C263.928 28.1758 262.398 26.4971 262.398 23.1396C262.398 21.4697 262.814 20.1953 263.646 19.3164C264.479 18.4316 265.671 17.9893 267.224 17.9893C268.36 17.9893 269.38 18.2119 270.282 18.6572L269.491 20.7314C269.069 20.5615 268.677 20.4238 268.313 20.3184C267.95 20.207 267.587 20.1514 267.224 20.1514C265.829 20.1514 265.132 21.1416 265.132 23.1221C265.132 25.0439 265.829 26.0049 267.224 26.0049C267.739 26.0049 268.217 25.9375 268.656 25.8027C269.096 25.6621 269.535 25.4453 269.975 25.1523V27.4463C269.541 27.7217 269.102 27.9121 268.656 28.0176C268.217 28.123 267.66 28.1758 266.986 28.1758ZM268.665 30.1973C268.665 30.9473 268.442 31.4893 267.997 31.8232C267.558 32.1572 266.875 32.3242 265.949 32.3242C265.492 32.3242 265.064 32.2627 264.666 32.1396V30.6631C264.824 30.7041 265.035 30.7451 265.299 30.7861C265.568 30.8271 265.776 30.8477 265.923 30.8477C266.345 30.8477 266.556 30.666 266.556 30.3027C266.556 29.8164 266.069 29.5 265.097 29.3535L265.782 28H267.479L267.241 28.5361C267.675 28.6768 268.021 28.8936 268.278 29.1865C268.536 29.4854 268.665 29.8223 268.665 30.1973ZM276.329 19.8965C275.761 19.8965 275.315 20.0781 274.993 20.4414C274.671 20.7988 274.486 21.3086 274.439 21.9707H278.201C278.189 21.3086 278.017 20.7988 277.683 20.4414C277.349 20.0781 276.897 19.8965 276.329 19.8965ZM276.707 28.1758C275.125 28.1758 273.889 27.7393 272.998 26.8662C272.107 25.9932 271.662 24.7568 271.662 23.1572C271.662 21.5107 272.072 20.2393 272.893 19.3428C273.719 18.4404 274.858 17.9893 276.312 17.9893C277.7 17.9893 278.781 18.3848 279.555 19.1758C280.328 19.9668 280.715 21.0596 280.715 22.4541V23.7549H274.378C274.407 24.5166 274.633 25.1113 275.055 25.5391C275.477 25.9668 276.068 26.1807 276.83 26.1807C277.422 26.1807 277.981 26.1191 278.509 25.9961C279.036 25.873 279.587 25.6768 280.161 25.4072V27.4814C279.692 27.7158 279.191 27.8887 278.658 28C278.125 28.1172 277.475 28.1758 276.707 28.1758Z" fill="#4F4F4F"/>
<defs>
<linearGradient id="paint0_linear" x1="100" y1="0" x2="100" y2="41" gradientUnits="userSpaceOnUse">
<stop stop-color="white"/>
<stop offset="1" stop-color="white" stop-opacity="0"/>
</linearGradient>
<linearGradient id="paint1_linear" x1="380" y1="0" x2="380" y2="41" gradientUnits="userSpaceOnUse">
<stop stop-color="white"/>
<stop offset="1" stop-color="white" stop-opacity="0"/>
</linearGradient>
</defs>
</svg>
